<?xml version="1.0" encoding="UTF-8"?><svg id="Table" xmlns="http://www.w3.org/2000/svg" viewBox="0 0 420.81 372.06"><defs><style>.cls-1,.cls-2,.cls-3,.cls-4,.cls-5,.cls-6,.cls-7,.cls-8,.cls-9,.cls-10,.cls-11,.cls-12,.cls-13,.cls-14,.cls-15,.cls-16,.cls-17,.cls-18,.cls-19,.cls-20,.cls-21,.cls-22,.cls-23,.cls-24,.cls-25,.cls-26,.cls-27,.cls-28,.cls-29,.cls-30,.cls-31,.cls-32,.cls-33,.cls-34,.cls-35,.cls-36,.cls-37,.cls-38,.cls-39,.cls-40,.cls-41{stroke-width:0px;}.cls-1,.cls-42{opacity:.6;}.cls-2,.cls-43,.cls-17{opacity:.3;}.cls-3{fill:none;}.cls-4,.cls-7,.cls-8,.cls-12,.cls-13,.cls-29{fill:#fff;}.cls-4,.cls-44{opacity:.7;}.cls-45,.cls-5,.cls-11,.cls-12{opacity:.1;}.cls-6,.cls-7,.cls-9,.cls-14,.cls-46,.cls-47,.cls-41{opacity:.2;}.cls-6,.cls-9,.cls-10,.cls-11,.cls-15,.cls-23{fill:#43688c;}.cls-8{opacity:.8;}.cls-9,.cls-14,.cls-17,.cls-47{isolation:isolate;}.cls-10,.cls-16,.cls-48{opacity:.4;}.cls-13{opacity:.9;}.cls-49{stroke:#898989;stroke-miterlimit:10;}.cls-49,.cls-28{fill:#64a2d0;}.cls-15{opacity:.5;}.cls-19{fill:#263238;}.cls-20{fill:#474747;}.cls-21{fill:#396284;}.cls-22{fill:#2e353a;}.cls-24{fill:#407bff;}.cls-25{fill:#e0e0e0;}.cls-26{fill:#de5753;}.cls-27{fill:#b55b52;}.cls-30{fill:#ffb573;}.cls-31{fill:#ffc3bd;}.cls-32{fill:#fafafa;}.cls-33{fill:#e83f3f;}.cls-34{fill:#ed847e;}.cls-35{fill:#ebebeb;}.cls-36{fill:#ed893e;}.cls-37{fill:#f0f0f0;}.cls-38{fill:#e8bfbf;}.cls-39{fill:#e6e6e6;}.cls-40{fill:#f5f5f5;}</style></defs><rect class="cls-35" x="378.57" y="343.54" width="33.12" height=".25"/><rect class="cls-35" x="284.32" y="346.26" width="8.69" height=".25"/><rect class="cls-35" x="358.38" y="334.26" width="19.19" height=".25"/><rect class="cls-35" x="14.25" y="335.94" width="43.19" height=".25"/><rect class="cls-35" x="66.35" y="335.94" width="6.33" height=".25"/><rect class="cls-35" x="93.26" y="340.16" width="93.68" height=".25"/><path class="cls-35" d="m198.81,282.85H5.71c-3.15,0-5.71-2.56-5.71-5.71V5.71C0,2.56,2.56,0,5.71,0h193.1c3.15,0,5.71,2.56,5.71,5.71v271.43c0,3.15-2.56,5.71-5.71,5.71ZM5.71.25C2.7.25.25,2.7.25,5.71v271.43c0,3.01,2.45,5.46,5.46,5.46h193.1c3.01,0,5.46-2.45,5.46-5.46V5.71c0-3.01-2.45-5.46-5.46-5.46H5.71Z"/><path class="cls-35" d="m415.1,282.85h-193.1c-3.15,0-5.71-2.56-5.71-5.71V5.71c0-3.15,2.56-5.71,5.71-5.71h193.1c3.15,0,5.71,2.56,5.71,5.71v271.43c0,3.15-2.56,5.71-5.71,5.71ZM222,.25c-3.01,0-5.46,2.45-5.46,5.46v271.43c0,3.01,2.45,5.46,5.46,5.46h193.1c3.01,0,5.46-2.45,5.46-5.46V5.71c0-3.01-2.45-5.46-5.46-5.46h-193.1Z"/><path class="cls-37" d="m248.77,270.11c-.1-.09-.16-.22-.17-.36-.12-2.53-1.64-27.4-16.87-44.43-12.88-14.41.33-4.13,6.06.51.46.37,1.09-.17.79-.68-4.04-6.83-14.18-24.89-10.67-28.4,3.32-3.32,10.19,13.17,13.25,21.17.22.58,1.09.37,1.02-.24-.88-8.47-2.17-26.17,2.6-25.55,4.72.62,3.4,24.01,2.47,35.46-.05.63.85.81,1.04.2,2.13-7.04,6.19-17.46,10.95-14.7,7.05,4.08-10.37,18.42-9.28,33.98,1.07,15.25,1.35,25.25-1.2,23.06Z"/><path class="cls-37" d="m257.91,272.41c.05,0,.12-.23.09-.41-3.33-21.07,18.99-36.39,34.66-43.97,3.49-1.69,7.11-3.43,10.08-6.02-5.81.39-11.61,2.82-17.17,4.69-.73.25-1.12-.51-.49-.95,7.11-4.94,26.9-23.09,21.2-28.38-2.58-2.39-16.78,16.56-20.13,19.96-.54.55-1.4.06-1.02-.58,4.41-7.38,5.87-30.66,1.4-30.38-1.89.12-2.61,11.03-3.6,15.47-1.86,8.31-5.35,16.12-9,23.77-.32.67-1.45.56-1.28-.11,1.27-5.09,1.74-20.02-4.52-18.94-4.54.78-3.81,9.57-3.86,14.28-.08,8.36-.77,16.93-4.37,24.37-2.45,5.07-5.5,27.64-1.99,27.22Z"/><path class="cls-35" d="m252.86,274.74c.07-.06.11-.15.11-.24.08-1.7,1.1-18.39,11.32-29.82,8.65-9.67-.22-2.77-4.07.34-.31.25-.73-.12-.53-.46,2.71-4.59,9.52-16.71,7.16-19.07-2.23-2.23-6.84,8.84-8.9,14.21-.15.39-.73.25-.69-.16.59-5.68,1.46-17.57-1.75-17.15-3.17.41-2.28,16.12-1.66,23.8.03.43-.57.54-.7.13-1.43-4.73-4.15-11.72-7.35-9.87-4.73,2.74,6.96,12.36,6.23,22.81-.72,10.24-.91,16.95.81,15.48Z"/><path class="cls-39" d="m264.38,321.66c5.26-19.62,8.73-47.26,8.73-54.07h-39.26c0,6.81,3.47,34.44,8.73,54.07.97,3.61,4.25,6.11,7.98,6.11h5.84c3.73,0,7.01-2.5,7.98-6.11Z"/><path class="cls-40" d="m271.98,280.59c.29-2.39.53-4.56.71-6.47h-38.42c.18,1.91.42,4.09.71,6.47h36.99Z"/><rect class="cls-40" x="73.51" y="154.84" width="47.75" height="43.02" transform="translate(194.78 352.7) rotate(180)"/><rect class="cls-35" x="78.12" y="158.99" width="38.54" height="34.71" rx="4.6" ry="4.6" transform="translate(194.78 352.7) rotate(180)"/><path class="cls-25" d="m105.34,158.99c-.28,1.18-1.45,2.07-2.84,2.07h-10.23c-1.39,0-2.56-.89-2.84-2.07h15.9Z"/><rect class="cls-37" x="73.51" y="197.86" width="47.75" height="43.02" transform="translate(194.78 438.73) rotate(180)"/><rect class="cls-32" x="78.12" y="202.01" width="38.54" height="34.71" rx="4.6" ry="4.6" transform="translate(194.78 438.73) rotate(180)"/><path class="cls-25" d="m105.34,202.01c-.28,1.18-1.45,2.07-2.84,2.07h-10.23c-1.39,0-2.56-.89-2.84-2.07h15.9Z"/><rect class="cls-40" x="73.51" y="240.87" width="47.75" height="43.02" transform="translate(194.78 524.76) rotate(180)"/><rect class="cls-35" x="78.12" y="245.02" width="38.54" height="34.71" rx="4.6" ry="4.6" transform="translate(194.78 524.76) rotate(180)"/><path class="cls-25" d="m105.34,245.02c-.28,1.18-1.45,2.07-2.84,2.07h-10.23c-1.39,0-2.56-.89-2.84-2.07h15.9Z"/><rect class="cls-37" x="73.51" y="283.89" width="47.75" height="43.02" transform="translate(194.78 610.8) rotate(180)"/><rect class="cls-32" x="78.12" y="288.04" width="38.54" height="34.71" rx="4.6" ry="4.6" transform="translate(194.78 610.8) rotate(180)"/><path class="cls-25" d="m105.34,288.04c-.28,1.18-1.45,2.07-2.84,2.07h-10.23c-1.39,0-2.56-.89-2.84-2.07h15.9Z"/><rect class="cls-39" x="67.66" y="154.84" width="5.85" height="172.07" transform="translate(141.17 481.75) rotate(180)"/><rect class="cls-40" x="24.2" y="154.84" width="47.75" height="43.02" transform="translate(96.14 352.7) rotate(180)"/><rect class="cls-35" x="28.8" y="158.99" width="38.54" height="34.71" rx="4.6" ry="4.6" transform="translate(96.14 352.7) rotate(180)"/><path class="cls-25" d="m56.02,158.99c-.28,1.18-1.45,2.07-2.84,2.07h-10.23c-1.39,0-2.56-.89-2.84-2.07h15.9Z"/><rect class="cls-37" x="24.2" y="197.86" width="47.75" height="43.02" transform="translate(96.14 438.73) rotate(180)"/><rect class="cls-32" x="28.8" y="202.01" width="38.54" height="34.71" rx="4.6" ry="4.6" transform="translate(96.14 438.73) rotate(180)"/><path class="cls-25" d="m56.02,202.01c-.28,1.18-1.45,2.07-2.84,2.07h-10.23c-1.39,0-2.56-.89-2.84-2.07h15.9Z"/><rect class="cls-40" x="24.2" y="240.87" width="47.75" height="43.02" transform="translate(96.14 524.76) rotate(180)"/><rect class="cls-35" x="28.8" y="245.02" width="38.54" height="34.71" rx="4.6" ry="4.6" transform="translate(96.14 524.76) rotate(180)"/><path class="cls-25" d="m56.02,245.02c-.28,1.18-1.45,2.07-2.84,2.07h-10.23c-1.39,0-2.56-.89-2.84-2.07h15.9Z"/><rect class="cls-37" x="24.2" y="283.89" width="47.75" height="43.02" transform="translate(96.14 610.8) rotate(180)"/><rect class="cls-32" x="28.8" y="288.04" width="38.54" height="34.71" rx="4.6" ry="4.6" transform="translate(96.14 610.8) rotate(180)"/><path class="cls-25" d="m56.02,288.04c-.28,1.18-1.45,2.07-2.84,2.07h-10.23c-1.39,0-2.56-.89-2.84-2.07h15.9Z"/><rect class="cls-39" x="18.34" y="154.84" width="5.85" height="172.07" transform="translate(42.54 481.75) rotate(180)"/><rect class="cls-25" x="279.23" y="42.38" width="1.8" height="140.37"/><rect class="cls-25" x="391.28" y="42.38" width="1.8" height="140.37"/><polygon class="cls-35" points="400.13 51.2 272.18 51.2 269.48 44.9 402.83 44.9 400.13 51.2"/><polygon class="cls-35" points="400.13 59.85 272.18 59.85 269.48 53.55 402.83 53.55 400.13 59.85"/><polygon class="cls-35" points="400.13 68.5 272.18 68.5 269.48 62.2 402.83 62.2 400.13 68.5"/><polygon class="cls-35" points="400.13 77.15 272.18 77.15 269.48 70.85 402.83 70.85 400.13 77.15"/><polygon class="cls-35" points="400.13 85.8 272.18 85.8 269.48 79.5 402.83 79.5 400.13 85.8"/><polygon class="cls-35" points="400.13 94.45 272.18 94.45 269.48 88.15 402.83 88.15 400.13 94.45"/><polygon class="cls-35" points="400.13 103.1 272.18 103.1 269.48 96.8 402.83 96.8 400.13 103.1"/><polygon class="cls-35" points="400.13 111.75 272.18 111.75 269.48 105.45 402.83 105.45 400.13 111.75"/><polygon class="cls-35" points="400.13 120.4 272.18 120.4 269.48 114.1 402.83 114.1 400.13 120.4"/><polygon class="cls-35" points="400.13 129.05 272.18 129.05 269.48 122.75 402.83 122.75 400.13 129.05"/><polygon class="cls-35" points="400.13 137.7 272.18 137.7 269.48 131.4 402.83 131.4 400.13 137.7"/><polygon class="cls-35" points="400.13 146.35 272.18 146.35 269.48 140.05 402.83 140.05 400.13 146.35"/><polygon class="cls-35" points="400.13 155 272.18 155 269.48 148.7 402.83 148.7 400.13 155"/><polygon class="cls-35" points="400.13 163.65 272.18 163.65 269.48 157.35 402.83 157.35 400.13 163.65"/><polygon class="cls-35" points="400.13 172.3 272.18 172.3 269.48 166 402.83 166 400.13 172.3"/><polygon class="cls-35" points="400.13 180.95 272.18 180.95 269.48 174.65 402.83 174.65 400.13 180.95"/><rect class="cls-25" x="269.48" y="180.95" width="133.35" height="3.6"/><rect class="cls-25" x="264.83" y="37.01" width="142.65" height="8.4"/><path class="cls-25" d="m266.29,121.57h0c-.8,0-1.45-.65-1.45-1.45v-48.99c0-.8.65-1.45,1.45-1.45h0c.8,0,1.45.65,1.45,1.45v48.99c0,.8-.65,1.45-1.45,1.45Z"/><rect class="cls-25" x="265.77" y="43.73" width="1.05" height="29.1"/><rect class="cls-35" x="16.11" y="35.57" width="163.83" height="99.83"/><rect class="cls-25" x="179.96" y="35.53" width="1.2" height="99.83"/><rect class="cls-25" x="21.07" y="39.91" width=".99" height="89.83"/><rect class="cls-29" x="20.97" y="39.91" width="153.63" height="89.83"/><rect class="cls-40" x="112.31" y="69.84" width="12.66" height="18.18"/><rect class="cls-40" x="28.37" y="98.65" width="12.66" height="18.18"/><rect class="cls-40" x="27.14" y="60.73" width="12.66" height="12.66"/><rect class="cls-40" x="90.11" y="104.45" width="12.66" height="12.66"/><rect class="cls-40" x="132.53" y="71.41" width="32.42" height="45.56"/><rect class="cls-25" x="136.97" y="78" width="23.29" height=".5"/><rect class="cls-25" x="148.36" y="78.49" width=".5" height="33.74"/><rect class="cls-25" x="159.06" y="78.49" width=".5" height="33.74"/><rect class="cls-25" x="138.86" y="78.49" width=".5" height="33.74"/><rect class="cls-25" x="137.19" y="78.49" width=".5" height="33.74"/><rect class="cls-25" x="137.44" y="80.27" width="21.62" height=".5"/><rect class="cls-40" x="82.63" y="54.81" width="4.28" height="9.98" transform="translate(24.97 144.57) rotate(-90)"/><rect class="cls-40" x="85.06" y="86.54" width="3.33" height="9.98" transform="translate(-4.81 178.25) rotate(-90)"/><rect class="cls-37" x="50.93" y="56.26" width="32.42" height="45.56"/><rect class="cls-40" x="82.82" y="93.91" width="3.33" height="9.98" transform="translate(-14.41 183.38) rotate(-90)"/><rect class="cls-40" x="84.48" y="63.45" width="3.33" height="9.98" transform="translate(17.71 154.59) rotate(-90)"/><rect class="cls-40" x="82.3" y="71.72" width="3.33" height="9.98" transform="translate(7.25 160.67) rotate(-90)"/><rect class="cls-39" x="54.75" y="61.86" width="22.1" height="3.92"/><polygon class="cls-39" points="77.21 78.61 55.11 78.61 54.75 76.83 76.85 76.83 77.21 78.61"/><rect class="cls-39" x="54.75" y="69.7" width="7.84" height="3.92"/><circle class="cls-25" cx="223.46" cy="29.8" r="20.45" transform="translate(158.25 245.6) rotate(-80.78)"/><circle class="cls-8" cx="223.21" cy="29.8" r="16.41"/><path class="cls-25" d="m224.83,31.16c0,.92-.74,1.66-1.66,1.66s-1.66-.74-1.66-1.66.74-1.66,1.66-1.66,1.66.74,1.66,1.66Z"/><polygon class="cls-25" points="222.98 31.78 215.92 25.13 216.61 24.4 223 30.42 234.47 20.29 235.13 21.04 222.98 31.78"/><ellipse id="_Path_" class="cls-40" cx="211.79" cy="360.74" rx="193.89" ry="11.32"/><path class="cls-19" d="m316.36,295.94h32.91s-7.41,2.96-12.68,4.28v5.33h-7.54v-5.33c-5.28-1.31-12.68-4.28-12.68-4.28Z"/><path class="cls-19" d="m363.65,282.26c-4.5,0-6.75,0-11.25,0,1.28-9.37,1.28-14.17,0-23.54,4.5,0,6.75,0,11.25,0,1.28,9.37,1.28,14.17,0,23.54Z"/><rect class="cls-19" x="327.93" y="305.54" width="9.77" height="39.38"/><rect class="cls-7" x="327.93" y="305.54" width="9.77" height="39.38"/><path class="cls-20" d="m382.42,261.41h-48.51c-5.7,0-9.66-4.83-8.81-10.51,2.32-17.5,3.56-29.97,3.72-47.63-.04-5.12,3.78-9.08,8.92-9.08h40.83c5.14,0,9.86,3.96,10.65,9.08,2.4,17.49,3.71,29.97,3.95,47.63-.02,5.68-5.06,10.51-10.76,10.51Z"/><path class="cls-24" d="m384.58,250.9c-.24-17.66-1.55-30.14-3.95-47.63-.79-5.12-5.51-9.08-10.65-9.08h-32.23c-5.14,0-8.97,3.96-8.92,9.08-.17,17.66-1.4,30.13-3.72,47.63-.85,5.68,3.11,10.51,8.81,10.51h39.9c5.7,0,10.74-4.83,10.76-10.51Z"/><path class="cls-23" d="m384.58,250.9c-.24-17.66-1.55-30.14-3.95-47.63-.79-5.12-5.51-9.08-10.65-9.08h-32.23c-5.14,0-8.97,3.96-8.92,9.08-.17,17.66-1.4,30.13-3.72,47.63-.85,5.68,3.11,10.51,8.81,10.51h39.9c5.7,0,10.74-4.83,10.76-10.51Z"/><path class="cls-19" d="m361.97,350.43c0,.92-.85,1.61-1.75,1.41-5.31-1.16-21.2-4.5-27.4-4.5s-22.1,3.35-27.4,4.5c-.9.2-1.75-.49-1.75-1.41h0c0-1.79,1.25-3.34,3-3.71,6.21-1.33,20.38-4.24,26.16-4.24s19.95,2.9,26.16,4.24c1.75.38,3,1.92,3,3.71h0Z"/><path class="cls-19" d="m355.48,354.32c0,2.12,1.72,3.83,3.83,3.83,2.12,0,3.83-1.72,3.83-3.83s-1.71-3.83-3.83-3.83-3.83,1.72-3.83,3.83h0Z"/><path class="cls-19" d="m307.3,354.32c0,2.12-1.72,3.83-3.83,3.83-2.12,0-3.83-1.72-3.83-3.83s1.72-3.83,3.83-3.83,3.83,1.72,3.83,3.83h0Z"/><path class="cls-19" d="m336.23,353.09c0,2.12-1.71,3.83-3.83,3.83s-3.83-1.71-3.83-3.83,1.72-3.83,3.83-3.83,3.83,1.72,3.83,3.83h0Z"/><path class="cls-24" d="m347.58,281.51c-19.4.78-38.94.01-58.24-2.05-3.97-.43-7.19,2.39-7.19,6.38v.95c0,3.98,3.22,7.62,7.19,8.05,19.3,2.07,38.84,2.84,58.24,2.05,0-6.15,0-9.23,0-15.38Z"/><path class="cls-20" d="m347.58,281.51c-19.4.78-38.94.01-58.24-2.05-3.97-.43-7.19,2.39-7.19,6.38v.95c0,3.98,3.22,7.62,7.19,8.05,19.3,2.07,38.84,2.84,58.24,2.05,0-6.15,0-9.23,0-15.38Z"/><path class="cls-20" d="m376.67,294.8c-11.12,1.04-22.09,1.78-33.25,2.22-3.78.1-6.85-2.94-6.85-6.72,0-.68,0-1.02,0-1.7,0-3.78,3.07-6.86,6.85-6.96,11.16-.45,22.13-1.18,33.25-2.22,3.77-.41,6.82,2.27,6.82,6.04v1.7c0,3.78-3.05,7.22-6.82,7.63Z"/><polygon class="cls-31" points="271.69 326.87 263.94 327.44 270.65 305.38 277.12 314.84 271.69 326.87"/><g class="cls-46"><polygon class="cls-18" points="270.81 305.07 268.01 314.47 275.6 318.25 277.28 314.54 270.81 305.07"/></g><path class="cls-19" d="m272.78,325.11c.14,1,.04,2.04-.28,3.01-1.12,3.58-4.28,13.02-4.28,13.02l-.79-.23s1.2-4.75,1.51-7.24c.31-2.49-.77-.64-2.86,1.43-2.09,2.08-6.32,3.44-11.51,2.08-6.08-1.6-8.44-2.59-6.22-3.64,2.22-1.05,6.52-.9,6.52-.9,0,0,8.13-3.11,10.65-13.15.57-2.26,1.5-2.03,2.62-.86,2.53,2.65,5.67,4.27,5.67,4.27-.36.83-1.07,1.88-1.02,2.21Z"/><polygon class="cls-31" points="323.01 335.85 317.59 341.42 307.98 320.45 319.1 323.25 323.01 335.85"/><g class="cls-46"><polygon class="cls-18" points="307.9 320.12 312.04 329.01 320.22 326.81 319.02 322.92 307.9 320.12"/></g><path class="cls-19" d="m322.66,333.82c.77.66,1.38,1.5,1.79,2.44,1.54,3.42,5.42,12.59,5.42,12.59l-.75.35s-2.25-4.36-3.67-6.43c-1.42-2.07-1,.03-1.19,2.97-.19,2.94-2.45,6.77-7.24,9.19-5.62,2.83-8.04,3.66-7.07,1.4.96-2.26,4.28-4.99,4.28-4.99,0,0,4.03-7.72-.74-16.91-1.07-2.07-.22-2.51,1.39-2.38,3.65.3,7.08-.56,7.08-.56.28.86.44,2.12.7,2.33Z"/><path class="cls-23" d="m345.23,281.63h-38.97c6.36,4.54,13.85,41.99,13.85,41.99l-10.5,3.64s-2.97-6.46-8.63-21.8c-2.86-7.76-6.31-15.72-8.33-23.52v-.02c-.64-2.45-1.14-4.9-1.43-7.31-.05-.37-.09-.74-.12-1.11-.02-.24-.03-.48-.03-.71,0-.2,0-.4.03-.6v-.15c.03-.16.05-.32.08-.48l.02-.12c.03-.16.07-.32.12-.48,0-.03,0-.05.02-.07.05-.19.11-.37.18-.55l.04-.1c.07-.18.15-.36.24-.53.01-.04.03-.07.05-.1.08-.16.17-.31.26-.46.21-.35.45-.69.72-1.02l.09-.1c.13-.15.27-.3.41-.45.3-.32.63-.62.99-.92,0-.02.03-.03.05-.04.19-.15.38-.3.58-.45.2-.15.41-.3.62-.44l.66-.42c.45-.27.93-.54,1.43-.79.01-.02.03-.02.05-.03.43-.21.87-.42,1.33-.63l.46-.2s.05-.02.06-.02h.01c4.36,1.4,12.37,5.05,20.95,8.71,9.71,4.14,20.16,8.27,26.89,9.13-.7.1-1.43.15-2.18.15Z"/><path class="cls-10" d="m345.23,281.63h-38.97c6.36,4.54,13.85,41.99,13.85,41.99l-10.5,3.64s-2.97-6.46-8.63-21.8c-2.86-7.76-6.31-15.72-8.33-23.52v-.02c-.64-2.45-1.14-4.9-1.43-7.31-.05-.37-.09-.74-.12-1.11-.02-.24-.03-.48-.03-.71,0-.2,0-.4.03-.6v-.15c.03-.16.05-.32.08-.48l.02-.12c.03-.16.07-.32.12-.48,0-.03,0-.05.02-.07.05-.19.11-.37.18-.55l.04-.1c.07-.18.15-.36.24-.53.01-.04.03-.07.05-.1.08-.16.17-.31.26-.46.21-.35.45-.69.72-1.02l.09-.1c.13-.15.27-.3.41-.45.3-.32.63-.62.99-.92,0-.02.03-.03.05-.04.19-.15.38-.3.58-.45.2-.15.41-.3.62-.44l.66-.42c.45-.27.93-.54,1.43-.79.01-.02.03-.02.05-.03.43-.21.87-.42,1.33-.63l.46-.2s.05-.02.06-.02h.01c4.36,1.4,12.37,5.05,20.95,8.71,9.71,4.14,20.16,8.27,26.89,9.13-.7.1-1.43.15-2.18.15Z"/><path class="cls-23" d="m347.41,281.48c-6.73-.86-17.18-4.99-26.89-9.13-8.58-3.66-16.59-7.31-20.95-8.72,12.96-5.45,36.18-5.32,36.18-5.32,0,0,5.99-5.7,12.67-7.06.9-.18,1.82-.29,2.73-.29.07.09.13.17.19.26,11.58,15.44,7.32,28.76-3.93,30.26Z"/><path class="cls-19" d="m303.25,230.24c5.67,5.18,16.81-7.08,18.6-8.54,3.84-3.13,15.14-13.68,14.54-17.34-1.76-10.78-19.45,4.49-24.55,15.01l-8.58,10.87Z"/><path class="cls-19" d="m352.89,197.84c2.84.6,5.92-.42,7.92,1.68s2.84,5.07,3.13,7.97c.41,4.02-.11,8.07-.63,12.08-.63,4.86-1.25,9.72-1.88,14.58-.43,3.32-.22,8.72.46,12v.02c.17.83-.31,1.75-1.1,2.09,0,0-22.07.76-28.48.52-3.41-.13-1.07-9.1-2.12-14.33-.23-1.16-2.52-5.96-2.85-7.18-1.58-5.79-.53-9.77.94-15.59,1.07-4.22,1.5-10.32,3.66-10.79,3.84-.83,13.03-4.73,20.95-3.05Z"/><path class="cls-19" d="m356.04,201.98c.29-.45,8.05-6.98,9.47.57,1.97,10.51-2.1,20.85-2.1,20.85,0,0-.93,11.37-4.23,12.51s-6.45,1.42-7.56-.53c-1.11-1.94-1.11-4.86-1.11-4.86,0,0,.4-20.69,5.54-28.54Z"/><path class="cls-38" d="m350.66,183.42c-.8,4.84-1.48,13.68,1.98,16.79,0,0-8.45,4.42-13.99,12.14-3.2-2.53-3.22-5.75-2.57-8.16.51-1.87,1.86-3.36,3.56-4.3,3.28-1.81,2.97-5.18,2.07-8.36l8.95-8.11Z"/><path class="cls-14" d="m349.56,191.63l-3.15,1.21c-1.35.52-2.79.75-4.23.69h0c.08.7.36,2.17,0,2.99,1.95.71,5.04-.23,6.26-2.01.51-.7.89-2.05,1.12-2.88Z"/><path class="cls-24" d="m362.06,248.34l.93,2.92c.12.23-.14.46-.52.48l-33.24,1.01c-.3,0-.55-.13-.57-.32l-.38-2.94c0-.2.22-.38.55-.4l32.66-.99c.22-.03.44.05.58.23Z"/><path class="cls-24" d="m292.11,269.15c.2-.35.45-.69.72-1.02-.27.33-.51.67-.72,1.02Z"/><path class="cls-24" d="m294.32,266.66c-.36.3-.69.6-.99.92.29-.32.63-.63.99-.92Z"/><path class="cls-1" d="m292.11,269.15c.2-.35.45-.69.72-1.02-.27.33-.51.67-.72,1.02Z"/><path class="cls-1" d="m294.32,266.66c-.36.3-.69.6-.99.92.29-.32.63-.63.99-.92Z"/><path class="cls-38" d="m305.94,226.84c-1.99-1.52-3.74-4.69-4.18-6.71-.14-.65-.2-1.61-.18-2.79.05-5.78,1.68-16.37,1.68-16.37l4.7-1.55s1.46,8.06,1.78,12.49c.06.87.16,1.9.27,2.98.21,1.97.46,4.15.69,5.95l-4.75,6Z"/><path class="cls-19" d="m303.25,230.24c-1.44-1.32-1.69-2.91-2.43-6.32-.71-3.22.09-7.14.75-6.58.06.05.13.15.18.28,1.14,2.69,5.57.33,6.83-1.01.49-.53,1.08-1.12,1.41-1.73.31-.55.4-1.1.04-1.64,1.36-.56,2.46,4.8,1.8,6.12l-.33.99c-.54,1.62-1.38,3.12-2.47,4.43l-2.47,2.97-3.32,2.47Z"/><path class="cls-38" d="m308.06,200.11l.56-8.2s-.96.53-4.53,1.75c-2.29.78-5.36-.59-4.67.89,1.12,2.41,3.82,6.43,3.82,6.43l4.82-.87Z"/><path class="cls-38" d="m308.63,191.91l-3.5-8.21-4.59,2.81c-1.26,2.74-1.12,8.03-1.12,8.03,0,0,6.36.29,9.2-2.63Z"/><path class="cls-19" d="m332.42,169.63c-3.5,6.63-2.65,15.03,1.07,21.55,6.37-4.32,15.62-.88,22.18-4.86,4.39-2.66,6.45-8.4,5.33-13.4-1.21-5.4-7.07-11.72-12.74-12.27-6.37-.62-12.87,3.38-15.83,8.97Z"/><path class="cls-38" d="m354.01,172.25c-2.01-5.27-7.89-7.91-13.16-5.9-7.43,2.78-8.83,13.89-7.44,20.7,1.5,7.6,10.6,10.07,16.49,4.38,3.93-3.78,4.06-6.98,4.73-14.49.16-1.59-.05-3.19-.62-4.69Z"/><path class="cls-36" d="m337.87,184.41c-.76.17-1.55,0-2.16-.47.94-1.17,1.72-2.47,2.3-3.86l-.14,4.33Z"/><path class="cls-19" d="m343.57,185.11c.06-.08.04-.2-.04-.25-.08-.06-.19-.04-.25.05-.97,1.21-2.46,1.88-4,1.79-.1,0-.17.08-.18.18,0,0,0,0,0,0,0,.09.07.17.17.17.29.02.58,0,.87-.03,1.35-.15,2.59-.84,3.44-1.92Z"/><path class="cls-19" d="m343.32,163.45c-.79.78-1.41,1.72-1.8,2.77,7.99,3.98,12.11,14.32,12.48,23.32,3.01-2.46,8.37-5.07,10.97-8.27,2.91-3.59,1.43-8.86-1.93-12.02-2.3-2.17-6.99-5.14-9.7-6.79-3.19-1.94-7.38-1.64-10.03,1Z"/><path class="cls-38" d="m356.77,182.06c.05-1.36-1.02-2.51-2.37-2.55-1.88-.03-3.13,2.31-3.4,3.93-.28,1.8.81,3.35,2.59,2.61,1.34-.57,2.39-1.65,2.95-3.01.15-.31.23-.65.24-.99Z"/><path class="cls-19" d="m343.01,178.01c.02.75-.37,1.38-.86,1.39-.5.02-.9-.58-.92-1.35-.01-.76.37-1.37.85-1.39.49-.02.9.58.93,1.34Z"/><path class="cls-19" d="m336.01,178.79c.02.75-.37,1.38-.86,1.39-.49.02-.9-.58-.92-1.35-.02-.76.37-1.38.86-1.39s.91.58.92,1.34Z"/><path class="cls-19" d="m335.3,177.48l-1.82-.47s.97,1.39,1.82.47Z"/><path class="cls-19" d="m345.14,175.13c.06-.02.12-.05.17-.09.15-.14.15-.37.01-.52,0,0,0,0,0,0-.94-1.04-2.33-1.55-3.71-1.37-.2.04-.32.23-.29.43.04.2.22.33.42.29,1.15-.13,2.29.3,3.06,1.16.09.09.22.13.35.1Z"/><path class="cls-19" d="m333.33,176.41c.06-.03.11-.07.14-.13.65-.96,1.71-1.55,2.86-1.6.2.01.38-.15.39-.35,0,0,0,0,0,0,0-.2-.16-.37-.36-.38-1.4.04-2.7.75-3.49,1.91-.12.16-.1.39.07.52.11.09.27.1.4.03h0Z"/><path class="cls-19" d="m342.3,176.71l-1.82-.47s.97,1.39,1.82.47Z"/><path class="cls-19" d="m331.39,180.17c-.23,4.64,1.91,11.64,5.19,14.92-3.06,1.34-7.17-1.99-9.48-4.38-2.31-2.39-3.25-5.91-2.95-9.23.29-3.32,1.71-6.46,3.56-9.23,3.05-4.56,7.52-7.69,12.45-10.02.99-.47,2.53-.66,2.85.38.22.72-.39,1.4-.95,1.9-5.39,4.87-9.5,8.18-10.67,15.67Z"/><path class="cls-19" d="m349.53,193.1s-.04-.01-.06-.02c-.14-.07-.19-.24-.12-.38,5.68-10.99-4.71-22.91-8.03-26.29-.11-.11-.11-.29,0-.39.11-.11.29-.1.39,0,3.39,3.46,13.98,15.61,8.13,26.94-.06.12-.19.17-.31.14Z"/><polygon class="cls-24" points="353.75 185.16 352.53 189.23 353.41 190.4 354.26 189.26 353.75 185.16"/><path class="cls-38" d="m353.24,195.51c-.03-.26-.06-.61-.09-.98-.15-1.75,1.05-3.33,2.78-3.64.01,0,.03,0,.04,0,.5-.09.92-.45,1.09-.93.62-1.79.86-2.34,1.45-4.1,1.62-.39,3.52.21,5.2.39.46,2,.5,4.1.09,6.11-.09.45-.21.91-.51,1.25-.3.34-3.57,2.65-4.99,3.07-1.48.44-3.51-1.02-5.05-1.16Z"/><path class="cls-38" d="m358.09,196.72s4.41,28.44-.13,32.77c-2.67,2.55-4.97,1.14-6.42-.45-1.08-1.18-1.56-2.79-1.39-4.38l3.09-29.14s3.06-1.77,4.85,1.2Z"/><path class="cls-21" d="m359.91,279.32c-1.23.66-2.56,1.17-3.97,1.55-.35.09-.71.18-1.07.25-1.65.36-3.38.53-5.13.53-.53,0-1.1-.03-1.71-.1-.2-.02-.41-.04-.62-.07-.21-.03-.42-.06-.64-.09-.63-.1-1.28-.22-1.97-.36-.73-.16-1.5-.34-2.29-.55-.26-.07-.51-.14-.77-.21-.98-.27-1.99-.57-3.03-.9-.35-.11-.7-.23-1.05-.34-1.98-.65-4.03-1.4-6.14-2.2-.27-.1-.55-.21-.83-.32-2.68-1.04-5.41-2.16-8.11-3.29-.69-.29-1.38-.58-2.06-.87-8.58-3.66-16.59-7.31-20.95-8.72h-.01s-.03.03-.06.03l-.46.2c-.46.21-.9.42-1.33.63-.02.01-.04.01-.05.03-.5.25-.98.52-1.43.79l-.66.42c-.21.14-.42.29-.62.44-.2.15-.39.3-.58.45-.02.01-.04.02-.05.04-.36.3-.69.6-.99.92-.14.15-.28.3-.41.45l-.09.1c-.27.33-.51.67-.72,1.02-.09.15-.18.3-.26.46-.02.03-.04.06-.05.1-.09.17-.17.35-.24.53l-.04.1c-.07.18-.13.36-.18.55-.01.02-.02.04-.02.07-.05.16-.09.32-.12.48l-.02.12c-.03.16-.05.32-.07.48v.15c-.03.2-.04.4-.04.6,0,.23,0,.47.03.71.03.37.07.74.12,1.11.29,2.41.79,4.86,1.43,7.31-1.41,3.49-2.84,6.93-4.24,10.21-.47,1.09-.93,2.17-1.38,3.22-1.59,3.7-3.11,7.13-4.45,10.14-.2.43-.39.85-.57,1.26-.56,1.24-1.08,2.39-1.56,3.45-.17.35-.32.7-.47,1.03-.72,1.56-1.33,2.88-1.8,3.9-.07.14-.14.28-.2.42-.07.13-.12.26-.18.38-.05.12-.11.23-.16.34-.41.87-.28.58-.28.58l-9.53-5.49s7.13-25.25,11.77-48.56c1.74-8.79,8.94-15.47,17.84-16.49,18.26-2.08,43.42,5.06,43.42,5.06,0,0,.21,0,.58-.01.17,0,.37-.01.61-.01.16,0,.33,0,.51,0,.99-.02,2.36-.04,3.95-.06.61-.01,1.25-.02,1.91-.03h.33c.52-.01,1.05-.01,1.6-.02.33,0,.66-.01.99-.01.22,0,.43-.01.65-.01.28,0,.56-.01.84-.01,3.18-.04,6.44-.06,9.05-.05,8.73,15.15,5.37,24.22-1.97,28.17Z"/><g class="cls-43"><path class="cls-21" d="m359.91,279.32c-1.23.66-2.56,1.17-3.97,1.55-.35.09-.71.18-1.07.25-1.65.36-3.38.53-5.13.53-.53,0-1.1-.03-1.71-.1-.2-.02-.41-.04-.62-.07-.21-.03-.42-.06-.64-.09-.63-.1-1.28-.22-1.97-.36-.73-.16-1.5-.34-2.29-.55-.26-.07-.51-.14-.77-.21-.98-.27-1.99-.57-3.03-.9-.35-.11-.7-.23-1.05-.34-1.98-.65-4.03-1.4-6.14-2.2-.27-.1-.55-.21-.83-.32-2.68-1.04-5.41-2.16-8.11-3.29-.69-.29-1.38-.58-2.06-.87-8.58-3.66-16.59-7.31-20.95-8.72h-.01s-.03.03-.06.03l-.46.2c-.46.21-.9.42-1.33.63-.02.01-.04.01-.05.03-.5.25-.98.52-1.43.79l-.66.42c-.21.14-.42.29-.62.44-.2.15-.39.3-.58.45-.02.01-.04.02-.05.04-.36.3-.69.6-.99.92-.14.15-.28.3-.41.45l-.09.1c-.27.33-.51.67-.72,1.02-.09.15-.18.3-.26.46-.02.03-.04.06-.05.1-.09.17-.17.35-.24.53l-.04.1c-.07.18-.13.36-.18.55-.01.02-.02.04-.02.07-.05.16-.09.32-.12.48l-.02.12c-.03.16-.05.32-.07.48v.15c-.03.2-.04.4-.04.6,0,.23,0,.47.03.71.03.37.07.74.12,1.11.29,2.41.79,4.86,1.43,7.31-1.41,3.49-2.84,6.93-4.24,10.21-.47,1.09-.93,2.17-1.38,3.22-1.59,3.7-3.11,7.13-4.45,10.14-.2.43-.39.85-.57,1.26-.56,1.24-1.08,2.39-1.56,3.45-.17.35-.32.7-.47,1.03-.72,1.56-1.33,2.88-1.8,3.9-.07.14-.14.28-.2.42-.07.13-.12.26-.18.38-.05.12-.11.23-.16.34-.41.87-.28.58-.28.58l-9.53-5.49s7.13-25.25,11.77-48.56c1.74-8.79,8.94-15.47,17.84-16.49,18.26-2.08,43.42,5.06,43.42,5.06,0,0,.21,0,.58-.01.17,0,.37-.01.61-.01.16,0,.33,0,.51,0,.99-.02,2.36-.04,3.95-.06.61-.01,1.25-.02,1.91-.03h.33c.52-.01,1.05-.01,1.6-.02.33,0,.66-.01.99-.01.22,0,.43-.01.65-.01.28,0,.56-.01.84-.01,3.18-.04,6.44-.06,9.05-.05,8.73,15.15,5.37,24.22-1.97,28.17Z"/></g><g class="cls-48"><rect class="cls-23" x="192.97" y="309.39" width="9.37" height="39.11"/><rect class="cls-6" x="192.97" y="309.39" width="9.37" height="39.11"/><rect class="cls-23" x="194.32" y="284.61" width="6.68" height="24.97"/><polygon class="cls-9" points="201 289.24 194.32 291.68 194.32 284.61 201 284.61 201 289.24"/><path class="cls-23" d="m224.57,354.32c0,2.12,1.72,3.83,3.83,3.83,2.12,0,3.83-1.72,3.83-3.83s-1.71-3.83-3.83-3.83-3.83,1.72-3.83,3.83h0Z"/><path class="cls-23" d="m168.3,354.32c0,2.12-1.72,3.83-3.83,3.83-2.12,0-3.83-1.72-3.83-3.83s1.72-3.83,3.83-3.83,3.83,1.72,3.83,3.83h0Z"/><path class="cls-23" d="m201.49,353.09c0,2.12-1.71,3.83-3.83,3.83s-3.83-1.71-3.83-3.83c0-2.12,1.72-3.83,3.83-3.83s3.83,1.72,3.83,3.83h0Z"/><path class="cls-23" d="m156.13,349.17c.18.89.98,1.53,1.89,1.5l39.95-.55,37.41.85c.91.03,1.71-.61,1.88-1.5.2-1.01-.46-1.98-1.46-2.19l-20.43-3.97c-2.12-.4-4.27-.6-6.43-.6h-21.95c-2.15,0-4.3.2-6.42.6l-22.96,3.68c-1,.19-1.67,1.16-1.47,2.18Z"/><path class="cls-23" d="m155.51,284.51v.09h1.32c-.45,0-.88-.03-1.32-.09Z"/><path class="cls-23" d="m208.99,208.11c.01.06.01.13.01.19v68.4h-61.31v-69.11c0-.52.03-1.04.1-1.56l-.1.03.58-9.63c.16-2.72,1.29-5.3,3.18-7.26l6.13-6.42,3.16-16.04c.49-2.49,2.68-4.3,5.22-4.3h14.14c2.27,0,4.3,1.45,5.04,3.6l5.92,17.26,11.29,6.95c2.89,1.78,4.85,4.75,5.34,8.1l1.47,9.82-.17-.03Z"/><path class="cls-11" d="m208.99,208.11c.01.06.01.13.01.19v68.4h-53.09v-69.11c0-.52.03-1.04.1-1.56l-.1.03.58-9.63c.16-2.72,1.29-5.3,3.18-7.26l6.13-6.42,3.16-16.04c.49-2.49,2.68-4.3,5.22-4.3h5.92c2.27,0,4.3,1.45,5.04,3.6l5.92,17.26,11.29,6.95c2.89,1.78,4.85,4.75,5.34,8.1l1.47,9.82-.17-.03Z"/><path class="cls-23" d="m214.32,287.92h-32.91s7.41,2.96,12.68,4.28v5.33h7.54v-5.33c5.28-1.31,12.68-4.28,12.68-4.28Z"/><path class="cls-23" d="m183.1,273.5c19.4.78,38.94.01,58.24-2.05,3.97-.43,7.19,2.39,7.19,6.38v.95c0,3.98-3.22,7.62-7.19,8.05-19.3,2.07-38.84,2.84-58.24,2.05,0-6.15,0-9.23,0-15.38Z"/><path class="cls-6" d="m183.1,273.5c19.4.78,38.94.01,58.24-2.05,3.97-.43,7.19,2.39,7.19,6.38v.95c0,3.98-3.22,7.62-7.19,8.05-19.3,2.07-38.84,2.84-58.24,2.05,0-6.15,0-9.23,0-15.38Z"/><path class="cls-23" d="m154.01,286.78c11.12,1.04,22.09,1.78,33.25,2.22,3.78.1,6.85-2.94,6.85-6.72,0-.68,0-1.02,0-1.7,0-3.78-3.07-6.86-6.85-6.96-11.16-.45-22.13-1.18-33.25-2.22-3.77-.41-6.82,2.27-6.82,6.04v1.7c0,3.78,3.05,7.22,6.82,7.63Z"/></g><path class="cls-30" d="m245.49,191.13l.94,3.13-1.76,2.6s-2.63,2.81-6.47,3.67c-1.34.3-2.73-.32-3.47-1.49l-.37-.59c-.16-.26-.29-.54-.39-.84-.54-1.62-.06-2.6,1.24-3.68l4.44-4.65c.33-.28,5.78-1.27,5.78-1.27.6-.06.13,2.52.07,3.12Z"/><path class="cls-19" d="m217.36,211.03s13.24-13.67,15.77-15.05l.91-.7,4.16,5.26c-.58.59-20.13,34.46-27.54,21.82-1.38-2.38-2.66-4.72-3.83-7.1-.61-1.24-4.31-8.74-4.87-9.97-.1-.22-.3-.66-.57-1.25-2.69-5.96-3.68-12.97,1.87-17.11h0c2.07-.91,5.48,1.56,6.29,4.78l7.8,19.32Z"/><g class="cls-45"><path class="cls-29" d="m217.36,211.03s13.24-13.67,15.77-15.05l.91-.7,4.16,5.26c-.58.59-20.13,34.46-27.54,21.82-1.38-2.38-2.66-4.72-3.83-7.1-.61-1.24-4.31-8.74-4.87-9.97-.1-.22-.3-.66-.57-1.25-2.69-5.96-3.68-12.97,1.87-17.11h0c2.07-.91,5.48,1.56,6.29,4.78l7.8,19.32Z"/></g><polygon class="cls-30" points="261.91 332.12 264.48 348.81 257.45 348.81 252.47 332.12 261.91 332.12"/><path class="cls-19" d="m264.71,347.7l-7.26.17c-.33-.02-.59.21-.59.52h0c-.61,1.68-.75,3.5-.39,5.25.28,1.36.67,2.66,1.09,2.67,3.27.02,11.99.08,20.66,0,3.64.07,3.64-3.72.83-3.72-6.83-.25-10.43-2.61-12.88-4.37-.43-.32-.95-.5-1.47-.51Z"/><polygon class="cls-41" points="263.15 340.17 261.91 332.12 252.47 332.12 255.41 341.94 263.15 340.17"/><polygon class="cls-30" points="206.33 330.73 200.87 344.69 193.17 344.69 196.69 330.93 206.33 330.73"/><polygon class="cls-41" points="195.11 337.11 196.6 329.52 206.33 330.73 203.84 337.33 195.11 337.11"/><path class="cls-19" d="m201.09,343.48l-6.48-2.98c-.24-.21-.59-.19-.79.04,0,0,0,0,0,0l-4.85,4.3c-.46.59-.34,1.46.27,1.95,2.52,1.91,4.24,3.6,7.39,6.07,1.93,1.52,5.56,4.67,8.23,6.78,2.67,2.1,4.56-.46,3.6-1.56-4.29-5.01-5.82-10.6-6.56-13.35-.13-.48-.41-.92-.8-1.25Z"/><path class="cls-10" d="m212.87,252.08c-8.28-22.35-2.83-42.91-3.87-54.29-.53-5.76-4.81-10.47-10.49-11.56-5.66-1.09-12.64-2.32-19.31-3.22-.64-.09-1.28-.13-1.93-.12-7.21.1-12.98,6.02-12.89,13.24.58,33.73,11.39,55.95,11.39,55.95l17.45-.07,19.65.07Z"/><path class="cls-30" d="m193.95,173.57c-1.2,4.61-1.57,10.36,4.88,12.74,1.79,2.85,2.66,5.85-4.23,4.78-5.48-.71-10.47-3.53-13.9-7.87,4.13-3.61,3.37-14.68,2.33-20.93l10.93,11.27Z"/><path class="cls-19" d="m217.2,248.83s39.99-1.08,40.87,17.03c1.26,26.03,5.66,70.52,5.66,70.52l-10.78,2.36s-15.38-43.55-15.98-63.88c-16.08-3.2-40.24,1.65-45.1-8.91-2.38-5.49-3.01-11.38-1.83-17.12h27.15Z"/><g class="cls-45"><path class="cls-18" d="m217.2,248.83s39.99-1.08,40.87,17.03c1.26,26.03,5.66,70.52,5.66,70.52l-10.78,2.36s-15.38-43.55-15.98-63.88c-16.08-3.2-40.24,1.65-45.1-8.91-2.38-5.49-3.01-11.38-1.83-17.12h27.15Z"/></g><path class="cls-19" d="m201.8,246.85s27.1,3.81,25.82,21.91c-1.39,19.81-22.16,65.74-22.16,65.74h-10.48s6.97-41.69,10.13-61.87c-14.62,0-23.76,1.91-28.63-8.68-2.38-5.49-3.01-11.38-1.82-17.12h27.14Z"/><path class="cls-19" d="m204.6,186.61c2.31,1.95,6.04,5.1,6.66,23.91.2,6-.73,11.99-.58,17.99.18,6.93,1.85,11.81,4.24,18.33,0,1.55-2.34,2.42-4.33,2.82-4.13-9.02-6.71-17.63-6.56-27.54.56-35.51-10.51-38.82-10.11-40.09l10.67,4.58Z"/><path class="cls-17" d="m188.91,176.96c1.4.92,3.06,1.41,4.37,1.06-.01-1.12.07-2.24.24-3.35l-7.15-5.88c-.16.76-.26,1.54-.3,2.31-.13,2.31.91,4.58,2.84,5.86Z"/><path class="cls-30" d="m199.61,146.28c7.57,4.27,7.65,16.37,5.31,23.35-.66,2.06-1.95,3.87-3.68,5.17-4.63,3.47-11.19,2.54-14.67-2.09-3.7-4.68-3.17-9.4-2.98-17.51.2-8.11,8.45-13.19,16.02-8.92Z"/><path class="cls-14" d="m198.36,166.7c2.43,1.05,7.01,1.41,7.01,1.41-.72,3.29-2.54,5.5-4.13,6.7-4.63,3.47-11.19,2.54-14.67-2.09-3.02-3.83-3.98-6.42-3.09-13.4,5.87,3.34,9.57,5.09,14.88,7.39Z"/><path class="cls-30" d="m184.61,161.68c.11-.73-.41-1.41-.96-1.9s-1.19-.94-1.5-1.61c-.28-.61-.23-1.31-.18-1.98.15-1.91.3-3.82.44-5.73.34-4.42,7.18-1.84,6.97,1.86-.14,2.52-1.92,2.57-3.4,4.07-1.72,1.75-1.08,3.24-1.38,5.29Z"/><path class="cls-14" d="m184.61,161.68c.11-.73-.41-1.41-.96-1.9s-1.19-.94-1.5-1.61c-.28-.61-.23-1.31-.18-1.98.15-1.91.3-3.82.44-5.73.34-4.42,7.18-1.84,6.97,1.86-.14,2.52-1.92,2.57-3.4,4.07-1.72,1.75-1.08,3.24-1.38,5.29Z"/><path class="cls-30" d="m182.36,158.45c2.27.51,3.24,3.77,3.17,5.86-.01,2.37-1.76,3.92-3.73,2.49-1.49-1.11-2.5-2.74-2.84-4.56-.4-2.24,1.12-4.3,3.39-3.79Z"/><path class="cls-19" d="m194.38,155.88c.65-.73,2.42-1,3.38-.86h0s.01,0,.02,0c.2.03.39-.11.42-.31.03-.21-.11-.41-.33-.46-1.21-.18-3.22.18-4.04,1.09,0,0,0,0,0,0-.14.16-.13.4.03.55.05.05.11.08.17.11.13.02.26-.03.35-.13Z"/><path class="cls-19" d="m205.56,157.54s.02,0,.02-.01c.17-.11.22-.34.1-.51-.62-1.1-1.71-1.86-2.97-2.03,0,0-.02,0-.03,0-.2,0-.36.16-.36.36,0,.22.16.4.37.42.99.16,1.85.76,2.33,1.64.07.11.18.19.31.2.08,0,.15-.01.21-.05Z"/><path class="cls-22" d="m198.31,169.44c-.95,1.11-2.29,3.32-2.29,3.32-.18-.07-.36-.14-.54-.23-2.43-1.05-3.13-2.52-3.16-3.83-.01-.72.18-1.39.39-1.91.24-.61.53-1,.53-1,.87,1.5,3.05,2.69,4.24,3.27.5.25.82.37.82.37Z"/><path class="cls-29" d="m197.48,169.07l-.35.48c-.2.28-.58.38-.89.24-1.8-.85-2.99-1.75-3.42-2.71-.08-.18-.06-.4.03-.58.2-.43.4-.7.4-.7.87,1.5,3.05,2.69,4.24,3.27Z"/><path class="cls-26" d="m195.48,172.54c-2.43-1.05-3.13-2.52-3.16-3.83.81.4,1.74.99,2.41,1.82.52.63.7,1.35.74,2.01Z"/><path class="cls-19" d="m202.63,159.86c.42.08.66.68.54,1.33-.13.65-.58,1.12-1,1.03-.42-.09-.66-.68-.54-1.33.11-.64.58-1.11,1-1.03Z"/><path class="cls-19" d="m194.5,157.93c.42.08.66.68.54,1.33-.13.65-.58,1.12-1,1.03-.42-.09-.66-.68-.54-1.33.11-.64.58-1.11,1-1.03Z"/><path class="cls-34" d="m198.64,166.43s1.79,1.18,3.26.49c-1.21-2.7-1.05-2.09-1.42-6.7l-1.84,6.21Z"/><path class="cls-20" d="m202.55,251.09s-9.84,3.81-12.09,4.56c-2.65.88-5.34,1.77-8.1,1.86-2.76.08-5.66-.73-7.66-2.86-2.35-2.51-3.08-6.31-3.69-9.88-1.8-10.48-3.61-20.96-5.41-31.44-.89-5.17-3.14-12.93-2.94-15.89.35-5.44,3.82-11.87,12.64-15.41,3.43-1.38,6.81-.85,9.7,2.61,1.72,2.06,6.75,7.02,7.99,15.76.99,7,2.52,16.07,2.43,23.18-.12,9.33,3.59,21.12,7.14,27.52Z"/><path class="cls-19" d="m163.12,194.56c-1,9.11,4.03,32.07,5,33.45,4.13,13.32,15.47,6.14,17.12,5.53,2.86-1.06,5.77-3.12,8.49-4.49,5.28-2.62,10.28-4.73,15.19-8l-2.77-5.46c-5.38,1.84-20.62,5.77-23.13,6.39-1.09.29-5.33,2.51-5.29-.42-.6-.98-1.43-19.99-3.26-26.72-.21-.76-.57-1.45-1.06-2.07l-.17-.21c-2.95-3.69-8.82-2.52-10.14,2.01h0Z"/><path class="cls-12" d="m163.12,194.56c-1,9.11,4.03,32.07,5,33.45,4.13,13.32,15.47,6.14,17.12,5.53,2.86-1.06,5.77-3.12,8.49-4.49,5.28-2.62,10.28-4.73,15.19-8l-2.77-5.46c-5.38,1.84-20.62,5.77-23.13,6.39-1.09.29-5.33,2.51-5.29-.42-.6-.98-1.43-19.99-3.26-26.72-.21-.76-.57-1.45-1.06-2.07l-.17-.21c-2.95-3.69-8.82-2.52-10.14,2.01h0Z"/><path class="cls-30" d="m204.13,217.39l-.58,3.12c1.38,3.6,9.31,2.65,9.31,2.65v-9.22s-6.98,1.62-6.98,1.62c-.89.21-1.58.93-1.75,1.83Z"/><polygon class="cls-30" points="212.87 213.94 212.83 223.18 219.85 223.35 221.46 215.22 212.87 213.94"/><path class="cls-19" d="m208.71,151.69c.15.85-.15,1.83-.91,2.24-.62.33-1.36.22-2.05.1-2.3-.4-4.6-.8-6.9-1.2-3.96-.69-7.92-1.38-11.82-2.31-1.75-.42-4.3-.95-4.41-2.74-.53-8.65,13.6-6.94,16.62-5.89,9.93,3.47,9.33,8.96,9.48,9.81Z"/><rect class="cls-19" x="73.52" y="309.39" width="9.37" height="39.11"/><rect class="cls-7" x="73.52" y="309.39" width="9.37" height="39.11"/><rect class="cls-19" x="74.86" y="284.61" width="6.68" height="24.97"/><polygon class="cls-14" points="81.54 289.24 74.86 291.68 74.86 284.61 81.54 284.61 81.54 289.24"/><path class="cls-19" d="m105.11,354.32c0,2.12,1.72,3.83,3.83,3.83,2.12,0,3.83-1.72,3.83-3.83s-1.72-3.83-3.83-3.83-3.83,1.72-3.83,3.83h0Z"/><path class="cls-19" d="m48.85,354.32c0,2.12-1.72,3.83-3.83,3.83-2.12,0-3.83-1.72-3.83-3.83s1.72-3.83,3.83-3.83,3.83,1.72,3.83,3.83h0Z"/><path class="cls-19" d="m82.03,353.09c0,2.12-1.72,3.83-3.83,3.83s-3.83-1.71-3.83-3.83c0-2.12,1.72-3.83,3.83-3.83s3.83,1.72,3.83,3.83h0Z"/><path class="cls-19" d="m36.67,349.17c.18.89.98,1.53,1.89,1.5l39.95-.55,37.41.85c.91.03,1.71-.61,1.88-1.5.2-1.01-.46-1.98-1.46-2.19l-20.43-3.97c-2.12-.4-4.27-.6-6.43-.6h-21.95c-2.15,0-4.3.2-6.42.6l-22.96,3.68c-1.01.19-1.67,1.16-1.47,2.18Z"/><path class="cls-20" d="m36.06,284.51v.09h1.32c-.45,0-.88-.03-1.32-.09Z"/><path class="cls-20" d="m89.54,208.11c0,.06,0,.13,0,.19v68.4H28.24v-69.11c0-.52.03-1.04.1-1.56l-.1.03.58-9.63c.16-2.72,1.29-5.3,3.18-7.26l6.13-6.42,3.16-16.04c.49-2.49,2.68-4.3,5.22-4.3h14.14c2.27,0,4.3,1.45,5.04,3.6l5.92,17.26,11.29,6.95c2.89,1.78,4.85,4.75,5.34,8.1l1.47,9.82-.17-.03Z"/><path class="cls-5" d="m89.54,208.11c0,.06,0,.13,0,.19v68.4h-53.09v-69.11c0-.52.03-1.04.1-1.56l-.1.03.58-9.63c.16-2.72,1.29-5.3,3.18-7.26l6.13-6.42,3.16-16.04c.49-2.49,2.68-4.3,5.22-4.3h5.92c2.27,0,4.3,1.45,5.04,3.6l5.92,17.26,11.29,6.95c2.89,1.78,4.85,4.75,5.34,8.1l1.47,9.82-.17-.03Z"/><path class="cls-19" d="m94.86,287.92h-32.91s7.41,2.96,12.68,4.28v5.33h7.54v-5.33c5.28-1.31,12.68-4.28,12.68-4.28Z"/><path class="cls-24" d="m63.64,273.5c19.4.78,38.94.01,58.24-2.05,3.97-.43,7.19,2.39,7.19,6.38v.95c0,3.98-3.22,7.62-7.19,8.05-19.3,2.07-38.84,2.84-58.24,2.05,0-6.15,0-9.23,0-15.38Z"/><path class="cls-20" d="m63.64,273.5c19.4.78,38.94.01,58.24-2.05,3.97-.43,7.19,2.39,7.19,6.38v.95c0,3.98-3.22,7.62-7.19,8.05-19.3,2.07-38.84,2.84-58.24,2.05,0-6.15,0-9.23,0-15.38Z"/><path class="cls-20" d="m34.55,286.78c11.12,1.04,22.09,1.78,33.25,2.22,3.78.1,6.85-2.94,6.85-6.72,0-.68,0-1.02,0-1.7,0-3.78-3.07-6.86-6.85-6.96-11.16-.45-22.13-1.18-33.25-2.22-3.77-.41-6.82,2.27-6.82,6.04v1.7c0,3.78,3.05,7.22,6.82,7.63Z"/><polygon class="cls-27" points="128.83 330.93 128.76 347.74 137.15 347.57 138.89 331.71 128.83 330.93"/><path class="cls-24" d="m138.62,347.38c-.08-.02-.14-.08-.15-.16-.01-.08.02-.16.1-.2.13-.07,2.97-1.66,4.33-1.27.25.07.47.23.6.46.18.25.18.58,0,.84-.34.43-1.38.6-2.39.59-.83-.01-1.66-.1-2.48-.26Zm.63-.25c1.51.2,3.56.21,3.94-.31.06-.06.11-.18-.03-.42-.08-.14-.21-.24-.37-.27-.12-.03-.24-.05-.37-.05-1.11.15-2.18.51-3.16,1.06Z"/><path class="cls-24" d="m138.52,347.37c-.06-.04-.09-.11-.08-.17.01-.1.25-2.29,1.3-3.13.3-.25.69-.36,1.07-.32.53.06.69.33.71.55.16.91-1.81,2.65-2.78,3.07-.02.01-.05.01-.08,0-.04.01-.09.01-.13,0Zm2.15-3.25c-.24,0-.48.08-.67.23-.61.69-1,1.56-1.11,2.48,1.01-.58,2.31-1.95,2.26-2.5-.01-.05-.03-.19-.38-.22h-.11Z"/><path class="cls-19" d="m137.81,346.24l-8.86-.1c-.33,0-.63.22-.7.55l-1.68,7.19c-.15.64.24,1.28.87,1.43.08.02.17.03.25.03,3.19-.02,6.04-.16,10.01-.11,4.69.05,3.5.6,9.01.74,3.32.08,3.97-3.69,2.57-3.89-6.44-.88-7.09-2.84-9.55-5.18-.54-.45-1.22-.69-1.92-.67Z"/><polygon class="cls-5" points="129.53 340.69 138.43 340.1 138.97 329.19 128.89 329.01 129.53 340.69"/><path class="cls-16" d="m126.26,267c.03.15.07.3.1.45-.25-2.53-.56-4.63-.95-6.15-2.86-11.13-32.66-12.99-44.85-13.28l-14.65,1.61s-1.37,11.74,2.12,19.16,58.23-1.79,58.23-1.79Z"/><polygon class="cls-27" points="108.92 333.95 109.68 351.01 117.95 350.71 118.92 332.64 108.92 333.95"/><path class="cls-24" d="m119.25,348.4c-.08-.01-.15-.07-.17-.14-.02-.08,0-.16.08-.21.12-.08,2.8-1.93,4.18-1.68.26.04.49.19.64.4.2.23.24.56.09.83-.3.46-1.32.73-2.33.82-.83.07-1.66.06-2.49-.02Zm.6-.31c1.52.06,3.56-.13,3.89-.69.05-.07.09-.19-.07-.42-.09-.14-.24-.22-.4-.24-.12-.02-.25-.03-.37-.02-1.09.26-2.13.72-3.05,1.36Z"/><path class="cls-24" d="m119.15,348.39c-.06-.03-.1-.1-.1-.17,0-.1.03-2.3.99-3.24.27-.28.65-.43,1.04-.42.53,0,.72.26.76.48.25.89-1.54,2.81-2.47,3.33-.02.01-.05.02-.08.01-.04.02-.09.02-.13,0Zm1.83-3.45c-.24.02-.47.12-.64.3-.54.75-.84,1.65-.86,2.57.95-.68,2.11-2.16,2.01-2.7-.02-.05-.05-.18-.4-.18l-.11.02h0Z"/><path class="cls-19" d="m118.33,347.33l-8.83.76c-.33.03-.6.28-.65.61l-.98,7.32c-.09.65.36,1.25,1.01,1.34.08.01.17.01.25,0,3.18-.33,5.99-.74,9.95-1.08,4.68-.4,3.54.26,9.04-.13,3.32-.24,3.6-4.06,2.18-4.12-6.5-.26-7.33-2.14-10.01-4.23-.58-.4-1.28-.57-1.97-.48Z"/><polygon class="cls-5" points="118.35 342.9 118.81 334.29 108.97 334.51 109.37 343.52 118.35 342.9"/><path class="cls-24" d="m89.05,247.06s51.99-3.98,55.6,10.05c3.6,14.03-4.39,80.15-4.39,80.15l-12.85,1.09s-1.69-39.05-1.93-71.29c0,0-54.73,9.22-58.23,1.79-3.49-7.43-2.12-19.16-2.12-19.16l23.92-2.62Z"/><path class="cls-19" d="m89.05,247.06s51.99-3.98,55.6,10.05c3.6,14.03-4.39,80.15-4.39,80.15l-12.85,1.09s-1.69-39.05-1.93-71.29c0,0-54.73,9.22-58.23,1.79-3.49-7.43-2.12-19.16-2.12-19.16l23.92-2.62Z"/><path class="cls-5" d="m89.05,247.06s51.99-3.98,55.6,10.05c3.6,14.03-4.39,80.15-4.39,80.15l-12.85,1.09s-1.69-39.05-1.93-71.29c0,0-54.73,9.22-58.23,1.79-3.49-7.43-2.12-19.16-2.12-19.16l23.92-2.62Z"/><path class="cls-19" d="m75.92,249.09s52.41-2.03,53.13,12.44c.56,11.31-8.99,78.47-8.99,78.47l-11.98.93s-2.2-40.36-.7-67.91c0,0-45.23,5.19-53.19-1.18-7.6-6.07-1.68-22.83-1.68-22.83l23.41.08Z"/><g class="cls-47"><path class="cls-18" d="m124.99,238.36v-.2c.41-2.35,2.26-4.18,4.61-4.56l5.58-.91s9.29,4.59,7.18,5.6h-10.26l-7.09.07Z"/></g><path class="cls-23" d="m132.53,233.12l-7.54,5.24-21.93-14.36-9.6-9.63s-18.18-27.88-9.22-29.52c4.09-.75,18.4,17.66,27.54,32.73l.03-.02c10.89,8.85,20.72,15.56,20.72,15.56Z"/><path class="cls-28" d="m132.53,233.12l-7.54,5.24-21.93-14.36-9.6-9.63s-18.18-27.88-9.22-29.52c4.09-.75,18.4,17.66,27.54,32.73l.03-.02c10.89,8.85,20.72,15.56,20.72,15.56Z"/><path class="cls-23" d="m93.45,248.07h0c-7.63,2.03-15.58,2.83-23.48,2.36l-17.03-1.01c-.41-3.49-3.02-11.17-6.62-30.95-4.48-31.63.82-33.28,3.55-33.75h.09c2.52-.43,5.68-.88,8.79-1.11,5.93-.49,11.88-.67,17.82-.54,1.98.14,3.95.39,5.9.76,2.76.44,5.03,2.25,5.93,4.73,2.8,7.99,3.77,27.06,5.06,59.52Z"/><path class="cls-28" d="m93.45,248.07h0c-7.63,2.03-15.58,2.83-23.48,2.36l-17.03-1.01c-.41-3.49-3.02-11.17-6.62-30.95-4.48-31.63.82-33.28,3.55-33.75h.09c2.52-.43,5.68-.88,8.79-1.11,5.93-.49,11.88-.67,17.82-.54,1.98.14,3.95.39,5.9.76,2.76.44,5.03,2.25,5.93,4.73,2.8,7.99,3.77,27.06,5.06,59.52Z"/><path class="cls-27" d="m70.35,188.06c-8.81.75-12.19-4.45-12.19-4.45,3.76-3.99,1.95-14.4.46-20.1l4.88,3.81,6.66,5.19c-.16.88-.27,1.76-.33,2.65-.05.65-.04,1.29.02,1.91v.02s0,.11,0,.11c.3,2.66,1.77,4.88,5.95,5.73,0,0,2.05,4.45-5.46,5.13Z"/><path class="cls-14" d="m70.16,172.51c-.16.88-.27,1.76-.33,2.65-.05.65-.04,1.29.02,1.91v.02s0,.11,0,.11c-2.43-.44-5.71-2.89-6.14-5.36-.15-.81-.2-1.63-.17-2.46l6.62,3.13Z"/><path class="cls-29" d="m56.34,183.01l2.69-1.09c3.05,2.86,6.73,4.96,10.73,6.15-1.67,1.2-2.95,2.87-3.67,4.8-9.5-2.91-9.75-9.87-9.75-9.87Z"/><path class="cls-29" d="m75.77,182.44l-2.56-.46s-.86,5.31-3.45,6.13c4.61,1.63,5.43,3.85,5.43,3.85,6.49-2.32.58-9.53.58-9.53Z"/><path class="cls-19" d="m74.13,146.65c1.33,1.56,1.72,5.35,3.05,6.91.42-.73,1.62-4.02,1.75-4.85.13-.83-.09-1.78-.76-2.29-.93-.71-2.94-.18-4.05.23Z"/><path class="cls-27" d="m57.37,152.2c1.33-5.51,6.88-8.91,12.39-7.58,8.1,1.74,11.53,12.85,11.31,19.97-.02,2.06-.67,4.06-1.86,5.74-3.24,4.57-9.56,5.66-14.14,2.42-4.7-3.23-5.52-7.73-7.58-15.26-.51-1.72-.55-3.55-.13-5.3Z"/><path class="cls-19" d="m77.27,165.17s-2.1-.39-7.92,0c.75,1.9,2.08,3.38,5.06,3.17,1.5.06,2.78-1.24,2.86-2.9,0-.09,0-.18,0-.27Z"/><path class="cls-33" d="m72.98,166.89c1.14-.15,2.29.11,3.29.73-.54.44-1.18.68-1.85.7-1.14.15-2.29-.11-3.28-.73.53-.44,1.18-.69,1.84-.7Z"/><path class="cls-29" d="m77,165.14c-.1.49-.44.89-.88,1.02-1.73.11-3.46.06-5.18-.15-.55-.02-1.06-.35-1.34-.87,2.47-.21,4.94-.21,7.4,0Z"/><path class="cls-14" d="m75.64,162.94c1.05.08,2.09-.31,2.83-1.06-1.57-1.4-2.95-3.01-4.09-4.78l1.26,5.84Z"/><path class="cls-19" d="m72.69,147.76c-.38-.55-.61-1.21-1.05-1.71-.74-.83-2.03-1.06-3.09-.72-1.07.34-1.94,1.16-2.54,2.09-.61.94-1.76,3.43-1.63,3.46.14,1.03-.26,2.12-1.01,2.83-.01,0-.01.02-.03.02-.75.7-1.85.93-2.85.75-.38,1.14,2.08,4.46,2.55,4.88.44.41.97.74,1.55.9-.56.27-1.1.35-1.68.31-.17-.01-.35-.04-.54-.06-2.05-.34-9.72-5.17-5.36-13.18,1.15-2.11,3.14-3.74,5.21-4.67,3.33-1.52,7.49-1.4,10.57.6,5.29,3.42.29,5.07-.1,4.51Z"/><path class="cls-19" d="m60.41,161.91c.02,2.36.27,7.55-.16,10.63-2.71-2.17-5.3-7.04-6.54-10.27-1.39-3.64-1.41-7.88.38-11.35.71-1.38,1.72-2.61,2.93-3.59,1.83-1.48,4.11-2.4,6.45-2.39.03,2.97,0,5.89-.12,8.79-.75.7-1.85.93-2.85.75-.38,1.14.66,3.37,1.23,4.44.28.54.66,1.06,1.14,1.49-.04.4-.09.81-.14,1.21-.11.92-.24,1.85-.39,2.77l-1.93-2.47Z"/><path class="cls-27" d="m57.58,159.33c1.93-.32,4.02,2.06,4.86,3.81.94,1.96.31,3.81-1.74,3.36-1.63-.44-3.06-1.43-4.05-2.81-1.25-1.73-1-4.05.92-4.37Z"/><path class="cls-19" d="m69.91,157.03c.41-.07.86.44.97,1,.11.56-.11,1.12-.52,1.2-.41.08-.79-.39-.97-.99-.13-.62.11-1.14.52-1.21Z"/><path class="cls-19" d="m76.85,155.45c.41-.07.84.37.97.99.13.62-.09,1.19-.5,1.25-.41.07-.84-.38-.97-1-.13-.61.1-1.18.51-1.25Z"/><path class="cls-19" d="m75.3,153.05c.09.08.22.11.34.08.91-.31,1.92-.18,2.73.34.15.13.38.11.51-.05,0,0,0,0,.01-.01.12-.16.09-.39-.06-.52h0c-1-.68-2.25-.85-3.4-.47-.19.06-.3.27-.25.47.03.06.07.12.12.16Z"/><path class="cls-19" d="m67.75,156.12c.12,0,.24-.05.32-.15.53-.81,1.4-1.32,2.36-1.41.2,0,.37-.15.37-.35,0,0,0-.01,0-.02,0-.2-.17-.37-.37-.37h0c-1.2.08-2.3.71-2.97,1.72-.11.17-.07.4.09.52.06.03.12.05.19.06Z"/><path class="cls-24" d="m54.31,204.84l.98-2.07c1.29-2.73,6.71-13.61,9.35-14.76l.97-.61,3.68,5.6c-.63.54-7.56,18.44-9.22,22.19-.25.57-.48,1.15-.65,1.76-1.14,4.11-8.12,10.4-12.78-1.41-1.17-2.49-2.23-4.94-3.19-7.41-.49-1.29-.94-2.49-1.38-3.77-.08-.23-.24-.69-.45-1.3-2.16-6.17-2.52-13.24,3.37-16.88l3.96-1.34,5.37,20Z"/><path class="cls-49" d="m54.31,204.84l.98-2.07c1.29-2.73,6.71-13.61,9.35-14.76l.97-.61,3.68,5.6c-.63.54-7.56,18.44-9.22,22.19-.25.57-.48,1.15-.65,1.76-1.14,4.11-8.12,10.4-12.78-1.41-1.17-2.49-2.23-4.94-3.19-7.41-.49-1.29-.94-2.49-1.38-3.77-.08-.23-.24-.69-.45-1.3-2.16-6.17-2.52-13.24,3.37-16.88l3.96-1.34,5.37,20Z"/><path class="cls-24" d="m75.23,183.37c.03.27.1.53.18.78.12.37.26.74.46,1.08.26.45.59.85.97,1.21.01.01.24.21.26.22.23.22.48.4.74.57.5.35,1.04.62,1.64.75.12.03.2.1.26.21.07.15.16.28.24.42.07.12.13.24.19.36.08.18.19.32.36.43.32.2.67.3,1.02.37.94.2,1.88.26,2.83.21.49-.02.98-.05,1.47-.13.53-.08,1.04-.18,1.55-.34.4-.12.8-.26,1.16-.5.15-.1.28-.21.35-.38.04-.09.05-.18.09-.26.1-.25.21-.5.31-.75.16-.38.28-.78.4-1.17.12-.38.25-.77.33-1.16.08-.4.17-.8.23-1.21.1-.69.18-1.38.26-2.07.03-.32.03-.7.04-1.03,0-.26,0-.53-.09-.79-.05-.18-.14-.34-.28-.48-.37-.38-.81-.64-1.29-.84-.45-.19-.93-.3-1.41-.37-.2-.03-.4-.08-.6-.11-3.48-.45-5.96.36-6.35.48-.41.12-.81.26-1.21.44-.35.17-.66.38-.95.62-.22.19-.41.39-.54.65-.05.1-.08.2-.1.31-.03.13-.03.13-.15.11-.7-.12-1.33.03-1.83.58-.18.21-.3.46-.39.73-.11.35-.18.69-.14,1.06Zm5.23-1.62c-.43-.08-.85-.18-1.24-.35-.1-.04-.2-.07-.28-.15,0,0,.16-.37.53-.63.15-.1.3-.2.47-.28.28-.15.58-.27.89-.36.46-.15.96-.26,1.44-.34.47-.09.92-.14,1.4-.18.44-.04.79-.04,1.23-.04.53,0,1.14.04,1.65.11.56.08,1.11.18,1.64.38.43.17.89.38,1.19.74-.01.01-.02.02-.03.03-.04.03-.08.06-.12.09-.11.08-.22.14-.34.2-.45.23-.93.4-1.41.52-.11.03-.22.06-.34.08-.06.02-.12.03-.19.04-.36.09-.73.14-1.1.19-.36.05-.72.09-1.08.11-.28.02-.56.04-.84.06-.02,0-.04,0-.06,0,0,0-.02,0-.03,0h-.15c-.37.01-.74,0-1.11,0-.33,0-.66-.01-.99-.04-.38-.03-.75-.11-1.13-.18Zm-3.53,1.28c.09-.34.29-.55.64-.63.03,0,.12-.02.24-.03.1.54.23,1.05.35,1.56.15.68.36,1.33.57,1.99.06.19.24.71.42.92-.06-.04-.31-.24-.39-.29-.38-.31-.7-.68-.98-1.08-.29-.4-.57-.82-.74-1.29-.13-.37-.2-.75-.1-1.15Z"/><path class="cls-4" d="m75.23,183.37c.03.27.1.53.18.78.12.37.26.74.46,1.08.26.45.59.85.97,1.21.01.01.24.21.26.22.23.22.48.4.74.57.5.35,1.04.62,1.64.75.12.03.2.1.26.21.07.15.16.28.24.42.07.12.13.24.19.36.08.18.19.32.36.43.32.2.67.3,1.02.37.94.2,1.88.26,2.83.21.49-.02.98-.05,1.47-.13.53-.08,1.04-.18,1.55-.34.4-.12.8-.26,1.16-.5.15-.1.28-.21.35-.38.04-.09.05-.18.09-.26.1-.25.21-.5.31-.75.16-.38.28-.78.4-1.17.12-.38.25-.77.33-1.16.08-.4.17-.8.23-1.21.1-.69.18-1.38.26-2.07.03-.32.03-.7.04-1.03,0-.26,0-.53-.09-.79-.05-.18-.14-.34-.28-.48-.37-.38-.81-.64-1.29-.84-.45-.19-.93-.3-1.41-.37-.2-.03-.4-.08-.6-.11-3.48-.45-5.96.36-6.35.48-.41.12-.81.26-1.21.44-.35.17-.66.38-.95.62-.22.19-.41.39-.54.65-.05.1-.08.2-.1.31-.03.13-.03.13-.15.11-.7-.12-1.33.03-1.83.58-.18.21-.3.46-.39.73-.11.35-.18.69-.14,1.06Zm5.23-1.62c-.43-.08-.85-.18-1.24-.35-.1-.04-.2-.07-.28-.15,0,0,.16-.37.53-.63.15-.1.3-.2.47-.28.28-.15.58-.27.89-.36.46-.15.96-.26,1.44-.34.47-.09.92-.14,1.4-.18.44-.04.79-.04,1.23-.04.53,0,1.14.04,1.65.11.56.08,1.11.18,1.64.38.43.17.89.38,1.19.74-.01.01-.02.02-.03.03-.04.03-.08.06-.12.09-.11.08-.22.14-.34.2-.45.23-.93.4-1.41.52-.11.03-.22.06-.34.08-.06.02-.12.03-.19.04-.36.09-.73.14-1.1.19-.36.05-.72.09-1.08.11-.28.02-.56.04-.84.06-.02,0-.04,0-.06,0,0,0-.02,0-.03,0h-.15c-.37.01-.74,0-1.11,0-.33,0-.66-.01-.99-.04-.38-.03-.75-.11-1.13-.18Zm-3.53,1.28c.09-.34.29-.55.64-.63.03,0,.12-.02.24-.03.1.54.23,1.05.35,1.56.15.68.36,1.33.57,1.99.06.19.24.71.42.92-.06-.04-.31-.24-.39-.29-.38-.31-.7-.68-.98-1.08-.29-.4-.57-.82-.74-1.29-.13-.37-.2-.75-.1-1.15Z"/><path class="cls-13" d="m78.93,181.24s.16-.37.53-.63c.15-.11.3-.2.47-.29.29-.15.58-.27.89-.36.46-.14.96-.26,1.43-.34.47-.08.92-.14,1.4-.17.44-.04.79-.04,1.23-.04.52,0,1.14.04,1.65.11.55.08,1.11.18,1.63.38.43.16.89.38,1.19.74-.01,0-.02.02-.03.03-.04.04-.08.07-.12.1-.11.08-.22.14-.34.2-.45.23-.93.39-1.41.52-.11.03-.23.06-.34.08-.06.01-.12.03-.19.04-.36.08-.73.14-1.1.19-.36.05-.72.09-1.08.11-.28.01-.56.05-.84.06-.02,0-.04,0-.06,0,0,0-.02,0-.03,0-.04,0-.09,0-.13,0,0,0-.02,0-.03,0-.37,0-.74,0-1.11,0-.33,0-.66-.01-.98-.04-.38-.03-.76-.11-1.13-.18-.43-.08-.84-.18-1.24-.35-.1-.04-.2-.07-.27-.15Z"/><path class="cls-3" d="m78.95,181.24s.16-.37.53-.63c.15-.11.3-.2.47-.29.29-.15.58-.27.89-.36.46-.14.96-.26,1.43-.34.48-.08.92-.14,1.4-.17.44-.04.79-.04,1.23-.04.52,0,1.14.04,1.65.11.55.08,1.1.18,1.63.38.43.16.89.38,1.19.74-.01,0-.02.02-.03.03-.04.04-.08.07-.12.1-.11.08-.22.14-.34.2-.45.23-.93.39-1.41.52-.11.03-.23.06-.34.08-.06.01-.12.03-.19.04-.36.08-.73.14-1.1.19-.36.05-.72.09-1.08.11-.28.01-.56.05-.84.06-.02,0-.04,0-.06,0,0,0-.02,0-.03,0-.04,0-.09,0-.13,0,0,0-.02,0-.03,0-.37,0-.74,0-1.11,0-.33,0-.66-.01-.98-.04-.38-.03-.76-.11-1.13-.18-.43-.08-.84-.18-1.24-.35-.1-.04-.2-.07-.27-.15Z"/><path class="cls-3" d="m78.95,181.24s.16-.37.53-.63c.15-.11.3-.2.47-.29.29-.15.58-.27.89-.36.46-.14.96-.26,1.43-.34.48-.08.92-.14,1.4-.17.44-.04.79-.04,1.23-.04.52,0,1.14.04,1.65.11.55.08,1.1.18,1.63.38.43.16.89.38,1.19.74-.01,0-.02.02-.03.03-.04.04-.08.07-.12.1-.11.08-.22.14-.34.2-.45.23-.93.39-1.41.52-.11.03-.23.06-.34.08-.06.01-.12.03-.19.04-.36.08-.73.14-1.1.19-.36.05-.72.09-1.08.11-.28.01-.56.05-.84.06-.02,0-.04,0-.06,0,0,0-.02,0-.03,0-.04,0-.09,0-.13,0,0,0-.02,0-.03,0-.37,0-.74,0-1.11,0-.33,0-.66-.01-.98-.04-.38-.03-.76-.11-1.13-.18-.43-.08-.84-.18-1.24-.35-.1-.04-.2-.07-.27-.15Z"/><path class="cls-19" d="m78.94,181.24c.08.08.18.11.28.15.4.17.81.28,1.24.35.37.07.75.15,1.13.18.33.03.66.03.99.04.37.01.74.02,1.11.01h.15s.02,0,.03-.01c.02,0,.04,0,.06,0,.28-.02.56-.04.84-.06.36-.01.72-.06,1.08-.11.37-.05.73-.11,1.1-.19.07,0,.12-.03.19-.04.11-.02.22-.05.34-.08.49-.12.97-.29,1.41-.52.12-.06.23-.13.34-.2.04-.03.08-.06.12-.09.01-.01.02-.02.03-.03-.3-.36-.75-.58-1.19-.74-.53-.2-1.08-.3-1.64-.38-.52-.07-1.13-.1-1.65-.11-.44,0-.79,0-1.23.04-.48.04-.93.09-1.4.18-.48.09-.97.2-1.44.34-.3.09-.6.21-.89.36-.16.08-.32.18-.47.28-.37.27-.53.63-.53.63Z"/><path class="cls-2" d="m78.9,180.31c.11-.13.24-.25.32-.32.48-.39,1.56-.97,3.74-1.31.75-.12,1.5-.16,2.26-.12,1.95.1,3.25.55,3.75.87.1.06.23.16.36.28.25.24.28.63.06.9-.04.04-.09.08-.13.11,0,0,0,0,0,0-1.16-1.13-4.18-1.17-5.17-1.15-.99.1-3.99.48-5.01,1.73,0,0,0,0,0,0-.05-.03-.1-.06-.15-.1-.24-.24-.26-.63-.04-.9Z"/><path class="cls-27" d="m77.39,184.28l.66,3.2-1.98,2.43s-2.87,2.57-6.77,3.09c-1.36.18-2.69-.56-3.33-1.79l-.32-.62c-.14-.28-.24-.57-.31-.87-.39-1.66.17-2.59,1.56-3.56l4.83-4.24c.36-.25,5.87-.76,5.87-.76.6,0-.09,2.52-.21,3.12Z"/><g id="freepik--speech-bubbles--inject-120"><path class="cls-23" d="m320.36,137.35l3.52,33.05c.03.21.03.41.03.62-.08,2.09-1.84,3.72-3.93,3.63l-7.53-.04c1.62,4.69,8.51,11,8.51,11,0,0-11.23-1.55-18.95-11.07l-53.91-.32c-2.45-.06-4.49-1.88-4.82-4.31l-3.52-33.06c-.03-.21-.03-.41-.03-.62.08-2.09,1.84-3.72,3.93-3.64l71.89.43c2.45.06,4.48,1.89,4.81,4.32Z"/><path class="cls-23" d="m322.47,186.34l-1.59-.22c-.11-.02-11.37-1.66-19.12-11.06l-53.68-.32c-2.72-.06-4.95-2.06-5.31-4.74l-3.52-33.07c-.03-.22-.04-.46-.03-.69.04-1.14.53-2.2,1.37-2.98.84-.78,1.94-1.18,3.08-1.14l71.88.43c2.72.07,4.94,2.07,5.3,4.75h0s3.52,33.07,3.52,33.07c.03.22.04.46.03.69-.09,2.36-2.08,4.22-4.45,4.11l-6.77-.04c1.94,4.44,8.05,10.07,8.11,10.13l1.18,1.08Zm-78.96-53.23c-.84,0-1.63.31-2.24.87-.64.6-1.02,1.41-1.05,2.28,0,.18,0,.36.02.54l3.52,33.07c.3,2.18,2.12,3.81,4.33,3.86l54.14.33.15.18c5.76,7.1,13.59,9.71,16.97,10.54-2.09-2.08-6.15-6.44-7.39-10l-.23-.67,8.23.05c1.81.06,3.36-1.34,3.43-3.15,0-.18,0-.36-.02-.54l-3.52-33.06c-.3-2.19-2.12-3.82-4.33-3.88l-71.88-.43s-.09,0-.14,0Z"/></g><rect class="cls-29" x="273.66" y="141.43" width="40.04" height="1"/><rect class="cls-29" x="253.28" y="141.43" width="14.47" height="1"/><rect class="cls-29" x="297.83" y="150.08" width="17.76" height="1"/><rect class="cls-29" x="268.25" y="150.08" width="23.25" height="1"/><rect class="cls-29" x="248.66" y="150.08" width="14.15" height="1"/><rect class="cls-29" x="289.19" y="158.73" width="27.4" height="1"/><rect class="cls-29" x="271.46" y="158.73" width="12.48" height="1"/><rect class="cls-29" x="260.51" y="158.73" width="10.95" height="1"/><rect class="cls-29" x="249.66" y="158.73" width="7.89" height="1"/><rect class="cls-29" x="250.47" y="167.38" width="11.72" height="1"/><g id="freepik--speech-bubbles--inject-120-2"><path class="cls-23" d="m222.59,95.5l71.89-.43c2.09-.08,3.85,1.55,3.93,3.63,0,.21,0,.42-.03.62l-3.52,33.06c-.33,2.43-2.37,4.25-4.82,4.31l-53.91.32c-7.72,9.52-18.95,11.07-18.95,11.07,0,0,6.88-6.31,8.51-11l-7.53.04c-2.09.08-3.85-1.55-3.93-3.64,0-.21,0-.42.03-.62l3.52-33.05c.33-2.43,2.37-4.25,4.81-4.32Z"/><path class="cls-23" d="m215.67,148.8l1.18-1.08c.06-.06,6.17-5.69,8.11-10.13l-6.79.04c-2.38.07-4.34-1.75-4.43-4.12,0-.23,0-.47.03-.7l3.51-33.04c.36-2.7,2.59-4.69,5.3-4.76h0l71.89-.43c2.31-.08,4.34,1.75,4.43,4.12,0,.24,0,.47-.03.7l-3.52,33.05c-.36,2.7-2.59,4.69-5.3,4.76l-53.69.32c-7.75,9.4-19.01,11.05-19.12,11.06l-1.59.22Zm10.73-12.22l-.23.67c-1.23,3.56-5.29,7.91-7.38,10,3.38-.83,11.21-3.44,16.97-10.54l.15-.18,54.15-.33c2.2-.05,4.03-1.68,4.32-3.88l3.52-33.04c.02-.19.03-.37.02-.55-.07-1.81-1.62-3.2-3.41-3.15l-71.91.43c-2.21.06-4.03,1.69-4.32,3.88l-3.51,33.04c-.02.19-.03.37-.02.55.07,1.81,1.61,3.21,3.41,3.16l8.25-.05Z"/></g><rect class="cls-29" x="232.77" y="102.23" width="32.42" height="1"/><rect class="cls-29" x="272.76" y="102.23" width="19.57" height="1"/><rect class="cls-29" x="223.26" y="110.88" width="17.76" height="1"/><rect class="cls-29" x="247.35" y="110.88" width="42.84" height="1"/><rect class="cls-29" x="222.26" y="119.52" width="45.13" height="1"/><rect class="cls-29" x="274.44" y="119.52" width="14.75" height="1"/><rect class="cls-29" x="221.54" y="128.17" width="11.72" height="1"/><g id="freepik--speech-bubbles--inject-120-3"><path class="cls-23" d="m95.58,106.53l71.89-.43c2.09-.08,3.85,1.55,3.93,3.64,0,.21,0,.42-.03.62l-3.52,33.06c-.33,2.43-2.37,4.25-4.82,4.31l-53.91.32c-7.72,9.52-18.95,11.07-18.95,11.07,0,0,6.88-6.31,8.51-11l-7.53.04c-2.09.08-3.85-1.55-3.93-3.64,0-.21,0-.42.03-.62l3.52-33.05c.33-2.42,2.37-4.25,4.81-4.32Z"/></g><rect class="cls-29" x="130.13" y="113.6" width="32.42" height="1"/><rect class="cls-29" x="103" y="113.6" width="19.57" height="1"/><rect class="cls-29" x="144.79" y="122.25" width="17.76" height="1"/><rect class="cls-29" x="95.62" y="122.25" width="42.84" height="1"/><rect class="cls-29" x="117.42" y="130.9" width="45.13" height="1"/><rect class="cls-29" x="95.62" y="130.9" width="14.75" height="1"/><rect class="cls-29" x="95.62" y="139.55" width="10.92" height="1"/><rect class="cls-24" x="228.82" y="223.39" width="11.2" height="14.98" rx="2.11" ry="2.11" transform="translate(470.85 459.71) rotate(179.5)"/><path class="cls-24" d="m225.5,232.81l-.02-2.82c-.02-2.31,1.84-4.2,4.15-4.22h.94s.1,11.18.1,11.18h-.94c-2.31.03-4.2-1.83-4.22-4.14Zm1.86-2.83l.02,2.82c0,.93.57,1.73,1.38,2.09l-.06-7.02c-.8.37-1.35,1.18-1.34,2.11Z"/><g class="cls-44"><rect class="cls-29" x="228.82" y="223.39" width="11.2" height="14.98" rx="2.11" ry="2.11" transform="translate(470.85 459.71) rotate(179.5)"/><path class="cls-29" d="m225.5,232.81l-.02-2.82c-.02-2.31,1.84-4.2,4.15-4.22h.94s.1,11.18.1,11.18h-.94c-2.31.03-4.2-1.83-4.22-4.14Zm1.86-2.83l.02,2.82c0,.93.57,1.73,1.38,2.09l-.06-7.02c-.8.37-1.35,1.18-1.34,2.11Z"/></g><path class="cls-23" d="m315.39,238.15l-21.02-.02c-.45,0-.82-.37-.82-.82h0c0-.45.37-.82.82-.82l21.02.02c.45,0,.82.37.82.82h0c0,.45-.37.82-.82.82Z"/><path class="cls-10" d="m315.39,238.15l-21.02-.02c-.45,0-.82-.37-.82-.82h0c0-.45.37-.82.82-.82l21.02.02c.45,0,.82.37.82.82h0c0,.45-.37.82-.82.82Z"/><path class="cls-23" d="m294.25,238.15l-43.69.07c-.45,0-.82-.38-.81-.83h0c0-.45.38-.82.83-.81l43.69-.07c.45,0,.82.38.81.83h0c0,.45-.38.82-.83.81Z"/><path class="cls-23" d="m293.07,236.5l-40.25.18c-1.44-.01-2.71-1.2-2.82-2.63l-1.65-20.64c-.12-1.44.97-2.61,2.4-2.6l40.25-.18c1.44.01,2.71,1.2,2.82,2.63l1.65,20.64c.12,1.44-.97,2.61-2.4,2.6Z"/><path class="cls-10" d="m293.07,236.5l-40.25.18c-1.44-.01-2.71-1.2-2.82-2.63l-1.65-20.64c-.12-1.44.97-2.61,2.4-2.6l40.25-.18c1.44.01,2.71,1.2,2.82,2.63l1.65,20.64c.12,1.44-.97,2.61-2.4,2.6Z"/><path class="cls-23" d="m291.87,236.4l-40.25.18c-1.44-.01-2.71-1.2-2.82-2.64l-1.65-20.64c-.12-1.44.97-2.61,2.4-2.6l40.25-.18c1.44.01,2.71,1.2,2.82,2.63l1.65,20.64c.12,1.44-.97,2.61-2.4,2.6Z"/><path class="cls-15" d="m291.87,236.4l-40.25.18c-1.44-.01-2.71-1.2-2.82-2.64l-1.65-20.64c-.12-1.44.97-2.61,2.4-2.6l40.25-.18c1.44.01,2.71,1.2,2.82,2.63l1.65,20.64c.12,1.44-.97,2.61-2.4,2.6Z"/><path class="cls-29" d="m264.94,224.24c.15,2.28,2.12,4.16,4.39,4.21,2.27.05,3.99-1.76,3.84-4.04-.15-2.28-2.12-4.16-4.39-4.21-2.27-.05-3.99,1.76-3.84,4.04Z"/><path class="cls-24" d="m329.32,227.4l.41.74c.23.41.35.87.35,1.33v4.2c0,2.56,2.8,4.66,6.25,4.66h.91c2.51,0,4.67-1.11,5.66-2.7.3-.07.57-.18.79-.35l2.43-1.81c.36-.27.56-.63.56-1.01v-2.26c0-.78-.86-1.42-1.91-1.42h-1.28c-.07-.15.07-.39.26-.63l.05-.05c.24-.28.54-.54.66-.64l.05-.04s-.11-.53-1.39-.26c-.37.08-.72.17-1.04.26-.05.01-.09.03-.14.04h0s-.07-.03-.1-.04c-1.07-.38-2.23-.39-3.33-.05-1-.32-2.06-.32-3.07-.03.08.02-.07.02,0,0-1.06-.31-2.18-.28-3.23.08h-.44c-.32-.09-.68-.18-1.05-.26-1.28-.27-1.39.26-1.39.26Zm14.1,7.22c.01-.05.05-3.37.06-4.78.01-.34.38-.62.85-.62h.53c.66,0,1.2.41,1.2.9v2.06c0,.68-.03.65-.68,1.14l-1.96,1.29Z"/><path class="cls-4" d="m344.78,228.76h-1.28c-.08-.15.07-.39.26-.63l.05-.05c.24-.28.54-.54.66-.64l.05-.04s-.11-.54-1.39-.26c-.38.08-.72.17-1.05.26-.05,0-.09.03-.14.04h0s-.08-.03-.11-.04c-1.07-.38-2.23-.39-3.32-.05-1-.32-2.06-.32-3.07-.03-1.06-.31-2.19-.28-3.23.08h-.44c-.32-.09-.68-.18-1.05-.26-1.28-.27-1.39.26-1.39.26l.41.74c.23.41.35.87.35,1.33v4.2c0,2.56,2.8,4.66,6.25,4.66h.91c2.52,0,4.67-1.12,5.66-2.71.3-.07.57-.18.79-.35l2.43-1.82c.36-.27.57-.63.57-1.01v-2.27c0-.78-.87-1.42-1.91-1.42Zm1.29,3.42c0,.69-.03.66-.68,1.15l-1.97,1.29c.02-.05.05-3.36.06-4.78.02-.34.38-.62.85-.62h.54c.66,0,1.2.41,1.2.9v2.06Z"/><polygon class="cls-23" points="52.63 244.73 40.49 363.95 44.37 363.95 64.7 244.73 52.63 244.73"/><polygon class="cls-23" points="331.84 244.73 353.46 363.95 357.34 363.95 343.91 244.73 331.84 244.73"/><polygon class="cls-23" points="65.1 364.06 68.98 364.06 91.01 244.73 78.94 244.73 65.1 364.06"/><polygon class="cls-23" points="368.67 244.73 356.6 244.73 380.39 364.06 384.27 364.06 368.67 244.73"/><path class="cls-23" d="m393.23,242.14c0-2.04-1.75-3.69-3.91-3.69H31.97c-2.16,0-3.91,1.65-3.91,3.69s1.75,3.69,3.91,3.69h357.35c2.16,0,3.91-1.65,3.91-3.69Z"/><g class="cls-42"><polygon class="cls-23" points="52.63 244.73 40.49 363.95 44.37 363.95 64.7 244.73 52.63 244.73"/><polygon class="cls-23" points="331.84 244.73 353.46 363.95 357.34 363.95 343.91 244.73 331.84 244.73"/><polygon class="cls-23" points="65.1 364.06 68.98 364.06 91.01 244.73 78.94 244.73 65.1 364.06"/><polygon class="cls-23" points="368.67 244.73 356.6 244.73 380.39 364.06 384.27 364.06 368.67 244.73"/><path class="cls-23" d="m393.23,242.14c0-2.04-1.75-3.69-3.91-3.69H31.97c-2.16,0-3.91,1.65-3.91,3.69s1.75,3.69,3.91,3.69h357.35c2.16,0,3.91-1.65,3.91-3.69Z"/></g></svg>