<?xml version="1.0" encoding="UTF-8"?><svg id="OBJECTS" xmlns="http://www.w3.org/2000/svg" viewBox="0 0 625.61 437.93"><defs><style>.cls-1{fill:#faa701;}.cls-1,.cls-2,.cls-3,.cls-4,.cls-5,.cls-6,.cls-7,.cls-8,.cls-9,.cls-10,.cls-11,.cls-12,.cls-13,.cls-14,.cls-15,.cls-16,.cls-17,.cls-18,.cls-19,.cls-20{stroke-width:0px;}.cls-2{fill:#292666;}.cls-3{fill:#708491;}.cls-4{fill:#352f6c;}.cls-5{fill:#191919;}.cls-6{fill:#43688c;}.cls-7{fill:#22619c;}.cls-8{fill:#2070b4;}.cls-9{fill:#c7d3dd;}.cls-10{fill:#a4b0bc;}.cls-11{fill:#d88568;}.cls-12{fill:#98a9d8;}.cls-13{fill:#92a1ad;}.cls-14{fill:#7d95c9;}.cls-15{fill:#64a2d0;}.cls-16{fill:#fff;}.cls-17{fill:#e8e9eb;}.cls-18{fill:#e4f0f9;}.cls-19{fill:#e7a988;}.cls-20{fill:#022a44;}</style></defs><path class="cls-10" d="m529.8,378.67H127.42c-50.09,5.73-81.01,13.59-81.01,22.26,0,17.53,126.35,31.74,282.2,31.74s282.2-14.21,282.2-31.74c0-8.67-30.92-16.53-81.01-22.26Z"/><path class="cls-18" d="m618.33,379.33c2.4-7.64-.03-17.13-4-24.56-5.25-9.81-12.81-18.9-14.06-29.98-2.38-21.04,18.74-38.84,17.87-60-1.04-25.23-32.32-41.46-32.43-66.71-.11-23.65,27.69-41.89,23.81-65.21-3.47-20.89-28.71-28.49-44.01-42.96-15.03-14.22-17.75-38.78-33.62-52.1-12.56-10.55-26.51-18.21-43.29-18.64-11.03-.28-20.24,3.1-30.68,5.76-26.89,6.83-54.39-11.89-80.05-17.22-19.96-4.15-41.44-3.84-61.31.77-14.36,3.33-28.22,8.45-42.47,12.21-14.48,3.82-26.19,3.85-40.78.66-34.1-7.44-86.5,14-110.5,34.5-26.61,22.73-27.8,52.06-40.36,84.96-12.16,31.84-15.27,66.83-29.23,97.92-7.69,17.14-18.54,32.74-25.51,50.19-11.43,28.64-11.56,61.69-.42,90.44h591.04Z"/><path class="cls-20" d="m461.58,409.84c3.1,0,5.31-3.13,4.15-6-3.37-8.29-12.89-13.98-21.95-16.7-15.94-4.78-32.86-4.7-49.49-5.45-16.63-.75-33.75-2.52-48.35-10.5-4.75-2.6-9.17-6-12.94-9.98v-100.05h-24.24v100.05c-3.76,3.98-8.19,7.39-12.94,9.98-14.6,7.98-31.73,9.75-48.35,10.5-16.63.75-33.54.66-49.49,5.45-9.05,2.72-18.58,8.41-21.95,16.7-1.17,2.87,1.04,6.01,4.15,6,2.19,0,4.39,0,6.58,0l-.35-.06c.27-2.69,2.41-4.91,4.86-6.04,2.46-1.14,5.21-2.99,7.91-3.23,13.26-1.17,230.15-1.17,243.41,0,2.7.24,5.45,2.09,7.91,3.23,2.46,1.14,4.59,3.35,4.86,6.04l-.35.06h6.58Z"/><rect class="cls-8" x="314.74" y="327.68" width="14" height="43" rx="6.93" ry="6.93"/><path class="cls-6" d="m573.29,358.61c-170.15-25.4-341.9-25.39-512.05,0-4.53.68-8.6-2.81-8.6-7.39V41.47c0-4.58,4.07-8.07,8.6-7.39,170.15,25.4,341.9,25.4,512.05,0,4.53-.68,8.6,2.81,8.6,7.39v309.74c0,4.58-4.07,8.07-8.6,7.39Z"/><path class="cls-10" d="m567.74,356.68c-169.37-26.14-340.45-26.14-509.82,0V41.56c169.37,26.14,340.45,26.14,509.82,0v315.13Z"/><rect class="cls-13" x="428.07" y="55.35" width="120.5" height="71"/><path class="cls-9" d="m62.36,38.78v315.13c13.51-2.08,27.03-3.98,40.56-5.74L181.93,52.85c-39.92-3.26-79.8-7.93-119.57-14.07Z"/><path class="cls-13" d="m148.12,265.81c-13.96,1.07-29-1.07-41.88-6.44-19.48-8.47-30.95-25.63-43.89-40.93v135.47c169.37-26.14,340.45-26.14,509.82,0V102.78c-122.54,52.32-244.54,99.82-369.28,148-18.26,7.52-35.44,13.96-54.77,15.03Z"/><rect class="cls-3" x="209.01" y="56.85" width="214.02" height="213.24"/><rect class="cls-13" x="61.79" y="101.27" width="142.95" height="117.25"/><rect class="cls-3" x="428.57" y="144.35" width="143.5" height="122.5"/><rect class="cls-16" x="435.88" y="134.14" width="189.72" height="125.29"/><path class="cls-6" d="m475.25,148.92c-11.99,0-21.72,9.72-21.72,21.72s9.72,21.72,21.72,21.72,21.72-9.72,21.72-21.72-9.72-21.72-21.72-21.72Zm0,34.87c-7.26,0-13.15-5.89-13.15-13.15s5.89-13.15,13.15-13.15,13.15,5.89,13.15,13.15-5.89,13.15-13.15,13.15Z"/><path class="cls-3" d="m475.25,183.79c-7.13,0-12.93-5.67-13.14-12.75h-8.57c.21,11.81,9.85,21.32,21.71,21.32s21.49-9.51,21.71-21.32h-8.57c-.21,7.08-6.01,12.75-13.14,12.75Z"/><path class="cls-8" d="m485.83,151.68l-3.75,7.73c3.78,2.31,6.31,6.48,6.31,11.23,0,.13,0,.27-.01.4h8.57c0-.13.01-.26.01-.4,0-8.15-4.49-15.24-11.13-18.96Z"/><path class="cls-6" d="m526.65,148.92c-11.99,0-21.72,9.72-21.72,21.72s9.72,21.72,21.72,21.72,21.72-9.72,21.72-21.72-9.72-21.72-21.72-21.72Zm0,34.87c-7.26,0-13.15-5.89-13.15-13.15s5.89-13.15,13.15-13.15,13.15,5.89,13.15,13.15-5.89,13.15-13.15,13.15Z"/><path class="cls-6" d="m526.65,157.49c3.87,0,7.34,1.68,9.75,4.33l6.33-5.77c-3.97-4.38-9.7-7.13-16.08-7.13-4.3,0-8.31,1.26-11.69,3.42l5.3,6.82c1.89-1.05,4.06-1.66,6.38-1.66Z"/><path class="cls-6" d="m548.34,169.84c-.19-5.3-2.29-10.12-5.62-13.79l-6.33,5.77c1.94,2.15,3.19,4.94,3.38,8.02h8.57Z"/><path class="cls-3" d="m520.27,159.16l-5.3-6.82c-5.82,3.73-9.75,10.15-10.01,17.5,0,.26-.02.53-.02.8,0,5.66,2.16,10.8,5.71,14.67l6.33-5.77c-2.15-2.34-3.47-5.47-3.47-8.9,0-.27.01-.53.03-.8.28-4.61,2.93-8.56,6.74-10.69Z"/><path class="cls-8" d="m548.37,170.64c0-.27-.01-.53-.02-.8h-8.57c.02.26.03.53.03.8,0,3.49-1.36,6.66-3.58,9.01l5.3,6.81c4.21-3.96,6.85-9.58,6.85-15.82Z"/><path class="cls-6" d="m578.05,148.92c-11.99,0-21.72,9.72-21.72,21.72s9.72,21.72,21.72,21.72,21.72-9.72,21.72-21.72-9.72-21.72-21.72-21.72Zm0,34.87c-7.26,0-13.15-5.89-13.15-13.15s5.89-13.15,13.15-13.15,13.15,5.89,13.15,13.15-5.89,13.15-13.15,13.15Z"/><path class="cls-3" d="m591.2,170.64c0,4.73-2.49,8.87-6.24,11.19l5.97,6.29c5.36-3.95,8.83-10.31,8.83-17.48,0-6.38-2.75-12.12-7.13-16.09l-6.18,5.98c2.9,2.41,4.75,6.05,4.75,10.11Z"/><rect class="cls-6" x="447.35" y="232.26" width="24.34" height="3.59"/><rect class="cls-10" x="447.35" y="240.18" width="12.55" height="1.46"/><rect class="cls-10" x="461.94" y="240.18" width="8.01" height="1.46"/><polygon class="cls-10" points="465.42 244.07 465.42 245.04 464.6 245.04 464.6 244.07 451.64 244.07 451.64 245.53 470.94 245.53 470.94 244.07 465.42 244.07"/><rect class="cls-10" x="447.35" y="244.07" width="3.27" height="1.46"/><rect class="cls-10" x="471.69" y="244.07" width="3.07" height="1.46"/><rect class="cls-10" x="447.35" y="247.96" width="25.37" height="1.46"/><rect class="cls-10" x="447.35" y="251.86" width="18.48" height="1.46"/><rect class="cls-10" x="467.05" y="251.86" width="7.7" height="1.46"/><rect class="cls-13" x="467.14" y="199.2" width="15.24" height="3.62"/><rect class="cls-6" x="467.1" y="205.75" width="15.31" height="1"/><rect class="cls-6" x="467.1" y="209.93" width="15.31" height="1"/><rect class="cls-13" x="519.03" y="199.2" width="15.24" height="3.62"/><rect class="cls-6" x="518.99" y="205.75" width="15.31" height="1"/><rect class="cls-6" x="518.99" y="209.93" width="15.31" height="1"/><rect class="cls-13" x="570.92" y="199.2" width="15.24" height="3.62"/><rect class="cls-6" x="570.88" y="205.75" width="15.31" height="1"/><rect class="cls-6" x="570.88" y="209.93" width="15.31" height="1"/><rect class="cls-16" x="213.18" y="25.67" width="206.52" height="231.25"/><rect class="cls-17" x="251.42" y="33.19" width="52.6" height="6"/><rect class="cls-17" x="380.6" y="33.19" width="23.07" height="6"/><rect class="cls-17" x="380.6" y="47.15" width="23.07" height="1.98"/><path class="cls-6" d="m245.12,157.07c-8.44,0-15.29,6.84-15.29,15.29s6.84,15.29,15.29,15.29,15.29-6.84,15.29-15.29-6.84-15.29-15.29-15.29Zm0,24.54c-5.11,0-9.26-4.14-9.26-9.26s4.14-9.26,9.26-9.26,9.26,4.14,9.26,9.26-4.14,9.26-9.26,9.26Z"/><path class="cls-6" d="m245.12,166.25c-3.37,0-6.1,2.73-6.1,6.1s2.73,6.1,6.1,6.1,6.1-2.73,6.1-6.1-2.73-6.1-6.1-6.1Zm0,11.48c-2.97,0-5.38-2.41-5.38-5.38s2.41-5.38,5.38-5.38,5.38,2.41,5.38,5.38-2.41,5.38-5.38,5.38Z"/><path class="cls-6" d="m279.01,157.07c-8.44,0-15.29,6.84-15.29,15.29s6.84,15.29,15.29,15.29,15.29-6.84,15.29-15.29-6.84-15.29-15.29-15.29Zm0,24.54c-5.11,0-9.26-4.14-9.26-9.26s4.14-9.26,9.26-9.26,9.26,4.14,9.26,9.26-4.14,9.26-9.26,9.26Z"/><path class="cls-6" d="m279.01,166.25c-3.37,0-6.1,2.73-6.1,6.1s2.73,6.1,6.1,6.1,6.1-2.73,6.1-6.1-2.73-6.1-6.1-6.1Zm0,11.48c-2.97,0-5.38-2.41-5.38-5.38s2.41-5.38,5.38-5.38,5.38,2.41,5.38,5.38-2.41,5.38-5.38,5.38Z"/><polygon class="cls-6" points="234.62 219.44 234.25 218.52 286.53 197.23 297.89 202.25 311.89 182.06 321.28 187.96 331.48 173.32 332.3 173.89 321.56 189.32 312.16 183.41 298.24 203.49 286.51 198.31 234.62 219.44"/><rect class="cls-6" x="250.25" y="207.99" width="9.17" height="36.69"/><rect class="cls-6" x="265.12" y="213.68" width="9.17" height="31"/><rect class="cls-6" x="279.98" y="207.04" width="9.17" height="37.64"/><rect class="cls-6" x="294.85" y="217.48" width="9.17" height="27.2"/><rect class="cls-6" x="309.71" y="191.86" width="9.17" height="52.82"/><rect class="cls-6" x="324.58" y="186.8" width="9.17" height="57.88"/><rect class="cls-17" x="253.76" y="58.05" width="11.95" height="90.87"/><rect class="cls-17" x="271.12" y="58.05" width="11.95" height="90.87"/><rect class="cls-17" x="288.47" y="58.05" width="11.95" height="90.87"/><rect class="cls-17" x="305.83" y="58.05" width="11.95" height="90.87"/><rect class="cls-17" x="323.19" y="58.05" width="11.95" height="90.87"/><rect class="cls-17" x="340.55" y="58.05" width="11.95" height="90.87"/><rect class="cls-17" x="357.91" y="58.05" width="11.95" height="90.87"/><rect class="cls-17" x="375.26" y="58.05" width="11.95" height="90.87"/><rect class="cls-17" x="392.62" y="58.05" width="11.95" height="90.87"/><rect class="cls-16" x="257.44" y="64.13" width="1.5" height="84.24"/><rect class="cls-16" x="274.94" y="64.13" width="1.5" height="84.24"/><rect class="cls-16" x="292.44" y="64.13" width="1.5" height="84.24"/><rect class="cls-16" x="309.93" y="64.13" width="1.5" height="84.24"/><rect class="cls-16" x="327.43" y="64.13" width="1.5" height="84.24"/><rect class="cls-16" x="344.93" y="64.13" width="1.5" height="84.24"/><rect class="cls-16" x="362.43" y="64.13" width="1.5" height="84.24"/><rect class="cls-16" x="379.93" y="64.13" width="1.5" height="84.24"/><rect class="cls-16" x="397.43" y="64.13" width="1.5" height="84.24"/><rect class="cls-6" x="255.44" y="106.38" width="5.5" height="42"/><rect class="cls-6" x="272.94" y="106.38" width="5.5" height="42"/><rect class="cls-6" x="290.44" y="120.01" width="5.5" height="28.37"/><rect class="cls-6" x="307.94" y="91.63" width="5.5" height="56.75"/><rect class="cls-15" x="307.94" y="91.63" width="5.5" height="11.86"/><rect class="cls-6" x="325.43" y="82.88" width="5.5" height="65.49"/><rect class="cls-6" x="342.93" y="106.38" width="5.5" height="42"/><rect class="cls-6" x="360.43" y="89.13" width="5.5" height="59.25"/><rect class="cls-15" x="360.43" y="89.13" width="5.5" height="4.03"/><rect class="cls-6" x="377.93" y="95.63" width="5.5" height="52.75"/><rect class="cls-6" x="395.43" y="106.38" width="5.5" height="42"/><rect class="cls-17" x="236.72" y="144.78" width="11.24" height="3.25"/><rect class="cls-17" x="236.72" y="131.34" width="11.24" height="3.25"/><rect class="cls-17" x="236.72" y="117.9" width="11.24" height="3.25"/><rect class="cls-17" x="236.72" y="104.46" width="11.24" height="3.25"/><rect class="cls-17" x="236.72" y="91.02" width="11.24" height="3.25"/><rect class="cls-17" x="236.72" y="77.58" width="11.24" height="3.25"/><rect class="cls-17" x="236.72" y="64.13" width="11.24" height="3.25"/><rect class="cls-10" x="253.76" y="53.75" width="11.95" height="1.28"/><rect class="cls-10" x="271.12" y="53.75" width="11.95" height="1.28"/><rect class="cls-10" x="288.47" y="53.75" width="11.95" height="1.28"/><rect class="cls-10" x="305.83" y="53.75" width="11.95" height="1.28"/><rect class="cls-10" x="323.19" y="53.75" width="11.95" height="1.28"/><rect class="cls-10" x="340.55" y="53.75" width="11.95" height="1.28"/><rect class="cls-10" x="357.91" y="53.75" width="11.95" height="1.28"/><rect class="cls-10" x="375.26" y="53.75" width="11.95" height="1.28"/><rect class="cls-10" x="392.62" y="53.75" width="11.95" height="1.28"/><rect class="cls-16" y="91.77" width="194.74" height="117.25"/><circle class="cls-1" cx="163.16" cy="133.1" r="29.13"/><path class="cls-6" d="m163.05,103.97c-8.12.03-15.45,3.38-20.71,8.76l19.38,20.8,13.62-26.89c-3.74-1.72-7.9-2.68-12.29-2.67Z"/><path class="cls-6" d="m188.19,118.2c-3.01-5.04-7.49-9.09-12.85-11.57l-13.62,26.89.28.3,26.19-15.63Z"/><path class="cls-6" d="m142.34,112.73c-5.17,5.28-8.34,12.51-8.31,20.48.02,5.43,1.53,10.5,4.13,14.84l23.22-13.86.34-.67-19.38-20.8Z"/><polygon class="cls-1" points="161.72 133.53 161.38 134.2 162 133.83 161.72 133.53"/><path class="cls-17" d="m182.01,155.3l-20.01-21.48-.62.37-12.35,24.38c4.22,2.34,9.07,3.67,14.24,3.66,7.15-.03,13.69-2.63,18.74-6.93Z"/><path class="cls-17" d="m138.16,148.05c2.63,4.39,6.39,8.03,10.87,10.52l12.35-24.38-23.22,13.86Z"/><path class="cls-15" d="m188.19,118.2l-26.19,15.63,20.01,21.48c6.32-5.37,10.31-13.38,10.28-22.31-.02-5.41-1.52-10.46-4.1-14.79Z"/><circle class="cls-16" cx="163.16" cy="133.1" r="20.33"/><path class="cls-6" d="m163.16,150.72c-9.72,0-17.62-7.91-17.62-17.62s7.91-17.62,17.62-17.62,17.62,7.91,17.62,17.62-7.91,17.62-17.62,17.62Zm0-34.25c-9.17,0-16.62,7.46-16.62,16.62s7.46,16.62,16.62,16.62,16.62-7.46,16.62-16.62-7.46-16.62-16.62-16.62Z"/><rect class="cls-6" x="162.49" y="168.64" width="8.65" height="1.99"/><rect class="cls-6" x="162.49" y="173.95" width="12.82" height="1.99"/><rect class="cls-6" x="177.01" y="173.95" width="6.31" height="1.99"/><rect class="cls-6" x="183.83" y="173.95" width="4.04" height="1.99"/><rect class="cls-6" x="162.49" y="179.26" width="6.12" height="1.99"/><rect class="cls-6" x="170.26" y="179.26" width="15.73" height="1.99"/><rect class="cls-6" x="180.67" y="184.57" width="7.2" height="1.99"/><rect class="cls-6" x="162.49" y="184.57" width="17.49" height="1.99"/><rect class="cls-6" x="162.49" y="189.88" width="11.05" height="1.99"/><rect class="cls-6" x="175.24" y="189.88" width="4.74" height="1.99"/><rect class="cls-6" x="180.67" y="189.88" width="2.75" height="1.99"/><rect class="cls-6" x="22.43" y="185.43" width="22.16" height="1.36"/><rect class="cls-10" x="22.43" y="189.06" width="26.66" height="1.36"/><rect class="cls-10" x="32.62" y="192.68" width="16.47" height="1.36"/><rect class="cls-10" x="22.43" y="192.68" width="7.77" height="1.36"/><rect class="cls-10" x="22.43" y="196.31" width="26.66" height="1.36"/><rect class="cls-10" x="22.43" y="199.94" width="26.66" height="1.36"/><rect class="cls-20" x="21.93" y="110.85" width="1" height="65.19"/><rect class="cls-20" x="40.47" y="110.85" width="1" height="65.19"/><rect class="cls-20" x="59.01" y="110.85" width="1" height="65.19"/><rect class="cls-20" x="77.55" y="110.85" width="1" height="65.19"/><rect class="cls-20" x="96.09" y="110.85" width="1" height="65.19"/><rect class="cls-20" x="114.63" y="110.85" width="1" height="65.19"/><rect class="cls-10" x="19.41" y="136.75" width="6.03" height="39.29"/><rect class="cls-10" x="38.12" y="150.22" width="6.03" height="25.82"/><rect class="cls-10" x="56.51" y="138.9" width="6.03" height="37.14"/><rect class="cls-10" x="75.03" y="124.74" width="6.03" height="51.3"/><rect class="cls-10" x="93.57" y="146.4" width="6.03" height="29.64"/><rect class="cls-17" x="9.72" y="177.27" width="109.03" height=".83"/><polygon class="cls-6" points="121.51 125.05 115.13 113.99 108.74 125.05 112.11 125.05 112.11 176.04 118.14 176.04 118.14 125.05 121.51 125.05"/><path class="cls-17" d="m17.51,172.85c0,.42-.34.76-.76.76h-6.26c-.42,0-.76-.34-.76-.76h0c0-.42.34-.76.76-.76h6.26c.42,0,.76.34.76.76h0Z"/><path class="cls-17" d="m17.51,161.98c0,.42-.34.76-.76.76h-6.26c-.42,0-.76-.34-.76-.76h0c0-.42.34-.76.76-.76h6.26c.42,0,.76.34.76.76h0Z"/><path class="cls-17" d="m17.51,151.12c0,.42-.34.76-.76.76h-6.26c-.42,0-.76-.34-.76-.76h0c0-.42.34-.76.76-.76h6.26c.42,0,.76.34.76.76h0Z"/><path class="cls-17" d="m17.51,140.26c0,.42-.34.76-.76.76h-6.26c-.42,0-.76-.34-.76-.76h0c0-.42.34-.76.76-.76h6.26c.42,0,.76.34.76.76h0Z"/><path class="cls-17" d="m17.51,129.4c0,.42-.34.76-.76.76h-6.26c-.42,0-.76-.34-.76-.76h0c0-.42.34-.76.76-.76h6.26c.42,0,.76.34.76.76h0Z"/><path class="cls-17" d="m17.51,118.53c0,.42-.34.76-.76.76h-6.26c-.42,0-.76-.34-.76-.76h0c0-.42.34-.76.76-.76h6.26c.42,0,.76.34.76.76h0Z"/><path class="cls-17" d="m17.51,107.67c0,.42-.34.76-.76.76h-6.26c-.42,0-.76-.34-.76-.76h0c0-.42.34-.76.76-.76h6.26c.42,0,.76.34.76.76h0Z"/><rect class="cls-16" x="435.88" y="38.37" width="121.71" height="80.37"/><rect class="cls-6" x="447.65" y="75.68" width="10.46" height="29.43"/><rect class="cls-6" x="460.82" y="84.62" width="10.46" height="20.49"/><rect class="cls-6" x="473.98" y="64.13" width="10.46" height="40.98"/><rect class="cls-6" x="487.15" y="75.68" width="10.46" height="29.43"/><rect class="cls-6" x="500.32" y="64.13" width="10.46" height="40.98"/><rect class="cls-6" x="513.48" y="67.39" width="10.46" height="37.72"/><rect class="cls-6" x="526.65" y="59.23" width="10.46" height="45.88"/><rect class="cls-15" x="447.65" y="102.17" width="10.46" height="2.95"/><rect class="cls-15" x="460.82" y="93.33" width="10.46" height="11.78"/><rect class="cls-15" x="473.98" y="99.22" width="10.46" height="5.89"/><rect class="cls-15" x="487.15" y="93.33" width="10.46" height="11.78"/><rect class="cls-15" x="500.32" y="86.25" width="10.46" height="18.86"/><rect class="cls-15" x="513.48" y="93.33" width="10.46" height="11.78"/><rect class="cls-15" x="526.65" y="75.68" width="10.46" height="29.43"/><rect class="cls-6" x="533.43" y="41.99" width="16.51" height="2.43"/><rect class="cls-6" x="533.43" y="47.36" width="8.51" height=".99"/><rect class="cls-6" x="543.33" y="47.36" width="5.43" height=".99"/><polygon class="cls-6" points="545.69 50 545.69 50.66 545.13 50.66 545.13 50 536.34 50 536.34 50.99 549.43 50.99 549.43 50 545.69 50"/><rect class="cls-6" x="533.43" y="50" width="2.22" height=".99"/><rect class="cls-6" x="549.94" y="50" width="2.08" height=".99"/><rect class="cls-6" x="448.73" y="55.48" width="8.45" height="2.06" rx="1.02" ry="1.02"/><rect class="cls-6" x="461.82" y="55.48" width="8.45" height="2.06" rx="1.02" ry="1.02"/><rect class="cls-6" x="474.98" y="55.48" width="8.45" height="2.06" rx="1.02" ry="1.02"/><rect class="cls-6" x="488.15" y="55.48" width="8.45" height="2.06" rx="1.02" ry="1.02"/><rect class="cls-6" x="501.32" y="55.48" width="8.45" height="2.06" rx="1.02" ry="1.02"/><rect class="cls-6" x="514.48" y="55.48" width="8.45" height="2.06" rx="1.02" ry="1.02"/><rect class="cls-6" x="527.41" y="55.48" width="8.45" height="2.06" rx="1.02" ry="1.02"/><path class="cls-15" d="m106.67,252.52c.39,1.07.11,2.33.66,3.32.48.87,1.5,1.32,2.49,1.36.99.04,1.96-.26,2.89-.58,1.73-.6,3.42-1.28,5.07-2.06,1.2-.56,2.43-1.21,3.16-2.31.8-1.18.89-2.69.99-4.11.44-6.39,1.39-12.74,2.84-18.98.36-1.54.75-3.11.63-4.68-.12-1.58-.85-3.2-2.24-3.96-.89-.49-1.95-.57-2.97-.54-1.36.05-2.78.32-3.84,1.18-1.55,1.25-1.97,3.39-2.49,5.32-1.22,4.61-3.52,8.94-6.66,12.53-1.25,1.44-2.66,2.79-3.54,4.47-.89,1.69-1.16,3.86-.11,5.45.88,1.33,2.55,2.09,3.09,3.58Z"/><path class="cls-20" d="m116.58,251.27c-.05,1.37-.47,2.78-1.44,3.73-1.03,1.01-2.51,1.38-3.92,1.71-1.18.28-2.48.54-3.57.01-1.22-.59-1.79-1.97-2.27-3.23-.53-1.39-1.06-2.8-1.2-4.28s.15-3.06,1.1-4.19c.8-.95,2.01-1.51,3.25-1.68,2.12-.29,4.35.53,5.85,2.07s2.28,3.71,2.2,5.86Z"/><path class="cls-19" d="m110.88,256.76c-2.25.82-4.74-.06-6.82-1.3-2.53-1.51-4.77-3.58-6.54-6.04,2.32-1.01,4.12-3.3,4.66-5.94,1.84,1.03,3.96,1.24,5.98,1.7,2.03.45,4.14,1.27,5.35,3.08.94,1.41,1.2,3.32.68,4.96-.52,1.65-1.79,2.99-3.31,3.54Z"/><path class="cls-11" d="m113.51,248.25c-1.21-1.81-3.33-2.62-5.35-3.08-2.03-.45-4.15-.67-5.98-1.69-.42,2.09-1.65,3.95-3.29,5.14,4.22,2.92,11.03,2.42,12.85,6.07.25.42.42.84.55,1.27.87-.68,1.56-1.64,1.9-2.75.52-1.65.26-3.56-.68-4.96Z"/><rect class="cls-20" x="101.81" y="213.74" width="6.85" height="50.61" transform="translate(-56.24 33.76) rotate(-14.43)"/><path class="cls-19" d="m96.12,241.12c.04-.63.08-1.26.24-1.87.61-2.3,2.98-7.18,3.11-9.57,2.23,3.03.72,5.4.85,6.58,1.16-.02,2.33-.04,3.46.23.37.09.8.28.87.68.05.28-.11.57-.33.73-.22.16-.49.23-.75.29.37.22.76.45,1.04.79.29.34.47.82.35,1.27-.11.44-.58.78-.98.62.33.3.69.63.78,1.08.09.46-.25,1.02-.68.92.43.31.43,1.03.18,1.52-.26.49-.69.84-1.03,1.26-.62.76-.94,1.74-1.39,2.63-.45.89-1.13,1.75-2.06,1.91-.96.17-1.89-.47-2.62-1.16-.34-.32-.67-.66-.87-1.09-.26-.55-.28-1.19-.28-1.81-.02-1.66.02-3.33.11-4.99Z"/><path class="cls-11" d="m104.61,238.97c-.29-.34-.67-.57-1.04-.79.26-.06.53-.13.75-.29.22-.16.38-.45.33-.73-.07-.4-.5-.59-.87-.68-.94-.22-1.9-.25-2.87-.24,1.51,4.84,1.65,9.65-1.13,13.93,0,0,0,0,0,0,.93-.16,1.61-1.02,2.06-1.91.45-.89.77-1.87,1.39-2.63.34-.42.78-.77,1.03-1.26.26-.49.26-1.21-.18-1.52.42.1.77-.46.68-.92-.09-.46-.45-.79-.78-1.08.4.16.87-.18.98-.62.11-.44-.07-.93-.35-1.27Z"/><path class="cls-20" d="m104.41,241.28c-1.15-.63-2.45-.98-3.76-1.02l.02-.5c1.39.04,2.77.42,3.99,1.08l-.24.44Z"/><path class="cls-20" d="m104.41,243.1c-1.24-.5-2.54-.78-3.88-.84l.02-.5c1.4.05,2.76.35,4.05.87l-.19.46Z"/><path class="cls-20" d="m103.53,246.07c-.55-.22-.98-.74-1.08-1.33-.02-.12-.04-.21-.06-.23-.01-.01-.07-.02-.15-.03-.49-.03-.98-.01-1.45.07l-.08-.49c.52-.09,1.05-.12,1.57-.07.1,0,.3.02.45.16.15.14.18.33.21.47.08.47.39.84.78,1l-.19.46Z"/><path class="cls-19" d="m127.08,196.86c2.1-.25,4.67-1.62,6.71-2.23.57,2.71,1.88,9.61,3.67,12.85l.7,1.03c-4.93,3.77-10,5.63-15.86,7.23,6.77-3.78,4.49-12.31,4.78-18.88Z"/><path class="cls-11" d="m132.78,194.98c-1.84.67-3.93,1.68-5.7,1.89-.29,6.57,1.99,15.09-4.78,18.88,2.42-.66,4.71-1.38,6.91-2.25,2.54-5.68,3.81-11.98,3.58-18.52Z"/><path class="cls-20" d="m132.83,194.84c-1.92.67-4.18,1.8-6.07,2.02.13,2.81.51,5.99.43,9.02,4.57-.95,5.29-6.26,5.64-11.04Z"/><path class="cls-4" d="m125.19,209.69c-1.23.61-2.46,1.34-3.25,2.46-1.32,1.87-1.16,4.37-1.85,6.55,2.7-2.77,6.16-4.7,9.79-6.02,3.63-1.32,7.45-2.06,11.26-2.68.21-.95-.4-1.93-1.23-2.43-.83-.5-1.83-.62-2.8-.66-4.12-.16-8.23.95-11.92,2.79Z"/><path class="cls-19" d="m134.19,185.77c-1.99-2.37-4.65-3.88-7.57-4.42l-1.92-.04c-1.19,1.38-1.89,1.47-2.83,3.06l-.29,1.24c-.22.8-.71,1.79-1.58,2.15-1.06.44-2.02,1.13-2.96,1.84-.35.27-.73.62-.71,1.08.02.35.27.64.51.88.53.55,1.08,1.07,1.64,1.58-.19,1.81.09,3.69.17,5.53.04,1.03.05,2.15.64,2.96.56.75,1.5,1.03,2.38,1.17,3.52.56,7.2-.39,10.19-2.46,1.97-1.36,3.72-3.29,4.41-5.71.87-3.05-.11-6.51-2.1-8.88Z"/><path class="cls-11" d="m134.19,185.77c-1.99-2.37-4.65-3.88-7.57-4.42l-1.92-.04c-1.19,1.38-1.89,1.47-2.83,3.06l-.15.65c.34,5.5,6.1,11.3,7.56,16.76.9-.39,1.77-.86,2.59-1.43,1.97-1.36,3.72-3.29,4.41-5.71.87-3.05-.11-6.51-2.1-8.88Z"/><path class="cls-16" d="m121.59,185.61c.08-.29.13-.57.14-.77l-.14.77Z"/><path class="cls-20" d="m146.84,180.9c-.74-1.39-1.54-2.75-2.41-4.06-.4-.61-.9-1.26-1.62-1.37-.7-.11-1.36.34-1.93.76-.59.44-1.18.88-1.78,1.32-.89-.48-1.91-1.05-2.74-1.35-2.85-1.03-6.06-.91-8.83.35l-2.66-.85c-1.66,1.09-2.43,3.28-2.65,5.37-.38,3.6.55,7.31,2.38,10.35,1.83,3.04,5.09,6.84,8.11,8.43,1.66.88,3.12.4,4.81-.23.15-.06.29-.14.44-.21.84-.29,1.65-.71,2.39-1.22,2.26-1.56,4.02-3.74,5.57-6.02,1.33-1.96,2.57-4.17,2.49-6.54-.06-1.68-.78-3.25-1.57-4.74Z"/><path class="cls-19" d="m97.45,386.82c4.77-2.65,7.86-7.22,10.48-11.91,3.18-39.41-.02-36.87,1.65-53.97h12.64c.52,10.74.25,20.46-2.11,30.63-1.83,7.87-3.44,13.92-5.24,23.34-.33,1.76-.7,4.31-.25,6.08.33,1.3.52,2.51-.1,3.51-1.49,2.34-2.95,1.77-5.62,2.75-3.11,1.14-2.47,3.5-8.77,3.68-1.2.03-2.48.07-3.55-.68-.38-.26-.74-.65-.84-1.16-.23-1.14.87-1.81,1.7-2.27Z"/><path class="cls-11" d="m116.82,365.55c1.08-4.8,2.14-9.03,3.3-13.98,2.37-10.16,2.63-19.89,2.11-30.62h-12.64c-1.54,15.77,1.06,14.83-1.02,45.51,4.24,2.42,6.61.84,8.25-.91Z"/><path class="cls-20" d="m107.55,385.26c-1.27.98-2.67,1.79-4.17,2.15-1.5.36-3.12.25-4.49-.53-.19-.11-.38-.23-.56-.35.34-.28.68-.55,1.02-.83.12-.1.25-.2.4-.21.15,0,.29.09.43.16.59.32,1.28.34,1.93.35,1.84.02,3.74.04,5.44-.75Z"/><path class="cls-6" d="m97.45,386.82c.47-.26.91-.56,1.35-.85,1.22,1.13,2.97,1.53,4.8,1.31,4.09-.51,7.7-3.51,11.09-6.01.29,1.2.41,2.31-.17,3.24-1.49,2.34-2.95,1.77-5.62,2.75-3.11,1.14-2.47,3.5-8.77,3.68-1.2.03-2.48.07-3.55-.68-.38-.26-.74-.65-.84-1.16-.23-1.14.87-1.81,1.7-2.27Z"/><path class="cls-5" d="m108.93,282.86c.24,6-.48,13.3-.71,19.31-.24,6.12-.96,12.2-1.01,18.32-.12,14.37,3.42,28.97.43,42.93,5.31,1.76,11.12,1.52,16.31-.68,1.94-22.82,4.4-53.39,8.2-78.08-6.97.44-16.72,1.09-23.22-1.81Z"/><path class="cls-5" d="m130.29,288.38c-1.15.07-2.34.04-3.53-.06.24,1.3.26,2.59-.2,4.15-3.56,10.12-10.11,25.05-10.11,34.16,0,13.32.02,23.75-.22,37.96,2.7-.13,5.18-.78,7.72-1.85,1.94-22.82,2.55-49.68,6.35-74.36Z"/><path class="cls-19" d="m126.59,390.77s2.55-2.12,2.56-2.13c1.82-2.57,2.44-5.34,2.04-8.55-2.16-17.38-7.93-38.94-10.63-56.12h15.64c2.31,18.1,4.92,39.66,1.44,56.77-.42,2.08-.47,4.22-.17,6.33.19,1.37.36,2.74.49,4.11.13,1.31.2,2.8-.51,3.67-.58.71-2.73.35-4.41,1.14-4.41,2.07-9.39,2.55-12.53.87-1.86-1.41,2.12-3.79,6.08-6.08Z"/><path class="cls-11" d="m136.21,323.97h-15.64c2.6,16.58,8.06,37.23,10.38,54.28,3.28,1.36,6.15-.47,7.48-2.29,2.2-16.23-.13-35.53-2.23-51.99Z"/><path class="cls-20" d="m136.86,390.07c.1-.36.13-.74.08-1.11-.29.51-.53,1.06-.7,1.63.14.06.3,0,.41-.1s.17-.26.21-.41Z"/><path class="cls-20" d="m128.4,395.34c-.78.24-1.58.46-2.39.46-1.53-.02-3.02-.91-3.84-2.29.44-.32.88-.64,1.33-.95,1.8,1.46,4.27,1.51,6.49,1.06,2.22-.44,4.36-1.31,6.61-1.47-2.7,1.16-5.4,2.32-8.19,3.19Z"/><path class="cls-6" d="m122.85,393.05c.57.81,1.49,1.41,2.75,1.73,1.79.45,4.36-.35,6.04-1,2.04-.79,4.18-2.14,6.33-2.59.13,1.31.19,2.79-.51,3.65-.58.71-2.73.35-4.41,1.14-4.41,2.07-9.39,2.55-12.53.87-1.24-.94.12-2.31,2.34-3.8Z"/><path class="cls-5" d="m140.94,285.74c2.67,10-.91,20.52-2.18,30.83-2.24,18.22,7.63,39.24,4.13,57.23-5.39,2.63-11.23,4.72-17.31,1.46,1.03-10.8-2.17-25-4-35.68-.94-5.48-2.36-10.88-2.85-16.43-1.2-13.61,3.25-27.7-.31-40.82,6.38-.31,12.76-.63,19.15-.94l3.38,4.36Z"/><path class="cls-20" d="m134.47,290.06c1.17-.19,2.37-.4,3.38-1.02s1.79-1.76,1.64-2.93c-9.82-.62-19.62-1.61-29.37-2.97-.54.84-.39,1.99.13,2.84.52.85,1.36,1.46,2.22,1.97,3.23,1.93,7.01,2.8,10.77,2.98,3.76.18,7.52-.29,11.23-.88Z"/><path class="cls-20" d="m138.76,316.57c1.27-10.31,4.85-20.84,2.18-30.83l-3.38-4.36c-1.16.06-2.32.11-3.48.17,2.42,3.91,4.25,8.02,3.66,12.13-4,23,0,43,3,65,1.04,5.42,1.16,10.7.58,15.85.52-.24,1.05-.48,1.56-.74,3.51-17.99-6.37-39.01-4.13-57.23Z"/><path class="cls-6" d="m144.3,210.44c2.52,2.63,3.2,6.77,2.78,10.52-.58,5.16-2.45,10.12-4.89,14.61-2.25,4.14-4.06,9.06-2.89,15.05.58,2.96,1.74,5.74,2.8,8.55,2.72,7.16,4.12,14.91,4.09,22.65,0,1.26-.09,2.64-.87,3.58-.88,1.05-2.33,1.21-3.65,1.28-9.27.48-22.37.98-33.04-3.01.53-14.53,6.29-26.79,6.83-41.32.25-6.93-3.22-11.72-.47-17.99,2.45-5.6,10.6-12.55,15.86-15.03,4.37-2.07,10.02-2.45,13.45,1.12Z"/><path class="cls-6" d="m118.27,263.53c.33-7.61,2.95-15.05,2.58-22.65,7.35-2.83,14.18-7.02,20.04-12.29-3.34,7.82-6.75,16.15-5.44,24.55.84,5.36,3.53,10.2,5.58,15.22s3.41,12.09,1.58,17.19c-8.87,1-16.96,1.15-25.01-1.25,1.96-6.68.36-13.83.66-20.78Z"/><path class="cls-20" d="m117.12,246.27c.21-1.97.58-4.01,1.76-5.61,1.07-1.45,2.69-2.37,4.27-3.22,6.33-3.44,12.83-6.57,19.47-9.39-4.61,10.93-11.98,20.69-21.25,28.1-.8.64-1.79,1.3-2.78,1.02-1.27-.37-1.61-1.97-1.68-3.29-.13-2.53-.06-5.08.21-7.6Z"/><path class="cls-6" d="m110.99,284.58c-1.14-6.49.63-13.02,2.34-19.34.67-2.49,1.37-5.06,1.88-7.59.87-4.32,1.23-8.81,1.57-13.14.31-3.87.63-7.86,1.31-11.75,1.22-6.98,4.31-16.36,12.06-21.4l.27.42c-7.6,4.94-10.64,14.18-11.84,21.06-.68,3.86-.99,7.85-1.3,11.7-.35,4.35-.71,8.84-1.58,13.2-.51,2.55-1.21,5.12-1.89,7.62-1.7,6.26-3.46,12.74-2.33,19.12l-.49.09Z"/><path class="cls-19" d="m141.54,211.49c-2.98-.64-6.11.82-8.66,2.35-3.85,2.31-7.47,5.01-11.19,7.56-3.72,2.55-7.82,4.75-12.22,4.98-6.21-6.96-10.06-8.73-16.13-15.39-.67-.97-1.15-2.12-1.55-3.26-.63-1.8-1.12-3.7-2.13-5.28-.2-.31-.43-.62-.77-.73-.28-.1-.59-.03-.89-.04-.69-.03-1.29-.49-1.85-.93-2.09-1.65-4.17-3.3-6.26-4.95-.86,1.7.79,2.54,3.56,5.19-.59-.06-1.65.92-1.64,1.56.01.64.22,1.29.03,1.9-.16.51-.58,1.01-.38,1.5.11.27.39.43.51.69.17.37-.01.8-.03,1.21-.03.69.4,1.28.81,1.81.62.81,1.27,1.64,2.12,2.15.62.37,1.31.56,1.93.92,1.11.65,1.63,1.35,2.24,2.57.11.23.73,1.5.81,1.67,0,0,6.08,11.99,12.47,20.48.86,1.15,2.26,1.75,3.69,1.64,10.57-.77,20.93-4.07,30.52-8.93,2.24-1.14,4.47-2.37,6.35-4.12,2.16-2.01,3.98-4.66,3.77-7.89-.2-3.13-2.21-6.05-5.12-6.68Z"/><path class="cls-11" d="m141.54,211.49c-2.98-.64-6.11.82-8.66,2.35-3.85,2.31-7.47,5.01-11.19,7.56-3.72,2.55-7.82,4.75-12.22,4.98-.84-.94-1.63-1.78-2.39-2.55-.4.33-.84.62-1.33.86-7,4-14-5-17-12-.97-1.93-4.74-2.01-6.79-4.72.02.64.41,1.2.79,1.7.62.81,1.27,1.64,2.12,2.15.62.37,1.31.56,1.93.92,1.11.65,1.63,1.35,2.24,2.57.11.23.73,1.5.81,1.67,0,0,6.08,11.99,12.47,20.48.86,1.15,2.26,1.75,3.69,1.64,10.57-.77,20.93-4.07,30.52-8.93,2.24-1.14,4.47-2.37,6.35-4.12,2.16-2.01,3.98-4.66,3.77-7.89-.2-3.13-2.21-6.05-5.12-6.68Z"/><path class="cls-6" d="m138.65,210.5c-2.61.31-4.81,2-6.96,3.51-5.25,3.68-11.06,6.56-17.17,8.5-1.4.45-2.84.85-4.05,1.68-1.21.83-2.18,2.18-2.12,3.64.05,1.31.9,2.53.81,3.84-.1,1.43-1.27,2.52-2.2,3.61-.93,1.1-1.68,2.71-.9,3.91.49.75,1.4,1.06,2.26,1.31,1.32.39,2.67.77,3.84,1.5s2.17,1.86,2.38,3.23c.13.85-.05,1.72-.07,2.59-.02.86.19,1.82.88,2.34.42.31.96.42,1.48.42,2.59-.03,4.41-2.43,6.14-4.36,5.78-6.42,14.63-9.43,20.39-15.88,1.96-2.19,3.53-4.79,4.17-7.67.63-2.87.26-6.03-1.37-8.47-1.63-2.45-4.6-4.05-7.52-3.71Z"/><path class="cls-6" d="m109.63,225.56l-.42-.27c1.03-1.62,2.89-2.75,5.54-3.36.84-.19,1.7-.33,2.53-.46,1.26-.2,2.56-.41,3.77-.81,2.69-.89,5.03-2.74,7.01-4.41l.74-.62c1.89-1.6,3.84-3.25,6.09-4.38,2.9-1.45,5.95-1.72,8.35-.74l-.19.46c-2.27-.93-5.16-.66-7.94.72-2.2,1.1-4.13,2.73-5.99,4.31l-.74.63c-2.02,1.7-4.4,3.58-7.18,4.5-1.26.41-2.57.62-3.85.83-.82.13-1.67.27-2.49.46-2.52.58-4.28,1.63-5.23,3.14Z"/><path class="cls-6" d="m119.32,227.51c-2.28,1.17-4.84,1.79-7.4,1.8-.73,0-1.56,0-2.06.52.42,1.28.23,2.73-.49,3.86,1.08-1.36,2.9-1.84,4.5-2.51,2.04-.84,3.9-2.1,5.45-3.67Z"/><path class="cls-6" d="m130.51,230.71c-4.89,4.62-10.1,8.9-15.6,12.77-1.72-1.79-4.06-2.96-6.52-3.25,4.06-.24,7.99-1.53,11.66-3.29,3.66-1.76,7.07-3.99,10.46-6.23Z"/><path class="cls-6" d="m118.94,249.05c2.75-1.74,4.87-4.45,7.3-6.62,2.59-2.31,5.49-3.91,8.48-5.67,2.99-1.76,5.88-4.13,6.92-7.44-2.06,3.39-5.43,5.76-8.89,7.68s-7.13,3.51-10.34,5.83c-2.45,1.77-4.59,3.94-6.58,6.23.32.48.95.68,1.53.62s1.1-.33,1.59-.64Z"/><path class="cls-11" d="m118.27,191.83c.22.07.45.15.62.3.17.15.29.4.22.62s-.36.36-.55.23c-.55-.42-1.04-.92-1.46-1.47.39.1.78.21,1.17.33Z"/><path class="cls-19" d="m494.65,243.42c-.1-.71-.59-1.34-.62-2.07-.02-.49.18-.96.19-1.45.01-.76-.43-1.44-.75-2.13-.39-.84-.62-1.76-.67-2.69-.55.16-1.03.53-1.32,1.02-.29.49-.4,1.08-.29,1.64.12.61.49,1.19.35,1.8-.05.23-.17.43-.31.61-.03-.04-.06-.07-.09-.11-.48-.55-1.13-.92-1.72-1.35-1.95-1.42-3.35-3.44-4.86-5.32-.25-.31-.64-.64-.98-.44-.33.19-.36.94-.23,1.3.64,1.8,1.71,3.22,2.93,4.68.16.19.33.39.38.64.07.32-.08.64-.23.94-.33.7-.63,1.42-.88,2.15-.25.7-.46,1.47-.25,2.19.14.48.46.89.77,1.28.73.9,1.59,1.85,2.75,1.98.58.07,1.41.25,2.09.21,2.04,1.68,3.89,3.6,5.48,5.71,1.24-1.34,2.69-2.49,4.27-3.4-2.12-2-4.16-4.09-6.12-6.24.1-.3.14-.62.09-.93Z"/><path class="cls-11" d="m486.08,245.12c-.28-.7-.16-1.5-.03-2.24.21-1.19.42-2.39.63-3.59.49.45,1.18.59,1.82.79.64.19,1.31.52,1.56,1.14.08.21.11.43.13.66.14,1.22.27,2.45.41,3.67-.64.62-1.52,1.02-2.41.98-.89-.04-1.77-.58-2.11-1.41Z"/><path class="cls-19" d="m486.33,241.18c.39.29.8.55,1.22.8.21.13.46.25.7.17.25-.09.36-.38.38-.64.04-.55-.22-1.09-.58-1.5-.36-.41-.83-.72-1.29-1.02-.22-.14-.46-.29-.72-.3-.37,0-.7.31-.78.67-.08.36.04.75.26,1.05.22.3.51.54.81.76Z"/><path class="cls-19" d="m484.63,242.21c.15.38.53.62.89.82.42.24.84.49,1.26.73.3.17.6.35.94.4.34.05.72-.04.93-.31.17-.24.18-.56.08-.84-.1-.28-.29-.51-.49-.72-.73-.78-1.66-1.37-2.67-1.7-.18-.06-.37-.11-.54-.03-.19.09-.28.32-.34.53-.11.37-.21.77-.07,1.13Z"/><path class="cls-19" d="m484.76,243.56c-.2.42-.1.93.16,1.31s.68.62,1.11.78c.43.15.89.21,1.35.29.23.04.47.08.7.04.23-.03.46-.16.56-.37.16-.33-.05-.72-.31-.97-.34-.33-.77-.54-1.19-.75-.38-.19-.77-.39-1.15-.58-.22-.11-.46-.22-.7-.18-.24.04-.43.23-.53.44Z"/><path class="cls-15" d="m554.09,265.52l-4.33-1.45c-19.13.85-38.49-6.04-52.82-18.75-.56-.5-1.41-.52-1.97-.03-.88.77-1.72,1.6-2.35,2.58-.86,1.35-1.28,3.09-.71,4.59.47,1.23,1.51,2.13,2.52,2.97,6.71,5.64,13.47,11.29,21,15.78,7.53,4.48,15.94,7.78,24.7,8.27,4.17.23,8.64-.28,11.9-2.88,3.27-2.6,4.68-7.83,2.06-11.08Z"/><path class="cls-15" d="m533.99,266.25c0,.38-.31.69-.69.69s-.69-.31-.69-.69.31-.69.69-.69.69.31.69.69Z"/><path class="cls-15" d="m524.24,271.12c0,.31-.25.56-.56.56s-.56-.25-.56-.56.25-.56.56-.56.56.25.56.56Z"/><circle class="cls-15" cx="522.99" cy="263.06" r=".87"/><circle class="cls-15" cx="511.87" cy="258.56" r=".5"/><path class="cls-15" d="m506.24,258c0,.38-.31.69-.69.69s-.69-.31-.69-.69.31-.69.69-.69.69.31.69.69Z"/><path class="cls-15" d="m499.99,250.37c0,.31-.25.56-.56.56s-.56-.25-.56-.56.25-.56.56-.56.56.25.56.56Z"/><circle class="cls-15" cx="496.12" cy="253.31" r=".75"/><path class="cls-15" d="m492.28,248.46c-.63,1.25-.87,2.71-.38,4,.47,1.23,1.51,2.13,2.52,2.97,6.71,5.64,13.47,11.29,21,15.78,7.53,4.48,15.94,7.78,24.7,8.27,4.17.23,8.64-.28,11.9-2.88,1.41-1.12,2.47-2.74,3.01-4.47-22.79,3.76-47.77-5.65-62.76-23.67Z"/><path class="cls-15" d="m515.82,260.47c-.62,2.08.13,4.51,1.82,5.88,0-2.08-.64-4.16-1.82-5.88Z"/><path class="cls-16" d="m516.19,401.46c-2.04,0-3.7,1.66-3.7,3.7s1.66,3.7,3.7,3.7,3.7-1.66,3.7-3.7-1.66-3.7-3.7-3.7Z"/><path class="cls-16" d="m584.99,401.66v-.68h.04s0-.87,0-.87c0-.84-.64-1.53-1.48-1.6-4.36-.35-17.21-1.42-22.15-2-5.99-.71-8.46-3.88-8.46-3.88h-.78v-20.48h-.78v-29.37h-2.95v29.37h-.78v20.48h-.78s-2.47,3.17-8.46,3.88c-4.94.58-17.79,1.64-22.15,2-.83.07-1.48.76-1.48,1.6v.87l.59-.05v2.62h2.37v-2.81l27.83-2.25c-.56.48-1.16.93-1.77,1.33-.51.34-1.03.68-1.4,1.17-.18.24-.31.5-.41.78h-1.82v6.87h6.1v-6.87h-1.91c.02-.18.04-.36.06-.54,2.4-.34,4.67-1.42,6.5-3l31.69,2.56v.89c-1.44.51-2.49,1.86-2.49,3.48,0,2.04,1.66,3.7,3.7,3.7s3.7-1.66,3.7-3.7c0-1.64-1.07-3.01-2.54-3.5Z"/><path class="cls-16" d="m506.65,351.05c-1.88,1.61-3.62,4.02-2.89,6.39.94,3.05,4.98,3.57,8.17,3.51,11.79-.21,23.58-.41,35.37-.62,7.77-.14,16.17-.49,22.2-5.4,4.29-3.49,6.67-8.78,8.5-14,2.63-7.48,4.45-15.26,5.06-23.17.41-5.34.21-10.93-2.24-15.7-2.44-4.76-7.63-8.45-12.93-7.71-3.7.52-6.87,3.06-8.97,6.15-2.1,3.09-3.27,6.7-4.34,10.27-2.61,8.7-5.1,18.08-11.91,24.09-9.95,8.78-25.93,7.55-36.02,16.17Z"/><path class="cls-16" d="m506.65,348.72c-1.88,1.61-3.62,4.02-2.89,6.39.94,3.05,4.98,3.57,8.17,3.51,11.79-.21,23.58-.41,35.37-.62,7.77-.14,16.17-.49,22.2-5.4,4.29-3.49,6.67-8.78,8.5-14,2.63-7.48,4.45-15.26,5.06-23.17.41-5.34.21-10.93-2.24-15.7-2.44-4.76-7.63-8.45-12.93-7.71-3.7.52-6.87,3.06-8.97,6.15-2.1,3.09-3.27,6.7-4.34,10.27-2.61,8.7-5.1,18.08-11.91,24.09-9.95,8.78-25.93,7.55-36.02,16.17Z"/><path class="cls-16" d="m573.98,301.85c2.22.66,3.66,2.92,4.03,5.21.37,2.29-.15,4.61-.69,6.86-1.3,5.38-2.82,10.7-4.54,15.96-2.08,6.35-4.63,12.86-9.61,17.31-5.32,4.75-12.64,6.48-19.7,7.46-8.32,1.16-16.75,1.52-25.14,1.27-2.48-.07-5.38-.44-6.65-2.57-.81-1.36-.68-3.14,0-4.57s1.86-2.57,3.1-3.57c6.78-5.48,15.73-7.45,23.17-12.01,6.43-3.93,11.64-9.82,14.77-16.67,1.31-2.87,2.26-5.9,3.65-8.73,1.39-2.83,3.3-5.53,6.02-7.13,2.72-1.6,6.36-1.9,8.96-.12l2.64,1.31Z"/><path class="cls-19" d="m486.59,397.56c2.1-.94,5.61-1.96,7.69-3.92,3.16-2.98,2.98-4.38,3.25-7.47.32-3.58-.48-8.09-.8-11.67-.1-1.18-.23-2.35-.35-3.52h10.17c-1.45,7.95-1.42,16.17.14,24.11.31,1.58.62,3.4-.41,4.63-.89,1.06-2.47,1.24-3.83.99-1.36-.24-2.27-.55-3.64-.32-4.38.73-8.82,2.12-12.94,1-.77-.21-2.21-.68-2.37-1.46-.21-.98,2.18-1.96,3.1-2.37Z"/><path class="cls-11" d="m506.69,395.08c-1.56-7.93-1.59-16.15-.14-24.11h-10.17c.12,1.17.25,2.35.35,3.52.13,1.43.33,3.01.51,4.62,3.83,1.44,4.82,6.2,6.5,9.56,2,5-3,8-7,9-4,1.09-8.65,2.04-13.25,2.2,0,.02,0,.04,0,.05.16.78,1.6,1.25,2.37,1.46,4.12,1.12,8.57-.28,12.94-1,1.36-.23,2.28.08,3.64.32,1.36.24,2.94.07,3.83-.99,1.03-1.23.72-3.06.41-4.63Z"/><path class="cls-8" d="m487.57,402.7c-1.42-.13-2.89-.43-4.02-1.29-.5-.38-.96-.97-.83-1.59.09-.45.46-.78.83-1.05,1.02-.74,2.2-1.28,3.43-1.57-.02.66.4,1.28.95,1.65.55.37,1.22.52,1.87.62,2.93.45,5.93-.07,8.82-.75,2.89-.69,5.75-1.55,8.71-1.81.35,1.44-.39,3.08-1.71,3.77-1.58.83-3.49.29-5.28.29-2.14,0-4.18.8-6.27,1.28-2.13.49-4.33.64-6.5.44Z"/><path class="cls-14" d="m497.04,379.36c-.04-1.62-.16-3.25-.3-4.86-.1-1.18-.23-2.35-.35-3.52h10.17c-.51,2.77-.82,5.57-.96,8.39h-8.55Z"/><path class="cls-8" d="m508.62,375.18l-11.73.54c-1.43,0-2.63-1.06-2.83-2.47-2.01-13.98-5.16-23.1-2.71-35.73.87-4.48,5.45-8.37,9.94-9.19,11.87-2.18,29.81-3.85,30.92-17.09l17.5,3.28c.41,6.07.39,20.38-5.34,28.66l-37.5,2.62c.44,11.51.69,17.09,1.75,29.38Z"/><path class="cls-7" d="m548.92,330.78c-15.44,2.33-32.09.58-47.18,5.9-3,2-7,5-6,9,1.21,10.29,1.69,20.2,2.54,29.98l10.33-.48c-1.06-12.28-1.31-17.87-1.75-29.38l37.5-2.62c2.38-3.44,3.76-7.91,4.55-12.4Z"/><path class="cls-19" d="m494.06,408.04c1.86-1.14,5.47-2.72,7.94-4,2.64-1.37,3.65-2.83,4.01-5.56.48-3.56-.57-9.94-.89-13.52-.1-1.18-.23-2.35-.35-3.52h10.17c-.31,8.39-1.42,16.17.14,24.11.31,1.58.62,3.4-.41,4.63-1.48,1.76-4.29,1.15-6.29,1.11-2.44-.04-4.89.08-7.31.37-2.24.27-4.58.79-6.81.2-.77-.21-1.59-.68-1.75-1.46-.21-.98.7-1.83,1.56-2.35Z"/><path class="cls-11" d="m515.07,405.54c-1.56-7.93-.45-15.72-.14-24.11h-3.58c1.14,10.07,2.48,20.66.57,29.94,1.06-.09,2.04-.38,2.74-1.21,1.03-1.23.72-3.06.41-4.63Z"/><path class="cls-14" d="m505.05,389.95c-.04-1.62-.31-3.49-.46-5.1-.1-1.18.29-2.24.17-3.42l10.91.09c-.51,2.77-.59,5.62-.73,8.43h-9.89Z"/><path class="cls-8" d="m491.07,410.64c.62,1.28,3.04,2.23,4.45,2.38,1.41.15,2.83-.16,4.23-.39,2.77-.45,5.59-.6,8.4-.45,1.34.07,2.68.22,4.01.05,1.33-.17,3.1-.52,3.96-1.54.86-1.03-.02-3.01-.79-4.1-2.96,2.02-6.03,2.57-9.6,2.84-2,.15-4,.35-6.01.33-1.4-.01-3.64.17-4.01-1.6-.14-.65.14-.92.55-1.36-.76-.36-1.94.88-3.34,1.55-.52.25-1.4.51-1.76.96-.33.42-.3.88-.08,1.33Z"/><path class="cls-8" d="m514.77,386.35h-9.26c-1.64,0-3.02-1.21-3.24-2.84l-3.5-26.32c-.5-3.75-1.31-8.53.52-11.85,1.2-2.19,2.54-4.41,4.59-5.84,8.57-5.94,20.72-7.51,27.45-14.03,3.31-3.21,3.52-7.38,4.84-12.92,6.36,1.34,15.58,3.12,20.7,7.25,2.01,40.11-22.97,24.61-39.2,32.33-.02,10.58.37,21.07-.07,31.51-.06,1.51-1.32,2.7-2.84,2.7Z"/><path class="cls-7" d="m535.16,315.19c-1.21-.53-2.68-.98-3.79-.26-1.67,1.08-1.22,3.94-2.83,5.11,10.06,3.59,18.89,10.55,24.73,19.5,1.57-3.31.97-7.34-.8-10.55-1.77-3.21-4.57-5.71-7.5-7.91-3.06-2.3-6.32-4.35-9.82-5.89Z"/><path class="cls-7" d="m556.88,319.81c-1.44-1.16-3.21-2.13-5.15-2.97,5.76,22.14-17.92,35.62-37.98,30.84,3,11,4,23-2,33-1.69,2.54-5.37,3.64-9.34,3.39.42,1.34,1.67,2.28,3.11,2.28h9.26c1.51,0,2.77-1.19,2.84-2.7.44-10.45.05-20.93.07-31.51,16.23-7.72,41.2,7.78,39.2-32.33Z"/><path class="cls-15" d="m528.7,317.18c.59-.88.69-3.2,1.28-4.08,5.26.39,9.93,3.5,13.8,7.09,3.86,3.59,7.2,7.75,11.36,10.99.54.42,1.11.85,1.4,1.46.67,1.39-.3,2.98-1.23,4.21-3.02-3.92-6.86-7.12-10.66-10.28-5.07-4.21-9.77-7.06-15.94-9.39Z"/><path class="cls-15" d="m534.19,296.34c-1.26-2.54-2.43-5.09-2.67-7.88-.34-4.03,1.31-7.79,3.51-11.28-.05-7.7,6.07-14.07,13.84-14.08,3.85,0,7.69.36,11.46,1.11,3.56.71,7.27,1.89,9.57,4.7,1.76,2.14,2.45,4.96,2.87,7.7,2.07,13.44-12.2,27.13-14.85,56.27-.08.85-1.04,1.3-1.72.8-8.17-6.01-18.13-19-27.32-19.98,2.27-2.8,4.21-9.42,5.3-17.36Z"/><path class="cls-15" d="m572.78,276.6c-.42-2.74-1.11-5.55-2.87-7.7-2.3-2.8-6.02-3.99-9.57-4.7-1.47-.29-2.95-.51-4.43-.69-3.44,4.4-6.42,8.9-5.54,14.16.25,5.46.49,10.98.42,16.43-3.17-.2-6.34-.41-9.51-.61-1.45-.09-2.93-.19-4.32-.63-1.39-.44-2.71-1.26-3.46-2.51-.51-.85-.94-2.02-1.93-2.09.63,3.48,2.2,6.79,4.51,9.47.19.22.4.44.68.48.75.11,1.02-1.01,1.68-1.37.52-.28,1.17-.03,1.63.34.46.37.83.85,1.35,1.12,1.21.63,2.67-.07,4.03.05,2.03.18,3.38,2.07,4.99,3.37-.64,7.63-2.24,14.98-5.74,21.64,4.04,3.71,7.95,7.66,11.51,10.29.68.5,1.65.04,1.72-.8,2.65-29.15,16.92-42.83,14.85-56.27Z"/><path class="cls-15" d="m542.41,265.44c-.57.8-.68,1.83-.71,2.81-.07,2.48.33,5.17,2.1,6.9,1.02,1,2.42,1.57,3.84,1.76,1.42.19,2.87.03,4.26-.29,3.72-.84,7.2-2.75,9.89-5.45,1.09-1.09,2.11-2.58,1.68-4.05-.37-1.27-1.67-2.01-2.89-2.53-5.1-2.17-11.08-2.82-16.15-.59-.77.34-1.53.76-2.02,1.44Z"/><path class="cls-15" d="m538.73,302.27c-.17-.32-.58-.48-.92-.36-.34.12-.56.51-.49.86.08.43.59.72,1,.58.41-.15.62-.69.42-1.08Z"/><path class="cls-15" d="m538.24,282.47c.43-.28.4-1.03-.05-1.28-.45-.25-1.1.13-1.11.64,0,.54.7.93,1.15.64Z"/><path class="cls-15" d="m546.68,287.33c.34.4,1.09.28,1.3-.2.21-.48-.23-1.1-.75-1.08-.57.03-.92.84-.55,1.27Z"/><path class="cls-15" d="m541.62,312.3c-.57.14-.76,1.01-.3,1.37.46.36,1.26-.03,1.26-.61,0-.47-.51-.87-.96-.76Z"/><path class="cls-15" d="m554.67,311.09c.18-.24.37-.48.45-.77.08-.29.02-.63-.22-.81-.38-.28-.98.08-1.02.55-.04.47.35.89.8,1.03Z"/><path class="cls-15" d="m553.62,321.37c0,.45-.36.81-.81.81s-.81-.36-.81-.81.36-.81.81-.81.81.36.81.81Z"/><circle class="cls-15" cx="548.24" cy="305.18" r=".75"/><circle class="cls-15" cx="539.12" cy="291.06" r=".75"/><path class="cls-15" d="m556.99,329.25c0,.38-.31.69-.69.69s-.69-.31-.69-.69.31-.69.69-.69.69.31.69.69Z"/><path class="cls-15" d="m545.49,320.37c0,.31-.25.56-.56.56s-.56-.25-.56-.56.25-.56.56-.56.56.25.56.56Z"/><path class="cls-15" d="m535.62,311.62c0,.52-.42.94-.94.94s-.94-.42-.94-.94.42-.94.94-.94.94.42.94.94Z"/><path class="cls-20" d="m555.84,232.5c-1.68-.56-2.83-2.53-4.59-2.45-1.68.08-2.66,1.97-4.2,2.65-1.45.64-3.36.18-4.53,1.26-1.28,1.19-.73,3.29-1.18,4.98-.41,1.52-1.63,2.65-2.62,3.87-.99,1.22-1.83,2.84-1.27,4.31.33.89,1.15,1.64,1.07,2.59-.04.42-.26.8-.38,1.2-.33,1.03-.03,2.16.34,3.18.37,1.02.05,1.91.04,3-.01,1.08-.98,1.97-.74,3.77,10.69,1.94,21.3,3.22,31.88.74-.78-.68-.76-2.5-.27-3.41.32-.59.93-1.17.72-1.82-.2-.61-1.05-.67-1.5-1.13-1.14-1.17-1.28-2.68-.76-3.15.86-.76.82-2.18.83-3.33,0-2.41-2.27-4.11-3.45-6.21-.96-1.71-1.19-3.71-1.81-5.57-.61-1.86-1.83-3.75-3.74-4.19-1.26-.28-2.61.11-3.83-.29Z"/><path class="cls-11" d="m543.08,238.89c-.72.85-1.35,1.98-1.02,3.05.21.69.8,1.26.86,1.98.14,1.63-2.34,2.44-2.45,4.07-.06.89.62,1.65.94,2.48.43,1.12.19,2.38-.21,3.51-.39,1.13-.94,2.22-1.12,3.41-.19,1.18.07,2.53,1,3.28.5.4,1.15.58,1.77.75,3.38.89,6.84,1.53,10.33,1.53,3.49,0,7.02-.66,10.12-2.26.09-.05.19-.1.24-.19.17-.29-.22-.56-.5-.75-.72-.49-.93-1.48-.83-2.34.1-.86.46-1.68.63-2.53.18-.85.14-1.83-.44-2.48-.84-.96-2.38-.79-3.52-1.37-1.38-.69-1.96-2.32-2.33-3.82s-.7-3.14-1.86-4.15c-1.27-1.11-3.31-1.25-4.26-2.65-.52-.78-.59-1.8-1.13-2.56-.71-.99-2.1-1.32-3.29-1.02-1.18.3-2.16,1.13-2.95,2.06Z"/><path class="cls-19" d="m547.67,263.38c1.66-3.78,1.94-7.41,2.34-11.52,2.85.8,5.25.92,8.19.62.6,3.91,1.2,7.83,1.8,11.74.65.26,1.24.77,1.41,1.45.2.82-.25,1.65-.71,2.35-1.64,2.49-3.78,4.76-6.51,5.94-2.74,1.18-6.13,1.11-8.49-.7-2.36-1.82-3.23-5.54-1.46-7.94.54-.73,2.63-1.55,3.44-1.94Z"/><path class="cls-11" d="m561.21,265.19c-1.95,6.06-8.21,9.84-14.47,7.49-.92,0-2.26-1.07-3.15-2.51.38,1.21,1.1,2.32,2.1,3.09,2.36,1.82,5.76,1.89,8.49.7,2.74-1.18,4.88-3.45,6.51-5.94.46-.71.91-1.53.71-2.35-.04-.17-.11-.33-.2-.48Z"/><path class="cls-11" d="m557.46,252.55c-2.61.21-4.84.05-7.45-.69-.4,4.11-.68,7.74-2.34,11.52-.8.39-2.9,1.21-3.44,1.94-.64.87-.93,1.91-.93,2.98,3.41-2.27,7.65-3.67,11.44-4.62,2.64-.88,2.18-6.41,2.72-11.13Z"/><path class="cls-19" d="m543.71,244.48c.27-.43.31-.98.27-1.55-.07-1.13.28-2.92.66-3.98l.74-2.03c4.33-2.25,9.36-1.34,13.11,1.77,1.53,1.27,2.79,3.01,3,4.98.21,1.98-.63,3.9-1.45,5.7-.92,2.02-1.87,4.1-3.5,5.62-1.53,1.43-3.56,2.25-5.62,2.65-1.44.28-2.9.37-4.37.41-1.13.03-2.15-.71-2.49-1.79-.96-3.03-1.72-6.12-1.35-9.42.1-.87.54-1.64,1-2.38Z"/><path class="cls-11" d="m561.48,243.68c-.21-1.98-1.47-3.71-3-4.98-2.86-2.37-6.46-3.46-9.93-2.85.44.22.84.5,1.18.84,2.57,1.71,2.2,6.37,5.2,8.29.96.62,1.55,1.66,1.48,2.8-.14,2.07.24,4.21,1.25,5.97.99-1.31,1.69-2.85,2.38-4.36.82-1.81,1.66-3.73,1.45-5.7Z"/><path class="cls-20" d="m564.41,254.55c.23-1.83.83-3.63.75-5.47-.06-1.36-.51-2.7-1.27-3.82-.18-.26-.38-.51-.59-.74.01-.21.03-.41.04-.62.08-1.65.02-3.36-.68-4.85-.87-1.83-2.62-3.11-4.47-3.94-2.49-1.11-5.61-1.68-8.32-1.37l-2.62,1.19c1.11-.28,4.43.72,5.01,1.7.51.87.49,1.96.81,2.92.39,1.16,1.31,2.13,2.45,2.58.86.34,1.92.46,2.42,1.24.48.74.2,1.71-.02,2.57-.3,1.19-.45,2.44-.25,3.65.1.63.31,1.24.62,1.8.11.72.68,1.4,1.3,1.86.81.61,1.77,1.1,2.24,1.99.54,1.03.3,2.39,1,3.32.65.87,1.87,1.05,2.96,1.12-1.37-1.23-1.6-3.31-1.37-5.13Z"/><path class="cls-20" d="m538.44,247.79c.25.29.61.52.71.89.12.46-.2.9-.4,1.33-.44.98-.18,2.23.62,2.94-.36-.95-.3-2.05.14-2.96.26-.53.65-1.06.55-1.64-.14-.77-1.08-1.16-1.36-1.89-.22-.57.02-1.21.33-1.74.31-.53.7-1.03.81-1.63-.64.65-1.29,1.31-1.64,2.14-.36.83-.36,1.88.24,2.57Z"/><path class="cls-20" d="m540.38,254.41c-.55,1.02-1.11,2.06-1.29,3.21-.18,1.14.09,2.43.97,3.18-.53-2.1-.42-4.35.31-6.39Z"/><path class="cls-20" d="m559.57,241.83c.8.19,1.24,1.11,1.23,1.93-.01.82-.35,1.6-.58,2.39-.23.79-.34,1.69.08,2.4.41.69,1.2,1.02,1.87,1.44.68.42,1.33,1.12,1.19,1.91-.1.56-.6,1.02-.59,1.59.01.43.32.79.64,1.06s.7.51.93.87c.26.41.31.93.23,1.41-.08.48-.28.93-.47,1.38.51-.36.87-.94.95-1.56.08-.62-.11-1.27-.52-1.75-.23-.27-.53-.49-.68-.81-.23-.51-.03-1.1.21-1.61.24-.51.51-1.04.41-1.59-.13-.71-.83-1.14-1.47-1.46-.64-.32-1.36-.68-1.6-1.36-.29-.8.22-1.64.39-2.47.33-1.57-.69-3.31-2.23-3.78Z"/><path class="cls-20" d="m567.07,250.8c.35-.66.91-1.29.82-2.03-.09-.72-.77-1.21-1.43-1.52.29.19.59.38.81.64.23.26.38.61.33.95-.07.5-.53.83-.87,1.19-.94.99-1.17,2.59-.55,3.8.33.64.86,1.17,1.14,1.83.38.89.27,1.92-.09,2.82-.36.89-.94,1.68-1.52,2.45.67-.56,1.34-1.12,1.84-1.83.5-.71.81-1.6.66-2.45-.18-.98-.92-1.76-1.29-2.69-.41-1.01-.35-2.2.17-3.16Z"/><path class="cls-20" d="m550.01,233.34c1.3.27,2.32,1.24,3.27,2.17-2.05-1.43-4.92-1.58-7.11-.37.71-1.34,2.35-2.11,3.84-1.8Z"/><path class="cls-20" d="m556.54,238.29c-.46-.52-.76-1.16-1.05-1.79-.29-.63-.6-1.27-1.08-1.77-.47-.51-1.15-.87-1.84-.81.64.24,1.09.82,1.41,1.42.32.6.56,1.25.93,1.82s.94,1.07,1.62,1.13Z"/><path class="cls-20" d="m556.38,235.56c.12.79.73,1.48,1.49,1.72-.01-.54-.25-1.06-.65-1.42-.4-.36-.31-.34-.84-.29Z"/><path class="cls-15" d="m573.17,315.99l-9.69,1.3c.45-8.58,0-17.2-1.35-25.68-1.03-6.41-2.53-13.18-.13-19.21.92-2.3,2.7-4.58,5.16-4.83,1.67-.17,3.33.67,4.49,1.88,1.16,1.22,1.89,2.78,2.48,4.35,3.08,8.26,2.43,14.59,1.63,23.37-.54,5.95-.45,13-2.6,18.81Z"/><path class="cls-15" d="m561.45,274.05c-1.57,5.6-.25,11.72.68,17.55,1.36,8.48,1.81,17.1,1.35,25.68l2.66-.36c1.5-14.21-.72-29.16-4.69-42.87Z"/><circle class="cls-15" cx="565.62" cy="274.06" r=".62"/><circle class="cls-15" cx="572.74" cy="279.18" r="1"/><path class="cls-15" d="m568.24,289.75c0,.45-.36.81-.81.81s-.81-.36-.81-.81.36-.81.81-.81.81.36.81.81Z"/><circle class="cls-15" cx="574.37" cy="290.06" r=".75"/><path class="cls-15" d="m572.62,301.62c0,.38-.31.69-.69.69s-.69-.31-.69-.69.31-.69.69-.69.69.31.69.69Z"/><path class="cls-19" d="m561.44,286.81c-.37.54-1.26.96-1.45,1.58-.06.19.14.3.14.5-.02,1.02.04,2.04.15,3.06-1.67,1.65-3.5,1.68-5.3,2.4l-.21-1.91c-.08-.43-.32-.98-.56-1.34-.24-.36-.61-.61-.91-.92-.67-.69-.99-1.66-1.1-2.61-.11-.96-.03-1.92-.03-2.89,0-2.81-.62-5.59-.88-8.39-.03-.36-.06-.75.12-1.07.31-.04.77.41.86.72.5,1.8.92,3.11,1.25,5.46.39-.52.17-1.12.14-1.77-.03-.65-.16-1.53-.3-2.17-.24-1.12-.47-1.96-.48-3.1,0-.26.27-.84.51-.93.34-.12.47.15.56.5-.11-.48,0-.46,0-.75,0-.3.27-.6.56-.54.9,1.09,2.04,2.95,2.33,4.33.29,1.38.32,1.89.22,3.66.33-1.38.24-2.86-.27-4.19-.24-.62-.56-1.21-.72-1.85-.17-.64-.16-1.37.23-1.91,1.56,2.3,3.18,4.81,3.11,7.59-.03,1.15-.35,2.33-.03,3.44.53-.35,1.08-.71,1.44-1.24.3-.45.44-.99.69-1.47.25-.48.68-.94,1.23-.95.14,0,.29.03.37.13.1.13.09.31.05.47-.27,1.38-1.06,2.62-1.27,4-.11.75-.07,1.56-.49,2.19Z"/><path class="cls-11" d="m552.83,289.52c.14.24.29.46.49.66.3.31.67.56.91.92.24.36.48.91.56,1.34l.21,1.91c1.8-.72,3.63-.75,5.3-2.4-.11-1.02-.18-2.04-.15-3.06,0-.19-.19-.31-.14-.49-2.32,1.08-4.67,1.29-7.16,1.12Z"/><path class="cls-19" d="m561.44,286.81c.42-.62.38-1.44.49-2.19.21-1.39,1-2.63,1.27-4,.03-.16.05-.34-.05-.47-.09-.11-.24-.14-.37-.13-.54.02-.98.47-1.23.95-.25.48-.39,1.02-.69,1.47-.35.53-.9.9-1.44,1.24-.32-1.11,0-2.29.03-3.44.07-2.78-1.55-5.29-3.11-7.59-.39.54-.4,1.27-.23,1.91.17.64.49,1.23.72,1.85.5,1.33.6,2.81.27,4.19.09-1.77.07-2.28-.22-3.66-.29-1.38-1.43-3.24-2.33-4.33-.29-.06-.57.25-.56.54,0,.3-.11.27,0,.75-.08-.35-.22-.62-.56-.5-.24.09-.52.67-.51.93.01,1.14.24,1.98.48,3.1.14.64.26,1.51.3,2.17.03.65.26,1.25-.14,1.77-.33-2.35-.75-3.66-1.25-5.46-.08-.3-.55-.76-.86-.72-.18.32-.15.71-.12,1.07.26,2.8.89,5.57.88,8.39,0,.96-.08,1.93.03,2.89.08.68.27,1.37.61,1.96,2.49.17,4.85-.04,7.16-1.12,0,0,0,0,0-.01.19-.62,1.08-1.04,1.45-1.58Z"/><path class="cls-20" d="m555.87,281.15h-.5c.04-2.6-.63-5.15-1.92-7.39l.43-.25c1.34,2.32,2.03,4.96,1.99,7.64Z"/><path class="cls-15" d="m569.09,320.28c-2.25.39-4.97-.4-6.35-2.22-1.37-1.82-2.7-4.43-3.33-6.62-1.9-6.58-3.69-13.42-5.58-20,2.46-.12,5.84-1.47,7.09-3.59,2.22,5.4,4.7,10.71,7.94,15.57,1.88,2.81,4.06,5.59,4.66,8.91.6,3.32-1.1,7.38-4.43,7.96Z"/><path class="cls-20" d="m570.75,310.82c-.01-4.4-2.12-8.54-4.18-12.01-.6-1.01-1.21-1.94-1.79-2.85-1.57-2.42-3.05-4.71-3.98-7.77l.48-.14c.9,2.99,2.37,5.25,3.92,7.64.59.91,1.2,1.85,1.8,2.87,2.1,3.53,4.24,7.74,4.25,12.27h-.5Z"/><circle class="cls-17" cx="564.87" cy="312.43" r=".75"/><circle class="cls-17" cx="566.37" cy="303.93" r=".62"/><path class="cls-17" d="m560.12,300.37c0,.31-.25.56-.56.56s-.56-.25-.56-.56.25-.56.56-.56.56.25.56.56Z"/><path class="cls-17" d="m561.37,294.5c0,.31-.25.56-.56.56s-.56-.25-.56-.56.25-.56.56-.56.56.25.56.56Z"/><path class="cls-20" d="m505.52,386.6c-1.75,0-3.25-1.31-3.48-3.05l-3.6-27.06c-.49-3.6-1.1-8.09.64-11.26,1.2-2.19,2.55-4.45,4.67-5.92,3.88-2.69,8.49-4.49,12.96-6.23,5.55-2.17,10.79-4.22,14.46-7.77l.35.36c-3.74,3.63-9.03,5.69-14.62,7.88-4.44,1.73-9.02,3.53-12.85,6.18-2.03,1.41-3.35,3.61-4.52,5.75-1.66,3.03-1.07,7.43-.59,10.96l.1.74,3.5,26.32c.2,1.49,1.48,2.62,2.99,2.62v.5Z"/><path class="cls-19" d="m264.15,210.46c.42,2.57-.27,5.31-1.84,7.32-.99,4.83-4.87,8.88-9.49,9.88-4.34-1.86-7.31-6.78-7.04-11.69s3.73-9.45,8.25-10.79c2.5-.74,5.48-.44,7.29,1.52l2.83,3.76Z"/><path class="cls-11" d="m256.92,204.82c-.98-.04-1.97.09-2.9.36-4.51,1.34-7.98,5.88-8.25,10.79s2.7,9.83,7.04,11.69c.44-.1.87-.23,1.3-.38-1.58-7.76-1.73-16.2,2.81-22.47Z"/><path class="cls-19" d="m235.83,230.86c-.49-.55-.03-1.4.41-1.99,3.56-4.77,6.12-10.02,7-15.9,3.62,1.51,7.21,2.17,11.09,2.76-1.63,6.44-2.76,13.01-3.39,19.62-4.77-1.37-9.55-2.73-14.32-4.1-.29-.08-.59-.17-.79-.4Z"/><path class="cls-5" d="m267.26,209.92c2.13-.67,3.82-2.59,4.2-4.8-1.42.78-3.13,1.01-4.7.63.45.02.91-.18,1.21-.52-1.87-.12-3.59-1.07-5.09-2.19-1.5-1.12-2.86-2.43-4.44-3.44-1.58-1.01-3.46-1.7-5.31-1.4-.23.04-.44.11-.66.17-1.07-.12-2.16-.09-3.21.18-3.58.93-6.11,4.34-6.92,7.95-.81,3.61-1.21,7.84-.24,11.41,3.64,1.73,8.98,1.6,12.84.45.54-.16,1.06-.36,1.58-.57.23-.7.31-1.46.43-2.19.14-.86.38-1.75.98-2.38.6-.63,1.65-.91,2.36-.41.47.33.69.92.72,1.49.01.26-.01.51-.05.77.76-.65,1.47-1.36,2.1-2.13,2.61.21,5.32-1.07,6.74-3.28-.82.25-1.68.34-2.53.28Z"/><path class="cls-11" d="m259.36,215.72c.13-.19.34-.3.51-.45.37-.33.54-.88.36-1.34-.18-.46-.75-.75-1.21-.57-.45.17-.67.69-.69,1.17-.02.51.15,1.01.31,1.49-.2-.16-.5-.16-.7-.01-.2.15-.28.45-.18.68.07.16.21.29.32.43s.2.33.13.49c-.04.1-.13.18-.18.27-.05.1-.04.25.07.28.07.02.13-.02.19-.06.46-.34.78-.88.86-1.45.04-.32.03-.67.21-.93Z"/><path class="cls-5" d="m214.09,408.12c-.88-.51-2.33-.68-3.34-.78-1.02-.1-1.87-.41-2.75-.92-.89-.51-1.56-1.54-1.33-2.53-2.65-.23-4.59-1.05-6.92-2.33,0,1.9-1.23,3.61-1.75,5.44-.12.43-.13.98-.09,1.49-.24,1.24-.17,2.53.24,3.73,2.17,1.24,4.75,1.75,7.23,1.43.06-.41.16-.81.29-1.2,1.33-.32,2.3-.5,3.52-.3,1.31.22,1.78.46,2.62.38.73-.08,1.11-.43,1.78-.72.67-.29,1.48-1.07,1.66-1.78.24-.99-.27-1.39-1.16-1.91Z"/><path class="cls-16" d="m206.17,405.58c-1.94-.91-3.89-1.83-5.98-2.29-.26.41-.53.84-.65,1.31s-.1,1.01.18,1.41c.28.39.75.58,1.21.7,1.8.47,3.8.04,5.25-1.12Z"/><path class="cls-6" d="m202.84,382.15c-.96,2.45-2.26,11.21-3.54,14.35-.99,2.43-1.96,3.72-.49,5.9,1.47,2.18,6.11,4.54,8.51,3.46,6.67-17.24,14.57-34,20.79-51.41,6.22-17.41,10.76-35.68,10.38-54.16-10-3.17-20-6.34-30-9.52-9.38,22.42-3.19,29.08-2.3,45.49.88,16.41,2.65,30.58-3.34,45.88Z"/><path class="cls-6" d="m238.49,300.29c-7.34-2.33-14.67-4.65-22.01-6.98-9.99,22.34-.81,47.28-2.74,70.37-1.34,14.76-4.89,28.72-10.01,42.06,1.32.43,2.63.55,3.58.12,6.67-17.24,14.57-34,20.79-51.41,6.22-17.41,10.76-35.68,10.38-54.16Z"/><path class="cls-6" d="m215.75,293.08c7.58,2.4,15.16,4.81,22.74,7.21.38,18.48-4.17,36.75-10.38,54.16-4.06,11.36-8.83,22.45-13.51,33.57.78-4.1,1.17-8.27,1.82-12.17,6.01-28.57-15.25-55.7-.66-82.77Z"/><path class="cls-5" d="m244.95,418.48c-.48-1.11-1.7-1.73-2.89-1.91-1.19-.18-2.41,0-3.62,0-4.76.05-9.41-2.41-14.11-1.67-.01,2.03-.32,4.06-.1,6.08.04.37.11.74.2,1.11.04,1.03.21,2.06.39,3.07.09.53.2,1.08.51,1.52.4.56,1.09.85,1.76,1.03,2.57.69,5.42.21,7.62-1.29.26-.18.52-.38.67-.66.1-.2.14-.42.15-.65.71-.29,1.43-.58,2.18-.79,1.72-.49,2.44-.67,4.01-1.5,1.58-.84,3.94-2.69,3.24-4.33Z"/><path class="cls-16" d="m235.76,417.66c.39-.14.83.18.92.58.09.4-.11.82-.41,1.1-.3.27-.7.43-1.09.55-1.71.54-3.53.63-5.33.61-1.08-.01-2.17-.07-3.17-.46s-1.9-1.19-2.16-2.23c-.26-1.04.3-2.3,1.33-2.6l9.91,2.46Z"/><path class="cls-6" d="m210.3,294.9l.6-6.75c9.28,4.24,19.91,8.83,30,10.37,0,22.05,2.12,40.85,1.47,61.08-.61,18.8-3.89,39.05-6.62,58.81-4.49,1.1-7.63,1.4-11.74-1.56-.22-16.7-1.2-29.68-.22-37.06.98-7.34-2.53-25.48-4.72-32.64-6.85-22.42-13.4-25.83-8.76-52.25Z"/><path class="cls-6" d="m230.74,356.68c-1.84-20.21-11.25-42.1-5.81-62.58-4.85-1.82-9.6-3.92-14.04-5.95l-.6,6.75c-4.65,26.42,1.91,29.83,8.76,52.25,2.19,7.17,5.7,25.3,4.72,32.64-.98,7.37,0,20.35.22,37.06,1.93,1.39,3.64,2.06,5.39,2.26,1.68-20.73,2.97-41.43,1.35-62.43Z"/><path class="cls-6" d="m233.41,417.85c7.46-37.23,4.89-76.11,1.42-112.58l.76-.11c2.8,37.09,5.69,75.35-1.63,112.5-.28.06-.27.14-.55.2Z"/><path class="cls-20" d="m229.08,228.92c-3.42-.61-6.79,2.01-8.09,5.24-1.3,3.23-.96,6.87-.3,10.28,1.82,9.48,5.93,18.44,11.41,26.38,2.17,3.14,4.57,6.16,7.52,8.58,7.46,6.1,17.5,7.72,27.03,9.13.94-2.05,1.87-4.11,2.81-6.16-10.77-5.77-19.66-14.98-25.06-25.94-3.76-7.64-5.82-15.98-7.85-24.24l-7.47-3.27Z"/><polygon class="cls-20" points="281.25 298.51 262.1 298.51 269.94 266.54 289.1 266.54 281.25 298.51"/><polygon class="cls-16" points="280.37 293.51 264.21 293.51 270.82 266.54 286.98 266.54 280.37 293.51"/><path class="cls-9" d="m270.82,266.54l-6.1,24.88c5.19-6.08,11.12-10.63,18.81-10.79l3.46-14.09h-16.16Z"/><path class="cls-5" d="m230.47,228.5c2.16-1.34,3.91-3.35,4.94-5.68,7.77.45,15.16,5.2,18.79,12.08-3.2-1.21-6.4-2.43-9.61-3.64-4.03-1.53-8.19-3.08-12.5-3.01l-1.63.25Z"/><path class="cls-5" d="m244.5,312.48c.28-3.17-1.04-10.11-.48-20.76.25-8.58.65-5.36.84-8.01.47-6.48,2.57-8.64,5.78-14.29,2.44-4.3,6.18-11.57,8.73-15.81,2.55-4.24,3.87-9.81,1.32-14.06-1.57-2.62-4.33-4.26-7.05-5.65-4.01-2.06-8.17-3.81-12.45-5.23-4.79-1.59-10.44-2.66-14.58.22-2.76,1.92-6.05,5.58-7.78,8.47-9.48,15.82-8.21,21.58-13.11,48.91-.4,2.25-7.73,17.78-8.84,22.71,2.38.93,4.81,1.71,7.28,2.35,1.14-6.57,2.88-12.93,5.37-18.72,0,7.4-2.1,12.53-1.67,19.56,11.74,2.35,24.22,1.82,36.64.31Z"/><path class="cls-5" d="m232.73,229.01c5.37.39,10.69,1.48,15.78,3.23-4.47-2.99-9.8-4.69-15.18-4.83-.41-.01-.85,0-1.2.21-.35.21-.56.71-.33,1.05.19.28.58.33.92.35Z"/><path class="cls-5" d="m229.95,228.05c-3.24,1.03-6.07,3.31-7.75,6.27l7.75-6.27Z"/><path class="cls-5" d="m255.68,238.1l-4.28,5.9c.53-2.44,2.12-4.64,4.28-5.9Z"/><path class="cls-5" d="m238.1,313.16c2.13-.19,4.27-.42,6.41-.68.28-3.17-1.04-10.11-.48-20.76.25-8.58.65-5.36.84-8.01.47-6.48,2.57-8.64,5.78-14.29,2.44-4.3,6.18-11.57,8.73-15.81,2.36-3.94,3.67-9.02,1.81-13.12-26.06,13.85-25.76,44.5-23.08,72.67Z"/><path class="cls-19" d="m272.64,241.71c1.5-.83,3.1-1.47,4.76-1.91-.81-1.66-1.19-3.52-1.08-5.36.06-1.05.22-2.27-.52-3.02-.42-.42-1.02-.58-1.6-.73-1.33-.33-2.66-.66-3.99-1-1.32-.33-1.71.08-2.42-1.07-.28-.45-1.48-1.83-1.82-2.24-.34-.41-1.25-2.2-2.12-1.39-.4.37.51,2.14.73,2.65.55,1.28,1.1,2.57,1.66,3.85.44,1.03.72,1.72-.1,2.47-.3.27-.98.28-1.31.5-.33.22-.23,1.39-.09,1.76.08.23.3.39.51.53l7.39,4.96Z"/><path class="cls-12" d="m278.76,239.99c-.52-.97-1.04-1.94-1.56-2.9-2.25-.07-4.52.77-6.18,2.3-.27.24-.54.55-.52.91,0,.19.1.36.18.53.67,1.3,1.34,2.6,2.02,3.9,1.93-2.02,3.72-3.09,6.46-3.64l-.41-1.09Z"/><path class="cls-5" d="m287.09,278.97c1.77-.63,2.94-2.34,3.55-4.11,1.14-3.33.66-7.02-.44-10.37-1.11-3.34-2.81-6.45-4.18-9.7-1.86-4.42-3.11-9.1-5.27-13.38-.46-.92-.98-1.94-1.92-2.36-1.19-.52-2.65.1-4.12.29-1.02.13-1.93,1.18-2.94,1.63-.67.3-1.01,1.05-.83,1.76,1.57,6.26,2.87,12.31,3.63,18.77.4,3.42.7,6.9,1.94,10.11,1.24,3.21,3.59,6.18,6.85,7.26,1.2.4,2.54.52,3.73.1Z"/><path class="cls-6" d="m271.77,240.98c-.67.3-1.01,1.05-.83,1.76,1.57,6.26,2.87,12.31,3.63,18.77.4,3.42.7,6.9,1.94,10.11,1.24,3.21,3.59,6.18,6.85,7.26.06.02.12.03.18.05-.84-13.51-4.58-26.86-9.88-39.16-.62.38-1.23.92-1.89,1.21Z"/><path class="cls-5" d="m250.2,250.23c.71-4.58,3.34-8.83,7.12-11.5.79-.56,1.72-1.07,2.67-.9.77.13,1.4.69,1.96,1.23,7.18,6.89,12.57,15.47,19.78,22.33,1.97,1.88,4.09,3.64,5.73,5.8,1.65,2.17,2.81,4.85,2.53,7.56-.28,2.71-2.32,5.33-5.02,5.65-2.08.25-4.08-.82-5.8-2.01-3.06-2.12-5.75-4.72-8.57-7.15-4.57-3.96-9.51-7.5-14.72-10.57-1.63-.96-3.34-1.92-4.45-3.46-1.42-1.97-1.61-4.59-1.24-6.98Z"/><path class="cls-7" d="m283.54,262.89c2.89,2.49,4.58,6.3,4.48,10.11.63-1.92.52-4.07-.3-5.91-.82-1.85-2.34-3.37-4.18-4.2Z"/><path class="cls-6" d="m282.74,277.68c-8.4-12.6-23.15-17.44-32.4-28.15-.05.23-.11.46-.14.7-.37,2.4-.18,5.01,1.24,6.98,1.11,1.54,2.82,2.5,4.45,3.46,5.21,3.07,10.15,6.61,14.72,10.57,2.82,2.44,5.51,5.04,8.57,7.15,1.56,1.08,3.36,2.05,5.23,2.03-.56-.89-1.12-1.79-1.66-2.74Z"/><path class="cls-2" d="m210.07,288.69c.77-18.14,5.89-36.08,14.82-51.89-9.4,15.59-14.57,33.69-14.82,51.89Z"/><path class="cls-20" d="m404.17,405.23c-1.37,2.96.71,5.6.72,8.28,2.93.16,5.17.07,8.1.23,0-.64,0-1.27,0-1.91,5.5,2.39,11.78,2.87,17.56,1.34.18-1.42-.92-2.73-2.19-3.31-1.28-.58-2.72-.63-4.11-.81-2.12-.26-4.23-.85-6.02-2.03-1.79-1.18-3.24-3-3.69-5.13-2.67.26-5.34.52-8.02.77-.7.07-1.47.17-1.92.72-.41.5-.15,1.26-.43,1.85Z"/><path class="cls-16" d="m407.14,406.56c2.12.6,4.35.77,6.53.49.34-.04.73-.13.89-.44.12-.23.08-.52.03-.78-.17-.9-.35-1.8-.52-2.69-3.03.46-6.03,1.13-8.97,2.01.34.8,1.23,1.17,2.04,1.4Z"/><path class="cls-5" d="m373.81,268.51c-.19,9.58,2.29,18.8,4.12,27.51,7.86,37.52,16.29,72.92,24.96,110.95,3.18-1.1,9.79-2.26,12.97-3.35-2.51-46.04-7.86-89.84-15.61-135.11h-26.44Z"/><path class="cls-5" d="m373.81,268.51c-.19,9.58,2.29,18.8,4.12,27.51,7.86,37.52,16.29,72.92,24.96,110.95,1.69-.58,4.34-1.18,6.93-1.78-7.05-46.82-19.97-91.77-35.13-136.68h-.88Z"/><path class="cls-5" d="m405.57,406.02c-1.4-6.83-2.71-12.68-4.02-19.14-6.33-31.26-11.55-58.11-19.48-90.53l.35-.29c7.93,32.43,13.4,59.44,19.73,90.7,1.31,6.45,2.35,12.26,3.75,19.09l-.33.17Z"/><path class="cls-5" d="m363.74,419.28c.99-.67,1.03-2.11.96-3.32-.1-1.68-.19-3.36-.29-5.05-.03-.53-.08-1.1-.42-1.5-.45-.53-1.22-.56-1.9-.56-3.25.02-6.49.05-9.74.07-1.71,4.35-3.42,8.69-5.13,13.04-.34.86-.65,1.93-.07,2.64.44.54,2.05,1.12,2.74,1.16,2.93.16,2.69.13,5.63.08.97-.02,4.32-1.43,4.85-2.27.76-1.2-.16-2.2.79-3.24.64-.7,1.8-.54,2.58-1.07Z"/><path class="cls-5" d="m354.47,413.65c.87.06,1.74.12,2.61.18,1.23.09,2.48.17,3.67-.15,1.19-.32,2.32-1.13,2.71-2.32-2.88-1.04-5.99-1.43-9.04-1.13-.58.06-1.18.14-1.68.45-.5.3-.89.88-.82,1.47.06.54.49.98.98,1.2.49.22,1.04.26,1.57.3Z"/><path class="cls-5" d="m357.52,268.51l-.34,3.34c-3.02,28.27-5.57,46.82-5.74,70.13-.17,23.31.83,46.72-1.74,69.86,5.38-.55,10.83-.31,16.14.73,3.72-43.98,11.66-81.83,18.58-122.41,1.03-6.03.51-13.83-.27-21.64h-26.62Z"/><path class="cls-5" d="m363.24,305.68c6.32-17.14,14.5-1.75,19.89-37.17h-25.61l-.34,3.34c-3.02,28.27-5.57,46.82-5.74,70.13-.17,23.31.83,46.72-1.74,69.86,1.38-.14,2.77-.23,4.17-.27-.26-30.87-1.48-76.93,9.38-105.89Z"/><path class="cls-5" d="m363.16,411.43l-.41-.19c3.23-40.18,10.13-76.04,19.49-117.53l.41.22c-9.36,41.46-16.27,77.36-19.5,117.5Z"/><path class="cls-16" d="m377.24,277.59c-.03-.9.03-1.94-.05-2.9-5.77.23-11.52.61-17.27,1.17-.5,1.61-1,3.23-1.5,4.84,6.24-1.01,12.55-1.68,18.86-2.01-.01-.37-.03-.73-.05-1.1Z"/><path class="cls-16" d="m378.4,274.64c.07.99.02,2.01.05,2.95.01.35.03.69.04,1.04.63-.03,1.26-.06,1.9-.08,0-1.33.01-2.65.03-3.98-.68.02-1.35.05-2.03.08Z"/><path class="cls-16" d="m393.16,278.58c2.45.09,4.9.22,7.34.42-.25-1.46-.51-2.92-.76-4.38-2.22-.08-4.43-.12-6.65-.14.03,1.37.02,2.74.06,4.1Z"/><path class="cls-16" d="m391.96,278.54c-.04-1.35-.04-2.71-.07-4.07-.77,0-1.55-.02-2.32-.02.31,1.32.32,2.67.3,4.04.7.01,1.4.03,2.1.05Z"/><path class="cls-6" d="m388.34,274.45c-2.23,0-4.46.03-6.7.09-.02,1.32-.04,2.65-.03,3.97,2.37-.07,4.74-.07,7.12-.04.03-1.37-.01-2.74-.39-4.02Z"/><path class="cls-4" d="m373.73,212.23c.14.35.06.74-.02,1.1-.44,1.97-.89,3.94-1.33,5.91-3.45-2.59-3.56-7.89-6.55-11,2.28,1.04,4.57,2.09,6.85,3.13.42.19.88.42,1.06.86Z"/><path class="cls-17" d="m391.26,206.72c-12.14-4.92-23.39-5.38-36.53-3.99-3.28.35-6.84,1.05-8.9,3.46-2.39,2.8-1.9,6.82-1.16,10.33,4.13,19.64,12.06,38.91,11.34,58.91,14.89-2.29,30.07-2.95,45.13-1.97-3.56-16.56-4.21-31.58-1.23-48.23.69-3.87.19-9.33-2.36-12.45-1.38-1.7-4.19-5.19-6.28-6.04Z"/><path class="cls-19" d="m375.56,189.98c-3.84.68-9.9,1.02-13.74.33,1.08,5.43,1.68,7.81-.19,13.01,24.14,6.28,17.47,4.91,17.92,3.38-3.33-4.85-3.35-10.88-3.98-16.72Z"/><path class="cls-11" d="m379.54,206.7c-3.33-4.85-3.35-10.88-3.98-16.72-3.37.6-8.45.93-12.24.54.85,4.79,2.16,9.51,3.65,14.2,17.73,4.65,12.16,3.38,12.57,1.98Z"/><path class="cls-4" d="m377.37,202.14c-1.21-3.83-1.36-8.04-1.81-12.17-3.29.58-8.2.91-11.96.57.61,7.32,6.97,11.04,13.77,11.6Z"/><path class="cls-19" d="m371.82,173.88c-2.07-.92-4.41-.97-6.59-.36-2.42.68-5.42,1.45-7.05,3.62-1.57,2.09-1.49,5.02-.66,7.49,1.56,4.62,4.92,8.59,9.39,10.53,4.58,1.99,7.78,1.81,11.56,1.12,1.19-.21,2.01-1.29,1.91-2.49-.26-2.87-.39-5.61-1.38-8.22-.33-.87-1.2-1.52-1.46-2.35-.28-.89.12-1.7-.21-2.6-1.14-3.06-2.62-5.46-5.5-6.75Z"/><path class="cls-11" d="m369.74,196.16c3.18.88,5.79.66,8.74.13,1.19-.21,2.01-1.29,1.91-2.49-.04-.45-.08-.9-.12-1.34-3.14,3.27-6.76,4.11-10.53,3.7Z"/><path class="cls-11" d="m364.74,180.68c3.62-.17,4.62-.25,7.62-1.25,1.79-.25,2.91-.94,3.58-1.75-.99-1.66-2.27-2.98-4.17-3.82-2.64-1.17-5.72-.65-8.48.21-1.93.61-3.91,1.44-5.12,3.06-1.57,2.09-1.49,5.02-.66,7.49,1.3,3.83,3.84,7.2,7.22,9.35.04-4.44-2.51-9.01,0-13.3Z"/><path class="cls-5" d="m378,167.5c-.61,1.27-1.67,2.32-2.94,2.93.5-.55.8-1.27.82-2.01-1.22,1.69-3.3,2.55-5.35,2.91-2.05.36-4.15.3-6.22.58-2.06.27-4.18.94-5.61,2.45-1.59,1.68-3.86,3.97-3.11,6.53-.88,1.19-1.33,2.67-1.03,4.1.39,1.85,1.89,3.25,3.44,4.34,1.55,1.08,3.26,2,4.48,3.45.42-1.31.56-2.69.6-4.09.56.43,1.08.9,1.6,1.37.37.07.72-.29.77-.66.05-.38-.39-1.71-.58-2.04-.51-.87-.92-.66-1.42-1.53-.14-.25-.27-.52-.37-.8,0-1.77.07-3.51.57-5.13.17-.02.34-.05.52-.07,2.76-.27,5.59-.31,8.17-1.32,2.58-1.01,4.91-3.28,5-6.05-.45.39-.89.79-1.34,1.18,1.23-1.8,1.94-3.96,2.01-6.14Z"/><path class="cls-5" d="m365.65,189.8c-.08-.62-3.11-2.44-3.7-2.24-.59.19-.97.8-1.04,1.42-.07.62.12,1.23.37,1.8.34.78.81,1.5,1.37,2.13.42.48.93.92,1.54,1.08.62.16,1.36-.03,1.68-.59l-.22-3.6Z"/><path class="cls-4" d="m399.9,225.22c.69-3.87.19-9.33-2.36-12.45-1.38-1.7-4.19-5.19-6.28-6.04-2.22-.9-4.41-1.65-6.58-2.26,8.12,21.94,6.25,45.48,7.13,68.6,3.11.06,6.22.19,9.33.39-3.56-16.56-4.21-31.58-1.23-48.23Z"/><path class="cls-4" d="m386.15,273.33c-.08,0-.16-.04-.2-.12-.06-.11-.02-.25.09-.31l3.59-2.01c-.27-.33-.72-.53-1.14-.5-.13.01-.23-.08-.25-.2-.01-.12.07-.24.19-.26.99-.15,1.61-1.23,1.69-2.17.08-.94-.21-1.89-.49-2.81l-.09-.3c-1.71-5.74-1.87-11.81-2.01-17.67-.11-4.2-.62-9.03-1.11-13.69-.49-4.67-1.01-9.51-1.11-13.73,0-.13.1-.23.22-.24h0c.12,0,.23.1.23.23.11,4.2.62,9.03,1.11,13.69.49,4.67,1.01,9.51,1.11,13.73.15,5.83.3,11.86,2,17.55l.09.3c.29.96.59,1.96.5,2.99-.08.86-.52,1.8-1.28,2.28.36.16.67.43.86.77.06.11.02.25-.09.31l-3.81,2.13s-.07.03-.11.03Z"/><path class="cls-6" d="m384.36,211.94c-.69,1.06-.61,3.32-1.73,3.9,2.55,14.67,2.81,27.04.26,41.71,2.88,2.28,5.12,3.33,7.05,4.7.23-3.87,1.61-4.17,1.59-6.07-.02-1.74-.52-4.13-.99-7.96-1.44-11.92-2.66-24.8-6.19-36.28Z"/><path class="cls-15" d="m358.59,200.59c-.55.04-1.21,1.77-1.77,1.82-1.09.1-.98.23-2.1.36-3.28.37-6.84,1.13-8.9,3.7-2.39,3-1.58,7.25-1.16,11.07,2.88,26.54,15.21,36.91,8.89,77.5,4.98-.82,11.53-2.27,17.44-3.17,3.72-.57,6.39-3.85,6.18-7.61-1.1-19.41-1.78-46.73-4.17-64.26-1.07-8.05-7.66-15.36-14.41-19.41Z"/><path class="cls-15" d="m357.31,276.74c5.38-.77,10.31-4.18,12.93-8.93-4.06,3.32-8.5,6.13-12.93,8.93Z"/><path class="cls-15" d="m344.31,214.37c.1,1.07.24,2.14.35,3.18.61,5.63,1.65,10.54,2.84,15.16,5.34,12.34,16.01,21.62,28.48,27.06-.37-7.8-.79-15.74-1.34-23.12-13.04-4.2-24.93-10.42-30.34-22.27Z"/><path class="cls-15" d="m375.43,289.51c-.12,0-.23-.1-.23-.22-.83-19.7-3.99-39.3-9.4-58.26-.02-.06,0-.13.03-.19.03-.06.09-.09.15-.11,1.6-.3,3.15-.9,4.52-1.77l-4.29-.55c-.06,0-.12-.04-.16-.1s-.05-.12-.04-.18c2.02-9.52-1.84-19.77-9.61-25.5-.1-.08-.12-.22-.05-.32.08-.1.22-.12.32-.05,7.84,5.78,11.78,16.09,9.84,25.72l4.66.6c.09.01.17.08.19.17.02.09-.01.19-.09.24-1.48,1.04-3.19,1.77-4.96,2.13,5.38,18.92,8.52,38.48,9.35,58.13,0,.13-.09.24-.22.24h0Z"/><path class="cls-15" d="m353.8,294.7c-.08,0-.16-.04-.2-.12-.06-.11-.02-.25.1-.31,2.95-1.57,6.35-1.88,9.65-2.19.5-.05.99-.09,1.49-.14,3.59-.36,7.62-1.1,10.31-3.78.09-.09.24-.09.33,0,.09.09.09.24,0,.33-2.79,2.79-6.92,3.54-10.59,3.91-.5.05-.99.1-1.49.14-3.25.3-6.61.61-9.47,2.13-.03.02-.07.03-.11.03Z"/><path class="cls-6" d="m357.43,275.98c-.08,0-.15-.04-.2-.11-.07-.11-.03-.25.08-.32,4.33-2.67,8.62-5.53,12.75-8.5.1-.07.25-.05.32.05.07.1.05.25-.05.32-4.14,2.97-8.44,5.84-12.78,8.51-.04.02-.08.03-.12.03Z"/><path class="cls-15" d="m392.94,207.71c6.5,5.54,6.15,9.94,9.5,17.8,2.19,5.13,4.59,12.46,5.26,18,.57,4.68-.56,10.53-1.42,15.17-1.85,10.06-1.82,18.89-4.65,28.72-2.77-3.34-5.72-5.58-6.09-9.9-.15-1.75.13-3.5.43-5.22,1.06-5.99,2.47-12.01,2.04-18.08-.42-6.01-2.62-11.72-4.06-17.57-2.09-8.47-2.62-17.24-3.13-25.95l2.11-2.96Z"/><path class="cls-6" d="m391.48,220.4c.46,5.47,1.16,10.9,2.47,16.22,1.45,5.84,3.64,11.56,4.06,17.57.43,6.07-.98,12.09-2.04,18.08-.3,1.72-.58,3.48-.43,5.22.38,4.32,3.32,6.56,6.09,9.9.2-.7.38-1.39.56-2.08.46-22.68,1.33-45.29-10.71-64.91Z"/><path class="cls-15" d="m382.61,240.9c.82-4.95-.83-6.3-3.89-10.27-3.06-3.97-5.91-3.72-9.93-6.71-5.1-3.81-10.22-13.07-15.32-16.87-1.22-.91-2.49-1.84-3.97-2.17-2.92-.64-5.96,1.35-7.27,4.04-1.32,2.68-1.22,5.86-.62,8.78,1.38,6.73,5.25,12.77,10.12,17.62,4.87,4.85,10.72,8.6,16.71,11.97,3.35,1.88,7.35,3.7,10.88,2.18,2.71-1.16,2.82-5.65,3.3-8.56Z"/><path class="cls-15" d="m343.78,219.85c-.9-4.66.75-9.72,4.2-12.97-1.06-.58-2.37.19-3.19,1.07-1.46,1.57-2.37,3.64-2.55,5.77s.37,4.33,1.54,6.12Z"/><path class="cls-15" d="m351.07,209.43c.29-.52-.08-1.28-.67-1.38-.51-.09-1.04.32-1.09.84s.4,1.02.91,1.03c.34,0,.68-.19.85-.49Z"/><path class="cls-15" d="m367.89,224.23c-1.92,3.44-2.54,7.58-1.71,11.43s3.1,7.37,6.26,9.72c-2.37-5.94-2.47-12.75-.28-18.75-1.42-.8-2.85-1.6-4.27-2.4Z"/><path class="cls-19" d="m377.87,194.46c.89-.43,1.89-.56,2.86-.68,1.32-.17,2.67-.33,3.96-.03,1.41.33,2.34,1.22,3.58,1.66.52.18.8.73.63,1.25-.19.58-.36,1.12-.59,1.78-.13.39.04,1.09-.35,1.2-.41.12-.84-.21-.99-.61-.15-.4-.09-.85-.03-1.27-.93.93-2.04,1.69-3.24,2.22-.26,1.33-.28,2.71-.06,4.06-2.13-.21-4.26-.51-6.36-.91-.52-.1-1.1-.25-1.36-.71-.15-.26-.15-.58-.16-.88-.02-1.62.43-2.94.41-4.56.44-.97.74-2.06,1.7-2.52Z"/><path class="cls-11" d="m375.99,199.14c-.11.78-.24,1.55-.22,2.41,0,.3.01.61.16.88.26.46.84.61,1.36.71,2.11.4,4.23.7,6.36.91-.15-.92-.18-1.86-.1-2.79-2.52-.41-5.03-1.12-7.55-2.12Z"/><path class="cls-15" d="m378.24,250.5c2.04-.5,3.57-2.3,4.3-4.27s.81-4.12.88-6.22c.39-11.8,1.33-25.31,1.72-37.11-2.59-.81-8.65-1.13-11.24-1.94-1.36,13.18-6.18,26.88-4.36,40.06.33,2.4.91,4.86,2.37,6.8,1.46,1.94,3.97,3.25,6.33,2.67Z"/><path class="cls-9" d="m373.76,208.83c-1.59,6-3.18,12.01-3.98,18.16-.8,6.15-.79,12.48.8,18.47-.62-12.28.46-24.64,3.18-36.63Z"/><path class="cls-4" d="m384.88,206.78c-3.89,0-7.71-.67-11.36-2.01-.12-.04-.18-.18-.14-.3.04-.12.18-.18.3-.14,3.6,1.31,7.37,1.98,11.21,1.98.06,0,.13,0,.17,0,.13,0,.23.1.23.23,0,.13-.1.23-.23.23-.06,0-.11,0-.17,0Z"/><path class="cls-15" d="m400.87,290.3c1.04.16,2.06.31,3.05.38-3.56-17.74-7-45.96-4.02-63.81.69-4.15.84-10.2-1.71-13.55-1.38-1.82-4.43-5.77-6.53-6.68-2.11-.92-5.08-1.78-7.15-2.42,1.8,2.78,3.96,6.3,4.39,9.31,3.49,19.21,3.46,49.42,5.84,70.37.37,3.27,2.87,5.88,6.12,6.4Z"/><path class="cls-15" d="m397.42,288.09c-.12,0-.22-.09-.23-.21-1.46-14.79-2.17-40-.91-54.22l-3.18.52c-.11.02-.21-.04-.25-.14-.04-.1,0-.21.08-.28l3.9-2.73c-1.87-8.91-5.12-17.42-9.66-25.31-.06-.11-.03-.25.08-.32.11-.06.25-.03.32.09,4.59,7.97,7.87,16.59,9.74,25.59.02.09-.02.18-.09.24l-3.2,2.24,2.47-.4c.07-.01.14.01.19.06.05.05.08.12.07.19-1.29,14.13-.59,39.55.88,54.43.01.13-.08.24-.21.25,0,0-.02,0-.02,0Z"/><path class="cls-15" d="m403.06,289.87c-2.21,0-4.4-.71-6.19-2.01-.1-.08-.13-.22-.05-.32.08-.1.22-.13.32-.05,1.83,1.33,4.07,2.01,6.34,1.91.14,0,.23.09.24.22,0,.13-.09.23-.22.24-.15,0-.29,0-.44,0Z"/><path class="cls-15" d="m400.26,272.1c-.05,0-.1-.02-.15-.05l-2.09-1.71c-.1-.08-.11-.23-.03-.32.08-.1.23-.11.32-.03l2.09,1.71c.1.08.11.23.03.32-.05.06-.11.08-.18.08Z"/><path class="cls-11" d="m361.8,188.75c.75.21,1.44.62,1.98,1.18.07.08.15.16.17.27.03.21-.15.37-.25.56-.18.35,0,.84.38.97.19.07.47.12.47.32,0,.11-.11.19-.2.27-.26.24-.35.64-.23.97-.42-.27-.85-.55-1.12-.96s-.37-.99-.08-1.4c.04-.06.09-.13.05-.19-.03-.04-.08-.05-.13-.05-.43-.04-.84-.3-1.04-.69-.2-.38-.2-.87.01-1.25Z"/></svg>