<?xml version="1.0" encoding="UTF-8"?><svg id="Chart_1" xmlns="http://www.w3.org/2000/svg" viewBox="0 0 432.85 380.33"><defs><style>.cls-1,.cls-2,.cls-3,.cls-4,.cls-5,.cls-6,.cls-7,.cls-8,.cls-9,.cls-10,.cls-11,.cls-12,.cls-13,.cls-14,.cls-15,.cls-16,.cls-17,.cls-18,.cls-19,.cls-20,.cls-21,.cls-22,.cls-23,.cls-24,.cls-25,.cls-26,.cls-27,.cls-28,.cls-29,.cls-30,.cls-31,.cls-32,.cls-33,.cls-34,.cls-35,.cls-36,.cls-37,.cls-38,.cls-39,.cls-40,.cls-41,.cls-42{stroke-width:0px;}.cls-1,.cls-14,.cls-15,.cls-43,.cls-21,.cls-25,.cls-26{opacity:.3;}.cls-2,.cls-3,.cls-6,.cls-7,.cls-12,.cls-13,.cls-14,.cls-18,.cls-19,.cls-24,.cls-26,.cls-36{fill:#fff;}.cls-2,.cls-44,.cls-13{opacity:.1;}.cls-2,.cls-9,.cls-14,.cls-15,.cls-16,.cls-19,.cls-21,.cls-45,.cls-46,.cls-41{isolation:isolate;}.cls-3{opacity:.7;}.cls-4{opacity:0;}.cls-5,.cls-6,.cls-9,.cls-16,.cls-47,.cls-45,.cls-42{opacity:.2;}.cls-5,.cls-9,.cls-10,.cls-17,.cls-23,.cls-25,.cls-28,.cls-41{fill:#43688c;}.cls-7{opacity:.8;}.cls-8,.cls-17,.cls-18,.cls-46,.cls-41{opacity:.5;}.cls-10,.cls-11,.cls-12,.cls-19,.cls-20{opacity:.4;}.cls-11,.cls-15,.cls-34{fill:#64a2d0;}.cls-23,.cls-24{opacity:.6;}.cls-27{fill:#263238;}.cls-29{fill:#407bff;}.cls-30{fill:#e0e0e0;}.cls-31{fill:#de5753;}.cls-32{fill:#b55b52;}.cls-33{fill:#a02724;}.cls-35{fill:#e4897b;}.cls-37{fill:#fafafa;}.cls-38{fill:#ebebeb;}.cls-39{fill:#f0f0f0;}.cls-40{fill:#f5f5f5;}</style></defs><rect class="cls-38" x="383.62" y="347.18" width="33.12" height=".25"/><rect class="cls-38" x="289.37" y="349.89" width="8.69" height=".25"/><rect class="cls-38" x="363.43" y="337.9" width="19.19" height=".25"/><rect class="cls-38" x="19.3" y="339.58" width="43.19" height=".25"/><rect class="cls-38" x="71.4" y="339.58" width="6.33" height=".25"/><rect class="cls-38" x="98.32" y="343.8" width="93.68" height=".25"/><path class="cls-38" d="m203.86,286.49H10.76c-3.15,0-5.71-2.56-5.71-5.71V9.35c0-3.15,2.56-5.71,5.71-5.71h193.1c3.15,0,5.71,2.56,5.71,5.71v271.43c0,3.15-2.56,5.71-5.71,5.71ZM10.76,3.89c-3.01,0-5.46,2.45-5.46,5.46v271.43c0,3.01,2.45,5.46,5.46,5.46h193.1c3.01,0,5.46-2.45,5.46-5.46V9.35c0-3.01-2.45-5.46-5.46-5.46H10.76Z"/><path class="cls-38" d="m420.15,286.49h-193.1c-3.15,0-5.71-2.56-5.71-5.71V9.35c0-3.15,2.56-5.71,5.71-5.71h193.1c3.15,0,5.71,2.56,5.71,5.71v271.43c0,3.15-2.56,5.71-5.71,5.71ZM227.06,3.89c-3.01,0-5.46,2.45-5.46,5.46v271.43c0,3.01,2.45,5.46,5.46,5.46h193.1c3.01,0,5.46-2.45,5.46-5.46V9.35c0-3.01-2.45-5.46-5.46-5.46h-193.1Z"/><rect class="cls-38" x="212.66" y="69.4" width="169.52" height="189.92"/><rect class="cls-37" x="212.66" y="72.46" width="166.19" height="183.49"/><polygon class="cls-39" points="372.71 169.85 372.71 156.96 369.03 156.96 369.03 148.37 364.11 148.37 364.11 135.48 362.89 135.48 362.89 148.37 357.97 148.37 357.97 156.96 354.29 156.96 354.29 169.85 347.54 169.85 347.54 173.54 344.47 173.54 344.47 187.66 343.86 187.66 343.86 167.4 342.01 167.4 342.01 180.29 340.17 180.29 340.17 149.6 338.94 149.6 338.94 162.49 334.03 162.49 334.03 158.19 332.19 158.19 332.19 140.39 328.51 140.39 328.51 122.58 327.28 122.58 327.28 125.04 302.11 125.04 302.11 117.67 297.81 117.67 297.81 89.43 295.97 89.43 295.97 117.67 289.83 117.67 289.83 125.04 287.38 125.04 287.38 161.87 274.48 161.87 274.48 150.82 278.78 150.82 278.78 148.98 274.48 148.98 274.48 145.91 262.21 145.91 262.21 117.67 259.14 117.67 259.14 113.37 244.4 113.37 244.4 117.67 242.56 117.67 242.56 156.96 235.81 156.96 235.81 174.77 232.12 174.77 232.12 160.65 229.05 160.65 229.05 156.96 222.3 156.96 222.3 144.07 218.62 144.07 218.62 135.48 214.32 135.48 214.32 122.58 212.66 122.58 212.66 255.95 378.85 255.95 378.85 169.85 372.71 169.85"/><rect class="cls-37" x="311.51" y="126.96" width="1.74" height="1.74"/><rect class="cls-37" x="311.51" y="129.88" width="1.74" height="1.74"/><rect class="cls-37" x="311.51" y="141.54" width="1.74" height="1.74"/><rect class="cls-37" x="311.51" y="144.46" width="1.74" height="1.74"/><rect class="cls-37" x="311.51" y="147.38" width="1.74" height="1.74"/><rect class="cls-37" x="311.51" y="156.12" width="1.74" height="1.74"/><rect class="cls-37" x="311.51" y="159.04" width="1.74" height="1.74"/><rect class="cls-37" x="308.75" y="138.63" width="1.74" height="1.74"/><rect class="cls-37" x="308.75" y="141.54" width="1.74" height="1.74"/><rect class="cls-37" x="308.75" y="144.46" width="1.74" height="1.74"/><rect class="cls-37" x="308.75" y="147.38" width="1.74" height="1.74"/><rect class="cls-37" x="308.75" y="150.29" width="1.74" height="1.74"/><rect class="cls-37" x="308.75" y="156.12" width="1.74" height="1.74"/><rect class="cls-37" x="308.75" y="159.04" width="1.74" height="1.74"/><rect class="cls-37" x="305.98" y="126.96" width="1.74" height="1.74"/><rect class="cls-37" x="305.98" y="129.88" width="1.74" height="1.74"/><rect class="cls-37" x="305.98" y="132.8" width="1.74" height="1.74"/><rect class="cls-37" x="305.98" y="135.71" width="1.74" height="1.74"/><rect class="cls-37" x="305.98" y="138.63" width="1.74" height="1.74"/><rect class="cls-37" x="305.98" y="141.54" width="1.74" height="1.74"/><rect class="cls-37" x="305.98" y="144.46" width="1.74" height="1.74"/><rect class="cls-37" x="305.98" y="147.38" width="1.74" height="1.74"/><rect class="cls-37" x="305.98" y="150.29" width="1.74" height="1.74"/><rect class="cls-37" x="305.98" y="153.21" width="1.74" height="1.74"/><rect class="cls-37" x="305.98" y="159.04" width="1.74" height="1.74"/><rect class="cls-37" x="303.22" y="126.96" width="1.74" height="1.74"/><rect class="cls-37" x="303.22" y="129.88" width="1.74" height="1.74"/><rect class="cls-37" x="303.22" y="132.8" width="1.74" height="1.74"/><rect class="cls-37" x="303.22" y="135.71" width="1.74" height="1.74"/><rect class="cls-37" x="303.22" y="138.63" width="1.74" height="1.74"/><rect class="cls-37" x="303.22" y="141.54" width="1.74" height="1.74"/><rect class="cls-37" x="303.22" y="144.46" width="1.74" height="1.74"/><rect class="cls-37" x="303.22" y="170.7" width="1.74" height="1.74"/><rect class="cls-37" x="300.46" y="126.96" width="1.74" height="1.74"/><rect class="cls-37" x="300.46" y="129.88" width="1.74" height="1.74"/><rect class="cls-37" x="300.46" y="132.8" width="1.74" height="1.74"/><rect class="cls-37" x="300.46" y="135.71" width="1.74" height="1.74"/><rect class="cls-37" x="300.46" y="138.63" width="1.74" height="1.74"/><rect class="cls-37" x="300.46" y="141.54" width="1.74" height="1.74"/><rect class="cls-37" x="300.46" y="144.46" width="1.74" height="1.74"/><rect class="cls-37" x="300.46" y="147.38" width="1.74" height="1.74"/><rect class="cls-37" x="300.46" y="164.87" width="1.74" height="1.74"/><rect class="cls-37" x="300.46" y="167.79" width="1.74" height="1.74"/><rect class="cls-37" x="300.46" y="170.7" width="1.74" height="1.74"/><rect class="cls-37" x="300.46" y="173.62" width="1.74" height="1.74"/><rect class="cls-37" x="300.46" y="185.29" width="1.74" height="1.74"/><rect class="cls-37" x="297.7" y="126.96" width="1.74" height="1.74"/><rect class="cls-37" x="297.7" y="129.88" width="1.74" height="1.74"/><rect class="cls-37" x="297.7" y="132.8" width="1.74" height="1.74"/><rect class="cls-37" x="297.7" y="135.71" width="1.74" height="1.74"/><rect class="cls-37" x="297.7" y="138.63" width="1.74" height="1.74"/><rect class="cls-37" x="297.7" y="141.54" width="1.74" height="1.74"/><rect class="cls-37" x="297.7" y="144.46" width="1.74" height="1.74"/><rect class="cls-37" x="297.7" y="147.38" width="1.74" height="1.74"/><rect class="cls-37" x="297.7" y="150.29" width="1.74" height="1.74"/><rect class="cls-37" x="297.7" y="153.21" width="1.74" height="1.74"/><rect class="cls-37" x="297.7" y="161.96" width="1.74" height="1.74"/><rect class="cls-37" x="297.7" y="164.87" width="1.74" height="1.74"/><rect class="cls-37" x="297.7" y="167.79" width="1.74" height="1.74"/><rect class="cls-37" x="297.7" y="170.7" width="1.74" height="1.74"/><rect class="cls-37" x="297.7" y="173.62" width="1.74" height="1.74"/><rect class="cls-37" x="297.7" y="185.29" width="1.74" height="1.74"/><rect class="cls-37" x="294.93" y="126.96" width="1.74" height="1.74"/><rect class="cls-37" x="294.93" y="129.88" width="1.74" height="1.74"/><rect class="cls-37" x="294.93" y="132.8" width="1.74" height="1.74"/><rect class="cls-37" x="294.93" y="135.71" width="1.74" height="1.74"/><rect class="cls-37" x="294.93" y="138.63" width="1.74" height="1.74"/><rect class="cls-37" x="294.93" y="141.54" width="1.74" height="1.74"/><rect class="cls-37" x="294.93" y="144.46" width="1.74" height="1.74"/><rect class="cls-37" x="294.93" y="147.38" width="1.74" height="1.74"/><rect class="cls-37" x="294.93" y="150.29" width="1.74" height="1.74"/><rect class="cls-37" x="294.93" y="153.21" width="1.74" height="1.74"/><rect class="cls-37" x="294.93" y="156.12" width="1.74" height="1.74"/><rect class="cls-37" x="294.93" y="159.04" width="1.74" height="1.74"/><rect class="cls-37" x="294.93" y="161.96" width="1.74" height="1.74"/><rect class="cls-37" x="294.93" y="164.87" width="1.74" height="1.74"/><rect class="cls-37" x="294.93" y="167.79" width="1.74" height="1.74"/><rect class="cls-37" x="294.93" y="170.7" width="1.74" height="1.74"/><rect class="cls-37" x="294.93" y="173.62" width="1.74" height="1.74"/><rect class="cls-37" x="294.93" y="176.54" width="1.74" height="1.74"/><rect class="cls-37" x="292.17" y="126.96" width="1.74" height="1.74"/><rect class="cls-37" x="292.17" y="129.88" width="1.74" height="1.74"/><rect class="cls-37" x="292.17" y="132.8" width="1.74" height="1.74"/><rect class="cls-37" x="292.17" y="135.71" width="1.74" height="1.74"/><rect class="cls-37" x="292.17" y="138.63" width="1.74" height="1.74"/><rect class="cls-37" x="292.17" y="141.54" width="1.74" height="1.74"/><rect class="cls-37" x="292.17" y="144.46" width="1.74" height="1.74"/><rect class="cls-37" x="292.17" y="147.38" width="1.74" height="1.74"/><rect class="cls-37" x="292.17" y="150.29" width="1.74" height="1.74"/><rect class="cls-37" x="292.17" y="153.21" width="1.74" height="1.74"/><rect class="cls-37" x="292.17" y="161.96" width="1.74" height="1.74"/><rect class="cls-37" x="292.17" y="164.87" width="1.74" height="1.74"/><rect class="cls-37" x="292.17" y="167.79" width="1.74" height="1.74"/><rect class="cls-37" x="292.17" y="170.7" width="1.74" height="1.74"/><rect class="cls-37" x="289.41" y="126.96" width="1.74" height="1.74"/><rect class="cls-37" x="289.41" y="129.88" width="1.74" height="1.74"/><rect class="cls-37" x="289.41" y="132.8" width="1.74" height="1.74"/><rect class="cls-37" x="289.41" y="135.71" width="1.74" height="1.74"/><rect class="cls-37" x="289.41" y="138.63" width="1.74" height="1.74"/><rect class="cls-37" x="289.41" y="141.54" width="1.74" height="1.74"/><rect class="cls-37" x="289.41" y="144.46" width="1.74" height="1.74"/><rect class="cls-37" x="289.41" y="147.38" width="1.74" height="1.74"/><rect class="cls-37" x="289.41" y="150.29" width="1.74" height="1.74"/><rect class="cls-37" x="289.41" y="153.21" width="1.74" height="1.74"/><rect class="cls-37" x="289.41" y="161.96" width="1.74" height="1.74"/><rect class="cls-37" x="289.41" y="164.87" width="1.74" height="1.74"/><rect class="cls-37" x="289.41" y="167.79" width="1.74" height="1.74"/><rect class="cls-37" x="258.3" y="119.39" width="1.74" height="1.74"/><rect class="cls-37" x="258.3" y="122.31" width="1.74" height="1.74"/><rect class="cls-37" x="258.3" y="125.22" width="1.74" height="1.74"/><rect class="cls-37" x="258.3" y="128.14" width="1.74" height="1.74"/><rect class="cls-37" x="258.3" y="131.06" width="1.74" height="1.74"/><rect class="cls-37" x="258.3" y="133.97" width="1.74" height="1.74"/><rect class="cls-37" x="258.3" y="136.89" width="1.74" height="1.74"/><rect class="cls-37" x="258.3" y="139.8" width="1.74" height="1.74"/><rect class="cls-37" x="258.3" y="148.55" width="1.74" height="1.74"/><rect class="cls-37" x="258.3" y="151.47" width="1.74" height="1.74"/><rect class="cls-37" x="255.54" y="119.39" width="1.74" height="1.74"/><rect class="cls-37" x="255.54" y="122.31" width="1.74" height="1.74"/><rect class="cls-37" x="255.54" y="125.22" width="1.74" height="1.74"/><rect class="cls-37" x="255.54" y="128.14" width="1.74" height="1.74"/><rect class="cls-37" x="255.54" y="131.06" width="1.74" height="1.74"/><rect class="cls-37" x="255.54" y="133.97" width="1.74" height="1.74"/><rect class="cls-37" x="255.54" y="136.89" width="1.74" height="1.74"/><rect class="cls-37" x="255.54" y="139.8" width="1.74" height="1.74"/><rect class="cls-37" x="255.54" y="151.47" width="1.74" height="1.74"/><rect class="cls-37" x="252.78" y="119.39" width="1.74" height="1.74"/><rect class="cls-37" x="252.78" y="122.31" width="1.74" height="1.74"/><rect class="cls-37" x="252.78" y="125.22" width="1.74" height="1.74"/><rect class="cls-37" x="252.78" y="128.14" width="1.74" height="1.74"/><rect class="cls-37" x="252.78" y="131.06" width="1.74" height="1.74"/><rect class="cls-37" x="252.78" y="133.97" width="1.74" height="1.74"/><rect class="cls-37" x="252.78" y="136.89" width="1.74" height="1.74"/><rect class="cls-37" x="252.78" y="139.8" width="1.74" height="1.74"/><rect class="cls-37" x="250.02" y="119.39" width="1.74" height="1.74"/><rect class="cls-37" x="250.02" y="122.31" width="1.74" height="1.74"/><rect class="cls-37" x="250.02" y="125.22" width="1.74" height="1.74"/><rect class="cls-37" x="250.02" y="128.14" width="1.74" height="1.74"/><rect class="cls-37" x="250.02" y="131.06" width="1.74" height="1.74"/><rect class="cls-37" x="250.02" y="133.97" width="1.74" height="1.74"/><rect class="cls-37" x="250.02" y="139.8" width="1.74" height="1.74"/><rect class="cls-37" x="250.02" y="142.72" width="1.74" height="1.74"/><rect class="cls-37" x="250.02" y="151.47" width="1.74" height="1.74"/><rect class="cls-37" x="250.02" y="154.38" width="1.74" height="1.74"/><rect class="cls-37" x="250.02" y="157.3" width="1.74" height="1.74"/><rect class="cls-37" x="250.02" y="160.22" width="1.74" height="1.74"/><rect class="cls-37" x="250.02" y="163.13" width="1.74" height="1.74"/><rect class="cls-37" x="250.02" y="166.05" width="1.74" height="1.74"/><rect class="cls-37" x="250.02" y="168.97" width="1.74" height="1.74"/><rect class="cls-37" x="247.25" y="119.39" width="1.74" height="1.74"/><rect class="cls-37" x="247.25" y="122.31" width="1.74" height="1.74"/><rect class="cls-37" x="247.25" y="125.22" width="1.74" height="1.74"/><rect class="cls-37" x="247.25" y="128.14" width="1.74" height="1.74"/><rect class="cls-37" x="247.25" y="131.06" width="1.74" height="1.74"/><rect class="cls-37" x="247.25" y="133.97" width="1.74" height="1.74"/><rect class="cls-37" x="247.25" y="142.72" width="1.74" height="1.74"/><rect class="cls-37" x="247.25" y="145.64" width="1.74" height="1.74"/><rect class="cls-37" x="247.25" y="148.55" width="1.74" height="1.74"/><rect class="cls-37" x="247.25" y="151.47" width="1.74" height="1.74"/><rect class="cls-37" x="247.25" y="154.38" width="1.74" height="1.74"/><rect class="cls-37" x="247.25" y="157.3" width="1.74" height="1.74"/><rect class="cls-37" x="247.25" y="160.22" width="1.74" height="1.74"/><rect class="cls-37" x="247.25" y="163.13" width="1.74" height="1.74"/><rect class="cls-37" x="247.25" y="166.05" width="1.74" height="1.74"/><rect class="cls-37" x="247.25" y="168.97" width="1.74" height="1.74"/><rect class="cls-37" x="247.25" y="171.88" width="1.74" height="1.74"/><rect class="cls-37" x="247.25" y="177.71" width="1.74" height="1.74"/><rect class="cls-37" x="244.49" y="119.39" width="1.74" height="1.74"/><rect class="cls-37" x="244.49" y="122.31" width="1.74" height="1.74"/><rect class="cls-37" x="244.49" y="125.22" width="1.74" height="1.74"/><rect class="cls-37" x="244.49" y="128.14" width="1.74" height="1.74"/><rect class="cls-37" x="244.49" y="131.06" width="1.74" height="1.74"/><rect class="cls-37" x="244.49" y="133.97" width="1.74" height="1.74"/><rect class="cls-37" x="244.49" y="142.72" width="1.74" height="1.74"/><rect class="cls-37" x="244.49" y="145.64" width="1.74" height="1.74"/><rect class="cls-37" x="244.49" y="148.55" width="1.74" height="1.74"/><rect class="cls-37" x="244.49" y="151.47" width="1.74" height="1.74"/><rect class="cls-37" x="244.49" y="160.22" width="1.74" height="1.74"/><rect class="cls-37" x="244.49" y="163.13" width="1.74" height="1.74"/><rect class="cls-37" x="244.49" y="166.05" width="1.74" height="1.74"/><rect class="cls-37" x="244.49" y="168.97" width="1.74" height="1.74"/><rect class="cls-37" x="244.49" y="171.88" width="1.74" height="1.74"/><rect class="cls-37" x="244.49" y="177.71" width="1.74" height="1.74"/><rect class="cls-37" x="244.49" y="180.63" width="1.74" height="1.74"/><rect class="cls-37" x="219.42" y="146.51" width="1.74" height="1.74"/><rect class="cls-37" x="219.42" y="149.42" width="1.74" height="1.74"/><rect class="cls-37" x="219.42" y="152.34" width="1.74" height="1.74"/><rect class="cls-37" x="219.42" y="155.25" width="1.74" height="1.74"/><rect class="cls-37" x="219.42" y="158.17" width="1.74" height="1.74"/><rect class="cls-37" x="219.42" y="161.09" width="1.74" height="1.74"/><rect class="cls-37" x="219.42" y="164" width="1.74" height="1.74"/><rect class="cls-37" x="219.42" y="172.75" width="1.74" height="1.74"/><rect class="cls-37" x="219.42" y="175.67" width="1.74" height="1.74"/><rect class="cls-37" x="219.42" y="178.58" width="1.74" height="1.74"/><rect class="cls-37" x="216.66" y="146.51" width="1.74" height="1.74"/><rect class="cls-37" x="216.66" y="149.42" width="1.74" height="1.74"/><rect class="cls-37" x="216.66" y="152.34" width="1.74" height="1.74"/><rect class="cls-37" x="216.66" y="155.25" width="1.74" height="1.74"/><rect class="cls-37" x="216.66" y="158.17" width="1.74" height="1.74"/><rect class="cls-37" x="216.66" y="161.09" width="1.74" height="1.74"/><rect class="cls-37" x="216.66" y="164" width="1.74" height="1.74"/><rect class="cls-37" x="213.14" y="146.51" width="2.5" height="1.74"/><rect class="cls-37" x="213.14" y="149.42" width="2.5" height="1.74"/><rect class="cls-37" x="213.14" y="152.34" width="2.5" height="1.74"/><rect class="cls-37" x="213.14" y="155.25" width="2.5" height="1.74"/><rect class="cls-37" x="213.14" y="158.17" width="2.5" height="1.74"/><rect class="cls-37" x="213.14" y="161.09" width="2.5" height="1.74"/><rect class="cls-37" x="213.14" y="164" width="2.5" height="1.74"/><rect class="cls-37" x="365.84" y="150.29" width="1.74" height="1.74"/><rect class="cls-37" x="365.84" y="153.21" width="1.74" height="1.74"/><rect class="cls-37" x="365.84" y="156.12" width="1.74" height="1.74"/><rect class="cls-37" x="365.84" y="159.04" width="1.74" height="1.74"/><rect class="cls-37" x="365.84" y="161.96" width="1.74" height="1.74"/><rect class="cls-37" x="365.84" y="164.87" width="1.74" height="1.74"/><rect class="cls-37" x="365.84" y="167.79" width="1.74" height="1.74"/><rect class="cls-37" x="365.84" y="170.7" width="1.74" height="1.74"/><rect class="cls-37" x="365.84" y="173.62" width="1.74" height="1.74"/><rect class="cls-37" x="365.84" y="176.54" width="1.74" height="1.74"/><rect class="cls-37" x="365.84" y="179.45" width="1.74" height="1.74"/><rect class="cls-37" x="365.84" y="182.37" width="1.74" height="1.74"/><rect class="cls-37" x="365.84" y="185.29" width="1.74" height="1.74"/><rect class="cls-37" x="365.84" y="188.2" width="1.74" height="1.74"/><rect class="cls-37" x="365.84" y="191.12" width="1.74" height="1.74"/><rect class="cls-37" x="365.84" y="194.03" width="1.74" height="1.74"/><rect class="cls-37" x="365.84" y="196.95" width="1.74" height="1.74"/><rect class="cls-37" x="365.84" y="199.87" width="1.74" height="1.74"/><rect class="cls-37" x="365.84" y="202.78" width="1.74" height="1.74"/><rect class="cls-37" x="365.84" y="205.7" width="1.74" height="1.74"/><rect class="cls-37" x="363.08" y="150.29" width="1.74" height="1.74"/><rect class="cls-37" x="363.08" y="153.21" width="1.74" height="1.74"/><rect class="cls-37" x="363.08" y="156.12" width="1.74" height="1.74"/><rect class="cls-37" x="363.08" y="159.04" width="1.74" height="1.74"/><rect class="cls-37" x="363.08" y="161.96" width="1.74" height="1.74"/><rect class="cls-37" x="363.08" y="164.87" width="1.74" height="1.74"/><rect class="cls-37" x="363.08" y="167.79" width="1.74" height="1.74"/><rect class="cls-37" x="363.08" y="170.7" width="1.74" height="1.74"/><rect class="cls-37" x="363.08" y="173.62" width="1.74" height="1.74"/><rect class="cls-37" x="363.08" y="176.54" width="1.74" height="1.74"/><rect class="cls-37" x="363.08" y="179.45" width="1.74" height="1.74"/><rect class="cls-37" x="363.08" y="182.37" width="1.74" height="1.74"/><rect class="cls-37" x="363.08" y="185.29" width="1.74" height="1.74"/><rect class="cls-37" x="363.08" y="188.2" width="1.74" height="1.74"/><rect class="cls-37" x="363.08" y="191.12" width="1.74" height="1.74"/><rect class="cls-37" x="363.08" y="194.03" width="1.74" height="1.74"/><rect class="cls-37" x="363.08" y="196.95" width="1.74" height="1.74"/><rect class="cls-37" x="363.08" y="199.87" width="1.74" height="1.74"/><rect class="cls-37" x="360.31" y="150.29" width="1.74" height="1.74"/><rect class="cls-37" x="360.31" y="153.21" width="1.74" height="1.74"/><rect class="cls-37" x="360.31" y="156.12" width="1.74" height="1.74"/><rect class="cls-37" x="360.31" y="159.04" width="1.74" height="1.74"/><rect class="cls-37" x="360.31" y="161.96" width="1.74" height="1.74"/><rect class="cls-37" x="360.31" y="164.87" width="1.74" height="1.74"/><rect class="cls-37" x="360.31" y="167.79" width="1.74" height="1.74"/><rect class="cls-37" x="360.31" y="170.7" width="1.74" height="1.74"/><rect class="cls-37" x="360.31" y="173.62" width="1.74" height="1.74"/><rect class="cls-37" x="360.31" y="176.54" width="1.74" height="1.74"/><rect class="cls-37" x="360.31" y="179.45" width="1.74" height="1.74"/><rect class="cls-37" x="360.31" y="182.37" width="1.74" height="1.74"/><rect class="cls-37" x="360.31" y="185.29" width="1.74" height="1.74"/><rect class="cls-37" x="360.31" y="188.2" width="1.74" height="1.74"/><rect class="cls-37" x="360.31" y="191.12" width="1.74" height="1.74"/><rect class="cls-37" x="360.31" y="194.03" width="1.74" height="1.74"/><rect class="cls-37" x="360.31" y="196.95" width="1.74" height="1.74"/><rect class="cls-37" x="360.31" y="199.87" width="1.74" height="1.74"/><rect class="cls-37" x="376.17" y="171.57" width="1.74" height="1.74"/><rect class="cls-37" x="376.17" y="174.49" width="1.74" height="1.74"/><rect class="cls-37" x="376.17" y="177.41" width="1.74" height="1.74"/><rect class="cls-37" x="376.17" y="180.32" width="1.74" height="1.74"/><rect class="cls-37" x="376.17" y="183.24" width="1.74" height="1.74"/><rect class="cls-37" x="376.17" y="186.15" width="1.74" height="1.74"/><rect class="cls-37" x="376.17" y="189.07" width="1.74" height="1.74"/><rect class="cls-37" x="376.17" y="191.99" width="1.74" height="1.74"/><rect class="cls-37" x="376.17" y="194.9" width="1.74" height="1.74"/><rect class="cls-37" x="376.17" y="197.82" width="1.74" height="1.74"/><rect class="cls-37" x="376.17" y="200.74" width="1.74" height="1.74"/><rect class="cls-37" x="376.17" y="203.65" width="1.74" height="1.74"/><rect class="cls-37" x="376.17" y="206.57" width="1.74" height="1.74"/><rect class="cls-37" x="373.41" y="171.57" width="1.74" height="1.74"/><rect class="cls-37" x="373.41" y="174.49" width="1.74" height="1.74"/><rect class="cls-37" x="373.41" y="177.41" width="1.74" height="1.74"/><rect class="cls-37" x="373.41" y="180.32" width="1.74" height="1.74"/><rect class="cls-37" x="373.41" y="183.24" width="1.74" height="1.74"/><rect class="cls-37" x="373.41" y="186.15" width="1.74" height="1.74"/><rect class="cls-37" x="373.41" y="189.07" width="1.74" height="1.74"/><rect class="cls-37" x="373.41" y="191.99" width="1.74" height="1.74"/><rect class="cls-37" x="373.41" y="194.9" width="1.74" height="1.74"/><rect class="cls-37" x="373.41" y="197.82" width="1.74" height="1.74"/><rect class="cls-37" x="373.41" y="200.74" width="1.74" height="1.74"/><rect class="cls-37" x="373.41" y="203.65" width="1.74" height="1.74"/><rect class="cls-37" x="373.41" y="206.57" width="1.74" height="1.74"/><rect class="cls-37" x="370.65" y="171.57" width="1.74" height="1.74"/><rect class="cls-37" x="370.65" y="174.49" width="1.74" height="1.74"/><rect class="cls-37" x="370.65" y="177.41" width="1.74" height="1.74"/><rect class="cls-37" x="370.65" y="180.32" width="1.74" height="1.74"/><rect class="cls-37" x="370.65" y="183.24" width="1.74" height="1.74"/><rect class="cls-37" x="370.65" y="186.15" width="1.74" height="1.74"/><rect class="cls-37" x="370.65" y="189.07" width="1.74" height="1.74"/><rect class="cls-37" x="370.65" y="191.99" width="1.74" height="1.74"/><rect class="cls-37" x="370.65" y="194.9" width="1.74" height="1.74"/><rect class="cls-37" x="370.65" y="197.82" width="1.74" height="1.74"/><rect class="cls-37" x="370.65" y="200.74" width="1.74" height="1.74"/><rect class="cls-37" x="370.65" y="203.65" width="1.74" height="1.74"/><rect class="cls-37" x="370.65" y="206.57" width="1.74" height="1.74"/><rect class="cls-37" x="370.65" y="209.48" width="1.74" height="1.74"/><rect class="cls-37" x="355.3" y="172.44" width="1.74" height="1.74"/><rect class="cls-37" x="355.3" y="175.36" width="1.74" height="1.74"/><rect class="cls-37" x="355.3" y="178.28" width="1.74" height="1.74"/><rect class="cls-37" x="355.3" y="181.19" width="1.74" height="1.74"/><rect class="cls-37" x="355.3" y="184.11" width="1.74" height="1.74"/><rect class="cls-37" x="355.3" y="187.02" width="1.74" height="1.74"/><rect class="cls-37" x="355.3" y="189.94" width="1.74" height="1.74"/><rect class="cls-37" x="355.3" y="192.86" width="1.74" height="1.74"/><rect class="cls-37" x="355.3" y="195.77" width="1.74" height="1.74"/><rect class="cls-37" x="355.3" y="198.69" width="1.74" height="1.74"/><rect class="cls-37" x="355.3" y="207.44" width="1.74" height="1.74"/><rect class="cls-37" x="352.54" y="172.44" width="1.74" height="1.74"/><rect class="cls-37" x="352.54" y="175.36" width="1.74" height="1.74"/><rect class="cls-37" x="352.54" y="178.28" width="1.74" height="1.74"/><rect class="cls-37" x="352.54" y="181.19" width="1.74" height="1.74"/><rect class="cls-37" x="352.54" y="184.11" width="1.74" height="1.74"/><rect class="cls-37" x="352.54" y="187.02" width="1.74" height="1.74"/><rect class="cls-37" x="352.54" y="189.94" width="1.74" height="1.74"/><rect class="cls-37" x="352.54" y="192.86" width="1.74" height="1.74"/><rect class="cls-37" x="352.54" y="195.77" width="1.74" height="1.74"/><rect class="cls-37" x="352.54" y="204.52" width="1.74" height="1.74"/><rect class="cls-37" x="352.54" y="207.44" width="1.74" height="1.74"/><rect class="cls-37" x="349.78" y="172.44" width="1.74" height="1.74"/><rect class="cls-37" x="349.78" y="175.36" width="1.74" height="1.74"/><rect class="cls-37" x="349.78" y="178.28" width="1.74" height="1.74"/><rect class="cls-37" x="349.78" y="181.19" width="1.74" height="1.74"/><rect class="cls-37" x="349.78" y="184.11" width="1.74" height="1.74"/><rect class="cls-37" x="349.78" y="187.02" width="1.74" height="1.74"/><rect class="cls-37" x="349.78" y="189.94" width="1.74" height="1.74"/><rect class="cls-37" x="349.78" y="192.86" width="1.74" height="1.74"/><rect class="cls-37" x="349.78" y="201.6" width="1.74" height="1.74"/><rect class="cls-37" x="349.78" y="204.52" width="1.74" height="1.74"/><rect class="cls-37" x="349.78" y="207.44" width="1.74" height="1.74"/><rect class="cls-37" x="324.09" y="128.14" width="1.74" height="1.74"/><rect class="cls-37" x="324.09" y="131.06" width="1.74" height="1.74"/><rect class="cls-37" x="324.09" y="133.97" width="1.74" height="1.74"/><rect class="cls-37" x="324.09" y="136.89" width="1.74" height="1.74"/><rect class="cls-37" x="324.09" y="139.8" width="1.74" height="1.74"/><rect class="cls-37" x="324.09" y="142.72" width="1.74" height="1.74"/><rect class="cls-37" x="324.09" y="145.64" width="1.74" height="1.74"/><rect class="cls-37" x="324.09" y="148.55" width="1.74" height="1.74"/><rect class="cls-37" x="324.09" y="151.47" width="1.74" height="1.74"/><rect class="cls-37" x="324.09" y="154.38" width="1.74" height="1.74"/><rect class="cls-37" x="324.09" y="157.3" width="1.74" height="1.74"/><rect class="cls-37" x="324.09" y="160.22" width="1.74" height="1.74"/><rect class="cls-37" x="324.09" y="163.13" width="1.74" height="1.74"/><rect class="cls-37" x="324.09" y="166.05" width="1.74" height="1.74"/><rect class="cls-37" x="324.09" y="168.97" width="1.74" height="1.74"/><rect class="cls-37" x="324.09" y="171.88" width="1.74" height="1.74"/><rect class="cls-37" x="324.09" y="174.8" width="1.74" height="1.74"/><rect class="cls-37" x="324.09" y="180.63" width="1.74" height="1.74"/><rect class="cls-37" x="324.09" y="183.55" width="1.74" height="1.74"/><rect class="cls-37" x="324.09" y="186.46" width="1.74" height="1.74"/><rect class="cls-37" x="324.09" y="189.38" width="1.74" height="1.74"/><rect class="cls-37" x="324.09" y="192.29" width="1.74" height="1.74"/><rect class="cls-37" x="321.33" y="128.14" width="1.74" height="1.74"/><rect class="cls-37" x="321.33" y="131.06" width="1.74" height="1.74"/><rect class="cls-37" x="321.33" y="133.97" width="1.74" height="1.74"/><rect class="cls-37" x="321.33" y="136.89" width="1.74" height="1.74"/><rect class="cls-37" x="321.33" y="139.8" width="1.74" height="1.74"/><rect class="cls-37" x="321.33" y="142.72" width="1.74" height="1.74"/><rect class="cls-37" x="321.33" y="145.64" width="1.74" height="1.74"/><rect class="cls-37" x="321.33" y="148.55" width="1.74" height="1.74"/><rect class="cls-37" x="321.33" y="151.47" width="1.74" height="1.74"/><rect class="cls-37" x="321.33" y="154.38" width="1.74" height="1.74"/><rect class="cls-37" x="321.33" y="157.3" width="1.74" height="1.74"/><rect class="cls-37" x="321.33" y="160.22" width="1.74" height="1.74"/><rect class="cls-37" x="321.33" y="163.13" width="1.74" height="1.74"/><rect class="cls-37" x="321.33" y="166.05" width="1.74" height="1.74"/><rect class="cls-37" x="321.33" y="168.97" width="1.74" height="1.74"/><rect class="cls-37" x="321.33" y="171.88" width="1.74" height="1.74"/><rect class="cls-37" x="321.33" y="189.38" width="1.74" height="1.74"/><rect class="cls-37" x="321.33" y="192.29" width="1.74" height="1.74"/><rect class="cls-37" x="318.57" y="128.14" width="1.74" height="1.74"/><rect class="cls-37" x="318.57" y="131.06" width="1.74" height="1.74"/><rect class="cls-37" x="318.57" y="133.97" width="1.74" height="1.74"/><rect class="cls-37" x="318.57" y="136.89" width="1.74" height="1.74"/><rect class="cls-37" x="318.57" y="139.8" width="1.74" height="1.74"/><rect class="cls-37" x="318.57" y="142.72" width="1.74" height="1.74"/><rect class="cls-37" x="318.57" y="145.64" width="1.74" height="1.74"/><rect class="cls-37" x="318.57" y="148.55" width="1.74" height="1.74"/><rect class="cls-37" x="318.57" y="151.47" width="1.74" height="1.74"/><rect class="cls-37" x="318.57" y="154.38" width="1.74" height="1.74"/><rect class="cls-37" x="318.57" y="157.3" width="1.74" height="1.74"/><rect class="cls-37" x="318.57" y="160.22" width="1.74" height="1.74"/><rect class="cls-37" x="318.57" y="163.13" width="1.74" height="1.74"/><rect class="cls-37" x="318.57" y="166.05" width="1.74" height="1.74"/><rect class="cls-37" x="318.57" y="168.97" width="1.74" height="1.74"/><rect class="cls-37" x="318.57" y="171.88" width="1.74" height="1.74"/><rect class="cls-37" x="318.57" y="177.71" width="1.74" height="1.74"/><rect class="cls-37" x="318.57" y="180.63" width="1.74" height="1.74"/><rect class="cls-37" x="318.57" y="183.55" width="1.74" height="1.74"/><rect class="cls-37" x="318.57" y="186.46" width="1.74" height="1.74"/><rect class="cls-37" x="318.57" y="192.29" width="1.74" height="1.74"/><rect class="cls-37" x="334.12" y="164.87" width="1.74" height="1.74"/><rect class="cls-37" x="334.12" y="167.79" width="1.74" height="1.74"/><rect class="cls-37" x="334.12" y="170.7" width="1.74" height="1.74"/><rect class="cls-37" x="334.12" y="173.62" width="1.74" height="1.74"/><rect class="cls-37" x="334.12" y="176.54" width="1.74" height="1.74"/><rect class="cls-37" x="334.12" y="179.45" width="1.74" height="1.74"/><rect class="cls-37" x="334.12" y="182.37" width="1.74" height="1.74"/><rect class="cls-37" x="334.12" y="188.2" width="1.74" height="1.74"/><rect class="cls-37" x="334.12" y="191.12" width="1.74" height="1.74"/><rect class="cls-37" x="334.12" y="194.03" width="1.74" height="1.74"/><rect class="cls-37" x="334.12" y="196.95" width="1.74" height="1.74"/><rect class="cls-37" x="334.12" y="199.87" width="1.74" height="1.74"/><rect class="cls-37" x="334.12" y="202.78" width="1.74" height="1.74"/><rect class="cls-37" x="334.12" y="205.7" width="1.74" height="1.74"/><rect class="cls-37" x="334.12" y="208.61" width="1.74" height="1.74"/><rect class="cls-37" x="331.36" y="164.87" width="1.74" height="1.74"/><rect class="cls-37" x="331.36" y="167.79" width="1.74" height="1.74"/><rect class="cls-37" x="331.36" y="170.7" width="1.74" height="1.74"/><rect class="cls-37" x="331.36" y="173.62" width="1.74" height="1.74"/><rect class="cls-37" x="331.36" y="176.54" width="1.74" height="1.74"/><rect class="cls-37" x="331.36" y="179.45" width="1.74" height="1.74"/><rect class="cls-37" x="331.36" y="188.2" width="1.74" height="1.74"/><rect class="cls-37" x="331.36" y="191.12" width="1.74" height="1.74"/><rect class="cls-37" x="331.36" y="194.03" width="1.74" height="1.74"/><rect class="cls-37" x="331.36" y="196.95" width="1.74" height="1.74"/><rect class="cls-37" x="331.36" y="199.87" width="1.74" height="1.74"/><rect class="cls-37" x="331.36" y="202.78" width="1.74" height="1.74"/><rect class="cls-37" x="331.36" y="205.7" width="1.74" height="1.74"/><rect class="cls-37" x="331.36" y="208.61" width="1.74" height="1.74"/><rect class="cls-37" x="328.6" y="164.87" width="1.74" height="1.74"/><rect class="cls-37" x="328.6" y="167.79" width="1.74" height="1.74"/><rect class="cls-37" x="328.6" y="170.7" width="1.74" height="1.74"/><rect class="cls-37" x="328.6" y="173.62" width="1.74" height="1.74"/><rect class="cls-37" x="328.6" y="176.54" width="1.74" height="1.74"/><rect class="cls-37" x="328.6" y="179.45" width="1.74" height="1.74"/><rect class="cls-37" x="328.6" y="185.29" width="1.74" height="1.74"/><rect class="cls-37" x="328.6" y="188.2" width="1.74" height="1.74"/><rect class="cls-37" x="328.6" y="191.12" width="1.74" height="1.74"/><rect class="cls-37" x="328.6" y="194.03" width="1.74" height="1.74"/><rect class="cls-37" x="328.6" y="196.95" width="1.74" height="1.74"/><rect class="cls-37" x="328.6" y="199.87" width="1.74" height="1.74"/><rect class="cls-37" x="328.6" y="202.78" width="1.74" height="1.74"/><rect class="cls-37" x="328.6" y="205.7" width="1.74" height="1.74"/><rect class="cls-37" x="328.6" y="208.61" width="1.74" height="1.74"/><rect class="cls-37" x="270.38" y="148.55" width="1.74" height="1.74"/><rect class="cls-37" x="270.38" y="151.47" width="1.74" height="1.74"/><rect class="cls-37" x="270.38" y="154.38" width="1.74" height="1.74"/><rect class="cls-37" x="270.38" y="157.3" width="1.74" height="1.74"/><rect class="cls-37" x="270.38" y="160.22" width="1.74" height="1.74"/><rect class="cls-37" x="270.38" y="163.13" width="1.74" height="1.74"/><rect class="cls-37" x="270.38" y="166.05" width="1.74" height="1.74"/><rect class="cls-37" x="270.38" y="168.97" width="1.74" height="1.74"/><rect class="cls-37" x="270.38" y="171.88" width="1.74" height="1.74"/><rect class="cls-37" x="270.38" y="174.8" width="1.74" height="1.74"/><rect class="cls-37" x="270.38" y="177.71" width="1.74" height="1.74"/><rect class="cls-37" x="270.38" y="180.63" width="1.74" height="1.74"/><rect class="cls-37" x="270.38" y="183.55" width="1.74" height="1.74"/><rect class="cls-37" x="270.38" y="189.38" width="1.74" height="1.74"/><rect class="cls-37" x="270.38" y="192.29" width="1.74" height="1.74"/><rect class="cls-37" x="270.38" y="195.21" width="1.74" height="1.74"/><rect class="cls-37" x="270.38" y="198.13" width="1.74" height="1.74"/><rect class="cls-37" x="270.38" y="203.96" width="1.74" height="1.74"/><rect class="cls-37" x="270.38" y="206.87" width="1.74" height="1.74"/><rect class="cls-37" x="270.38" y="209.79" width="1.74" height="1.74"/><rect class="cls-37" x="267.61" y="148.55" width="1.74" height="1.74"/><rect class="cls-37" x="267.61" y="151.47" width="1.74" height="1.74"/><rect class="cls-37" x="267.61" y="154.38" width="1.74" height="1.74"/><rect class="cls-37" x="267.61" y="157.3" width="1.74" height="1.74"/><rect class="cls-37" x="267.61" y="160.22" width="1.74" height="1.74"/><rect class="cls-37" x="267.61" y="163.13" width="1.74" height="1.74"/><rect class="cls-37" x="267.61" y="166.05" width="1.74" height="1.74"/><rect class="cls-37" x="267.61" y="168.97" width="1.74" height="1.74"/><rect class="cls-37" x="267.61" y="171.88" width="1.74" height="1.74"/><rect class="cls-37" x="267.61" y="174.8" width="1.74" height="1.74"/><rect class="cls-37" x="267.61" y="177.71" width="1.74" height="1.74"/><rect class="cls-37" x="267.61" y="180.63" width="1.74" height="1.74"/><rect class="cls-37" x="267.61" y="183.55" width="1.74" height="1.74"/><rect class="cls-37" x="267.61" y="192.29" width="1.74" height="1.74"/><rect class="cls-37" x="267.61" y="195.21" width="1.74" height="1.74"/><rect class="cls-37" x="267.61" y="201.04" width="1.74" height="1.74"/><rect class="cls-37" x="267.61" y="203.96" width="1.74" height="1.74"/><rect class="cls-37" x="267.61" y="206.87" width="1.74" height="1.74"/><rect class="cls-37" x="267.61" y="209.79" width="1.74" height="1.74"/><rect class="cls-37" x="264.85" y="148.55" width="1.74" height="1.74"/><rect class="cls-37" x="264.85" y="151.47" width="1.74" height="1.74"/><rect class="cls-37" x="264.85" y="154.38" width="1.74" height="1.74"/><rect class="cls-37" x="264.85" y="157.3" width="1.74" height="1.74"/><rect class="cls-37" x="264.85" y="160.22" width="1.74" height="1.74"/><rect class="cls-37" x="264.85" y="163.13" width="1.74" height="1.74"/><rect class="cls-37" x="264.85" y="166.05" width="1.74" height="1.74"/><rect class="cls-37" x="264.85" y="168.97" width="1.74" height="1.74"/><rect class="cls-37" x="264.85" y="171.88" width="1.74" height="1.74"/><rect class="cls-37" x="264.85" y="174.8" width="1.74" height="1.74"/><rect class="cls-37" x="264.85" y="177.71" width="1.74" height="1.74"/><rect class="cls-37" x="264.85" y="180.63" width="1.74" height="1.74"/><rect class="cls-37" x="264.85" y="183.55" width="1.74" height="1.74"/><rect class="cls-37" x="264.85" y="186.46" width="1.74" height="1.74"/><rect class="cls-37" x="264.85" y="192.29" width="1.74" height="1.74"/><rect class="cls-37" x="264.85" y="198.13" width="1.74" height="1.74"/><rect class="cls-37" x="264.85" y="201.04" width="1.74" height="1.74"/><rect class="cls-37" x="264.85" y="203.96" width="1.74" height="1.74"/><rect class="cls-37" x="264.85" y="206.87" width="1.74" height="1.74"/><rect class="cls-37" x="264.85" y="209.79" width="1.74" height="1.74"/><rect class="cls-37" x="281.63" y="165.18" width="1.74" height="1.74"/><rect class="cls-37" x="281.63" y="168.1" width="1.74" height="1.74"/><rect class="cls-37" x="281.63" y="171.01" width="1.74" height="1.74"/><rect class="cls-37" x="281.63" y="173.93" width="1.74" height="1.74"/><rect class="cls-37" x="281.63" y="176.84" width="1.74" height="1.74"/><rect class="cls-37" x="281.63" y="179.76" width="1.74" height="1.74"/><rect class="cls-37" x="281.63" y="188.51" width="1.74" height="1.74"/><rect class="cls-37" x="281.63" y="191.42" width="1.74" height="1.74"/><rect class="cls-37" x="281.63" y="194.34" width="1.74" height="1.74"/><rect class="cls-37" x="281.63" y="197.26" width="1.74" height="1.74"/><rect class="cls-37" x="281.63" y="200.17" width="1.74" height="1.74"/><rect class="cls-37" x="281.63" y="203.09" width="1.74" height="1.74"/><rect class="cls-37" x="281.63" y="206" width="1.74" height="1.74"/><rect class="cls-37" x="278.87" y="165.18" width="1.74" height="1.74"/><rect class="cls-37" x="278.87" y="168.1" width="1.74" height="1.74"/><rect class="cls-37" x="278.87" y="171.01" width="1.74" height="1.74"/><rect class="cls-37" x="278.87" y="173.93" width="1.74" height="1.74"/><rect class="cls-37" x="278.87" y="176.84" width="1.74" height="1.74"/><rect class="cls-37" x="278.87" y="179.76" width="1.74" height="1.74"/><rect class="cls-37" x="278.87" y="188.51" width="1.74" height="1.74"/><rect class="cls-37" x="278.87" y="191.42" width="1.74" height="1.74"/><rect class="cls-37" x="278.87" y="194.34" width="1.74" height="1.74"/><rect class="cls-37" x="278.87" y="197.26" width="1.74" height="1.74"/><rect class="cls-37" x="278.87" y="200.17" width="1.74" height="1.74"/><rect class="cls-37" x="278.87" y="203.09" width="1.74" height="1.74"/><rect class="cls-37" x="278.87" y="208.92" width="1.74" height="1.74"/><rect class="cls-38" x="212.66" y="69.83" width="3.45" height="189.49"/><rect class="cls-38" x="268.11" y="69.83" width="2.92" height="189.49"/><rect class="cls-38" x="323.03" y="69.83" width="2.92" height="189.49"/><circle class="cls-30" cx="108.56" cy="41.73" r="14.17"/><circle class="cls-39" cx="108.56" cy="41.73" r="12.05"/><polyline class="cls-39" points="109.13 33.47 109.13 41.89 114.71 38.73"/><path class="cls-30" d="m109.13,42.89c-.17,0-.35-.05-.5-.14-.31-.18-.5-.51-.5-.86v-8.42c0-.55.45-1,1-1s1,.45,1,1v6.71l4.09-2.31c.48-.27,1.09-.1,1.36.38.27.48.1,1.09-.38,1.36l-5.58,3.16c-.15.09-.32.13-.49.13Z"/><rect class="cls-30" x="45.33" y="142.52" width="22.5" height="188.98"/><rect class="cls-38" x="65.38" y="142.52" width="63.16" height="188.98"/><rect class="cls-37" x="71.81" y="148.96" width="50.29" height="50.29"/><path class="cls-30" d="m110.56,178.55h-27.21c-.76,0-1.38-.62-1.38-1.38h0c0-.76.62-1.38,1.38-1.38h27.21c.76,0,1.38.62,1.38,1.38h0c0,.76-.62,1.38-1.38,1.38Z"/><path class="cls-30" d="m110.56,184.07h-27.21c-.76,0-1.38-.62-1.38-1.38h0c0-.76.62-1.38,1.38-1.38h27.21c.76,0,1.38.62,1.38,1.38h0c0,.76-.62,1.38-1.38,1.38Z"/><path class="cls-30" d="m110.56,189.6h-27.21c-.76,0-1.38-.62-1.38-1.38h0c0-.76.62-1.38,1.38-1.38h27.21c.76,0,1.38.62,1.38,1.38h0c0,.76-.62,1.38-1.38,1.38Z"/><polygon class="cls-38" points="102.31 168.34 91.6 168.34 88.77 165.51 88.77 159.48 91.6 156.65 102.31 156.65 105.14 159.48 105.14 165.51 102.31 168.34"/><rect class="cls-37" x="71.81" y="204.06" width="50.29" height="50.29"/><path class="cls-30" d="m110.56,233.65h-27.21c-.76,0-1.38-.62-1.38-1.38h0c0-.76.62-1.38,1.38-1.38h27.21c.76,0,1.38.62,1.38,1.38h0c0,.76-.62,1.38-1.38,1.38Z"/><path class="cls-30" d="m110.56,239.18h-27.21c-.76,0-1.38-.62-1.38-1.38h0c0-.76.62-1.38,1.38-1.38h27.21c.76,0,1.38.62,1.38,1.38h0c0,.76-.62,1.38-1.38,1.38Z"/><path class="cls-30" d="m110.56,244.71h-27.21c-.76,0-1.38-.62-1.38-1.38h0c0-.76.62-1.38,1.38-1.38h27.21c.76,0,1.38.62,1.38,1.38h0c0,.76-.62,1.38-1.38,1.38Z"/><polygon class="cls-38" points="102.31 223.45 91.6 223.45 88.77 220.62 88.77 214.58 91.6 211.76 102.31 211.76 105.14 214.58 105.14 220.62 102.31 223.45"/><rect class="cls-37" x="71.81" y="259.17" width="50.29" height="50.29"/><path class="cls-30" d="m110.56,288.76h-27.21c-.76,0-1.38-.62-1.38-1.38h0c0-.76.62-1.38,1.38-1.38h27.21c.76,0,1.38.62,1.38,1.38h0c0,.76-.62,1.38-1.38,1.38Z"/><path class="cls-30" d="m110.56,294.28h-27.21c-.76,0-1.38-.62-1.38-1.38h0c0-.76.62-1.38,1.38-1.38h27.21c.76,0,1.38.62,1.38,1.38h0c0,.76-.62,1.38-1.38,1.38Z"/><path class="cls-30" d="m110.56,299.81h-27.21c-.76,0-1.38-.62-1.38-1.38h0c0-.76.62-1.38,1.38-1.38h27.21c.76,0,1.38.62,1.38,1.38h0c0,.76-.62,1.38-1.38,1.38Z"/><polygon class="cls-38" points="102.31 278.55 91.6 278.55 88.77 275.72 88.77 269.69 91.6 266.86 102.31 266.86 105.14 269.69 105.14 275.72 102.31 278.55"/><ellipse id="_Path_" class="cls-40" cx="216.84" cy="364.92" rx="193.89" ry="11.32"/><path class="cls-34" d="m351.92,273.11c.21,1.47-3.78,2.44-7.03,2.98.27,2.67,2.04,5.37,4.49,7.89,3.09-1.74,7.49-4.04,8.3-3.47.89.61-3.62,3.53-6.44,5.24,1.98,1.76,4.22,3.4,6.39,4.84,1.38-1.29,3-2.43,3.97-1.81,1,.64.73,2.64.24,4.42,3.36,1.96,5.87,3.15,5.87,3.15,0,0,1.41-4.27,2.24-9.53-.17-.33-.34-.67-.49-1.03-.54-1.25-.01-1.78.88-1.96.23-2.3.3-4.67.06-6.87-3.8-.8-8.42-2.27-6.69-4.55,1.04-1.37,2.95-1.53,4.94-1.19-.28-.46-.59-.89-.94-1.28-6.91-7.62-11.74,0-11.74,0-4.02-3.35-9.66-2.44-10.88,2.79,2.26-.58,6.57-1.44,6.83.38Z"/><path class="cls-15" d="m351.92,273.11c.21,1.47-3.78,2.44-7.03,2.98.27,2.67,2.04,5.37,4.49,7.89,3.09-1.74,7.49-4.04,8.3-3.47.89.61-3.62,3.53-6.44,5.24,1.98,1.76,4.22,3.4,6.39,4.84,1.38-1.29,3-2.43,3.97-1.81,1,.64.73,2.64.24,4.42,3.36,1.96,5.87,3.15,5.87,3.15,0,0,1.41-4.27,2.24-9.53-.17-.33-.34-.67-.49-1.03-.54-1.25-.01-1.78.88-1.96.23-2.3.3-4.67.06-6.87-3.8-.8-8.42-2.27-6.69-4.55,1.04-1.37,2.95-1.53,4.94-1.19-.28-.46-.59-.89-.94-1.28-6.91-7.62-11.74,0-11.74,0-4.02-3.35-9.66-2.44-10.88,2.79,2.26-.58,6.57-1.44,6.83.38Z"/><path class="cls-34" d="m360.55,329.1l-1-.08c.04-.51,4.09-51.53-7.35-56.33-1.23-.52-2.37-.49-3.47.09-4.14,2.15-6.12,11.08-6.14,11.17l-.98-.21c.08-.39,2.1-9.48,6.65-11.85,1.37-.71,2.82-.75,4.32-.12,12.11,5.09,8.14,55.21,7.96,57.34Z"/><path class="cls-34" d="m361.99,327.99c-.2-2.3-4.88-56.27,3.86-62,2.1-1.37,3.96-1.67,5.55-.86,4.13,2.08,4.67,10.91,4.69,11.28l-1,.06c0-.09-.53-8.63-4.14-10.45-1.24-.62-2.77-.36-4.55.81-8.24,5.41-3.46,60.52-3.41,61.07l-1,.09Z"/><path class="cls-27" d="m363.3,332.36c-.07-1.76-1.5-43.07,6.45-46.69,1.57-.71,3.17-.73,4.73-.04,5.46,2.4,8.83,12.58,8.97,13.01l-.95.31c-.03-.1-3.37-10.18-8.42-12.4-1.31-.58-2.59-.57-3.92.03-6.1,2.77-6.3,33.96-5.87,45.74l-1,.04Z"/><path class="cls-27" d="m361.28,330.47l-.99-.11c1.4-12.3,4.08-45.06-.3-48.97-.65-.58-1.24-.76-1.79-.55-2.93,1.13-4.72,11.78-5.16,15.79l-.99-.11c.17-1.54,1.77-15.07,5.8-16.62.92-.35,1.87-.11,2.82.74,5.66,5.05.83,48,.62,49.83Z"/><polygon class="cls-27" points="344.59 307.16 380.52 307.16 377.52 347.4 347.59 347.4 344.59 307.16"/><path class="cls-34" d="m349.49,292.39c-.37.98-3.16.21-5.36-.57-.75,1.74-.58,4.01.07,6.4,2.5-.01,6,.08,6.31.7.34.68-3.45.93-5.77,1.02.62,1.77,1.43,3.54,2.28,5.18,1.3-.32,2.68-.47,3.07.24.4.74-.45,1.88-1.37,2.81,1.4,2.36,2.54,3.95,2.54,3.95,0,0,2.33-2.15,4.65-5.11.01-.26.02-.53.05-.8.1-.96.6-1.1,1.21-.91.93-1.34,1.78-2.78,2.39-4.22-2.07-1.79-4.41-4.29-2.56-5.1,1.11-.49,2.35.07,3.45.96-.01-.38-.06-.75-.14-1.11-1.65-7.07-7.24-4.02-7.24-4.02-1.33-3.44-5.12-4.82-7.67-2.01,1.59.42,4.55,1.37,4.09,2.58Z"/><path class="cls-15" d="m349.49,292.39c-.37.98-3.16.21-5.36-.57-.75,1.74-.58,4.01.07,6.4,2.5-.01,6,.08,6.31.7.34.68-3.45.93-5.77,1.02.62,1.77,1.43,3.54,2.28,5.18,1.3-.32,2.68-.47,3.07.24.4.74-.45,1.88-1.37,2.81,1.4,2.36,2.54,3.95,2.54,3.95,0,0,2.33-2.15,4.65-5.11.01-.26.02-.53.05-.8.1-.96.6-1.1,1.21-.91.93-1.34,1.78-2.78,2.39-4.22-2.07-1.79-4.41-4.29-2.56-5.1,1.11-.49,2.35.07,3.45.96-.01-.38-.06-.75-.14-1.11-1.65-7.07-7.24-4.02-7.24-4.02-1.33-3.44-5.12-4.82-7.67-2.01,1.59.42,4.55,1.37,4.09,2.58Z"/><path class="cls-28" d="m376.16,297.17c-1.13.08-2.22.34-3.28.69-.28-.76-.46-1.55-.48-2.38-.23-7.25,4.96-4.19,7.7-6.32,1.37-1.06,3.04-1.74,4.59-1.44-.23.4-.44.81-.62,1.24-.29.69.17,1.42.88,1.55.67.13,1.42.07,2.03-.24.19-.1.35-.24.52-.36.38.65.72,1.44,1,2.42.28,1.01.42,2.05.47,3.1-.41.09-.81.2-1.21.34-.62.22-.96,1.22-.45,1.72.44.44.95.79,1.5,1.05-.18,1.19-.51,2.33-.91,3.4-.12.02-.25.03-.37.06-.26.05-.52.12-.78.19-.15.04-.29.09-.43.16-.36.17-.62.48-.68.88-.06.4.11.8.43,1.05.17.13.35.23.54.33-.83,1.31-1.8,2.34-2.87,2.9,0,0-1.32-.58-3.05-1.61.22-.29.43-.58.63-.88.24-.35.34-.72.31-1.14-.03-.41-.28-.77-.59-1.02-.29-.25-.76-.36-1.14-.31-.37.05-.81.27-1.02.59-.24.36-.51.7-.77,1.04-1.32-1-2.64-2.2-3.68-3.57.04-.01.08-.02.11-.03.67-.17,1.35-.29,2.04-.34.86-.06,1.4-.93,1.33-1.73-.07-.86-.92-1.39-1.73-1.33Z"/><path class="cls-41" d="m376.16,297.17c-1.13.08-2.22.34-3.28.69-.28-.76-.46-1.55-.48-2.38-.23-7.25,4.96-4.19,7.7-6.32,1.37-1.06,3.04-1.74,4.59-1.44-.23.4-.44.81-.62,1.24-.29.69.17,1.42.88,1.55.67.13,1.42.07,2.03-.24.19-.1.35-.24.52-.36.38.65.72,1.44,1,2.42.28,1.01.42,2.05.47,3.1-.41.09-.81.2-1.21.34-.62.22-.96,1.22-.45,1.72.44.44.95.79,1.5,1.05-.18,1.19-.51,2.33-.91,3.4-.12.02-.25.03-.37.06-.26.05-.52.12-.78.19-.15.04-.29.09-.43.16-.36.17-.62.48-.68.88-.06.4.11.8.43,1.05.17.13.35.23.54.33-.83,1.31-1.8,2.34-2.87,2.9,0,0-1.32-.58-3.05-1.61.22-.29.43-.58.63-.88.24-.35.34-.72.31-1.14-.03-.41-.28-.77-.59-1.02-.29-.25-.76-.36-1.14-.31-.37.05-.81.27-1.02.59-.24.36-.51.7-.77,1.04-1.32-1-2.64-2.2-3.68-3.57.04-.01.08-.02.11-.03.67-.17,1.35-.29,2.04-.34.86-.06,1.4-.93,1.33-1.73-.07-.86-.92-1.39-1.73-1.33Z"/><path class="cls-34" d="m378.23,272.19c.63-.45,1.32-.79,2.03-1.08-.19-.52-.44-1.02-.79-1.46-3.06-3.91-4.44-.03-6.82.06-1.18.04-2.36.42-3.04,1.26.3.11.59.23.87.38.46.24.53.82.22,1.2-.3.36-.72.66-1.17.77-.14.03-.29.03-.43.04.08.51.25,1.07.54,1.71.3.65.68,1.26,1.11,1.83.25-.13.51-.25.79-.35.42-.16,1.04.22.99.71-.04.43-.15.83-.32,1.21.62.55,1.29,1,1.97,1.38.07-.04.14-.09.22-.13.16-.09.33-.17.5-.24.1-.04.2-.08.3-.11.26-.07.54-.02.74.16.2.18.3.47.24.74-.03.14-.09.28-.14.41,1.01.32,1.98.44,2.78.26,0,0,.44-.88.9-2.19-.24-.06-.48-.11-.72-.18-.28-.08-.49-.23-.66-.46-.16-.23-.19-.53-.14-.79.05-.26.24-.52.46-.66.21-.14.55-.21.79-.14.28.08.57.14.86.21.26-1.11.42-2.32.36-3.49-.03.01-.05.02-.07.03-.43.2-.84.44-1.22.72-.48.34-1.14.12-1.46-.32-.34-.48-.12-1.14.32-1.46Z"/><path class="cls-15" d="m378.23,272.19c.63-.45,1.32-.79,2.03-1.08-.19-.52-.44-1.02-.79-1.46-3.06-3.91-4.44-.03-6.82.06-1.18.04-2.36.42-3.04,1.26.3.11.59.23.87.38.46.24.53.82.22,1.2-.3.36-.72.66-1.17.77-.14.03-.29.03-.43.04.08.51.25,1.07.54,1.71.3.65.68,1.26,1.11,1.83.25-.13.51-.25.79-.35.42-.16,1.04.22.99.71-.04.43-.15.83-.32,1.21.62.55,1.29,1,1.97,1.38.07-.04.14-.09.22-.13.16-.09.33-.17.5-.24.1-.04.2-.08.3-.11.26-.07.54-.02.74.16.2.18.3.47.24.74-.03.14-.09.28-.14.41,1.01.32,1.98.44,2.78.26,0,0,.44-.88.9-2.19-.24-.06-.48-.11-.72-.18-.28-.08-.49-.23-.66-.46-.16-.23-.19-.53-.14-.79.05-.26.24-.52.46-.66.21-.14.55-.21.79-.14.28.08.57.14.86.21.26-1.11.42-2.32.36-3.49-.03.01-.05.02-.07.03-.43.2-.84.44-1.22.72-.48.34-1.14.12-1.46-.32-.34-.48-.12-1.14.32-1.46Z"/><g class="cls-46"><path class="cls-28" d="m348.96,279.44c-.21,1.47,3.78,2.44,7.03,2.98-.27,2.67-2.04,5.37-4.49,7.89-3.09-1.74-7.49-4.04-8.3-3.47-.89.61,3.62,3.53,6.44,5.24-1.98,1.76-4.22,3.4-6.39,4.84-1.38-1.29-3-2.43-3.97-1.81-1,.64-.73,2.64-.24,4.42-3.36,1.96-5.87,3.15-5.87,3.15,0,0-1.41-4.27-2.24-9.53.17-.33.34-.67.49-1.03.54-1.25.01-1.78-.88-1.96-.23-2.3-.3-4.67-.06-6.87,3.8-.8,8.42-2.27,6.69-4.55-1.04-1.37-2.95-1.53-4.94-1.19.28-.46.59-.89.94-1.28,6.91-7.62,11.74,0,11.74,0,4.02-3.35,9.66-2.44,10.88,2.79-2.26-.58-6.57-1.44-6.83.38Z"/><path class="cls-41" d="m348.96,279.44c-.21,1.47,3.78,2.44,7.03,2.98-.27,2.67-2.04,5.37-4.49,7.89-3.09-1.74-7.49-4.04-8.3-3.47-.89.61,3.62,3.53,6.44,5.24-1.98,1.76-4.22,3.4-6.39,4.84-1.38-1.29-3-2.43-3.97-1.81-1,.64-.73,2.64-.24,4.42-3.36,1.96-5.87,3.15-5.87,3.15,0,0-1.41-4.27-2.24-9.53.17-.33.34-.67.49-1.03.54-1.25.01-1.78-.88-1.96-.23-2.3-.3-4.67-.06-6.87,3.8-.8,8.42-2.27,6.69-4.55-1.04-1.37-2.95-1.53-4.94-1.19.28-.46.59-.89.94-1.28,6.91-7.62,11.74,0,11.74,0,4.02-3.35,9.66-2.44,10.88,2.79-2.26-.58-6.57-1.44-6.83.38Z"/></g><path class="cls-27" d="m156.92,361.75l-25.21-9.28-25.48,9.29c-.88.32-1.81-.33-1.81-1.27h0c0-.53.3-1,.78-1.22l26.51-12.3,26.24,12.3c.47.22.78.7.78,1.22h0c0,.94-.93,1.59-1.81,1.26Z"/><path class="cls-26" d="m156.92,361.75l-25.21-9.28-25.48,9.29c-.88.32-1.81-.33-1.81-1.27h0c0-.53.3-1,.78-1.22l26.51-12.3,26.24,12.3c.47.22.78.7.78,1.22h0c0,.94-.93,1.59-1.81,1.26Z"/><polygon class="cls-42" points="125.78 354.63 131.72 352.47 137.38 354.55 137.38 349.62 131.72 346.96 125.78 349.72 125.78 354.63"/><path class="cls-27" d="m131.58,361.96h0c-1.15,0-2.12-.88-2.23-2.03l-.71-7.47v-62.02h5.88v62.02l-.71,7.47c-.11,1.15-1.07,2.03-2.23,2.03Z"/><path class="cls-26" d="m131.58,361.96h0c-1.15,0-2.12-.88-2.23-2.03l-.71-7.47v-62.02h5.88v62.02l-.71,7.47c-.11,1.15-1.07,2.03-2.23,2.03Z"/><rect class="cls-42" x="128.64" y="290.45" width="5.88" height="7.22"/><path class="cls-28" d="m118.39,226.55c.84-.02,1.69.36,2.25,1.3,10.77,17.91,14.59,39.43,10.88,59.97-.23,1.29-1.11,1.89-2.09,1.95-1.63.11-30.65,0-31.7,0-1.58,0-3.32-1.35-2.95-3.4,3.45-19.08-.35-39.19-10.33-55.79-1.24-2.06.59-4,2.44-4.03.84-.02,29.66.04,31.51,0Z"/><path class="cls-5" d="m118.39,226.55c.84-.02,1.69.36,2.25,1.3,10.77,17.91,14.59,39.43,10.88,59.97-.23,1.29-1.11,1.89-2.09,1.95-1.63.11-30.65,0-31.7,0-1.58,0-3.32-1.35-2.95-3.4,3.45-19.08-.35-39.19-10.33-55.79-1.24-2.06.59-4,2.44-4.03.84-.02,29.66.04,31.51,0Z"/><path class="cls-28" d="m94.78,286.37c3.45-19.08-.35-39.19-10.33-55.79-1.8-3,2.89-5.73,4.69-2.74,10.77,17.91,14.59,39.43,10.88,59.97-.62,3.43-5.85,1.98-5.23-1.44h0Z"/><g class="cls-44"><path class="cls-28" d="m94.78,286.37c3.45-19.08-.35-39.19-10.33-55.79-1.8-3,2.89-5.73,4.69-2.74,10.77,17.91,14.59,39.43,10.88,59.97-.62,3.43-5.85,1.98-5.23-1.44h0Z"/></g><path class="cls-28" d="m185.26,284.8c-6.65-1.7-13.49-2.63-20.34-2.8-7.06-.18-33.5-.03-39.78-.03-7.64,0-15.28.94-22.7,2.83-4.66,1.19-3.22,7.92.99,7.99.37,0,80.29-.02,80.59,0,4.4.2,6.01-6.77,1.25-7.99Z"/><path class="cls-25" d="m185.26,284.8c-6.65-1.7-13.49-2.63-20.34-2.8-7.06-.18-33.5-.03-39.78-.03-7.64,0-15.28.94-22.7,2.83-4.66,1.19-3.22,7.92.99,7.99.37,0,80.29-.02,80.59,0,4.4.2,6.01-6.77,1.25-7.99Z"/><path class="cls-28" d="m104.61,292.65c13.43-3.42,27.65-3.42,41.07,0,5.08,1.3,7.24-6.55,2.16-7.85-14.83-3.78-30.57-3.78-45.4,0-5.07,1.29-2.92,9.15,2.16,7.85h0Z"/><g class="cls-43"><path class="cls-28" d="m104.61,292.65c13.43-3.42,27.65-3.42,41.07,0,5.08,1.3,7.24-6.55,2.16-7.85-14.83-3.78-30.57-3.78-45.4,0-5.07,1.29-2.92,9.15,2.16,7.85h0Z"/></g><rect class="cls-27" x="118.3" y="253.22" width="35.8" height="14.35"/><rect class="cls-6" x="118.3" y="253.22" width="35.8" height="14.35"/><polygon class="cls-32" points="173.38 329.43 168.67 349.94 174.51 352.2 182.93 331.57 173.38 329.43"/><path class="cls-27" d="m174.17,350.86l-5.31-2.84c-.23-.12-.52-.07-.69.13l-3.79,4.39c-.34.39-.3.98.09,1.31.05.04.1.08.16.11,2.23,1.15,4.26,2.09,7.01,3.57,3.24,1.75,2.21,1.69,6,3.8,2.28,1.27,4.11-1.12,3.21-1.77-4.16-2.96-4.71-5.02-5.57-7.54-.21-.51-.6-.92-1.09-1.16Z"/><path class="cls-27" d="m125.98,265.81l28.72-1.58s47.71,7.46,47.03,20.8c-.68,13.34-20.12,55.4-20.12,55.4l-11.39-3.17s8.67-42.28,14.33-49.29c0,0-35.63-4.18-44.55-6.56-4.91-1.31-16.73.9-14.02-15.6Z"/><path class="cls-6" d="m125.98,265.81l28.72-1.58s47.71,7.46,47.03,20.8c-.68,13.34-20.12,55.4-20.12,55.4l-11.39-3.17s8.67-42.28,14.33-49.29c0,0-35.63-4.18-44.55-6.56-4.91-1.31-16.73.9-14.02-15.6Z"/><path class="cls-42" d="m179.72,287.39c.13-2.69-.14-6.89-2.19-11.52-2.65-5.99-24.49-9.59-34.94-10.98l-16.61.92c-2.71,16.51,9.11,14.29,14.02,15.6,6.88,1.84,29.68,4.74,39.73,5.98Z"/><polygon class="cls-32" points="153.87 335.08 153.11 356.11 159.45 356.41 163.66 335.38 153.87 335.08"/><path class="cls-27" d="m158.99,354.5l-6.13.13c-.27,0-.5.19-.55.46l-1.18,5.79c-.11.51.22,1.02.73,1.12.07.01.13.02.2.02,2.55-.09,4.82-.27,8-.33,3.75-.07,2.81.4,7.22.38,2.66-.01,3.09-3.04,1.96-3.17-5.17-.56-6.69-2.1-8.71-3.91-.44-.35-.99-.52-1.55-.49Z"/><polygon class="cls-27" points="169.31 334.78 183.64 338.77 181.02 344.28 167.96 341.03 169.31 334.78"/><polygon class="cls-4" points="169.31 334.78 183.64 338.77 181.02 344.28 167.96 341.03 169.31 334.78"/><path class="cls-27" d="m133.67,265.81s38.44,1.36,40.7,13.11c2.26,11.76-10.63,64.44-10.63,64.44h-11.53s1.36-47.26,5.2-57.21c0,0-31.66,4.97-40.02-2.21-5.98-5.14,1.13-18.14,1.13-18.14h15.15Z"/><path class="cls-6" d="m133.67,265.81s38.44,1.36,40.7,13.11c2.26,11.76-10.63,64.44-10.63,64.44h-11.53s1.36-47.26,5.2-57.21c0,0-31.66,4.97-40.02-2.21-5.98-5.14,1.13-18.14,1.13-18.14h15.15Z"/><polygon class="cls-27" points="151.08 340.43 165.55 341.11 164.19 346.87 151.08 346.19 151.08 340.43"/><polygon class="cls-4" points="151.08 340.43 165.55 341.11 164.19 346.87 151.08 346.19 151.08 340.43"/><path class="cls-32" d="m184.73,221.22l6.16-2.3-5.25-5.07s-5.38,2.38-4.03,5.1l3.12,2.27Z"/><polygon class="cls-32" points="194.93 213.8 188.93 210.97 185.65 213.85 190.9 218.92 194.93 213.8"/><polygon class="cls-29" points="176.91 221.49 180.54 217.54 185.39 221.67 181.46 226.31 176.91 221.49"/><polygon class="cls-7" points="176.91 221.49 180.54 217.54 185.39 221.67 181.46 226.31 176.91 221.49"/><path class="cls-27" d="m152.32,197.16s3.79,4.31,9.26,18.39c5.47,14.08,11.53,9.98,18.19,2.38l5.47,4.98s-10.23,12.74-16.66,12.74c-7.16,0-14.12-11.11-15.52-18.86s-.74-19.63-.74-19.63Z"/><path class="cls-20" d="m153.65,205.31l-2.03-1.7-.95,5.42c.13,1.57.32,3.1.57,4.5.8,4.42,3.79,10.22,7.01,15.05-1.17-10.73-4.6-23.27-4.6-23.27Z"/><path class="cls-27" d="m114.77,239.1l.57,29.34,21.6.73c2.82.03,3.48-1.87,4.07-4.01l1.06-3.84.94,3.47c.57,2.11,3.53,2.46,5.67,2.02l9.41-2.33-2.16-28.9s1.45-21.76-1.95-35.69c-.65-2.65-3.07-4.5-5.72-5.13-6.04-1.44-19.03-3.25-33.77,2.56-1.37.54-2.21,1.94-2.03,3.4l2.31,38.37Z"/><path class="cls-8" d="m141.55,226.67c0,.5-.4.9-.9.9s-.9-.4-.9-.9.4-.9.9-.9.9.4.9.9Z"/><path class="cls-8" d="m142.44,239.1c0,.5-.4.9-.9.9s-.9-.4-.9-.9.4-.9.9-.9.9.4.9.9Z"/><path class="cls-8" d="m142.8,251.38c0,.5-.4.9-.9.9s-.9-.4-.9-.9.4-.9.9-.9.9.4.9.9Z"/><path class="cls-27" d="m127.11,192.94s4.77-2.07,10.75-.75l2.21,1.26.77,2.46-2.79,2.19-6.6.67-5.45-2.26.3-2.42.81-1.15Z"/><path class="cls-32" d="m139.18,194.21c-2.19-.58-3.74-4.39-1.93-6.84l-9.56-7.4c1.39,13.35.71,10.92-1.28,14.76,0,0,1.38,4.45,9.08,3.07,5-.9,3.69-3.58,3.69-3.58Z"/><path class="cls-42" d="m137.25,187.37l-9.62-7.14c.25,1.88.27,1.9.41,3.26,1.02,2.07,3.08,7.33,8.5,7.49-.24-.95.03-3.01.72-3.61Z"/><polygon class="cls-36" points="126.55 201.26 129.17 209.81 135.28 218.63 140.28 223.84 142.16 216.2 141.55 200.27 141.46 196.84 140.06 194.87 137.83 196.82 135.93 197.55 133.16 197.57 125.86 195.36 126.55 201.26"/><polygon class="cls-7" points="126.55 201.26 129.17 209.81 135.28 218.63 140.28 223.84 142.16 216.2 141.55 200.27 141.46 196.84 140.06 194.87 137.83 196.82 135.93 197.55 133.16 197.57 125.86 195.36 126.55 201.26"/><polygon class="cls-18" points="126.55 201.26 129.17 209.81 135.28 218.63 140.28 223.84 142.16 216.2 141.55 200.27 141.46 196.84 140.06 194.87 137.83 196.82 135.93 197.55 133.16 197.57 125.86 195.36 126.55 201.26"/><path class="cls-28" d="m132.44,200.27s.89,1.96,2.84,3.63c0,0-1.22,8.72.66,14.82l4.35,5.12,1.27-6.33s-1.95-10.13-4.56-13.96c0,0,1.09-2.06,1.45-4.17l-1.56-1.28s-2.17,1.55-3.47.47l-.98,1.7Z"/><path class="cls-29" d="m126.38,193.73s4.02,3.43,8.07,3.43,4.49-4.22,4.49-4.22l1.7,1.84s.27,3-1.39,6.15l-4.22-2.85-2.86,4.11s-4.47-2.15-6.66-6.01l.87-2.46Z"/><path class="cls-7" d="m126.38,193.73s4.02,3.43,8.07,3.43,4.49-4.22,4.49-4.22l1.7,1.84s.27,3-1.39,6.15l-4.22-2.85-2.86,4.11s-4.47-2.15-6.66-6.01l.87-2.46Z"/><path class="cls-27" d="m127.11,192.94s-3.3,10.17,12.95,29.58c0,0,2.92-23.77-2.2-30.32l3.55,1.41,3.7,5.59-2.71,1.74,3.35,1.49s-.48,7.7-5.2,22.52c0,0-10.68-8.26-17.66-19.41l3.25-2.59-4.34-.69,1.93-7.72,3.38-1.6Z"/><path class="cls-1" d="m127.11,192.94s-3.3,10.17,12.95,29.58c0,0,2.92-23.77-2.2-30.32l3.55,1.41,3.7,5.59-2.71,1.74,3.35,1.49s-.48,7.7-5.2,22.52c0,0-10.68-8.26-17.66-19.41l3.25-2.59-4.34-.69,1.93-7.72,3.38-1.6Z"/><path class="cls-20" d="m112.89,203.56l4.23,23.57.5-.61c2.32-12.09-.92-23.66-.92-23.66l-1.29.69-2.52.02Z"/><path class="cls-27" d="m139.81,161.86s4.6,8.51,1.06,13.69c-3.54,5.18-9.55-11.59-9.55-11.59l8.49-2.11Z"/><path class="cls-32" d="m143.88,180.37c-.02.35-.06.69-.12,1.02-.2,1.23-.64,2.36-1.24,3.37-.64,1.07-1.47,1.99-2.43,2.73-1.75,1.33-3.93,2.04-6.15,1.85-1.47-.13-2.97-.65-4.37-1.65-4.04-2.85-4.66-6.86-6.26-13.55-.36-1.44-.4-2.94-.07-4.37,1.12-5.08,6.15-8.28,11.21-7.15,7.11,1.52,9.82,11.41,9.44,17.76Z"/><path class="cls-27" d="m133.92,174.22c.06.55.46.95.83.88.37-.07.57-.57.48-1.12-.09-.55-.47-.94-.83-.88-.36.06-.57.56-.48,1.12Z"/><path class="cls-27" d="m140.15,173.11c.06.55.47.94.83.88.36-.06.57-.57.48-1.12-.09-.55-.47-.94-.83-.88-.36.06-.57.59-.48,1.12Z"/><path class="cls-33" d="m138.22,173.74c.95,1.57,2.12,3,3.47,4.25-.67.68-1.61,1.04-2.56.96l-.91-5.21Z"/><path class="cls-27" d="m141.99,170.04c-.1.08-.22.1-.34.05-.77-.33-1.65-.28-2.37.14-.15.1-.35.07-.46-.08-.1-.15-.07-.35.08-.46,0,0,0,0,0,0,.9-.55,2.02-.63,2.99-.21.17.06.26.25.19.42,0,0,0,0,0,0-.02.05-.06.09-.09.13Z"/><path class="cls-27" d="m132.24,171.94c-.07,0-.13,0-.19-.03-.14-.11-.16-.32-.05-.46,0,0,0,0,0,0,.66-.83,1.68-1.3,2.73-1.24.18.02.31.18.29.36h0c-.02.18-.18.3-.36.29h0c-.84-.02-1.63.36-2.15,1.02-.08.06-.18.09-.27.07Z"/><path class="cls-27" d="m126.78,164.82l1.03,2.87c-.85.74-1.19,1.96-.48,3.03,1.52,2.27.98,6.45-.58,8.42,0,0-.3-1.06-1.15-.6-.85.46.67,6.01,3.05,8.29,0,0-3.23-1.81-6.08-7.36-2.64-5.13-3.84-9.63-3.2-11.99l7.4-2.66Z"/><path class="cls-32" d="m121.33,180.22c1.02,1.4,2.56,2.34,4.27,2.6,2.27.34,3.12-1.76,2.26-3.76-.78-1.77-2.91-4.14-5.07-3.54-2.16.6-2.69,2.96-1.46,4.7Z"/><path class="cls-27" d="m119.21,168.93s-1.57-3.73,3.89-8.09c5.46-4.37,12.92-2.34,16.44-5.84,3.52-3.5,5.99,7.22-2.48,10.32-8.48,3.1-17.84,3.61-17.84,3.61Z"/><path class="cls-27" d="m139,180.96c-.72.81-1.68,2.45-1.68,2.45-.16-.06-.33-.12-.49-.19-2.21-.87-2.94-2.01-3.09-3-.08-.54.03-1.05.16-1.44.15-.45.37-.74.37-.74.89,1.16,2.89,2.13,3.98,2.61.45.2.75.31.75.31Z"/><path class="cls-36" d="m138.25,180.65l-.51.71c-2.08-.83-3.43-1.69-3.83-2.57.15-.45.37-.74.37-.74.89,1.16,2.89,2.13,3.98,2.61Z"/><path class="cls-33" d="m136.83,183.22c-2.21-.87-2.94-2.01-3.09-3,.74.33,1.6.8,2.26,1.45.51.5.73,1.04.83,1.54Z"/><path class="cls-27" d="m100.04,229.67c1.05,2.24,2.84,2.46,4.69,1.54,1.46-.72,2.96-2.16,4.14-3.86.84-1.21,1.97-3.02,3.13-4.94,2.48-4.15,5.05-8.76,5.05-8.76,1.56-2.17,2.56-4.72,1.7-8.32-1.5-4.45-3.34-7.01-5.17-7.23-4.98,2.39-15.42,27.55-13.55,31.57Z"/><path class="cls-16" d="m104.73,231.21c1.46-.72,2.96-2.16,4.14-3.86.84-1.21,1.97-3.02,3.13-4.94-1.42-2.61-2.93-4.67-2.93-4.67l-2.52,7.07s-4.41,1-5.12,3.31c-.26.87,1.24,2.11,3.3,3.09Z"/><path class="cls-27" d="m104.88,210.99l8.34,31.78c.2.74.98,1.27,1.74,1.17l22.12-2.95c.76-.1,1.23-.79,1.03-1.54l-8.34-31.78c-.2-.74-.98-1.27-1.74-1.17l-22.12,2.95c-.76.1-1.23.79-1.03,1.54Z"/><path class="cls-12" d="m104.88,210.99l8.34,31.78c.2.74.98,1.27,1.74,1.17l21.12-2.81c.76-.1,1.23-.79,1.03-1.54l-8.34-31.78c-.2-.74-.98-1.27-1.74-1.17l-21.12,2.81c-.76.1-1.23.79-1.03,1.54Z"/><path class="cls-26" d="m120.24,223.11c1.1-.15,2.22.6,2.5,1.67.28,1.07-.38,2.06-1.48,2.2-1.1.15-2.22-.6-2.5-1.67,1.1-.15,1.76-1.13,1.48-2.2Z"/><path class="cls-27" d="m103.09,237.16c1.49.79,4.85-.41,5.88-.81.2-.07.31-.12.31-.12,0,0,1.84-5.99-2.94-9.23-.03-.02-.07-.05-.11-.06-1.52-.82-6.24.23-6.38,1.83-.57,6.39,1.47,7.46,3.25,8.39Z"/><path class="cls-16" d="m106,232.04c.58,2.16,1.85,3.5,2.96,4.3.2-.07.31-.12.31-.12,0,0,1.84-5.99-2.94-9.23-.03-.02-.07-.05-.11-.06-.42.54-1.07,1.96-.22,5.11Z"/><path class="cls-32" d="m112.89,224.45s-3.07-.13-4.48,0c-1.41.13-.98,4.67-.98,4.67l-1.21.65s-.98,2.67,1.13,4.01l1.08-.37s.31,1.07,1.18,1.61c.87.54,5.15-.67,5.15-.67l-1.87-9.9Z"/><path class="cls-28" d="m192.58,243.94c.57,0,1.02-.46,1.02-1.02s-.46-1.02-1.02-1.02h-27.89c-.57,0-1.02.46-1.02,1.02s.46,1.02,1.02,1.02h27.89Z"/><path class="cls-17" d="m192.58,243.94c.57,0,1.02-.46,1.02-1.02s-.46-1.02-1.02-1.02h-27.89c-.57,0-1.02.46-1.02,1.02s.46,1.02,1.02,1.02h27.89Z"/><path class="cls-28" d="m190.21,242.17l3.71-26.41c.14-.97,1.04-1.76,2.01-1.76h3.56v29.93h-7.76c-.97,0-1.65-.79-1.51-1.76Z"/><path class="cls-23" d="m190.21,242.17l3.71-26.41c.14-.97,1.04-1.76,2.01-1.76h3.56v29.93h-7.76c-.97,0-1.65-.79-1.51-1.76Z"/><path class="cls-29" d="m193.26,243.93h31.53c.97,0,1.87-.79,2.01-1.76l3.71-26.41c.14-.97-.54-1.76-1.51-1.76h-31.53c-.97,0-1.87.79-2.01,1.76l-3.71,26.41c-.14.97.54,1.76,1.51,1.76Z"/><path class="cls-28" d="m193.26,243.93h31.53c.97,0,1.87-.79,2.01-1.76l3.71-26.41c.14-.97-.54-1.76-1.51-1.76h-31.53c-.97,0-1.87.79-2.01,1.76l-3.71,26.41c-.14.97.54,1.76,1.51,1.76Z"/><path class="cls-3" d="m208.51,230.33c-.21,1.5.83,2.71,2.33,2.71s2.88-1.22,3.1-2.71c.21-1.5-.83-2.71-2.33-2.71s-2.89,1.22-3.1,2.71Z"/><polygon class="cls-27" points="96.26 362.64 98.87 362.64 102.24 250.46 98.78 250.46 96.26 362.64"/><polygon class="cls-24" points="96.26 362.64 98.87 362.64 102.24 250.46 98.78 250.46 96.26 362.64"/><polygon class="cls-27" points="138.41 250.46 138.41 362.64 135.64 362.64 132.39 255.59 99 255.59 96.56 362.64 93.82 362.64 93.82 250.46 138.41 250.46"/><polygon class="cls-12" points="138.41 250.46 138.41 362.64 135.64 362.64 132.39 255.59 99 255.59 96.56 362.64 93.82 362.64 93.82 250.46 138.41 250.46"/><polygon class="cls-27" points="138.41 362.64 141.02 362.64 141.87 250.46 138.41 250.46 138.41 362.64"/><polygon class="cls-24" points="138.41 362.64 141.02 362.64 141.87 250.46 138.41 250.46 138.41 362.64"/><polygon class="cls-27" points="238.15 362.64 240.77 362.64 244.13 250.46 240.68 250.46 238.15 362.64"/><polygon class="cls-24" points="238.15 362.64 240.77 362.64 244.13 250.46 240.68 250.46 238.15 362.64"/><polygon class="cls-27" points="280.31 250.46 280.31 362.64 277.54 362.64 274.29 255.59 240.9 255.59 238.46 362.64 235.72 362.64 235.72 250.46 280.31 250.46"/><polygon class="cls-12" points="280.31 250.46 280.31 362.64 277.54 362.64 274.29 255.59 240.9 255.59 238.46 362.64 235.72 362.64 235.72 250.46 280.31 250.46"/><polygon class="cls-27" points="280.31 362.64 282.92 362.64 283.76 250.46 280.31 250.46 280.31 362.64"/><polygon class="cls-24" points="280.31 362.64 282.92 362.64 283.76 250.46 280.31 250.46 280.31 362.64"/><rect class="cls-27" x="140.57" y="244.01" width="147.77" height="6.45" transform="translate(428.9 494.48) rotate(180)"/><rect class="cls-18" x="140.57" y="244.01" width="147.77" height="6.45" transform="translate(428.9 494.48) rotate(180)"/><rect class="cls-27" x="89.25" y="244.01" width="55.34" height="6.45" transform="translate(233.83 494.48) rotate(180)"/><rect class="cls-26" x="89.25" y="244.01" width="55.34" height="6.45" transform="translate(233.83 494.48) rotate(180)"/><path class="cls-35" d="m259.87,206.95l2.54-4.63,3.42,4.76s-2.52,3.99-4.52,2.61l-1.44-2.74Z"/><polygon class="cls-35" points="266.95 199.72 268.5 204.81 265.83 207.08 262.41 202.32 266.95 199.72"/><path class="cls-42" d="m263.65,201.61c.41,2.11,1.12,3.95,2.18,5.47l.56-.47-1.75-5.56-.98.56Z"/><polygon class="cls-35" points="259.22 215.93 259.87 206.95 263.25 207.59 263.25 216.64 259.22 215.93"/><polygon class="cls-35" points="215.75 324.72 220.91 326.74 224.63 319.74 228 313.37 222.28 309.94 218.82 317.76 215.75 324.72"/><polygon class="cls-16" points="218.82 317.76 224.63 319.74 228 313.37 222.28 309.94 218.82 317.76"/><path class="cls-27" d="m219.89,313.94l7.03,3.77s26.54-46.67,30.63-46.28c4.08.39,42.81,25.07,54.61,15.95,11.81-9.11.32-36.55.32-36.55,0,0-24.43-6.98-27.08-1.61-.52,1.04-1.21,3.12-1.75,4.9-.52,1.68-.91,3.1-.91,3.1,0,0,0,0-.02-.01-.74-.3-24.87-10.19-35.64-4.89-10.94,5.4-27.18,61.62-27.18,61.62Z"/><path class="cls-14" d="m219.89,313.94l7.03,3.77s26.54-46.67,30.63-46.28c4.08.39,42.81,25.07,54.61,15.95,11.81-9.11.32-36.55.32-36.55,0,0-24.43-6.98-27.08-1.61-.52,1.04-1.21,3.12-1.75,4.9-.52,1.68-.91,3.1-.91,3.1,0,0,0,0-.02-.01-.74-.3-24.87-10.19-35.64-4.89-10.94,5.4-27.18,61.62-27.18,61.62Z"/><polygon class="cls-35" points="258.05 352 263.56 351.37 263.59 343.6 263.6 336.46 256.94 336.15 257.53 344.54 258.05 352"/><polygon class="cls-16" points="257.54 344.71 263.6 343.75 263.61 336.54 256.94 336.19 257.54 344.71"/><polygon class="cls-27" points="230.35 315.39 220.07 310.24 219 314.6 226.78 318.61 230.35 315.39"/><path class="cls-27" d="m293.91,287.45s-1.69-.19-27.66-5c0,0-.59,33.21-1.82,57.97l-8,.26s-11.47-54.95-10.13-63.24c1.35-8.29,11.22-9.42,11.22-9.42,0,0,17.14,13.32,36.38,19.44Z"/><path class="cls-19" d="m293.91,287.45s-1.69-.19-27.66-5c0,0-.59,33.21-1.82,57.97l-8,.26s-11.47-54.95-10.13-63.24c1.35-8.29,11.22-9.42,11.22-9.42,0,0,17.14,13.32,36.38,19.44Z"/><path class="cls-21" d="m293.91,287.45s-1.69-.19-27.66-5c0,0-.59,33.21-1.82,57.97l-8,.26s-11.47-54.95-10.13-63.24c1.35-8.29,11.22-9.42,11.22-9.42,0,0,17.14,13.32,36.38,19.44Z"/><polygon class="cls-27" points="265.9 338.2 254.99 337.95 256.49 342.44 265.34 342.52 265.9 338.2"/><path class="cls-27" d="m205.48,333.87c.86-.26,1.77-.36,2.67-.3,0,0,3.33-1.39,7.36-8.02,0,0,3.44.45,3.44.45,1.68.22,3.95,2.16,3.58,3.74-.78,3.33-3.46,6.16-4.89,9.25l-.56-.23,1.76-4.98c.59-1.69-1.47-.26-2.56,1.38-1.09,1.64-2.64,3.23-6.31,1.84-4.28-1.64-5.98-2.52-4.48-3.13Z"/><path class="cls-35" d="m216.38,323.79s-5.53,8.39-8.23,9.78c0,0,3.04,2.43,7.09-1.49,5.24-5.07,6.13-4.84,6.13-4.84,0,0,.06-.47-.15-1.47-.42-1.93-4.84-1.99-4.84-1.99Z"/><path class="cls-27" d="m249.81,361.77c.78-.46,1.63-.77,2.52-.92,0,0,2.91-2.14,5.25-9.54,0,0,3.44-.38,3.45-.38,2.84-.31,4.52,1.38,4.38,3.43-.04,2.61-2.57,9.51-2.57,9.51l-.6-.09.53-5.26c.17-1.79-1.49.09-2.16,1.95-.67,1.85-1.8,3.76-5.7,3.28-4.55-.58-6.4-1.04-5.09-1.98Z"/><path class="cls-35" d="m258.01,349.38s-3.38,9.46-5.68,11.46c0,0,3.53,1.64,6.54-3.13,3.89-6.17,5.45-5.97,5.45-5.97,0,0-.69-.66-1.13-1.58-.86-1.77-5.17-.78-5.17-.78Z"/><path class="cls-27" d="m267.12,192.98c-.08,0-.16-.04-.21-.11-.8-1.23-2.56-1.2-2.58-1.2h0c-.14,0-.25-.11-.25-.24,0-.14.11-.25.24-.26.09,0,2.05-.04,3.01,1.42.08.12.04.27-.07.35-.04.03-.09.04-.14.04Z"/><path class="cls-31" d="m265.16,195.95s-1.11,1.65-2.23,2.57c0,0,.48.97,1.68.94l.55-3.51Z"/><path class="cls-27" d="m264.19,193.99c-.07.55.17,1.03.53,1.08.36.05.72-.36.79-.91.07-.55-.17-1.03-.53-1.08-.36-.05-.72.36-.79.91Z"/><path class="cls-27" d="m265.13,193.13l-1.13-.62s.46,1.08,1.13.62Z"/><path class="cls-35" d="m278.41,207.11c-.07.06-.15.11-.23.15-1.05.67-2.25,1.31-3.59,1.55-3.75.68-6.26.04-7.84-1.72h0c-2.19-2.63-2.56-7.12-1.97-12.49.26-2.46.72-4.59,1.48-6.23,0-.02.01-.08.02-.09.04-.07.07-.16.1-.22,1.13-2.28,2.89-3.71,5.62-4.22.94-.17,2.01-.24,3.2-.2,10.5.4,11.54,17.88,3.2,23.48Z"/><path class="cls-16" d="m278.18,207.26c-1.05.67-2.24,1.16-3.59,1.4-3.75.68-6.26-.08-7.83-1.86,1.8.49,4.25.76,6.68-.22,1.54-.62,3.19-.18,4.73.69Z"/><path class="cls-27" d="m266.26,188.3s-.94,7.33,5.88,10.83c0,0,2.62,7.79,7.02,8.11,6,.44,11.72-7.85,10.06-16.67-2.15-11.43-19.22-13.18-22.97-2.28Z"/><path class="cls-35" d="m268.72,196.85c.06-1.15,1.08-3.03,2.85-2.68,1.83.36,2.64,4.96-1.95,5.76-.66.11-1.02-.68-.89-3.08Z"/><path class="cls-27" d="m279.46,181.11s-6.93-2.12-10.95.52c-4.69,3.08-6.58,6.4-1.47,11.96,0,0,11.97-3.25,15.85-2.25s6.63,2.28,6.63,2.28c1.2-7.74-6.06-13.91-10.06-12.51Z"/><path class="cls-35" d="m272.87,208.09s5.15,2.52,3.65,8.04l13.13-5.47s-7.17-.45-6.81-5.49c0,0-7.5-2.88-9.97,2.91Z"/><path class="cls-27" d="m287,190.68s2.59-7.47,8.48-6.18c5.89,1.29,5.43,7.61,1.22,9.56s-10.11,1.21-9.7-3.38Z"/><path class="cls-27" d="m293.95,194.29s5.22-.03,4.57,4.44c0,0-.45-1.45-1.62-2.04,0,0,1.58,1.21,0,3.3,0,0,.63-1.36-1.52-2.32-2.16-.95-8.06-.86-6.96-3.78,1.1-2.92,5.53.4,5.53.4Z"/><path class="cls-28" d="m288.74,210.3l-3.2-2.3s-10.53,1.43-10.64,8.14c-.11,6.72,13.85-5.84,13.85-5.84Z"/><path class="cls-16" d="m282.73,257.22l10.04,5.04s-3.33-5.56-9.13-8.14c-.52,1.68-.91,3.1-.91,3.1Z"/><path class="cls-27" d="m290.67,210.3s-7.9-1.52-18.89,5.84c0,0-3.68,16.1,11.88,37.98l29.5-1.85s-7.99-32.24-22.48-41.97Z"/><path class="cls-2" d="m272.66,230.97c.49,2.07,1.17,4.32,2.08,6.72,1.84,4.91,4.65,10.45,8.9,16.43l29.5-1.85s-7.99-32.23-22.48-41.97c0,0-7.89-1.51-18.9,5.84,0,0-1.3,5.67.9,14.84Z"/><path class="cls-16" d="m272.66,230.97c.49,2.07,1.17,4.32,2.08,6.72.32-3.51,1.49-8.64,1.49-8.64-.76.08-2.98,1.63-3.57,1.92Z"/><path class="cls-27" d="m280.1,221.87c-5.22,9.41-10.74,18.66-16.38,27.82-2.47,3.98-8.65,1.96-8.35-2.66.38-6.04.85-12.07,1.36-18.1.55-6.04,1.14-12.07,1.93-18.08.44-2.95,4.72-2.79,4.95.17.73,12.09.88,24.21.86,36.32,0,0-8.51-2.41-8.51-2.41,3.71-7.09,7.55-14.11,11.46-21.08,1.33-2.31,2.63-4.64,3.99-6.93,3.48-5.47,11.61-.83,8.69,4.95h0Z"/><path class="cls-13" d="m280.1,221.87c-5.22,9.41-10.74,18.66-16.38,27.82-2.47,3.98-8.65,1.96-8.35-2.66.38-6.04.85-12.07,1.36-18.1.55-6.04,1.14-12.07,1.93-18.08.44-2.95,4.72-2.79,4.95.17.73,12.09.88,24.21.86,36.32,0,0-8.51-2.41-8.51-2.41,3.71-7.09,7.55-14.11,11.46-21.08,1.33-2.31,2.63-4.64,3.99-6.93,3.48-5.47,11.61-.83,8.69,4.95h0Z"/><polygon class="cls-42" points="264.45 228.83 261.91 233.38 264.2 223.14 264.45 228.83"/><path class="cls-27" d="m334.05,363.09l-25.21-9.28-25.48,9.29c-.88.32-1.81-.33-1.81-1.27h0c0-.52.3-1,.78-1.22l26.51-12.3,26.24,12.3c.47.22.78.7.78,1.22h0c0,.94-.93,1.59-1.81,1.26Z"/><path class="cls-26" d="m334.05,363.09l-25.21-9.28-25.48,9.29c-.88.32-1.81-.33-1.81-1.27h0c0-.52.3-1,.78-1.22l26.51-12.3,26.24,12.3c.47.22.78.7.78,1.22h0c0,.94-.93,1.59-1.81,1.26Z"/><polygon class="cls-42" points="302.91 355.98 308.85 353.81 314.52 355.9 314.52 350.96 308.85 348.31 302.91 351.06 302.91 355.98"/><path class="cls-27" d="m308.71,363.31h0c-1.15,0-2.12-.88-2.23-2.03l-.71-7.47v-62.02h5.88v62.02l-.71,7.47c-.11,1.15-1.07,2.03-2.23,2.03Z"/><path class="cls-26" d="m308.71,363.31h0c-1.15,0-2.12-.88-2.23-2.03l-.71-7.47v-62.02h5.88v62.02l-.71,7.47c-.11,1.15-1.07,2.03-2.23,2.03Z"/><rect class="cls-42" x="305.77" y="291.79" width="5.88" height="7.22"/><path class="cls-28" d="m349.6,286.15c-6.65-1.7-13.49-2.63-20.34-2.8-7.06-.18-33.5-.03-39.78-.03-7.64,0-15.28.94-22.7,2.83-4.66,1.19-3.22,7.92.99,7.99.37,0,80.29-.02,80.59,0,4.4.2,6.01-6.77,1.25-7.99Z"/><path class="cls-25" d="m349.6,286.15c-6.65-1.7-13.49-2.63-20.34-2.8-7.06-.18-33.5-.03-39.78-.03-7.64,0-15.28.94-22.7,2.83-4.66,1.19-3.22,7.92.99,7.99.37,0,80.29-.02,80.59,0,4.4.2,6.01-6.77,1.25-7.99Z"/><path class="cls-28" d="m268.95,294c13.43-3.42,27.65-3.42,41.07,0,5.08,1.3,7.24-6.55,2.16-7.85-14.83-3.78-30.57-3.78-45.4,0-5.07,1.29-2.92,9.15,2.16,7.85h0Z"/><g class="cls-43"><path class="cls-28" d="m268.95,294c13.43-3.42,27.65-3.42,41.07,0,5.08,1.3,7.24-6.55,2.16-7.85-14.83-3.78-30.57-3.78-45.4,0-5.07,1.29-2.92,9.15,2.16,7.85h0Z"/></g><path class="cls-28" d="m328.23,227.9c-.84-.02-1.69.36-2.25,1.3-10.77,17.91-14.59,39.43-10.88,59.97.23,1.29,1.11,1.89,2.09,1.95,1.63.11,30.65,0,31.7,0,1.58,0,3.32-1.35,2.95-3.4-3.45-19.08.35-39.19,10.33-55.79,1.24-2.06-.59-4-2.44-4.03-.84-.02-29.66.04-31.51,0Z"/><path class="cls-5" d="m328.23,227.9c-.84-.02-1.69.36-2.25,1.3-10.77,17.91-14.59,39.43-10.88,59.97.23,1.29,1.11,1.89,2.09,1.95,1.63.11,30.65,0,31.7,0,1.58,0,3.32-1.35,2.95-3.4-3.45-19.08.35-39.19,10.33-55.79,1.24-2.06-.59-4-2.44-4.03-.84-.02-29.66.04-31.51,0Z"/><path class="cls-28" d="m320.34,287.72c-3.45-19.08.35-39.19,10.33-55.79,1.8-3-2.89-5.73-4.69-2.74-10.77,17.91-14.59,39.43-10.88,59.97.62,3.43,5.85,1.98,5.23-1.44h0Z"/><g class="cls-47"><path class="cls-28" d="m320.34,287.72c-3.45-19.08.35-39.19,10.33-55.79,1.8-3-2.89-5.73-4.69-2.74-10.77,17.91-14.59,39.43-10.88,59.97.62,3.43,5.85,1.98,5.23-1.44h0Z"/></g><path class="cls-27" d="m315.05,158.96c-7.47,7.26-19.41,7.1-26.68-.37-7.26-7.47-7.1-19.41.37-26.68s19.41-7.1,26.68.37c7.26,7.47,7.1,19.41-.37,26.68Z"/><path class="cls-28" d="m301.9,145.44l13.15,13.53c-7.42,7.21-19.46,7.05-26.68-.37-7.21-7.42-7.05-19.46.37-26.68,3.66-3.56,8.61-5.48,13.71-5.33l-.56,18.86Z"/><path class="cls-18" d="m301.9,145.44l13.15,13.53c-2.01,1.95-4.42,3.43-7.07,4.33-2.65.9-5.47,1.2-8.25.88l2.17-18.74Z"/><path class="cls-12" d="m301.9,145.44l16.34,9.43c-.82,1.43-1.83,2.74-3,3.91-7.32,7.32-19.36,7.32-26.68,0-.69-.69-1.33-1.44-1.91-2.23l15.25-11.11Z"/><path class="cls-36" d="m294.81,152.52c-3.91-3.91-3.91-10.26,0-14.17s10.26-3.91,14.17,0,3.91,10.26,0,14.17-10.26,3.91-14.17,0Z"/><path class="cls-28" d="m361.83,129.9h-24.04c-.19,0-.34-.15-.34-.34s.15-.34.34-.34h24.04c.19,0,.34.15.34.34s-.15.34-.34.34Z"/><path class="cls-28" d="m357.75,137.84h-19.96c-.19,0-.34-.15-.34-.34s.15-.34.34-.34h19.96c.19,0,.34.15.34.34s-.15.34-.34.34Z"/><path class="cls-28" d="m365.91,145.78h-28.12c-.19,0-.34-.15-.34-.34s.15-.34.34-.34h28.12c.19,0,.34.15.34.34s-.15.34-.34.34Z"/><path class="cls-28" d="m361.83,153.72h-24.04c-.19,0-.34-.15-.34-.34s.15-.34.34-.34h24.04c.19,0,.34.15.34.34s-.15.34-.34.34Z"/><path class="cls-28" d="m363.19,161.66h-25.4c-.19,0-.34-.15-.34-.34s.15-.34.34-.34h25.4c.19,0,.34.15.34.34s-.15.34-.34.34Z"/><rect class="cls-28" x="327.2" y="127.2" width="4.84" height="4.71"/><rect class="cls-28" x="327.2" y="135.14" width="4.84" height="4.71"/><rect class="cls-28" x="327.2" y="143.09" width="4.84" height="4.71"/><rect class="cls-28" x="327.2" y="151.03" width="4.84" height="4.71"/><rect class="cls-28" x="327.2" y="158.97" width="4.84" height="4.71"/><rect class="cls-10" x="327.2" y="135.14" width="4.84" height="4.71"/><rect class="cls-10" x="327.2" y="151.03" width="4.84" height="4.71"/><rect class="cls-23" x="327.2" y="158.97" width="4.84" height="4.71"/><path class="cls-28" d="m368.01,171.81h-86.3c-4.65,0-8.43-3.78-8.43-8.43v-38.4c0-4.65,3.78-8.43,8.43-8.43h86.3c4.65,0,8.43,3.78,8.43,8.43v38.4c0,4.65-3.78,8.43-8.43,8.43Zm-86.3-54.27c-4.1,0-7.43,3.33-7.43,7.43v38.4c0,4.1,3.33,7.43,7.43,7.43h86.3c4.1,0,7.43-3.33,7.43-7.43v-38.4c0-4.1-3.33-7.43-7.43-7.43h-86.3Z"/><rect class="cls-28" x="190.5" y="139.15" width="2.72" height="49.78"/><rect class="cls-9" x="190.5" y="139.15" width="2.72" height="49.78"/><rect class="cls-28" x="195.02" y="150.21" width="2.72" height="38.73"/><rect class="cls-10" x="195.02" y="150.21" width="2.72" height="38.73"/><rect class="cls-28" x="181.46" y="168.63" width="2.72" height="20.3"/><rect class="cls-28" x="185.98" y="161.26" width="2.72" height="27.67"/><rect class="cls-28" x="199.54" y="146.52" width="2.72" height="42.41"/><rect class="cls-34" x="195.02" y="155.2" width="2.72" height="33.74"/><rect class="cls-34" x="199.54" y="153.13" width="2.72" height="35.81"/><rect class="cls-34" x="190.5" y="143.54" width="2.72" height="45.39"/><rect class="cls-34" x="185.98" y="171.08" width="2.72" height="17.85"/><rect class="cls-5" x="181.46" y="168.63" width="2.72" height="20.3"/><rect class="cls-34" x="181.46" y="173.25" width="2.72" height="15.68"/><path class="cls-28" d="m203.7,189.1h-23.68c-.09,0-.17-.07-.17-.17s.07-.17.17-.17h23.68c.09,0,.17.07.17.17s-.07.17-.17.17Z"/><rect class="cls-29" x="228.36" y="150.21" width="2.72" height="38.73"/><rect class="cls-34" x="228.36" y="150.21" width="2.72" height="38.73"/><rect class="cls-27" x="232.88" y="151.28" width="2.72" height="37.66"/><rect class="cls-34" x="232.88" y="151.28" width="2.72" height="37.66"/><rect class="cls-29" x="219.32" y="157.69" width="2.72" height="31.24"/><rect class="cls-34" x="223.84" y="156.8" width="2.72" height="32.14"/><rect class="cls-34" x="237.4" y="160.8" width="2.72" height="28.14"/><rect class="cls-28" x="232.88" y="156.13" width="2.72" height="32.81"/><rect class="cls-28" x="237.4" y="165.18" width="2.72" height="23.76"/><rect class="cls-28" x="228.36" y="153.62" width="2.72" height="35.31"/><rect class="cls-28" x="223.84" y="162.39" width="2.72" height="26.55"/><rect class="cls-34" x="219.32" y="157.69" width="2.72" height="31.24"/><rect class="cls-28" x="219.32" y="164.8" width="2.72" height="24.13"/><path class="cls-27" d="m241.56,189.1h-23.68c-.09,0-.17-.07-.17-.17s.07-.17.17-.17h23.68c.09,0,.17.07.17.17s-.07.17-.17.17Z"/><path class="cls-28" d="m245.15,199.82h-68.04c-4.65,0-8.43-3.78-8.43-8.43v-52.42c0-4.65,3.78-8.43,8.43-8.43h68.04c4.65,0,8.43,3.78,8.43,8.43v52.42c0,4.65-3.78,8.43-8.43,8.43Zm-68.04-68.28c-4.1,0-7.43,3.33-7.43,7.43v52.42c0,4.1,3.33,7.43,7.43,7.43h68.04c4.1,0,7.43-3.33,7.43-7.43v-52.42c0-4.1-3.33-7.43-7.43-7.43h-68.04Z"/><g class="cls-45"><polygon class="cls-22" points="315.11 96.73 246.02 96.73 246.02 57.99 246.57 57.99 246.57 96.17 315.11 96.17 315.11 96.73"/></g><rect class="cls-9" x="249.63" y="90.3" width="2.99" height="5.6"/><rect class="cls-28" x="249.63" y="90.3" width="2.99" height="1.63"/><rect class="cls-9" x="255.73" y="81.35" width="2.99" height="14.55"/><rect class="cls-28" x="255.73" y="81.35" width="2.99" height="4.24"/><rect class="cls-9" x="261.82" y="84.7" width="2.99" height="11.19"/><rect class="cls-28" x="261.82" y="84.7" width="2.99" height="3.26"/><rect class="cls-9" x="267.92" y="79.56" width="2.99" height="16.34"/><rect class="cls-28" x="267.92" y="79.56" width="2.99" height="4.76"/><rect class="cls-9" x="274.02" y="74.81" width="2.99" height="21.08"/><rect class="cls-28" x="274.02" y="74.81" width="2.99" height="6.14"/><rect class="cls-9" x="280.11" y="71.22" width="2.99" height="24.68"/><rect class="cls-28" x="280.11" y="71.22" width="2.99" height="7.18"/><rect class="cls-9" x="286.21" y="75.37" width="2.99" height="20.52"/><rect class="cls-28" x="286.21" y="75.37" width="2.99" height="5.98"/><rect class="cls-9" x="292.31" y="74.47" width="2.99" height="21.42"/><rect class="cls-28" x="292.31" y="74.47" width="2.99" height="6.24"/><rect class="cls-9" x="298.41" y="69.01" width="2.99" height="26.88"/><rect class="cls-28" x="298.41" y="69.01" width="2.99" height="7.83"/><rect class="cls-9" x="304.5" y="63.5" width="2.99" height="32.39"/><rect class="cls-28" x="304.5" y="63.5" width="2.99" height="9.43"/><rect class="cls-9" x="310.6" y="58.69" width="2.99" height="37.21"/><rect class="cls-28" x="310.6" y="58.69" width="2.99" height="10.83"/><rect class="cls-16" x="261.82" y="52.14" width="36.97" height="1.54"/><path class="cls-28" d="m317.14,106.62h-73.66c-4.65,0-8.43-3.78-8.43-8.43v-51.45c0-4.65,3.78-8.43,8.43-8.43h73.66c4.65,0,8.43,3.78,8.43,8.43v51.45c0,4.65-3.78,8.43-8.43,8.43Zm-73.66-67.31c-4.1,0-7.43,3.33-7.43,7.43v51.45c0,4.1,3.33,7.43,7.43,7.43h73.66c4.1,0,7.43-3.33,7.43-7.43v-51.45c0-4.1-3.33-7.43-7.43-7.43h-73.66Z"/><path class="cls-29" d="m167.34,75.44s.04-5,0-5-.04,5,0,5h0Z"/><path class="cls-28" d="m113.97,107.39s12.95-21.12,17.06-21.49c4.11-.38,8.8,11.92,12.18,10.75,3.38-1.17,23.1-36.1,27.6-35.16,4.51.94,11.64,19.76,13.33,19.46s3.94-3.77,8.83,5.85,8.83,20.6,8.83,20.6h-87.83Z"/><path class="cls-10" d="m113.97,107.39s12.95-21.12,17.06-21.49c4.11-.38,8.8,11.92,12.18,10.75,3.38-1.17,23.1-36.1,27.6-35.16,4.51.94,11.64,19.76,13.33,19.46s3.94-3.77,8.83,5.85,8.83,20.6,8.83,20.6h-87.83Z"/><path class="cls-28" d="m192.98,107.39s-16.52-36.24-21.78-37.88c-5.26-1.64-12.4,14.43-15.96,17.28-3.57,2.86-9.35-10.47-11.69-10.66-2.34-.19-13.1,20.84-16.66,20.65-3.57-.19-4.13-2.92-7.89-4.47-3.76-1.54-13.33,15.07-13.33,15.07h87.31Z"/><path class="cls-34" d="m195.98,107.39s-8.09-13.61-11.28-16.8c-3.19-3.19-7.7,7.97-10.89,8.4-3.19.43-15.02-22.29-18.4-23.98-3.38-1.69-10.33,18.4-13.61,18.78-3.29.38-10.05-12.16-13.61-12.84-3.57-.68-19.9,26.45-19.9,26.45h87.7Z"/><path class="cls-11" d="m195.98,107.39s-8.09-13.61-11.28-16.8c-3.19-3.19-7.7,7.97-10.89,8.4-3.19.43-15.02-22.29-18.4-23.98-3.38-1.69-10.33,18.4-13.61,18.78-3.29.38-10.05-12.16-13.61-12.84-3.57-.68-19.9,26.45-19.9,26.45h87.7Z"/><rect class="cls-28" x="103.4" y="107.06" width="99.53" height=".66"/><path class="cls-6" d="m193.73,107.39s-3.96-9.98-7.34-9.82-4.69,7.48-7.89,7.1c-3.19-.38-6.95-12.02-11.74-11.45-4.79.56-5.73,7.51-8.73,8.83-3,1.31-8.9-7.62-12.68-8.84-3.78-1.22-8.35,10.72-12.48,11.47-4.13.75-5.82-4.9-8.26-4.42-2.44.48-9.33,7.14-9.33,7.14h78.45Z"/><path class="cls-28" d="m202.83,118.04h-99.44c-4.65,0-8.43-3.78-8.43-8.43v-50.38c0-4.65,3.78-8.43,8.43-8.43h99.44c4.65,0,8.43,3.78,8.43,8.43v50.38c0,4.65-3.78,8.43-8.43,8.43ZM103.4,51.8c-4.1,0-7.43,3.33-7.43,7.43v50.38c0,4.1,3.33,7.43,7.43,7.43h99.44c4.1,0,7.43-3.33,7.43-7.43v-50.38c0-4.1-3.33-7.43-7.43-7.43h-99.44Z"/></svg>