<?xml version="1.0" encoding="UTF-8"?><svg id="Illustration" xmlns="http://www.w3.org/2000/svg" xmlns:xlink="http://www.w3.org/1999/xlink" viewBox="0 0 2309 1419"><defs><style>.cls-1{fill:url(#linear-gradient);}.cls-1,.cls-2,.cls-3,.cls-4,.cls-5,.cls-6,.cls-7,.cls-8,.cls-9,.cls-10,.cls-11,.cls-12,.cls-13,.cls-14,.cls-15,.cls-16,.cls-17,.cls-18,.cls-19,.cls-20,.cls-21,.cls-22,.cls-23,.cls-24,.cls-25,.cls-26,.cls-27,.cls-28,.cls-29,.cls-30,.cls-31,.cls-32,.cls-33,.cls-34,.cls-35,.cls-36{stroke-width:0px;}.cls-2{fill:url(#linear-gradient-11);}.cls-3{fill:url(#linear-gradient-12);}.cls-4{fill:url(#linear-gradient-13);}.cls-5{fill:url(#linear-gradient-10);}.cls-6{fill:url(#linear-gradient-17);}.cls-7{fill:url(#linear-gradient-16);}.cls-8{fill:url(#linear-gradient-19);}.cls-9{fill:url(#linear-gradient-15);}.cls-10{fill:url(#linear-gradient-23);}.cls-11{fill:url(#linear-gradient-21);}.cls-12{fill:url(#linear-gradient-18);}.cls-13{fill:url(#linear-gradient-14);}.cls-14{fill:url(#linear-gradient-22);}.cls-15{fill:url(#linear-gradient-20);}.cls-16{fill:url(#linear-gradient-5);}.cls-16,.cls-17,.cls-18,.cls-19,.cls-20,.cls-37{opacity:.6;}.cls-17{fill:url(#linear-gradient-8);}.cls-18{fill:url(#linear-gradient-9);}.cls-19{fill:url(#linear-gradient-6);}.cls-20{fill:url(#linear-gradient-7);}.cls-21{opacity:.42;}.cls-21,.cls-28{fill:#5a5d5e;}.cls-22{fill:url(#linear-gradient-4);}.cls-23{fill:url(#linear-gradient-2);}.cls-24{fill:url(#linear-gradient-3);}.cls-26{fill:#81a4b5;}.cls-27{fill:#25688f;}.cls-29{fill:#dce5fe;}.cls-30{fill:#bdd0fb;}.cls-31{fill:#32a3d3;}.cls-32{fill:#6bb7dd;}.cls-33{fill:#91b3fa;}.cls-34{fill:#7d97f4;}.cls-35{fill:#fff;}.cls-36{fill:#eaeaea;}</style><linearGradient id="linear-gradient" x1="180.04" y1="753.51" x2="492.69" y2="753.51" gradientUnits="userSpaceOnUse"><stop offset="0" stop-color="#dae3fe"/><stop offset="1" stop-color="#e9effd"/></linearGradient><linearGradient id="linear-gradient-2" x1="213.22" y1="787.62" x2="488.55" y2="787.62" xlink:href="#linear-gradient"/><linearGradient id="linear-gradient-3" x1="155.71" y1="1077.78" x2="561.12" y2="1077.78" xlink:href="#linear-gradient"/><linearGradient id="linear-gradient-4" x1="160.27" y1="866.75" x2="552.63" y2="866.75" xlink:href="#linear-gradient"/><linearGradient id="linear-gradient-5" x1="200.28" y1="1203.52" x2="248.03" y2="1203.52" xlink:href="#linear-gradient"/><linearGradient id="linear-gradient-6" x1="322.18" y1="1193.15" x2="370.56" y2="1193.15" xlink:href="#linear-gradient"/><linearGradient id="linear-gradient-7" x1="259.97" y1="1176.5" x2="307.73" y2="1176.5" xlink:href="#linear-gradient"/><linearGradient id="linear-gradient-8" x1="466.7" y1="1137.85" x2="514.46" y2="1137.85" xlink:href="#linear-gradient"/><linearGradient id="linear-gradient-9" x1="395.7" y1="1158.9" x2="443.45" y2="1158.9" xlink:href="#linear-gradient"/><linearGradient id="linear-gradient-10" x1="221.6" y1="1010.62" x2="455.6" y2="1010.62" xlink:href="#linear-gradient"/><linearGradient id="linear-gradient-11" x1="215.22" y1="1057.48" x2="228.89" y2="1057.48" xlink:href="#linear-gradient"/><linearGradient id="linear-gradient-12" x1="278.37" y1="1022.98" x2="292.04" y2="1022.98" xlink:href="#linear-gradient"/><linearGradient id="linear-gradient-13" x1="337.61" y1="1047.72" x2="351.28" y2="1047.72" xlink:href="#linear-gradient"/><linearGradient id="linear-gradient-14" x1="387.09" y1="998.89" x2="400.76" y2="998.89" xlink:href="#linear-gradient"/><linearGradient id="linear-gradient-15" x1="448.28" y1="963.73" x2="461.96" y2="963.73" xlink:href="#linear-gradient"/><linearGradient id="linear-gradient-16" x1="-653.52" y1="1330.56" x2="-622.45" y2="1330.56" gradientTransform="translate(1162.52) rotate(-180) scale(1 -1)" gradientUnits="userSpaceOnUse"><stop offset="0" stop-color="#ff928e"/><stop offset="1" stop-color="#feb3b1"/></linearGradient><linearGradient id="linear-gradient-17" x1="-675.99" y1="1359.23" x2="-646.83" y2="1359.23" xlink:href="#linear-gradient-16"/><linearGradient id="linear-gradient-18" x1="-586.88" y1="1022.93" x2="-485.15" y2="1022.93" xlink:href="#linear-gradient-16"/><linearGradient id="linear-gradient-19" x1="-683.95" y1="872.79" x2="-616.45" y2="872.79" xlink:href="#linear-gradient-16"/><linearGradient id="linear-gradient-20" x1="-830.67" y1="959.5" x2="-631.04" y2="948.06" gradientTransform="translate(1162.52) rotate(-180) scale(1 -1)" gradientUnits="userSpaceOnUse"><stop offset="0" stop-color="#09005d"/><stop offset="1" stop-color="#1a0f91"/></linearGradient><linearGradient id="linear-gradient-21" x1="2038.83" y1="933.62" x2="1863.34" y2="1083.61" gradientTransform="matrix(1,0,0,1,0,0)" xlink:href="#linear-gradient-16"/><linearGradient id="linear-gradient-22" x1="1907.3" y1="776.47" x2="1776.8" y2="825.96" gradientTransform="matrix(1,0,0,1,0,0)" xlink:href="#linear-gradient-16"/><linearGradient id="linear-gradient-23" x1="-404.46" y1="-822.58" x2="-336.78" y2="-892.02" gradientTransform="translate(1272.42 1608.54) rotate(-165.53) scale(1 -1)" xlink:href="#linear-gradient-16"/></defs><path class="cls-36" d="m2202.77,941.84c-208.19-133.38-198.02-49.54-165.58-233.77,32.44-184.23,70.79-709.02-383.93-686.69-454.72,22.33-476.17,274.23-837.44,107.31C454.56-38.24,2.6,398.94,245.01,670.22c233.91,261.77-558.24,275.53-32.3,632.22,38.96,26.42,84.25,41.29,131.05,41.29,0,0,1785.06-4.9,1787.16-4.9,190.57-.51,211.91-307.25,71.84-396.99Z"/><path class="cls-26" d="m2232.53,716.62c.68-6.96-10.56-11.51-15.15-6.12-44.34,52.11-166.34,185.03-294.03,231.97-207.9,76.44-395.58,256.73-338.67,407.87,0,0,573.87,124.97,647.84-633.73Z"/><path class="cls-35" d="m2184.45,796.67c-1.02,2.03-2.02,3.51-3.02,5.22l-3.08,4.92-6.3,9.73c-4.25,6.45-8.6,12.83-12.98,19.2-8.75,12.73-17.79,25.25-26.88,37.74-18.34,24.86-37.41,49.18-57,73.08-39.09,47.88-81.12,93.33-125.22,136.67-22.11,21.63-45.11,42.32-68.59,62.45-23.58,20.01-47.92,39.15-72.92,57.36-25.17,17.99-51.15,34.84-77.78,50.59-13.55,7.48-26.95,15.2-40.88,21.93-13.68,7.23-27.93,13.26-42.01,19.61-.57.26-1.24,0-1.5-.57-.26-.57,0-1.23.55-1.49l.04-.02c27.86-13.18,55.05-27.63,81.41-43.52,26.24-16.07,51.82-33.21,76.58-51.48,24.66-18.4,48.85-37.43,72.19-57.5,23.3-20.11,45.94-40.97,68.13-62.31,22.07-21.46,43.58-43.51,64.51-66.1l15.59-17.04,15.34-17.27c10.15-11.58,20.28-23.19,30.18-34.99,19.86-23.55,39.1-47.62,57.85-72.08,9.33-12.26,18.61-24.56,27.61-37.07,4.51-6.25,8.96-12.53,13.36-18.85l6.55-9.51,3.2-4.8c1.01-1.58,2.16-3.31,2.95-4.69l.16-.28c.31-.54.99-.72,1.53-.42.52.3.71.95.45,1.48Z"/><path class="cls-32" d="m388.37,211.25c120.32,52.18,808.08,384.46,612.21,1085.85,0,0-509.09-102.19-627.65-1074.36-1.04-8.5,7.58-14.9,15.44-11.49Z"/><path class="cls-35" d="m454.19,325.37c28.9,30.37,57.14,61.3,85.13,92.48,27.97,31.19,55.57,62.71,82.81,94.55,54.47,63.67,107.54,128.57,158.57,195.07,50.98,66.53,100.06,134.6,145.34,205.24,22.75,35.25,44.24,71.34,64.32,108.22,20.03,36.91,38.65,74.68,54.2,113.85.93,2.33-.21,4.98-2.55,5.9-2.33.93-4.98-.21-5.9-2.55v-.02s-.02-.02-.02-.02c-15.17-38.78-33.44-76.37-53.16-113.15-19.78-36.77-40.98-72.81-63.46-108.05-44.75-70.63-93.38-138.81-143.92-205.5-50.6-66.66-103.27-131.76-157.35-195.65-27.04-31.95-54.46-63.58-82.24-94.89-27.79-31.3-55.87-62.37-84.55-92.82h-.01c-.73-.79-.69-2.01.08-2.73.77-.73,1.98-.69,2.71.07Z"/><path class="cls-30" d="m735.15,1358.26s-18.17-70.53-101.15-110.44c-77-37.03-263.97-118.37-318.86-187.12-2.43-3.05-7.35.6-6.41,4.77,10.07,44.67,43.37,152.71,140.22,229.04,124.9,98.43,286.2,63.76,286.2,63.76Z"/><path class="cls-29" d="m357.98,1128.57c3.79,8.14,8.5,15.81,13.55,23.18,2.45,3.74,5.18,7.29,7.84,10.86,2.68,3.57,5.65,6.91,8.41,10.4,11.57,13.58,24.53,25.89,38.41,36.98l5.17,4.2c1.74,1.38,3.58,2.63,5.37,3.95,3.62,2.58,7.16,5.26,10.82,7.77l11.24,7.15c3.68,2.49,7.58,4.62,11.46,6.8,3.88,2.16,7.71,4.41,11.63,6.49l12,5.82c7.9,4,16.23,7.48,24.38,11.18,16.43,7.19,32.97,14.11,49.61,20.84,16.64,6.72,33.38,13.2,50.14,19.74,8.39,3.25,16.78,6.5,25.13,9.92,4.18,1.67,8.36,3.38,12.52,5.15l6.24,2.63,6.18,2.81c8.25,3.7,16.35,7.83,24.26,12.31,7.85,4.6,15.35,9.88,22.04,16.09.46.43.49,1.15.06,1.61-.41.44-1.08.48-1.54.12l-.03-.03c-6.97-5.54-14.59-10.13-22.45-14.27-7.98-3.96-16.12-7.59-24.47-10.82-16.62-6.6-33.61-12.45-50.52-18.59l-25.4-9.19c-8.43-3.18-16.87-6.33-25.27-9.63-8.42-3.23-16.78-6.6-25.13-10.03-8.31-3.5-16.63-7.01-24.89-10.63-33.06-14.22-65.78-31.79-93.11-55.94-13.76-11.9-26.48-25.06-37.4-39.58-5.38-7.32-10.55-14.79-15.02-22.67-4.51-7.85-8.57-15.98-11.51-24.53-.03-.07.01-.15.09-.18.07-.02.15.02.18.08Z"/><path class="cls-30" d="m295.44,619.83c-.22-6.88,8.96-9.49,12.36-3.5,32.92,57.87,124.01,206.9,223.63,273.23,162.21,108,303.45,313.76,251.02,451.56,0,0-463.41,28.67-487.02-721.29Z"/><path class="cls-29" d="m332.02,705.01c.57,1.48,1.37,3.24,2.08,4.89l2.27,5.01,4.65,9.98,9.52,19.88c6.45,13.2,13.06,26.32,19.8,39.38,13.43,26.14,27.32,52.03,41.72,77.64,28.92,51.14,59.25,101.49,92.2,150.1,16.57,24.23,33.28,48.37,50.98,71.79,17.7,23.41,35.92,46.42,55.05,68.66,19.14,22.23,38.87,43.97,59.82,64.52,20.89,20.6,42.78,40.17,65.71,58.53h.01c.49.4.57,1.12.18,1.61-.38.48-1.07.56-1.56.2-23.69-17.54-46.08-36.8-67.6-56.96-21.39-20.32-41.56-41.86-61.16-63.9-38.73-44.49-74.27-91.69-107.12-140.62-16.48-24.44-32.14-49.4-47.44-74.58-15.28-25.19-30.03-50.7-44.05-76.6-14.06-25.88-27.73-51.97-40.69-78.41-6.45-13.23-12.79-26.53-18.95-39.89-3.06-6.7-6.12-13.39-9.08-20.14l-4.37-10.15-2.13-5.1c-.68-1.75-1.39-3.34-2.05-5.33-.2-.59.12-1.23.71-1.42.57-.19,1.19.1,1.41.66l.09.24Z"/><path class="cls-27" d="m1652.25,70.96c-8.95-9.21-21.25-14.41-34.1-14.4l-973.1.57c-12.85,0-25.15,5.22-34.09,14.45-8.94,9.23-13.76,21.69-13.36,34.53l38.57,1243.09c.8,25.65,21.82,45.54,47.48,45.54h898.01c25.69,0,46.73-19.93,47.49-45.62l36.52-1243.91c.38-12.84-4.46-25.04-13.41-34.25Z"/><path class="cls-35" d="m1618.19,128.18c-8.18-8.42-19.43-13.17-31.17-13.16l-889.42.52c-11.75,0-22.99,4.77-31.16,13.21-8.17,8.43-12.58,19.82-12.22,31.56l35.26,1136.05c.73,23.44,19.94,41.58,43.4,41.58h820.78c23.48,0,42.71-18.18,43.4-41.65l33.38-1136.82c.34-11.74-4.08-22.86-12.26-31.28Z"/><circle class="cls-27" cx="1131.62" cy="239.69" r="96.21" transform="translate(693.87 1310.39) rotate(-79.72)"/><circle class="cls-27" cx="1133.9" cy="239.69" r="89.39" transform="translate(695.73 1312.63) rotate(-79.72)"/><circle class="cls-31" cx="1131.62" cy="1189.68" r="96.21" transform="translate(-240.88 2090.88) rotate(-79.72)"/><circle class="cls-27" cx="1133.9" cy="1189.68" r="89.39" transform="translate(-172.41 2186.99) rotate(-83.74)"/><rect class="cls-27" x="1062.51" y="501.76" width="144.23" height="144.23" transform="translate(-74.44 967.41) rotate(-44.86)"/><path class="cls-31" d="m1527.49,842.48c0,33.89-27.47,61.36-61.36,61.36h-79.54c-33.89,0-61.36-27.47-61.36-61.36h0c0-33.89,27.47-61.36,61.36-61.36h79.54c33.89,0,61.36,27.47,61.36,61.36h0Z"/><path class="cls-27" d="m1519.12,842.48c0,31.69-25.28,56.82-56.46,56.82h-73.83c-31.18,0-56.46-25.13-56.46-56.82h0c0-31.69,25.28-56.82,56.46-56.82h73.83c31.18,0,56.46,25.13,56.46,56.82h0Z"/><path class="cls-31" d="m1234.32,842.48c0,33.89-27.47,61.36-61.36,61.36h-79.54c-33.89,0-61.36-27.47-61.36-61.36h0c0-33.89,27.47-61.36,61.36-61.36h79.54c33.89,0,61.36,27.47,61.36,61.36h0Z"/><path class="cls-27" d="m1225.94,842.48c0,31.69-25.28,56.82-56.46,56.82h-73.83c-31.18,0-56.46-25.13-56.46-56.82h0c0-31.69,25.28-56.82,56.46-56.82h73.83c31.18,0,56.46,25.13,56.46,56.82h0Z"/><path class="cls-31" d="m934.32,842.48c0,33.89-27.47,61.36-61.36,61.36h-79.54c-33.89,0-61.36-27.47-61.36-61.36h0c0-33.89,27.47-61.36,61.36-61.36h79.54c33.89,0,61.36,27.47,61.36,61.36h0Z"/><path class="cls-27" d="m925.94,842.48c0,31.69-25.28,56.82-56.46,56.82h-73.83c-31.18,0-56.46-25.13-56.46-56.82h0c0-31.69,25.28-56.82,56.46-56.82h73.83c31.18,0,56.46,25.13,56.46,56.82h0Z"/><path class="cls-31" d="m1133.18,439.08c-1.88,0-3.41-1.53-3.41-3.41v-86.36c0-1.88,1.53-3.41,3.41-3.41s3.41,1.53,3.41,3.41v86.36c0,1.88-1.53,3.41-3.41,3.41Z"/><polygon class="cls-31" points="1145.58 422.03 1131.62 446.22 1117.66 422.03 1145.58 422.03"/><path class="cls-31" d="m1133.18,759.53c-1.88,0-3.41-1.53-3.41-3.41v-63.64c0-1.88,1.53-3.41,3.41-3.41s3.41,1.53,3.41,3.41v63.64c0,1.88-1.53,3.41-3.41,3.41Z"/><polygon class="cls-31" points="1145.58 742.48 1131.62 766.66 1117.66 742.48 1145.58 742.48"/><path class="cls-31" d="m1128.64,1066.34c-1.88,0-3.41-1.53-3.41-3.41v-84.09c0-1.88,1.53-3.41,3.41-3.41s3.41,1.53,3.41,3.41v84.09c0,1.88-1.53,3.41-3.41,3.41Z"/><polygon class="cls-31" points="1142.09 1049.3 1128.13 1073.48 1114.17 1049.3 1142.09 1049.3"/><path class="cls-31" d="m821.82,736.8c-1.88,0-3.41-1.53-3.41-3.41v-162.5c0-1.88,1.53-3.41,3.41-3.41h187.5c1.88,0,3.41,1.53,3.41,3.41s-1.53,3.41-3.41,3.41h-184.09v159.09c0,1.88-1.53,3.41-3.41,3.41Z"/><polygon class="cls-31" points="834.23 731.12 820.26 755.3 806.3 731.12 834.23 731.12"/><path class="cls-31" d="m1446.81,736.8c-1.88,0-3.41-1.53-3.41-3.41v-159.09h-184.09c-1.88,0-3.41-1.53-3.41-3.41s1.53-3.41,3.41-3.41h187.5c1.88,0,3.41,1.53,3.41,3.41v162.5c0,1.88-1.53,3.41-3.41,3.41Z"/><polygon class="cls-31" points="1433.24 731.12 1447.2 755.3 1461.16 731.12 1433.24 731.12"/><path class="cls-27" d="m1444.54,981.12h-624.99c-1.88,0-3.41-1.53-3.41-3.41v-60.23c0-1.88,1.53-3.41,3.41-3.41s3.41,1.53,3.41,3.41v56.82h618.17v-56.82c0-1.88,1.53-3.41,3.41-3.41s3.41,1.53,3.41,3.41v60.23c0,1.88-1.53,3.41-3.41,3.41Z"/><rect class="cls-31" x="700.23" y="172.04" width="263.63" height="29.55" rx="14.39" ry="14.39"/><rect class="cls-31" x="700.23" y="237.95" width="263.63" height="29.55" rx="14.39" ry="14.39"/><path class="cls-27" d="m1819.37,325.11c-1.87,0-3.65-.99-4.62-2.65l-11.09-18.9c-10.35-.51-20.55-2.52-30.35-5.98l-17.43,13.3c-1.82,1.39-4.32,1.47-6.22.2l-23.76-15.8c-1.91-1.27-2.8-3.61-2.22-5.82l5.53-21.22c-6.98-7.71-12.78-16.33-17.25-25.68l-21.72-2.92c-2.26-.31-4.09-2.02-4.54-4.25l-5.63-27.98c-.45-2.24.57-4.53,2.55-5.68l18.9-11.09c.51-10.35,2.52-20.55,5.98-30.36l-13.3-17.43c-1.39-1.82-1.47-4.32-.2-6.23l15.8-23.76c1.27-1.91,3.61-2.8,5.82-2.22l21.22,5.53c7.71-6.99,16.33-12.78,25.68-17.25l2.92-21.72c.31-2.27,2.02-4.09,4.26-4.54l27.97-5.63c2.24-.45,4.52.57,5.68,2.54l11.09,18.9c10.35.51,20.55,2.52,30.35,5.98l17.43-13.3c1.82-1.39,4.32-1.46,6.22-.2l23.76,15.8c1.91,1.27,2.8,3.61,2.22,5.82l-5.53,21.22c6.98,7.71,12.78,16.33,17.25,25.68l21.72,2.92c2.26.3,4.09,2.01,4.54,4.26l5.63,27.98c.45,2.25-.57,4.53-2.55,5.69l-18.9,11.09c-.51,10.35-2.52,20.55-5.98,30.35l13.3,17.43c1.39,1.82,1.47,4.32.2,6.22l-15.8,23.76c-1.27,1.91-3.6,2.8-5.82,2.22l-21.22-5.53c-7.71,6.99-16.33,12.78-25.68,17.25l-2.92,21.72c-.31,2.27-2.02,4.09-4.26,4.54l-27.98,5.63c-.35.07-.71.11-1.06.11Zm-47.23-35.22l1.76.66c10.25,3.82,20.97,5.93,31.86,6.28l1.88.06,12.46,21.23,25.94-5.22,3.28-24.4,1.71-.78c9.91-4.53,18.98-10.62,26.95-18.11l1.37-1.29,23.84,6.21,14.65-22.03-14.94-19.58.66-1.76c3.82-10.25,5.93-20.97,6.28-31.86l.06-1.88,21.24-12.46-5.22-25.94-24.4-3.28-.78-1.71c-4.53-9.91-10.62-18.98-18.11-26.95l-1.29-1.37,6.21-23.84-22.03-14.65-19.58,14.94-1.76-.66c-10.25-3.82-20.97-5.93-31.86-6.28l-1.88-.06-12.46-21.24-25.94,5.22-3.28,24.4-1.71.78c-9.91,4.53-18.97,10.62-26.95,18.11l-1.37,1.29-23.84-6.21-14.65,22.03,14.94,19.58-.66,1.76c-3.82,10.25-5.93,20.97-6.28,31.86l-.06,1.88-21.24,12.46,5.22,25.94,24.4,3.28.78,1.71c4.53,9.91,10.62,18.98,18.11,26.95l1.29,1.37-6.21,23.84,22.03,14.65,19.58-14.94Zm-81.01-57h0Zm118.29,35.71c-14.09,0-27.87-4.13-39.87-12.12-16.07-10.69-27.02-27-30.83-45.92-1.02-5.06-1.49-10.21-1.42-15.32.03-1.88,1.6-3.36,3.46-3.36,1.88.03,3.39,1.57,3.36,3.46-.06,4.62.37,9.29,1.29,13.88,3.45,17.14,13.36,31.91,27.92,41.59,14.55,9.68,32.01,13.12,49.15,9.67,17.14-3.45,31.91-13.36,41.59-27.92,9.68-14.56,13.11-32.01,9.67-49.15-7.11-35.38-41.68-58.38-77.07-51.26-11.63,2.34-22.39,7.77-31.12,15.72-1.39,1.27-3.55,1.17-4.81-.23-1.27-1.39-1.17-3.55.23-4.81,9.64-8.77,21.52-14.78,34.36-17.36,39.07-7.85,77.24,17.53,85.1,56.6,7.86,39.07-17.53,77.24-56.6,85.1-4.8.96-9.62,1.44-14.4,1.44Z"/><path class="cls-27" d="m1809.08,224.76c-10.74,0-21.05-6.04-25.98-16.35h0c-6.83-14.3-.76-31.5,13.55-38.33,14.3-6.83,31.5-.76,38.33,13.54,3.31,6.93,3.73,14.73,1.17,21.97-2.56,7.24-7.78,13.05-14.71,16.36-3.99,1.9-8.2,2.81-12.35,2.81Zm-19.83-19.29c5.21,10.91,18.33,15.54,29.24,10.33,10.91-5.21,15.55-18.33,10.33-29.24-5.21-10.91-18.33-15.55-29.24-10.33-10.91,5.21-15.54,18.33-10.33,29.24h0Z"/><path class="cls-27" d="m1994.83,359.51c-.42,0-.84-.06-1.25-.18l-13.14-3.95c-1.78-.53-3.02-2.14-3.09-4l-.38-9.59c-3.84-2.39-7.34-5.25-10.45-8.53l-9.47,1.54c-1.84.29-3.65-.6-4.53-2.23l-6.5-12.09c-.88-1.63-.62-3.65.63-5.01l6.51-7.05c-1.02-4.4-1.47-8.89-1.35-13.42l-7.79-5.61c-1.5-1.08-2.16-3.01-1.62-4.78l3.95-13.14c.53-1.77,2.14-3.02,3.98-3.09l9.6-.38c2.39-3.84,5.25-7.34,8.53-10.45l-1.54-9.47c-.3-1.83.6-3.65,2.23-4.53l12.09-6.5c1.63-.88,3.65-.62,5.01.63l7.05,6.51c4.39-1.02,8.89-1.48,13.42-1.35l5.61-7.79c1.08-1.5,3.01-2.16,4.78-1.62l13.14,3.95c1.78.53,3.02,2.14,3.09,4l.38,9.59c3.84,2.39,7.34,5.25,10.45,8.53l9.47-1.54c1.84-.3,3.65.6,4.53,2.23l6.5,12.09c.88,1.64.62,3.66-.64,5.02l-6.5,7.04c1.02,4.39,1.47,8.89,1.35,13.42l7.79,5.61c1.51,1.09,2.16,3.01,1.62,4.78l-3.95,13.14c-.53,1.77-2.14,3.02-3.98,3.09l-9.6.38c-2.39,3.84-5.25,7.34-8.53,10.45l1.54,9.47c.3,1.83-.6,3.65-2.23,4.53l-12.09,6.5c-1.63.88-3.64.62-5.01-.63l-7.05-6.51c-4.39,1.02-8.89,1.47-13.42,1.35l-5.61,7.79c-.83,1.15-2.15,1.81-3.53,1.81Zm-2-5.79s0,0,0,0h0Zm-8.74-4.37l9.77,2.94,6.76-9.38,1.88.12c5.06.31,10.09-.19,14.97-1.5l1.82-.49,8.49,7.84,8.99-4.83-1.85-11.41,1.41-1.25c3.78-3.34,6.98-7.26,9.51-11.66l.94-1.63,11.55-.46,2.94-9.77-9.38-6.76.12-1.88c.31-5.06-.19-10.1-1.5-14.97l-.49-1.82,7.84-8.49-4.83-8.99-11.41,1.85-1.25-1.41c-3.34-3.78-7.26-6.98-11.66-9.51l-1.63-.94-.46-11.55-9.77-2.94-6.76,9.38-1.88-.12c-5.06-.31-10.1.19-14.97,1.5l-1.82.49-8.49-7.84-8.99,4.83,1.85,11.41-1.41,1.25c-3.78,3.34-6.98,7.26-9.51,11.66l-.94,1.63-11.55.46-2.94,9.77,9.38,6.76-.12,1.88c-.32,5.06.19,10.1,1.5,14.97l.49,1.82-7.84,8.49,4.83,8.99,11.41-1.85,1.25,1.41c3.34,3.78,7.26,6.98,11.66,9.51l1.63.94.46,11.55Zm-27.59-17.91h.02-.02Zm102.54-58.77s0,0,0,0h0Zm-53.35,60.32c-3.53,0-7.09-.52-10.57-1.57-9.34-2.81-17.03-9.09-21.65-17.68-1.23-2.3-2.22-4.72-2.94-7.2-.52-1.81.52-3.7,2.33-4.22,1.81-.52,3.7.52,4.22,2.33.58,2.02,1.39,3.99,2.39,5.86,3.76,6.99,10.01,12.1,17.61,14.38,7.6,2.28,15.63,1.48,22.62-2.28,14.43-7.76,19.86-25.8,12.1-40.23-7.76-14.43-25.8-19.86-40.23-12.1-4.74,2.55-8.7,6.33-11.44,10.93-.96,1.62-3.05,2.15-4.67,1.18-1.62-.96-2.15-3.06-1.18-4.67,3.37-5.66,8.24-10.31,14.07-13.44,17.74-9.54,39.93-2.86,49.47,14.88,9.54,17.74,2.86,39.93-14.88,49.47-5.39,2.9-11.29,4.37-17.25,4.37Z"/><path class="cls-27" d="m2130.94,898.09l-356.98-31.68c-14.47-1.28-25.59-13.37-25.67-27.9l-1.32-240.69c-.09-16.38,13.77-29.38,30.11-28.25l380.12,26.45c15.72,1.09,27.49,14.88,26.09,30.58l-21.82,245.92c-1.37,15.49-15.05,26.94-30.54,25.56Z"/><path class="cls-32" d="m1767.9,621.12l-2.36,207.82c-.1,9.03,6.71,16.64,15.69,17.53l342.3,34c9.64.96,18.21-6.14,19.07-15.79l19.72-222.21c.87-9.81-6.56-18.39-16.4-18.93l-359.66-19.6c-9.9-.54-18.25,7.28-18.36,17.19Z"/><path class="cls-33" d="m1930.17,802.69l193.72,11.37c1.99.12,3.48,1.85,3.31,3.83l-.28,3.11c-.17,1.92-1.85,3.35-3.78,3.21l-193.45-14.48c-1.96-.15-3.42-1.87-3.25-3.83h0c.17-1.9,1.82-3.32,3.72-3.21Z"/><path class="cls-33" d="m1925.02,822.1l-.12,1.33c-.17,1.94,1.26,3.65,3.2,3.82l193.21,17.15c1.94.17,3.65-1.26,3.82-3.2l.12-1.33c.17-1.94-1.26-3.65-3.2-3.82l-193.21-17.15c-1.94-.17-3.65,1.26-3.82,3.2Z"/><path class="cls-33" d="m1982.12,844.63l-.05.58c-.17,1.94,1.26,3.65,3.2,3.82l134.57,11.94c1.94.17,3.65-1.26,3.82-3.2l.24-2.74c.17-1.96-1.29-3.69-3.26-3.83l-134.76-9.79c-1.92-.14-3.6,1.29-3.77,3.21Z"/><path class="cls-27" d="m2101.01,812.11l-421.29-8.57c-17.08-.35-31.09-13.63-32.35-30.67l-20.82-282.23c-1.42-19.21,13.8-35.57,33.06-35.54l448.01.59c18.53.02,33.44,15.25,33.06,33.78l-5.91,290.22c-.37,18.28-15.49,32.8-33.78,32.43Z"/><path class="cls-32" d="m1652.98,516.29l13.87,243.97c.6,10.6,9.2,18.98,19.81,19.31l404.26,12.47c11.39.35,20.87-8.66,21.1-20.05l5.34-262.24c.24-11.58-9.17-21.05-20.75-20.89l-423.47,5.81c-11.65.16-20.82,10-20.16,21.64Z"/><path class="cls-35" d="m1857.87,716.28l228.15-2.18c2.34-.02,4.23,1.89,4.19,4.23l-.07,3.67c-.05,2.27-1.91,4.08-4.17,4.06l-228.08-1.49c-2.31-.02-4.17-1.92-4.12-4.23h0c.05-2.24,1.86-4.04,4.11-4.06Z"/><path class="cls-35" d="m1970.73,624.47h1.56c2.29,0,4.15,1.86,4.15,4.15v228.06c0,2.29-1.86,4.15-4.15,4.15h-1.57c-2.29,0-4.15-1.86-4.15-4.15v-228.06c0-2.29,1.86-4.15,4.15-4.15Z" transform="translate(1188.96 2698.66) rotate(-88.84)"/><path class="cls-35" d="m1922.16,761.31v.69c-.06,2.29,1.76,4.18,4.05,4.23l158.81,3.23c2.29.05,4.18-1.77,4.23-4.06l.07-3.23c.05-2.32-1.81-4.22-4.13-4.23l-158.86-.69c-2.26,0-4.12,1.8-4.16,4.06Z"/><path class="cls-27" d="m2036.78,756.74h-467.37c-18.95,0-34.78-14.41-36.56-33.28l-29.46-312.51c-2-21.27,14.5-39.76,35.86-40.16l496.83-9.46c20.55-.39,37.42,16.16,37.42,36.72v321.97c0,20.28-16.44,36.72-36.72,36.72Z"/><path class="cls-32" d="m1533.26,438.81l20.89,270.23c.91,11.74,10.63,20.84,22.41,20.96l448.58,4.7c12.64.13,22.95-10.07,22.95-22.71v-290.93c0-12.85-10.65-23.14-23.49-22.7l-469.47,16c-12.92.44-22.87,11.56-21.87,24.45Z"/><path class="cls-35" d="m1772.74,436.33l252.96-7.57c2.59-.08,4.74,2,4.74,4.6v4.07c0,2.52-2.02,4.56-4.54,4.6l-252.96,3.49c-2.56.04-4.66-2.03-4.66-4.6h0c0-2.49,1.98-4.52,4.46-4.6Z"/><path class="cls-35" d="m1772.87,457.54h252.96c2.54,0,4.6,2.06,4.6,4.6v1.74c0,2.54-2.06,4.6-4.6,4.6h-252.96c-2.54,0-4.6-2.06-4.6-4.6v-1.74c0-2.54,2.06-4.6,4.6-4.6Z"/><path class="cls-35" d="m1706.49,689.61c-1.14,0-2.06-.92-2.06-2.06l-.02-6.19c0-1.14.92-2.07,2.06-2.07h0c1.14,0,2.06.92,2.06,2.06l.02,6.19c0,1.14-.92,2.07-2.06,2.07h0Zm-.05-20.64c-1.14,0-2.06-.92-2.06-2.06l-.02-6.19c0-1.14.92-2.07,2.06-2.07h0c1.14,0,2.06.92,2.06,2.06l.02,6.19c0,1.14-.92,2.07-2.06,2.07h0Zm-.05-20.64c-1.14,0-2.06-.92-2.06-2.06l-.02-6.19c0-1.14.92-2.07,2.06-2.07h0c1.14,0,2.06.92,2.06,2.06l.02,6.19c0,1.14-.92,2.07-2.06,2.07h0Zm-.05-20.64c-1.14,0-2.06-.92-2.06-2.06l-.02-6.19c0-1.14.92-2.07,2.06-2.07h0c1.14,0,2.06.92,2.06,2.06l.02,6.19c0,1.14-.92,2.07-2.06,2.07h0Z"/><path class="cls-35" d="m1810.15,683.73c-1.14,0-2.06-.92-2.06-2.06v-6.19c0-1.14.92-2.06,2.06-2.06s2.06.92,2.06,2.06v6.19c0,1.14-.92,2.06-2.06,2.06Zm0-20.64c-1.14,0-2.06-.92-2.06-2.06v-6.19c0-1.14.92-2.06,2.06-2.06s2.06.92,2.06,2.06v6.19c0,1.14-.92,2.06-2.06,2.06Zm0-20.64c-1.14,0-2.06-.92-2.06-2.06v-6.19c0-1.14.92-2.06,2.06-2.06s2.06.92,2.06,2.06v6.19c0,1.14-.92,2.06-2.06,2.06Zm0-20.64c-1.14,0-2.06-.92-2.06-2.06v-6.19c0-1.14.92-2.06,2.06-2.06s2.06.92,2.06,2.06v6.19c0,1.14-.92,2.06-2.06,2.06Zm0-20.64c-1.14,0-2.06-.92-2.06-2.06v-6.19c0-1.14.92-2.06,2.06-2.06s2.06.92,2.06,2.06v6.19c0,1.14-.92,2.06-2.06,2.06Z"/><path class="cls-35" d="m1889.21,700.79c-1.11,0-2.03-.88-2.06-2l-.11-3.7c-.04-1.14.86-2.09,2-2.13,1.17-.07,2.09.86,2.13,2l.11,3.7c.04,1.14-.86,2.09-2,2.13h-.07Zm-.56-18.14c-1.11,0-2.03-.88-2.06-2l-.19-6.19c-.04-1.14.86-2.09,2-2.13,1.16-.03,2.09.86,2.13,2l.19,6.19c.04,1.14-.86,2.09-2,2.13h-.07Zm-.64-20.63c-1.11,0-2.03-.88-2.06-2l-.19-6.19c-.04-1.14.86-2.09,2-2.13,1.1.01,2.09.86,2.13,2l.19,6.19c.04,1.14-.86,2.09-2,2.13h-.06Zm-.64-20.63c-1.11,0-2.03-.88-2.06-2l-.19-6.19c-.04-1.14.86-2.09,2-2.13,1.09-.06,2.09.86,2.13,2l.19,6.19c.04,1.14-.86,2.09-2,2.13h-.06Zm-.64-20.63c-1.11,0-2.03-.88-2.06-2l-.19-6.19c-.04-1.14.86-2.09,2-2.13,1.14-.01,2.09.86,2.13,2l.19,6.19c.04,1.14-.86,2.09-2,2.13h-.07Zm-.64-20.63c-1.11,0-2.03-.88-2.06-2l-.19-6.19c-.04-1.14.86-2.09,2-2.13,1.14-.08,2.09.86,2.13,2l.19,6.19c.04,1.14-.86,2.09-2,2.13h-.07Zm-.64-20.63c-1.11,0-2.03-.88-2.06-2l-.19-6.19c-.04-1.14.86-2.09,2-2.13,1.18-.04,2.09.86,2.13,2l.19,6.19c.04,1.14-.86,2.09-2,2.13h-.07Z"/><path class="cls-35" d="m1964.36,689.23c-1.14,0-2.06-.92-2.06-2.06v-6.19c0-1.14.92-2.06,2.06-2.06s2.06.92,2.06,2.06v6.19c0,1.14-.92,2.06-2.06,2.06Zm0-20.64c-1.14,0-2.06-.92-2.06-2.06v-6.19c0-1.14.92-2.06,2.06-2.06s2.06.92,2.06,2.06v6.19c0,1.14-.92,2.06-2.06,2.06Zm0-20.64c-1.14,0-2.06-.92-2.06-2.06v-6.19c0-1.14.92-2.06,2.06-2.06s2.06.92,2.06,2.06v6.19c0,1.14-.92,2.06-2.06,2.06Zm0-20.64c-1.14,0-2.06-.92-2.06-2.06v-6.19c0-1.14.92-2.06,2.06-2.06s2.06.92,2.06,2.06v6.19c0,1.14-.92,2.06-2.06,2.06Zm0-20.64c-1.14,0-2.06-.92-2.06-2.06v-6.19c0-1.14.92-2.06,2.06-2.06s2.06.92,2.06,2.06v6.19c0,1.14-.92,2.06-2.06,2.06Zm0-20.64c-1.14,0-2.06-.92-2.06-2.06v-6.19c0-1.14.92-2.06,2.06-2.06s2.06.92,2.06,2.06v6.19c0,1.14-.92,2.06-2.06,2.06Zm0-20.64c-1.14,0-2.06-.92-2.06-2.06v-6.19c0-1.14.92-2.06,2.06-2.06s2.06.92,2.06,2.06v6.19c0,1.14-.92,2.06-2.06,2.06Zm0-20.64c-1.14,0-2.06-.92-2.06-2.06v-6.19c0-1.14.92-2.06,2.06-2.06s2.06.92,2.06,2.06v6.19c0,1.14-.92,2.06-2.06,2.06Zm0-20.64c-1.14,0-2.06-.92-2.06-2.06v-6.19c0-1.14.92-2.06,2.06-2.06s2.06.92,2.06,2.06v6.19c0,1.14-.92,2.06-2.06,2.06Z"/><path class="cls-35" d="m1595.54,713.6c-1.59,0-2.94-1.22-3.08-2.83l-21.16-249.86c-.14-1.7,1.12-3.2,2.82-3.35,1.71-.09,3.2,1.12,3.35,2.82l21.16,249.86c.14,1.7-1.12,3.2-2.82,3.35-.09,0-.18.01-.26.01Z"/><polygon class="cls-35" points="1564.97 473.82 1574.54 462.47 1585.88 472.05 1585.13 463.17 1573.79 453.59 1564.21 464.94 1564.97 473.82"/><path class="cls-35" d="m2014.83,701.82h-435.34c-1.71,0-3.1-1.39-3.1-3.1s1.39-3.1,3.1-3.1h435.34c1.71,0,3.1,1.39,3.1,3.1s-1.39,3.1-3.1,3.1Z"/><polygon class="cls-35" points="2002.5 709.22 2013 698.72 2002.5 688.23 2011.41 688.23 2021.91 698.72 2011.41 709.22 2002.5 709.22"/><path class="cls-35" d="m1613.65,630.03c-1.53,0-2.86-1.13-3.06-2.69-.23-1.69.97-3.25,2.66-3.48,2.29-.3,230.22-31.52,355-123.52,1.38-1.02,3.31-.72,4.33.65,1.01,1.38.72,3.32-.66,4.33-126.07,92.96-355.56,124.37-357.86,124.68-.14.02-.28.03-.41.03Z"/><path class="cls-34" d="m1971.04,519.3c-.08,0-.16,0-.25-.01-1.7-.13-2.98-1.62-2.84-3.33l.96-12.16-17.14-1.02c-1.71-.1-3.01-1.57-2.91-3.27.1-1.71,1.55-3.04,3.27-2.91l20.29,1.2c.83.05,1.61.43,2.15,1.06.55.63.82,1.45.75,2.28l-1.2,15.31c-.13,1.62-1.48,2.85-3.08,2.85Z"/><path class="cls-27" d="m143.17,1385.57h431.84c13.77,0,24.93-11.16,24.93-24.93v-646.8c0-13.74-11.12-24.9-24.87-24.93l-435.29-1.17c-13.85-.04-25.07,11.22-25,25.07l3.45,647.97c.07,13.72,11.21,24.8,24.93,24.8Z"/><path class="cls-31" d="m164.34,719.65l386.13,2.38c13.96.09,25.21,11.46,25.14,25.42l-2.69,580.52c-.06,13.75-11.09,24.93-24.84,25.18l-375.18,6.85c-14.01.26-25.56-10.93-25.76-24.94l-8.26-589.75c-.2-14.17,11.28-25.74,25.45-25.65Z"/><rect class="cls-1" x="180.04" y="744.61" width="312.65" height="17.8" rx="7.57" ry="7.57"/><path class="cls-23" d="m213.23,785.66h0c.21,3.96,3.45,7.09,7.42,7.16l260.19,4.74c4.23.08,7.71-3.33,7.71-7.57v-.62c0-4.13-3.32-7.5-7.45-7.57l-260.19-4.12c-4.39-.07-7.91,3.6-7.68,7.98Z"/><path class="cls-24" d="m186.67,1341.12c-12.22,0-22.3-9.87-22.52-22.12l-8.44-474.8c-.22-12.4,9.68-22.68,22.08-22.92l351.31-6.84c5.97-.11,11.72,2.12,16.06,6.29,4.34,4.17,6.79,9.79,6.9,15.8l9.06,477.41c.11,6.05-2.14,11.77-6.35,16.11-4.21,4.34-9.85,6.77-15.9,6.84l-351.92,4.22c-.09,0-.18,0-.27,0Zm342.87-517.59c-.09,0-.18,0-.27,0l-351.31,6.84c-7.39.14-13.3,6.27-13.17,13.67h0l8.44,474.8c.13,7.31,6.14,13.19,13.43,13.19.05,0,.11,0,.16,0l351.92-4.22c3.6-.04,6.97-1.49,9.48-4.08,2.51-2.59,3.85-6,3.79-9.6l-9.06-477.41c-.07-3.59-1.53-6.94-4.12-9.42-2.52-2.43-5.82-3.76-9.31-3.76Z"/><path class="cls-22" d="m548.09,871.3H164.82c-2.51,0-4.55-2.04-4.55-4.55s2.04-4.55,4.55-4.55h383.27c2.51,0,4.55,2.04,4.55,4.55s-2.04,4.55-4.55,4.55Z"/><rect class="cls-16" x="200.28" y="1116.8" width="47.76" height="173.43" rx="4.82" ry="4.82"/><path class="cls-19" d="m365.06,1096.07h-38.01c-2.66,0-4.87,2.56-4.87,5.55v182.88c0,2.98,2.21,5.74,4.87,5.74h38.01c2.66,0,5.5-2.75,5.5-5.74v-182.88c0-2.98-2.83-5.55-5.5-5.55Z"/><rect class="cls-20" x="259.97" y="1062.76" width="47.76" height="227.47" rx="4.82" ry="4.82"/><rect class="cls-17" x="466.7" y="985.47" width="47.76" height="304.75" rx="4.82" ry="4.82"/><rect class="cls-18" x="395.7" y="1027.57" width="47.76" height="262.65" rx="4.82" ry="4.82"/><g class="cls-37"><polygon class="cls-5" points="222.51 1058.31 221.6 1056.65 285.16 1021.93 344.24 1047.9 394.97 998.14 395.07 998.08 454.64 962.92 455.6 964.55 396.13 999.64 344.65 1050.14 285.25 1024.03 222.51 1058.31"/><path class="cls-2" d="m228.89,1057.48c0,3.78-3.06,6.84-6.84,6.84s-6.84-3.06-6.84-6.84,3.06-6.84,6.84-6.84,6.84,3.06,6.84,6.84Z"/><circle class="cls-3" cx="285.2" cy="1022.98" r="6.84"/><circle class="cls-4" cx="344.45" cy="1047.72" r="6.84"/><circle class="cls-13" cx="393.92" cy="998.89" r="6.84"/><path class="cls-9" d="m461.96,963.73c0,3.78-3.06,6.84-6.84,6.84s-6.84-3.06-6.84-6.84,3.06-6.84,6.84-6.84,6.84,3.06,6.84,6.84Z"/></g><path class="cls-27" d="m378.24,1183.57l2.97,177.11c.23,13.76,11.45,24.79,25.21,24.79h347.62c13.92,0,25.21-11.29,25.21-25.21v-165.76c0-13.61-10.8-24.76-24.4-25.2l-350.59-11.35c-14.4-.47-26.27,11.21-26.02,25.62Z"/><path class="cls-31" d="m407.01,1200.82l7.54,162.87c.29,6.25,5.5,11.14,11.76,11.03l316.54-5.57c6.31-.11,11.37-5.26,11.37-11.57v-141.25c0-6.17-4.84-11.25-11-11.56l-324.08-16.05c-6.82-.34-12.45,5.27-12.13,12.09Z"/><path class="cls-27" d="m432.25,1216.1v11.73c0,4.14,3.39,7.47,7.52,7.4l273.02-4.45c4.04-.07,7.28-3.36,7.28-7.4h0c0-4.01-3.2-7.29-7.21-7.4l-273.02-7.28c-4.16-.11-7.6,3.23-7.6,7.4Z"/><path class="cls-27" d="m436.33,1260.41v10.76c0,4.19,3.47,7.54,7.66,7.4l260.03-9.06c3.99-.14,7.15-3.41,7.15-7.4v-3.36c0-4.11-3.34-7.43-7.45-7.4l-260.03,1.65c-4.07.03-7.36,3.33-7.36,7.4Z"/><path class="cls-27" d="m119.91,437.2c14.2,0,27.28,4.79,37.74,12.82l22.11-31.29c-16.26-11.69-36.19-18.59-57.75-18.59-2.85,0-5.71.16-8.55.41l5.68,36.67c.26,0,.52-.02.78-.02Z"/><path class="cls-31" d="m119.91,561.24c-34.25,0-69.05-25.52-69.05-59.77s34.27-63.8,68.27-64.25l-5.68-36.67c-51.81,4.63-101.75,50.4-101.75,102.27,0,54.72,55.59,95.49,110.31,95.49,14.34,0,27.96-3.07,40.27-8.56l-22.27-31.86c-6.31,2.16-13.06,3.35-20.1,3.35Z"/><path class="cls-27" d="m221.09,499.22c0-33.17-16.31-62.5-41.33-80.49l-22.11,31.29c14.76,11.34,24.28,29.15,24.28,49.2,0,27.21-17.54,50.32-41.92,58.67l22.27,31.86c34.65-15.44,58.81-50.15,58.81-90.53Z"/><path class="cls-27" d="m402.67,437.2c24.33,0,45.37,14.01,55.53,34.41l25.56-32.19c-18.09-23.86-46.74-39.28-78.99-39.28-25.31,0-50.79,10.27-70.88,26.71l22.64,28.58c12.83-11.16,29.54-18.23,46.14-18.23Z"/><path class="cls-35" d="m333.63,501.47c0-17.65,9.25-34.17,22.9-46.04l-22.64-28.58c-23.36,19.11-39.43,46.56-39.43,75.97,0,54.03,54.19,94.43,108.23,95.44l-1.74-37.06c-33.69-.83-67.33-26.05-67.33-59.73Z"/><path class="cls-27" d="m402.67,561.24c-.57,0-1.14-.03-1.71-.04l1.74,37.06c.69.01,1.38.05,2.08.05,38.43,0,71.73-21.9,88.16-53.88-9.48-4.28-23.55-10.4-35.72-15.66-10.5,19.34-30.99,32.48-54.54,32.48Z"/><path class="cls-27" d="m483.76,439.41l-25.56,32.19c4.14,8.32,6.49,17.69,6.49,27.61,0,10.7-2.71,20.76-7.48,29.54,12.17,5.26,26.24,11.38,35.72,15.66,6.96-13.56,10.92-28.91,10.92-45.2,0-22.47-7.49-43.19-20.1-59.81Z"/><path class="cls-31" d="m685.44,437.2c13.24,0,25.49,4.16,35.56,11.22l19.98-32.62c-15.42-9.9-33.76-15.67-53.45-15.67-26.17,0-52.53,10.99-72.92,28.42l23.71,27.71c12.95-11.65,30.09-19.07,47.11-19.07Z"/><path class="cls-31" d="m747.35,495.66l38.6-7.8c-3.46-30.26-20.54-56.36-44.97-72.05l-19.98,32.62c15.08,10.58,25.24,27.69,26.35,47.23Z"/><path class="cls-35" d="m616.39,501.47c0-17.24,8.82-33.4,21.94-45.2l-23.71-27.71c-22.24,19.02-37.39,45.71-37.39,74.26,0,35.46,23.35,65.03,54.66,81.48l19.37-31.47c-19.93-10.22-34.87-28.91-34.87-51.35Z"/><path class="cls-27" d="m747.35,495.66c.07,1.18.11,2.37.11,3.56,0,34.25-27.77,62.02-62.02,62.02-11.81,0-23.69-3.04-34.18-8.42l-19.37,31.47c17.02,8.94,36.38,14.01,55.65,14.01,54.72,0,99.08-44.36,99.08-99.08,0-3.85-.24-7.63-.67-11.37l-38.6,7.8Z"/><path class="cls-27" d="m142.3,415.61c1.25,0,2.51-.46,3.49-1.39l68.96-65.32c6-5.68,13.85-8.81,22.11-8.81h234.73c2.81,0,5.08-2.27,5.08-5.08s-2.27-5.08-5.08-5.08h-234.73c-10.87,0-21.2,4.12-29.1,11.59l-68.96,65.32c-2.04,1.93-2.12,5.14-.19,7.18,1,1.05,2.34,1.59,3.69,1.59Z"/><path class="cls-27" d="m272.91,308.59h198.69c2.81,0,5.08-2.27,5.08-5.08s-2.27-5.08-5.08-5.08h-198.69c-2.81,0-5.08,2.27-5.08,5.08s2.27,5.08,5.08,5.08Z"/><path class="cls-27" d="m305.24,277.09h166.36c2.81,0,5.08-2.27,5.08-5.08s-2.27-5.08-5.08-5.08h-166.36c-2.81,0-5.08,2.27-5.08,5.08s2.27,5.08,5.08,5.08Z"/><path class="cls-31" d="m1651.89,217.61l11.4-.34c1.25-.04,2.3.95,2.33,2.2.04,1.25-.95,2.3-2.2,2.33h-.04s-11.29.34-11.29.34h-.07c-1.25.04-2.3-.95-2.34-2.2-.04-1.25.95-2.3,2.2-2.34h0Z"/><path class="cls-31" d="m1674.67,217.11l11.38-.04c1.25,0,2.26,1,2.27,2.25,0,1.25-1,2.26-2.25,2.27h-.02l-11.33.05h-.02c-1.25,0-2.27-1-2.27-2.25,0-1.25,1-2.27,2.25-2.27h0Z"/><path class="cls-31" d="m1697.43,217.15l11.38.18c1.24.02,2.23,1.04,2.21,2.29-.02,1.24-1.04,2.23-2.29,2.21h-.02l-11.34-.17h-.02c-1.24-.02-2.24-1.04-2.22-2.29.02-1.25,1.04-2.24,2.29-2.22h0Z"/><path class="cls-31" d="m1720.18,217.62l11.37.39c1.24.04,2.2,1.08,2.16,2.32-.04,1.24-1.08,2.2-2.32,2.16h-.02s-11.33-.38-11.33-.38h-.02c-1.24-.04-2.21-1.08-2.17-2.32.04-1.24,1.08-2.21,2.32-2.17h0Z"/><path class="cls-31" d="m1742.92,218.51l11.36.6c1.23.06,2.18,1.12,2.11,2.35-.07,1.23-1.12,2.17-2.35,2.11h-.02s-11.32-.59-11.32-.59h-.02c-1.23-.06-2.18-1.12-2.12-2.35.06-1.23,1.12-2.18,2.35-2.12h0Z"/><path class="cls-31" d="m1765.65,219.81l11.35.82c1.22.09,2.14,1.15,2.06,2.38-.09,1.22-1.15,2.14-2.38,2.06h-.02s-11.31-.8-11.31-.8h-.02c-1.23-.09-2.15-1.15-2.06-2.38.09-1.23,1.15-2.15,2.38-2.06h0Z"/><path class="cls-31" d="m1788.34,221.56l11.34,1.04c1.22.11,2.11,1.19,2,2.41-.11,1.22-1.19,2.11-2.41,2h-.02s-11.29-1.03-11.29-1.03h-.02c-1.22-.11-2.12-1.19-2.01-2.41s1.19-2.12,2.41-2.01h0Z"/><path class="cls-31" d="m1811,223.76l11.31,1.28c1.21.14,2.08,1.23,1.94,2.44-.14,1.21-1.23,2.08-2.44,1.94h-.02s-11.27-1.27-11.27-1.27h-.02c-1.21-.14-2.08-1.23-1.95-2.44.14-1.21,1.23-2.08,2.44-1.95h0Z"/><path class="cls-31" d="m1833.61,226.45l11.28,1.54c1.2.16,2.04,1.27,1.88,2.47-.16,1.2-1.27,2.04-2.47,1.88h-.02s-11.23-1.53-11.23-1.53h-.03c-1.2-.17-2.05-1.27-1.88-2.48.16-1.2,1.27-2.05,2.47-1.88h0Z"/><path class="cls-31" d="m1856.16,229.67l11.24,1.83c1.19.19,2,1.32,1.81,2.51-.19,1.19-1.32,2-2.51,1.81h-.03s-11.19-1.81-11.19-1.81h-.03c-1.19-.2-2.01-1.32-1.81-2.52.19-1.19,1.32-2.01,2.51-1.81h0Z"/><path class="cls-31" d="m1878.63,233.47l11.19,2.14c1.18.23,1.95,1.36,1.73,2.55-.23,1.18-1.37,1.95-2.55,1.73h-.03s-11.13-2.12-11.13-2.12h-.03c-1.18-.23-1.96-1.37-1.73-2.56.22-1.18,1.37-1.96,2.55-1.73h0Z"/><path class="cls-31" d="m1900.98,237.92l11.12,2.49c1.17.26,1.9,1.42,1.64,2.59-.26,1.17-1.42,1.9-2.59,1.64h-.03s-11.06-2.47-11.06-2.47h-.03c-1.17-.27-1.91-1.43-1.65-2.6.26-1.17,1.42-1.91,2.59-1.65h0Z"/><path class="cls-31" d="m1923.19,243.08l11.04,2.88c1.15.3,1.84,1.48,1.54,2.63-.3,1.15-1.48,1.84-2.63,1.54h-.04s-10.96-2.86-10.96-2.86h-.04c-1.16-.31-1.85-1.49-1.55-2.65.3-1.16,1.48-1.85,2.64-1.55h0Z"/><path class="cls-31" d="m1945.21,249.06l10.92,3.33c1.13.35,1.77,1.55,1.43,2.68-.35,1.14-1.55,1.77-2.68,1.43h-.04s-10.83-3.3-10.83-3.3h-.04c-1.14-.36-1.78-1.56-1.43-2.7.35-1.14,1.55-1.78,2.69-1.43h0Z"/><path class="cls-31" d="m1966.96,255.96l10.76,3.84c1.11.4,1.69,1.62,1.29,2.73-.4,1.11-1.62,1.69-2.73,1.3l-.05-.02-10.66-3.79-.05-.02c-1.12-.4-1.7-1.62-1.3-2.74.4-1.12,1.62-1.7,2.74-1.3h0Z"/><path class="cls-31" d="m1988.37,263.93l10.53,4.43c1.08.46,1.59,1.7,1.14,2.79-.46,1.08-1.7,1.59-2.79,1.14l-.06-.02-10.42-4.38-.06-.02c-1.09-.46-1.6-1.71-1.14-2.79s1.71-1.6,2.79-1.14h0Z"/><path class="cls-31" d="m2009.3,273.13l10.23,5.13c1.05.52,1.47,1.8.94,2.85-.52,1.05-1.8,1.47-2.85.94l-.07-.03-10.09-5.05-.07-.03c-1.05-.52-1.47-1.8-.95-2.85.52-1.05,1.8-1.47,2.85-.95h0Z"/><path class="cls-31" d="m2029.56,283.78l9.8,5.94c1,.6,1.32,1.9.71,2.9-.6,1-1.9,1.32-2.9.71l-.08-.05-9.64-5.83-.08-.05c-1-.6-1.32-1.91-.71-2.91.6-1,1.91-1.32,2.9-.71h0Z"/><path class="cls-31" d="m2048.92,295.94l9.43,6.42c.96.65,1.21,1.96.55,2.92-.65.96-1.96,1.21-2.92.55l-.04-.02-9.36-6.36-.04-.03c-.96-.65-1.21-1.96-.56-2.93.65-.96,1.96-1.21,2.93-.56h0Z"/><path class="cls-31" d="m2067.64,308.99l9.12,6.87c.92.69,1.11,2.01.41,2.93-.69.92-2.01,1.11-2.93.41l-.04-.03-9.04-6.79-.04-.03c-.93-.7-1.11-2.01-.42-2.94.7-.93,2.01-1.11,2.94-.42h0Z"/><path class="cls-31" d="m2085.7,322.98l8.72,7.39c.88.74.99,2.06.24,2.94-.74.88-2.06.99-2.94.24l-.05-.04-8.63-7.3-.05-.04c-.88-.74-.99-2.06-.25-2.94.74-.88,2.06-.99,2.94-.25h0Z"/><path class="cls-31" d="m2102.89,338.05l8.18,8.01c.82.8.83,2.11.03,2.93-.8.82-2.11.83-2.93.03l-.06-.06-8.07-7.89-.06-.06c-.82-.8-.84-2.12-.03-2.94.8-.82,2.12-.84,2.94-.03h0Z"/><path class="cls-31" d="m2118.9,354.43l7.42,8.75c.74.87.63,2.17-.24,2.91-.87.74-2.17.63-2.91-.24l-.07-.08-7.29-8.58-.07-.08c-.74-.87-.63-2.18.24-2.92.87-.74,2.18-.63,2.92.24h0Z"/><path class="cls-31" d="m2133.26,372.33l6.34,9.6c.63.95.37,2.22-.58,2.85-.95.63-2.22.37-2.85-.58l-.08-.12-6.2-9.36-.08-.12c-.63-.95-.37-2.23.58-2.85.95-.63,2.23-.37,2.85.58h0Z"/><path class="cls-31" d="m2145.23,391.98l4.77,10.51c.47,1.03.01,2.24-1.02,2.71-1.03.47-2.24.01-2.71-1.02l-.08-.17-4.63-10.17-.07-.16c-.47-1.03-.01-2.25,1.02-2.71,1.03-.47,2.24-.01,2.71,1.02h0Z"/><path class="cls-31" d="m2153.76,413.43c1.07,3.71,1.94,7.48,2.59,11.29.19,1.11-.56,2.16-1.67,2.35-1.11.19-2.16-.55-2.35-1.66-.63-3.65-1.47-7.28-2.5-10.85-.31-1.08.31-2.22,1.4-2.53,1.08-.31,2.22.31,2.53,1.4h0Z"/><path class="cls-31" d="m2157.62,436.24c.2,3.86.16,7.74-.12,11.6-.08,1.12-1.05,1.96-2.17,1.88s-1.96-1.05-1.88-2.17c.26-3.7.3-7.41.11-11.11-.06-1.12.8-2.08,1.93-2.13,1.12-.06,2.08.8,2.13,1.93h0Z"/><path class="cls-31" d="m2155.98,459.34c-.74,3.8-1.69,7.55-2.85,11.23-.33,1.06-1.47,1.65-2.53,1.32-1.06-.33-1.65-1.47-1.32-2.53,1.11-3.54,2.03-7.15,2.73-10.79.21-1.1,1.27-1.81,2.37-1.6,1.1.21,1.82,1.27,1.6,2.37h0Z"/><path class="cls-31" d="m2149.08,481.4l-5.08,10.36c-.49,1-1.69,1.41-2.69.92-1-.49-1.41-1.69-.92-2.69l.08-.16,4.91-10.03.08-.17c.49-1,1.69-1.41,2.69-.92,1,.49,1.41,1.69.92,2.69h0Z"/><path class="cls-31" d="m2138.05,501.63l-6.68,9.37c-.64.9-1.89,1.11-2.79.47-.9-.64-1.11-1.89-.47-2.79l.08-.11,6.5-9.14.08-.12c.64-.9,1.89-1.11,2.79-.47.9.64,1.11,1.89.47,2.79h0Z"/><path class="cls-31" d="m2124.1,519.88l-7.76,8.44c-.74.81-2,.86-2.81.12-.81-.74-.86-2-.12-2.81l.07-.08,7.61-8.29.07-.08c.75-.81,2.01-.87,2.82-.12.81.75.87,2.01.12,2.82h0Z"/><path class="cls-31" d="m2108.17,536.35l-8.51,7.65c-.81.73-2.07.66-2.8-.15-.73-.81-.66-2.07.15-2.8l.06-.05,8.38-7.54.06-.06c.82-.73,2.07-.67,2.8.15.73.82.67,2.07-.15,2.8h0Z"/><path class="cls-31" d="m2090.87,551.3l-8.91,7.06h-.01c-.85.69-2.09.54-2.77-.31-.68-.85-.53-2.09.32-2.77l8.9-7.06h.02c.86-.69,2.1-.55,2.78.31.68.86.53,2.1-.32,2.78h0Z"/><path class="cls-31" d="m2073.14,565.5l-8.69,7.28-.03.02c-.83.7-2.07.59-2.77-.24-.7-.83-.59-2.07.24-2.76l8.74-7.33c.83-.7,2.07-.59,2.77.24.7.83.59,2.07-.24,2.77h0s-.03.02-.03.02Z"/><path class="cls-31" d="m2055.9,580.22l-8.36,7.63-.04.03c-.8.73-2.03.67-2.76-.13-.73-.8-.67-2.03.13-2.76l8.43-7.7c.8-.73,2.04-.67,2.77.12.73.8.67,2.04-.12,2.77h0s-.04.03-.04.03Z"/><path class="cls-31" d="m2039.4,595.7l-7.84,8.13-.06.06c-.75.77-1.98.8-2.75.05-.77-.75-.8-1.98-.05-2.75l7.94-8.25c.75-.78,1.98-.8,2.76-.05.78.75.8,1.98.05,2.76h0s-.05.05-.05.05Z"/><path class="cls-31" d="m2024.12,612.3l-6.91,8.87-.08.11c-.66.84-1.87.99-2.71.34-.84-.66-.99-1.87-.34-2.71l7.06-9.08c.66-.85,1.88-1,2.72-.34.85.66,1,1.88.34,2.72h0s-.08.1-.08.1Z"/><path class="cls-31" d="m2011.04,630.51c-1.9,3.2-3.64,6.49-5.14,9.87-.43.97-1.57,1.41-2.54.98-.97-.43-1.41-1.57-.98-2.54,1.57-3.54,3.37-6.97,5.34-10.29.54-.92,1.73-1.22,2.65-.67.92.54,1.22,1.73.68,2.65h0Z"/><path class="cls-31" d="m2002.17,650.8c-.97,3.55-1.63,7.17-1.97,10.83-.1,1.05-1.03,1.83-2.08,1.74-1.05-.1-1.83-1.03-1.74-2.08.35-3.89,1.05-7.74,2.08-11.49.28-1.02,1.33-1.63,2.36-1.35,1.02.28,1.63,1.33,1.35,2.36h0Z"/><path class="cls-31" d="m2000.18,672.64c.31,3.67.91,7.33,1.75,10.94.24,1.03-.4,2.05-1.43,2.29-1.03.24-2.05-.4-2.29-1.43-.88-3.77-1.52-7.6-1.85-11.48-.09-1.05.69-1.98,1.75-2.07,1.05-.09,1.98.69,2.07,1.74h0Z"/><path class="cls-31" d="m2005.06,694.29l4.07,10.46.04.11c.38.98-.1,2.08-1.08,2.46-.98.38-2.08-.1-2.46-1.08l-4.17-10.7c-.38-.98.1-2.08,1.08-2.46.98-.38,2.08.1,2.46,1.08h0s.05.13.05.13Z"/><path class="cls-31" d="m2013.79,715.03l4.99,10.16.02.03c.46.94.07,2.07-.86,2.53-.94.46-2.07.07-2.53-.86l-5.03-10.23c-.46-.94-.08-2.07.86-2.54.94-.46,2.07-.08,2.54.86h0s.02.04.02.04Z"/><path class="cls-31" d="m2023.9,735.38l4.39,10.66c.4.96-.06,2.06-1.02,2.45-.96.4-2.06-.06-2.45-1.02l-.06-.15-4.27-10.34-.07-.17c-.4-.96.06-2.06,1.02-2.46.96-.4,2.06.06,2.46,1.02h0Z"/><path class="cls-31" d="m2031.82,756.97l2.81,11.12c.25,1-.35,2.02-1.36,2.27-1,.25-2.02-.35-2.27-1.36l-.03-.11-2.76-10.9-.03-.11c-.25-1,.35-2.02,1.36-2.28,1-.25,2.02.35,2.28,1.36h0Z"/><path class="cls-31" d="m2036.78,779.35l1.53,11.36c.14,1.02-.58,1.96-1.6,2.09-1.02.14-1.96-.58-2.09-1.6v-.1s-1.53-11.16-1.53-11.16v-.1c-.15-1.02.56-1.96,1.58-2.1,1.02-.14,1.96.58,2.1,1.6h0Z"/><path class="cls-31" d="m2039.23,802.12l.31,11.45c.03,1.02-.78,1.87-1.8,1.9-1.02.03-1.87-.78-1.9-1.8v-.1s-.32-11.25-.32-11.25v-.1c-.03-1.03.78-1.88,1.8-1.91,1.02-.03,1.88.78,1.91,1.8h0Z"/><path class="cls-31" d="m2039.25,825.03l-.9,11.42c-.08,1.01-.97,1.77-1.98,1.69-1.01-.08-1.77-.97-1.69-1.98v-.1s.89-11.23.89-11.23v-.1c.09-1.02.98-1.78,1.99-1.7,1.02.08,1.78.97,1.7,1.99h0Z"/><path class="cls-31" d="m2036.83,847.8l-2.13,11.26c-.19.99-1.15,1.65-2.14,1.46-.99-.19-1.65-1.15-1.46-2.14l.02-.1,2.08-11.06.02-.1c.19-1,1.15-1.65,2.15-1.47,1,.19,1.65,1.15,1.47,2.15h0Z"/><path class="cls-31" d="m2031.95,870.18l-3.35,10.96c-.29.96-1.31,1.51-2.28,1.21-.96-.29-1.51-1.31-1.21-2.28l.03-.09,3.28-10.77.03-.1c.29-.97,1.32-1.51,2.28-1.22.97.29,1.51,1.32,1.22,2.28h0Z"/><path class="cls-31" d="m2024.65,891.9l-4.54,10.52c-.4.92-1.46,1.35-2.39.95-.92-.4-1.35-1.46-.95-2.39l.04-.09,4.45-10.34.04-.09c.4-.92,1.47-1.35,2.39-.95.92.4,1.35,1.47.95,2.39h0Z"/><path class="cls-31" d="m2015.01,912.68l-5.64,9.97c-.49.87-1.59,1.17-2.46.68-.87-.49-1.17-1.59-.68-2.46l.05-.08,5.54-9.81.05-.08c.49-.87,1.6-1.18,2.47-.69.87.49,1.18,1.6.69,2.47h0Z"/><path class="cls-31" d="m2003.21,932.3l-6.64,9.32c-.58.81-1.7,1-2.51.42-.81-.58-1-1.7-.42-2.51l.05-.07,6.53-9.18.05-.07c.58-.81,1.7-1,2.51-.42.81.58,1,1.7.42,2.51h0Z"/><path class="cls-31" d="m1989.47,950.6l-7.52,8.63c-.65.74-1.78.82-2.52.17s-.82-1.78-.17-2.52l.05-.06,7.4-8.51.06-.06c.65-.75,1.78-.83,2.53-.18.75.65.83,1.78.18,2.53h0Z"/><path class="cls-31" d="m1974.05,967.49l-8.26,7.91c-.71.68-1.84.65-2.51-.05-.68-.71-.65-1.84.05-2.51l.05-.05,8.14-7.81.06-.05c.71-.68,1.84-.66,2.52.05.68.71.66,1.84-.05,2.52h0Z"/><path class="cls-31" d="m1957.2,982.95l-8.87,7.2c-.76.62-1.87.5-2.49-.26-.62-.76-.5-1.87.26-2.49l.05-.04,8.76-7.12.05-.04c.76-.62,1.88-.5,2.5.26.62.76.5,1.88-.26,2.5h0Z"/><path class="cls-31" d="m1939.19,997l-9.38,6.52c-.8.55-1.9.36-2.45-.44-.55-.8-.36-1.9.44-2.45l.05-.03,9.27-6.45.05-.04c.8-.56,1.9-.36,2.46.44.56.8.36,1.9-.44,2.46h0Z"/><path class="cls-31" d="m1920.22,1009.71l-9.79,5.88c-.83.5-1.9.23-2.4-.6-.5-.83-.23-1.9.6-2.4l.05-.03,9.69-5.83.05-.03c.83-.5,1.91-.23,2.41.6.5.83.23,1.91-.6,2.41h0Z"/><path class="cls-31" d="m1900.47,1021.17l-10.11,5.28c-.85.45-1.9.12-2.35-.74-.45-.85-.12-1.9.74-2.35l.04-.02,10.02-5.24.04-.02c.85-.45,1.91-.12,2.36.74.45.85.12,1.91-.74,2.36h0Z"/><path class="cls-31" d="m1880.12,1031.45l-10.37,4.74c-.87.4-1.9.01-2.3-.86-.4-.87-.01-1.9.86-2.3l.04-.02,10.29-4.71.04-.02c.87-.4,1.9-.02,2.3.86.4.87.02,1.9-.86,2.3h0Z"/><path class="cls-31" d="m1859.26,1040.67l-10.58,4.24c-.88.35-1.89-.08-2.24-.96-.35-.88.08-1.89.96-2.24h.03s10.51-4.23,10.51-4.23h.04c.89-.37,1.89.06,2.25.95.36.89-.07,1.89-.96,2.25h0Z"/><path class="cls-31" d="m1838,1048.91l-10.75,3.78c-.89.31-1.87-.16-2.19-1.05-.31-.89.16-1.87,1.05-2.19h.03s10.68-3.78,10.68-3.78h.03c.9-.33,1.88.14,2.19,1.04.32.89-.15,1.88-1.05,2.19h0Z"/><polygon class="cls-31" points="1612.07 188.12 1618.1 224.89 1590.6 213.16 1612.07 188.12"/><path class="cls-31" d="m1443.26,194.12l113.58,70.82c2.17,1.36,4.81,1.77,7.29,1.14s4.61-2.24,5.88-4.46l66.81-116.72c.77-1.34.64-3-.31-4.21-.95-1.21-2.54-1.72-4.02-1.3l-189.24,54.72Z"/><polygon class="cls-31" points="1612.06 188.12 1443.26 194.12 1601.34 206.99 1603.44 217.12 1612.06 188.12"/><polygon class="cls-31" points="1594.89 218.13 1618.1 224.89 1601.34 206.99 1594.89 218.13"/><rect class="cls-27" x="1889.31" y="1185.56" width="17.67" height="191.09"/><path class="cls-27" d="m1975.53,1380.34h-154.76v-8.81c0-1.49,1.2-2.69,2.69-2.69h149.17c1.6,0,2.9,1.3,2.9,2.9v8.6Z"/><rect class="cls-27" x="1798" y="1140.06" width="206.8" height="58.65" rx="20.2" ry="20.2"/><path class="cls-25" d="m1799.73,1342.8s-50.46,36.37-41.7,60.8c0,0,55.21-23.82,61.88-42.58,6.67-18.76-1.13-27.05-1.13-27.05l-19.05,8.83Z"/><path class="cls-7" d="m1807.31,1312.32l8.25,23.85c1.24,3.6,0,7.7-3.22,9.73-1.61,1.02-3.82,1.96-6.83,2.64-4.25.96-8.64-1-10.68-4.85l-9.87-18.58,22.35-12.79Z"/><path class="cls-28" d="m1887.6,1097.63s-103.64,17.96-148.1,59.03c-44.46,41.07,40.81,172.07,40.81,172.07,0,0,13.97-.09,30.9-14.6,0,0-50.55-98.53-6.99-127.26,48.98-32.3,105.43-39.58,105.43-39.58l-21.05-46.5-1-3.17Z"/><path class="cls-25" d="m1766.8,1390.09c11.1-5.14,42.52-27.13,47.81-28.1,5.3-.97,14.48,5.25,14.48,5.25,0,0,2.23,4.02-.16,11.03-7.37,8.92-23.75,25.93-45.76,32.27-16.19,4.66-27.52.32-34.57-4.77,3.88-5.91,10.8-12.26,18.19-15.68Z"/><path class="cls-25" d="m1783.18,1410.55c22.01-6.34,38.39-23.35,45.76-32.27-1.62,4.74-5.34,10.84-13.3,17.99-19.74,17.74-57.43,24.13-65.46,22.9-6.43-.99-5.83-6.92-1.58-13.39,7.05,5.09,18.38,9.43,34.57,4.77Z"/><path class="cls-6" d="m1838.51,1351.72c-.12,3.06-6.37,13.54-10.03,19.43-1.74,2.8-4.78,4.5-8.07,4.51-2.09,0-4.49-.18-6.67-.8-3.27-.94-5.11-4.42-4.15-7.69l7.14-24.37,21.77,8.92Z"/><path class="cls-28" d="m1987.37,1066.53s23.02,61.54,0,80.26c-23.02,18.72-77.92,39.79-90.19,77.07-12.27,37.28-33.08,109.73-60.94,135.38,0,0-19.57-1.9-26.9-9.69,0,0,15.86-108.15,26.33-135.9,9.06-24.03,22.41-58.72,48-78.11,7.32-5.55,6.05-14.34,2.65-22.88l-6.18-15.55,107.23-30.57Z"/><path class="cls-27" d="m1747.32,1018.29c38.59,2.33,26.57-59.33,25.87-61.78l58.57,41.37s-3.1,32.97-51.8,50.27c-12.32,4.38-23.58,4.57-33.54,2.43,4.25-12.38,3.38-23.49.89-32.29Z"/><path class="cls-12" d="m1672.7,999.73c14.38-10,30.67,0,30.67,0,19.23,12.58,33.45,17.92,43.95,18.56,2.49,8.8,3.35,19.91-.89,32.29-21.54-4.63-36.95-20.22-43.65-28.22-2.41-2.88-6.68-3.38-9.63-1.05-2.99,2.36-5.9,5.6-5.38,9.01,1.04,6.72-6.76,8.86-7.35,6.42-.59-2.44,2.67-16.89,2.67-16.89,0,0-15.6,15.68-21.68,21.71-6.09,6.03-13.74,0-13.74,0,0,0,10.65-31.82,25.03-41.83Z"/><path class="cls-27" d="m1927.27,861.29s-56.14-22.48-160.63,63.78c0,0-8.73,18.07.79,34.14,9.52,16.08,100.24,94.43,112.71,137.88,0,0,54.05,17.56,109.94-24.08,0,0-4.93-120.92-62.81-211.72Z"/><path class="cls-8" d="m1816.27,841.23l27.64,33.51c2.74,3.33,3.35,7.95,1.45,11.83-3.84,7.83-12.94,19.22-33.13,17.64-6.01-.47-11.32-4.09-13.95-9.51l-19.33-39.95,37.31-13.51Z"/><path class="cls-27" d="m1970.73,1004.79c6.52-26.54-59.5-85.72-59.5-85.72l16.03-57.78s142.56,94.9,106.23,171.22c-5.21,10.94-12.12,18.6-20.14,23.73-11.48-30.9-29.77-45.07-42.62-51.45Z"/><path class="cls-15" d="m1970.78,1000.93c.7,0,1.34-.48,1.51-1.19,6.66-27.14-57.25-84.81-59.98-87.25-.64-.57-1.62-.52-2.2.12-.57.64-.52,1.63.12,2.2.65.58,65.25,58.85,59.03,84.19-.21.84.31,1.68,1.14,1.89.12.03.25.04.37.04Z"/><path class="cls-11" d="m1870.74,1002.51s78.27,30.39,97.38,7.53c1.3-1.55,2.14-3.32,2.61-5.25,12.84,6.38,31.14,20.55,42.62,51.45-41.17,26.31-111.53-14.63-130.56-26.7-3.13-1.99-6.88-2.68-10.51-1.93-7.34,1.52-20.02,3.76-26.85,2.71-10-1.54-24.37,33.74-40.58,22.86,0,0,13.88-61.33,65.9-50.66Z"/><path class="cls-14" d="m1756.14,792.02c-.28,1.08,6.48,74.32,6.48,74.32l41.74-4.75,3.91-70.37s-47.47-17.24-52.13.8Z"/><path class="cls-25" d="m1797.39,805.8l.84,37.21c.01.48-.04.94-.16,1.4-.73,2.83-3.94,12.38-13.51,8.5-8.69-3.52-16.66-6.61-22.53-5.5-2.63.5-4.46,2.91-4.21,5.58.62,6.65,2.28,21.62,5.71,34.41.7,2.59,3.28,4.2,5.92,3.73,7.97-1.4,24.7-4.84,37.51-10.75,1.74-.8,2.9-2.47,3.03-4.37.63-9.3,2.63-37.56,4.41-45.35,1.67-7.31,11.24-10.75,15.36-11.91,1.35-.38,2.48-1.29,3.14-2.53,2.33-4.38,6.02-14.71-6.87-20.52-2.7-1.22-3.84-4.39-2.54-7.05,2.58-5.29,4.34-13.61-5.49-19.37-9.99-5.86-18.45-1.12-23.19,2.96-1.91,1.65-4.69,1.63-6.67.06-1.13-.9-2.66-1.32-4.67-.35-2.71,1.3-5.95-.14-6.97-2.98-1.95-5.44-6.47-11.53-16.95-10.9-18.59,1.12-22.88,21.12-19.37,33.5,3.51,12.38,23.6,10.02,34.09,5.12,7.97-3.72,17.14,2.1,21.08,5.11,1.25.95,1.98,2.42,2.02,3.99Z"/><path class="cls-10" d="m1814.58,844.22s-5.2-21.83,3.08-26.13c8.27-4.3,19.4-.38,15.21,14.57-5.2,18.59-18.29,11.56-18.29,11.56Z"/><path class="cls-31" d="m1830.64,1062.44c-.13,0-.25,0-.38,0l-164.23-.18c-4.06,0-7.35-3.3-7.34-7.36,0-4.06,3.31-7.42,7.36-7.34l164.23.18c4.06,0,7.35,3.3,7.34,7.36,0,3.93-3.1,7.14-6.98,7.33Z"/><path class="cls-31" d="m1518.4,913.33h136.77c10.09,0,19.27,5.82,23.58,14.95l63.23,134.07h-169.97c-6.5,0-12.34-3.97-14.73-10.02l-49.03-124.07c-2.83-7.17,2.45-14.94,10.16-14.94Z"/><path class="cls-27" d="m1540.57,1414.68c-.91,0-1.83-.18-2.72-.55-3.5-1.46-5.12-5.39-3.61-8.78l144.74-325.74c1.51-3.39,5.56-4.95,9.07-3.5,3.5,1.46,5.12,5.39,3.61,8.78l-144.74,325.74c-1.12,2.53-3.67,4.04-6.34,4.04Z"/><path class="cls-27" d="m1703.63,1414.68c-2.67,0-5.22-1.51-6.34-4.04l-144.74-325.74c-1.51-3.39.11-7.32,3.61-8.78,3.5-1.46,7.56.11,9.07,3.5l144.74,325.74c1.51,3.39-.11,7.32-3.61,8.78-.89.37-1.81.55-2.72.55Z"/><path class="cls-27" d="m1988.6,1414.68c-.91,0-1.83-.18-2.72-.55-3.5-1.46-5.12-5.39-3.61-8.78l144.74-325.74c1.51-3.39,5.56-4.95,9.07-3.5,3.5,1.46,5.12,5.39,3.61,8.78l-144.74,325.74c-1.12,2.53-3.67,4.04-6.34,4.04Z"/><path class="cls-27" d="m2151.65,1414.68c-2.67,0-5.22-1.51-6.34-4.04l-144.74-325.74c-1.51-3.39.11-7.32,3.61-8.78,3.5-1.46,7.56.11,9.07,3.5l144.74,325.74c1.51,3.39-.11,7.32-3.61,8.78-.89.37-1.81.55-2.72.55Z"/><path class="cls-27" d="m2168.63,1069.55c.37-2.14-.13-4.35-1.37-6.02-1.24-1.68-3.08-2.65-5.02-2.65h-658.45c-2.56,0-4.94,1.46-6.31,3.87-1.38,2.41-1.56,5.44-.49,8.04l7.14,17.29c1.63,3.96,5.17,6.49,9.07,6.49h644.53c3.62,0,6.74-2.88,7.43-6.86l3.48-20.16Z"/><path class="cls-28" d="m378.43,1163.33l-288.11,159.81c-12.08,6.7-15.9,22.28-8.28,33.8l1.25,1.89c6.74,10.2,20.5,12.96,30.65,6.15l275.1-184.46-10.62-17.19Z"/><ellipse class="cls-21" cx="508.35" cy="1074.08" rx="152.83" ry="150.07" transform="translate(-162.09 92.97) rotate(-9.02)"/><path class="cls-28" d="m482.17,909.15c-92.76,14.72-156.24,100.49-141.78,191.58,14.45,91.09,101.37,152.99,194.13,138.27,92.76-14.72,156.24-100.49,141.78-191.58-14.45-91.09-101.37-152.99-194.13-138.27Zm48.5,305.63c-79.13,12.56-153.28-40.26-165.61-117.96-12.33-77.71,41.82-150.88,120.96-163.44,79.13-12.56,153.28,40.26,165.61,117.96,12.33,77.71-41.82,150.88-120.96,163.44Z"/><path class="cls-28" d="m356.22,1119.15c-.49,0-.95-.32-1.09-.82-1.12-3.82-2.1-7.75-2.92-11.66-.13-.61.26-1.22.88-1.34.61-.14,1.22.27,1.35.88.81,3.86,1.78,7.72,2.88,11.49.18.6-.17,1.23-.77,1.41-.11.03-.21.05-.32.05Zm-6.17-46.3h-.02c-.63-.01-1.13-.53-1.11-1.16.22-10.91,1.61-21.82,4.14-32.45,0,0,0,0,0,0,14.89-62.57,66.21-109.62,130.73-119.86,30.09-4.77,60.67-1.06,88.42,10.75.58.25.85.91.6,1.49-.25.58-.91.85-1.49.6-27.36-11.64-57.51-15.31-87.18-10.6-63.61,10.09-114.2,56.47-128.88,118.15,0,0,0,0,0,0-2.49,10.47-3.86,21.22-4.08,31.96-.01.62-.52,1.11-1.14,1.11Z"/><path class="cls-28" d="m102.55,1362.38c-.07,0-.13,0-.2-.02-12.6-2.23-16.49-8.85-17.54-14-1.53-7.53,2.11-15.33,9.08-19.4l34.44-20.14c.54-.31,1.24-.14,1.55.41.32.54.13,1.24-.41,1.55l-34.44,20.14c-6.12,3.58-9.34,10.41-8,16.99,1.32,6.49,6.61,10.6,15.71,12.22.62.11,1.03.7.92,1.32-.1.55-.58.94-1.12.94Z"/><path class="cls-28" d="m139.52,1304.73c-.39,0-.77-.2-.98-.56-.32-.54-.13-1.24.41-1.55l4.46-2.61c.54-.32,1.24-.14,1.55.41.32.54.13,1.24-.41,1.55l-4.46,2.61c-.18.1-.38.16-.57.16Z"/><rect class="cls-31" x="1073.07" y="511.86" width="123.56" height="123.56" transform="translate(-74.2 967.5) rotate(-44.86)"/><circle class="cls-31" cx="1131.71" cy="239.97" r="89.29" transform="translate(693.67 1310.7) rotate(-79.72)"/></svg>