<?xml version="1.0" encoding="utf-8"?>
<!-- Generator: Adobe Illustrator 27.8.0, SVG Export Plug-In . SVG Version: 6.00 Build 0)  -->
<svg version="1.1" id="Слой_1" xmlns="http://www.w3.org/2000/svg" xmlns:xlink="http://www.w3.org/1999/xlink" x="0px" y="0px"
	 viewBox="0 0 532 377.8" style="enable-background:new 0 0 532 377.8;" xml:space="preserve">
<style type="text/css">
	.st0{fill:#25688F;}
	.st1{fill:#32A3D3;}
	.st2{fill:#6D6D6D;}
	.st3{fill:#FFFFFF;}
	.st4{fill:#DFE1E8;}
	.st5{fill:#EEF0F7;}
	.st6{fill:#3C4145;}
	.st7{fill:#EEA886;}
	.st8{fill:#A77860;}
	.st9{fill:#323657;}
	.st10{fill:#706865;}
	.st11{fill:#918783;}
	.st12{fill:#1D3B54;}
	.st13{fill:#CF8C6C;}
	.st14{fill:#DB9C7C;}
	.st15{fill:#152C3D;}
	.st16{fill:#EDDAD3;}
	.st17{fill:#BFB2AC;}
	.st18{fill:#EEA987;}
	.st19{fill:#C78D71;}
	.st20{fill:#5073AB;}
	.st21{fill:#F5F7FF;}
	.st22{fill:#C4C4C4;}
	.st23{fill:#1D2033;}
	.st24{fill:#50558A;}
	.st25{fill:#292C47;}
	.st26{fill:#3A4066;}
	.st27{fill:#E2D2CA;}
	.st28{fill:#CCBDB7;}
	.st29{fill:#B59074;}
	.st30{fill:#424773;}
	.st31{fill:#3A3F47;}
	.st32{fill:#5E5854;}
	.st33{fill:#CECFD6;}
	.st34{fill:#5C5552;}
	.st35{fill:#2E436E;}
	.st36{fill:#949494;}
</style>
<g>
	<path class="st0" d="M482.6,35.5c-0.8-3.2-2.1-6.2-3.7-8.9l3.8-5.7l-5.2-5.2l-5.2-5.2l-5.7,3.8c-2.8-1.6-5.8-2.9-8.9-3.7l-1.3-6.7
		h-7.4h-7.4l-1.3,6.7c-3.2,0.8-6.2,2.1-8.9,3.7l-5.7-3.8l-5.2,5.2l-5.2,5.2l3.8,5.7c-1.6,2.8-2.9,5.8-3.7,8.9l-6.7,1.3v7.4v7.4
		l6.7,1.3c0.8,3.2,2.1,6.2,3.7,8.9l-3.8,5.7l5.2,5.2l5.2,5.2l5.7-3.8c2.8,1.6,5.8,2.9,8.9,3.7l1.3,6.7h7.4h7.4l1.3-6.7
		c3.2-0.8,6.2-2.1,8.9-3.7l5.7,3.8l5.2-5.2l5.2-5.2l-3.8-5.7c1.6-2.8,2.9-5.8,3.7-8.9l6.7-1.3v-7.4v-7.4L482.6,35.5z M448.9,70.1
		c-14.3,0-25.9-11.6-25.9-25.9s11.6-25.9,25.9-25.9s25.9,11.6,25.9,25.9S463.2,70.1,448.9,70.1z"/>
</g>
<g>
	<path class="st1" d="M492.7,98.4c-0.4-1.5-1-2.8-1.7-4.1l1.7-2.6l-2.4-2.4l-2.4-2.4l-2.6,1.7c-1.3-0.7-2.6-1.3-4.1-1.7l-0.6-3.1
		h-3.4h-3.4l-0.6,3.1c-1.5,0.4-2.8,1-4.1,1.7l-2.6-1.7l-2.4,2.4l-2.4,2.4l1.7,2.6c-0.7,1.3-1.3,2.6-1.7,4.1l-3.1,0.6v3.4v3.4
		l3.1,0.6c0.4,1.5,1,2.8,1.7,4.1l-1.7,2.6l2.4,2.4l2.4,2.4l2.6-1.7c1.3,0.7,2.6,1.3,4.1,1.7l0.6,3.1h3.4h3.4l0.6-3.1
		c1.5-0.4,2.8-1,4.1-1.7l2.6,1.7l2.4-2.4l2.4-2.4l-1.7-2.6c0.7-1.3,1.3-2.6,1.7-4.1l3.1-0.6v-3.4V99L492.7,98.4z M477.2,114.3
		c-6.6,0-11.9-5.3-11.9-11.9c0-6.6,5.3-11.9,11.9-11.9c6.6,0,11.9,5.3,11.9,11.9C489.1,109,483.8,114.3,477.2,114.3z"/>
</g>
<g>
	<rect x="277.8" y="223.5" class="st2" width="36.4" height="110.5"/>
</g>
<g>
	<path class="st1" d="M154.8,276.8h282.3c8.8,0,16-7.2,16-16V71.1c0-8.8-7.2-16-16-16H154.8c-8.8,0-16,7.2-16,16v189.7
		C138.8,269.6,146,276.8,154.8,276.8z"/>
</g>
<g>
	<rect x="151.1" y="31.5" class="st3" width="289.6" height="210.5"/>
</g>
<g>
	<polygon class="st0" points="151.1,56.9 440.8,56.9 440.8,31.5 151.1,31.5 	"/>
</g>
<g>
	<path class="st0" d="M285.8,257.9c0,5.6,4.5,10.1,10.1,10.1c5.6,0,10.1-4.5,10.1-10.1c0-5.6-4.5-10.1-10.1-10.1
		C290.4,247.8,285.8,252.3,285.8,257.9z"/>
</g>
<g>
	<g>
		<g>
			<path class="st4" d="M248.9,82.6h86.5c1.9,0,3.5-1.6,3.5-3.5v-0.5c0-1.9-1.6-3.5-3.5-3.5h-86.5c-1.9,0-3.5,1.6-3.5,3.5V79
				C245.4,81,247,82.6,248.9,82.6z"/>
		</g>
	</g>
</g>
<g>
	<g>
		<g>
			<path class="st4" d="M248.9,96.1h86.5c1.9,0,3.5-1.6,3.5-3.5v-0.5c0-1.9-1.6-3.5-3.5-3.5h-86.5c-1.9,0-3.5,1.6-3.5,3.5v0.5
				C245.4,94.6,247,96.1,248.9,96.1z"/>
		</g>
	</g>
</g>
<g>
	<g>
		<g>
			<path class="st4" d="M248.9,109.7h86.5c1.9,0,3.5-1.6,3.5-3.5v-0.5c0-1.9-1.6-3.5-3.5-3.5h-86.5c-1.9,0-3.5,1.6-3.5,3.5v0.5
				C245.4,108.2,247,109.7,248.9,109.7z"/>
		</g>
	</g>
</g>
<g>
	<g>
		<g>
			<g>
				<path class="st4" d="M289.5,227.2H181c-9.1,0-16.4-7.4-16.4-16.4v-66c0-9.1,7.4-16.4,16.4-16.4h108.6c9.1,0,16.4,7.4,16.4,16.4
					v66C305.9,219.8,298.6,227.2,289.5,227.2z M181,130.4c-7.9,0-14.4,6.4-14.4,14.4v66c0,7.9,6.4,14.4,14.4,14.4h108.6
					c7.9,0,14.4-6.4,14.4-14.4v-66c0-7.9-6.4-14.4-14.4-14.4L181,130.4L181,130.4z"/>
			</g>
		</g>
	</g>
</g>
<g>
	<g>
		<g>
			<path class="st4" d="M189.6,153.2h91.4c4,0,7.2-3.2,7.2-7.2v-1.4c0-4-3.2-7.2-7.2-7.2h-91.4c-4,0-7.2,3.2-7.2,7.2v1.4
				C182.3,150,185.6,153.2,189.6,153.2z"/>
		</g>
	</g>
</g>
<rect x="214.1" y="329.9" class="st2" width="163.7" height="8.3"/>
<path class="st5" d="M408.2,150c0,8.7-4.7,16.3-11.7,20.3c-1.4,0.8-2.9,1.5-4.5,2c-0.1,0-0.3,0.1-0.4,0.1c-2.2,0.7-4.6,1.1-7,1.1
	c-3.8,0-7.3-0.9-10.5-2.4c-7.8-3.9-13.1-11.9-13.1-21.1c0-13,10.6-23.6,23.6-23.6C397.6,126.5,408.2,137,408.2,150z"/>
<g>
	<path class="st6" d="M379,147.6c0,0-1.6-10.4,7-10.2c8.6,0.2,8.5,5.3,8.4,10.5c-0.2,5.1-3.5,4.7,0.3,11.8c3.7,7.1-3.2,7.1-3.2,7.1
		l-5.4-7.4L379,147.6z"/>
</g>
<g>
	<path class="st7" d="M385.1,138.3c0,0-5.8,0.9-6.1,9.2c-0.2,8.3,1.6,10.1,6.7,8.3c5.1-1.7,6.7-10.4,6.8-11.8
		C392.6,142.8,392.9,137.3,385.1,138.3z"/>
</g>
<g>
	<path class="st0" d="M395.3,167.2c0,2.5-1.3,4.1-3.3,5.2c-0.1,0-0.3,0.1-0.4,0.1c-2.2,0.7-4.6,1.1-7,1.1c-3.8,0-7.3-0.9-10.5-2.4
		c-0.7-1.4,0.3-3.4,2.4-6.5c1.4-2.1,2.8-4.3,5.2-5.3c3.6-0.6,7.3-0.6,10,0.9C393.9,161.4,395.3,163.6,395.3,167.2z"/>
</g>
<g>
	<path class="st0" d="M377.7,164.5l-2.7,4.2c0,0,0.2-0.7,0.5-2.5c0.1-0.4,0.1-0.7,0.2-1.2c0-0.1,0-0.3,0.1-0.4v0
		c1.1-2.6,4.7-4.6,4.9-4.7L377.7,164.5z"/>
</g>
<g>
	<path class="st7" d="M396.5,170.4c-1.4,0.8-2.9,1.5-4.5,2c-0.1,0-0.3,0.1-0.4,0.1c-0.6-1.5-1.1-2.9-1.2-3.2c0-0.1-0.1-0.3-0.2-0.5
		c-0.5-1.2-1.6-3.8-1.6-5.8c0-1.3,0.4-2.4,1.8-2.7c0.5-0.1,1-0.1,1.4-0.1c1.5,0.3,2.3,1.6,2.8,2.8c0,0,0,0,0,0.1
		c0.4,1,0.5,1.9,0.5,1.9s0,0.1,0.1,0.3c0.1,0.3,0.2,1,0.4,1.8C395.9,167.9,396.2,169.1,396.5,170.4z"/>
</g>
<g>
	<path class="st7" d="M389,152.2c-0.5,1-1,6.9-1,6.9s-7.1,2.7-6.4,1.2c0.3-0.7,0.4-1.6,0.4-2.4c0-0.6,0-1.1-0.1-1.4
		c0-0.2,0-0.2,0-0.2S389.5,151.2,389,152.2z"/>
</g>
<g>
	<path class="st6" d="M382.7,144.3c0,0,3,4.9,5.7,6.8c2.7,1.9,1.3,3.5,1.3,3.5s7.1-15,0.4-16c-6.8-1-10.9-1.1-11.1,9
		C379,147.6,382.1,144.2,382.7,144.3z"/>
</g>
<g>
	<path class="st8" d="M385.9,155.8c-1.1,1.6-4,2.1-4,2.1s0,0,0,0c0-0.6,0-1.1-0.1-1.4C383.7,156.8,385.9,155.8,385.9,155.8z"/>
</g>
<path class="st0" d="M375.8,164.6L375.8,164.6c0,0-0.2,0.3-0.3,1.6l1.1-1.6c0,0,1.9-2.7,2.5-3.4s1.6-1.3,1.6-1.3
	S376.9,161.7,375.8,164.6z"/>
<path class="st0" d="M390,168.6c0,0,4.6-1.8,5.9-1.9c0,0-0.9-7.4-5.4-6.6C386,160.9,390,168.6,390,168.6z"/>
<path class="st7" d="M381.8,159.3c0,0-3.4,5.2-2.2,5.6c1.1,0.5,7.3-0.6,9.9-5.5C389.5,159.4,385.6,157.4,381.8,159.3z"/>
<rect x="97.2" y="273.2" transform="matrix(1 -7.599781e-03 7.599781e-03 1 -2.0855 0.8862)" class="st9" width="36.7" height="3.4"/>
<rect x="119.4" y="256.7" transform="matrix(0.2925 -0.9563 0.9563 0.2925 -149.6217 314.4872)" class="st9" width="36.7" height="3.4"/>
<g>
	<rect x="197.1" y="280.8" class="st10" width="2.9" height="88.3"/>
</g>
<g>
	<rect x="89.5" y="275.8" class="st0" width="125.9" height="5"/>
</g>
<g>
	<rect x="105.7" y="280.8" class="st10" width="2.9" height="88.3"/>
</g>
<rect x="48.1" y="311.1" class="st11" width="3.4" height="43.5"/>
<path class="st12" d="M93.1,349.5c0,0,0,1.9,0.7,4.2c0.5,1.6,1.4,8,2.5,8.9c1.2,0.9,5,3.2,4.4,5.7c-0.6,2.4-1,4.1-5.1,2.7
	c-4.1-1.4-6.8-2.3-7.6-5.8c-0.8-3.6-3-6.8-3-6.8l-3,7.3l-1.6-0.6c0,0,2.4-7.9,2.2-8.6c-0.2-0.7,1.1-7,6-8.6
	C93.5,346.1,93.1,349.5,93.1,349.5z"/>
<path class="st12" d="M120.3,351.8c0,0,0.7,1.8,2.2,3.6c1,1.4,4.3,6.9,5.7,7.3c1.4,0.4,5.8,1.2,6.2,3.6c0.4,2.5,0.6,4.2-3.7,4.4
	c-4.3,0.2-7.2,0.5-9.2-2.6s-5.4-5.2-5.4-5.2v7.9h-1.7c0,0-0.8-8.2-1.2-8.8c-0.5-0.6-1.6-6.9,2.4-10.2
	C119.5,348.5,120.3,351.8,120.3,351.8z"/>
<path class="st7" d="M76.4,244.2c0,0,1-3.4,1.1-3.9c0.1-0.4,1-1.3,2.1-2.2c1.1-0.9,3.1-1.7,3.3-1.6c0.2,0.1,0.5,0,0.9,0.5
	c0.4,0.5,0.5,1.2,0.5,1.2s0.8,0.4,0.8,1.2c0,0,0.7,0.4,0.6,1.3c0,0,0.7,0.4,0.5,1.1c0,0-0.9,0.9-1.2,1.3c-0.2,0.4-2.3,2.1-4.5,3.5
	C80.5,246.7,77.8,248.7,76.4,244.2z"/>
<path class="st13" d="M80.6,241.5c0,0,0.4,1.4,0.3,1.9c-0.1,0.5,3.3,0.5,3.3,0.5S82.3,241.1,80.6,241.5z"/>
<path class="st12" d="M42.7,250.1c1.4-2.2,3.2-3.2,8.9,0.8c5.8,4,4.4,3.2,5.8,4.5c1.4,1.3,7.4,4.4,7.4,4.4s3.5-3.5,5.2-6
	c1.9-2.8,5.9-10.3,5.9-10.3l5.6,4.2c0,0-10.8,19.7-13.1,21.1c-2.3,1.5-9.1-1-12.6-2.5c-3.6-1.5-7.3-3.4-8.9-3.8
	C45.2,262,39.1,255.8,42.7,250.1z"/>
<rect x="76.4" y="233" transform="matrix(0.2143 -0.9768 0.9768 0.2143 -163.08 264.2939)" width="12.6" height="1.1"/>
<path class="st14" d="M82.6,236.8c0,0-2.8,2.4-2.5,2.9c0.3,0.5,0.8,0.5,0.8,0.5l-0.7,1.5c0,0,0.1,1.3,1.5,0.8c0,0,0,1.2,1.2,0.6
	c0,0,0.3,0.8,1,0.6c0.6-0.2,2.4-1.8,2.4-1.8s0.2-0.5-0.5-1.1c0,0,0.2-0.9-0.6-1.3c0,0,0-0.7-0.8-1.2c0,0,0-1.6-1.4-1.7
	C82.9,236.5,82.7,236.7,82.6,236.8z"/>
<path class="st7" d="M77.5,240.4c0,0,1.9-1.7,3.3-2.2c0.3-0.1,0.7-0.2,0.9,0.1c0.2,0.3,0.1,0.9-0.7,1.7c-0.8,0.8-1.4,2.1-1.4,2.1
	S78.6,242.7,77.5,240.4z"/>
<path class="st15" d="M69.5,262c0,0,1.1-4.1-0.2-7.3c0,0,0.5,3.3-0.9,5.6C67.3,262.1,69.5,262,69.5,262z"/>
<path class="st16" d="M90.1,262.7c0,0,3-22.5,8.3-32.3h-7.8c0,0-8.7,15.4-7.1,30.9L90.1,262.7z"/>
<path class="st7" d="M91.9,245.8c0,0,0.9-1.7,1.1-2.2c0.2-0.5,1.1,0.4,1,1.1C93.9,245.4,91.9,245.8,91.9,245.8z"/>
<path class="st7" d="M98.8,249.6c0,0-0.2,0.8-0.5,1.1c0,0-0.5,0.5-0.9,0.9c-0.1,0.1-0.2,0.2-0.3,0.3c-0.2,0.3-0.6,1.1-1.4,1.7
	c-0.8,0.6-3.7,2.6-3.7,2.6l-2.1-2.2l-1.7-1.7c0,0,1.4-5.3,2.1-6c0.1-0.1,0.1-0.1,0.2-0.2c0.6-0.5,1.3-0.6,1.6-0.9
	c0.1-0.1,1.5-0.8,1.9-0.7c0.6,0.2,0.9,0.6,1,1.1c0,0,1.1,0.5,1.5,1.3c0,0,1.1,0.4,1.3,1.5C97.8,248.3,98.9,248.9,98.8,249.6z"/>
<path class="st7" d="M112.6,307.7c0,0-5.1,11.6-8.8,19.8c-0.6,1.4-1.2,2.7-1.7,3.8c-0.6,1.3-1.1,2.4-1.4,3.2
	c-2.3,5.3-8.1,16.7-8.1,16.7s-4.3,0.2-4.6-3.5c0,0,4.2-8,4.2-13.6c0-5.6,0.8-22.1,6.1-25.6C104.8,304.2,109,303.4,112.6,307.7z"/>
<path class="st7" d="M65,285.7c0,0,1.1,1.1,2,1.3c0.9,0.3,16.3,1.4,23.4,3.8c7.1,2.3,16.5,3.8,18.3,5.8c1.8,2,4.7,13,4.6,15.1
	c-0.1,2.1,6.2,37.3,7,40c0.4,1.5-5.7,0.9-5.7,0.9s-8.7-20.8-10.6-24.6c-3.4-7.1-3.6-15.7-4.8-17c-1.3-1.3-15.2-4.3-23.2-4.3
	s-26,0.7-27.9-0.4s-13.9-9-8.9-19.6C44.2,276,65,285.7,65,285.7z"/>
<path class="st12" d="M99.7,293.3L87,317.8c0,0-3.8-9.1-10.5-10.6c-6.7-1.6-33.4-0.7-33.4-0.7s-12.2-15.5-1.8-23.6
	c10.5-8.1,22.7,1.3,22.7,1.3s2.5,2.7,3.8,2.8C76.7,287.3,86.2,289,99.7,293.3z"/>
<path class="st7" d="M128.2,362.7c0,0-3.9,1-5.4,0c-1.5-1-6.5-9.5-8.2-10c0,0,1.6-3.3,5.7-0.9C120.3,351.8,127.1,361.3,128.2,362.7z
	"/>
<path class="st7" d="M96.3,362.5c0,0-4-0.5-5-2c-1-1.5-2.5-11.2-3.9-12.3c0,0,2.7-2.4,5.6,1.3C93.1,349.5,95.8,360.8,96.3,362.5z"/>
<path class="st7" d="M55.9,208.8c3.1-0.1,9.8,1.4,10.9,9.5c0,0-0.2,2.2-0.8,3.9c-0.5,1.7,1,6.8,0.6,7c-0.4,0.2-2.1,0.6-2.1,0.6
	s-1.8,5.5-3.7,5.5c-1.9,0-9.3-1.6-12.7-8.4C44.6,220,43.5,209.4,55.9,208.8z"/>
<path class="st7" d="M58.2,232.8c0,0-0.2,0.8-0.5,1.9c-0.1,0.6-0.3,1.3-0.4,2c-0.4,2-0.6,4.4,0,5.9c0,0-4.3,1.5-7.7-4.6
	c0,0,1.5-6.5-0.4-10.5C47.2,223.6,58.2,232.8,58.2,232.8z"/>
<path class="st12" d="M66.7,218.3c0,0-4.7,4.2-9.6,3.9c-5-0.3-8.3,6-8.3,6s-7.5-9.4-1.5-17C53.4,203.5,67.8,208.9,66.7,218.3z"/>
<path class="st7" d="M54.8,222.2c0-1-1.1-2.4-2.6-1.1c-1.6,1.3,0.5,5.8,1.8,5.4C55.3,226,54.8,223.1,54.8,222.2z"/>
<path class="st8" d="M57.7,234.7c-0.1,0.6-0.3,1.3-0.4,2c-4-2.5-6-5.6-6-5.6C53.5,233.1,57.7,234.7,57.7,234.7z"/>
<path class="st12" d="M69.3,257.8c-0.9,4.2-3.3,4.4-3.1,7.5c0.1,3.1,1.1,3.4-0.5,8.2c-0.3,0.9-0.5,1.9-0.7,2.9c0,0.1,0,0.2-0.1,0.4
	c-0.1,0.6-0.2,1.1-0.3,1.7c-0.1,1-0.2,2-0.3,3c-0.2,2.4,1.6,4.3,1.6,4.3s-15.6,9.4-26.4,8.1c0,0,2.8-11.7,4.3-15.7
	c1.5-4,1.1-22.5-0.1-26.5c-1.7-5.9,1.7-14.7,6.2-15.8l7,3.3c0,0,7.1,8.5,8.7,9.7C67.2,250,70.2,253.6,69.3,257.8z"/>
<path class="st12" d="M46,240.7c2-1.7,4.9-4.5,9.1,1.1c4.2,5.6,7.2,9.2,8.2,10.8s8.8,13,8.8,13s4.2-3.9,6.6-5.7
	c2.7-2.1,10.1-9.7,10.1-9.7l4.9,5.4c0,0-16.9,18.7-19.5,19.4c-2.6,0.7-9.9-5.9-12.8-8.5c-2.9-2.5-11-11.8-12.4-12.7
	C47.4,252.9,40.9,245,46,240.7z"/>
<path class="st8" d="M103.8,327.5c-0.6,1.4-1.2,2.7-1.7,3.8c-1.9-6.1-1.7-16.3-1.7-16.3C101.5,322.2,103.8,327.5,103.8,327.5z"/>
<rect x="22.3" y="306.4" class="st0" width="54.2" height="6"/>
<path class="st0" d="M50.5,287.4c0,0-1.4,5.5,5.1,6.8c6.4,1.3,14.3,2.9,14.3,12.8H47.6L50.5,287.4z"/>
<polygon points="83.6,227.2 84.5,225.5 84.6,227.5 "/>
<path class="st0" d="M22.3,312.4L3.4,232.8c0,0,34.2-5.4,38.3,10c4.1,15.4,10.8,61,18.9,63.9C68.8,309.5,22.3,312.4,22.3,312.4z"/>
<path class="st15" d="M66.4,270.9c0,0-0.3,1.5-0.7,2.7l-8.3-10.8L66.4,270.9z"/>
<path class="st12" d="M45.5,221.4c0,0,3.3,8.7,2.4,11.1c0,0,5.1-2.2,4.2-7.9C51.1,218.9,45.5,221.4,45.5,221.4z"/>
<polygon class="st12" points="57.3,239.5 57.3,237.7 50,234.2 47.5,237.1 "/>
<path class="st17" d="M83.3,365.8c0,1.6-1.3,2.8-2.8,2.8s-2.8-1.3-2.8-2.8c0-1.6,1.3-2.8,2.8-2.8C82,363,83.3,364.2,83.3,365.8z"/>
<polygon class="st11" points="19.5,363 20.2,365 50.5,355.6 49.1,351.5 "/>
<polygon class="st11" points="80.4,363 79.7,365 49.4,355.6 50.7,351.3 "/>
<polygon class="st11" points="59.1,364.8 59.1,367.1 49.4,355.6 50.7,351.3 "/>
<path class="st17" d="M59.3,365.8c0,1.6-1.3,2.8-2.8,2.8s-2.8-1.3-2.8-2.8c0-1.6,1.3-2.8,2.8-2.8C58,363,59.3,364.2,59.3,365.8z"/>
<circle class="st17" cx="19.5" cy="365.8" r="2.8"/>
<path class="st5" d="M416.9,81.3c0,7.5-2.7,14.4-7.2,19.7c-1,1.2-2.2,2.4-3.4,3.5c-0.4,0.3-0.7,0.6-1.1,0.9
	c-0.4,0.3-0.8,0.6-1.3,0.9c-4,2.9-8.8,4.8-13.9,5.4c-0.9,0.1-1.8,0.2-2.8,0.2c-0.3,0-0.7,0-1,0c-1,0-2,0-2.9-0.1
	c-1.1-0.1-2.1-0.3-3.2-0.5c-4.6-0.9-8.9-2.9-12.5-5.7c-1.1-0.8-2.1-1.7-3.1-2.7c-0.2-0.2-0.4-0.4-0.6-0.6c-0.7-0.7-1.3-1.5-1.9-2.3
	c-4-5.2-6.4-11.7-6.4-18.7c0-16.9,13.7-30.7,30.7-30.7C403.2,50.6,416.9,64.4,416.9,81.3z"/>
<g>
	<path class="st3" d="M406.2,98.2l-2.3,8.1c-4,2.9-8.8,4.8-13.9,5.4c-0.9,0.1-1.8,0.2-2.8,0.2c-0.3,0-0.7,0-1,0c-1,0-2,0-2.9-0.1
		c-1.1-0.1-2.1-0.3-3.2-0.5c-4.6-0.9-8.9-2.9-12.5-5.7c-0.4-2.7-0.9-5.7-1.3-8.4c2.3-0.8,9.4-3.3,14-4.8c0.1,0,0.1,0,0.2-0.1
		c0.1,0,0.2-0.1,0.3-0.1c0.3-0.1,0.5-0.2,0.8-0.3c0.2-0.1,0.5-0.2,0.7-0.2c0.9-0.3,1.6-0.5,1.8-0.6c0,0,0,0,0,0c0.1,0,0.1,0,0.1,0
		l0.1,0l6.1,0.5l1,0.1l0.3,0c0,0,0,0,0.1,0c0.4,0.1,1.4,0.4,2.8,0.8c0,0,0,0,0,0C398.1,93.6,404,95.7,406.2,98.2z"/>
</g>
<g>
	<path class="st18" d="M387.8,66.1c0,0,7.3,1.2,6.1,12.7c-1.2,11.4-7.7,10.4-8.1,10.4c-0.4,0-6.5,0.1-6.8-13.8
		C379,75.3,378.9,65,387.8,66.1z"/>
</g>
<g>
	<path class="st18" d="M391,85.8c0,0-0.3,4.7,0.2,5.7c0.4,1-5.9,4.3-9.8,0.6c0,0,0.8-5.1,0.5-7C381.7,83.3,391,85.8,391,85.8z"/>
</g>
<g>
	<path class="st18" d="M394,75.5c0,0,0.8-0.8,1.1,0s-1.3,4.7-1.2,4.9c0,0-0.1,0.3-0.3,0.1C393.4,80.4,394,75.5,394,75.5z"/>
</g>
<g>
	<path class="st18" d="M379.1,75.2c0,0-0.8-0.9-1.1,0c-0.3,0.9,0.8,4.7,1,4.9c0,0,0.3,0.4,0.4,0.2C379.6,80.1,379.1,75.2,379.1,75.2
		z"/>
</g>
<g>
	<path d="M394.5,74.5c-0.3,1.6-0.5,2.7-0.5,2.7l-1.1,1.4c0,0,0.1-3.1-0.1-3.6c-0.1-0.2-0.1-0.5-0.2-0.9c-0.1-0.6-0.2-1.2-0.3-1.4
		c-0.1-0.3-6.3-2.1-11.7,0.4c0,0,0,0.5,0,1c0,0.6-0.1,1.3-0.4,1.4c-0.5,0.2-0.3,3.6-0.3,3.6l-0.9-1c0,0-0.2-1.8-0.5-3.8c0,0,0,0,0,0
		c-0.1-0.5-0.1-1-0.2-1.5c-0.1-2.1,0.1-5.8,2.8-8c1.8-0.8,4.7-1.4,9.5,0c0,0,1.1,0.1,1.4,0.4C395.1,68.6,394.5,74.5,394.5,74.5z"/>
</g>
<path class="st19" d="M382.5,87.6c0,0,1.2,1.6,3.9,1.6c2.7-0.1,3.9-1.5,3.9-1.5s-1.3,2.7-3.9,2.7C383.7,90.3,382.5,87.6,382.5,87.6z
	"/>
<path class="st18" d="M380.7,92.2c0,0,2,3.4,5.7,3.7c2.4,0.2,4.4-2.8,5.3-4.2C391.7,91.7,386.4,89.4,380.7,92.2z"/>
<path class="st16" d="M391,90.6c0,0-1.5,2-4.7,4l2,3l3.4-6L391,90.6z"/>
<path class="st16" d="M381.6,91.1c0,0,1.9,2.4,4.8,3.6l-2.2,3.1l-3.8-5.5L381.6,91.1z"/>
<path class="st20" d="M386.4,94.7l1.7,2.6c0,0-1.8,1-3.4-0.1L386.4,94.7z"/>
<path class="st9" d="M408.2,97.7c0,0,0,0.1,0,0.2c-0.2,0.7-0.9,3.2-1.8,6.6c-0.4,0.3-0.7,0.6-1.1,0.9c-0.4,0.3-0.8,0.6-1.3,0.9
	c-4,2.9-8.8,4.8-13.9,5.4c0.5-10.6,1.7-20,1.7-20c1,0.3,1.9,0.5,2.8,0.8c0,0,0,0,0,0c7.8,2.2,11.7,4.2,13.1,4.9c0,0,0,0,0,0
	C408,97.6,408.2,97.7,408.2,97.7z"/>
<path class="st9" d="M380.1,111.3c-4.6-0.9-8.9-2.9-12.5-5.7c-1.1-0.8-2.1-1.7-3.1-2.7c-0.2-0.2-0.4-0.4-0.6-0.6
	c-0.5-2.3-0.9-3.8-0.9-3.9l0,0c0,0,3.8-2.5,17.2-6.1c0,0,0,0,0,0C380.2,92.7,380.2,101.3,380.1,111.3z"/>
<path class="st1" d="M387.3,97.5c-0.1,2.8-0.1,8.2-0.1,14.4c-0.3,0-0.7,0-1,0c-1,0-2,0-2.9-0.1c0.6-7.6,1.6-12.4,2-14.3
	c0.1-0.6,0.2-0.9,0.2-0.9l1.8,0.3C387.4,97.1,387.3,97.3,387.3,97.5z"/>
<g>
	<path class="st9" d="M409.7,101c-1,1.2-2.2,2.4-3.4,3.5c-0.4,0.3-0.7,0.6-1.1,0.9l2.4-8l0,0c0,0,0,0,0,0c0.1,0.1,0.3,0.3,0.5,0.5
		C408.6,98.5,409.1,99.6,409.7,101z"/>
</g>
<g>
	<path class="st9" d="M364.5,102.9c-0.2-0.2-0.4-0.4-0.6-0.6c-0.7-0.7-1.3-1.5-1.9-2.3c0.3-0.8,0.7-1.4,1-1.6l0,0L364.5,102.9z"/>
</g>
<path class="st21" d="M201.1,49h-34.4c-1.9,0-3.5-1.5-3.5-3.5v-2.7c0-1.9,1.5-3.5,3.5-3.5h34.4c1.9,0,3.5,1.5,3.5,3.5v2.7
	C204.6,47.5,203,49,201.1,49z"/>
<g>
	<g>
		<g>
			<path class="st22" d="M180.3,111.9c1.9,0.6,4,1,6.1,1c6.5,0.1,12.3-2.9,15.9-7.7c2.6-3.3,4.1-7.4,4.1-11.9c0-0.4,0-0.9,0-1.3
				c-0.1-2-0.5-3.9-1.2-5.7c-2.7-7.5-9.9-13-18.4-13.1c-4.6-0.1-8.8,1.4-12.2,4c-4.7,3.6-7.8,9.2-7.9,15.6
				C166.7,101.7,172.4,109.3,180.3,111.9z M171.8,93c0.1-4.8,2.3-9,5.9-11.6c2.6-2,5.8-3.1,9.2-3.1c6.4,0.1,11.7,4.1,13.8,9.8l0,0
				c0.5,1.3,0.8,2.8,0.9,4.3c0,0.3,0,0.7,0,1c0,3.4-1.2,6.4-3.1,8.9c-2.8,3.6-7.1,5.8-12,5.8c-1.6,0-3.1-0.3-4.6-0.8
				C176,105.2,171.7,99.6,171.8,93z"/>
		</g>
	</g>
</g>
<g>
	<g>
		<g>
			<path class="st1" d="M198.5,102.3l3.9,3c-3.7,4.7-9.5,7.8-15.9,7.7c-2.1,0-4.2-0.4-6.1-1l1.6-4.7c1.4,0.5,3,0.8,4.6,0.8
				C191.3,108.1,195.7,105.8,198.5,102.3z"/>
		</g>
	</g>
</g>
<g>
	<g>
		<g>
			<path class="st0" d="M201.5,92.3l5-0.3c0,0.4,0,0.9,0,1.3c-0.1,4.5-1.6,8.6-4.2,11.9l-3.9-3c1.9-2.5,3.1-5.6,3.1-8.9
				C201.6,93,201.6,92.7,201.5,92.3z"/>
		</g>
	</g>
</g>
<g>
	<g>
		<g>
			<path class="st0" d="M201.5,92.3c-0.1-1.5-0.4-2.9-0.9-4.3l0,0l4.7-1.7c0.7,1.8,1.1,3.7,1.2,5.7L201.5,92.3z"/>
		</g>
	</g>
</g>
<g>
	<g>
		<g>
			<path class="st0" d="M174.8,77.3c3.4-2.6,7.6-4,12.2-4c8.5,0.1,15.7,5.5,18.4,13.1l-4.7,1.7l0,0c-2.1-5.6-7.4-9.7-13.8-9.8
				c-3.5,0-6.7,1.1-9.2,3.1L174.8,77.3z"/>
		</g>
	</g>
</g>
<g>
	<path class="st0" d="M334.3,151.5h-12.9c-2.6,0-4.6-2.1-4.6-4.6V134c0-2.6,2.1-4.6,4.6-4.6h12.9c2.6,0,4.6,2.1,4.6,4.6v12.9
		C338.9,149.4,336.8,151.5,334.3,151.5z"/>
</g>
<g>
	<g>
		<g>
			<path class="st3" d="M327.2,145.3l-5.6-4.9c-0.5-0.4-0.5-1.1-0.1-1.6c0.4-0.5,1.1-0.5,1.6-0.1l4,3.4l5.6-6.3
				c0.4-0.5,1.1-0.5,1.6-0.1c0.5,0.4,0.5,1.1,0.1,1.6L327.2,145.3z"/>
		</g>
	</g>
</g>
<g>
	<path class="st0" d="M334.3,179.8h-12.9c-2.6,0-4.6-2.1-4.6-4.6v-12.9c0-2.6,2.1-4.6,4.6-4.6h12.9c2.6,0,4.6,2.1,4.6,4.6v12.9
		C338.9,177.7,336.8,179.8,334.3,179.8z"/>
</g>
<g>
	<g>
		<g>
			<path class="st3" d="M327.2,173.6l-5.6-4.9c-0.5-0.4-0.5-1.1-0.1-1.6c0.4-0.5,1.1-0.5,1.6-0.1l4,3.4l5.6-6.3
				c0.4-0.5,1.1-0.5,1.6-0.1c0.5,0.4,0.5,1.1,0.1,1.6L327.2,173.6z"/>
		</g>
	</g>
</g>
<g>
	<g>
		<path class="st0" d="M334.3,208.1h-12.9c-2.6,0-4.6-2.1-4.6-4.6v-12.9c0-2.6,2.1-4.6,4.6-4.6h12.9c2.6,0,4.6,2.1,4.6,4.6v12.9
			C338.9,206,336.8,208.1,334.3,208.1z"/>
	</g>
</g>
<g>
	<g>
		<g>
			<path class="st23" d="M246.8,339c0,0,0.7,4.5,1.1,6.4c0.4,1.9,4.6,7.4,4.5,8.3s-1.8,2-2.7,1.3c-0.9-0.8-6.7-6.7-8-9.3
				c-1.2-2.6-5.4-5.9-5.8-7.1c-0.4-1.1,4.9-4.5,6.2-5S246.8,339,246.8,339z"/>
		</g>
	</g>
</g>
<path class="st7" d="M236.4,259.3c0,0,0.5,2.9,0.9,3.4s1.5,3.2,1.6,3.6c0.1,0.4,0.8,3.1,0.9,3.4c0.1,0.3-0.6,0.9-1.2,0.2
	c-0.3-0.4-0.9-2.2-1.1-2.7s-0.9-2.3-1.1-2c-0.2,0.3-0.1,2.7-0.2,3.3c0,0.6,0.4,2.5,0.5,3.3s1.2,4,0.8,4.2s-0.8,0.1-1.3-0.7
	c0,0-0.8,0.5-1.3-0.6c0,0-0.8,0.3-1.2-1.1c0,0-0.5-0.3-0.8-0.8c-0.2-0.5-1.4-4.8-1.4-6.5c0-1.8,0.4-3,0.3-4.2
	c-0.1-1.2-0.7-3.9-0.7-3.9L236.4,259.3z"/>
<polygon class="st24" points="243.8,332.9 242.2,333.6 246.8,339 248.3,337.3 "/>
<path class="st23" d="M259.9,344.2c0,0-1,2.5-1.9,3.5c-0.9,1-4.2,2.7-4.2,5.6c0,3.2,5.6,2.3,7.8,2.2c2.2-0.1,2.4-1.8,3.3-3.6
	c0.9-1.8,1.9-1.5,2-2.9c0.2-1.4-0.7-4.7-0.7-4.7L259.9,344.2z"/>
<path class="st24" d="M259.8,343.3l-0.2,1.5c0,0,3.4,1.2,6.7,0.1l-0.2-2L259.8,343.3z"/>
<path class="st25" d="M278.9,305.2c0-3.9-2.8-37.9-2.7-39.2c0.1-0.8-0.8-9-1.5-14.5c0,0,0-0.1,0-0.1c0,0,0,0,0,0
	c-0.2-1.6-0.3-2.9-0.4-3.8c0-0.4-0.1-0.7-0.1-0.9c0-0.2,0-0.3,0-0.3s-18.3-3.6-27.8-0.2c-0.4,0.1-0.8,0.3-1.1,0.5c0,0,0,0.2-0.1,0.5
	c-0.1,0.7-0.3,2.2-0.6,4.2c0,0.3-0.1,0.7-0.1,1.1c-1.4,10.2-0.5,21.4,1.9,32.8c2.3,11.2,3.6,19.5,3.8,21.2c0.3,2.1,1.2,8,2.3,14.4
	c-5,6.2-9.4,11.5-9,12c0.8,1.3,7.9,8.6,8.3,7.3c0,0,1.3-1.4,3.3-3.8c0.6,3.9,1.1,6.6,1.1,6.6s7.8,1.9,10.6,0.2c0,0-1.1-8.5-2.3-17.8
	C271.4,316.7,278.9,307.3,278.9,305.2z M261.7,302.4c-0.1-5.2-2.4-34.5-2.2-34.5c1.1,0,7.6,27.9,7.8,31.8c0,0.8-1,2.6-2.6,5
	c-0.7,1.1-1.6,2.2-2.5,3.5l0,0C261.9,305.3,261.7,303.2,261.7,302.4z"/>
<g>
	<path class="st3" d="M282,197.7l-4.9,17.7c-0.2,0.6-0.4,1.3-0.6,2.1l0,0c0,0,0,0,0,0c-0.8,3.2-1.8,8-2.1,13.3
		c-0.2,3.6,0.5,18.3,0.5,18.3s-7.5,2.8-18.6,2.1c0,0-12-0.3-11-7.6c2.6-19.5,0.1-27.5-0.3-29.5c0,0-1.6-9.5-2.8-17.4
		c3.4-1.3,17.8-6.1,17.8-6.1l7.5,0.6C267.3,191.1,278.7,193.9,282,197.7z"/>
</g>
<g>
	<path class="st18" d="M263.6,165.6c0,0,7.3,1.2,6.1,12.7c-1.2,11.4-7.7,10.4-8.1,10.4s-6.5,0.1-6.8-13.8
		C254.8,174.8,254.7,164.5,263.6,165.6z"/>
</g>
<g>
	<path class="st18" d="M266.8,185.3c0,0-0.3,4.7,0.2,5.7c0.4,1-5.9,4.3-9.8,0.6c0,0,0.8-5.1,0.5-7
		C257.5,182.8,266.8,185.3,266.8,185.3z"/>
</g>
<g>
	<path class="st18" d="M269.8,175c0,0,0.8-0.8,1.1,0c0.3,0.9-1.3,4.7-1.2,4.9c0,0-0.1,0.3-0.3,0.1C269.2,179.9,269.8,175,269.8,175z
		"/>
</g>
<g>
	<path class="st18" d="M254.8,174.7c0,0-0.8-0.9-1.1,0c-0.3,0.9,0.8,4.7,1,4.9c0,0,0.3,0.4,0.4,0.2
		C255.4,179.6,254.8,174.7,254.8,174.7z"/>
</g>
<g>
	<path d="M270.3,174c-0.3,1.6-0.5,2.7-0.5,2.7l-1.1,1.4c0,0,0.1-3.1-0.1-3.6c-0.1-0.2-0.1-0.5-0.2-0.9c-0.1-0.6-0.2-1.2-0.3-1.4
		c-0.1-0.3-6.3-2.1-11.7,0.4c0,0,0,0.5,0,1c0,0.6-0.1,1.3-0.4,1.4c-0.5,0.2-0.3,3.6-0.3,3.6l-0.9-1c0,0-0.2-1.8-0.5-3.8c0,0,0,0,0,0
		c-0.1-0.5-0.1-1-0.2-1.5c-0.1-2.1,0.1-5.8,2.8-8c1.8-0.8,4.7-1.4,9.5,0c0,0,1.1,0.1,1.4,0.4C270.9,168.1,270.3,174,270.3,174z"/>
</g>
<path class="st19" d="M258.3,187.1c0,0,1.2,1.6,3.9,1.6c2.7-0.1,3.9-1.5,3.9-1.5s-1.3,2.7-3.9,2.7
	C259.5,189.8,258.3,187.1,258.3,187.1z"/>
<path class="st18" d="M256.5,191.7c0,0,2,3.4,5.7,3.7c2.4,0.2,4.4-2.8,5.3-4.2C267.5,191.2,262.2,188.9,256.5,191.7z"/>
<path class="st3" d="M266.8,190.1c0,0-1.5,2-4.7,4l2,3l3.4-6L266.8,190.1z"/>
<path class="st3" d="M257.4,190.6c0,0,1.9,2.4,4.8,3.6l-2.2,3.1l-3.8-5.5L257.4,190.6z"/>
<path class="st20" d="M262.1,194.2l1.7,2.6c0,0-1.8,1-3.4-0.1L262.1,194.2z"/>
<path class="st23" d="M244.7,252.5c0,0,9.2,3.4,29.9,0.2l-0.3-3.8c0,0-12,3.5-29.2,0.5L244.7,252.5z"/>
<path class="st9" d="M267.5,191.2c0,0-2.1,16-1.8,29.8c0.3,13.8,10.7,38.9,10.7,38.9s4.6-4.4,6.5-6.9c0,0-7.1-20.5-7-24.2
	c0.1-3.7,8-31.6,8-31.6S279.6,194.4,267.5,191.2z"/>
<path class="st9" d="M256,191.9c0,0,0,15.3-0.3,29.1c-0.3,13.8-2.1,39.5-2.1,39.5s-10.2-1.6-12.2-4.1c0,0,4.1-23.9,4-27.6
	c-0.1-3.7-6.6-30.9-6.6-30.9S242.6,195.5,256,191.9z"/>
<rect x="257.2" y="250.1" class="st26" width="5.6" height="4.2"/>
<path class="st0" d="M261.3,196.1c0,0-2.5,8.6-2.7,25.6c-0.2,17,0.3,21.9,0.3,21.9l2,3.9l2.6-4.1c0,0-0.8-39.2-0.4-47.1L261.3,196.1
	z"/>
<g>
	<g>
		<g>
			<g>
				<g>
					<path class="st7" d="M275.8,260c0,0,0.6-0.4,0.8-0.7c0,0,0.3-0.6,0.5-0.9c0.1-0.1,0.1-0.2,0.2-0.3c0.2-0.3,0.7-0.8,1-1.6
						c0.3-0.8,0.5-4.3,0.5-4.3l-2.2-0.6l-1.9-0.8c0,0-4.2,3.2-4.6,3.9c0,0.1-0.1,0.1-0.1,0.2c-0.2,0.6-0.1,1.1-0.2,1.5
						c0,0.1-0.2,1.3,0.1,1.6c0.4,0.4,0.8,0.5,1.2,0.4c0,0,0.8,0.7,1.6,0.8c0,0,0.7,0.7,1.7,0.5C274.4,259.6,275.2,260.2,275.8,260z"
						/>
				</g>
			</g>
		</g>
	</g>
</g>
<g>
	<path class="st9" d="M273,250.4c0,0,2.9,2.6,7,3.9c0,0,13.6-22.1,13.7-23.7c0.2-1.5-6.7-31.5-9.8-33.4l-5.6,16.5
		c0.4-0.1,6.4,12.5,6.4,14.2C284.8,230.1,273,250.4,273,250.4z"/>
</g>
<g>
	<path class="st9" d="M238,262.3c0,0-3,0.6-7.5,0.3c0,0,1.7-28.4,1.5-29.9c-0.2-1.5,3.5-32.8,6.6-34.7l5.5,16.7
		c-0.4-0.1-3.7,17.1-3.7,18.7C240.5,235.5,238,262.3,238,262.3z"/>
</g>
<polygon class="st25" points="269.5,253.5 278.2,258 274.8,264.4 267.4,256.5 "/>
<path class="st23" d="M264.8,304.7l-0.9,17.2l-1.6-13.7v0C263.2,306.9,264,305.7,264.8,304.7z"/>
<g>
	<rect x="220.9" y="95.1" class="st1" width="5.1" height="16.7"/>
</g>
<path class="st5" d="M408.2,206.2c0,13-10.5,23.6-23.6,23.6c-13,0-23.6-10.6-23.6-23.6c0-13,10.6-23.6,23.6-23.6
	C397.6,182.6,408.2,193.2,408.2,206.2z"/>
<g>
	<rect x="212.6" y="99.8" class="st1" width="5.1" height="12"/>
</g>
<g>
	<rect x="229.3" y="87.4" class="st1" width="5.1" height="24.4"/>
</g>
<g>
	<rect x="441.1" y="273.7" class="st27" width="32.7" height="1.9"/>
</g>
<g>
	<rect x="466.5" y="280.7" class="st10" width="2.9" height="88.3"/>
</g>
<g>
	<rect x="423.5" y="273.2" class="st28" width="22.7" height="2.8"/>
</g>
<g>
	<rect x="430.5" y="249.5" class="st2" width="8.6" height="26.1"/>
</g>
<g>
	<rect x="359.6" y="275.7" class="st29" width="125.9" height="5"/>
</g>
<g>
	<path class="st1" d="M509.7,245.3c0,0,1.4,19.3-2.4,21.6c-2.4,1.4-11.8,6.3-11.5,7.2s5.3,8.1,5.3,8.1s18.1-11.9,18.7-15.7
		c0.6-3.7-0.9-28.3-3.4-29.4c-1.9-0.9-2.8-0.1-5.2,1.6C507.9,241.3,509.7,245.3,509.7,245.3z"/>
</g>
<g>
	<g>
		<g>
			<path class="st30" d="M487.4,357c0,0,0.6,3.9,0.6,4.5c0.1,0.6,6.3-0.3,6.3-0.3l0.5-4.7C494.8,356.5,488.2,356.4,487.4,357z"/>
		</g>
	</g>
</g>
<g>
	<g>
		<g>
			<path class="st25" d="M488,361c0,0-2,2.4-3.9,3.4c-1.9,1-4.9,1.4-6,2.5c-0.8,0.8-3,4.1,4.9,4c7.9-0.1,11.7,0.5,12.5-0.8
				c0.8-1.3-1.2-9.3-1.2-9.3S492.5,361.4,488,361z"/>
		</g>
	</g>
</g>
<g>
	<g>
		<g>
			<path class="st30" d="M447.7,357c0,0,0.6,3.9,0.6,4.5c0.1,0.6,6.3-0.3,6.3-0.3l0.5-4.7C455.1,356.5,448.5,356.4,447.7,357z"/>
		</g>
	</g>
</g>
<g>
	<g>
		<g>
			<path class="st25" d="M448.3,361c0,0-2,2.4-3.9,3.4c-1.9,1-8.9,1.9-10,2.9c-0.8,0.8-2.2,3.9,8.9,3.6c7.9-0.2,11.7,0.5,12.5-0.8
				c0.8-1.3-1.2-9.3-1.2-9.3S452.9,361.4,448.3,361z"/>
		</g>
	</g>
</g>
<g>
	<g>
		<g>
			<path class="st25" d="M507.4,289.4c0,0-22.5,3.8-27.6,4.6c-5.1,0.8-32.7,7.7-36.1,9.8c-2.7,1.7,1.4,41.6,2.4,56.9H457l0.8-45.7
				c13,0.3,22.3-3,31.8-1.6c9.5,1.4,17.4,3.5,23.4-4.6C513,308.7,513.2,291.2,507.4,289.4z"/>
		</g>
	</g>
</g>
<g>
	<g>
		<g>
			<path class="st25" d="M485.2,360.7l10.6-0.7l1-45.1c5.6,0.1,7.5-0.2,12.1-0.8l8.5-19.9c-7.5,1.5-31.5,7.5-34.7,9.5
				C480,305.5,484.2,345.5,485.2,360.7z"/>
		</g>
	</g>
</g>
<g>
	<g>
		<g>
			<path class="st7" d="M497,205c0,0-8.3-2.3-11.4,4.1c-3.1,6.4-1.7,18.6,2.4,19.7c4.2,1.1,10.1-0.2,11.9-4.2
				c1.7-4,3.1-9.7,2.7-13.3C502.2,207.7,499.2,205.9,497,205z"/>
		</g>
	</g>
</g>
<g>
	<g>
		<g>
			<path class="st7" d="M490.2,227.6c0,0,0.1,4.9-0.4,5.9c-0.5,1,11.5,0.8,11.5,0.8s-1.9-5.9-0.8-10.8
				C501.5,218.5,490.2,227.6,490.2,227.6z"/>
		</g>
	</g>
</g>
<g>
	<g>
		<g>
			<path class="st31" d="M501.1,221.6c0,0-0.6,1.3-3.8,1.1c-3.1-0.2-7.2-4-8.5-4.3c-1.3-0.3-1.4-1.1-1.4-1.1l-0.7,1.2l-1.4,0.2
				c0,0,0.9-3.8-1.1-5.1c-2-1.3,0.9-12,11.1-9.4c0,0,7.8,1.4,7.9,5.7C503.3,214.3,502.6,219.3,501.1,221.6z"/>
		</g>
	</g>
</g>
<g>
	<g>
		<g>
			<path class="st27" d="M489.1,233.4c0,0,0-2,0.9-2.2c0.9-0.2,9.5-1.4,10.6-0.9l0.5,2.6C501.1,232.9,499,234.2,489.1,233.4z"/>
		</g>
	</g>
</g>
<g>
	<g>
		<g>
			<path class="st7" d="M486.7,216.4c0.2-1.6,2.1-3.5,3.1-1c1.1,2.5-0.7,6.2-1.9,6C486.7,221.3,486.3,218.6,486.7,216.4z"/>
		</g>
	</g>
</g>
<g>
	<g>
		<g>
			<path class="st9" d="M453.3,256.8C453.3,256.8,453.3,256.8,453.3,256.8C453.2,256.8,453.2,256.9,453.3,256.8z"/>
		</g>
	</g>
</g>
<g>
	<g>
		<g>
			<path class="st31" d="M499.4,206.2c0,0,10.1-0.5,1.8,15.2L499.4,206.2z"/>
		</g>
	</g>
</g>
<g>
	<g>
		<polygon class="st11" points="521.9,366.1 521.1,368.2 489.5,358.4 491,354.1 		"/>
	</g>
</g>
<g>
	<g>
		<rect x="488.4" y="322.5" class="st11" width="3.6" height="34.4"/>
	</g>
</g>
<g>
	<g>
		<rect x="479.6" y="320.7" class="st32" width="21.2" height="2"/>
	</g>
</g>
<g>
	<g>
		<polygon class="st11" points="458.2,366.1 459,368.2 490.6,358.4 489.2,353.9 		"/>
	</g>
</g>
<g>
	<g>
		<polygon class="st11" points="480.5,368 480.5,370.4 490.6,358.4 489.2,353.9 		"/>
	</g>
</g>
<g>
	<g>
		<path class="st17" d="M455.3,369c0,1.6,1.3,3,3,3c1.6,0,3-1.3,3-3c0-1.6-1.3-3-3-3C456.6,366.1,455.3,367.4,455.3,369z"/>
	</g>
</g>
<g>
	<g>
		<path class="st17" d="M480.3,369c0,1.6,1.3,3,3,3s3-1.3,3-3c0-1.6-1.3-3-3-3S480.3,367.4,480.3,369z"/>
	</g>
</g>
<g>
	<g>
		<path class="st17" d="M518.9,369c0,1.6,1.3,3,3,3s3-1.3,3-3c0-1.6-1.3-3-3-3S518.9,367.4,518.9,369z"/>
	</g>
</g>
<g>
	<path class="st27" d="M468.7,320.7h42.7c2.1,0,3.8-1.7,3.8-3.8v-0.1c0-2.1-1.7-3.8-3.8-3.8h-42.7c-2.1,0-3.8,1.7-3.8,3.8v0.1
		C464.9,319,466.6,320.7,468.7,320.7z"/>
</g>
<g>
	<rect x="375.7" y="280.7" class="st10" width="2.9" height="88.3"/>
</g>
<g>
	<path class="st0" d="M401.5,262.1h66.8c2.1,0,3.8-1.7,3.8-3.8v-44.9c0-2.1-1.7-3.8-3.8-3.8h-66.8c-2.1,0-3.8,1.7-3.8,3.8v44.9
		C397.7,260.4,399.4,262.1,401.5,262.1z"/>
</g>
<g>
	<rect x="400.6" y="212.5" class="st21" width="68.5" height="41.4"/>
</g>
<g>
	<rect x="400.6" y="212.5" class="st33" width="68.5" height="3.3"/>
</g>
<g>
	<path class="st33" d="M405.5,251.4h3.6c1.3,0,2.3-1,2.3-2.3v-28.4c0-1.3-1-2.3-2.3-2.3h-3.6c-1.3,0-2.3,1-2.3,2.3V249
		C403.1,250.3,404.2,251.4,405.5,251.4z"/>
</g>
<g>
	<path class="st33" d="M453.4,221.4h12.5c0.7,0,1.3-0.6,1.3-1.3v-0.5c0-0.7-0.6-1.3-1.3-1.3h-12.5c-0.7,0-1.3,0.6-1.3,1.3v0.5
		C452.1,220.8,452.7,221.4,453.4,221.4z"/>
</g>
<g>
	<path class="st33" d="M454.7,252.2h9.8c1.4,0,2.6-1.2,2.6-2.6V226c0-1.4-1.2-2.6-2.6-2.6h-9.8c-1.4,0-2.6,1.2-2.6,2.6v23.6
		C452.1,251,453.3,252.2,454.7,252.2z"/>
</g>
<g>
	<path class="st34" d="M432.4,257.8c0,1.3,1.1,2.4,2.4,2.4s2.4-1.1,2.4-2.4s-1.1-2.4-2.4-2.4S432.4,256.4,432.4,257.8z"/>
</g>
<g>
	<path class="st35" d="M419.5,275.8v-0.9c0,0,1.3-5.8,10.6-5.8c9.3,0,9.1,6.7,9.1,6.7L419.5,275.8L419.5,275.8z"/>
</g>
<g>
	<g>
		<path class="st7" d="M439.2,269.9c0,0-2-0.2-2.8-0.6c-0.7-0.4-5.2-3.4-6.2-2.9c-1,0.5-7.9,2.6-7.7,3.6c0.2,1,0.9,0.9,1.4,0.7
			s5.5-1.2,5.9-1.1c0,0-4.9,1.8-4.9,3.1c0,1.3,1,1.6,1.5,2.1s1,1.7,2.3,1.8c1.3,0.1,7.5-2.1,8.7-2.2c1.3-0.1,3.6,0.1,3.8-0.1
			C441.5,274.2,439.2,269.9,439.2,269.9z"/>
	</g>
</g>
<g>
	<g>
		<g>
			<path class="st1" d="M475.9,236.1c6.4-1.1,13.2-2.8,13.2-2.8l12-0.5c0,0,11,2.4,15.3,4.4c0.4,0.2,0.4,9.8,1.5,12.3l-3.6,7.6
				c0,0-2.1,15-2.5,21.7c-0.2,3.1,0.6,29.6,0.6,29.6s-1.1,0.5-9.2,1.4c-8.2,0.9-28.6-0.3-28.7-1.3c-0.1-1,4-35.9,4.1-37.7
				c0.3-2.8-0.8-15.6-0.8-15.6c-1.5,2.1-5.5,11.4-9.6,15.8c-2.4,2.6-14.3,4.2-16.6,4.3c-4.9,0.2-13.8,1.1-14.1,0.7
				c-0.2-0.3-0.8-7.9-0.2-8.1c0.5-0.2,17-1.1,21.3-3.4c1.6-0.8,6.2-10.9,6.2-10.9S472.4,237.7,475.9,236.1z"/>
		</g>
	</g>
</g>
<g>
	<path class="st2" d="M499.5,307.6h20.1c4,0,7.3-3.3,7.3-7.3v-33.4c0-4-3.3-7.3-7.3-7.3h-20.1c-4,0-7.3,3.3-7.3,7.3v33.4
		C492.3,304.4,495.5,307.6,499.5,307.6z"/>
</g>
<g>
	<path class="st27" d="M498.4,318.8c5.1,0,9.2-1.7,12.3-5.1c6.9-7.6,5.7-21.1,5.6-21.7c-0.1-1.1-1.1-1.8-2.1-1.7
		c-1.1,0.1-1.8,1-1.7,2.1c0,0.2,1.1,12.3-4.7,18.7c-2.3,2.6-5.4,3.8-9.5,3.8c-1.1,0-1.9,0.9-1.9,1.9
		C496.5,317.9,497.3,318.8,498.4,318.8z"/>
</g>
<path class="st5" d="M435.8,229.4c0,2.4-0.9,4.5-2.3,6.2c-0.3,0.4-0.7,0.8-1.1,1.1c-0.1,0.1-0.2,0.2-0.3,0.3
	c-0.1,0.1-0.3,0.2-0.4,0.3c-1.3,0.9-2.8,1.5-4.4,1.7c-0.3,0-0.6,0.1-0.9,0.1c-0.1,0-0.2,0-0.3,0c-0.3,0-0.6,0-0.9,0
	c-0.3,0-0.7-0.1-1-0.1c-1.5-0.3-2.8-0.9-4-1.8c-0.3-0.3-0.7-0.6-1-0.9c-0.1-0.1-0.1-0.1-0.2-0.2c-0.2-0.2-0.4-0.5-0.6-0.7
	c-1.3-1.6-2-3.7-2-5.9c0-5.3,4.3-9.7,9.7-9.7C431.5,219.8,435.8,224.1,435.8,229.4z"/>
<g>
	<path class="st21" d="M432.5,234.8l-0.7,2.6c-1.3,0.9-2.8,1.5-4.4,1.7c-0.3,0-0.6,0.1-0.9,0.1c-0.1,0-0.2,0-0.3,0
		c-0.3,0-0.6,0-0.9,0c-0.3,0-0.7-0.1-1-0.1c-1.5-0.3-2.8-0.9-4-1.8c-0.1-0.8-0.3-1.8-0.4-2.7c0.7-0.3,3-1,4.4-1.5c0,0,0,0,0.1,0
		c0,0,0.1,0,0.1,0c0.1,0,0.2-0.1,0.2-0.1c0.1,0,0.2-0.1,0.2-0.1c0.3-0.1,0.5-0.2,0.6-0.2c0,0,0,0,0,0c0,0,0,0,0,0l0,0l1.9,0.1l0.3,0
		l0.1,0c0,0,0,0,0,0c0.1,0,0.5,0.1,0.9,0.3c0,0,0,0,0,0C429.9,233.3,431.8,234,432.5,234.8z"/>
</g>
<g>
	<path class="st18" d="M426.7,224.6c0,0,2.3,0.4,1.9,4c-0.4,3.6-2.4,3.3-2.6,3.3c-0.1,0-2,0-2.1-4.4
		C423.9,227.5,423.8,224.3,426.7,224.6z"/>
</g>
<g>
	<path class="st18" d="M427.7,230.9c0,0-0.1,1.5,0.1,1.8c0.1,0.3-1.9,1.3-3.1,0.2c0,0,0.2-1.6,0.2-2.2
		C424.7,230.1,427.7,230.9,427.7,230.9z"/>
</g>
<g>
	<path class="st18" d="M428.6,227.6c0,0,0.3-0.3,0.3,0c0.1,0.3-0.4,1.5-0.4,1.5c0,0,0,0.1-0.1,0
		C428.4,229.2,428.6,227.6,428.6,227.6z"/>
</g>
<g>
	<path class="st18" d="M423.9,227.5c0,0-0.2-0.3-0.3,0c-0.1,0.3,0.3,1.5,0.3,1.6c0,0,0.1,0.1,0.1,0.1
		C424.1,229.1,423.9,227.5,423.9,227.5z"/>
</g>
<g>
	<path d="M428.8,227.3c-0.1,0.5-0.2,0.9-0.2,0.9l-0.3,0.4c0,0,0-1,0-1.1c0-0.1,0-0.2-0.1-0.3c0-0.2-0.1-0.4-0.1-0.5
		c0-0.1-2-0.7-3.7,0.1c0,0,0,0.1,0,0.3c0,0.2,0,0.4-0.1,0.4c-0.2,0.1-0.1,1.1-0.1,1.1l-0.3-0.3c0,0-0.1-0.6-0.2-1.2c0,0,0,0,0,0
		c0-0.1,0-0.3-0.1-0.5c0-0.6,0-1.8,0.9-2.5c0.6-0.2,1.5-0.4,3,0c0,0,0.3,0,0.4,0.1C429,225.4,428.8,227.3,428.8,227.3z"/>
</g>
<path class="st19" d="M425,231.4c0,0,0.4,0.5,1.2,0.5c0.9,0,1.2-0.5,1.2-0.5s-0.4,0.8-1.2,0.8C425.4,232.3,425,231.4,425,231.4z"/>
<path class="st18" d="M424.4,232.9c0,0,0.6,1.1,1.8,1.2c0.7,0.1,1.4-0.9,1.7-1.3C427.9,232.7,426.2,232,424.4,232.9z"/>
<path class="st16" d="M427.7,232.4c0,0-0.5,0.6-1.5,1.3l0.6,1l1.1-1.9L427.7,232.4z"/>
<path class="st16" d="M424.7,232.5c0,0,0.6,0.8,1.5,1.1l-0.7,1l-1.2-1.7L424.7,232.5z"/>
<path class="st20" d="M426.2,233.7l0.5,0.8c0,0-0.6,0.3-1.1,0L426.2,233.7z"/>
<path class="st9" d="M433.1,234.6c0,0-0.6,2.1-0.6,2.1c-0.1,0.1-0.2,0.2-0.3,0.3c-0.1,0.1-0.3,0.2-0.4,0.3c-1.3,0.9-2.8,1.5-4.4,1.7
	c0.1-3.4,0.5-6.3,0.5-6.3c0.3,0.1,0.6,0.2,0.9,0.2c0,0,0,0,0,0C429.8,233.3,432.2,234,433.1,234.6z"/>
<path class="st9" d="M424.2,238.9c-1.5-0.3-2.8-0.9-4-1.8c-0.3-0.3-0.7-0.6-1-0.9c-0.1-0.1-0.1-0.1-0.2-0.2
	c-0.2-0.7-0.3-1.2-0.3-1.2v0c0,0,1.2-0.8,5.4-1.9c0,0,0,0,0,0C424.3,233,424.3,235.8,424.2,238.9z"/>
<path class="st0" d="M426.5,234.6c0,0.9,0,2.6,0,4.5c-0.1,0-0.2,0-0.3,0c-0.3,0-0.6,0-0.9,0c0.2-2.4,0.5-3.9,0.6-4.5
	c0-0.2,0.1-0.3,0.1-0.3l0.6,0.1C426.5,234.4,426.5,234.5,426.5,234.6z"/>
<g>
	<path class="st9" d="M433.6,235.7c-0.3,0.4-0.7,0.8-1.1,1.1c-0.1,0.1-0.2,0.2-0.3,0.3c0,0,0.9-2.4,0.9-2.4
		C433.3,234.8,433.5,235.4,433.6,235.7z"/>
</g>
<g>
	<path class="st9" d="M419.3,236.3c-0.1-0.1-0.1-0.1-0.2-0.2c-0.2-0.2-0.4-0.5-0.6-0.7c0.1-0.3,0.2-0.4,0.3-0.5v0L419.3,236.3z"/>
</g>
<g>
	<path class="st36" d="M384.6,215.6c-0.7,0-1.2-0.5-1.2-1.2V198c0-0.7,0.5-1.2,1.2-1.2c0.7,0,1.2,0.5,1.2,1.2v16.4
		C385.8,215.1,385.3,215.6,384.6,215.6z"/>
</g>
<g>
	<path class="st36" d="M392.8,207.4h-16.4c-0.7,0-1.2-0.5-1.2-1.2c0-0.7,0.5-1.2,1.2-1.2h16.4c0.7,0,1.2,0.5,1.2,1.2
		C394,206.9,393.5,207.4,392.8,207.4z"/>
</g>
</svg>
