<?xml version="1.0" encoding="UTF-8"?><svg id="Character" xmlns="http://www.w3.org/2000/svg" viewBox="0 0 435.39 386.26"><defs><style>.cls-1{opacity:.35;}.cls-1,.cls-2,.cls-3,.cls-4,.cls-5,.cls-6,.cls-7,.cls-8,.cls-9,.cls-10,.cls-11,.cls-12,.cls-13,.cls-14,.cls-15,.cls-16,.cls-17,.cls-18,.cls-19,.cls-20,.cls-21,.cls-22,.cls-23{stroke-width:0px;}.cls-1,.cls-2,.cls-6,.cls-10,.cls-11,.cls-18{fill:#fff;}.cls-2{opacity:.8;}.cls-3,.cls-4,.cls-5,.cls-7,.cls-8,.cls-9,.cls-24,.cls-25,.cls-23{isolation:isolate;}.cls-3,.cls-4,.cls-7,.cls-13{fill:#43688c;}.cls-3,.cls-24{opacity:.7;}.cls-4,.cls-9,.cls-25{opacity:.2;}.cls-5,.cls-12{fill:#263238;}.cls-6{opacity:.4;}.cls-7,.cls-8,.cls-26{opacity:.3;}.cls-8,.cls-16{fill:#64a2d0;}.cls-10,.cls-27{opacity:.25;}.cls-11{opacity:.6;}.cls-14{fill:#407bff;}.cls-15{fill:#e0e0e0;}.cls-17{fill:#e4897b;}.cls-19{fill:#fafafa;}.cls-20{fill:#ebebeb;}.cls-21{fill:#f0f0f0;}.cls-22{fill:#f5f5f5;}.cls-23{opacity:.1;}</style></defs><rect class="cls-20" x="388.76" y="354.58" width="33.12" height=".25"/><rect class="cls-20" x="294.51" y="357.3" width="8.69" height=".25"/><rect class="cls-20" x="368.57" y="345.3" width="19.19" height=".25"/><rect class="cls-20" x="24.44" y="346.98" width="43.19" height=".25"/><rect class="cls-20" x="76.54" y="346.98" width="6.33" height=".25"/><rect class="cls-20" x="103.45" y="351.2" width="93.68" height=".25"/><path class="cls-20" d="m208.99,293.89H15.9c-3.15,0-5.71-2.56-5.71-5.71V16.75c0-3.15,2.56-5.71,5.71-5.71h193.1c3.15,0,5.71,2.56,5.71,5.71v271.43c0,3.15-2.56,5.71-5.71,5.71ZM15.9,11.29c-3.01,0-5.46,2.45-5.46,5.46v271.43c0,3.01,2.45,5.46,5.46,5.46h193.1c3.01,0,5.46-2.45,5.46-5.46V16.75c0-3.01-2.45-5.46-5.46-5.46H15.9Z"/><path class="cls-20" d="m425.29,293.89h-193.1c-3.15,0-5.71-2.56-5.71-5.71V16.75c0-3.15,2.56-5.71,5.71-5.71h193.1c3.15,0,5.71,2.56,5.71,5.71v271.43c0,3.15-2.56,5.71-5.71,5.71ZM232.19,11.29c-3.01,0-5.46,2.45-5.46,5.46v271.43c0,3.01,2.45,5.46,5.46,5.46h193.1c3.01,0,5.46-2.45,5.46-5.46V16.75c0-3.01-2.45-5.46-5.46-5.46h-193.1Z"/><rect class="cls-20" x="114.39" y="220.26" width="145.07" height="92.28"/><rect class="cls-15" x="114.39" y="220.26" width="145.07" height="6.25"/><circle class="cls-19" cx="255.42" cy="223.39" r="1.88"/><circle class="cls-19" cx="249.16" cy="223.39" r="1.88"/><circle class="cls-19" cx="242.9" cy="223.39" r="1.88"/><rect class="cls-22" x="195.42" y="246.05" width="145.07" height="92.28"/><rect class="cls-15" x="195.42" y="246.05" width="145.07" height="6.25"/><path class="cls-19" d="m338.33,249.17c0,1.04-.84,1.88-1.88,1.88s-1.88-.84-1.88-1.88.84-1.88,1.88-1.88,1.88.84,1.88,1.88Z"/><path class="cls-19" d="m332.07,249.17c0,1.04-.84,1.88-1.88,1.88s-1.88-.84-1.88-1.88.84-1.88,1.88-1.88,1.88.84,1.88,1.88Z"/><path class="cls-19" d="m325.81,249.17c0,1.04-.84,1.88-1.88,1.88s-1.88-.84-1.88-1.88.84-1.88,1.88-1.88,1.88.84,1.88,1.88Z"/><path class="cls-20" d="m237.2,42.97c-.12,0-.24.01-.37.02.16-.85.25-1.72.25-2.61,0-7.95-6.44-14.39-14.39-14.39-.04,0-.07,0-.11,0-1.9-3.29-5.44-5.5-9.51-5.5s-7.9,2.4-9.74,5.91c-.98-.26-2.01-.41-3.07-.41-6.53,0-11.84,5.18-12.08,11.65-2.69,2-4.44,5.19-4.44,8.8,0,6.06,4.91,10.98,10.98,10.98.91,0,1.79-.12,2.63-.33h37.69c.68.21,1.41.33,2.16.33,3.99,0,7.22-3.23,7.22-7.22s-3.23-7.22-7.22-7.22Z"/><path class="cls-20" d="m352.67,71.36c-.09,0-.19,0-.28.01.12-.65.19-1.32.19-2,0-6.09-4.93-11.02-11.02-11.02-.03,0-.06,0-.08,0-1.45-2.52-4.17-4.21-7.28-4.21s-6.05,1.84-7.46,4.52c-.75-.2-1.54-.31-2.35-.31-5,0-9.07,3.96-9.25,8.92-2.06,1.53-3.4,3.98-3.4,6.74,0,4.64,3.76,8.41,8.41,8.41.8,0,1.58-.12,2.32-.33h28.35c.58.21,1.21.33,1.87.33,3.05,0,5.53-2.48,5.53-5.53s-2.48-5.53-5.53-5.53Z"/><path class="cls-20" d="m124.67,79.36c-.09,0-.19,0-.28.01.12-.65.19-1.32.19-2,0-6.09-4.93-11.02-11.02-11.02-.03,0-.06,0-.08,0-1.45-2.52-4.17-4.21-7.28-4.21s-6.05,1.84-7.46,4.52c-.75-.2-1.54-.31-2.35-.31-5,0-9.07,3.96-9.25,8.92-2.06,1.53-3.4,3.98-3.4,6.74,0,4.64,3.76,8.41,8.41,8.41.8,0,1.58-.12,2.32-.33h28.35c.58.21,1.21.33,1.87.33,3.05,0,5.53-2.48,5.53-5.53s-2.48-5.53-5.53-5.53Z"/><path class="cls-15" d="m50.76,302.87l-1.26-1.75c-.46-.64-1.2-1.02-1.96-1.02h-8.86c-.76,0-1.45.38-1.84,1.02l-1.06,1.75c-.39.64-1.08,1.02-1.84,1.02h-5.29c-1.26,0-2.22,1.03-2.15,2.3l1.71,29.59c.07,1.27,1.16,2.3,2.42,2.3h41.91c1.26,0,2.22-1.03,2.15-2.3l-1.71-29.59c-.07-1.27-1.16-2.3-2.42-2.3h-17.85c-.76,0-1.5-.38-1.96-1.02Z"/><path class="cls-21" d="m74.76,306.72h-38.39c-1.6,0-3.01,1.29-3.16,2.88l-2.31,25.62c-.14,1.59,1.04,2.88,2.64,2.88h38.39c1.6,0,3.01-1.29,3.16-2.88l2.31-25.62c.14-1.59-1.04-2.88-2.64-2.88Z"/><path class="cls-15" d="m389.69,303.29l-1.26-1.75c-.46-.64-1.2-1.02-1.96-1.02h-8.86c-.76,0-1.45.38-1.84,1.02l-1.06,1.75c-.39.64-1.08,1.02-1.84,1.02h-5.29c-1.26,0-2.22,1.03-2.15,2.3l1.71,29.59c.07,1.27,1.16,2.3,2.42,2.3h41.91c1.26,0,2.22-1.03,2.15-2.3l-1.71-29.59c-.07-1.27-1.16-2.3-2.42-2.3h-17.85c-.76,0-1.5-.38-1.96-1.02Z"/><path class="cls-21" d="m413.69,307.14h-38.39c-1.6,0-3.01,1.29-3.16,2.88l-2.31,25.62c-.14,1.59,1.04,2.87,2.64,2.87h38.39c1.6,0,3.01-1.29,3.16-2.87l2.31-25.62c.14-1.59-1.04-2.88-2.64-2.88Z"/><path class="cls-15" d="m268.95,279.38l-1.26-1.75c-.46-.64-1.2-1.02-1.96-1.02h-8.86c-.76,0-1.45.38-1.84,1.02l-1.06,1.75c-.39.64-1.08,1.02-1.84,1.02h-5.29c-1.26,0-2.22,1.03-2.15,2.3l1.71,29.59c.07,1.27,1.16,2.3,2.42,2.3h41.91c1.26,0,2.22-1.03,2.15-2.3l-1.71-29.59c-.07-1.27-1.16-2.3-2.42-2.3h-17.85c-.76,0-1.5-.38-1.96-1.02Z"/><path class="cls-21" d="m292.95,283.23h-38.39c-1.6,0-3.01,1.29-3.16,2.88l-2.31,25.62c-.14,1.59,1.04,2.87,2.64,2.87h38.39c1.6,0,3.01-1.29,3.16-2.87l2.31-25.62c.14-1.59-1.04-2.88-2.64-2.88Z"/><ellipse id="_Path_" class="cls-22" cx="221.98" cy="372.33" rx="193.89" ry="11.32"/><rect class="cls-13" x="31.56" y="83.1" width="104.42" height="178.9" rx="2.37" ry="2.37"/><rect class="cls-3" x="31.56" y="83.1" width="104.42" height="178.9" rx="2.37" ry="2.37"/><rect class="cls-13" x="38.65" y="105.77" width="19.67" height="2.67"/><rect class="cls-13" x="38.65" y="111.77" width="19.67" height="2.67"/><rect class="cls-13" x="108.69" y="105.77" width="19.67" height="2.67"/><rect class="cls-13" x="72.02" y="93.42" width="19.67" height="2.67"/><rect class="cls-13" x="38.65" y="88.76" width="89.71" height="2.67"/><rect class="cls-13" x="48.65" y="120.09" width="79.7" height="2.67"/><rect class="cls-13" x="38.65" y="125.42" width="89.71" height="2.67"/><rect class="cls-13" x="38.65" y="130.76" width="89.71" height="2.67"/><rect class="cls-13" x="38.65" y="136.09" width="89.71" height="2.67"/><rect class="cls-13" x="38.65" y="141.42" width="79.7" height="2.67"/><rect class="cls-13" x="48.65" y="151.11" width="79.7" height="2.67"/><rect class="cls-13" x="38.65" y="156.44" width="89.71" height="2.67"/><rect class="cls-13" x="38.65" y="161.78" width="89.71" height="2.67"/><rect class="cls-13" x="38.65" y="167.11" width="89.71" height="2.67"/><rect class="cls-13" x="38.65" y="172.44" width="79.7" height="2.67"/><rect class="cls-13" x="48.65" y="182.13" width="79.7" height="2.67"/><rect class="cls-13" x="38.65" y="187.46" width="89.71" height="2.67"/><rect class="cls-13" x="38.65" y="192.8" width="89.71" height="2.67"/><rect class="cls-13" x="38.65" y="198.13" width="89.71" height="2.67"/><rect class="cls-13" x="38.65" y="203.46" width="79.7" height="2.67"/><rect class="cls-13" x="48.65" y="214.15" width="79.7" height="2.67"/><rect class="cls-13" x="38.65" y="219.48" width="89.71" height="2.67"/><rect class="cls-13" x="38.65" y="224.82" width="89.71" height="2.67"/><rect class="cls-13" x="38.65" y="230.15" width="89.71" height="2.67"/><rect class="cls-13" x="38.65" y="235.48" width="79.7" height="2.67"/><rect class="cls-13" x="108.69" y="250.86" width="19.67" height="2.67"/><g class="cls-25"><rect class="cls-18" x="38.65" y="105.77" width="19.67" height="2.67"/><rect class="cls-18" x="38.65" y="111.77" width="19.67" height="2.67"/><rect class="cls-18" x="108.69" y="105.77" width="19.67" height="2.67"/><rect class="cls-18" x="72.02" y="93.42" width="19.67" height="2.67"/><rect class="cls-18" x="38.65" y="88.76" width="89.71" height="2.67"/><rect class="cls-18" x="48.65" y="120.09" width="79.7" height="2.67"/><rect class="cls-18" x="38.65" y="125.42" width="89.71" height="2.67"/><rect class="cls-18" x="38.65" y="130.76" width="89.71" height="2.67"/><rect class="cls-18" x="38.65" y="136.09" width="89.71" height="2.67"/><rect class="cls-18" x="38.65" y="141.42" width="79.7" height="2.67"/><rect class="cls-18" x="48.65" y="151.11" width="79.7" height="2.67"/><rect class="cls-18" x="38.65" y="156.44" width="89.71" height="2.67"/><rect class="cls-18" x="38.65" y="161.78" width="89.71" height="2.67"/><rect class="cls-18" x="38.65" y="167.11" width="89.71" height="2.67"/><rect class="cls-18" x="38.65" y="172.44" width="79.7" height="2.67"/><rect class="cls-18" x="48.65" y="182.13" width="79.7" height="2.67"/><rect class="cls-18" x="38.65" y="187.46" width="89.71" height="2.67"/><rect class="cls-18" x="38.65" y="192.8" width="89.71" height="2.67"/><rect class="cls-18" x="38.65" y="198.13" width="89.71" height="2.67"/><rect class="cls-18" x="38.65" y="203.46" width="79.7" height="2.67"/><rect class="cls-18" x="48.65" y="214.15" width="79.7" height="2.67"/><rect class="cls-18" x="38.65" y="219.48" width="89.71" height="2.67"/><rect class="cls-18" x="38.65" y="224.82" width="89.71" height="2.67"/><rect class="cls-18" x="38.65" y="230.15" width="89.71" height="2.67"/><rect class="cls-18" x="38.65" y="235.48" width="79.7" height="2.67"/><rect class="cls-18" x="108.69" y="250.86" width="19.67" height="2.67"/></g><rect class="cls-23" x="80.64" y="221.39" width="60.34" height="50.13" rx="2.37" ry="2.37"/><rect class="cls-16" x="88.08" y="230.88" width="60.34" height="50.13" rx="2.37" ry="2.37"/><rect class="cls-8" x="88.08" y="230.88" width="60.34" height="50.13" rx="2.37" ry="2.37"/><rect class="cls-13" x="93.98" y="260.09" width="12" height="6"/><rect class="cls-13" x="106.98" y="260.09" width="34" height="6"/><rect class="cls-13" x="93.98" y="252.09" width="12" height="7"/><rect class="cls-13" x="93.98" y="245.09" width="12" height="6"/><rect class="cls-13" x="106.98" y="252.09" width="34" height="7"/><rect class="cls-13" x="106.98" y="267.09" width="34" height="7"/><rect class="cls-13" x="106.98" y="245.09" width="34" height="6"/><rect class="cls-13" x="93.98" y="267.09" width="12" height="7"/><rect class="cls-13" x="93.98" y="237.09" width="12" height="7"/><rect class="cls-13" x="106.98" y="237.09" width="34" height="7"/><rect class="cls-23" x="97.91" y="134.71" width="60.34" height="50.13" rx="2.37" ry="2.37"/><rect class="cls-16" x="109.08" y="132.34" width="60.34" height="50.13" rx="2.37" ry="2.37"/><rect class="cls-8" x="109.08" y="132.34" width="60.34" height="50.13" rx="2.37" ry="2.37"/><g class="cls-24"><rect class="cls-13" x="147.98" y="139.09" width="15" height="7"/><rect class="cls-13" x="131.98" y="139.09" width="15" height="7"/><rect class="cls-13" x="131.98" y="146.09" width="15" height="30"/><rect class="cls-13" x="147.98" y="146.09" width="15" height="30"/><rect class="cls-13" x="115.98" y="139.09" width="15" height="7"/><rect class="cls-13" x="115.98" y="146.09" width="15" height="30"/></g><rect class="cls-23" x="116.81" y="187.32" width="60.34" height="50.13" rx="2.37" ry="2.37"/><g class="cls-24"><rect class="cls-13" x="137.08" y="184.11" width="60.34" height="50.13" rx="2.37" ry="2.37"/><rect class="cls-7" x="137.08" y="184.11" width="60.34" height="50.13" rx="2.37" ry="2.37"/></g><rect class="cls-16" x="167.98" y="191.09" width="23" height="17"/><rect class="cls-16" x="143.98" y="191.09" width="23" height="17"/><rect class="cls-16" x="143.98" y="209.09" width="23" height="19"/><rect class="cls-16" x="167.98" y="209.09" width="23" height="19"/><path class="cls-9" d="m199.43,186.48v33.61h-20.73c-2.6,0-4.27-1.86-4.27-4.46v-31.54h23.07c1.31,0,1.93,1.08,1.93,2.39Z"/><rect class="cls-23" x="118.07" y="87.58" width="60.34" height="50.13" rx="2.37" ry="2.37"/><rect class="cls-13" x="128.08" y="78.57" width="60.34" height="50.13" rx="2.37" ry="2.37"/><rect class="cls-7" x="128.08" y="78.57" width="60.34" height="50.13" rx="2.37" ry="2.37"/><rect class="cls-16" x="151.98" y="85.09" width="19" height="5"/><rect class="cls-16" x="151.98" y="91.09" width="9" height="31"/><rect class="cls-16" x="171.98" y="85.09" width="10" height="5"/><rect class="cls-16" x="171.98" y="91.09" width="10" height="31"/><rect class="cls-16" x="161.98" y="91.09" width="9" height="31"/><rect class="cls-16" x="134.98" y="91.09" width="16" height="31"/><rect class="cls-16" x="134.98" y="85.09" width="16" height="5"/><rect class="cls-3" x="279.28" y="195.78" width="77.5" height="77.5" rx="4.71" ry="4.71"/><rect class="cls-10" x="289.4" y="205.91" width="57.58" height="57.25"/><polygon class="cls-10" points="289.4 263.09 304.06 251.04 308.85 254.9 324.03 242.08 331.49 249.42 346.98 236.42 346.98 263.09 289.4 263.09"/><polygon class="cls-10" points="289.4 263.09 301.81 239.81 316.32 242.07 327.15 227.91 338.31 229.92 346.98 221.26 346.98 263.09 289.4 263.09"/><polygon class="cls-10" points="289.4 263.09 318.03 259.55 327.31 254.91 337.31 255.91 346.98 251.09 346.98 263.09 289.4 263.09"/><path class="cls-3" d="m348.98,196.09v8.04c0,2.6-2.44,4.96-5.04,4.96h-55.96v23.48c0,2.6-2.36,4.52-4.96,4.52h-4.04v-36.6c0-2.6,2.4-4.4,5-4.4h65Z"/><rect class="cls-13" x="184.89" y="129.97" width="77.5" height="77.5" rx="4.71" ry="4.71"/><g class="cls-27"><rect class="cls-2" x="212.61" y="138.06" width="21.75" height="13.03" rx=".87" ry=".87"/><rect class="cls-11" x="201.5" y="166.09" width="17.59" height="9.95" rx=".87" ry=".87"/><rect class="cls-11" x="228.19" y="166.09" width="17.59" height="9.95" rx=".87" ry=".87"/><rect class="cls-6" x="220.14" y="187.14" width="9.23" height="8.5" rx=".87" ry=".87"/><rect class="cls-6" x="231.86" y="187.14" width="9.23" height="8.5" rx=".87" ry=".87"/><rect class="cls-6" x="243.59" y="187.14" width="9.23" height="8.5" rx=".87" ry=".87"/><rect class="cls-6" x="193.01" y="187.14" width="9.23" height="8.5" rx=".87" ry=".87"/><rect class="cls-6" x="205.73" y="187.14" width="9.23" height="8.5" rx=".87" ry=".87"/><g class="cls-26"><polygon class="cls-18" points="235.98 166.09 236.98 166.09 236.98 159.09 223.98 159.09 223.98 151.09 222.98 151.09 222.98 159.09 209.98 159.09 209.98 166.09 210.98 166.09 210.98 160.09 235.98 160.09 235.98 166.09"/><polygon class="cls-18" points="209.98 182.09 196.98 182.09 196.98 187.09 197.98 187.09 197.98 183.09 209.98 183.09 209.98 187.09 210.98 187.09 210.98 176.09 209.98 176.09 209.98 182.09"/><polygon class="cls-18" points="236.98 183.09 236.98 176.09 235.98 176.09 235.98 183.09 223.98 183.09 223.98 187.09 224.98 187.09 224.98 184.09 235.98 184.09 235.98 187.09 236.98 187.09 236.98 184.09 247.98 184.09 247.98 187.09 248.98 187.09 248.98 183.09 236.98 183.09"/></g></g><path class="cls-4" d="m261.98,134.68v22.41h-54.93c-2.6,0-5.07-2.36-5.07-4.96v-22.04h55.71c2.59,0,4.29,1.99,4.29,4.59Z"/><rect class="cls-3" x="291.16" y="96.28" width="77.5" height="77.5" rx="4.71" ry="4.71"/><rect class="cls-10" x="301.12" y="106.4" width="57.58" height="57.25"/><rect class="cls-1" x="307" y="141.59" width="5.8" height="14.87"/><rect class="cls-1" x="307" y="141.59" width="5.8" height="22.06"/><rect class="cls-1" x="317" y="131.17" width="5.8" height="21.89"/><rect class="cls-1" x="317" y="131.17" width="5.8" height="32.48"/><rect class="cls-1" x="327.01" y="137.58" width="5.8" height="17.57"/><rect class="cls-1" x="327.01" y="137.58" width="5.8" height="26.07"/><rect class="cls-1" x="337.02" y="128.58" width="5.8" height="23.64"/><rect class="cls-1" x="337.02" y="128.58" width="5.8" height="35.07"/><rect class="cls-1" x="347.02" y="114.83" width="5.8" height="32.9"/><rect class="cls-1" x="347.02" y="114.83" width="5.8" height="48.82"/><path class="cls-9" d="m311.98,96.09v42.4c0,2.6-2.23,4.6-4.83,4.6h-16.17v-42.11c0-2.6,2.29-4.89,4.88-4.89h16.12Z"/><rect class="cls-3" x="227.25" y="43.12" width="77.5" height="77.5" rx="4.71" ry="4.71"/><circle class="cls-10" cx="266" cy="81.87" r="25.41" transform="translate(142.58 331.33) rotate(-80.78)"/><path class="cls-10" d="m266,81.87l24.97,4.75c-2.27,11.94-12.81,20.67-24.97,20.67-13.94,0-25.41-11.47-25.41-25.41s11.47-25.41,25.41-25.41v25.41Z"/><path class="cls-10" d="m266,81.87l-.07,25.41c-13.91-.04-25.34-11.5-25.34-25.41s11.47-25.41,25.41-25.41v25.41Z"/><path class="cls-10" d="m266,81.87l-13.4-21.6c1.99-1.23,4.14-2.19,6.39-2.83s4.58-.98,6.92-.98l.08,25.41Z"/><path class="cls-17" d="m400.23,132.09s13.5,23.66,14.5,29.33-11.5,41.92-11.5,41.92c0,0,2.75,9.54-.25,11.15s-8.24,4.85-9,2.1,0-11.82,0-11.82l2.25-1.93s7.97-37.88,7.98-39.19c.01-1.31-14.51-23.65-14.51-23.65l10.52-7.91Z"/><polygon class="cls-17" points="350.46 363.12 342.35 363.97 341.94 359.27 340.83 346.48 348.94 345.62 350.17 359.75 350.46 363.12"/><polygon class="cls-17" points="390.94 362.09 383.08 362.09 383.01 360.31 383 360.09 382.6 348.69 382.59 348.46 382.43 344.09 390.3 344.09 390.94 362.09"/><polygon class="cls-9" points="348.94 345.62 350.17 359.75 341.94 359.27 340.83 346.48 348.94 345.62"/><polygon class="cls-9" points="390.89 361.09 390.88 361.09 383.01 360.09 383 360.09 382.59 349.09 382.6 349.09 390.48 349.72 390.88 360.74 390.89 361.09"/><path class="cls-12" d="m409.26,143.42l-13.53,9.2-.26-.33-8.21-10.7-5.03-6.56,7.43-20.2c8.57,3.26,19.6,28.59,19.6,28.59Z"/><path class="cls-9" d="m395.47,152.29l-8.21-10.7,6.59-10.11s4.03,10.44,1.62,20.81Z"/><path class="cls-12" d="m381.99,361.62h9.55c.32,0,.6.23.67.54l1.55,7c.13.63-.27,1.24-.89,1.37-.08.02-.17.03-.26.03-3.09-.05-5.34-.24-9.22-.24-2.39,0-9.6.25-12.9.25s-3.73-3.26-2.38-3.56c6.06-1.32,10.62-3.15,12.56-4.89.36-.33.83-.51,1.32-.5Z"/><path class="cls-12" d="m341.49,361.37h9.55c.32,0,.6.23.67.54l1.55,7c.13.63-.27,1.24-.89,1.37-.08.02-.17.03-.26.03-3.09-.05-5.34-.24-9.22-.24-2.39,0-9.6.25-12.9.25s-3.73-3.26-2.38-3.56c6.06-1.32,10.62-3.15,12.56-4.89.36-.33.83-.51,1.32-.5Z"/><path class="cls-14" d="m340.09,358.09h11.53s-.94-99.25,11.53-132.77c.88,11.08,1.87,22.58,2.84,32.16.61,5.93,1.21,11.02,1.78,14.9,3.63,25,12.79,86.71,12.79,86.71h11.39s-1.35-59.14-2.7-83.7c-1.49-26.67-2.13-85.3-2.19-90.3h-41.72c-3.97,21-14.15,105-5.25,173Z"/><path class="cls-13" d="m340.09,358.09h11.53s-.94-99.25,11.53-132.77c.88,11.08,1.87,22.58,2.84,32.16.61,5.93,1.21,11.02,1.78,14.9,3.63,25,12.79,86.71,12.79,86.71h11.39s-1.35-59.14-2.7-83.7c-1.49-26.67-2.13-85.3-2.19-90.3h-41.72c-3.97,21-14.15,105-5.25,173Z"/><path class="cls-17" d="m360.49,96.96c.1.38.21.76.34,1.11.77,2.16,2.16,3.94,3.89,5.18.45.33.93.62,1.42.88,2.61,1.34,5.71,1.6,8.52.38,1.15-.49,2.26-1.23,3.25-2.25,3.94-3.98,3.83-8.57,4.28-16.35.12-1.67-.14-3.35-.79-4.89-2.26-5.43-8.49-8-13.92-5.74-7.63,3.11-8.67,14.68-6.99,21.68Z"/><path class="cls-9" d="m364.71,103.26c.45.33.93.62,1.42.88,2.61,1.34,5.71,1.6,8.52.38-.55-1.5-1.39-2.64-1.39-2.64,0,0-4.65-.72-8.55,1.38Z"/><path class="cls-17" d="m380.36,113.34c-3.83,3.48-13.21,2.19-13.21,2.19,0,0-5.86-1.6-4.63-3.43,3.45-.57,5.12-2.18,5.81-4.24.4-1.2.46-2.55.35-3.94-.05-.73-.16-1.47-.29-2.2l11.6-8.59c-1.52,5.67-3.38,16.1.37,20.21Z"/><path class="cls-12" d="m364.21,80.48c.08.22-.12.67-.26,1.18-.28,1-.42,2.03-.42,3.07-.01,3.45,1.6,6.59,4.02,8.98.87,3.14,2.04,6.21,3.5,9.1.15.29.31.6.58.77.32.21.73.2,1.12.19l6.78-.24c.4-.01.86-.06,1.09-.38.13-.18.16-.4.25-.61.61-1.46,3.2-.77,4.08-2.08.36-.53.31-1.24.52-1.85.56-1.62,2.86-2.47,2.77-4.18-.05-1-.96-1.9-.68-2.86.27-.94,1.5-1.26,1.96-2.12.47-.88-.02-1.95-.55-2.8-.53-.85-1.13-1.81-.86-2.77.11-.38.34-.71.52-1.06.66-1.33.38-3.08-.67-4.13-.42-.42-.96-.75-1.24-1.29-.46-.88-.07-2.05-.63-2.87-.55-.81-1.71-.85-2.69-.79-.98.06-2.13.05-2.72-.74-.42-.56-.4-1.38-.86-1.9-.65-.75-1.86-.54-2.78-.17-.92.37-1.96.84-2.86.43-.62-.29-1-.93-1.57-1.31-.79-.54-1.94-.47-2.66.15-.5.43-.81,1.08-1.37,1.42-.8.48-1.81.2-2.71-.01-.9-.22-2.02-.29-2.61.43-.84,1.02.07,2.79-.79,3.8-.49.58-1.39.65-1.92,1.19-.74.74-.28,2.25.74,2.46.3.06.69.08.8.37.05.12.03.25.06.38.11.39.66.41,1.03.28.68-.24.96-.22,1.03-.04Z"/><path class="cls-17" d="m369.13,90.44c-.46,1.69-1.4,2.93-2.59,3.45-1.58.67-2.62-1.56-2.39-3.9.22-2.07,1.29-4.99,2.98-4.6,1.69.39,2.55,2.95,2,5.05Z"/><path class="cls-9" d="m363.15,225.27c.88,11.08,1.87,22.6,2.84,32.18,1.42-13.83,3.16-23.69,3.16-23.69,0,0,1.63-1.34,6.11-8.49,4.48-7.16,0-20.5,0-20.5.14,12.4-12.11,20.5-12.11,20.5Z"/><path class="cls-12" d="m388.98,193.42l-47.67-2.33s1.37-26.27,6.34-51.75c1.38-7.04,3.02-14.01,5-20.36,1.1-3.57,2.31-6.94,3.63-10.01,0,0,29.63,2.45,35.67,7.12,6.03,4.67-3.3,53-2.97,77.33Z"/><path class="cls-12" d="m364.12,109.77s4.53-3.56,13.03-3.37,9.33,3.37,9.33,3.37c0,0,9.33,4.66,2,12.32s-21.77-11.76-21.77-11.76l-2.59-.56Z"/><path class="cls-10" d="m364.12,109.77s4.53-3.56,13.03-3.37,9.33,3.37,9.33,3.37c0,0,9.33,4.66,2,12.32s-21.77-11.76-21.77-11.76l-2.59-.56Z"/><path class="cls-9" d="m357.03,119.59s-2.07,13.53-9.38,19.75c1.38-7.04,3.02-14.01,5-20.36l4.38.61Z"/><path class="cls-17" d="m350.92,109.15s-29.61-6.05-33.77-7.64c-4.17-1.59-26.17-22.63-26.17-22.63l-4.82,3.64s16.49,21.41,24.74,27.57c8.25,6.17,37.13,15.49,37.13,15.49l2.9-16.43Z"/><path class="cls-5" d="m357.1,109.15l-25.79-4.71-.67,17.82,19.27,7.83s12.15-12.19,7.18-20.94Z"/><path class="cls-17" d="m290.98,78.87c-2.38-2.7-11.02-8.56-12.27-9.06s-3.11,7.15-2.74,8.15,4.61,3.12,6.75,3.38,4.43,2.44,4.43,2.44l3.84-4.91Z"/><polygon class="cls-12" points="329.91 103.79 332.74 104.44 331.45 122.58 328.74 121.59 329.91 103.79"/><polygon class="cls-10" points="329.91 103.79 332.74 104.44 331.45 122.58 328.74 121.59 329.91 103.79"/><polygon class="cls-12" points="393.98 152.47 409.26 142.12 410.31 144.76 395.75 153.92 393.98 152.47"/><polygon class="cls-10" points="393.98 152.47 409.26 142.12 410.31 144.76 395.75 153.92 393.98 152.47"/><polygon class="cls-13" points="338.79 354.84 339.36 358.09 352.98 358.09 352.98 355.09 338.79 354.84"/><polygon class="cls-13" points="379.25 356.09 380.56 359.09 391.98 359.09 392.73 356.09 379.25 356.09"/></svg>