<?xml version="1.0" encoding="UTF-8"?><svg id="Character" xmlns="http://www.w3.org/2000/svg" viewBox="0 0 431.43 373.83"><defs><style>.cls-1,.cls-2,.cls-3,.cls-4,.cls-5,.cls-6,.cls-7,.cls-8,.cls-9,.cls-10,.cls-11,.cls-12,.cls-13,.cls-14,.cls-15,.cls-16,.cls-17,.cls-18,.cls-19,.cls-20,.cls-21,.cls-22,.cls-23,.cls-24,.cls-25,.cls-26,.cls-27,.cls-28,.cls-29,.cls-30,.cls-31,.cls-32,.cls-33,.cls-34,.cls-35,.cls-36,.cls-37,.cls-38,.cls-39{stroke-width:0px;}.cls-1,.cls-2,.cls-3,.cls-40{opacity:.7;}.cls-1,.cls-4,.cls-9,.cls-13,.cls-18,.cls-22,.cls-27{fill:#43688c;}.cls-2,.cls-7,.cls-8,.cls-11,.cls-14,.cls-21,.cls-25,.cls-33{fill:#fff;}.cls-3,.cls-6,.cls-15,.cls-19,.cls-23,.cls-32{fill:#64a2d0;}.cls-4,.cls-5,.cls-6,.cls-7,.cls-39{opacity:.2;}.cls-5,.cls-10,.cls-26{fill:#263238;}.cls-8,.cls-41{opacity:.8;}.cls-9,.cls-16,.cls-42{opacity:.4;}.cls-10{opacity:.1;}.cls-11,.cls-12{opacity:.9;}.cls-12,.cls-20,.cls-24,.cls-34{fill:#fafafa;}.cls-13,.cls-14,.cls-15,.cls-43{opacity:.5;}.cls-44,.cls-22,.cls-23,.cls-24,.cls-25{opacity:.3;}.cls-45,.cls-18,.cls-19,.cls-20,.cls-21{opacity:.6;}.cls-28{fill:#407bff;}.cls-29{fill:#e0e0e0;}.cls-30{fill:#ce7a63;}.cls-31{fill:#ba4d3c;}.cls-35{fill:#ebebeb;}.cls-36{fill:#f0f0f0;}.cls-37{fill:#e6e6e6;}.cls-38{fill:#f5f5f5;}</style></defs><rect class="cls-35" x="381.55" y="350.24" width="33.12" height=".25"/><rect class="cls-35" x="287.3" y="352.95" width="8.69" height=".25"/><rect class="cls-35" x="361.36" y="340.95" width="19.19" height=".25"/><rect class="cls-35" x="17.23" y="342.63" width="43.19" height=".25"/><rect class="cls-35" x="69.33" y="342.63" width="6.33" height=".25"/><rect class="cls-35" x="96.24" y="346.85" width="93.68" height=".25"/><path class="cls-35" d="m201.78,289.54H8.69c-3.15,0-5.71-2.56-5.71-5.71V12.4c0-3.15,2.56-5.71,5.71-5.71h193.1c3.15,0,5.71,2.56,5.71,5.71v271.43c0,3.15-2.56,5.71-5.71,5.71ZM8.69,6.94c-3.01,0-5.46,2.45-5.46,5.46v271.43c0,3.01,2.45,5.46,5.46,5.46h193.1c3.01,0,5.46-2.45,5.46-5.46V12.4c0-3.01-2.45-5.46-5.46-5.46H8.69Z"/><path class="cls-35" d="m418.08,289.54h-193.1c-3.15,0-5.71-2.56-5.71-5.71V12.4c0-3.15,2.56-5.71,5.71-5.71h193.1c3.15,0,5.71,2.56,5.71,5.71v271.43c0,3.15-2.56,5.71-5.71,5.71ZM224.98,6.94c-3.01,0-5.46,2.45-5.46,5.46v271.43c0,3.01,2.45,5.46,5.46,5.46h193.1c3.01,0,5.46-2.45,5.46-5.46V12.4c0-3.01-2.45-5.46-5.46-5.46h-193.1Z"/><rect class="cls-36" x="230.33" y="17.79" width="28.99" height="38.91" transform="translate(489.64 74.49) rotate(180)"/><rect class="cls-38" x="227.93" y="18.59" width="28.99" height="38.91" transform="translate(484.84 76.09) rotate(180)"/><rect class="cls-29" x="255.14" y="21.03" width="9.19" height="43.43"/><polygon class="cls-35" points="247.77 21.03 226.91 50.5 226.91 64.46 255.14 64.46 255.14 21.03 247.77 21.03"/><path class="cls-34" d="m262.56,57.5c0,1.56-1.26,2.82-2.82,2.82s-2.82-1.26-2.82-2.82,1.26-2.82,2.82-2.82,2.82,1.26,2.82,2.82Z"/><rect class="cls-36" x="256.91" y="31.22" width="5.64" height="18.34"/><rect class="cls-20" x="256.91" y="31.22" width="5.64" height="2.59"/><path class="cls-35" d="m219.11,53.71v-7.07c.87,0,.87-1.35,0-1.35-2.7,0-5.39-.02-8.09-.03v9.82h8.09c.87,0,.87-1.35,0-1.35Z"/><rect class="cls-38" x="212.83" y="46.64" width="6.28" height="7.06"/><path class="cls-34" d="m214.15,54.39h-21.79c-1.5,0-2.71-1.89-2.71-4.21s1.21-4.21,2.71-4.21h21.79v8.43Z"/><path class="cls-37" d="m214.15,45.28c-7.13,0-14.28-.13-21.41,0-4.89.09-5.15,9.45-.36,9.78,3.34.23,6.78,0,10.12,0h11.64c.87,0,.87-1.35,0-1.35h-20.28c-1.56,0-2.68-.02-3.29-1.86-.52-1.6-.36-4.86,1.78-5.21.23-.04.5,0,.73,0h21.05c.87,0,.87-1.35,0-1.35h0Z"/><path class="cls-35" d="m219.18,44.16v-6.29c.77,0,.78-1.2,0-1.2-2.4,0-4.79-.02-7.19-.03v8.72h7.19c.77,0,.78-1.2,0-1.2Z"/><rect class="cls-38" x="213.6" y="37.88" width="5.58" height="6.28"/><path class="cls-34" d="m214.77,44.76h-19.36c-1.33,0-2.41-1.68-2.41-3.74s1.08-3.74,2.41-3.74h19.36v7.49Z"/><path class="cls-37" d="m214.77,36.67c-6.34,0-12.69-.11-19.03,0-4.34.08-4.57,8.4-.32,8.69,2.97.2,6.02,0,9,0h10.35c.77,0,.78-1.2,0-1.2h-18.02c-1.39,0-2.39-.02-2.92-1.66-.47-1.42-.32-4.32,1.58-4.63.2-.03.45,0,.65,0h18.71c.77,0,.78-1.2,0-1.2h0Z"/><path class="cls-35" d="m219.11,63.32v-7.07c.87,0,.87-1.35,0-1.35-2.7,0-5.39-.02-8.09-.03v9.82h8.09c.87,0,.87-1.35,0-1.35Z"/><rect class="cls-38" x="212.83" y="56.25" width="6.28" height="7.06"/><path class="cls-34" d="m214.15,64h-21.79c-1.5,0-2.71-1.89-2.71-4.21s1.21-4.21,2.71-4.21h21.79v8.43Z"/><path class="cls-37" d="m214.15,54.9c-7.13,0-14.28-.13-21.41,0-4.89.09-5.15,9.45-.36,9.78,3.34.23,6.78,0,10.12,0h11.64c.87,0,.87-1.35,0-1.35h-20.28c-1.56,0-2.68-.02-3.29-1.86-.52-1.6-.36-4.86,1.78-5.21.23-.04.5,0,.73,0h21.05c.87,0,.87-1.35,0-1.35h0Z"/><rect class="cls-38" x="94.48" y="64.11" width="243.48" height="7.05"/><polygon class="cls-29" points="324.84 88.28 324.84 71.15 333.4 71.15 324.84 88.28"/><polygon class="cls-38" points="329.12 88.28 337.68 71.15 333.4 71.15 324.84 88.28 329.12 88.28"/><polygon class="cls-29" points="107.32 88.28 107.32 71.15 98.76 71.15 107.32 88.28"/><polygon class="cls-38" points="103.04 88.28 94.48 71.15 98.76 71.15 107.32 88.28 103.04 88.28"/><path class="cls-36" d="m310.77,45.57v-.65c0-10.29-8.34-18.63-18.63-18.63s-18.63,8.34-18.63,18.63v19.28h37.26v-18.63Z"/><path class="cls-34" d="m277.58,44.93c0,8.04,6.52,14.56,14.56,14.56s14.56-6.52,14.56-14.56-6.52-14.56-14.56-14.56-14.56,6.52-14.56,14.56Z"/><path class="cls-37" d="m292.14,32.67c-7.65,0-13.91,5.91-14.5,13.41-.03-.38-.06-.76-.06-1.15,0-8.04,6.52-14.56,14.56-14.56s14.56,6.52,14.56,14.56c0,.39-.03.77-.06,1.15-.59-7.5-6.85-13.41-14.5-13.41Z"/><path class="cls-29" d="m282.95,44.92h7.65v-7.65c0-.85.69-1.54,1.54-1.54s1.54.69,1.54,1.54v9.19c0,.85-.69,1.54-1.54,1.54h-9.19c-.85,0-1.54-.69-1.54-1.54s.69-1.54,1.54-1.54Z"/><path class="cls-38" d="m282.95,46.47c-.85,0-1.54-.69-1.54-1.54s.69-1.54,1.54-1.54h9.19c.85,0,1.54.69,1.54,1.54s-.69,1.54-1.54,1.54h-9.19Z"/><path class="cls-35" d="m290.6,35.73c0-.85.69-1.54,1.54-1.54s1.54.69,1.54,1.54v9.19c0,.85-.69,1.54-1.54,1.54s-1.54-.69-1.54-1.54v-9.19Z"/><polygon class="cls-35" points="177.18 64.27 149.72 64.27 152.77 29.45 180.23 29.45 177.18 64.27"/><polygon class="cls-29" points="177.18 64.27 178.49 64.27 181.54 29.45 180.23 29.45 177.18 64.27"/><polygon class="cls-29" points="174.69 60.72 152.83 60.72 155.26 33 177.12 33 174.69 60.72"/><polygon class="cls-34" points="173.09 58.44 154.83 58.44 156.86 35.28 175.12 35.28 173.09 58.44"/><path class="cls-37" d="m164.7,51.64c3.47,0,6.29-2.81,6.29-6.29s-2.81-6.29-6.29-6.29-3.47,12.57,0,12.57Z"/><polygon class="cls-36" points="153.36 64.27 155.25 42.72 127.92 42.72 126.03 64.27 153.36 64.27"/><polygon class="cls-29" points="153.36 64.27 155.25 42.72 156.72 42.72 154.84 64.27 153.36 64.27"/><polygon class="cls-34" points="150.77 62.08 152.27 44.92 130.51 44.92 129.01 62.08 150.77 62.08"/><polygon class="cls-35" points="149.1 60.66 150.36 46.33 132.18 46.33 130.92 60.66 149.1 60.66"/><path class="cls-38" d="m140.66,56.7c2.24,0,4.06-1.82,4.06-4.06s-1.82-4.06-4.06-4.06-2.24,8.13,0,8.13Z"/><path class="cls-38" d="m44.69,288.14c-.08-.07-.13-.17-.13-.28-.09-1.96-1.27-21.23-13.07-34.42-9.98-11.16.26-3.2,4.7.39.36.29.85-.13.61-.53-3.13-5.29-10.99-19.28-8.26-22.01,2.58-2.58,7.89,10.2,10.27,16.4.17.45.84.29.79-.19-.68-6.56-1.68-20.28,2.02-19.8,3.66.48,2.64,18.6,1.91,27.47-.04.49.66.62.8.15,1.65-5.46,4.79-13.52,8.48-11.39,5.46,3.16-8.04,14.27-7.19,26.33.83,11.82,1.05,19.57-.93,17.87Z"/><path class="cls-38" d="m50.32,291.55s.07-.19.18-.27c13.59-9.4,10.24-30.11,6.12-42.95-.92-2.86-1.88-5.82-2.02-8.87,2.89,3.46,4.63,8.01,6.56,12.13.25.54.89.35.8-.24-1.03-6.62-1.44-27.43,4.57-27.06,2.72.17-.31,18.27-.42,21.96-.02.59.72.82.87.27,1.78-6.42,14.05-19.69,16.28-17.04.95,1.13-4.79,7.36-6.74,10.29-3.66,5.49-6.18,11.62-8.51,17.75-.21.54.46,1.11.75.66,2.17-3.43,10.29-11.68,13.04-7.59,1.99,2.96-3.32,7.26-5.94,9.8-4.65,4.51-9.07,9.49-11.33,15.49-1.53,4.09-12.55,17.87-14.19,15.67Z"/><path class="cls-37" d="m51.98,289.57c.09-.09.14-.22.14-.35-.02-2.39.15-25.85,13.6-42.65,11.38-14.21-.52-3.87-5.68.79-.41.37-1.04-.11-.78-.6,3.45-6.63,12.07-24.14,8.58-27.27-3.3-2.96-8.91,12.91-11.39,20.59-.18.56-1,.41-.98-.18.4-8.01.7-24.73-3.75-23.9-4.41.82-1.98,22.76-.51,33.48.08.59-.76.8-.96.24-2.36-6.52-6.71-16.1-11.05-13.27-6.42,4.2,10.7,16.8,10.47,31.49-.23,14.4.02,23.83,2.31,21.63Z"/><path class="cls-37" d="m61.07,325.52c4.08-15.2,6.76-36.62,6.76-41.89h-30.42c0,5.27,2.69,26.69,6.76,41.89.75,2.79,3.29,4.73,6.18,4.73h4.52c2.89,0,5.43-1.94,6.18-4.73Z"/><path class="cls-37" d="m393.87,329.27h-27.38c-3.33,0-6.07-2.6-6.25-5.92l-3.35-62.79h46.57l-3.35,62.79c-.18,3.32-2.92,5.92-6.25,5.92Z"/><rect class="cls-34" x="373.88" y="264.41" width="12.62" height="12.62"/><rect class="cls-34" x="373.88" y="280.14" width="12.62" height="12.62"/><rect class="cls-34" x="373.88" y="295.87" width="12.62" height="12.62"/><rect class="cls-34" x="373.88" y="311.59" width="12.62" height="12.62"/><rect class="cls-38" x="354.23" y="255.99" width="51.91" height="4.58" rx="1.25" ry="1.25"/><path class="cls-34" d="m397.08,311.59h-7.34v12.62h6.41c.17-.32.29-.67.31-1.06l.62-11.56Z"/><path class="cls-34" d="m370.63,311.59h-7.34l.62,11.56c.02.39.14.74.31,1.06h6.41v-12.62Z"/><polygon class="cls-34" points="370.63 295.87 362.45 295.87 363.12 308.49 370.63 308.49 370.63 295.87"/><polygon class="cls-34" points="370.63 280.14 361.61 280.14 362.29 292.76 370.63 292.76 370.63 280.14"/><polygon class="cls-34" points="370.63 264.41 360.77 264.41 361.45 277.03 370.63 277.03 370.63 264.41"/><polygon class="cls-34" points="389.74 295.87 389.74 308.49 397.25 308.49 397.92 295.87 389.74 295.87"/><polygon class="cls-34" points="389.74 280.14 389.74 292.76 398.08 292.76 398.76 280.14 389.74 280.14"/><polygon class="cls-34" points="389.74 264.41 389.74 277.03 398.92 277.03 399.6 264.41 389.74 264.41"/><ellipse id="_Path_" class="cls-38" cx="211.39" cy="360.23" rx="193.89" ry="11.32"/><path class="cls-26" d="m362.72,189.31c-7.08,0-15.44-12.93-22.82-24.35-4.84-7.48-9.54-14.75-14.54-20h16.55v-8h-20.29c3.63-4.13,7.06-9.45,10.59-14.9,5.54-8.57,12.44-19.24,17.71-19.24h15.52v-8h-15.52c-9.63,0-16.82,11.12-24.43,22.9-5.54,8.57-12.44,19.24-17.71,19.24h-177.14c-5.27,0-12.17-10.67-17.71-19.24-7.61-11.78-14.8-22.9-24.43-22.9h-15.52v8h15.52c5.27,0,12.17,10.67,17.71,19.24,3.53,5.45,6.96,10.77,10.59,14.9H44.89v8h80.66c-5,5.26-9.7,12.52-14.54,20-7.38,11.41-15.74,24.35-22.82,24.35h-29.42v8h29.42c11.43,0,20.23-13.6,29.54-28,7.38-11.41,15.74-24.35,22.82-24.35h169.82c7.08,0,15.44,12.94,22.82,24.35,9.31,14.4,18.1,28,29.53,28h29.42v-8h-29.42Z"/><g class="cls-42"><path class="cls-33" d="m317.94,143.05l-.43.62c5.89,4.06,11.47,12.26,17.62,21.76l.63-.41c-6.2-9.57-11.82-17.83-17.82-21.97Z"/><path class="cls-33" d="m343.55,176.8l-.61.43c3.45,4.93,6.32,8.41,9.04,10.96l.51-.55c-2.68-2.51-5.52-5.96-8.94-10.84Z"/><path class="cls-33" d="m337.05,168.39c1.29,2,2.59,3.99,3.89,5.92l.62-.42c-1.3-1.93-2.59-3.92-3.88-5.91l-.63.41Z"/><path class="cls-33" d="m355.17,189.88l-.44.61c2.77,2.01,5.39,2.98,7.99,2.98h19.84v-.75h-19.84c-2.44,0-4.91-.93-7.55-2.84Z"/><rect class="cls-33" x="386.14" y="192.72" width="6" height=".75"/><rect class="cls-33" x="44.89" y="140.37" width="6" height=".75"/><rect class="cls-33" x="56.71" y="140.37" width="23.27" height=".75"/><path class="cls-33" d="m85.79,140.37v.75h46.53v-.75h-1.69c-1.76,0-3.52-.6-5.4-1.83l-.41.63c.76.5,1.5.9,2.24,1.21h-41.27Z"/><rect class="cls-33" x="254.48" y="140.37" width="23.27" height=".75"/><path class="cls-33" d="m330.1,141.12v-.75h-18.74c.74-.31,1.48-.71,2.24-1.21l-.41-.63c-1.88,1.23-3.64,1.83-5.4,1.83h-24.22v.75h26.81c1.35,0,2.73.29,4.13.88l.29-.69c-.17-.07-.33-.12-.5-.18h15.81Z"/><rect class="cls-33" x="237.03" y="140.37" width="11.63" height=".75"/><rect class="cls-33" x="184.68" y="140.37" width="46.53" height=".75"/><rect class="cls-33" x="335.91" y="140.37" width="6" height=".75"/><path class="cls-33" d="m327.49,122.46l-.63-.41c-3.12,4.79-6.75,10.19-10.4,13.78l.53.54c3.7-3.64,7.36-9.08,10.5-13.9Z"/><path class="cls-33" d="m349.92,98.97h5.18v-.75h-5.18c-7.64,0-14.58,10.72-20.7,20.18l.63.41c6.02-9.3,12.84-19.84,20.07-19.84Z"/><rect class="cls-33" x="359.45" y="98.22" width="6" height=".75"/><path class="cls-33" d="m121.95,135.83c-3.65-3.58-7.28-8.99-10.4-13.78l-.63.41c3.14,4.82,6.8,10.26,10.5,13.9l.53-.54Z"/><path class="cls-33" d="m108.56,118.81l.63-.41c-6.12-9.46-13.06-20.18-20.7-20.18h-5.18v.75h5.18c7.23,0,14.05,10.54,20.07,19.84Z"/><rect class="cls-33" x="72.97" y="98.22" width="6" height=".75"/><polygon class="cls-33" points="155.59 140.37 153.83 140.37 153.83 141.12 155.59 141.12 159.83 141.12 178.86 141.12 178.86 140.37 159.83 140.37 155.59 140.37"/><path class="cls-33" d="m115.15,165.02l.63.41c6.15-9.5,11.73-17.69,17.62-21.76l-.43-.62c-6.01,4.14-11.63,12.4-17.82,21.97Z"/><path class="cls-33" d="m140.55,140.37h-2.4v.29c-.67.15-1.34.36-2.01.64l.29.69c1.39-.58,2.78-.88,4.13-.88h9.74v-.75h-9.74Z"/><path class="cls-33" d="m88.2,192.72h-19.84v.75h19.84c2.61,0,5.22-.98,7.99-2.98l-.44-.61c-2.64,1.91-5.11,2.84-7.55,2.84Z"/><path class="cls-33" d="m109.36,173.89l.62.42c1.3-1.93,2.59-3.92,3.89-5.92l-.63-.41c-1.29,2-2.58,3.98-3.88,5.91Z"/><path class="cls-33" d="m98.43,187.64l.51.55c2.72-2.55,5.59-6.03,9.04-10.96l-.61-.43c-3.42,4.88-6.25,8.33-8.94,10.84Z"/><rect class="cls-33" x="58.78" y="192.72" width="6" height=".75"/></g><path class="cls-27" d="m88.54,173.99h-7.33c-1.73,0-3.34.87-4.29,2.3l-1.07,1.62c-.87,1.32-2.35,2.11-3.93,2.11h-18.91c-1.7,0-3.07,1.38-3.07,3.07v29.54h42.65v-32.61l-.38-2.84c-.24-1.83-1.81-3.2-3.65-3.2Z"/><path class="cls-4" d="m88.54,173.99h-7.33c-1.73,0-3.34.87-4.29,2.3l-1.07,1.62c-.87,1.32-2.35,2.11-3.93,2.11h-18.91c-1.7,0-3.07,1.38-3.07,3.07v29.54h42.65v-32.61l-.38-2.84c-.24-1.83-1.81-3.2-3.65-3.2Z"/><rect class="cls-26" x="53.12" y="183.76" width="36.25" height="24.79"/><rect class="cls-11" x="53.12" y="183.76" width="36.25" height="24.79"/><g class="cls-44"><path class="cls-32" d="m92.57,212.63h-42.65l-6.26-22.78c-.47-1.73.82-3.43,2.61-3.43h34.95c2.45,0,4.59,1.64,5.24,3.99l6.1,22.22Z"/><path class="cls-19" d="m92.57,212.63h-42.65l-6.26-22.78c-.47-1.73.82-3.43,2.61-3.43h34.95c2.45,0,4.59,1.64,5.24,3.99l6.1,22.22Z"/></g><path class="cls-27" d="m41.42,65.41h7.91c1.86,0,3.6.93,4.63,2.49l1.16,1.75c.94,1.42,2.54,2.28,4.24,2.28h20.41c1.83,0,3.31,1.48,3.31,3.31v29.16c0,1.5-1.21,2.71-2.71,2.71h-40.59c-1.49,0-2.71-1.21-2.71-2.71v-32.47l.41-3.06c.26-1.98,1.95-3.46,3.94-3.46Z"/><path class="cls-18" d="m41.42,65.41h7.91c1.86,0,3.6.93,4.63,2.49l1.16,1.75c.94,1.42,2.54,2.28,4.24,2.28h20.41c1.83,0,3.31,1.48,3.31,3.31v29.16c0,1.5-1.21,2.71-2.71,2.71h-40.59c-1.49,0-2.71-1.21-2.71-2.71v-32.47l.41-3.06c.26-1.98,1.95-3.46,3.94-3.46Z"/><g class="cls-40"><rect class="cls-33" x="70.71" y="71.92" width="4.09" height="28.33"/><rect class="cls-14" x="70.71" y="71.92" width="4.09" height="28.33"/></g><rect class="cls-27" x="69.74" y="73.27" width="3.14" height="2.33"/><rect class="cls-27" x="69.74" y="78.35" width="3.14" height="2.33"/><rect class="cls-27" x="69.74" y="83.43" width="3.14" height="2.33"/><rect class="cls-27" x="69.74" y="88.51" width="3.14" height="2.33"/><rect class="cls-27" x="69.74" y="93.59" width="3.14" height="2.33"/><g class="cls-40"><rect class="cls-2" x="69.74" y="73.27" width="3.14" height="2.33"/><rect class="cls-2" x="69.74" y="78.35" width="3.14" height="2.33"/><rect class="cls-2" x="69.74" y="83.43" width="3.14" height="2.33"/><rect class="cls-2" x="69.74" y="88.51" width="3.14" height="2.33"/><rect class="cls-2" x="69.74" y="93.59" width="3.14" height="2.33"/></g><g class="cls-40"><rect class="cls-33" x="72.79" y="75.6" width="3.14" height="2.33"/><rect class="cls-33" x="72.79" y="80.68" width="3.14" height="2.33"/><rect class="cls-33" x="72.79" y="85.76" width="3.14" height="2.33"/><rect class="cls-33" x="72.79" y="90.84" width="3.14" height="2.33"/><rect class="cls-33" x="72.79" y="95.92" width="3.14" height="2.33"/><g class="cls-41"><rect class="cls-33" x="72.79" y="75.6" width="3.14" height="2.33"/><rect class="cls-33" x="72.79" y="80.68" width="3.14" height="2.33"/><rect class="cls-33" x="72.79" y="85.76" width="3.14" height="2.33"/><rect class="cls-33" x="72.79" y="90.84" width="3.14" height="2.33"/><rect class="cls-33" x="72.79" y="95.92" width="3.14" height="2.33"/></g></g><g class="cls-40"><path class="cls-33" d="m68.38,98.26v9.29h8.99v-9.29h-8.99Zm7.55,7.61h-5.96v-5.92h5.96v5.92Z"/><path class="cls-2" d="m68.38,98.26v9.29h8.99v-9.29h-8.99Zm7.55,7.61h-5.96v-5.92h5.96v5.92Z"/></g><polygon class="cls-27" points="70.91 118.99 29.23 118.99 29.23 128.28 38.51 137.56 80.19 137.56 80.19 128.27 70.91 118.99"/><polygon class="cls-22" points="70.91 118.99 29.23 118.99 29.23 128.28 38.51 137.56 80.19 137.56 80.19 128.27 70.91 118.99"/><rect class="cls-32" x="38.51" y="137.55" width="41.69" height="9.29"/><rect class="cls-23" x="38.51" y="137.55" width="41.69" height="9.29"/><g class="cls-44"><rect class="cls-32" x="38.51" y="146.84" width="41.69" height="9.29"/><rect class="cls-19" x="38.51" y="146.84" width="41.69" height="9.29"/></g><g class="cls-45"><rect class="cls-32" x="38.51" y="128.27" width="41.69" height="9.29"/></g><polygon class="cls-27" points="54.23 156.13 63.59 156.13 63.59 128.27 54.31 118.99 44.95 118.99 54.23 128.27 54.23 156.13"/><polygon class="cls-4" points="54.23 156.13 63.59 156.13 63.59 128.27 54.31 118.99 44.95 118.99 54.23 128.27 54.23 156.13"/><path class="cls-26" d="m51.74,134.9v14.59h14.12v-14.59h-14.12Zm11.85,11.94h-9.36v-9.29h9.36v9.29Z"/><path class="cls-14" d="m51.74,134.9v14.59h14.12v-14.59h-14.12Zm11.85,11.94h-9.36v-9.29h9.36v9.29Z"/><polygon class="cls-26" points="29.23 118.99 29.23 128.28 38.51 137.56 38.51 128.27 29.23 118.99"/><polygon class="cls-14" points="29.23 118.99 29.23 128.28 38.51 137.56 38.51 128.27 29.23 118.99"/><polygon class="cls-26" points="29.23 128.27 29.23 137.57 38.51 146.84 38.51 137.55 29.23 128.27"/><polygon class="cls-21" points="29.23 128.27 29.23 137.57 38.51 146.84 38.51 137.55 29.23 128.27"/><polygon class="cls-26" points="29.23 137.56 29.23 146.85 38.51 156.13 38.51 146.84 29.23 137.56"/><polygon class="cls-8" points="29.23 137.56 29.23 146.85 38.51 156.13 38.51 146.84 29.23 137.56"/><rect class="cls-32" x="354.69" y="161.73" width="45.46" height="61.18"/><rect class="cls-3" x="354.69" y="161.73" width="45.46" height="61.18"/><rect class="cls-2" x="357.66" y="164.7" width="39.52" height="15.93"/><rect class="cls-2" x="357.66" y="184.35" width="39.52" height="15.93"/><polygon class="cls-28" points="397.18 173.29 393.5 168.8 388.94 174.35 384.39 167.81 379.56 172.64 374.82 169.97 370.51 177.13 366.2 169.97 361.31 172.74 357.66 170.68 357.66 172.38 361.31 174.44 365.67 171.97 370.51 180.01 375.35 171.97 379.82 174.48 384.19 170.11 388.85 176.81 393.5 171.14 397.18 175.63 397.18 173.29"/><polygon class="cls-27" points="397.18 173.29 393.5 168.8 388.94 174.35 384.39 167.81 379.56 172.64 374.82 169.97 370.51 177.13 366.2 169.97 361.31 172.74 357.66 170.68 357.66 172.38 361.31 174.44 365.67 171.97 370.51 180.01 375.35 171.97 379.82 174.48 384.19 170.11 388.85 176.81 393.5 171.14 397.18 175.63 397.18 173.29"/><polygon class="cls-28" points="397.18 189.19 393.47 191.29 388.58 188.52 384.26 195.68 379.95 188.53 375.21 191.19 370.38 186.36 365.83 192.9 361.28 187.35 357.66 191.76 357.66 194.1 361.28 189.69 365.93 195.36 370.59 188.66 374.96 193.04 379.42 190.53 384.26 198.56 389.1 190.53 393.47 192.99 397.18 190.9 397.18 189.19"/><polygon class="cls-27" points="397.18 189.19 393.47 191.29 388.58 188.52 384.26 195.68 379.95 188.53 375.21 191.19 370.38 186.36 365.83 192.9 361.28 187.35 357.66 191.76 357.66 194.1 361.28 189.69 365.93 195.36 370.59 188.66 374.96 193.04 379.42 190.53 384.26 198.56 389.1 190.53 393.47 192.99 397.18 190.9 397.18 189.19"/><path class="cls-26" d="m373.98,204.75h22.65c.96,0,.96-1.48,0-1.48h-22.65c-.96,0-.96,1.48,0,1.48h0Z"/><path class="cls-26" d="m373.98,208.8h19.68c.96,0,.96-1.49,0-1.49h-19.68c-.96,0-.96,1.49,0,1.49h0Z"/><path class="cls-26" d="m373.98,212.84h19.68c.96,0,.96-1.49,0-1.49h-19.68c-.96,0-.96,1.49,0,1.49h0Z"/><path class="cls-26" d="m373.98,216.88h20.67c.96,0,.96-1.49,0-1.49h-20.67c-.96,0-.96,1.49,0,1.49h0Z"/><g class="cls-42"><path class="cls-33" d="m373.98,204.75h22.65c.96,0,.96-1.48,0-1.48h-22.65c-.96,0-.96,1.48,0,1.48h0Z"/><path class="cls-33" d="m373.98,208.8h19.68c.96,0,.96-1.49,0-1.49h-19.68c-.96,0-.96,1.49,0,1.49h0Z"/><path class="cls-33" d="m373.98,212.84h19.68c.96,0,.96-1.49,0-1.49h-19.68c-.96,0-.96,1.49,0,1.49h0Z"/><path class="cls-33" d="m373.98,216.88h20.67c.96,0,.96-1.49,0-1.49h-20.67c-.96,0-.96,1.49,0,1.49h0Z"/></g><rect class="cls-32" x="356.5" y="67.62" width="41.33" height="55.62"/><rect class="cls-19" x="356.5" y="67.62" width="41.33" height="55.62"/><rect class="cls-2" x="359.2" y="70.32" width="35.93" height="14.48"/><path class="cls-26" d="m374.15,89.15h20.59c.87,0,.87-1.35,0-1.35h-20.59c-.87,0-.87,1.35,0,1.35h0Z"/><path class="cls-26" d="m374.15,92.83h17.89c.87,0,.87-1.35,0-1.35h-17.89c-.87,0-.87,1.35,0,1.35h0Z"/><path class="cls-26" d="m374.15,96.5h17.89c.87,0,.87-1.35,0-1.35h-17.89c-.87,0-.87,1.35,0,1.35h0Z"/><path class="cls-26" d="m374.15,100.18h18.79c.87,0,.87-1.35,0-1.35h-18.79c-.87,0-.87,1.35,0,1.35h0Z"/><path class="cls-26" d="m374.15,103.85h15.19c.87,0,.87-1.35,0-1.35h-15.19c-.87,0-.87,1.35,0,1.35h0Z"/><path class="cls-26" d="m374.15,107.53h20.59c.87,0,.87-1.35,0-1.35h-20.59c-.87,0-.87,1.35,0,1.35h0Z"/><path class="cls-26" d="m374.15,111.2h17.89c.87,0,.87-1.35,0-1.35h-17.89c-.87,0-.87,1.35,0,1.35h0Z"/><path class="cls-26" d="m374.15,114.88h17.89c.87,0,.87-1.35,0-1.35h-17.89c-.87,0-.87,1.35,0,1.35h0Z"/><path class="cls-26" d="m374.15,118.55h18.79c.87,0,.87-1.35,0-1.35h-18.79c-.87,0-.87,1.35,0,1.35h0Z"/><g class="cls-42"><path class="cls-26" d="m374.15,89.15h20.59c.87,0,.87-1.35,0-1.35h-20.59c-.87,0-.87,1.35,0,1.35h0Z"/></g><g class="cls-42"><path class="cls-26" d="m374.15,92.83h17.89c.87,0,.87-1.35,0-1.35h-17.89c-.87,0-.87,1.35,0,1.35h0Z"/></g><g class="cls-42"><path class="cls-26" d="m374.15,96.5h17.89c.87,0,.87-1.35,0-1.35h-17.89c-.87,0-.87,1.35,0,1.35h0Z"/></g><g class="cls-42"><path class="cls-26" d="m374.15,100.18h18.79c.87,0,.87-1.35,0-1.35h-18.79c-.87,0-.87,1.35,0,1.35h0Z"/></g><g class="cls-42"><path class="cls-26" d="m374.15,103.85h15.19c.87,0,.87-1.35,0-1.35h-15.19c-.87,0-.87,1.35,0,1.35h0Z"/></g><g class="cls-42"><path class="cls-26" d="m374.15,107.53h20.59c.87,0,.87-1.35,0-1.35h-20.59c-.87,0-.87,1.35,0,1.35h0Z"/></g><g class="cls-42"><path class="cls-26" d="m374.15,111.2h17.89c.87,0,.87-1.35,0-1.35h-17.89c-.87,0-.87,1.35,0,1.35h0Z"/></g><g class="cls-42"><path class="cls-26" d="m374.15,114.88h17.89c.87,0,.87-1.35,0-1.35h-17.89c-.87,0-.87,1.35,0,1.35h0Z"/></g><g class="cls-42"><path class="cls-26" d="m374.15,118.55h18.79c.87,0,.87-1.35,0-1.35h-18.79c-.87,0-.87,1.35,0,1.35h0Z"/></g><rect class="cls-27" x="359.2" y="88.48" width="10.13" height="10.13"/><rect class="cls-22" x="359.2" y="88.48" width="10.13" height="10.13"/><rect class="cls-27" x="367.57" y="78.01" width="2.74" height="5.48"/><rect class="cls-27" x="373.05" y="75.26" width="2.74" height="8.22"/><rect class="cls-27" x="378.54" y="76.63" width="2.74" height="6.85"/><rect class="cls-27" x="384.02" y="72.52" width="2.74" height="10.97"/><g class="cls-45"><rect class="cls-33" x="336.26" y="113.83" width="41.33" height="55.62"/><rect class="cls-8" x="336.26" y="113.83" width="41.33" height="55.62"/></g><path class="cls-26" d="m353.91,119.79h20.59c.87,0,.87-1.35,0-1.35h-20.59c-.87,0-.87,1.35,0,1.35h0Z"/><path class="cls-26" d="m353.91,123.47h17.89c.87,0,.87-1.35,0-1.35h-17.89c-.87,0-.87,1.35,0,1.35h0Z"/><path class="cls-26" d="m353.91,127.14h17.89c.87,0,.87-1.35,0-1.35h-17.89c-.87,0-.87,1.35,0,1.35h0Z"/><path class="cls-26" d="m353.91,130.82h18.79c.87,0,.87-1.35,0-1.35h-18.79c-.87,0-.87,1.35,0,1.35h0Z"/><path class="cls-26" d="m353.91,134.49h15.19c.87,0,.87-1.35,0-1.35h-15.19c-.87,0-.87,1.35,0,1.35h0Z"/><path class="cls-26" d="m353.91,138.17h20.59c.87,0,.87-1.35,0-1.35h-20.59c-.87,0-.87,1.35,0,1.35h0Z"/><path class="cls-26" d="m353.91,141.84h17.89c.87,0,.87-1.35,0-1.35h-17.89c-.87,0-.87,1.35,0,1.35h0Z"/><path class="cls-26" d="m353.91,145.52h17.89c.87,0,.87-1.35,0-1.35h-17.89c-.87,0-.87,1.35,0,1.35h0Z"/><path class="cls-26" d="m353.91,152.87h15.19c.87,0,.87-1.35,0-1.35h-15.19c-.87,0-.87,1.35,0,1.35h0Z"/><path class="cls-26" d="m353.91,156.55h20.59c.87,0,.87-1.35,0-1.35h-20.59c-.87,0-.87,1.35,0,1.35h0Z"/><path class="cls-26" d="m353.91,160.22h17.89c.87,0,.87-1.35,0-1.35h-17.89c-.87,0-.87,1.35,0,1.35h0Z"/><path class="cls-26" d="m353.91,163.9h17.89c.87,0,.87-1.35,0-1.35h-17.89c-.87,0-.87,1.35,0,1.35h0Z"/><path class="cls-26" d="m353.91,149.19h18.79c.87,0,.87-1.35,0-1.35h-18.79c-.87,0-.87,1.35,0,1.35h0Z"/><g class="cls-42"><path class="cls-33" d="m353.91,119.79h20.59c.87,0,.87-1.35,0-1.35h-20.59c-.87,0-.87,1.35,0,1.35h0Z"/><path class="cls-33" d="m353.91,123.47h17.89c.87,0,.87-1.35,0-1.35h-17.89c-.87,0-.87,1.35,0,1.35h0Z"/><path class="cls-33" d="m353.91,127.14h17.89c.87,0,.87-1.35,0-1.35h-17.89c-.87,0-.87,1.35,0,1.35h0Z"/><path class="cls-33" d="m353.91,130.82h18.79c.87,0,.87-1.35,0-1.35h-18.79c-.87,0-.87,1.35,0,1.35h0Z"/><path class="cls-33" d="m353.91,134.49h15.19c.87,0,.87-1.35,0-1.35h-15.19c-.87,0-.87,1.35,0,1.35h0Z"/><path class="cls-33" d="m353.91,138.17h20.59c.87,0,.87-1.35,0-1.35h-20.59c-.87,0-.87,1.35,0,1.35h0Z"/><path class="cls-33" d="m353.91,141.84h17.89c.87,0,.87-1.35,0-1.35h-17.89c-.87,0-.87,1.35,0,1.35h0Z"/><path class="cls-33" d="m353.91,145.52h17.89c.87,0,.87-1.35,0-1.35h-17.89c-.87,0-.87,1.35,0,1.35h0Z"/><path class="cls-33" d="m353.91,152.87h15.19c.87,0,.87-1.35,0-1.35h-15.19c-.87,0-.87,1.35,0,1.35h0Z"/><path class="cls-33" d="m353.91,156.55h20.59c.87,0,.87-1.35,0-1.35h-20.59c-.87,0-.87,1.35,0,1.35h0Z"/><path class="cls-33" d="m353.91,160.22h17.89c.87,0,.87-1.35,0-1.35h-17.89c-.87,0-.87,1.35,0,1.35h0Z"/><path class="cls-33" d="m353.91,163.9h17.89c.87,0,.87-1.35,0-1.35h-17.89c-.87,0-.87,1.35,0,1.35h0Z"/><path class="cls-33" d="m353.91,149.19h18.79c.87,0,.87-1.35,0-1.35h-18.79c-.87,0-.87,1.35,0,1.35h0Z"/></g><path class="cls-27" d="m342.6,138.41l-1.63-1.63c-1.12,1.12-1.82,2.67-1.82,4.39h2.31c0-1.08.44-2.05,1.14-2.76Z"/><path class="cls-28" d="m345.36,145.07c-2.15,0-3.9-1.75-3.9-3.9h-2.31c0,3.43,2.78,6.21,6.21,6.21v-2.31Z"/><path class="cls-26" d="m345.36,145.07c-2.15,0-3.9-1.75-3.9-3.9h-2.31c0,3.43,2.78,6.21,6.21,6.21v-2.31Z"/><path class="cls-28" d="m342.6,138.41c.71-.71,1.68-1.14,2.76-1.14v-2.31c-1.71,0-3.27.69-4.39,1.82l1.63,1.63Z"/><path class="cls-27" d="m342.6,138.41c.71-.71,1.68-1.14,2.76-1.14v-2.31c-1.71,0-3.27.69-4.39,1.82l1.63,1.63Z"/><path class="cls-32" d="m349.26,141.17c0,2.15-1.75,3.9-3.9,3.9v2.31c3.43,0,6.21-2.78,6.21-6.21s-2.78-6.21-6.21-6.21v2.31c2.15,0,3.9,1.75,3.9,3.9Z"/><path class="cls-32" d="m348.12,143.92l1.63,1.63c1.12-1.12,1.82-2.67,1.82-4.39h-2.31c0,1.08-.44,2.05-1.14,2.76Z"/><path class="cls-27" d="m342.6,126.69l-1.63,1.63c1.12,1.12,2.67,1.82,4.39,1.82v-2.31c-1.08,0-2.05-.44-2.76-1.14Z"/><path class="cls-27" d="m349.26,123.94c0,2.15-1.75,3.9-3.9,3.9v2.31c3.43,0,6.21-2.78,6.21-6.21h-2.31Z"/><path class="cls-22" d="m349.26,123.94c0,2.15-1.75,3.9-3.9,3.9v2.31c3.43,0,6.21-2.78,6.21-6.21h-2.31Z"/><path class="cls-27" d="m342.6,126.69c-.71-.71-1.14-1.68-1.14-2.76h-2.31c0,1.71.69,3.27,1.82,4.39l1.63-1.63Z"/><path class="cls-13" d="m342.6,126.69c-.71-.71-1.14-1.68-1.14-2.76h-2.31c0,1.71.69,3.27,1.82,4.39l1.63-1.63Z"/><path class="cls-26" d="m345.36,120.04c2.15,0,3.9,1.75,3.9,3.9h2.31c0-3.43-2.78-6.21-6.21-6.21s-6.21,2.78-6.21,6.21h2.31c0-2.15,1.75-3.9,3.9-3.9Z"/><path class="cls-4" d="m348.12,121.18l1.63-1.63c-1.12-1.12-2.67-1.82-4.39-1.82v2.31c1.08,0,2.05.44,2.76,1.14Z"/><path class="cls-27" d="m348.12,155.64l1.63-1.63c1.12,1.12,1.82,2.67,1.82,4.39h-2.31c0-1.08-.44-2.05-1.14-2.76Z"/><path class="cls-27" d="m345.36,162.3c2.15,0,3.9-1.75,3.9-3.9h2.31c0,3.43-2.78,6.21-6.21,6.21v-2.31Z"/><path class="cls-22" d="m345.36,162.3c2.15,0,3.9-1.75,3.9-3.9h2.31c0,3.43-2.78,6.21-6.21,6.21v-2.31Z"/><path class="cls-27" d="m348.12,155.64c-.71-.71-1.68-1.14-2.76-1.14v-2.31c1.71,0,3.27.69,4.39,1.82l-1.63,1.63Z"/><path class="cls-13" d="m348.12,155.64c-.71-.71-1.68-1.14-2.76-1.14v-2.31c1.71,0,3.27.69,4.39,1.82l-1.63,1.63Z"/><path class="cls-27" d="m341.46,158.4c0,2.15,1.75,3.9,3.9,3.9v2.31c-3.43,0-6.21-2.78-6.21-6.21s2.78-6.21,6.21-6.21v2.31c-2.15,0-3.9,1.75-3.9,3.9Z"/><path class="cls-4" d="m342.6,161.16l-1.63,1.63c-1.12-1.12-1.82-2.67-1.82-4.39h2.31c0,1.08.44,2.05,1.14,2.76Z"/><path class="cls-26" d="m228.66,224.57h24.19c1.46,0,2.65,1.19,2.65,2.65v1.47c0,1.46-1.19,2.65-2.65,2.65h-24.19v-6.77h0Z"/><rect class="cls-17" x="178.9" y="224.57" width="56.4" height="6.77" rx="2.46" ry="2.46"/><rect class="cls-14" x="178.9" y="224.57" width="56.4" height="6.77" rx="2.46" ry="2.46"/><polygon class="cls-26" points="221.53 224.57 234.57 224.57 226.22 193.38 221.53 193.38 221.53 224.57"/><polygon class="cls-17" points="232.67 224.57 206.06 224.57 203.41 193.38 224.32 193.38 232.67 224.57"/><polygon class="cls-25" points="232.67 224.57 206.06 224.57 203.41 193.38 224.32 193.38 232.67 224.57"/><path class="cls-26" d="m299.72,103.73h-12.1l-9.37,107.07h12.1c2.53,0,4.77-2.05,4.99-4.59l8.56-97.9c.22-2.53-1.65-4.59-4.19-4.59Z"/><path class="cls-26" d="m287.57,210.8h-146.48c-2.53,0-4.41-2.05-4.19-4.59l8.56-97.9c.22-2.53,2.45-4.59,4.99-4.59h146.48c2.53,0,4.41,2.05,4.19,4.59l-8.56,97.9c-.22,2.53-2.45,4.59-4.99,4.59Z"/><path class="cls-2" d="m287.57,210.8h-146.48c-2.53,0-4.41-2.05-4.19-4.59l8.56-97.9c.22-2.53,2.45-4.59,4.99-4.59h146.48c2.53,0,4.41,2.05,4.19,4.59l-8.56,97.9c-.22,2.53-2.45,4.59-4.99,4.59Z"/><path class="cls-12" d="m283.66,198.3h-136.47c-2.2,0-3.82-1.78-3.63-3.98l7.12-81.34c.19-2.2,2.13-3.98,4.33-3.98h136.47c2.2,0,3.82,1.78,3.63,3.98l-7.12,81.34c-.19,2.2-2.13,3.98-4.33,3.98Z"/><polygon class="cls-28" points="247.93 137.72 243.15 137.72 243.99 128.17 248.76 128.17 247.93 137.72"/><polygon class="cls-27" points="247.93 137.72 243.15 137.72 243.99 128.17 248.76 128.17 247.93 137.72"/><polygon class="cls-32" points="257.48 137.72 252.7 137.72 253.96 123.4 258.73 123.4 257.48 137.72"/><polygon class="cls-32" points="267.02 137.72 262.25 137.72 263.29 125.79 268.07 125.79 267.02 137.72"/><polygon class="cls-28" points="276.57 137.72 271.8 137.72 273.47 118.63 278.24 118.63 276.57 137.72"/><polygon class="cls-27" points="276.57 137.72 271.8 137.72 273.47 118.63 278.24 118.63 276.57 137.72"/><path class="cls-28" d="m281.35,136.84h-42.01c.53-6.07,1.06-12.14,1.59-18.21.1-1.13-1.66-1.12-1.76,0-.56,6.37-1.11,12.73-1.67,19.1-.04.48.44.88.88.88h42.97c1.13,0,1.14-1.76,0-1.76Z"/><path class="cls-12" d="m281.35,136.84h-42.01c.53-6.07,1.06-12.14,1.59-18.21.1-1.13-1.66-1.12-1.76,0-.56,6.37-1.11,12.73-1.67,19.1-.04.48.44.88.88.88h42.97c1.13,0,1.14-1.76,0-1.76Z"/><path class="cls-27" d="m245.04,173.14h-5.7l.5-5.7h5.7l-.5,5.7Zm-4.35-1.24h3.22l.28-3.22h-3.22l-.28,3.22Z"/><path class="cls-27" d="m244.28,181.82h-5.7l.5-5.7h5.7l-.5,5.7Zm-4.35-1.24h3.22l.28-3.22h-3.22l-.28,3.22Z"/><path class="cls-27" d="m243.52,190.49h-5.7l.5-5.7h5.7l-.5,5.7Zm-4.35-1.24h3.22l.28-3.22h-3.22l-.28,3.22Z"/><path class="cls-27" d="m249,171.81c-.77,0-1.34-.62-1.27-1.39.07-.77.74-1.39,1.51-1.39h19.07c.77,0,1.34.62,1.27,1.39-.07.77-.74,1.39-1.51,1.39h-19.07Z"/><path class="cls-1" d="m249,171.81c-.77,0-1.34-.62-1.27-1.39.07-.77.74-1.39,1.51-1.39h19.07c.77,0,1.34.62,1.27,1.39-.07.77-.74,1.39-1.51,1.39h-19.07Z"/><path class="cls-27" d="m247.49,189.04c-.77,0-1.34-.62-1.27-1.39.07-.77.74-1.39,1.51-1.39h15.98c.77,0,1.34.62,1.27,1.39-.07.77-.74,1.39-1.51,1.39h-15.98Z"/><path class="cls-9" d="m247.49,189.04c-.77,0-1.34-.62-1.27-1.39.07-.77.74-1.39,1.51-1.39h15.98c.77,0,1.34.62,1.27,1.39-.07.77-.74,1.39-1.51,1.39h-15.98Z"/><path class="cls-27" d="m248.25,180.36c-.77,0-1.34-.62-1.27-1.39s.74-1.39,1.51-1.39h14.74c.77,0,1.34.62,1.27,1.39s-.74,1.39-1.51,1.39h-14.74Z"/><path class="cls-4" d="m248.25,180.36c-.77,0-1.34-.62-1.27-1.39s.74-1.39,1.51-1.39h14.74c.77,0,1.34.62,1.27,1.39s-.74,1.39-1.51,1.39h-14.74Z"/><path class="cls-27" d="m229.75,181.4c-1.44-1.96-2.88-3.92-4.31-5.88-.32-.44-.98-.64-1.4-.18-1.52,1.68-3.05,3.36-4.57,5.03-1.2-1.97-2.4-3.94-3.59-5.91-.31-.51-.97-.57-1.4-.18-1.58,1.45-3.12,2.95-4.74,4.36-.48-.26-.95-.56-1.42-.84-.87-.51-1.74-1.03-2.61-1.54-.44-.26-.95-.08-1.22.32-1.54,2.23-3.08,4.46-4.62,6.69-1.15-2.23-2.3-4.46-3.44-6.69-.23-.44-.81-.54-1.22-.32-.73.4-1.47.79-2.2,1.19-.45.24-1.96,1-2.39,1.33-.35-.32-1.66-.99-1.92-1.14-.77-.46-1.54-.91-2.31-1.37-.99-.59-1.89.95-.9,1.54,1.28.76,3.56,2.87,5.07,2.86,1.37,0,3.31-1.45,4.74-2.38,1.23,2.39,2.46,4.78,3.69,7.16.33.64,1.18.52,1.54,0,1.66-2.41,3.32-4.82,4.99-7.23,1.29.77,2.59,1.53,3.88,2.3.35.21.79.13,1.08-.14l4.42-4.07c1.22,2,2.43,4,3.65,6,.29.47,1.01.61,1.4.18,1.55-1.7,3.09-3.41,4.64-5.11,1.2,1.64,2.41,3.29,3.61,4.93.67.92,2.22.03,1.54-.9Z"/><path class="cls-27" d="m228.3,188.71h-42.48c.54-6.14,1.07-12.28,1.61-18.42.1-1.14-1.68-1.14-1.78,0-.56,6.44-1.13,12.88-1.69,19.31-.04.48.44.89.89.89h43.45c1.15,0,1.15-1.78,0-1.78Z"/><path class="cls-13" d="m228.3,188.71h-42.48c.54-6.14,1.07-12.28,1.61-18.42.1-1.14-1.68-1.14-1.78,0-.56,6.44-1.13,12.88-1.69,19.31-.04.48.44.89.89.89h43.45c1.15,0,1.15-1.78,0-1.78Z"/><polygon class="cls-28" points="274.56 162.53 198.74 162.53 200.43 143.18 276.26 143.18 274.56 162.53"/><polygon class="cls-11" points="274.56 162.53 198.74 162.53 200.43 143.18 276.26 143.18 274.56 162.53"/><path class="cls-26" d="m275.91,164h-78.78l1.95-22.29h78.78l-1.95,22.29Zm-75.57-2.95h72.88l1.43-16.4h-72.88l-1.43,16.4Z"/><path class="cls-27" d="m215.86,155.45l-.13,1.53h-6.39l.72-8.26h6.24l-.13,1.53h-4.34l-.16,1.79h3.83l-.13,1.49h-3.83l-.17,1.91h4.49Z"/><path class="cls-27" d="m222.37,156.98l-1.74-2.87-2.21,2.87h-2.19l3.42-4.2-2.55-4.06h2.17l1.66,2.68,2.1-2.68h2.06l-3.23,3.99,2.71,4.27h-2.21Z"/><path class="cls-27" d="m227.53,150.28h-2.64l.14-1.56h7.2l-.14,1.56h-2.64l-.59,6.7h-1.91l.59-6.7Z"/><path class="cls-27" d="m237.78,156.98l-1.39-2.3h-1.76l-.2,2.3h-1.91l.72-8.26h3.57c.73,0,1.36.12,1.87.37.52.24.9.59,1.15,1.04.25.45.35.98.3,1.59-.05.61-.25,1.14-.58,1.59-.33.44-.78.78-1.35,1.02l1.62,2.65h-2.05Zm.07-6.33c-.28-.25-.7-.37-1.28-.37h-1.56l-.25,2.88h1.56c.57,0,1.02-.13,1.34-.38.32-.25.5-.6.54-1.06.04-.46-.08-.82-.35-1.07Z"/><path class="cls-27" d="m246.78,155.22h-3.83l-.89,1.77h-1.96l4.4-8.26h1.89l2.97,8.26h-2.01l-.58-1.77Zm-.47-1.45l-1.03-3.16-1.59,3.16h2.62Z"/><path class="cls-27" d="m251.81,156.58c-.65-.37-1.14-.87-1.47-1.52-.33-.65-.46-1.38-.39-2.2.07-.82.33-1.55.78-2.2.45-.65,1.03-1.16,1.74-1.52s1.49-.55,2.34-.55c.72,0,1.35.13,1.91.38.56.25,1.01.61,1.36,1.09l-1.33,1.13c-.5-.64-1.17-.97-1.99-.97-.51,0-.98.11-1.4.34-.42.22-.76.54-1.02.94-.26.4-.41.86-.46,1.37-.04.51.03.97.22,1.37.19.4.47.71.86.94.38.22.83.34,1.34.34.83,0,1.55-.33,2.16-.98l1.13,1.13c-.44.48-.95.85-1.56,1.1-.6.25-1.26.38-1.98.38-.84,0-1.59-.18-2.23-.55Z"/><path class="cls-27" d="m260.97,150.28h-2.64l.14-1.56h7.2l-.14,1.56h-2.64l-.59,6.7h-1.91l.59-6.7Z"/><g class="cls-45"><rect class="cls-32" x="122.98" y="238.17" width="205.63" height="114.97"/></g><rect class="cls-27" x="107.79" y="238.17" width="19.18" height="114.97" transform="translate(234.77 591.31) rotate(180)"/><rect class="cls-22" x="107.79" y="238.17" width="19.18" height="114.97" transform="translate(234.77 591.31) rotate(180)"/><rect class="cls-32" x="103.77" y="238.17" width="210.56" height="10.17"/><rect class="cls-19" x="103.77" y="238.17" width="210.56" height="10.17"/><g class="cls-45"><rect class="cls-32" x="99.74" y="238.17" width="8.05" height="114.97"/><rect class="cls-15" x="99.74" y="238.17" width="8.05" height="114.97"/></g><rect class="cls-27" x="319.95" y="238.17" width="19.18" height="114.97" transform="translate(659.07 591.31) rotate(180)"/><rect class="cls-22" x="319.95" y="238.17" width="19.18" height="114.97" transform="translate(659.07 591.31) rotate(180)"/><rect class="cls-27" x="326.56" y="231.54" width="17.39" height="8.83" transform="translate(670.52 471.9) rotate(180)"/><rect class="cls-22" x="326.56" y="231.54" width="17.39" height="8.83" transform="translate(670.52 471.9) rotate(180)"/><rect class="cls-27" x="219.54" y="253.83" width="86.87" height="99.31"/><rect class="cls-13" x="219.54" y="253.83" width="86.87" height="99.31"/><g class="cls-43"><rect class="cls-32" x="306.41" y="253.83" width="5.49" height="99.31"/><rect class="cls-6" x="306.41" y="253.83" width="5.49" height="99.31"/></g><g class="cls-45"><rect class="cls-32" x="225.02" y="286.45" width="75.89" height="22.97"/><rect class="cls-32" x="225.02" y="259.24" width="75.89" height="22.97"/><rect class="cls-32" x="225.02" y="313.66" width="75.89" height="22.97"/><g class="cls-40"><rect class="cls-32" x="225.02" y="286.45" width="75.89" height="22.97"/><rect class="cls-32" x="225.02" y="259.24" width="75.89" height="22.97"/><rect class="cls-32" x="225.02" y="313.66" width="75.89" height="22.97"/></g></g><rect class="cls-28" x="311.9" y="238.17" width="8.05" height="114.97"/><rect class="cls-32" x="311.9" y="238.17" width="8.05" height="114.97"/><rect class="cls-28" x="93.13" y="231.54" width="233.43" height="8.83"/><rect class="cls-27" x="93.13" y="231.54" width="233.43" height="8.83"/><path class="cls-32" d="m263.19,268.23h-2.63c-1.38,0-2.5,1.12-2.5,2.5s1.12,2.5,2.5,2.5h2.63c1.38,0,2.5-1.12,2.5-2.5s-1.12-2.5-2.5-2.5Z"/><path class="cls-32" d="m263.19,295.44h-2.63c-1.38,0-2.5,1.12-2.5,2.5s1.12,2.5,2.5,2.5h2.63c1.38,0,2.5-1.12,2.5-2.5s-1.12-2.5-2.5-2.5Z"/><path class="cls-32" d="m263.19,322.65h-2.63c-1.38,0-2.5,1.12-2.5,2.5s1.12,2.5,2.5,2.5h2.63c1.38,0,2.5-1.12,2.5-2.5s-1.12-2.5-2.5-2.5Z"/><path class="cls-24" d="m263.05,270.73c0,1.38-1.12,2.5-2.5,2.5s-2.5-1.12-2.5-2.5,1.12-2.5,2.5-2.5,2.5,1.12,2.5,2.5Z"/><path class="cls-24" d="m263.05,297.94c0,1.38-1.12,2.5-2.5,2.5s-2.5-1.12-2.5-2.5,1.12-2.5,2.5-2.5,2.5,1.12,2.5,2.5Z"/><path class="cls-24" d="m263.05,325.15c0,1.38-1.12,2.5-2.5,2.5s-2.5-1.12-2.5-2.5,1.12-2.5,2.5-2.5,2.5,1.12,2.5,2.5Z"/><path class="cls-30" d="m175.56,130.95c-1.43,2.02,1.72,8.44,1.72,8.44l-14.19,1.72,2.78-15.47s11.38,2.93,9.69,5.31Z"/><path class="cls-39" d="m175.33,133.85c-.22-1.18-.23-2.26.22-2.89,1.05-1.48-2.95-3.17-6.13-4.24.75,1.5,2.87,5.31,5.9,7.13Z"/><polygon class="cls-30" points="209.75 342.32 211.26 356.76 204.6 358.01 200.6 344.08 209.75 342.32"/><path class="cls-26" d="m211.11,354.29l-7.83,1.57c-.3.06-.51.31-.52.62l-.14,6.65c-.02.59.45,1.08,1.04,1.1.08,0,.15,0,.23-.02,2.81-.61,5.29-1.27,8.81-1.97,4.15-.83,3.19-.12,8.08-1.03,2.95-.55,2.81-4,1.54-3.91-5.84.42-6.78-1.18-9.39-2.78-.56-.3-1.2-.38-1.81-.23Z"/><polygon class="cls-39" points="203.24 353.28 210.79 352.29 209.75 342.32 200.6 344.08 203.24 353.28"/><polygon class="cls-30" points="152.14 339.4 147.61 357.3 141.21 356.4 142.91 338.89 152.14 339.4"/><path class="cls-26" d="m148.45,355.05l-7.97-.56c-.3-.02-.58.17-.66.46l-1.9,6.38c-.17.56.15,1.16.71,1.33.07.02.15.04.22.04,2.87.15,5.44.17,9.01.43,4.22.3,3.11.73,8.07,1.15,2.99.25,3.77-3.11,2.52-3.36-5.75-1.14-6.23-2.93-8.32-5.17-.46-.43-1.06-.68-1.69-.7Z"/><path class="cls-39" d="m141.61,352.33l6.99,1.07,3.34-13.19c-3.06-.33-8.08-.83-9.06-.93l-1.27,13.05Z"/><path class="cls-27" d="m159.06,202.37s-2.2,6.4-2.53,21.97c-.19,9.31-1.1,24.04-1.8,34.39-.21,3.03-.39,5.68-.54,7.71-.19,2.58-.8,5.11-1.78,7.5-.68,1.66-1.54,3.93-2.42,6.77-1.4,4.51-2.87,10.45-3.83,17.61-2.33,17.45-5.01,51.25-5.01,51.25l8.64,1.12,21.25-78.77,22.65-69.62-34.64.06Z"/><path class="cls-39" d="m181.61,239.93l-.92-6.86-7.41-6.27-2.49-1.23s5.77,14.57,4.32,33.64l6.5-19.29Z"/><path class="cls-27" d="m200.48,202.69l10.39,146.3-8.8,1.5s-11.77-40.49-13.76-62.87c-.24-2.67-.34-5.09-.26-7.14.12-3.05-.33-6.09-1.19-9l-1.23-4.18-6.93-23.46c-1.46-4.92-3.72-9.58-6.86-13.55-3.6-4.55-8.06-13.36-6.21-28.02l32.55-2.25,2.3,2.68Z"/><path class="cls-26" d="m167.95,193.45s5.05-1.04,6.75-.88c1.42.13,5.41,1.78,5.41,1.78,1.69.55,2.16,2.72.86,3.92,0,0-2.78,3.56-4.16,3.85-2.77.59-10.71-3.66-10.71-3.66l1.86-5.01Z"/><polygon class="cls-26" points="167.7 191.03 164.89 200.08 167.58 200.31 170.05 192.4 167.7 191.03"/><polygon class="cls-5" points="167.7 191.03 164.89 200.08 167.58 200.31 170.05 192.4 167.7 191.03"/><path class="cls-26" d="m151.08,147.91c-1.29-1.76-4.04-1.4-4.97.58-3.15,6.74-11.1,24.61-11.13,33.28-.04,10.82,31.75,17.22,31.75,17.22l1.92-6.22-21.88-13.44,6.29-14.83s1.57-11.74-1.99-16.6Z"/><path class="cls-10" d="m151.08,147.91c-1.29-1.76-4.04-1.4-4.97.58-3.15,6.74-11.1,24.61-11.13,33.28-.04,10.82,31.75,17.22,31.75,17.22l1.92-6.22-21.88-13.44,6.29-14.83s1.57-11.74-1.99-16.6Z"/><g class="cls-42"><path class="cls-26" d="m151.73,148.99l-3.43.47-1.97,1.41,2.35,23.98,4.39-10.33s1.36-10.21-1.34-15.53Z"/><path class="cls-26" d="m158.35,186.45l-9.08-5.58,1.32,13.47c1.9.71,3.8,1.35,5.59,1.9l2.17-9.79Z"/></g><path class="cls-26" d="m200,202.61s-15.65,5.12-41.29.98l-12.29-51.79c-.92-3.87,1.03-7.91,4.51-9.83,5.28-2.91,15.71-5.66,36.3-4.52,5.08.28,9.37,3.88,10.54,8.83l2.22,56.34Z"/><path class="cls-26" d="m158.89,139.63l1.57-3.67s6.16-3.11,16.63-1.65l2.49,2.88s-11.72.28-20.68,2.44Z"/><path class="cls-26" d="m182.97,112.74c.14.58-.05,1.13-.44,1.22-.39.09-.85-.33-.98-.9-.12-.57.05-1.13.45-1.21.39-.08.83.32.97.9Z"/><path class="cls-31" d="m182.44,114.5l4,3.91s-1.28,1.44-3.61,1.14l-.39-5.05Z"/><path class="cls-30" d="m159.64,115.35c1.53,7.84,2.01,11.19,6.62,14.76,6.78,3.39,16.47,1.9,17.36-6.22.81-7.3-1.82-18.86-10.16-21.12-5.94-1.6-12.06,1.79-13.66,7.58-.45,1.63-.5,3.34-.16,4.99Z"/><path class="cls-26" d="m180.03,110.9c.11,0,.21-.05.27-.14.42-.67,1.15-1.1,1.95-1.14.17,0,.32-.13.32-.3,0-.17-.14-.32-.32-.32-1.02.03-1.95.56-2.49,1.41-.1.14-.06.34.09.44h0c.05.03.11.05.18.06Z"/><path class="cls-16" d="m199.48,177.09l-1.05-18.97-6.78-8.98-3.71-3.44-2.86,2s.4,10.45,14.4,29.38Z"/><path class="cls-28" d="m201.69,150.13c3.75,6.9,5.21,10.98,6.5,12.69.17.23.45.34.73.3l21.95-3.19c.38-.05.74.17.85.53l1.77,5.44c.13.41-.09.84-.49.98l-20.58,6.97c-3.73,1.45-7.96.72-10.96-1.92-5.67-4.99-10.02-10.54-13.99-18.37-1.58-3.12-5.25-8.9.78-13.98,5-4.22,10.94,5.97,13.44,10.55Z"/><path class="cls-26" d="m201.69,150.13c3.75,6.9,5.21,10.98,6.5,12.69.17.23.45.34.73.3l21.95-3.19c.38-.05.74.17.85.53l1.77,5.44c.13.41-.09.84-.49.98l-20.58,6.97c-3.73,1.45-7.96.72-10.96-1.92-5.67-4.99-10.02-10.54-13.99-18.37-1.58-3.12-5.25-8.9.78-13.98,5-4.22,10.94,5.97,13.44,10.55Z"/><path class="cls-30" d="m231.5,160.46l4.53-5.32c.49-.58,1.14-1,1.87-1.21l10.65-3.1c.36-.1.74.06.91.4h0c.21.41.02.9-.4,1.07l-4.4,1.8c-.31.13-.51.45-.48.79l.22,2.66c.13,1.63-.77,3.17-2.26,3.85l-3.2,1.46c-.12.05-.25.1-.37.15l-5.49,1.85c-.44.15-.91-.12-1.01-.56l-.72-3.15c-.06-.24,0-.49.17-.68Z"/><path class="cls-26" d="m230.19,159.91l2.71,6.84c.17.42.66.61,1.07.41l.9-.44c.37-.18.53-.61.38-.99l-2.59-6.56c-.13-.34-.48-.54-.84-.49l-1.03.16c-.5.08-.79.59-.61,1.06Z"/><g class="cls-44"><polygon class="cls-33" points="200.36 348.41 201.72 352.02 212.09 350.42 211.8 346.58 200.36 348.41"/><polygon class="cls-7" points="200.36 348.41 201.72 352.02 212.09 350.42 211.8 346.58 200.36 348.41"/></g><g class="cls-44"><polygon class="cls-33" points="140.23 346.95 140.07 350.75 150.47 352.14 151.27 348.37 140.23 346.95"/><polygon class="cls-7" points="140.23 346.95 140.07 350.75 150.47 352.14 151.27 348.37 140.23 346.95"/></g><path class="cls-26" d="m165,130.35s1.16-1.65,4.66.26c0,0,4.97-5.56,5.12-10.77,0,0,3.67-.68,3.36-3.05-.31-2.37-2.05-5.47-1.69-7.62.37-2.15,3.94-7.79.91-10.3-3.03-2.51-3.39.48-5.11.8-1.72.32-12.09.69-13.41,8.03,0,0-5.23,5.45-.69,12.47,4.54,7.01,6.84,10.18,6.84,10.18Z"/><path class="cls-27" d="m174.95,114.94l9.07-5.04s2.28,5.94,1.19,6.24c-1.09.3-2.53-4.36-2.53-4.36l-6.46,3.08-1.27.09Z"/><path class="cls-2" d="m182.91,111.93l.69-.41s1.87,4.2,1.36,4.57c-.51.37-2.05-4.16-2.05-4.16Z"/><path class="cls-30" d="m176.18,115.12c1.38.92,2.33,2.34,2.64,3.94.4,2.13-1.6,3-3.55,2.24-1.77-.68-4.08-2.61-3.59-4.67.49-2.06,2.8-2.62,4.5-1.51Z"/></svg>