<svg width="110" height="110" viewBox="0 0 110 110" fill="none" xmlns="http://www.w3.org/2000/svg">
<g clip-path="url(#clip0_205_4484)">
<path d="M68.2394 10.9551L73.0581 2.92335C73.6062 2.00863 73.3109 0.823742 72.3962 0.275681C71.4795 -0.274309 70.2966 0.0209487 69.7485 0.937599L64.6635 9.41324C61.6357 8.33642 58.3936 7.71888 55.0011 7.71888C51.6085 7.71888 48.3664 8.33642 45.3386 9.41324L40.2536 0.937599C39.7055 0.0209487 38.5206 -0.272379 37.6059 0.275681C36.6912 0.823742 36.3959 2.00863 36.944 2.92335L41.7627 10.9551C32.4476 15.77 26.0542 25.4768 26.0542 36.6677C26.0542 37.7348 26.9187 38.5975 27.984 38.5975H82.0181C83.0834 38.5975 83.9479 37.7348 83.9479 36.6677C83.946 25.4787 77.5545 15.7719 68.2394 10.9551ZM29.9871 34.7379C30.9752 21.8025 41.8167 11.5804 55.0011 11.5804C68.1854 11.5804 79.027 21.8025 80.015 34.7379H29.9871Z" fill="black"/>
<path d="M68.4651 21.9297H65.9216C65.2192 21.9297 64.6499 22.499 64.6499 23.2014V25.7449C64.6499 26.4473 65.2192 27.0166 65.9216 27.0166H68.467C69.1695 27.0166 69.7388 26.4473 69.7388 25.7449V23.2014C69.7388 22.499 69.1675 21.9297 68.4651 21.9297Z" fill="black"/>
<path d="M44.0784 21.9297H41.533C40.8305 21.9297 40.2612 22.499 40.2612 23.2014V25.7449C40.2612 26.4473 40.8305 27.0166 41.533 27.0166H44.0784C44.7808 27.0166 45.3501 26.4473 45.3501 25.7449V23.2014C45.3501 22.499 44.7808 21.9297 44.0784 21.9297Z" fill="black"/>
<path d="M82.0162 40.5273H27.982C26.9168 40.5273 26.0522 41.39 26.0522 42.4571V81.3829C26.0522 86.522 30.238 90.7019 35.3809 90.7019H37.631V102.292C37.631 106.542 41.093 110 45.3502 110C49.6073 110 53.0693 106.542 53.0693 102.292V90.7019H56.9289V102.292C56.9289 106.542 60.3909 110 64.6481 110C68.9052 110 72.3672 106.542 72.3672 102.292V90.7019H74.6174C79.7622 90.7019 83.946 86.522 83.946 81.3829V42.4571C83.946 41.39 83.0834 40.5273 82.0162 40.5273ZM80.0864 81.3829C80.0864 84.3934 77.6336 86.8423 74.6174 86.8423H70.4374C69.3722 86.8423 68.5076 87.7049 68.5076 88.7721V102.292C68.5076 104.415 66.7766 106.14 64.6481 106.14C62.5195 106.14 60.7885 104.413 60.7885 102.292V88.7721C60.7885 87.7049 59.9239 86.8423 58.8587 86.8423H51.1395C50.0743 86.8423 49.2097 87.7049 49.2097 88.7721V102.292C49.2097 104.415 47.4787 106.14 45.3502 106.14C43.2216 106.14 41.4906 104.413 41.4906 102.292V88.7721C41.4906 87.7049 40.626 86.8423 39.5608 86.8423H35.3828C32.3665 86.8423 29.9118 84.3915 29.9118 81.3829V44.3869H80.0864V81.3829Z" fill="black"/>
<path d="M92.6298 40.5273C88.9053 40.5273 85.8755 43.561 85.8755 47.2893V74.291C85.8755 78.0193 88.9053 81.053 92.6298 81.053C96.3543 81.053 99.384 78.0193 99.384 74.291V47.2893C99.384 43.561 96.3543 40.5273 92.6298 40.5273ZM95.5244 74.291C95.5244 75.8908 94.2257 77.1934 92.6298 77.1934C91.0338 77.1934 89.7351 75.8908 89.7351 74.291V47.2893C89.7351 45.6895 91.0338 44.3869 92.6298 44.3869C94.2257 44.3869 95.5244 45.6895 95.5244 47.2893V74.291Z" fill="black"/>
<path d="M17.368 40.5273C13.6435 40.5273 10.6138 43.561 10.6138 47.2893V74.291C10.6138 78.0193 13.6435 81.053 17.368 81.053C21.0925 81.053 24.1223 78.0193 24.1223 74.291V47.2893C24.1223 43.561 21.0925 40.5273 17.368 40.5273ZM20.2627 74.291C20.2627 75.8908 18.964 77.1934 17.368 77.1934C15.7721 77.1934 14.4734 75.8908 14.4734 74.291V47.2893C14.4734 45.6895 15.7721 44.3869 17.368 44.3869C18.964 44.3869 20.2627 45.6895 20.2627 47.2893V74.291Z" fill="black"/>
</g>
<defs>
<clipPath id="clip0_205_4484">
<rect width="110" height="110" rx="10" fill="white"/>
</clipPath>
</defs>
</svg>
