<svg xmlns="http://www.w3.org/2000/svg" xmlns:xlink="http://www.w3.org/1999/xlink" width="1466" zoomAndPan="magnify" viewBox="0 0 1099.5 292.499991" height="390" preserveAspectRatio="xMidYMid meet" version="1.0"><defs><g/><clipPath id="60a67583c4"><path d="M 0.6875 0 L 1098.3125 0 L 1098.3125 292 L 0.6875 292 Z M 0.6875 0 " clip-rule="nonzero"/></clipPath><clipPath id="f9deeccaf9"><path d="M 764 0 L 1014 0 L 1014 292 L 764 292 Z M 764 0 " clip-rule="nonzero"/></clipPath><clipPath id="c595a30c5e"><path d="M 764.367188 -29.875 L 792.875 -44.910156 L 1013.902344 374.238281 L 985.398438 389.273438 Z M 764.367188 -29.875 " clip-rule="nonzero"/></clipPath><clipPath id="1af1c9d46c"><path d="M 764.367188 -29.875 L 792.875 -44.910156 L 1013.863281 374.164062 L 985.359375 389.199219 Z M 764.367188 -29.875 " clip-rule="nonzero"/></clipPath><clipPath id="c9c60a41d6"><path d="M 793 0 L 1026 0 L 1026 292 L 793 292 Z M 793 0 " clip-rule="nonzero"/></clipPath><clipPath id="a5a642425e"><path d="M 793.066406 -60.585938 L 804.261719 -66.492188 L 1025.253906 352.582031 L 1014.058594 358.488281 Z M 793.066406 -60.585938 " clip-rule="nonzero"/></clipPath><clipPath id="3fd1248aa2"><path d="M 793.066406 -60.585938 L 804.261719 -66.492188 L 1025.253906 352.582031 L 1014.054688 358.488281 Z M 793.066406 -60.585938 " clip-rule="nonzero"/></clipPath></defs><g clip-path="url(#60a67583c4)"><path fill="#ffffff" d="M 0.6875 0 L 1098.3125 0 L 1098.3125 292 L 0.6875 292 Z M 0.6875 0 " fill-opacity="1" fill-rule="nonzero"/><path fill="#25678f" d="M 0.6875 0 L 1098.3125 0 L 1098.3125 292 L 0.6875 292 Z M 0.6875 0 " fill-opacity="1" fill-rule="nonzero"/></g><g fill="#ffffff" fill-opacity="1"><g transform="translate(185.255, 141.366005)"><g><path d="M 2.40625 0 L 8 0 C 8.78125 0 9.273438 -0.636719 9.417969 -1.34375 L 10.335938 -5.59375 L 20.816406 -5.59375 L 21.734375 -1.34375 C 21.878906 -0.636719 22.375 0 23.152344 0 L 28.746094 0 C 29.523438 0 30.160156 -0.636719 30.160156 -1.34375 L 20.957031 -42.410156 C 20.816406 -43.117188 20.320312 -43.753906 19.542969 -43.753906 L 11.613281 -43.753906 C 10.832031 -43.753906 10.335938 -43.117188 10.195312 -42.410156 L 0.992188 -1.34375 C 0.992188 -0.636719 1.628906 0 2.40625 0 Z M 12.035156 -12.601562 L 15.578125 -30.019531 L 19.117188 -12.601562 Z M 12.035156 -12.601562 "/></g></g></g><g fill="#ffffff" fill-opacity="1"><g transform="translate(216.40604, 141.366005)"><g><path d="M 4.601562 0 L 10.195312 0 C 10.972656 0 11.683594 -0.636719 11.683594 -1.34375 L 11.683594 -10.691406 L 15.789062 -10.691406 C 22.300781 -10.691406 28.605469 -15.222656 28.605469 -22.941406 L 28.605469 -31.363281 C 28.605469 -39.222656 22.300781 -43.753906 15.789062 -43.753906 L 4.601562 -43.753906 C 3.753906 -43.753906 3.117188 -43.117188 3.117188 -42.410156 L 3.117188 -1.34375 C 3.117188 -0.636719 3.753906 0 4.601562 0 Z M 11.683594 -17.699219 L 11.683594 -36.675781 L 15.648438 -36.675781 C 17.769531 -36.675781 20.179688 -34.835938 20.179688 -31.222656 L 20.179688 -23.222656 C 20.179688 -19.613281 17.769531 -17.699219 15.648438 -17.699219 Z M 11.683594 -17.699219 "/></g></g></g><g fill="#ffffff" fill-opacity="1"><g transform="translate(247.061494, 141.366005)"><g><path d="M 4.601562 0 L 10.195312 0 C 10.972656 0 11.683594 -0.636719 11.683594 -1.34375 L 11.683594 -10.691406 L 15.789062 -10.691406 C 22.300781 -10.691406 28.605469 -15.222656 28.605469 -22.941406 L 28.605469 -31.363281 C 28.605469 -39.222656 22.300781 -43.753906 15.789062 -43.753906 L 4.601562 -43.753906 C 3.753906 -43.753906 3.117188 -43.117188 3.117188 -42.410156 L 3.117188 -1.34375 C 3.117188 -0.636719 3.753906 0 4.601562 0 Z M 11.683594 -17.699219 L 11.683594 -36.675781 L 15.648438 -36.675781 C 17.769531 -36.675781 20.179688 -34.835938 20.179688 -31.222656 L 20.179688 -23.222656 C 20.179688 -19.613281 17.769531 -17.699219 15.648438 -17.699219 Z M 11.683594 -17.699219 "/></g></g></g><g fill="#ffffff" fill-opacity="1"><g transform="translate(277.716947, 141.366005)"><g><path d="M 4.53125 0 L 22.65625 0 C 23.363281 0 24 -0.636719 24 -1.417969 L 24 -5.664062 C 24 -6.441406 23.363281 -7.082031 22.65625 -7.082031 L 11.613281 -7.082031 L 11.613281 -42.410156 C 11.613281 -43.117188 10.972656 -43.753906 10.195312 -43.753906 L 4.53125 -43.753906 C 3.753906 -43.753906 3.117188 -43.117188 3.117188 -42.410156 L 3.117188 -1.34375 C 3.117188 -0.636719 3.753906 0 4.53125 0 Z M 4.53125 0 "/></g></g></g><g fill="#ffffff" fill-opacity="1"><g transform="translate(303.062569, 141.366005)"><g><path d="M 4.53125 0 L 10.195312 0 C 10.972656 0 11.613281 -0.636719 11.613281 -1.34375 L 11.613281 -42.410156 C 11.613281 -43.117188 10.972656 -43.753906 10.195312 -43.753906 L 4.53125 -43.753906 C 3.753906 -43.753906 3.117188 -43.117188 3.117188 -42.410156 L 3.117188 -1.34375 C 3.117188 -0.636719 3.753906 0 4.53125 0 Z M 4.53125 0 "/></g></g></g><g fill="#ffffff" fill-opacity="1"><g transform="translate(317.788515, 141.366005)"><g><path d="M 15.71875 0.425781 C 22.941406 0.425781 28.390625 -4.53125 28.746094 -11.1875 C 28.746094 -11.894531 28.109375 -12.601562 27.328125 -12.601562 L 21.664062 -12.601562 C 20.886719 -12.601562 20.25 -11.894531 20.25 -11.1875 C 20.109375 -7.929688 17.84375 -6.585938 15.71875 -6.585938 C 13.59375 -6.585938 11.257812 -7.859375 11.257812 -11.328125 L 11.257812 -32.425781 C 11.257812 -35.894531 13.59375 -37.171875 15.71875 -37.171875 C 17.914062 -37.171875 20.179688 -35.96875 20.25 -32.570312 C 20.25 -31.859375 20.886719 -31.152344 21.664062 -31.152344 L 27.328125 -31.152344 C 28.109375 -31.152344 28.746094 -31.859375 28.746094 -32.570312 C 28.460938 -39.292969 22.941406 -44.25 15.71875 -44.25 C 8.214844 -44.25 2.761719 -39.011719 2.761719 -32.003906 L 2.761719 -11.753906 C 2.761719 -4.742188 8.214844 0.425781 15.71875 0.425781 Z M 15.71875 0.425781 "/></g></g></g><g fill="#ffffff" fill-opacity="1"><g transform="translate(347.523604, 141.366005)"><g><path d="M 2.40625 0 L 8 0 C 8.78125 0 9.273438 -0.636719 9.417969 -1.34375 L 10.335938 -5.59375 L 20.816406 -5.59375 L 21.734375 -1.34375 C 21.878906 -0.636719 22.375 0 23.152344 0 L 28.746094 0 C 29.523438 0 30.160156 -0.636719 30.160156 -1.34375 L 20.957031 -42.410156 C 20.816406 -43.117188 20.320312 -43.753906 19.542969 -43.753906 L 11.613281 -43.753906 C 10.832031 -43.753906 10.335938 -43.117188 10.195312 -42.410156 L 0.992188 -1.34375 C 0.992188 -0.636719 1.628906 0 2.40625 0 Z M 12.035156 -12.601562 L 15.578125 -30.019531 L 19.117188 -12.601562 Z M 12.035156 -12.601562 "/></g></g></g><g fill="#ffffff" fill-opacity="1"><g transform="translate(378.674644, 141.366005)"><g><path d="M 9.699219 0 L 15.363281 0 C 16.144531 0 16.78125 -0.636719 16.78125 -1.34375 L 16.78125 -36.675781 L 22.726562 -36.675781 C 23.433594 -36.675781 24.074219 -37.3125 24.074219 -38.089844 L 24.074219 -42.339844 C 24.074219 -43.117188 23.433594 -43.753906 22.726562 -43.753906 L 2.335938 -43.753906 C 1.628906 -43.753906 0.992188 -43.117188 0.992188 -42.339844 L 0.992188 -38.089844 C 0.992188 -37.3125 1.628906 -36.675781 2.335938 -36.675781 L 8.285156 -36.675781 L 8.285156 -1.34375 C 8.285156 -0.636719 8.921875 0 9.699219 0 Z M 9.699219 0 "/></g></g></g><g fill="#ffffff" fill-opacity="1"><g transform="translate(403.737068, 141.366005)"><g><path d="M 4.53125 0 L 10.195312 0 C 10.972656 0 11.613281 -0.636719 11.613281 -1.34375 L 11.613281 -42.410156 C 11.613281 -43.117188 10.972656 -43.753906 10.195312 -43.753906 L 4.53125 -43.753906 C 3.753906 -43.753906 3.117188 -43.117188 3.117188 -42.410156 L 3.117188 -1.34375 C 3.117188 -0.636719 3.753906 0 4.53125 0 Z M 4.53125 0 "/></g></g></g><g fill="#ffffff" fill-opacity="1"><g transform="translate(418.463014, 141.366005)"><g><path d="M 15.789062 0.496094 C 23.363281 0.496094 28.816406 -4.742188 28.816406 -11.753906 L 28.816406 -32.003906 C 28.816406 -39.011719 23.363281 -44.25 15.789062 -44.25 C 8.214844 -44.25 2.761719 -39.011719 2.761719 -32.003906 L 2.761719 -11.753906 C 2.761719 -4.742188 8.214844 0.496094 15.789062 0.496094 Z M 15.789062 -6.585938 C 13.59375 -6.585938 11.257812 -7.859375 11.257812 -11.328125 L 11.257812 -32.425781 C 11.257812 -35.894531 13.59375 -37.171875 15.789062 -37.171875 C 17.984375 -37.171875 20.320312 -35.894531 20.320312 -32.425781 L 20.320312 -11.328125 C 20.320312 -7.859375 17.984375 -6.585938 15.789062 -6.585938 Z M 15.789062 -6.585938 "/></g></g></g><g fill="#ffffff" fill-opacity="1"><g transform="translate(450.038844, 141.366005)"><g><path d="M 4.53125 0 L 10.195312 0 C 10.972656 0 11.613281 -0.636719 11.613281 -1.34375 L 11.613281 -21.027344 L 20.886719 -1.0625 C 21.097656 -0.496094 21.59375 0 22.300781 0 L 27.328125 0 C 28.109375 0 28.746094 -0.636719 28.746094 -1.34375 L 28.746094 -42.410156 C 28.746094 -43.117188 28.109375 -43.753906 27.328125 -43.753906 L 21.664062 -43.753906 C 20.886719 -43.753906 20.25 -43.117188 20.25 -42.410156 L 20.25 -22.375 L 10.972656 -42.691406 C 10.761719 -43.257812 10.265625 -43.753906 9.558594 -43.753906 L 4.53125 -43.753906 C 3.753906 -43.753906 3.117188 -43.117188 3.117188 -42.410156 L 3.117188 -1.34375 C 3.117188 -0.636719 3.753906 0 4.53125 0 Z M 4.53125 0 "/></g></g></g><g fill="#ffffff" fill-opacity="1"><g transform="translate(481.897858, 141.366005)"><g/></g></g><g fill="#ffffff" fill-opacity="1"><g transform="translate(494.995453, 141.366005)"><g><path d="M 4.53125 0 L 16 0 C 23.433594 0 28.957031 -5.167969 28.957031 -12.25 L 28.957031 -31.4375 C 28.957031 -38.515625 23.433594 -43.753906 16 -43.753906 L 4.53125 -43.753906 C 3.753906 -43.753906 3.117188 -43.117188 3.117188 -42.410156 L 3.117188 -1.34375 C 3.117188 -0.636719 3.753906 0 4.53125 0 Z M 11.613281 -7.007812 L 11.613281 -36.675781 L 16 -36.675781 C 18.125 -36.675781 20.460938 -35.402344 20.460938 -31.929688 L 20.460938 -11.753906 C 20.460938 -8.285156 18.125 -7.007812 16 -7.007812 Z M 11.613281 -7.007812 "/></g></g></g><g fill="#ffffff" fill-opacity="1"><g transform="translate(526.358881, 141.366005)"><g><path d="M 4.53125 0 L 22.65625 0 C 23.363281 0 24 -0.636719 24 -1.417969 L 24 -5.664062 C 24 -6.441406 23.363281 -7.082031 22.65625 -7.082031 L 11.613281 -7.082031 L 11.613281 -17.0625 L 19.328125 -17.0625 C 20.035156 -17.0625 20.675781 -17.699219 20.675781 -18.480469 L 20.675781 -22.726562 C 20.675781 -23.507812 20.035156 -24.144531 19.328125 -24.144531 L 11.613281 -24.144531 L 11.613281 -36.675781 L 22.65625 -36.675781 C 23.363281 -36.675781 24 -37.3125 24 -38.089844 L 24 -42.339844 C 24 -43.117188 23.363281 -43.753906 22.65625 -43.753906 L 4.53125 -43.753906 C 3.753906 -43.753906 3.117188 -43.117188 3.117188 -42.410156 L 3.117188 -1.34375 C 3.117188 -0.636719 3.753906 0 4.53125 0 Z M 4.53125 0 "/></g></g></g><g fill="#ffffff" fill-opacity="1"><g transform="translate(552.766471, 141.366005)"><g><path d="M 11.613281 0 L 19.542969 0 C 20.320312 0 20.816406 -0.636719 20.957031 -1.34375 L 30.160156 -42.410156 C 30.160156 -43.117188 29.523438 -43.753906 28.746094 -43.753906 L 23.152344 -43.753906 C 22.375 -43.753906 21.878906 -43.117188 21.734375 -42.410156 L 15.578125 -14.371094 L 9.417969 -42.410156 C 9.273438 -43.117188 8.78125 -43.753906 8 -43.753906 L 2.40625 -43.753906 C 1.628906 -43.753906 0.992188 -43.117188 0.992188 -42.410156 L 10.195312 -1.34375 C 10.335938 -0.636719 10.832031 0 11.613281 0 Z M 11.613281 0 "/></g></g></g><g fill="#ffffff" fill-opacity="1"><g transform="translate(583.917524, 141.366005)"><g><path d="M 4.53125 0 L 22.65625 0 C 23.363281 0 24 -0.636719 24 -1.417969 L 24 -5.664062 C 24 -6.441406 23.363281 -7.082031 22.65625 -7.082031 L 11.613281 -7.082031 L 11.613281 -17.0625 L 19.328125 -17.0625 C 20.035156 -17.0625 20.675781 -17.699219 20.675781 -18.480469 L 20.675781 -22.726562 C 20.675781 -23.507812 20.035156 -24.144531 19.328125 -24.144531 L 11.613281 -24.144531 L 11.613281 -36.675781 L 22.65625 -36.675781 C 23.363281 -36.675781 24 -37.3125 24 -38.089844 L 24 -42.339844 C 24 -43.117188 23.363281 -43.753906 22.65625 -43.753906 L 4.53125 -43.753906 C 3.753906 -43.753906 3.117188 -43.117188 3.117188 -42.410156 L 3.117188 -1.34375 C 3.117188 -0.636719 3.753906 0 4.53125 0 Z M 4.53125 0 "/></g></g></g><g fill="#ffffff" fill-opacity="1"><g transform="translate(610.325114, 141.366005)"><g><path d="M 4.53125 0 L 22.65625 0 C 23.363281 0 24 -0.636719 24 -1.417969 L 24 -5.664062 C 24 -6.441406 23.363281 -7.082031 22.65625 -7.082031 L 11.613281 -7.082031 L 11.613281 -42.410156 C 11.613281 -43.117188 10.972656 -43.753906 10.195312 -43.753906 L 4.53125 -43.753906 C 3.753906 -43.753906 3.117188 -43.117188 3.117188 -42.410156 L 3.117188 -1.34375 C 3.117188 -0.636719 3.753906 0 4.53125 0 Z M 4.53125 0 "/></g></g></g><g fill="#ffffff" fill-opacity="1"><g transform="translate(635.670748, 141.366005)"><g><path d="M 15.789062 0.496094 C 23.363281 0.496094 28.816406 -4.742188 28.816406 -11.753906 L 28.816406 -32.003906 C 28.816406 -39.011719 23.363281 -44.25 15.789062 -44.25 C 8.214844 -44.25 2.761719 -39.011719 2.761719 -32.003906 L 2.761719 -11.753906 C 2.761719 -4.742188 8.214844 0.496094 15.789062 0.496094 Z M 15.789062 -6.585938 C 13.59375 -6.585938 11.257812 -7.859375 11.257812 -11.328125 L 11.257812 -32.425781 C 11.257812 -35.894531 13.59375 -37.171875 15.789062 -37.171875 C 17.984375 -37.171875 20.320312 -35.894531 20.320312 -32.425781 L 20.320312 -11.328125 C 20.320312 -7.859375 17.984375 -6.585938 15.789062 -6.585938 Z M 15.789062 -6.585938 "/></g></g></g><g fill="#ffffff" fill-opacity="1"><g transform="translate(667.246603, 141.366005)"><g><path d="M 4.601562 0 L 10.195312 0 C 10.972656 0 11.683594 -0.636719 11.683594 -1.34375 L 11.683594 -10.691406 L 15.789062 -10.691406 C 22.300781 -10.691406 28.605469 -15.222656 28.605469 -22.941406 L 28.605469 -31.363281 C 28.605469 -39.222656 22.300781 -43.753906 15.789062 -43.753906 L 4.601562 -43.753906 C 3.753906 -43.753906 3.117188 -43.117188 3.117188 -42.410156 L 3.117188 -1.34375 C 3.117188 -0.636719 3.753906 0 4.601562 0 Z M 11.683594 -17.699219 L 11.683594 -36.675781 L 15.648438 -36.675781 C 17.769531 -36.675781 20.179688 -34.835938 20.179688 -31.222656 L 20.179688 -23.222656 C 20.179688 -19.613281 17.769531 -17.699219 15.648438 -17.699219 Z M 11.683594 -17.699219 "/></g></g></g><g fill="#ffffff" fill-opacity="1"><g transform="translate(697.902068, 141.366005)"><g><path d="M 4.53125 0 L 10.195312 0 C 10.972656 0 11.613281 -0.636719 11.613281 -1.34375 L 11.613281 -24.640625 L 16.992188 -10.480469 C 17.132812 -10.125 17.488281 -9.699219 17.84375 -9.699219 L 20.53125 -9.699219 C 20.886719 -9.699219 21.242188 -10.125 21.382812 -10.480469 L 26.761719 -24.640625 L 26.761719 -1.34375 C 26.761719 -0.636719 27.398438 0 28.179688 0 L 33.84375 0 C 34.621094 0 35.257812 -0.636719 35.257812 -1.34375 L 35.257812 -42.410156 C 35.257812 -43.117188 34.621094 -43.753906 33.84375 -43.753906 L 27.046875 -43.753906 C 26.339844 -43.753906 25.84375 -43.257812 25.628906 -42.691406 L 19.1875 -25.0625 L 12.746094 -42.691406 C 12.53125 -43.257812 12.035156 -43.753906 11.328125 -43.753906 L 4.53125 -43.753906 C 3.753906 -43.753906 3.117188 -43.117188 3.117188 -42.410156 L 3.117188 -1.34375 C 3.117188 -0.636719 3.753906 0 4.53125 0 Z M 4.53125 0 "/></g></g></g><g fill="#ffffff" fill-opacity="1"><g transform="translate(736.274513, 141.366005)"><g><path d="M 4.53125 0 L 22.65625 0 C 23.363281 0 24 -0.636719 24 -1.417969 L 24 -5.664062 C 24 -6.441406 23.363281 -7.082031 22.65625 -7.082031 L 11.613281 -7.082031 L 11.613281 -17.0625 L 19.328125 -17.0625 C 20.035156 -17.0625 20.675781 -17.699219 20.675781 -18.480469 L 20.675781 -22.726562 C 20.675781 -23.507812 20.035156 -24.144531 19.328125 -24.144531 L 11.613281 -24.144531 L 11.613281 -36.675781 L 22.65625 -36.675781 C 23.363281 -36.675781 24 -37.3125 24 -38.089844 L 24 -42.339844 C 24 -43.117188 23.363281 -43.753906 22.65625 -43.753906 L 4.53125 -43.753906 C 3.753906 -43.753906 3.117188 -43.117188 3.117188 -42.410156 L 3.117188 -1.34375 C 3.117188 -0.636719 3.753906 0 4.53125 0 Z M 4.53125 0 "/></g></g></g><g fill="#ffffff" fill-opacity="1"><g transform="translate(762.682103, 141.366005)"><g><path d="M 4.53125 0 L 10.195312 0 C 10.972656 0 11.613281 -0.636719 11.613281 -1.34375 L 11.613281 -21.027344 L 20.886719 -1.0625 C 21.097656 -0.496094 21.59375 0 22.300781 0 L 27.328125 0 C 28.109375 0 28.746094 -0.636719 28.746094 -1.34375 L 28.746094 -42.410156 C 28.746094 -43.117188 28.109375 -43.753906 27.328125 -43.753906 L 21.664062 -43.753906 C 20.886719 -43.753906 20.25 -43.117188 20.25 -42.410156 L 20.25 -22.375 L 10.972656 -42.691406 C 10.761719 -43.257812 10.265625 -43.753906 9.558594 -43.753906 L 4.53125 -43.753906 C 3.753906 -43.753906 3.117188 -43.117188 3.117188 -42.410156 L 3.117188 -1.34375 C 3.117188 -0.636719 3.753906 0 4.53125 0 Z M 4.53125 0 "/></g></g></g><g fill="#ffffff" fill-opacity="1"><g transform="translate(794.541093, 141.366005)"><g><path d="M 9.699219 0 L 15.363281 0 C 16.144531 0 16.78125 -0.636719 16.78125 -1.34375 L 16.78125 -36.675781 L 22.726562 -36.675781 C 23.433594 -36.675781 24.074219 -37.3125 24.074219 -38.089844 L 24.074219 -42.339844 C 24.074219 -43.117188 23.433594 -43.753906 22.726562 -43.753906 L 2.335938 -43.753906 C 1.628906 -43.753906 0.992188 -43.117188 0.992188 -42.339844 L 0.992188 -38.089844 C 0.992188 -37.3125 1.628906 -36.675781 2.335938 -36.675781 L 8.285156 -36.675781 L 8.285156 -1.34375 C 8.285156 -0.636719 8.921875 0 9.699219 0 Z M 9.699219 0 "/></g></g></g><g clip-path="url(#f9deeccaf9)"><g clip-path="url(#c595a30c5e)"><g clip-path="url(#1af1c9d46c)"><path fill="#ffffff" d="M 764.367188 -29.875 L 792.875 -44.910156 L 1013.84375 374.128906 L 985.339844 389.160156 Z M 764.367188 -29.875 " fill-opacity="1" fill-rule="nonzero"/></g></g></g><g clip-path="url(#c9c60a41d6)"><g clip-path="url(#a5a642425e)"><g clip-path="url(#3fd1248aa2)"><path fill="#ffffff" d="M 793.066406 -60.585938 L 804.261719 -66.492188 L 1025.253906 352.582031 L 1014.058594 358.488281 Z M 793.066406 -60.585938 " fill-opacity="1" fill-rule="nonzero"/></g></g></g><g fill="#ffffff" fill-opacity="1"><g transform="translate(282.614655, 195.205232)"><g><path d="M 2.011719 0 L 7.109375 0 C 10.035156 0 12.835938 -2.140625 12.835938 -5.601562 L 12.835938 -5.820312 C 12.835938 -7.550781 11.578125 -9.785156 10.632812 -10.128906 C 11.796875 -10.824219 12.394531 -12.363281 12.394531 -13.621094 L 12.394531 -14.125 C 12.394531 -17.554688 9.59375 -19.441406 6.667969 -19.441406 L 2.011719 -19.441406 C 1.667969 -19.441406 1.382812 -19.160156 1.382812 -18.84375 L 1.382812 -0.628906 C 1.382812 -0.28125 1.667969 0 2.011719 0 Z M 5.160156 -11.390625 L 5.160156 -16.328125 L 6.636719 -16.328125 C 7.550781 -16.328125 8.621094 -15.636719 8.621094 -14 L 8.621094 -13.75 C 8.621094 -12.113281 7.550781 -11.390625 6.636719 -11.390625 Z M 5.160156 -3.144531 L 5.160156 -8.210938 L 7.078125 -8.210938 C 7.992188 -8.210938 9.0625 -7.332031 9.0625 -5.726562 C 9.0625 -4.121094 7.992188 -3.144531 7.078125 -3.144531 Z M 5.160156 -3.144531 "/></g></g></g><g fill="#ffffff" fill-opacity="1"><g transform="translate(296.36175, 195.205232)"><g><path d="M 7.171875 0.21875 C 10.539062 0.21875 12.960938 -2.109375 12.960938 -5.222656 L 12.960938 -18.84375 C 12.960938 -19.160156 12.679688 -19.441406 12.332031 -19.441406 L 9.816406 -19.441406 C 9.46875 -19.441406 9.1875 -19.160156 9.1875 -18.84375 L 9.1875 -5.035156 C 9.1875 -3.492188 8.148438 -2.925781 7.171875 -2.925781 C 6.199219 -2.925781 5.160156 -3.492188 5.160156 -5.035156 L 5.160156 -18.84375 C 5.160156 -19.160156 4.875 -19.441406 4.53125 -19.441406 L 2.011719 -19.441406 C 1.667969 -19.441406 1.382812 -19.160156 1.382812 -18.84375 L 1.382812 -5.222656 C 1.382812 -2.109375 3.808594 0.21875 7.171875 0.21875 Z M 7.171875 0.21875 "/></g></g></g><g fill="#ffffff" fill-opacity="1"><g transform="translate(310.706544, 195.205232)"><g><path d="M 2.011719 0 L 4.53125 0 C 4.875 0 5.160156 -0.28125 5.160156 -0.597656 L 5.160156 -18.84375 C 5.160156 -19.160156 4.875 -19.441406 4.53125 -19.441406 L 2.011719 -19.441406 C 1.667969 -19.441406 1.382812 -19.160156 1.382812 -18.84375 L 1.382812 -0.597656 C 1.382812 -0.28125 1.667969 0 2.011719 0 Z M 2.011719 0 "/></g></g></g><g fill="#ffffff" fill-opacity="1"><g transform="translate(317.24979, 195.205232)"><g><path d="M 2.011719 0 L 10.066406 0 C 10.382812 0 10.664062 -0.28125 10.664062 -0.628906 L 10.664062 -2.515625 C 10.664062 -2.863281 10.382812 -3.144531 10.066406 -3.144531 L 5.160156 -3.144531 L 5.160156 -18.84375 C 5.160156 -19.160156 4.875 -19.441406 4.53125 -19.441406 L 2.011719 -19.441406 C 1.667969 -19.441406 1.382812 -19.160156 1.382812 -18.84375 L 1.382812 -0.597656 C 1.382812 -0.28125 1.667969 0 2.011719 0 Z M 2.011719 0 "/></g></g></g><g fill="#ffffff" fill-opacity="1"><g transform="translate(328.511712, 195.205232)"><g><path d="M 2.011719 0 L 7.109375 0 C 10.414062 0 12.867188 -2.296875 12.867188 -5.441406 L 12.867188 -13.96875 C 12.867188 -17.113281 10.414062 -19.441406 7.109375 -19.441406 L 2.011719 -19.441406 C 1.667969 -19.441406 1.382812 -19.160156 1.382812 -18.84375 L 1.382812 -0.597656 C 1.382812 -0.28125 1.667969 0 2.011719 0 Z M 5.160156 -3.113281 L 5.160156 -16.296875 L 7.109375 -16.296875 C 8.054688 -16.296875 9.09375 -15.730469 9.09375 -14.1875 L 9.09375 -5.222656 C 9.09375 -3.679688 8.054688 -3.113281 7.109375 -3.113281 Z M 5.160156 -3.113281 "/></g></g></g><g fill="#ffffff" fill-opacity="1"><g transform="translate(342.447553, 195.205232)"><g><path d="M 2.011719 0 L 4.53125 0 C 4.875 0 5.160156 -0.28125 5.160156 -0.597656 L 5.160156 -18.84375 C 5.160156 -19.160156 4.875 -19.441406 4.53125 -19.441406 L 2.011719 -19.441406 C 1.667969 -19.441406 1.382812 -19.160156 1.382812 -18.84375 L 1.382812 -0.597656 C 1.382812 -0.28125 1.667969 0 2.011719 0 Z M 2.011719 0 "/></g></g></g><g fill="#ffffff" fill-opacity="1"><g transform="translate(348.990799, 195.205232)"><g><path d="M 2.011719 0 L 4.53125 0 C 4.875 0 5.160156 -0.28125 5.160156 -0.597656 L 5.160156 -9.34375 L 9.28125 -0.472656 C 9.375 -0.21875 9.59375 0 9.910156 0 L 12.144531 0 C 12.488281 0 12.773438 -0.28125 12.773438 -0.597656 L 12.773438 -18.84375 C 12.773438 -19.160156 12.488281 -19.441406 12.144531 -19.441406 L 9.628906 -19.441406 C 9.28125 -19.441406 8.996094 -19.160156 8.996094 -18.84375 L 8.996094 -9.941406 L 4.875 -18.972656 C 4.78125 -19.222656 4.5625 -19.441406 4.246094 -19.441406 L 2.011719 -19.441406 C 1.667969 -19.441406 1.382812 -19.160156 1.382812 -18.84375 L 1.382812 -0.597656 C 1.382812 -0.28125 1.667969 0 2.011719 0 Z M 2.011719 0 "/></g></g></g><g fill="#ffffff" fill-opacity="1"><g transform="translate(363.146848, 195.205232)"><g><path d="M 7.015625 0.21875 C 7.960938 0.21875 9.34375 -0.1875 10.257812 -1.132812 L 10.257812 -0.441406 C 10.257812 -0.25 10.476562 0 10.695312 0 L 12.300781 0 C 12.554688 0 12.773438 -0.25 12.773438 -0.441406 L 12.773438 -10.632812 C 12.742188 -10.695312 12.679688 -10.824219 12.585938 -10.824219 L 7.519531 -10.824219 C 7.394531 -10.824219 7.265625 -10.695312 7.265625 -10.601562 L 7.265625 -8.367188 C 7.300781 -8.242188 7.425781 -8.085938 7.519531 -8.085938 L 8.996094 -8.085938 L 8.996094 -5.035156 C 8.996094 -3.523438 7.960938 -2.925781 7.015625 -2.925781 C 6.039062 -2.925781 5.003906 -3.523438 5.003906 -5.035156 L 5.003906 -14.441406 C 5.003906 -15.949219 6.039062 -16.515625 7.015625 -16.515625 C 7.960938 -16.515625 8.996094 -15.949219 8.996094 -14.441406 L 8.996094 -13.875 C 8.996094 -13.558594 9.28125 -13.246094 9.628906 -13.246094 L 12.144531 -13.246094 C 12.488281 -13.246094 12.773438 -13.558594 12.773438 -13.875 L 12.773438 -14.21875 C 12.773438 -17.335938 10.320312 -19.664062 7.015625 -19.664062 C 3.617188 -19.664062 1.226562 -17.335938 1.226562 -14.21875 L 1.226562 -5.222656 C 1.226562 -2.109375 3.617188 0.21875 7.015625 0.21875 Z M 7.015625 0.21875 "/></g></g></g><g fill="#ffffff" fill-opacity="1"><g transform="translate(377.302897, 195.205232)"><g/></g></g><g fill="#ffffff" fill-opacity="1"><g transform="translate(383.122603, 195.205232)"><g><path d="M 2.011719 0 L 7.109375 0 C 10.035156 0 12.835938 -2.140625 12.835938 -5.601562 L 12.835938 -5.820312 C 12.835938 -7.550781 11.578125 -9.785156 10.632812 -10.128906 C 11.796875 -10.824219 12.394531 -12.363281 12.394531 -13.621094 L 12.394531 -14.125 C 12.394531 -17.554688 9.59375 -19.441406 6.667969 -19.441406 L 2.011719 -19.441406 C 1.667969 -19.441406 1.382812 -19.160156 1.382812 -18.84375 L 1.382812 -0.628906 C 1.382812 -0.28125 1.667969 0 2.011719 0 Z M 5.160156 -11.390625 L 5.160156 -16.328125 L 6.636719 -16.328125 C 7.550781 -16.328125 8.621094 -15.636719 8.621094 -14 L 8.621094 -13.75 C 8.621094 -12.113281 7.550781 -11.390625 6.636719 -11.390625 Z M 5.160156 -3.144531 L 5.160156 -8.210938 L 7.078125 -8.210938 C 7.992188 -8.210938 9.0625 -7.332031 9.0625 -5.726562 C 9.0625 -4.121094 7.992188 -3.144531 7.078125 -3.144531 Z M 5.160156 -3.144531 "/></g></g></g><g fill="#ffffff" fill-opacity="1"><g transform="translate(396.869699, 195.205232)"><g><path d="M 2.011719 0 L 4.53125 0 C 4.875 0 5.160156 -0.316406 5.160156 -0.597656 L 5.160156 -6.007812 L 7.203125 -6.007812 L 8.902344 -0.597656 C 9.03125 -0.316406 9.1875 0 9.5625 0 L 11.921875 0 C 12.269531 0 12.585938 -0.316406 12.585938 -0.597656 L 10.445312 -7.078125 C 11.765625 -7.992188 12.710938 -9.5 12.710938 -11.453125 L 12.710938 -13.9375 C 12.710938 -17.429688 9.910156 -19.441406 7.015625 -19.441406 L 2.011719 -19.441406 C 1.667969 -19.441406 1.382812 -19.160156 1.382812 -18.875 L 1.382812 -0.597656 C 1.382812 -0.316406 1.667969 0 2.011719 0 Z M 5.160156 -9.125 L 5.160156 -16.296875 L 6.953125 -16.296875 C 7.898438 -16.296875 8.964844 -15.480469 8.964844 -13.875 L 8.964844 -11.578125 C 8.964844 -9.972656 7.898438 -9.125 6.953125 -9.125 Z M 5.160156 -9.125 "/></g></g></g><g fill="#ffffff" fill-opacity="1"><g transform="translate(410.333671, 195.205232)"><g><path d="M 2.011719 0 L 4.53125 0 C 4.875 0 5.160156 -0.28125 5.160156 -0.597656 L 5.160156 -18.84375 C 5.160156 -19.160156 4.875 -19.441406 4.53125 -19.441406 L 2.011719 -19.441406 C 1.667969 -19.441406 1.382812 -19.160156 1.382812 -18.84375 L 1.382812 -0.597656 C 1.382812 -0.28125 1.667969 0 2.011719 0 Z M 2.011719 0 "/></g></g></g><g fill="#ffffff" fill-opacity="1"><g transform="translate(416.876917, 195.205232)"><g><path d="M 2.011719 0 L 7.109375 0 C 10.414062 0 12.867188 -2.296875 12.867188 -5.441406 L 12.867188 -13.96875 C 12.867188 -17.113281 10.414062 -19.441406 7.109375 -19.441406 L 2.011719 -19.441406 C 1.667969 -19.441406 1.382812 -19.160156 1.382812 -18.84375 L 1.382812 -0.597656 C 1.382812 -0.28125 1.667969 0 2.011719 0 Z M 5.160156 -3.113281 L 5.160156 -16.296875 L 7.109375 -16.296875 C 8.054688 -16.296875 9.09375 -15.730469 9.09375 -14.1875 L 9.09375 -5.222656 C 9.09375 -3.679688 8.054688 -3.113281 7.109375 -3.113281 Z M 5.160156 -3.113281 "/></g></g></g><g fill="#ffffff" fill-opacity="1"><g transform="translate(430.812758, 195.205232)"><g><path d="M 7.015625 0.21875 C 7.960938 0.21875 9.34375 -0.1875 10.257812 -1.132812 L 10.257812 -0.441406 C 10.257812 -0.25 10.476562 0 10.695312 0 L 12.300781 0 C 12.554688 0 12.773438 -0.25 12.773438 -0.441406 L 12.773438 -10.632812 C 12.742188 -10.695312 12.679688 -10.824219 12.585938 -10.824219 L 7.519531 -10.824219 C 7.394531 -10.824219 7.265625 -10.695312 7.265625 -10.601562 L 7.265625 -8.367188 C 7.300781 -8.242188 7.425781 -8.085938 7.519531 -8.085938 L 8.996094 -8.085938 L 8.996094 -5.035156 C 8.996094 -3.523438 7.960938 -2.925781 7.015625 -2.925781 C 6.039062 -2.925781 5.003906 -3.523438 5.003906 -5.035156 L 5.003906 -14.441406 C 5.003906 -15.949219 6.039062 -16.515625 7.015625 -16.515625 C 7.960938 -16.515625 8.996094 -15.949219 8.996094 -14.441406 L 8.996094 -13.875 C 8.996094 -13.558594 9.28125 -13.246094 9.628906 -13.246094 L 12.144531 -13.246094 C 12.488281 -13.246094 12.773438 -13.558594 12.773438 -13.875 L 12.773438 -14.21875 C 12.773438 -17.335938 10.320312 -19.664062 7.015625 -19.664062 C 3.617188 -19.664062 1.226562 -17.335938 1.226562 -14.21875 L 1.226562 -5.222656 C 1.226562 -2.109375 3.617188 0.21875 7.015625 0.21875 Z M 7.015625 0.21875 "/></g></g></g><g fill="#ffffff" fill-opacity="1"><g transform="translate(444.968807, 195.205232)"><g><path d="M 2.011719 0 L 10.066406 0 C 10.382812 0 10.664062 -0.28125 10.664062 -0.628906 L 10.664062 -2.515625 C 10.664062 -2.863281 10.382812 -3.144531 10.066406 -3.144531 L 5.160156 -3.144531 L 5.160156 -7.582031 L 8.589844 -7.582031 C 8.902344 -7.582031 9.1875 -7.867188 9.1875 -8.210938 L 9.1875 -10.097656 C 9.1875 -10.445312 8.902344 -10.726562 8.589844 -10.726562 L 5.160156 -10.726562 L 5.160156 -16.296875 L 10.066406 -16.296875 C 10.382812 -16.296875 10.664062 -16.578125 10.664062 -16.925781 L 10.664062 -18.8125 C 10.664062 -19.160156 10.382812 -19.441406 10.066406 -19.441406 L 2.011719 -19.441406 C 1.667969 -19.441406 1.382812 -19.160156 1.382812 -18.84375 L 1.382812 -0.597656 C 1.382812 -0.28125 1.667969 0 2.011719 0 Z M 2.011719 0 "/></g></g></g><g fill="#ffffff" fill-opacity="1"><g transform="translate(456.702597, 195.205232)"><g><path d="M 6.734375 0.21875 C 9.691406 0.21875 12.585938 -1.195312 12.585938 -5.285156 C 12.585938 -8.808594 10.128906 -10.003906 8.023438 -11.042969 C 6.261719 -11.921875 4.71875 -12.679688 4.71875 -14.503906 C 4.71875 -15.511719 5.066406 -16.515625 6.417969 -16.515625 C 7.769531 -16.515625 8.054688 -15.257812 8.179688 -14.285156 C 8.210938 -13.96875 8.464844 -13.6875 8.808594 -13.6875 L 11.324219 -13.6875 C 11.671875 -13.6875 11.988281 -13.96875 11.988281 -14.285156 C 11.859375 -16.078125 11.074219 -19.664062 6.480469 -19.664062 C 1.761719 -19.664062 0.945312 -16.675781 0.945312 -14.285156 C 0.945312 -10.664062 3.648438 -9.3125 5.945312 -8.179688 C 7.675781 -7.332031 8.808594 -6.574219 8.808594 -4.9375 C 8.808594 -4.65625 8.808594 -2.925781 6.890625 -2.925781 C 4.90625 -2.925781 4.71875 -4.277344 4.71875 -5.316406 C 4.6875 -5.632812 4.4375 -5.914062 4.089844 -5.914062 L 1.574219 -5.914062 C 1.226562 -5.914062 0.914062 -5.632812 0.914062 -5.316406 C 1.039062 -1.195312 3.996094 0.21875 6.734375 0.21875 Z M 6.734375 0.21875 "/></g></g></g><g fill="#ffffff" fill-opacity="1"><g transform="translate(469.883457, 195.205232)"><g/></g></g><g fill="#000000" fill-opacity="1"><g transform="translate(475.714244, 195.205232)"><g><path d="M 2.011719 0 L 4.53125 0 C 4.875 0 5.160156 -0.28125 5.160156 -0.597656 L 5.160156 -18.84375 C 5.160156 -19.160156 4.875 -19.441406 4.53125 -19.441406 L 2.011719 -19.441406 C 1.667969 -19.441406 1.382812 -19.160156 1.382812 -18.84375 L 1.382812 -0.597656 C 1.382812 -0.28125 1.667969 0 2.011719 0 Z M 2.011719 0 "/></g></g></g><g fill="#000000" fill-opacity="1"><g transform="translate(482.25749, 195.205232)"><g><path d="M 2.011719 0 L 4.53125 0 C 4.875 0 5.160156 -0.28125 5.160156 -0.597656 L 5.160156 -9.34375 L 9.28125 -0.472656 C 9.375 -0.21875 9.59375 0 9.910156 0 L 12.144531 0 C 12.488281 0 12.773438 -0.28125 12.773438 -0.597656 L 12.773438 -18.84375 C 12.773438 -19.160156 12.488281 -19.441406 12.144531 -19.441406 L 9.628906 -19.441406 C 9.28125 -19.441406 8.996094 -19.160156 8.996094 -18.84375 L 8.996094 -9.941406 L 4.875 -18.972656 C 4.78125 -19.222656 4.5625 -19.441406 4.246094 -19.441406 L 2.011719 -19.441406 C 1.667969 -19.441406 1.382812 -19.160156 1.382812 -18.84375 L 1.382812 -0.597656 C 1.382812 -0.28125 1.667969 0 2.011719 0 Z M 2.011719 0 "/></g></g></g><g fill="#000000" fill-opacity="1"><g transform="translate(496.413539, 195.205232)"><g/></g></g><g fill="#000000" fill-opacity="1"><g transform="translate(502.233245, 195.205232)"><g><path d="M 1.070312 0 L 3.554688 0 C 3.902344 0 4.121094 -0.28125 4.183594 -0.597656 L 4.59375 -2.484375 L 9.25 -2.484375 L 9.660156 -0.597656 C 9.722656 -0.28125 9.941406 0 10.289062 0 L 12.773438 0 C 13.121094 0 13.402344 -0.28125 13.402344 -0.597656 L 9.3125 -18.84375 C 9.25 -19.160156 9.03125 -19.441406 8.683594 -19.441406 L 5.160156 -19.441406 C 4.8125 -19.441406 4.59375 -19.160156 4.53125 -18.84375 L 0.441406 -0.597656 C 0.441406 -0.28125 0.722656 0 1.070312 0 Z M 5.347656 -5.601562 L 6.921875 -13.339844 L 8.496094 -5.601562 Z M 5.347656 -5.601562 "/></g></g></g><g fill="#000000" fill-opacity="1"><g transform="translate(516.074719, 195.205232)"><g/></g></g><g fill="#000000" fill-opacity="1"><g transform="translate(521.894425, 195.205232)"><g><path d="M 2.011719 0 L 7.109375 0 C 10.414062 0 12.867188 -2.296875 12.867188 -5.441406 L 12.867188 -13.96875 C 12.867188 -17.113281 10.414062 -19.441406 7.109375 -19.441406 L 2.011719 -19.441406 C 1.667969 -19.441406 1.382812 -19.160156 1.382812 -18.84375 L 1.382812 -0.597656 C 1.382812 -0.28125 1.667969 0 2.011719 0 Z M 5.160156 -3.113281 L 5.160156 -16.296875 L 7.109375 -16.296875 C 8.054688 -16.296875 9.09375 -15.730469 9.09375 -14.1875 L 9.09375 -5.222656 C 9.09375 -3.679688 8.054688 -3.113281 7.109375 -3.113281 Z M 5.160156 -3.113281 "/></g></g></g><g fill="#000000" fill-opacity="1"><g transform="translate(535.830266, 195.205232)"><g><path d="M 2.011719 0 L 4.53125 0 C 4.875 0 5.160156 -0.28125 5.160156 -0.597656 L 5.160156 -18.84375 C 5.160156 -19.160156 4.875 -19.441406 4.53125 -19.441406 L 2.011719 -19.441406 C 1.667969 -19.441406 1.382812 -19.160156 1.382812 -18.84375 L 1.382812 -0.597656 C 1.382812 -0.28125 1.667969 0 2.011719 0 Z M 2.011719 0 "/></g></g></g><g fill="#000000" fill-opacity="1"><g transform="translate(542.373512, 195.205232)"><g><path d="M 7.015625 0.21875 C 7.960938 0.21875 9.34375 -0.1875 10.257812 -1.132812 L 10.257812 -0.441406 C 10.257812 -0.25 10.476562 0 10.695312 0 L 12.300781 0 C 12.554688 0 12.773438 -0.25 12.773438 -0.441406 L 12.773438 -10.632812 C 12.742188 -10.695312 12.679688 -10.824219 12.585938 -10.824219 L 7.519531 -10.824219 C 7.394531 -10.824219 7.265625 -10.695312 7.265625 -10.601562 L 7.265625 -8.367188 C 7.300781 -8.242188 7.425781 -8.085938 7.519531 -8.085938 L 8.996094 -8.085938 L 8.996094 -5.035156 C 8.996094 -3.523438 7.960938 -2.925781 7.015625 -2.925781 C 6.039062 -2.925781 5.003906 -3.523438 5.003906 -5.035156 L 5.003906 -14.441406 C 5.003906 -15.949219 6.039062 -16.515625 7.015625 -16.515625 C 7.960938 -16.515625 8.996094 -15.949219 8.996094 -14.441406 L 8.996094 -13.875 C 8.996094 -13.558594 9.28125 -13.246094 9.628906 -13.246094 L 12.144531 -13.246094 C 12.488281 -13.246094 12.773438 -13.558594 12.773438 -13.875 L 12.773438 -14.21875 C 12.773438 -17.335938 10.320312 -19.664062 7.015625 -19.664062 C 3.617188 -19.664062 1.226562 -17.335938 1.226562 -14.21875 L 1.226562 -5.222656 C 1.226562 -2.109375 3.617188 0.21875 7.015625 0.21875 Z M 7.015625 0.21875 "/></g></g></g><g fill="#000000" fill-opacity="1"><g transform="translate(556.529561, 195.205232)"><g><path d="M 2.011719 0 L 4.53125 0 C 4.875 0 5.160156 -0.28125 5.160156 -0.597656 L 5.160156 -18.84375 C 5.160156 -19.160156 4.875 -19.441406 4.53125 -19.441406 L 2.011719 -19.441406 C 1.667969 -19.441406 1.382812 -19.160156 1.382812 -18.84375 L 1.382812 -0.597656 C 1.382812 -0.28125 1.667969 0 2.011719 0 Z M 2.011719 0 "/></g></g></g><g fill="#000000" fill-opacity="1"><g transform="translate(563.072808, 195.205232)"><g><path d="M 4.308594 0 L 6.828125 0 C 7.171875 0 7.457031 -0.28125 7.457031 -0.597656 L 7.457031 -16.296875 L 10.097656 -16.296875 C 10.414062 -16.296875 10.695312 -16.578125 10.695312 -16.925781 L 10.695312 -18.8125 C 10.695312 -19.160156 10.414062 -19.441406 10.097656 -19.441406 L 1.039062 -19.441406 C 0.722656 -19.441406 0.441406 -19.160156 0.441406 -18.8125 L 0.441406 -16.925781 C 0.441406 -16.578125 0.722656 -16.296875 1.039062 -16.296875 L 3.679688 -16.296875 L 3.679688 -0.597656 C 3.679688 -0.28125 3.964844 0 4.308594 0 Z M 4.308594 0 "/></g></g></g><g fill="#000000" fill-opacity="1"><g transform="translate(574.208899, 195.205232)"><g><path d="M 1.070312 0 L 3.554688 0 C 3.902344 0 4.121094 -0.28125 4.183594 -0.597656 L 4.59375 -2.484375 L 9.25 -2.484375 L 9.660156 -0.597656 C 9.722656 -0.28125 9.941406 0 10.289062 0 L 12.773438 0 C 13.121094 0 13.402344 -0.28125 13.402344 -0.597656 L 9.3125 -18.84375 C 9.25 -19.160156 9.03125 -19.441406 8.683594 -19.441406 L 5.160156 -19.441406 C 4.8125 -19.441406 4.59375 -19.160156 4.53125 -18.84375 L 0.441406 -0.597656 C 0.441406 -0.28125 0.722656 0 1.070312 0 Z M 5.347656 -5.601562 L 6.921875 -13.339844 L 8.496094 -5.601562 Z M 5.347656 -5.601562 "/></g></g></g><g fill="#000000" fill-opacity="1"><g transform="translate(588.050373, 195.205232)"><g><path d="M 2.011719 0 L 10.066406 0 C 10.382812 0 10.664062 -0.28125 10.664062 -0.628906 L 10.664062 -2.515625 C 10.664062 -2.863281 10.382812 -3.144531 10.066406 -3.144531 L 5.160156 -3.144531 L 5.160156 -18.84375 C 5.160156 -19.160156 4.875 -19.441406 4.53125 -19.441406 L 2.011719 -19.441406 C 1.667969 -19.441406 1.382812 -19.160156 1.382812 -18.84375 L 1.382812 -0.597656 C 1.382812 -0.28125 1.667969 0 2.011719 0 Z M 2.011719 0 "/></g></g></g><g fill="#000000" fill-opacity="1"><g transform="translate(599.312295, 195.205232)"><g/></g></g><g fill="#000000" fill-opacity="1"><g transform="translate(605.132001, 195.205232)"><g><path d="M 4.277344 0 L 7.109375 0 C 7.457031 -0.03125 7.644531 -0.316406 7.738281 -0.691406 L 9.28125 -8.117188 L 10.824219 -0.691406 C 10.917969 -0.316406 11.105469 -0.03125 11.453125 0 L 14.285156 0 C 14.597656 -0.03125 14.816406 -0.316406 14.914062 -0.691406 L 18.277344 -18.875 C 18.277344 -19.191406 17.996094 -19.472656 17.648438 -19.472656 L 15.132812 -19.472656 C 14.785156 -19.472656 14.566406 -19.191406 14.503906 -18.875 L 12.742188 -7.707031 L 10.726562 -18.84375 C 10.664062 -19.222656 10.414062 -19.441406 10.097656 -19.441406 L 8.464844 -19.441406 C 8.148438 -19.441406 7.898438 -19.222656 7.832031 -18.84375 L 5.820312 -7.707031 L 4.058594 -18.875 C 3.996094 -19.191406 3.773438 -19.472656 3.429688 -19.472656 L 0.914062 -19.472656 C 0.566406 -19.472656 0.28125 -19.191406 0.28125 -18.875 L 3.648438 -0.691406 C 3.742188 -0.316406 3.964844 -0.03125 4.277344 0 Z M 4.277344 0 "/></g></g></g><g fill="#000000" fill-opacity="1"><g transform="translate(623.692149, 195.205232)"><g><path d="M 7.015625 0.21875 C 10.382812 0.21875 12.804688 -2.109375 12.804688 -5.222656 L 12.804688 -14.21875 C 12.804688 -17.335938 10.382812 -19.664062 7.015625 -19.664062 C 3.648438 -19.664062 1.226562 -17.335938 1.226562 -14.21875 L 1.226562 -5.222656 C 1.226562 -2.109375 3.648438 0.21875 7.015625 0.21875 Z M 7.015625 -2.925781 C 6.039062 -2.925781 5.003906 -3.492188 5.003906 -5.035156 L 5.003906 -14.410156 C 5.003906 -15.949219 6.039062 -16.515625 7.015625 -16.515625 C 7.992188 -16.515625 9.03125 -15.949219 9.03125 -14.410156 L 9.03125 -5.035156 C 9.03125 -3.492188 7.992188 -2.925781 7.015625 -2.925781 Z M 7.015625 -2.925781 "/></g></g></g><g fill="#000000" fill-opacity="1"><g transform="translate(637.722368, 195.205232)"><g><path d="M 2.011719 0 L 4.53125 0 C 4.875 0 5.160156 -0.316406 5.160156 -0.597656 L 5.160156 -6.007812 L 7.203125 -6.007812 L 8.902344 -0.597656 C 9.03125 -0.316406 9.1875 0 9.5625 0 L 11.921875 0 C 12.269531 0 12.585938 -0.316406 12.585938 -0.597656 L 10.445312 -7.078125 C 11.765625 -7.992188 12.710938 -9.5 12.710938 -11.453125 L 12.710938 -13.9375 C 12.710938 -17.429688 9.910156 -19.441406 7.015625 -19.441406 L 2.011719 -19.441406 C 1.667969 -19.441406 1.382812 -19.160156 1.382812 -18.875 L 1.382812 -0.597656 C 1.382812 -0.316406 1.667969 0 2.011719 0 Z M 5.160156 -9.125 L 5.160156 -16.296875 L 6.953125 -16.296875 C 7.898438 -16.296875 8.964844 -15.480469 8.964844 -13.875 L 8.964844 -11.578125 C 8.964844 -9.972656 7.898438 -9.125 6.953125 -9.125 Z M 5.160156 -9.125 "/></g></g></g><g fill="#000000" fill-opacity="1"><g transform="translate(651.18634, 195.205232)"><g><path d="M 2.011719 0 L 10.066406 0 C 10.382812 0 10.664062 -0.28125 10.664062 -0.628906 L 10.664062 -2.515625 C 10.664062 -2.863281 10.382812 -3.144531 10.066406 -3.144531 L 5.160156 -3.144531 L 5.160156 -18.84375 C 5.160156 -19.160156 4.875 -19.441406 4.53125 -19.441406 L 2.011719 -19.441406 C 1.667969 -19.441406 1.382812 -19.160156 1.382812 -18.84375 L 1.382812 -0.597656 C 1.382812 -0.28125 1.667969 0 2.011719 0 Z M 2.011719 0 "/></g></g></g><g fill="#000000" fill-opacity="1"><g transform="translate(662.448261, 195.205232)"><g><path d="M 2.011719 0 L 7.109375 0 C 10.414062 0 12.867188 -2.296875 12.867188 -5.441406 L 12.867188 -13.96875 C 12.867188 -17.113281 10.414062 -19.441406 7.109375 -19.441406 L 2.011719 -19.441406 C 1.667969 -19.441406 1.382812 -19.160156 1.382812 -18.84375 L 1.382812 -0.597656 C 1.382812 -0.28125 1.667969 0 2.011719 0 Z M 5.160156 -3.113281 L 5.160156 -16.296875 L 7.109375 -16.296875 C 8.054688 -16.296875 9.09375 -15.730469 9.09375 -14.1875 L 9.09375 -5.222656 C 9.09375 -3.679688 8.054688 -3.113281 7.109375 -3.113281 Z M 5.160156 -3.113281 "/></g></g></g></svg>