<?xml version="1.0" encoding="UTF-8"?><svg id="Data_Points" xmlns="http://www.w3.org/2000/svg" viewBox="0 0 417.88 362.41"><defs><style>.cls-1,.cls-2,.cls-3,.cls-4,.cls-5,.cls-6,.cls-7,.cls-8,.cls-9,.cls-10,.cls-11,.cls-12,.cls-13,.cls-14,.cls-15,.cls-16,.cls-17,.cls-18,.cls-19,.cls-20,.cls-21,.cls-22,.cls-23,.cls-24,.cls-25,.cls-26,.cls-27,.cls-28{stroke-width:0px;}.cls-1,.cls-2,.cls-4,.cls-8,.cls-10,.cls-12,.cls-13,.cls-15,.cls-23{fill:#fff;}.cls-1,.cls-3,.cls-5,.cls-6,.cls-7,.cls-11,.cls-29,.cls-30{isolation:isolate;}.cls-1,.cls-9{opacity:.1;}.cls-2{opacity:.75;}.cls-3,.cls-5,.cls-13,.cls-30{opacity:.6;}.cls-3,.cls-6,.cls-9,.cls-17{fill:#43688c;}.cls-4{opacity:.7;}.cls-5,.cls-21{fill:#64a2d0;}.cls-6,.cls-7,.cls-11,.cls-29{opacity:.2;}.cls-7,.cls-18{fill:#407bff;}.cls-8{opacity:.4;}.cls-31{fill:#424242;}.cls-31,.cls-32,.cls-33{font-family:Bebas, Bebas;font-size:7px;glyph-orientation-vertical:0deg;text-orientation:upright;writing-mode:tb;}.cls-10{opacity:.9;}.cls-12{opacity:.5;}.cls-34{stroke-width:.5px;}.cls-34,.cls-35{stroke:#263238;stroke-linecap:round;stroke-linejoin:round;}.cls-34,.cls-35,.cls-32{fill:none;}.cls-35{stroke-width:.69px;}.cls-14,.cls-15{opacity:.3;}.cls-14,.cls-28{fill:#f5f5f5;}.cls-32{stroke:#fff;stroke-miterlimit:10;}.cls-16{fill:#263238;}.cls-19{fill:#e0e0e0;}.cls-20{fill:#d4827d;}.cls-22{fill:#e4897b;}.cls-24{fill:#eec1bb;}.cls-25{fill:#fafafa;}.cls-26{fill:#f0f0f0;}.cls-27{fill:#e6e6e6;}.cls-33{fill:#969696;}</style></defs><text class="cls-33" transform="translate(105.83 49.43)"><tspan x="0" y="0">110011001101010101001100</tspan></text><text class="cls-31" transform="translate(105.83 49.43)"><tspan x="0" y="0">110011001101010101001100</tspan></text><text class="cls-32" transform="translate(105.83 49.43)"><tspan x="0" y="0">110011001101010101001100</tspan></text><text class="cls-33" transform="translate(111.01 50.07)"><tspan x="0" y="0">000101011111000000110101</tspan></text><text class="cls-31" transform="translate(111.01 50.07)"><tspan x="0" y="0">000101011111000000110101</tspan></text><text class="cls-32" transform="translate(111.01 50.07)"><tspan x="0" y="0">000101011111000000110101</tspan></text><text class="cls-33" transform="translate(117.1 50.07)"><tspan x="0" y="0">110011001101010101001100</tspan></text><text class="cls-31" transform="translate(117.1 50.07)"><tspan x="0" y="0">110011001101010101001100</tspan></text><text class="cls-32" transform="translate(117.1 50.07)"><tspan x="0" y="0">110011001101010101001100</tspan></text><path class="cls-26" d="m246.76,113.22c0-3.11-2.52-5.63-5.63-5.63-.56,0-1.1.08-1.62.24.08-.56.13-1.14.13-1.73,0-6.58-5.34-11.92-11.92-11.92-.75,0-1.48.07-2.2.21-1.83-3-5.13-5.01-8.9-5.01-5.71,0-10.34,4.59-10.42,10.27-.06,0-.11,0-.17,0-5.3,0-9.6,4.3-9.6,9.6s4.3,9.6,9.6,9.6h35.27,0c3.04-.09,5.47-2.57,5.47-5.63Z"/><path class="cls-26" d="m371.26,58.4c0-1.9-1.54-3.45-3.45-3.45-.34,0-.68.05-.99.15.05-.35.08-.7.08-1.06,0-4.03-3.27-7.3-7.3-7.3-.46,0-.91.04-1.35.13-1.12-1.84-3.14-3.07-5.45-3.07-3.5,0-6.33,2.81-6.39,6.29-.04,0-.07,0-.11,0-3.25,0-5.88,2.63-5.88,5.88s2.63,5.88,5.88,5.88h21.6,0c1.86-.06,3.35-1.58,3.35-3.45Z"/><text class="cls-33" transform="translate(123.76 49.83)"><tspan x="0" y="0">000101011111000000110101</tspan></text><text class="cls-31" transform="translate(123.76 49.83)"><tspan x="0" y="0">000101011111000000110101</tspan></text><text class="cls-32" transform="translate(123.76 49.83)"><tspan x="0" y="0">000101011111000000110101</tspan></text><text class="cls-33" transform="translate(130.15 50.66)"><tspan x="0" y="0">110011001101010101001100</tspan></text><text class="cls-31" transform="translate(130.15 50.66)"><tspan x="0" y="0">110011001101010101001100</tspan></text><text class="cls-32" transform="translate(130.15 50.66)"><tspan x="0" y="0">110011001101010101001100</tspan></text><rect class="cls-28" x="7.26" y="173.5" width="226.51" height="144.08"/><rect class="cls-19" x="7.26" y="173.5" width="226.51" height="9.76"/><path class="cls-25" d="m230.4,178.39c0,1.62-1.32,2.94-2.94,2.94s-2.94-1.32-2.94-2.94,1.32-2.94,2.94-2.94,2.94,1.32,2.94,2.94Z"/><path class="cls-25" d="m220.63,178.39c0,1.62-1.32,2.94-2.94,2.94s-2.94-1.32-2.94-2.94,1.32-2.94,2.94-2.94,2.94,1.32,2.94,2.94Z"/><path class="cls-25" d="m210.86,178.39c0,1.62-1.32,2.94-2.94,2.94s-2.94-1.32-2.94-2.94,1.32-2.94,2.94-2.94,2.94,1.32,2.94,2.94Z"/><path class="cls-19" d="m48.22,200.19l-1.39-1.94c-.51-.71-1.33-1.14-2.17-1.14h-9.83c-.85,0-1.61.43-2.04,1.14l-1.17,1.94c-.43.71-1.19,1.14-2.04,1.14h-5.86c-1.4,0-2.47,1.14-2.38,2.55l1.9,32.81c.08,1.41,1.28,2.55,2.68,2.55h46.47c1.4,0,2.47-1.14,2.38-2.55l-1.9-32.81c-.08-1.41-1.28-2.55-2.68-2.55h-19.79c-.85,0-1.66-.43-2.17-1.14Z"/><path class="cls-27" d="m74.83,204.46h-42.57c-1.77,0-3.34,1.43-3.5,3.19l-2.56,28.41c-.16,1.76,1.15,3.19,2.93,3.19h42.57c1.77,0,3.34-1.43,3.5-3.19l2.56-28.41c.16-1.76-1.15-3.19-2.93-3.19Z"/><path class="cls-19" d="m119.12,200.19l-1.39-1.94c-.51-.71-1.33-1.14-2.17-1.14h-9.83c-.85,0-1.61.43-2.04,1.14l-1.17,1.94c-.43.71-1.19,1.14-2.04,1.14h-5.86c-1.4,0-2.47,1.14-2.38,2.55l1.9,32.81c.08,1.41,1.28,2.55,2.68,2.55h46.47c1.4,0,2.47-1.14,2.38-2.55l-1.9-32.81c-.08-1.41-1.28-2.55-2.68-2.55h-19.79c-.85,0-1.66-.43-2.17-1.14Z"/><path class="cls-27" d="m145.72,204.46h-42.57c-1.77,0-3.34,1.43-3.5,3.19l-2.56,28.41c-.16,1.76,1.15,3.19,2.93,3.19h42.57c1.77,0,3.34-1.43,3.5-3.19l2.56-28.41c.16-1.76-1.15-3.19-2.93-3.19Z"/><path class="cls-19" d="m190.01,200.19l-1.39-1.94c-.51-.71-1.33-1.14-2.17-1.14h-9.83c-.85,0-1.61.43-2.04,1.14l-1.17,1.94c-.43.71-1.19,1.14-2.04,1.14h-5.86c-1.4,0-2.47,1.14-2.38,2.55l1.9,32.81c.08,1.41,1.28,2.55,2.68,2.55h46.47c1.4,0,2.47-1.14,2.38-2.55l-1.9-32.81c-.08-1.41-1.28-2.55-2.68-2.55h-19.79c-.85,0-1.66-.43-2.17-1.14Z"/><path class="cls-27" d="m216.61,204.46h-42.57c-1.77,0-3.34,1.43-3.5,3.19l-2.56,28.41c-.16,1.76,1.15,3.19,2.93,3.19h42.57c1.77,0,3.34-1.43,3.5-3.19l2.56-28.41c.16-1.76-1.15-3.19-2.93-3.19Z"/><path class="cls-19" d="m48.22,260.23l-1.39-1.94c-.51-.71-1.33-1.14-2.17-1.14h-9.83c-.85,0-1.61.43-2.04,1.14l-1.17,1.94c-.43.71-1.19,1.14-2.04,1.14h-5.86c-1.4,0-2.47,1.14-2.38,2.55l1.9,32.81c.08,1.41,1.28,2.55,2.68,2.55h46.47c1.4,0,2.47-1.14,2.38-2.55l-1.9-32.81c-.08-1.41-1.28-2.55-2.68-2.55h-19.79c-.85,0-1.66-.43-2.17-1.14Z"/><path class="cls-27" d="m74.83,264.49h-42.57c-1.77,0-3.34,1.43-3.5,3.19l-2.56,28.41c-.16,1.76,1.15,3.19,2.93,3.19h42.57c1.77,0,3.34-1.43,3.5-3.19l2.56-28.41c.16-1.76-1.15-3.19-2.93-3.19Z"/><path class="cls-19" d="m119.12,260.23l-1.39-1.94c-.51-.71-1.33-1.14-2.17-1.14h-9.83c-.85,0-1.61.43-2.04,1.14l-1.17,1.94c-.43.71-1.19,1.14-2.04,1.14h-5.86c-1.4,0-2.47,1.14-2.38,2.55l1.9,32.81c.08,1.41,1.28,2.55,2.68,2.55h46.47c1.4,0,2.47-1.14,2.38-2.55l-1.9-32.81c-.08-1.41-1.28-2.55-2.68-2.55h-19.79c-.85,0-1.66-.43-2.17-1.14Z"/><path class="cls-27" d="m145.72,264.49h-42.57c-1.77,0-3.34,1.43-3.5,3.19l-2.56,28.41c-.16,1.76,1.15,3.19,2.93,3.19h42.57c1.77,0,3.34-1.43,3.5-3.19l2.56-28.41c.16-1.76-1.15-3.19-2.93-3.19Z"/><path class="cls-19" d="m190.01,260.23l-1.39-1.94c-.51-.71-1.33-1.14-2.17-1.14h-9.83c-.85,0-1.61.43-2.04,1.14l-1.17,1.94c-.43.71-1.19,1.14-2.04,1.14h-5.86c-1.4,0-2.47,1.14-2.38,2.55l1.9,32.81c.08,1.41,1.28,2.55,2.68,2.55h46.47c1.4,0,2.47-1.14,2.38-2.55l-1.9-32.81c-.08-1.41-1.28-2.55-2.68-2.55h-19.79c-.85,0-1.66-.43-2.17-1.14Z"/><path class="cls-27" d="m216.61,264.49h-42.57c-1.77,0-3.34,1.43-3.5,3.19l-2.56,28.41c-.16,1.76,1.15,3.19,2.93,3.19h42.57c1.77,0,3.34-1.43,3.5-3.19l2.56-28.41c.16-1.76-1.15-3.19-2.93-3.19Z"/><rect class="cls-27" x="336.12" y="294.01" width="78.33" height="23" rx="2.67" ry="2.67"/><path class="cls-28" d="m406.72,305.51c0,2.67-2.16,4.83-4.83,4.83s-4.83-2.16-4.83-4.83,2.16-4.83,4.83-4.83,4.83,2.16,4.83,4.83Z"/><path class="cls-27" d="m404.35,305.51c0,1.36-1.1,2.46-2.46,2.46s-2.46-1.1-2.46-2.46,1.1-2.46,2.46-2.46,2.46,1.1,2.46,2.46Z"/><rect class="cls-28" x="386.04" y="302.76" width="5.5" height="5.5"/><rect class="cls-27" x="336.12" y="270.01" width="78.33" height="23" rx="2.67" ry="2.67"/><path class="cls-28" d="m406.72,281.51c0,2.67-2.16,4.83-4.83,4.83s-4.83-2.16-4.83-4.83,2.16-4.83,4.83-4.83,4.83,2.16,4.83,4.83Z"/><path class="cls-27" d="m404.35,281.51c0,1.36-1.1,2.46-2.46,2.46s-2.46-1.1-2.46-2.46,1.1-2.46,2.46-2.46,2.46,1.1,2.46,2.46Z"/><rect class="cls-28" x="386.04" y="278.76" width="5.5" height="5.5"/><rect class="cls-27" x="336.12" y="246.01" width="78.33" height="23" rx="2.67" ry="2.67"/><path class="cls-28" d="m406.72,257.51c0,2.67-2.16,4.83-4.83,4.83s-4.83-2.16-4.83-4.83,2.16-4.83,4.83-4.83,4.83,2.16,4.83,4.83Z"/><path class="cls-27" d="m404.35,257.51c0,1.36-1.1,2.46-2.46,2.46s-2.46-1.1-2.46-2.46,1.1-2.46,2.46-2.46,2.46,1.1,2.46,2.46Z"/><rect class="cls-28" x="386.04" y="254.76" width="5.5" height="5.5"/><rect class="cls-27" x="336.12" y="222.01" width="78.33" height="23" rx="2.67" ry="2.67"/><path class="cls-28" d="m406.72,233.51c0,2.67-2.16,4.83-4.83,4.83s-4.83-2.16-4.83-4.83,2.16-4.83,4.83-4.83,4.83,2.16,4.83,4.83Z"/><path class="cls-27" d="m404.35,233.51c0,1.36-1.1,2.46-2.46,2.46s-2.46-1.1-2.46-2.46,1.1-2.46,2.46-2.46,2.46,1.1,2.46,2.46Z"/><rect class="cls-28" x="386.04" y="230.76" width="5.5" height="5.5"/><rect class="cls-27" x="336.12" y="198.01" width="78.33" height="23" rx="2.67" ry="2.67"/><path class="cls-28" d="m406.72,209.51c0,2.67-2.16,4.83-4.83,4.83s-4.83-2.16-4.83-4.83,2.16-4.83,4.83-4.83,4.83,2.16,4.83,4.83Z"/><path class="cls-27" d="m404.35,209.51c0,1.36-1.1,2.46-2.46,2.46s-2.46-1.1-2.46-2.46,1.1-2.46,2.46-2.46,2.46,1.1,2.46,2.46Z"/><rect class="cls-28" x="386.04" y="206.76" width="5.5" height="5.5"/><rect class="cls-27" x="336.12" y="174.01" width="78.33" height="23" rx="2.67" ry="2.67"/><path class="cls-28" d="m406.72,185.51c0,2.67-2.16,4.83-4.83,4.83s-4.83-2.16-4.83-4.83,2.16-4.83,4.83-4.83,4.83,2.16,4.83,4.83Z"/><path class="cls-27" d="m404.35,185.51c0,1.36-1.1,2.46-2.46,2.46s-2.46-1.1-2.46-2.46,1.1-2.46,2.46-2.46,2.46,1.1,2.46,2.46Z"/><rect class="cls-28" x="386.04" y="182.76" width="5.5" height="5.5"/><ellipse id="_Path_" class="cls-28" cx="211.76" cy="351.09" rx="193.89" ry="11.32"/><path class="cls-18" d="m65.3,292.03c-1.55-2.56-4.12-.33-4.12-.33.37-4.91-4.15-8.26-4.15-8.26,0,0,5.25,0,5.98-5.01.73-5.01-1.83-2.68-4.23-2.71-2.4-.03-4.91,6.98-1.75,10.93,3.17,3.95,2.32,10.69-5,17.17-1.78,1.58-3,3.69-3.82,5.96.55-5.95.86-14.34-.89-19.94-2.98-9.51,2.69-12.07,4.34-16.83,1.65-4.76-4.34-8.78-4.34-8.78,0,0,5.62-2.56,2.88-5.49s-8.41-2.53-8.41,1.3,3.84,5.29,3.84,5.29c0,0,4.39,4.57,4.39,6.95s-4.39,7.5-4.39,7.5c0,0,2.01-4.38-2.01-4.57-4.02-.19-5.3,5.12-3.66,7.5,1.65,2.38,4.39.37,4.39.37,0,0,.32,5.12,1.26,8.23.41,1.37.22,6.73-.13,12.32-.81-2.02-1.96-3.86-3.56-5.29-7.32-6.48-8.17-13.22-5-17.17s.66-10.97-1.75-10.93c-2.4.03-4.96-2.29-4.23,2.71s5.98,5.01,5.98,5.01c0,0-4.51,3.36-4.15,8.26,0,0-2.56-2.23-4.12.33-2.78,4.57,3.66,7.41,4.74,5.16,0,0,13.64,9.66,10.35,23.56l.76,1.13c-.1,1.12-.16,1.8-.16,1.8l1.07-.46,1.21,1.79c-.06,3.48.31,6.04.31,6.04l3.26-4.82c-3.29-13.9,10.35-23.56,10.35-23.56,1.08,2.25,7.52-.59,4.74-5.16Z"/><path class="cls-7" d="m65.3,292.03c-1.55-2.56-4.12-.33-4.12-.33.37-4.91-4.15-8.26-4.15-8.26,0,0,5.25,0,5.98-5.01.73-5.01-1.83-2.68-4.23-2.71-2.4-.03-4.91,6.98-1.75,10.93,3.17,3.95,2.32,10.69-5,17.17-1.78,1.58-3,3.69-3.82,5.96.55-5.95.86-14.34-.89-19.94-2.98-9.51,2.69-12.07,4.34-16.83,1.65-4.76-4.34-8.78-4.34-8.78,0,0,5.62-2.56,2.88-5.49s-8.41-2.53-8.41,1.3,3.84,5.29,3.84,5.29c0,0,4.39,4.57,4.39,6.95s-4.39,7.5-4.39,7.5c0,0,2.01-4.38-2.01-4.57-4.02-.19-5.3,5.12-3.66,7.5,1.65,2.38,4.39.37,4.39.37,0,0,.32,5.12,1.26,8.23.41,1.37.22,6.73-.13,12.32-.81-2.02-1.96-3.86-3.56-5.29-7.32-6.48-8.17-13.22-5-17.17s.66-10.97-1.75-10.93c-2.4.03-4.96-2.29-4.23,2.71s5.98,5.01,5.98,5.01c0,0-4.51,3.36-4.15,8.26,0,0-2.56-2.23-4.12.33-2.78,4.57,3.66,7.41,4.74,5.16,0,0,13.64,9.66,10.35,23.56l.76,1.13c-.1,1.12-.16,1.8-.16,1.8l1.07-.46,1.21,1.79c-.06,3.48.31,6.04.31,6.04l3.26-4.82c-3.29-13.9,10.35-23.56,10.35-23.56,1.08,2.25,7.52-.59,4.74-5.16Z"/><path class="cls-17" d="m65.3,292.03c-1.55-2.56-4.12-.33-4.12-.33.37-4.91-4.15-8.26-4.15-8.26,0,0,5.25,0,5.98-5.01.73-5.01-1.83-2.68-4.23-2.71-2.4-.03-4.91,6.98-1.75,10.93,3.17,3.95,2.32,10.69-5,17.17-1.78,1.58-3,3.69-3.82,5.96.55-5.95.86-14.34-.89-19.94-2.98-9.51,2.69-12.07,4.34-16.83,1.65-4.76-4.34-8.78-4.34-8.78,0,0,5.62-2.56,2.88-5.49s-8.41-2.53-8.41,1.3,3.84,5.29,3.84,5.29c0,0,4.39,4.57,4.39,6.95s-4.39,7.5-4.39,7.5c0,0,2.01-4.38-2.01-4.57-4.02-.19-5.3,5.12-3.66,7.5,1.65,2.38,4.39.37,4.39.37,0,0,.32,5.12,1.26,8.23.41,1.37.22,6.73-.13,12.32-.81-2.02-1.96-3.86-3.56-5.29-7.32-6.48-8.17-13.22-5-17.17s.66-10.97-1.75-10.93c-2.4.03-4.96-2.29-4.23,2.71s5.98,5.01,5.98,5.01c0,0-4.51,3.36-4.15,8.26,0,0-2.56-2.23-4.12.33-2.78,4.57,3.66,7.41,4.74,5.16,0,0,13.64,9.66,10.35,23.56l.76,1.13c-.1,1.12-.16,1.8-.16,1.8l1.07-.46,1.21,1.79c-.06,3.48.31,6.04.31,6.04l3.26-4.82c-3.29-13.9,10.35-23.56,10.35-23.56,1.08,2.25,7.52-.59,4.74-5.16Z"/><path class="cls-6" d="m65.3,292.03c-1.55-2.56-4.12-.33-4.12-.33.37-4.91-4.15-8.26-4.15-8.26,0,0,5.25,0,5.98-5.01.73-5.01-1.83-2.68-4.23-2.71-2.4-.03-4.91,6.98-1.75,10.93,3.17,3.95,2.32,10.69-5,17.17-1.78,1.58-3,3.69-3.82,5.96.55-5.95.86-14.34-.89-19.94-2.98-9.51,2.69-12.07,4.34-16.83,1.65-4.76-4.34-8.78-4.34-8.78,0,0,5.62-2.56,2.88-5.49s-8.41-2.53-8.41,1.3,3.84,5.29,3.84,5.29c0,0,4.39,4.57,4.39,6.95s-4.39,7.5-4.39,7.5c0,0,2.01-4.38-2.01-4.57-4.02-.19-5.3,5.12-3.66,7.5,1.65,2.38,4.39.37,4.39.37,0,0,.32,5.12,1.26,8.23.41,1.37.22,6.73-.13,12.32-.81-2.02-1.96-3.86-3.56-5.29-7.32-6.48-8.17-13.22-5-17.17s.66-10.97-1.75-10.93c-2.4.03-4.96-2.29-4.23,2.71s5.98,5.01,5.98,5.01c0,0-4.51,3.36-4.15,8.26,0,0-2.56-2.23-4.12.33-2.78,4.57,3.66,7.41,4.74,5.16,0,0,13.64,9.66,10.35,23.56l.76,1.13c-.1,1.12-.16,1.8-.16,1.8l1.07-.46,1.21,1.79c-.06,3.48.31,6.04.31,6.04l3.26-4.82c-3.29-13.9,10.35-23.56,10.35-23.56,1.08,2.25,7.52-.59,4.74-5.16Z"/><polygon class="cls-18" points="62.63 351.33 31.38 351.33 28.01 317.11 66 317.11 62.63 351.33"/><polygon class="cls-17" points="62.63 351.33 31.38 351.33 28.01 317.11 66 317.11 62.63 351.33"/><rect class="cls-18" x="26.34" y="313.34" width="41.33" height="7.55"/><rect class="cls-21" x="26.34" y="313.34" width="41.33" height="7.55"/><path class="cls-18" d="m349.63,312.27l-1.39-1.94c-.51-.71-1.33-1.14-2.17-1.14h-9.83c-.85,0-1.61.43-2.04,1.14l-1.17,1.94c-.43.71-1.19,1.14-2.04,1.14h-5.86c-1.4,0-2.47,1.14-2.38,2.55l1.9,32.81c.08,1.41,1.28,2.55,2.68,2.55h46.47c1.4,0,2.47-1.14,2.38-2.55l-1.9-32.81c-.08-1.41-1.28-2.55-2.68-2.55h-19.79c-.85,0-1.66-.43-2.17-1.14Z"/><path class="cls-21" d="m349.63,312.27l-1.39-1.94c-.51-.71-1.33-1.14-2.17-1.14h-9.83c-.85,0-1.61.43-2.04,1.14l-1.17,1.94c-.43.71-1.19,1.14-2.04,1.14h-5.86c-1.4,0-2.47,1.14-2.38,2.55l1.9,32.81c.08,1.41,1.28,2.55,2.68,2.55h46.47c1.4,0,2.47-1.14,2.38-2.55l-1.9-32.81c-.08-1.41-1.28-2.55-2.68-2.55h-19.79c-.85,0-1.66-.43-2.17-1.14Z"/><path class="cls-18" d="m376.24,316.54h-42.57c-1.77,0-3.34,1.43-3.5,3.19l-2.56,28.41c-.16,1.76,1.15,3.19,2.93,3.19h42.57c1.77,0,3.34-1.43,3.5-3.19l2.56-28.41c.16-1.76-1.15-3.19-2.93-3.19Z"/><path class="cls-17" d="m376.24,316.54h-42.57c-1.77,0-3.34,1.43-3.5,3.19l-2.56,28.41c-.16,1.76,1.15,3.19,2.93,3.19h42.57c1.77,0,3.34-1.43,3.5-3.19l2.56-28.41c.16-1.76-1.15-3.19-2.93-3.19Z"/><rect class="cls-16" x="191.89" y="301.52" width="60.76" height="42.43"/><rect class="cls-18" x="206.55" y="337.12" width="48.4" height="14.21" rx="1.65" ry="1.65"/><rect class="cls-21" x="206.55" y="337.12" width="48.4" height="14.21" rx="1.65" ry="1.65"/><rect class="cls-17" x="190.07" y="337.12" width="48.4" height="14.21" rx="1.65" ry="1.65"/><path class="cls-14" d="m233.69,344.22c0,1.65-1.34,2.99-2.99,2.99s-2.99-1.34-2.99-2.99,1.34-2.99,2.99-2.99,2.99,1.34,2.99,2.99Z"/><circle class="cls-21" cx="230.71" cy="344.22" r="1.52"/><rect class="cls-14" x="220.91" y="342.52" width="3.4" height="3.4"/><rect class="cls-18" x="206.55" y="322.28" width="48.4" height="14.21" rx="1.65" ry="1.65"/><rect class="cls-21" x="206.55" y="322.28" width="48.4" height="14.21" rx="1.65" ry="1.65"/><rect class="cls-17" x="190.07" y="322.28" width="48.4" height="14.21" rx="1.65" ry="1.65"/><path class="cls-14" d="m233.69,329.38c0,1.65-1.34,2.99-2.99,2.99s-2.99-1.34-2.99-2.99,1.34-2.99,2.99-2.99,2.99,1.34,2.99,2.99Z"/><path class="cls-21" d="m232.23,329.38c0,.84-.68,1.52-1.52,1.52s-1.52-.68-1.52-1.52.68-1.52,1.52-1.52,1.52.68,1.52,1.52Z"/><rect class="cls-14" x="220.91" y="327.68" width="3.4" height="3.4"/><rect class="cls-18" x="206.55" y="307.44" width="48.4" height="14.21" rx="1.65" ry="1.65"/><rect class="cls-21" x="206.55" y="307.44" width="48.4" height="14.21" rx="1.65" ry="1.65"/><rect class="cls-17" x="190.07" y="307.44" width="48.4" height="14.21" rx="1.65" ry="1.65"/><path class="cls-14" d="m233.69,314.54c0,1.65-1.34,2.99-2.99,2.99s-2.99-1.34-2.99-2.99,1.34-2.99,2.99-2.99,2.99,1.34,2.99,2.99Z"/><path class="cls-21" d="m232.23,314.54c0,.84-.68,1.52-1.52,1.52s-1.52-.68-1.52-1.52.68-1.52,1.52-1.52,1.52.68,1.52,1.52Z"/><rect class="cls-14" x="220.91" y="312.84" width="3.4" height="3.4"/><rect class="cls-18" x="206.55" y="292.6" width="48.4" height="14.21" rx="1.65" ry="1.65"/><rect class="cls-21" x="206.55" y="292.6" width="48.4" height="14.21" rx="1.65" ry="1.65"/><rect class="cls-17" x="190.07" y="292.6" width="48.4" height="14.21" rx="1.65" ry="1.65"/><path class="cls-14" d="m233.69,299.7c0,1.65-1.34,2.99-2.99,2.99s-2.99-1.34-2.99-2.99,1.34-2.99,2.99-2.99,2.99,1.34,2.99,2.99Z"/><path class="cls-21" d="m232.23,299.7c0,.84-.68,1.52-1.52,1.52s-1.52-.68-1.52-1.52.68-1.52,1.52-1.52,1.52.68,1.52,1.52Z"/><rect class="cls-14" x="220.91" y="298" width="3.4" height="3.4"/><rect class="cls-16" x="246.3" y="324.17" width="60.76" height="19.77"/><rect class="cls-17" x="260.97" y="337.12" width="48.4" height="14.21" rx="1.65" ry="1.65"/><rect class="cls-21" x="260.97" y="337.12" width="48.4" height="14.21" rx="1.65" ry="1.65"/><rect class="cls-17" x="244.48" y="337.12" width="48.4" height="14.21" rx="1.65" ry="1.65"/><rect class="cls-14" x="275.32" y="341.52" width="3.4" height="3.4"/><rect class="cls-18" x="260.97" y="322.28" width="48.4" height="14.21" rx="1.65" ry="1.65"/><rect class="cls-21" x="260.97" y="322.28" width="48.4" height="14.21" rx="1.65" ry="1.65"/><rect class="cls-17" x="244.48" y="322.28" width="48.4" height="14.21" rx="1.65" ry="1.65"/><path class="cls-14" d="m288.11,329.38c0,1.65-1.34,2.99-2.99,2.99s-2.99-1.34-2.99-2.99,1.34-2.99,2.99-2.99,2.99,1.34,2.99,2.99Z"/><path class="cls-21" d="m286.64,329.38c0,.84-.68,1.52-1.52,1.52s-1.52-.68-1.52-1.52.68-1.52,1.52-1.52,1.52.68,1.52,1.52Z"/><rect class="cls-14" x="275.32" y="327.68" width="3.4" height="3.4"/><path class="cls-14" d="m288.21,343.15c0,1.65-1.34,2.99-2.99,2.99s-2.99-1.34-2.99-2.99,1.34-2.99,2.99-2.99,2.99,1.34,2.99,2.99Z"/><path class="cls-21" d="m286.74,343.15c0,.84-.68,1.52-1.52,1.52s-1.52-.68-1.52-1.52.68-1.52,1.52-1.52,1.52.68,1.52,1.52Z"/><polygon class="cls-22" points="131.11 333.94 124.8 335.06 122.21 326.46 119.85 318.56 127.12 316.02 129.24 325.51 131.11 333.94"/><polygon class="cls-11" points="129.27 325.71 122.24 326.63 119.87 318.65 127.13 316.07 129.27 325.71"/><polygon class="cls-22" points="89 336.85 82.59 336.85 81.54 327.83 80.59 319.6 88.19 318.33 88.62 328.13 89 336.85"/><polygon class="cls-11" points="88.62 328.22 81.54 327.9 80.59 319.63 88.19 318.35 88.62 328.22"/><path class="cls-16" d="m97.68,349.54c-1.02-.82-2.18-1.45-3.42-1.86h0s-3.72-3.69-5.51-14.8l-4.87-1.27c-1.69-.41-3.46.28-4.43,1.73-.14.2-.24.41-.31.64-.25,1.19-.42,2.4-.52,3.61-.49,3.76-.07,12.2-.07,12.2h.88l.35-7.66c.13-2.6,2.12.45,2.69,3.25s1.78,5.78,7.48,5.92c6.65.13,9.41-.13,7.73-1.76Z"/><path class="cls-16" d="m140.18,348.79c-1.02-.82-2.18-1.45-3.42-1.86h0s-3.72-3.69-5.51-14.8l-4.87-1.27c-1.69-.41-3.46.28-4.43,1.73-.14.2-.24.41-.31.64-.25,1.19-.42,2.4-.52,3.61-.49,3.76-.07,12.2-.07,12.2h.88l.35-7.66c.13-2.6,2.12.45,2.69,3.25s1.78,5.78,7.48,5.92c6.65.13,9.41-.13,7.73-1.76Z"/><path class="cls-17" d="m129.86,320.7l-10.37,1.83c-10.46-26.07-17.91-47.83-23.16-65.89-2.83-9.74-5.19-18.41-6.89-26.1l.32,28.38v63.93h-10.22c-25.61-122-7.46-149.8-7.46-149.8l30.64-5.1c1.16,4.57,2.05,12.06,2.57,17.22l1.38,10.17,11.98,61.87,11.21,63.5Z"/><g class="cls-29"><path class="cls-17" d="m129.86,320.7l-10.37,1.83c-10.46-26.07-17.91-47.83-23.16-65.89-2.83-9.74-5.19-18.41-6.89-26.1l.32,28.38v63.93h-10.22c-25.61-122-7.46-149.8-7.46-149.8l30.64-5.1c1.16,4.57,2.05,12.06,2.57,17.22l1.38,10.17,11.98,61.87,11.21,63.5Z"/></g><path class="cls-24" d="m139.01,137.82l10.34-10.22s.36-2.74,1.36-3.5c1-.76,8.1-3.34,8.97-2.77.87.57,2.08,6.31.86,7.36-1.21,1.05-7.67,2.39-8.33,2.28l-11.19,13.28-2.01-6.43Z"/><path class="cls-16" d="m101.97,119.2c4.46,2.37,20.3,24.5,22.63,25.6,2.33,1.1,20.16-13.36,20.16-13.36l3.01,5.13s-14.63,20.67-22.9,19.67c-8.27-1-24.1-18.5-24.1-18.5l1.2-18.53Z"/><path class="cls-1" d="m101.97,119.2c4.46,2.37,20.3,24.5,22.63,25.6,2.33,1.1,20.16-13.36,20.16-13.36l3.01,5.13s-14.63,20.67-22.9,19.67c-8.27-1-24.1-18.5-24.1-18.5l1.2-18.53Z"/><polygon class="cls-17" points="143.78 131.98 145.01 130.81 148.26 136.31 147.1 138.56 143.78 131.98"/><path class="cls-11" d="m107.12,144.19c-3.7-3.53-6.36-6.46-6.36-6.46l.28-4.4,1.39-4.27s6.24,5.75,4.69,15.13Z"/><path class="cls-11" d="m96.33,256.64c-2.83-9.74-5.04-18.41-6.73-26.1,0,0,.17-14.94,1.98-27.22,0,0,4.49,35.1,4.75,53.31Z"/><path class="cls-16" d="m103.46,166.05c1.25-22.02.69-34.12.12-40.17-.63-6.45-1.62-6.69-1.62-6.69,0,0-6.99-.68-13.07-.63-4.71.16-9.4.65-14.03,1.48-4.39.73-8.72,1.78-12.97,3.13.71,2.03,1.35,3.95,1.95,5.76.8,2.39,1.51,4.6,2.15,6.67,1.2,3.86,2.14,7.21,2.89,10.2,2.34,9.26,2.83,15.19,3.32,22.95,0,0-7.69,20.1-9.19,34.85l25.5,2.75,3.5-14.75,3.5,15.25,14.25-5-6.3-35.8Z"/><path class="cls-1" d="m103.46,166.05c1.25-22.02.69-34.12.12-40.17-.63-6.45-1.62-6.69-1.62-6.69,0,0-6.99-.68-13.07-.63-4.71.16-9.4.65-14.03,1.48-4.39.73-8.72,1.78-12.97,3.13.71,2.03,1.35,3.95,1.95,5.76.8,2.39,1.51,4.6,2.15,6.67,1.2,3.86,2.14,7.21,2.89,10.2,2.34,9.26,2.83,15.19,3.32,22.95,0,0-7.69,20.1-9.19,34.85l25.5,2.75,3.5-14.75,3.5,15.25,14.25-5-6.3-35.8Z"/><path class="cls-11" d="m70.11,151.18c-.34-1.68-.74-3.47-1.23-5.39-.31-1.22-.65-2.5-1.03-3.86.97-3.41,1.97-.74,1.97-.74,0,0,1,4.12.29,9.99Z"/><polygon class="cls-17" points="78.6 126.18 91.26 148.85 94.26 124.52 88.51 131.73 78.6 126.18"/><path class="cls-17" d="m78.26,118.1c-5.66,1.33-7.38,5.88-6.75,10l4.12-1.38s7.62,2.62,13.25,7.25c0,0,3.12-5.75,6.12-7.62l4.25.5s-6.62-12.12-21-8.75Z"/><path class="cls-9" d="m78.26,118.1c-5.66,1.33-7.38,5.88-6.75,10l4.12-1.38s7.62,2.62,13.25,7.25c0,0,3.12-5.75,6.12-7.62l4.25.5s-6.62-12.12-21-8.75Z"/><path class="cls-24" d="m88.54,119.9c-.28-.15-.6-.28-.95-.41-.72-.57-1.6-1.94-1.55-5.28.01-1.09.12-2.37.36-3.9l-9.27-1.73s3.16,6.24.52,10.87c-.91.4-1.45.97-1.35,1.73.69,5.36,12.21,10.54,12.21,10.54,0,0,5.62-8.75.03-11.82Z"/><path class="cls-11" d="m86.4,110.32c-.24,1.53-.35,2.82-.36,3.9-6.26,0-8.91-5.63-8.91-5.63l9.27,1.73Z"/><path class="cls-16" d="m82.26,79.73s10.88-1.38,12.88,7.38-4.75,13.62-4.75,13.62l-8.12-21Z"/><path class="cls-24" d="m81.27,84.39c8.06-.44,10.89,3.73,11.94,12.01,1.31,10.34-.59,17.84-10.79,16.18-13.85-2.26-14.53-27.45-1.15-28.18Z"/><path class="cls-20" d="m87.98,96.23s1.23,2.04,2.53,3.21c0,0-.63,1.13-2.07,1.03l-.45-4.24Z"/><path class="cls-16" d="m83.01,95.84c.05.66-.26,1.23-.7,1.26-.44.03-.84-.47-.89-1.13-.05-.66.26-1.23.7-1.26.44-.03.84.47.89,1.13Z"/><path class="cls-16" d="m81.93,94.76l1.39-.68s-.62,1.27-1.39.68Z"/><path class="cls-16" d="m91.22,95.06c.05.66-.26,1.23-.7,1.26-.44.03-.84-.47-.89-1.13-.05-.66.26-1.23.7-1.26.44-.03.84.47.89,1.13Z"/><path class="cls-16" d="m90.14,93.97l1.39-.68s-.62,1.27-1.39.68Z"/><path class="cls-35" d="m82.62,90.28s-2.28-.17-3.43,1.41"/><path class="cls-35" d="m88.46,89.62s1.39-.61,3.25.49"/><path class="cls-16" d="m73.21,98.46s3.41-6.83,2.55-11.91c0,0,15.61-7.4,17.29,8.77,0,0,.77-14.48-13.1-14.04-13.85.44-12.7,20.71-5.22,26.35,0,0-3.63-4.9-1.53-9.17Z"/><path class="cls-16" d="m83.64,79.1s6.62-1.62,8.5.12-11.5,14.12-18.5,15.38c0,0-2.38,7.75-.5,11.38,0,0-7.88-2.75-8.25-14.75s12.25-16.5,18.75-12.12Z"/><path class="cls-24" d="m74.62,100.09c-.12-1.29-1.58-3.42-3.98-3.02-2.48.41-3.39,5.6,2.89,6.49.9.13,1.36-.77,1.1-3.47Z"/><path class="cls-16" d="m71.14,83.85s-2.75-7-10.12-6.5-8.5,12-4.62,20.5,1.25,11.25,1.25,11.25c0,0,4.12-.5,4.12-8.12,0,0,.38,2.5.25,4.88,0,0,2.75-3.88.12-11.25s5.75-4,5.75-4l3.25-6.75Z"/><path class="cls-35" d="m91.51,79.85s-3.5,11.25-12.88,14.62"/><path class="cls-35" d="m82.14,103.35s1.88,2,4.62,1.88"/><path class="cls-34" d="m87.14,96.98c0,1.07-.8,1.94-1.78,1.94s-1.78-.87-1.78-1.94.8-1.94,1.78-1.94,1.78.87,1.78,1.94Z"/><path class="cls-34" d="m93.45,96.66c0,1.07-.8,1.94-1.78,1.94s-1.78-.87-1.78-1.94.8-1.94,1.78-1.94,1.78.87,1.78,1.94Z"/><path class="cls-34" d="m87.14,96.98s.94-2,2.75-.31"/><path class="cls-34" d="m83.57,96.98s-10-.31-11.19-.25"/><path class="cls-18" d="m73.49,143.68l-.46,25.53c-.01.61.51,1.1,1.12,1.05l16.82-1.34c.53-.04.93-.47.95-1l.81-25.31c.02-.61-.49-1.1-1.1-1.07l-17.16,1.11c-.54.03-.96.48-.97,1.01Z"/><path class="cls-13" d="m73.49,143.68l-.46,25.53c-.01.61.51,1.1,1.12,1.05l16.82-1.34c.53-.04.93-.47.95-1l.81-25.31c.02-.61-.49-1.1-1.1-1.07l-17.16,1.11c-.54.03-.96.48-.97,1.01Z"/><path class="cls-18" d="m73.99,144.26l-.46,25.53c-.01.61.51,1.1,1.12,1.05l16.82-1.34c.53-.04.93-.47.95-1l.81-25.31c.02-.61-.49-1.1-1.1-1.07l-17.16,1.11c-.54.03-.96.48-.97,1.01Z"/><path class="cls-4" d="m73.99,144.26l-.46,25.53c-.01.61.51,1.1,1.12,1.05l16.82-1.34c.53-.04.93-.47.95-1l.81-25.31c.02-.61-.49-1.1-1.1-1.07l-17.16,1.11c-.54.03-.96.48-.97,1.01Z"/><path class="cls-11" d="m85.59,156.44c0,1.38-1.12,2.5-2.5,2.5s-2.5-1.12-2.5-2.5,1.12-2.5,2.5-2.5c.03,0,.06,0,.1,0,.19,1.16,1.17,2.05,2.37,2.09.02.14.03.27.03.41Z"/><path class="cls-24" d="m58.89,164.44l12.3-7.75s.94-2.6,2.08-3.13c1.14-.53,8.63-1.52,9.35-.77.72.75.67,6.61-.74,7.37-1.41.76-8,.69-8.62.43l-13.79,10.56-.58-6.72Z"/><path class="cls-16" d="m61.89,123.18s8.04,11.68,6.87,21.68l-10.67,17.67,7.17-3.67,3.25,6.12s-8.25,12.71-18.75,9.71,12.13-51.51,12.13-51.51Z"/><path class="cls-1" d="m61.89,123.18s8.04,11.68,6.87,21.68l-10.67,17.67,7.17-3.67,3.25,6.12s-8.25,12.71-18.75,9.71,12.13-51.51,12.13-51.51Z"/><polygon class="cls-17" points="64.51 158.52 68.6 166.1 69.51 163.93 66.26 157.77 64.51 158.52"/><path class="cls-17" d="m157.78,127.49c-2.55,0-4.62-2.07-4.62-4.62s2.07-4.62,4.62-4.62,4.62,2.07,4.62,4.62-2.07,4.62-4.62,4.62Z"/><path class="cls-17" d="m159.87,147.85h-.09c-4.32,0-8.58-1.32-12.31-3.47l2.51-4.41c2.97,1.72,6.36,2.76,9.8,2.76l.09,5.13Zm12.3-3.7l-2.52-4.32c2.97-1.74,5.45-4.23,7.16-7.21l4.34,2.49c-2.15,3.74-5.25,6.86-8.97,9.04Zm-33.71-8.95c-2.16-3.73-3.31-7.98-3.31-12.3h5c0,3.44.92,6.83,2.64,9.79l-4.32,2.51Zm40.94-12.39c-.01-3.44-.93-6.83-2.66-9.79l4.32-2.52c2.17,3.72,3.33,7.97,3.34,12.3l-5,.02Zm-36.64-9.72l-4.33-2.5c2.16-3.73,5.27-6.85,8.99-9.02l2.51,4.32c-2.97,1.73-5.45,4.22-7.18,7.2Zm26.78-7.24c-2.96-1.71-6.34-2.8-9.77-2.8l-.05-5.2h.05c4.3,0,8.55,1.33,12.26,3.47l-2.5,4.53Z"/><g class="cls-30"><path class="cls-17" d="m159.87,147.85h-.09c-4.32,0-8.58-1.32-12.31-3.47l2.51-4.41c2.97,1.72,6.36,2.76,9.8,2.76l.09,5.13Zm12.3-3.7l-2.52-4.32c2.97-1.74,5.45-4.23,7.16-7.21l4.34,2.49c-2.15,3.74-5.25,6.86-8.97,9.04Zm-33.71-8.95c-2.16-3.73-3.31-7.98-3.31-12.3h5c0,3.44.92,6.83,2.64,9.79l-4.32,2.51Zm40.94-12.39c-.01-3.44-.93-6.83-2.66-9.79l4.32-2.52c2.17,3.72,3.33,7.97,3.34,12.3l-5,.02Zm-36.64-9.72l-4.33-2.5c2.16-3.73,5.27-6.85,8.99-9.02l2.51,4.32c-2.97,1.73-5.45,4.22-7.18,7.2Zm26.78-7.24c-2.96-1.71-6.34-2.8-9.77-2.8l-.05-5.2h.05c4.3,0,8.55,1.33,12.26,3.47l-2.5,4.53Z"/></g><path class="cls-18" d="m164.78,129.03c-3.39,0-6.16-2.76-6.16-6.16s2.76-6.16,6.16-6.16,6.16,2.76,6.16,6.16-2.76,6.16-6.16,6.16Z"/><path class="cls-12" d="m164.78,129.03c-3.39,0-6.16-2.76-6.16-6.16s2.76-6.16,6.16-6.16,6.16,2.76,6.16,6.16-2.76,6.16-6.16,6.16Z"/><circle class="cls-21" cx="166.78" cy="122.87" r="10.13" transform="translate(8.87 256.96) rotate(-76.72)"/><rect class="cls-18" x="175.76" y="121.85" width="168" height="2"/><path class="cls-18" d="m167.76,113.85h-2v-12c0-.27.11-.52.29-.71l61.17-61c.19-.19.44-.29.71-.29h55.83v2h-55.42l-60.58,60.41v11.59Z"/><path class="cls-18" d="m312.76,214.85h-75c-.27,0-.52-.11-.71-.29l-71-71c-.19-.19-.29-.44-.29-.71v-10h2v9.59l70.41,70.41h74.59v2Z"/><path class="cls-18" d="m262.76,150.85h-40.17c-.26,0-.52-.1-.71-.29l-27-26.83,1.41-1.42,26.71,26.54h39.75v2Z"/><path class="cls-18" d="m234.97,123.64l-1.42-1.41,26.91-27.08c.19-.19.44-.29.71-.29h40.59v2h-40.17l-26.62,26.79Z"/><path class="cls-18" d="m387.76,72.85h-158.77c-.27,0-.52-.11-.71-.3l-15.94-16.1,1.42-1.41,15.64,15.81h158.35v2Z"/><path class="cls-18" d="m246.14,41.56l-1.41-1.41,26-26c.19-.19.44-.29.71-.29h83.33v2h-82.92l-25.71,25.71Z"/><path class="cls-18" d="m262.39,263.89l-40.33-40.33c-.19-.19-.29-.44-.29-.71v-24h2v23.59l40.04,40.04-1.41,1.41Z"/><path class="cls-18" d="m253.3,214.24l-1.42-1.41,26.52-26.69c.19-.19.44-.29.71-.29h100.65v2h-100.23l-26.23,26.39Z"/><path class="cls-18" d="m346.76,242.85h-44.83c-.27,0-.52-.11-.71-.29l-28.17-28.17,1.41-1.41,27.87,27.87h44.42v2Z"/><circle class="cls-18" cx="354.76" cy="14.85" r="4.58"/><path class="cls-18" d="m292.76,51.43c-5.84,0-10.58-4.75-10.58-10.58s4.75-10.58,10.58-10.58,10.58,4.75,10.58,10.58-4.75,10.58-10.58,10.58Zm0-19.17c-4.73,0-8.58,3.85-8.58,8.58s3.85,8.58,8.58,8.58,8.58-3.85,8.58-8.58-3.85-8.58-8.58-8.58Z"/><circle class="cls-21" cx="292.76" cy="40.85" r="4.58"/><path class="cls-18" d="m392.35,72.02c0,2.53-2.05,4.58-4.58,4.58s-4.58-2.05-4.58-4.58,2.05-4.58,4.58-4.58,4.58,2.05,4.58,4.58Z"/><circle class="cls-18" cx="301.76" cy="95.85" r="4.58"/><path class="cls-18" d="m352.76,133.43c-5.84,0-10.58-4.75-10.58-10.58s4.75-10.58,10.58-10.58,10.58,4.75,10.58,10.58-4.75,10.58-10.58,10.58Zm0-19.17c-4.73,0-8.58,3.85-8.58,8.58s3.85,8.58,8.58,8.58,8.58-3.85,8.58-8.58-3.85-8.58-8.58-8.58Z"/><circle class="cls-21" cx="352.76" cy="122.85" r="4.58"/><circle class="cls-18" cx="262.76" cy="149.85" r="4.58"/><circle class="cls-18" cx="379.76" cy="186.85" r="4.58"/><path class="cls-18" d="m321.76,224.27c-5.84,0-10.58-4.75-10.58-10.58s4.75-10.58,10.58-10.58,10.58,4.75,10.58,10.58-4.75,10.58-10.58,10.58Zm0-19.17c-4.73,0-8.58,3.85-8.58,8.58s3.85,8.58,8.58,8.58,8.58-3.85,8.58-8.58-3.85-8.58-8.58-8.58Z"/><path class="cls-21" d="m326.35,213.68c0,2.53-2.05,4.58-4.58,4.58s-4.58-2.05-4.58-4.58,2.05-4.58,4.58-4.58,4.58,2.05,4.58,4.58Z"/><circle class="cls-18" cx="346.76" cy="241.85" r="4.58"/><path class="cls-18" d="m267.68,263.18c0,2.53-2.05,4.58-4.58,4.58s-4.58-2.05-4.58-4.58,2.05-4.58,4.58-4.58,4.58,2.05,4.58,4.58Z"/><rect class="cls-21" x="365.32" y="2.6" width="19.72" height="25.75" rx="1.51" ry="1.51"/><rect class="cls-5" x="365.32" y="2.6" width="19.72" height="25.75" rx="1.51" ry="1.51"/><rect class="cls-17" x="368.26" y="6.26" width="13.83" height="1.39"/><rect class="cls-17" x="368.26" y="8.69" width="13.83" height="1.39"/><rect class="cls-17" x="368.26" y="11.13" width="13.83" height="1.39"/><rect class="cls-17" x="368.26" y="13.57" width="13.83" height="1.39"/><rect class="cls-17" x="368.26" y="16" width="13.83" height="1.39"/><rect class="cls-17" x="368.26" y="18.44" width="13.83" height="1.39"/><rect class="cls-17" x="368.26" y="20.87" width="13.83" height="1.39"/><rect class="cls-17" x="368.26" y="23.31" width="8.96" height="1.39"/><rect class="cls-17" x="272.4" y="139.14" width="19.72" height="25.75" rx="1.51" ry="1.51"/><rect class="cls-3" x="272.4" y="139.14" width="19.72" height="25.75" rx="1.51" ry="1.51"/><rect class="cls-21" x="275.34" y="142.79" width="13.83" height="1.39"/><rect class="cls-21" x="275.34" y="145.23" width="13.83" height="1.39"/><rect class="cls-21" x="275.34" y="147.66" width="13.83" height="1.39"/><rect class="cls-21" x="275.34" y="150.1" width="13.83" height="1.39"/><rect class="cls-21" x="275.34" y="152.54" width="13.83" height="1.39"/><rect class="cls-21" x="275.34" y="154.97" width="13.83" height="1.39"/><rect class="cls-21" x="275.34" y="157.41" width="13.83" height="1.39"/><rect class="cls-21" x="275.34" y="159.84" width="8.96" height="1.39"/><rect class="cls-21" x="387.76" y="166.86" width="19.72" height="25.75" rx="1.51" ry="1.51"/><rect class="cls-5" x="387.76" y="166.86" width="19.72" height="25.75" rx="1.51" ry="1.51"/><rect class="cls-17" x="390.71" y="170.51" width="13.83" height="1.39"/><rect class="cls-17" x="390.71" y="172.94" width="13.83" height="1.39"/><rect class="cls-17" x="390.71" y="175.38" width="13.83" height="1.39"/><rect class="cls-17" x="390.71" y="177.82" width="13.83" height="1.39"/><rect class="cls-17" x="390.71" y="180.25" width="13.83" height="1.39"/><rect class="cls-17" x="390.71" y="182.69" width="13.83" height="1.39"/><rect class="cls-17" x="390.71" y="185.12" width="13.83" height="1.39"/><rect class="cls-17" x="390.71" y="187.56" width="8.96" height="1.39"/><rect class="cls-21" x="395.58" y="51.98" width="19.72" height="25.75" rx="1.51" ry="1.51"/><rect class="cls-5" x="395.58" y="51.98" width="19.72" height="25.75" rx="1.51" ry="1.51"/><rect class="cls-17" x="398.52" y="55.63" width="13.83" height="1.39"/><rect class="cls-17" x="398.52" y="58.07" width="13.83" height="1.39"/><rect class="cls-17" x="398.52" y="60.5" width="13.83" height="1.39"/><rect class="cls-17" x="398.52" y="62.94" width="13.83" height="1.39"/><rect class="cls-17" x="398.52" y="65.37" width="13.83" height="1.39"/><rect class="cls-17" x="398.52" y="67.81" width="13.83" height="1.39"/><rect class="cls-17" x="398.52" y="70.25" width="13.83" height="1.39"/><rect class="cls-17" x="398.52" y="72.68" width="8.96" height="1.39"/><rect class="cls-17" x="272.77" y="258.06" width="19.72" height="25.75" rx="1.51" ry="1.51"/><rect class="cls-3" x="272.77" y="258.06" width="19.72" height="25.75" rx="1.51" ry="1.51"/><rect class="cls-21" x="275.72" y="261.72" width="13.83" height="1.39"/><rect class="cls-21" x="275.72" y="264.15" width="13.83" height="1.39"/><rect class="cls-21" x="275.72" y="266.59" width="13.83" height="1.39"/><rect class="cls-21" x="275.72" y="269.03" width="13.83" height="1.39"/><rect class="cls-21" x="275.72" y="271.46" width="13.83" height="1.39"/><rect class="cls-21" x="275.72" y="273.9" width="13.83" height="1.39"/><rect class="cls-21" x="275.72" y="276.33" width="13.83" height="1.39"/><rect class="cls-21" x="275.72" y="278.77" width="8.96" height="1.39"/><rect class="cls-17" x="367.71" y="99.3" width="46" height="46" rx="1.54" ry="1.54"/><circle class="cls-12" cx="390.71" cy="122.3" r="15.5"/><path class="cls-4" d="m390.71,122.3h15.5c0,8.5-7,15.5-15.5,15.5s-15.5-7-15.5-15.5,7-15.5,15.5-15.5c2.72,0,5.39.72,7.75,2.07l-7.75,13.43Z"/><circle class="cls-17" cx="390.71" cy="122.3" r="12"/><circle class="cls-15" cx="390.71" cy="121.85" r="12"/><rect class="cls-17" x="335.61" y="196.35" width="35" height="35" rx="1.17" ry="1.17"/><rect class="cls-12" x="359.76" y="225.48" width="4.5" height="2.29"/><rect class="cls-23" x="359.76" y="202.63" width="4.5" height="2.29"/><rect class="cls-23" x="359.76" y="206.44" width="4.5" height="2.29"/><rect class="cls-2" x="359.76" y="210.25" width="4.5" height="2.29"/><rect class="cls-12" x="359.76" y="214.05" width="4.5" height="2.29"/><rect class="cls-12" x="359.76" y="217.86" width="4.5" height="2.29"/><rect class="cls-12" x="359.76" y="221.67" width="4.5" height="2.29"/><rect class="cls-12" x="353.64" y="225.48" width="4.5" height="2.29"/><rect class="cls-23" x="353.64" y="214.05" width="4.5" height="2.29"/><rect class="cls-2" x="353.64" y="217.86" width="4.5" height="2.29"/><rect class="cls-12" x="353.64" y="221.67" width="4.5" height="2.29"/><rect class="cls-12" x="347.51" y="225.48" width="4.5" height="2.29"/><rect class="cls-23" x="347.51" y="210.25" width="4.5" height="2.29"/><rect class="cls-2" x="347.51" y="214.05" width="4.5" height="2.29"/><rect class="cls-12" x="347.51" y="217.86" width="4.5" height="2.29"/><rect class="cls-12" x="347.51" y="221.67" width="4.5" height="2.29"/><rect class="cls-12" x="341.39" y="225.48" width="4.5" height="2.29"/><rect class="cls-23" x="341.39" y="217.86" width="4.5" height="2.29"/><rect class="cls-2" x="341.39" y="221.67" width="4.5" height="2.29"/><rect class="cls-17" x="308.85" y="27.93" width="35" height="35" rx="1.17" ry="1.17"/><path class="cls-10" d="m328.87,41.64v-2.19l-1.13-.11c-.15-.73-.44-1.42-.84-2.02l.72-.87-1.55-1.55-.87.72c-.61-.4-1.29-.69-2.02-.84l-.11-1.13h-2.19l-.11,1.13c-.73.15-1.42.44-2.02.84l-.87-.72-1.55,1.55.72.87c-.4.61-.69,1.29-.84,2.02l-1.13.11v2.19l1.13.11c.15.73.44,1.42.84,2.02l-.72.87,1.55,1.55.87-.72c.61.4,1.29.69,2.02.84l.11,1.13h2.19l.11-1.13c.73-.15,1.42-.44,2.02-.84l.87.72,1.55-1.55-.72-.87c.4-.61.69-1.29.84-2.02l1.13-.11Zm-6.89,1.87c-1.64,0-2.96-1.33-2.96-2.96s1.33-2.96,2.96-2.96,2.96,1.33,2.96,2.96-1.33,2.96-2.96,2.96Z"/><path class="cls-13" d="m337.75,47.82v-1.72l-.88-.08c-.12-.58-.35-1.11-.66-1.59l.57-.69-1.21-1.21-.69.57c-.47-.31-1.01-.54-1.58-.66l-.08-.88h-1.72l-.08.88c-.58.12-1.11.35-1.58.66l-.69-.57-1.21,1.21.57.69c-.31.48-.54,1.01-.66,1.59l-.88.08v1.72l.88.08c.12.58.35,1.11.66,1.58l-.57.69,1.21,1.21.69-.57c.47.31,1.01.54,1.58.66l.08.88h1.72l.08-.88c.58-.12,1.11-.35,1.59-.66l.69.57,1.21-1.21-.57-.69c.31-.47.54-1.01.66-1.58l.88-.08Zm-5.4,1.46c-1.28,0-2.32-1.04-2.32-2.32s1.04-2.32,2.32-2.32,2.32,1.04,2.32,2.32-1.04,2.32-2.32,2.32Z"/><path class="cls-8" d="m328.87,52.69v-1.44l-.74-.07c-.1-.48-.29-.93-.55-1.33l.48-.58-1.02-1.02-.58.48c-.4-.26-.85-.45-1.33-.55l-.07-.74h-1.44l-.07.74c-.48.1-.93.29-1.33.55l-.58-.48-1.02,1.02.48.58c-.26.4-.45.85-.55,1.33l-.74.07v1.44s.74.07.74.07c.1.48.29.93.55,1.33l-.48.58,1.02,1.02.58-.48c.4.26.85.45,1.33.55l.07.74h1.44l.07-.74c.48-.1.93-.29,1.33-.55l.58.48,1.02-1.02-.48-.58c.26-.4.45-.85.55-1.33l.74-.07Zm-4.54,1.23c-1.08,0-1.95-.87-1.95-1.95s.87-1.95,1.95-1.95,1.95.87,1.95,1.95-.87,1.95-1.95,1.95Z"/><rect class="cls-21" x="309.7" y="85.6" width="30.75" height="20"/><rect class="cls-5" x="309.7" y="85.6" width="30.75" height="20"/><rect class="cls-17" x="310.82" y="89.35" width="28.5" height="15.25"/><rect class="cls-23" x="313.15" y="91.63" width="21.08" height=".66"/><rect class="cls-23" x="313.15" y="93.64" width="10.12" height=".66"/><rect class="cls-23" x="313.15" y="95.65" width="12.74" height=".66"/><rect class="cls-23" x="313.15" y="97.66" width="4.49" height=".66"/><rect class="cls-23" x="313.15" y="99.67" width="2.91" height=".66"/><rect class="cls-21" x="358.7" y="238.1" width="30.75" height="20"/><rect class="cls-5" x="358.7" y="238.1" width="30.75" height="20"/><rect class="cls-17" x="359.82" y="241.85" width="28.5" height="15.25"/><rect class="cls-23" x="362.15" y="244.13" width="21.08" height=".66"/><rect class="cls-23" x="362.15" y="246.14" width="10.12" height=".66"/><rect class="cls-23" x="362.15" y="248.15" width="12.74" height=".66"/><rect class="cls-23" x="362.15" y="250.16" width="4.49" height=".66"/><rect class="cls-23" x="362.15" y="252.17" width="2.91" height=".66"/><rect class="cls-17" x="173.76" y="121.85" width="170" height="2"/><path class="cls-17" d="m167.76,113.85h-2v-12c0-.27.11-.52.29-.71l61.17-61c.19-.19.44-.29.71-.29h55.83v2h-55.42l-60.58,60.41v11.59Z"/><path class="cls-17" d="m312.76,214.85h-75c-.27,0-.52-.11-.71-.29l-71-71c-.19-.19-.29-.44-.29-.71v-10h2v9.59l70.41,70.41h74.59v2Z"/><path class="cls-17" d="m262.76,150.85h-40.17c-.26,0-.52-.1-.71-.29l-27-26.83,1.41-1.42,26.71,26.54h39.75v2Z"/><path class="cls-17" d="m234.97,123.64l-1.42-1.41,26.91-27.08c.19-.19.44-.29.71-.29h40.59v2h-40.17l-26.62,26.79Z"/><path class="cls-17" d="m387.76,72.85h-158.77c-.27,0-.52-.11-.71-.3l-15.94-16.1,1.42-1.41,15.64,15.81h158.35v2Z"/><path class="cls-17" d="m246.14,41.56l-1.41-1.41,26-26c.19-.19.44-.29.71-.29h83.33v2h-82.92l-25.71,25.71Z"/><path class="cls-17" d="m262.39,263.89l-40.33-40.33c-.19-.19-.29-.44-.29-.71v-24h2v23.59l40.04,40.04-1.41,1.41Z"/><path class="cls-17" d="m253.3,214.24l-1.42-1.41,26.52-26.69c.19-.19.44-.29.71-.29h100.65v2h-100.23l-26.23,26.39Z"/><path class="cls-17" d="m346.76,242.85h-44.83c-.27,0-.52-.11-.71-.29l-28.17-28.17,1.41-1.41,27.87,27.87h44.42v2Z"/><circle class="cls-17" cx="354.76" cy="14.85" r="4.58"/><path class="cls-17" d="m292.76,51.43c-5.84,0-10.58-4.75-10.58-10.58s4.75-10.58,10.58-10.58,10.58,4.75,10.58,10.58-4.75,10.58-10.58,10.58Zm0-19.17c-4.73,0-8.58,3.85-8.58,8.58s3.85,8.58,8.58,8.58,8.58-3.85,8.58-8.58-3.85-8.58-8.58-8.58Z"/><path class="cls-17" d="m392.35,72.02c0,2.53-2.05,4.58-4.58,4.58s-4.58-2.05-4.58-4.58,2.05-4.58,4.58-4.58,4.58,2.05,4.58,4.58Z"/><circle class="cls-17" cx="301.76" cy="95.85" r="4.58"/><path class="cls-17" d="m352.76,133.43c-5.84,0-10.58-4.75-10.58-10.58s4.75-10.58,10.58-10.58,10.58,4.75,10.58,10.58-4.75,10.58-10.58,10.58Zm0-19.17c-4.73,0-8.58,3.85-8.58,8.58s3.85,8.58,8.58,8.58,8.58-3.85,8.58-8.58-3.85-8.58-8.58-8.58Z"/><circle class="cls-17" cx="262.76" cy="149.85" r="4.58"/><circle class="cls-17" cx="379.76" cy="186.85" r="4.58"/><path class="cls-17" d="m321.76,224.27c-5.84,0-10.58-4.75-10.58-10.58s4.75-10.58,10.58-10.58,10.58,4.75,10.58,10.58-4.75,10.58-10.58,10.58Zm0-19.17c-4.73,0-8.58,3.85-8.58,8.58s3.85,8.58,8.58,8.58,8.58-3.85,8.58-8.58-3.85-8.58-8.58-8.58Z"/><circle class="cls-17" cx="346.76" cy="241.85" r="4.58"/><path class="cls-17" d="m267.68,263.18c0,2.53-2.05,4.58-4.58,4.58s-4.58-2.05-4.58-4.58,2.05-4.58,4.58-4.58,4.58,2.05,4.58,4.58Z"/><path class="cls-17" d="m166.78,134.5c-6.41,0-11.63-5.22-11.63-11.63s5.22-11.63,11.63-11.63,11.63,5.22,11.63,11.63-5.22,11.63-11.63,11.63Zm0-20.26c-4.76,0-8.63,3.87-8.63,8.63s3.87,8.63,8.63,8.63,8.63-3.87,8.63-8.63-3.87-8.63-8.63-8.63Z"/></svg>