<?xml version="1.0" encoding="utf-8"?>
<!-- Generator: Adobe Illustrator 27.8.0, SVG Export Plug-In . SVG Version: 6.00 Build 0)  -->
<svg version="1.1" id="OBJECTS" xmlns="http://www.w3.org/2000/svg" xmlns:xlink="http://www.w3.org/1999/xlink" x="0px" y="0px"
	 viewBox="0 0 430.4 425.2" style="enable-background:new 0 0 430.4 425.2;" xml:space="preserve">
<style type="text/css">
	.st0{fill:#EDF0F2;}
	.st1{fill:none;stroke:#25688F;stroke-linecap:round;stroke-linejoin:round;}
	.st2{fill:none;stroke:#000000;stroke-width:2;stroke-linecap:round;stroke-linejoin:round;}
	.st3{fill:#242426;}
	.st4{fill:#DACAFC;}
	.st5{fill:#707070;}
	.st6{fill:#25688F;}
	.st7{fill:#1C1C1B;}
	.st8{fill:#1D1D1B;}
	.st9{clip-path:url(#SVGID_00000144306806140653322230000004894022535709803415_);}
	.st10{fill:#081132;}
	.st11{fill:none;stroke:#1D1D1B;stroke-linecap:round;stroke-linejoin:round;}
	.st12{fill:none;stroke:#081132;stroke-width:0.5;stroke-linecap:round;stroke-linejoin:round;}
	.st13{fill:#FFFFFF;}
	.st14{fill:none;stroke:#32A3D3;stroke-width:4;stroke-linecap:round;stroke-linejoin:round;}
	.st15{fill:#3C3B3D;}
	.st16{fill:#32A3D3;}
	.st17{fill:none;stroke:#1C1C1B;stroke-width:0.5;stroke-linecap:round;stroke-linejoin:round;}
	.st18{fill:#25688F;stroke:#32A3D3;stroke-miterlimit:10;}
	.st19{fill:#25688F;stroke:#32A3D3;stroke-linecap:round;stroke-linejoin:round;}
	.st20{fill:none;stroke:#000000;stroke-linecap:round;stroke-linejoin:round;}
	.st21{fill:none;stroke:#101C59;stroke-linecap:round;stroke-linejoin:round;}
	.st22{fill:none;stroke:#32A3D3;stroke-linecap:round;stroke-linejoin:round;}
	.st23{fill:#32A3D3;stroke:#32A3D3;stroke-miterlimit:10;}
	.st24{fill:none;stroke:#32A3D3;stroke-width:5;stroke-linecap:round;stroke-linejoin:round;}
</style>
<path class="st0" d="M270.6,316.4c-35.6-41.5-93.8-62.1-147.5-52.1c-15.1,2.8-29.9,7.9-42.5,16.8c-12.6,8.8-22.7,21.6-26.8,36.5
	c-5.5,20.1,1.5,43.1,17.2,56.8c11.2,9.7,25.7,14.5,40.1,18.1c28.3,7,57.7,9.9,86.8,8.6c17.2-0.8,34.6-3,50.3-10.3
	c14.4-6.7,28-18.9,35.2-33.3C291.1,342.6,280.2,327.5,270.6,316.4L270.6,316.4z"/>
<path class="st0" d="M335.2,293.4c6.6-10.5,14.5-20.4,24.7-27.2c10.3-6.8,23.1-10.4,35.1-7.6s22.6,12.8,24.2,25
	c1.2,9.1-2.3,18.1-6.2,26.4c-9.2,19.4-21.8,38-40,49.3c-14.5,9-45.2,18.2-53.5-3.3C311.9,336.2,325.1,309.7,335.2,293.4L335.2,293.4
	z"/>
<path class="st0" d="M158.4,4.4c23.1-1.1,46.4-0.5,69.3,0.7c29.9,1.6,60,4,88.8,12.3c32.4,9.2,64.7,26.6,84.3,54.8
	c19.4,27.8,31.3,70.8,18.1,103.5c-9,22.2-28.7,38.1-48.3,51.8c-19.6,13.7-40.4,26.9-53.8,46.8c-2.5,3.8-4.8,7.8-8.1,10.9
	c-3.3,3.1-8,5.1-12.4,3.9c-3.4-0.9-5.9-3.5-8.2-6.2c-8.2-9.2-15.2-19.7-24.7-27.5c-17.9-14.7-42.2-18.3-65.1-21.3
	c-25.9-3.4-51.7-6.9-77.6-10.3c-20.4-2.7-44.5-5.9-63.4-14.2C27,196.4,6,165.2,2.2,132.2C-2.3,92.6,16.5,43.7,53.9,26.9
	C86.8,12.1,122.3,6.1,158.4,4.4z"/>
<path class="st1" d="M262.6,402.8h-18.4c-2.8,0-5.1-2.3-5.1-5.2V273.5c0-2.9-2.3-5.2-5.1-5.2h-73"/>
<path class="st1" d="M268.2,386.2h-18.4c-2.8,0-5.1-2.3-5.1-5.2V262.9c0-2.9-2.3-5.2-5.1-5.2h-73"/>
<path class="st1" d="M262.1,365.5h-24.2c-2.4,0-4.3-1.9-4.3-4.3v-83.9c0-2.9-2.3-5.2-5.1-5.2H139"/>
<path class="st2" d="M179.7,410.5l17.9-129c0-0.4,0.6-0.5,0.7,0l19.5,129"/>
<polyline class="st2" points="83.6,409.6 103.9,325.4 134.7,409.6 "/>
<path class="st3" d="M38.7,289.8c-0.2-0.5-0.4-1.1-0.6-1.6C38.2,288.7,38.4,289.3,38.7,289.8z"/>
<path class="st3" d="M45,244.6c2.3,5.6,5,11,7.5,16.4c2.7,5.8,5.5,11.4,9,16.8c7.1,11.1,16.1,20.9,26.1,29.4
	c10.8,9.2,23.1,16.3,35.8,22.5c0.1,0,0.2,0.1,0.3,0.1c-2.6,0.1-5.2,0.1-7.9,0c-5.2-0.2-10.4-0.8-15.6-1.8c4.6,1.2,9.2,2.1,14.1,2.3
	c8,0.3,16-0.3,23.9-1.9c7.8-1.5,15.6-4,22.2-8.5c3-2,5.8-4.5,7.9-7.5c1.1-1.6,2.1-3.3,2.8-5.1c-0.1-0.2-0.1-0.4-0.1-0.6
	c-3.8-14.1-16.1-15.9-27-22.1c-11.5-6.6-21.4-16.1-28.3-27.5c-6.4-10.6-10.2-22.4-15.3-33.6c-4.8-10.4-11-15.8-21.9-19.7
	c-8.1-2.9-17-4.8-25.2-2.1c-7.2,2.4-12.6,8.3-16,15.3C37.8,226.6,41.4,236,45,244.6L45,244.6z"/>
<path class="st4" d="M160,268.6c0.1-5.5-0.1-10.5,1.3-16c1.9-7.2,7.4-11.2,14.4-13.4c1.5-0.5,3.2-0.8,4.7-0.3
	c1.7,0.6,2.8,2.4,3.5,4.1c2.2,5.6,1.1,11.9-0.1,17.8c-2.6,13.2-5.2,26.4-7.8,39.6c-0.1,0.8-0.4,1.6-1.1,2c-0.5,0.3-1.2,0.2-1.7,0.1
	c-5.9-1.2-11.6-3-17-5.6C158.5,297.9,160,269.8,160,268.6L160,268.6z"/>
<path class="st4" d="M174.2,346.6c4.3-1.2,6.5-1.6,10.7-3.3c0,19.2,2.7,51.5,2.6,57.1c-5.4,0.6-9.6,2.6-15.1,2.7
	c-4.3-6.6-6-25.5-8.4-32.8c-0.6-1.7-3-10.1-5.7-19.6C163.7,349.5,169,348.1,174.2,346.6L174.2,346.6z"/>
<path d="M164.3,308.1c6.2,1.4,12.6,2.1,18.9,3c3.3,0.5,10.1,2.4,13.2,0.1c4-3-2.5-4.7-5.5-6.3c-5.1-2.8-10.2-5.5-15.3-8.3
	c-4.7-2.5-10.7-8-15.5-2.7c-3.1,3.4-3.4,8.8-3.8,13.1C159,307.1,161.7,307.5,164.3,308.1L164.3,308.1z"/>
<path class="st5" d="M63.9,285.6c2.9-9.1,15.9-11.2,23.9-10.5c16.7,1.3,33.4,1.8,50,3.1c13.5,1.1,28.2,4,37.5,14.9
	c7.6,8.9,8.8,21,11,32.1c4,20.5,5.1,39.8,4.6,60.6c0,0.5,0,1-0.3,1.4c-0.4,0.5-1.1,0.6-1.7,0.7c-7.9,1.1-15.9,2.1-23.8,3.2
	c-0.5,0.1-1,0.1-1.4-0.1c-0.4-0.3-0.6-0.8-0.8-1.3c-1.2-4.3-17.6-69.9-16.5-70.1c-13.7,2.2-24.6,1.5-38.4,0.4
	c-9.8-0.8-19.7-2.5-28.2-7.4C71.6,308.1,60.5,296.2,63.9,285.6L63.9,285.6z"/>
<path class="st6" d="M59.9,282.1c1,1.5,0.9,2.8,1.4,3.6c2.5,0,5,0,7.5,0c6.6,0.1,13.2,0.2,19.7-1.2c5.6-1.2,11.2-2.9,16.7-4.8
	c8.4-3,16.2-5,15.6-15.4c-0.8-13.3-2.4-30,1.4-43c1.5-5.2,2.3-9.1,4.6-14.1c0.6-1.4,1.2-2.8,1.3-4.3c0.1-1.1-0.2-2.1-0.4-3.2
	c-4.2-17-18.3-17.2-33.3-18.6c-2.3-0.2-4.7-0.4-7,0c-2.8,0.5-6.2,1.3-8.6,2.8c-13.2,7.9-14,21.3-18,35c-2,6.9-5.1,13.4-7.1,20.3
	C49.4,254.1,51.4,269.3,59.9,282.1L59.9,282.1z"/>
<path d="M191.2,400.2c1.6,0.9,4,1.5,5.8,2c4.5,1.4,9.1,2.1,13.5,3.7c2.3,0.8,4.5,3.7,2,5.8c-1.1,0.9-2.6,1.1-4,1.3
	c-11.2,1.3-22.5,0.7-33.8,0c-0.6,0-1.3-0.1-1.7-0.5c-0.2-0.2-0.4-0.6-0.5-0.9c-1.4-3.6-2.3-7.6-3.2-11.3c1.5-0.4,3.1,0.3,4.6,0.4
	c2,0.1,4.1,0.3,5.9-0.7c2.4-1.3,4.6-3,6.6-5c0.2-0.2,0.4-0.4,0.6-0.5c0.8-0.3,1.6,0.5,1.8,1.3c0.5,1.6,0.5,3.3,2,4.3
	C191.1,400.1,191.1,400.1,191.2,400.2L191.2,400.2z"/>
<path class="st7" d="M159.6,265c-0.1-1.9,0-3.6,1.7-4.3c2.4-0.9,3.2,0.4,4.7-2.1c2.9-4.8,5-10.8,7-16.1c2.4-6.4,6.9-14.6,6.7-21.5
	c0-0.4,0-0.7-0.2-1c-0.2-0.3-0.7-0.5-1.1-0.6c-3.5-0.9-7.2-0.8-10.9-0.6c-24.1,1.6-37.5,27.8-48.8,45.7
	c-1.7,2.7-11.7,15.7-14.3,15.5c9.2,0.7,16.3,5.4,24.8,8c5.2,1.6,11,6.3,15.8,6.9c1.6,0.2,8-11.7,9-13.2c2.5-4.1,5.9-8.7,5.9-13.7
	C159.8,267.1,159.6,266,159.6,265L159.6,265z"/>
<path class="st7" d="M188.2,267.2c-0.6,4.1-1.2,8-2.2,12c-0.1,0.4-0.2,0.7-0.4,1c-0.4,0.4-1,0.5-1.6,0.5c-1.2-0.1-2.4-0.4-3.5-0.6
	c-7.3-1.4-19.4,3.5-25.1-3.3c-1.1-1.4-1.5-3.2-1.7-5c-1.7-12.8,2.3-25.2,2.2-38.1c-0.1-6.9,2.4-11,5.9-16.6c3.3-5.4,8-7.2,14-5.1
	c10.1,3.4,15.9,14.2,15.4,24.4C190.7,246.6,189.6,257,188.2,267.2L188.2,267.2z"/>
<path class="st4" d="M94.3,168.1c-0.1,1.2,2.5,4.1,3.3,4.9c1.2,1.4,2.7,2.5,4.5,3.2c4.6,1.8,9.4,2,12.9-1.8c1.7-1.8,2.9-4,3.8-6.3
	c1.5-3.5,3.5-13.1,2.6-16.7c-0.8-3.3-4.4-0.4-7.6-1.5c-2.8-1-4.9-1.8-7.9-1.3c-2.7,0.5-5.2,1.8-6.9,4c-0.4,0.6-0.9,1.2-1.2,1.8
	c-0.9,1.9-1.7,3.8-2.3,5.8c-0.5,1.7-0.7,3.4-0.9,5.1C94.4,166.2,94.4,167.2,94.3,168.1L94.3,168.1z"/>
<path class="st4" d="M92.4,190.2c2.7,1.9,5.9,3.1,9.2,3.4c0.6,0.1,8.5-0.8,7.4-2.3c-3-3.9-1.3-7.4,0.5-11.7c0.3-0.7,2.8-4.7,2.5-5.1
	c-0.1-0.1-0.2-0.2-0.3-0.4c-0.6-0.6-1.5-0.6-2.3-0.6c-3.1,0-6-1-8.5-2.8c-1.2-0.9-2.3-1.9-3.3-2.9c-0.6-0.6-1.7-2.7-2.6-2.8
	c-0.1,0-0.2,0-0.2,0.1c-1.1,4.2-1.6,7.9-3.7,12c-1.6,3.1-5.7,4.7-6.8,4.9C86.1,185.2,89.3,188.1,92.4,190.2L92.4,190.2z"/>
<path class="st8" d="M101.2,161.8c0.1-0.6,0.2-1.4,0.8-1.7c0.6-0.3,1.3,0.2,1.9,0.4c2.1,0.5,4-1.8,5.2-3.2c0.2-0.3,0.5-0.6,0.7-0.8
	c1.4-1.4,2.8-2.1,5.1-1.9c2.3,0.2,4.6,1,6.8,0.5c2.5-0.5,4.6-2.6,5.1-5.1c0.9-4-2.3-9.4-6.8-8.6c-1.2,0.2-2.5,0.8-3.6,0.2
	c-0.6-0.4-0.9-1-1.4-1.6c-1.6-2.1-4.7-3-7.2-2c-0.7,0.3-1.2,0.7-1.9,0.9c-1.3,0.4-2.7,0.1-4,0c-1.6-0.1-3.2,0.2-4.6,1.1
	s-2.2,2.6-1.9,4.1c0.1,0.5,0.3,0.9,0.2,1.4c-0.2,1.6-2.8,1.7-3.6,3.2c-0.7,1.4,0.6,3.1,0.2,4.7c-0.2,0.9-1.1,1.6-1.2,2.6
	c-0.1,1.2,0.9,2,1.4,2.9c0.5,1.1,1,2.5,1.1,3.6c0.2,2.4-1.2,5,2.3,4.7C98.9,167,100.9,164.7,101.2,161.8L101.2,161.8z"/>
<path class="st6" d="M146.3,224.3c1.4,1.7,2.6,3.4,6.6,3.2c5.1-0.3,10.1-3,13.1-7.3c0.8-1.2,1.5-2.5,1.7-4
	c1.2-8.6-8.5-14.3-14.7-17.8c-7.1-4-14.8-6.8-22.5-9.3c-6.8-2.2-14-6-21.4-5.4c-0.2,0-0.4,0.1-0.6,0.1c0.1,1,0.1,1.9,0.1,2.9
	c3.4,5.3,5.5,11.7,6.8,17.8c0.9,4,2.8,8.6,2.4,12.7c8.2,1.1,16.3,2.6,24.3,4.4C144.3,222,145.3,223.2,146.3,224.3L146.3,224.3z"/>
<path class="st4" d="M158.6,206c-3.1,0.4-5.8,2.7-7.3,5.5c-1.5,2.8-2.1,5.9-2.7,9.1c-1.6,8.9-2.2,19.2-5.2,27.7
	c-1.8,5.3-9,12.6-5.5,18.6c1,1.8,3.2,2.8,5.2,2.4c3.6-0.7,5.2-4.7,6.7-8c1.9-4.3,4.8-7.5,7.4-11.3c3.2-4.7,5.6-10.4,7.9-15.6
	c3-6.6,5.7-14.2,3.2-21C167,209.2,163,205.5,158.6,206L158.6,206z"/>
<g>
	<defs>
		<path id="SVGID_1_" d="M118.9,198.8c0-0.1,0-0.3,0.1-0.4c-0.9-3.3-5.6-3.2-8.3-4.6c-0.5-0.3-1-0.6-1.4-1c-0.1-0.1-0.1-0.1-0.2-0.2
			c-0.8-0.9-1.3-2.1-1.5-3.4c-0.8-5.3,1.9-10.1,4.3-14.8c-0.1-0.1-0.2-0.2-0.3-0.4c-0.6-0.6-1.5-0.6-2.3-0.6c-3.1,0-6-1-8.5-2.8
			c-1.2-0.9-2.3-1.9-3.3-2.9c-0.6-0.6-1.7-2.7-2.6-2.8c-0.1,0-0.2,0-0.2,0.1c-1.1,4.2-1.1,8.2-3.7,12c-1,1.4-2.1,2.7-3.4,3.6
			c-0.7,0.7-1.6,1.2-2.8,1.4c-0.3,0.1-0.6,0.1-0.9,0.1c-0.1,0-0.2,0.1-0.4,0.1c-0.2,0-0.3,0-0.4-0.1c-1.9-0.1-3.9-0.5-5.3,0.6
			c-0.7,0.5-1.1,1.3-1.5,2.1c-2.5,5.9-0.7,13.7,2.4,19c2.4,4.1,6.6,7.8,11.2,9.1c4.3,1.2,8.9,0.2,13-1.3c1.8-0.7,3.5-1.3,5.2-2.1
			c5-2.3,9.3-4.9,10.6-10.6C118.9,199,118.9,198.9,118.9,198.8L118.9,198.8z"/>
	</defs>
	<clipPath id="SVGID_00000132055837900054270240000012181552664558499751_">
		<use xlink:href="#SVGID_1_"  style="overflow:visible;"/>
	</clipPath>
	<g style="clip-path:url(#SVGID_00000132055837900054270240000012181552664558499751_);">
		<path class="st10" d="M102.4,175.8c0.1,0.1,0.3,0.1,0.4,0.2c2.6,1.1,5.4,1.7,8.2,1.3c0.7,0.3,0.5,0.9,0.1,1.9
			c-0.5,1.4-0.9,2.9-1.3,4.3c-2.5-2.6-5.1-5.2-7.6-7.8C102.3,175.7,102.4,175.8,102.4,175.8L102.4,175.8z"/>
	</g>
</g>
<path class="st6" d="M62.9,193.9c-5.2,5.9-7.3,13.9-9,21.4c-2.3,9.7-4.5,19.4-6.8,29.1c-0.5,2.3-1.1,4.6-1.1,6.9
	c-0.1,3.8,1,8.5,1.8,12.1c1.1,4.6,3.9,4.4,8,3.9c6.5-0.6,15.3-2.6,19.7-8c2.1-2.5,2.8-5.9,3.4-9.1c0.8-4.4,1.7-8.9,2.5-13.3
	c3.4-18.1,6.8-36.9,2.9-54.9C75.1,183.4,68.2,187.7,62.9,193.9L62.9,193.9z"/>
<path class="st11" d="M84.4,211.9c-7.5,2-6.8,11.6-7.5,17.6c-1,8.8-2.7,17.5-5,26.1"/>
<path class="st12" d="M164.1,233.1c-2.9,12.4-9.4,31.4-9.6,44.2"/>
<path class="st13" d="M110.5,169c0.4,1.2,1.4,2,2.5,2.2c1.1,0.1,2.2-0.4,2.9-1.4"/>
<path class="st14" d="M41,274.6c20.8-4.8,38.4-8.2,57.1,0.6c12.2,5.8,20.4,16.5,22.7,27.9s-1.4,19.4-11.4,24.5"/>
<path class="st12" d="M150.1,321.2c-0.6-4.3-0.7-9.7-1.3-14"/>
<path class="st12" d="M154.9,281.5c-13.4-2-22-0.2-39.2-0.2"/>
<path class="st4" d="M97.2,161.3c0,2.2,1.8,4,4,4s4-1.8,4-4s-1.8-4-4-4S97.2,159.1,97.2,161.3z"/>
<path d="M124.6,330.3c-0.1,0-1.1-0.5-1.2-0.5c-12.7-6.2-25-13.3-35.8-22.5c-10-8.5-19-18.4-26.1-29.4c-3.5-5.4-6.2-11-9-16.8
	c-2.6-5.4-5.2-10.9-7.5-16.4c-3.6-8.5-7.2-17.9-7.8-27.4c-1.9,3.9-3.2,8.2-4,12.4c-3,18.4-1,40.8,4.8,58.6c0.2,0.6,0.4,1.1,0.6,1.6
	c3.8,10.6,11.5,20,26,28.2c25.6,14.6,45.9,12.4,51.1,12.6C118.4,330.7,122,330.4,124.6,330.3L124.6,330.3z"/>
<path class="st4" d="M73.7,247.5c4,0.9,8,2.2,11.9,3.4c6.3,1.9,12.6,3,19,4.7c1.8,0.5,3.7,1,5.5,1c3.2,0,6.3-1.3,9.6-1.4
	c4.3-0.1,8.5,2.3,10.9,5.9c3.9,6.1-2.6,4.4-6.7,4.4c-3.2,0-6.4-0.1-9.6-0.1c-12.6-0.2-24.5,0.5-37.2,1.5c-6.9,0.6-18.9,2.2-25-1.9
	c-3-2-7.9-11.7-5.1-14.6c0.5-0.5,1.2-0.9,1.9-1.1c6.2-2.5,12.9-3.4,19.5-2.7C70.2,246.8,71.9,247.2,73.7,247.5L73.7,247.5z"/>
<path class="st15" d="M36.1,245.9c0.2,2.6,0.6,5.2,1,7.7c0.5,3.2,1,6.4,1.8,9.5c0.7,2.8,1.6,5.5,3.4,7.7c2.9,3.6,8.3,5,12.7,3.6
	c3.5-1.1,3-2.4,1.5-5.2c-3-6-6.2-12.2-8.8-18.4c-2.7-6.3-5.1-12.2-7.3-18.7c-0.5-1.4-0.9-2.7-1.3-4.1c-0.6-2.1-1-4.2-1.3-6.3
	c0.3,1.9-0.3,4.3-0.5,6.2c-0.2,2.2-0.5,4.3-0.8,6.5C36,238.2,35.8,242,36.1,245.9L36.1,245.9z"/>
<path class="st2" d="M17,410.5l18.8-129c0-0.4,0.7-0.5,0.7,0l20.5,129"/>
<rect x="24.2" y="277.5" class="st16" width="185.9" height="5.7"/>
<path class="st17" d="M103,160.7c-0.2-1.4-2.2-2.2-3.4-1.4"/>
<path d="M81.1,273.8h83.7c0.8,0,1.5,0.7,1.5,1.5v0.9c0,0.8-0.7,1.5-1.5,1.5H81.1c-0.8,0-1.5-0.7-1.5-1.5v-0.9
	C79.6,274.5,80.3,273.8,81.1,273.8z"/>
<path d="M166.5,277.7H92.4l6.4-42.6c0.2-1.5,1.5-2.6,2.9-2.6H170c1.8,0,3.1,1.6,2.8,3.4L166.5,277.7L166.5,277.7z"/>
<line class="st1" x1="134.9" y1="253.7" x2="138.2" y2="256.4"/>
<line class="st1" x1="130.7" y1="253.7" x2="133.9" y2="256.4"/>
<path class="st11" d="M144.9,217.4c-0.2,2.8,1.3,6.4,2.5,8.1"/>
<path class="st18" d="M314.1,142.8c-1,0.3-1.9,0.7-2.8,1.1c0.1,0.1,0.1,0.1,0.2,0.2c0.9,1.1,0.6,2.8-0.5,3.6s-2.8,0.6-3.6-0.5
	c-0.1-0.1-0.1-0.2-0.1-0.2c-0.7,0.7-1.3,1.5-1.9,2.4c0.1,0,0.2,0.1,0.3,0.1c1.3,0.6,1.9,2.1,1.4,3.4c-0.5,1.3-2.1,1.9-3.4,1.4
	c-0.1,0-0.2-0.1-0.3-0.2c-0.2,1-0.4,2-0.4,3c0.1,0,0.2-0.1,0.3-0.1c1.4-0.2,2.7,0.8,2.9,2.2c0.2,1.4-0.8,2.7-2.2,2.9
	c-0.1,0-0.2,0-0.4,0c0.3,1,0.7,2,1.1,2.9c0.1-0.1,0.2-0.2,0.3-0.2c1.1-0.9,2.8-0.6,3.6,0.5c0.9,1.1,0.6,2.8-0.5,3.6
	c-0.1,0.1-0.2,0.1-0.3,0.2c0.7,0.7,1.6,1.4,2.4,1.9c0-0.1,0.1-0.2,0.1-0.4c0.5-1.3,2.1-1.9,3.4-1.4s1.9,2.1,1.4,3.4
	c-0.1,0.1-0.1,0.2-0.2,0.4c1,0.2,2,0.4,3.1,0.4c0-0.1-0.1-0.3-0.1-0.4c-0.2-1.4,0.8-2.7,2.2-2.9c1.4-0.2,2.7,0.8,2.9,2.2
	c0,0.1,0,0.3,0,0.4c1-0.3,2-0.7,2.9-1.2c-0.1-0.1-0.2-0.2-0.3-0.3c-0.9-1.1-0.6-2.8,0.5-3.6s2.8-0.6,3.6,0.5
	c0.1,0.1,0.1,0.2,0.2,0.4c0.7-0.8,1.4-1.6,1.9-2.4c-0.1,0-0.2-0.1-0.4-0.1c-1.3-0.6-1.9-2.1-1.4-3.4c0.5-1.3,2.1-1.9,3.4-1.4
	c0.1,0.1,0.2,0.1,0.3,0.2c0.2-1,0.4-2,0.4-3.1c-0.1,0-0.2,0.1-0.3,0.1c-1.4,0.2-2.7-0.8-2.9-2.2c-0.2-1.4,0.8-2.7,2.2-2.9
	c0.1,0,0.2,0,0.3,0c-0.3-1-0.7-1.9-1.1-2.8c-0.1,0.1-0.1,0.1-0.2,0.2c-1.1,0.9-2.8,0.6-3.6-0.5c-0.9-1.1-0.6-2.8,0.5-3.6
	c0.1-0.1,0.2-0.1,0.3-0.2c-0.7-0.7-1.5-1.3-2.4-1.9c0,0.1,0,0.2-0.1,0.3c-0.5,1.3-2.1,1.9-3.4,1.4s-1.9-2.1-1.4-3.4
	c0-0.1,0.1-0.2,0.1-0.2c-1-0.2-2-0.4-3-0.4c0,0.1,0,0.2,0.1,0.3c0.2,1.4-0.8,2.7-2.2,2.9c-1.4,0.2-2.7-0.8-2.9-2.2
	C314,143,314.1,142.9,314.1,142.8L314.1,142.8z M317.1,147.4c5.7-0.7,11,3.4,11.7,9.2s-3.4,11-9.1,11.8c-5.7,0.7-11-3.4-11.7-9.2
	S311.4,148.1,317.1,147.4z"/>
<path class="st18" d="M317,170.5c6.9,0.8,13.2-4.2,14-11.2c0.8-7-4.2-13.3-11.2-14s-13.2,4.2-14,11.2S310.1,169.7,317,170.5
	L317,170.5z M310.5,157.1c0.5-4.2,4.5-7.2,8.9-6.8s7.6,4.2,7,8.4c-0.5,4.2-4.5,7.2-8.9,6.8S309.9,161.2,310.5,157.1z"/>
<path class="st18" d="M229.8,166.5c-0.8,0.2-1.6,0.6-2.3,0.9c0.1,0.1,0.1,0.1,0.1,0.2c0.7,1,0.5,2.3-0.4,3.1s-2.2,0.5-2.9-0.4
	c-0.1-0.1-0.1-0.1-0.1-0.2c-0.6,0.6-1.1,1.3-1.5,2c0.1,0,0.1,0,0.2,0.1c1.1,0.5,1.6,1.8,1.1,2.9c-0.4,1.1-1.7,1.6-2.8,1.1
	c-0.1,0-0.2-0.1-0.2-0.1c-0.2,0.8-0.3,1.7-0.4,2.6c0.1,0,0.2-0.1,0.3-0.1c1.1-0.1,2.2,0.7,2.3,1.9s-0.7,2.3-1.8,2.4
	c-0.1,0-0.2,0-0.3,0c0.2,0.9,0.6,1.7,0.9,2.4c0.1-0.1,0.1-0.1,0.2-0.2c0.9-0.7,2.2-0.5,2.9,0.4c0.7,1,0.5,2.3-0.4,3.1
	c-0.1,0.1-0.2,0.1-0.3,0.2c0.6,0.6,1.3,1.2,2,1.6c0-0.1,0.1-0.2,0.1-0.3c0.4-1.1,1.7-1.6,2.8-1.1s1.6,1.8,1.1,2.9
	c-0.1,0.1-0.1,0.2-0.2,0.3c0.8,0.2,1.6,0.3,2.5,0.4c0-0.1-0.1-0.2-0.1-0.3c-0.1-1.2,0.7-2.3,1.8-2.4c1.1-0.1,2.2,0.7,2.3,1.9
	c0,0.1,0,0.2,0,0.4c0.8-0.2,1.6-0.6,2.4-1c-0.1-0.1-0.2-0.2-0.2-0.2c-0.7-1-0.5-2.3,0.4-3.1s2.2-0.5,2.9,0.4
	c0.1,0.1,0.1,0.2,0.2,0.3c0.6-0.6,1.1-1.3,1.6-2.1c-0.1,0-0.2-0.1-0.3-0.1c-1.1-0.5-1.6-1.8-1.1-2.9c0.4-1.1,1.7-1.6,2.8-1.1
	c0.1,0,0.2,0.1,0.3,0.2c0.2-0.8,0.3-1.7,0.3-2.6c-0.1,0-0.2,0.1-0.3,0.1c-1.1,0.1-2.2-0.7-2.3-1.9c-0.1-1.2,0.7-2.3,1.8-2.4
	c0.1,0,0.2,0,0.3,0c-0.2-0.8-0.6-1.6-0.9-2.4c-0.1,0.1-0.1,0.1-0.2,0.2c-0.9,0.7-2.2,0.5-2.9-0.4c-0.7-1-0.5-2.3,0.4-3.1
	c0.1-0.1,0.1-0.1,0.2-0.1c-0.6-0.6-1.2-1.1-1.9-1.6c0,0.1,0,0.1-0.1,0.2c-0.4,1.1-1.7,1.6-2.8,1.1s-1.6-1.8-1.1-2.9
	c0-0.1,0.1-0.1,0.1-0.2c-0.8-0.2-1.6-0.3-2.4-0.4c0,0.1,0,0.1,0.1,0.2c0.1,1.2-0.7,2.3-1.8,2.4c-1.1,0.1-2.2-0.7-2.3-1.9
	C229.7,166.7,229.7,166.6,229.8,166.5L229.8,166.5z M232.3,170.4c4.7-0.6,9,2.9,9.6,7.8c0.6,4.9-2.7,9.3-7.4,9.9s-9-2.9-9.6-7.8
	C224.3,175.4,227.6,171,232.3,170.4z"/>
<path class="st18" d="M232.4,188.6c5,0.6,9.4-3.1,10-8.3c0.5-5.2-3.1-9.9-8-10.4s-9.4,3.1-10,8.3C223.8,183.3,227.4,188,232.4,188.6
	z M227,178.5c0.4-3.5,3.6-6,7.1-5.6c3.5,0.4,6.1,3.5,5.7,7s-3.6,6-7.1,5.6C229.1,185.1,226.6,182,227,178.5z"/>
<path class="st18" d="M266.8,140.9c-1.7,0.5-3.4,1.2-4.9,2c0.1,0.1,0.2,0.2,0.3,0.4c1.5,2,1.1,4.9-0.9,6.4s-4.8,1.1-6.3-0.9
	c-0.1-0.1-0.2-0.3-0.3-0.4c-1.2,1.3-2.3,2.7-3.3,4.2c0.2,0.1,0.3,0.1,0.5,0.1c2.3,1,3.4,3.6,2.4,6c-1,2.3-3.6,3.4-5.9,2.4
	c-0.2-0.1-0.3-0.2-0.5-0.3c-0.4,1.7-0.7,3.5-0.8,5.3c0.2-0.1,0.4-0.1,0.6-0.1c2.5-0.3,4.7,1.5,5.1,4c0.3,2.5-1.4,4.8-3.9,5.1
	c-0.2,0-0.4,0-0.6,0c0.5,1.8,1.2,3.5,2,5.1c0.1-0.1,0.3-0.3,0.5-0.4c2-1.5,4.8-1.1,6.3,0.9c1.5,2,1.1,4.9-0.9,6.4
	c-0.2,0.1-0.4,0.2-0.6,0.4c1.3,1.3,2.7,2.4,4.3,3.4c0.1-0.2,0.1-0.4,0.2-0.7c1-2.3,3.6-3.4,5.9-2.4c2.3,1,3.4,3.6,2.4,6
	c-0.1,0.2-0.2,0.4-0.4,0.6c1.8,0.4,3.6,0.7,5.4,0.8c-0.1-0.2-0.1-0.5-0.2-0.7c-0.3-2.5,1.5-4.8,3.9-5.1c2.5-0.3,4.7,1.5,5,3.9
	c0,0.2,0,0.5,0,0.8c1.8-0.5,3.5-1.2,5.1-2.1c-0.2-0.2-0.3-0.3-0.5-0.5c-1.5-2-1.1-4.9,0.9-6.4s4.8-1.1,6.3,0.9
	c0.1,0.2,0.3,0.4,0.4,0.6c1.2-1.3,2.4-2.8,3.4-4.3c-0.2-0.1-0.4-0.1-0.6-0.2c-2.3-1-3.4-3.6-2.4-6c1-2.3,3.6-3.4,5.9-2.4
	c0.2,0.1,0.4,0.2,0.6,0.3c0.4-1.7,0.7-3.5,0.7-5.4c-0.2,0.1-0.4,0.1-0.6,0.1c-2.5,0.3-4.7-1.5-5-4c-0.3-2.5,1.5-4.8,3.9-5.1
	c0.2,0,0.4,0,0.6,0c-0.5-1.8-1.2-3.4-2-5c-0.1,0.1-0.2,0.3-0.4,0.4c-2,1.5-4.8,1.1-6.3-0.9c-1.5-2-1.1-4.9,0.9-6.4
	c0.1-0.1,0.3-0.2,0.5-0.3c-1.3-1.2-2.7-2.3-4.2-3.3c0,0.2-0.1,0.3-0.1,0.5c-1,2.3-3.6,3.4-5.9,2.4c-2.3-1-3.4-3.6-2.4-6
	c0.1-0.2,0.2-0.3,0.2-0.4c-1.7-0.4-3.5-0.7-5.2-0.7c0,0.1,0.1,0.3,0.1,0.4c0.3,2.5-1.5,4.8-3.9,5.1c-2.5,0.3-4.7-1.5-5-4
	C266.7,141.2,266.8,141,266.8,140.9L266.8,140.9z M272.3,150.2c9.4-1.2,18,5.5,19.1,15c1.2,9.4-5.5,18.1-14.9,19.2s-18-5.5-19.1-15
	C256.3,160,262.9,151.4,272.3,150.2z"/>
<path class="st19" d="M272.1,188.3c11.5,1.3,21.9-7.1,23.2-18.6s-7-22-18.5-23.3s-21.9,7-23.2,18.6
	C252.3,176.5,260.6,187,272.1,188.3z M260.5,165.8c0.9-7.8,7.8-13.4,15.6-12.5c7.7,0.9,13.3,7.9,12.4,15.6
	c-0.9,7.8-7.8,13.4-15.6,12.5C265.2,180.6,259.6,173.5,260.5,165.8z"/>
<path class="st20" d="M177.6,26.9c2.1-2.5,5.9-2.8,8.4-0.6c2.5,2.2,2.8,5.9,0.6,8.5"/>
<ellipse class="st20" cx="194.5" cy="51.4" rx="5.7" ry="5.7"/>
<path class="st16" d="M341.6,71.4c-0.1-8.2,7-14.6,14.7-14.2c2.7,0.1,5.2,1,7.2,2.5c3.2-3.7,8-6,13.3-5.7c7.2,0.3,14.2,5.3,14.8,12
	c7.1,2,12.4,8.6,12.1,16.4c-0.2,4.8-2.5,9-5.9,11.8c0.9,2.4,0.8,5.3-0.8,8.2c-0.8,1.5-2.2,2.8-3.7,3.5c-2.9,1.4-5.6,1.3-7.9,0.4
	l-0.2,13.3c0,0.8-1,1.1-1.5,0.5l-6.9-10.1c-6.5,2.7-12.3-1.3-12.7-7.2c-1.7,0.9-3.7,1.3-5.7,1.2c-5.9-0.3-10.6-5-11-10.8
	c-3.2,1.9-7.5,2.3-11.7,0.2c-2.3-1.2-4.1-3.2-5.1-5.6C327.4,79.1,333.7,71.3,341.6,71.4L341.6,71.4z"/>
<path class="st16" d="M389.4,87.7c3.8,0.2,7,2.6,8.4,5.9"/>
<path class="st16" d="M347.5,92.2c0.3-6.5,5.8-11.4,12.2-11.1"/>
<path class="st16" d="M340.6,71.4c2.5-0.2,4.8,0.4,6.7,1.6"/>
<path class="st16" d="M353.9,62.4c5.2,0.2,9.1,4.7,8.9,9.8"/>
<path class="st16" d="M362.1,98.2c-4.5,0.4-8.6-2.9-9-7.5"/>
<path class="st16" d="M336,86c-1.4-3.9,0.7-8.2,4.6-9.5"/>
<path class="st16" d="M392.9,97c-1,3-4.1,4.6-7.1,3.7"/>
<path class="st16" d="M379.3,68.3c3.4-2.4,7.8-3.2,12.2-2.3"/>
<path class="st16" d="M394.1,73.1c2.3,1.7,3.8,4.4,3.9,7.6"/>
<path class="st16" d="M369.1,76.7c2.9-0.6,6,0.8,7.6,3.3c1.5,2.5,1.4,6-0.4,8.3"/>
<path class="st16" d="M368.2,91c-1,0.9-1.5,2.3-1.3,3.7s1.1,2.6,2.3,3.2"/>
<polygon class="st6" points="294.8,27.7 295.3,69.9 286.5,70 286,27.8 "/>
<polygon class="st16" points="275.3,34.7 275.6,70 266.8,70.1 266.5,34.7 "/>
<polygon class="st6" points="246.9,40 247.2,70.2 256,70.1 255.7,40 "/>
<polygon class="st16" points="237.6,54 237.8,70.2 229,70.3 228.8,54.1 "/>
<line class="st21" x1="302.6" y1="69.9" x2="225.3" y2="70.4"/>
<line class="st20" x1="268.1" y1="37.3" x2="268.1" y2="46.9"/>
<line class="st20" x1="288.1" y1="52.2" x2="288.1" y2="64.3"/>
<line class="st20" x1="230.1" y1="58.5" x2="230.1" y2="62.5"/>
<path class="st20" d="M248.7,50.9v1.7"/>
<path class="st11" d="M123.1,218c0.1-1.6,0-3.2-0.3-4.7"/>
<polyline class="st22" points="338.6,106.1 318.7,126.2 239.5,126.2 214.9,151.3 "/>
<polyline class="st22" points="339.2,114.8 321.5,132.6 251.5,132.6 224.4,159.8 "/>
<line class="st22" x1="320.2" y1="77.2" x2="198.6" y2="77.2"/>
<polyline class="st22" points="316.6,96.2 219.1,96.2 198.5,116.8 "/>
<polyline class="st22" points="281.6,108.1 270.7,119 221.2,119 207.3,133 "/>
<line class="st22" x1="226.5" y1="107.6" x2="266.6" y2="107.6"/>
<line class="st22" x1="304.3" y1="86.2" x2="234.2" y2="86.2"/>
<line class="st22" x1="290.3" y1="112.4" x2="315.9" y2="112.4"/>
<path class="st23" d="M323.6,77c0,1.9-1.5,3.4-3.4,3.4s-3.4-1.5-3.4-3.4s1.5-3.4,3.4-3.4S323.6,75.1,323.6,77z"/>
<path class="st23" d="M202,77c0,1.9-1.5,3.4-3.4,3.4s-3.4-1.5-3.4-3.4s1.5-3.4,3.4-3.4S202,75.1,202,77z"/>
<ellipse class="st23" cx="314.9" cy="112.9" rx="3.4" ry="3.4"/>
<ellipse class="st23" cx="266.6" cy="107.6" rx="3.4" ry="3.4"/>
<path class="st23" d="M283.5,107.6c0,1.9-1.5,3.4-3.4,3.4s-3.4-1.5-3.4-3.4s1.5-3.4,3.4-3.4S283.5,105.7,283.5,107.6z"/>
<ellipse class="st23" cx="228.4" cy="107.1" rx="3.4" ry="3.4"/>
<path class="st23" d="M219.3,149.8c0,1.9-1.5,3.4-3.4,3.4s-3.4-1.5-3.4-3.4s1.5-3.4,3.4-3.4S219.3,148,219.3,149.8z"/>
<ellipse class="st23" cx="224.6" cy="159.7" rx="3.4" ry="3.4"/>
<ellipse class="st23" cx="208.6" cy="130.9" rx="3.4" ry="3.4"/>
<ellipse class="st23" cx="293.2" cy="112.9" rx="3.4" ry="3.4"/>
<path class="st23" d="M320,96.2c0,1.9-1.5,3.4-3.4,3.4s-3.4-1.5-3.4-3.4s1.5-3.4,3.4-3.4S320,94.3,320,96.2z"/>
<path class="st23" d="M342.6,114.8c0,1.9-1.5,3.4-3.4,3.4s-3.4-1.5-3.4-3.4s1.5-3.4,3.4-3.4S342.6,112.9,342.6,114.8z"/>
<path class="st23" d="M341.7,105.9c0,1.9-1.5,3.4-3.4,3.4s-3.4-1.5-3.4-3.4s1.5-3.4,3.4-3.4S341.7,104,341.7,105.9z"/>
<ellipse class="st23" cx="304.3" cy="86.2" rx="3.4" ry="3.4"/>
<ellipse class="st23" cx="234.2" cy="86.2" rx="3.4" ry="3.4"/>
<ellipse class="st23" cx="199.9" cy="115.8" rx="3.4" ry="3.4"/>
<path class="st6" d="M41.9,78.3L41.9,78.3c0,1,0.8,1.9,1.9,1.9h35.8c1,0,1.9-0.8,1.9-1.9l0,0c0-1-0.8-1.9-1.9-1.9H43.8
	C42.7,76.4,41.9,77.2,41.9,78.3z"/>
<path class="st6" d="M98.9,76.4H87.5c-1,0-1.9,0.8-1.9,1.9l0,0c0,1,0.8,1.9,1.9,1.9h11.4c1,0,1.9-0.8,1.9-1.9l0,0
	C100.8,77.2,99.9,76.4,98.9,76.4z"/>
<path class="st6" d="M87.5,85.6H54.9c-1,0-1.9,0.8-1.9,1.9l0,0c0,1,0.8,1.9,1.9,1.9h32.5c1,0,1.9-0.8,1.9-1.9l0,0
	C89.3,86.4,88.5,85.6,87.5,85.6z"/>
<path class="st6" d="M92.5,87.5L92.5,87.5c0,1,0.8,1.9,1.9,1.9h6.9c1,0,1.9-0.8,1.9-1.9l0,0c0-1-0.8-1.9-1.9-1.9h-6.9
	C93.3,85.6,92.5,86.4,92.5,87.5z"/>
<path class="st6" d="M47.9,85.6h-4.1c-1,0-1.9,0.8-1.9,1.9l0,0c0,1,0.8,1.9,1.9,1.9h4.1c1,0,1.9-0.8,1.9-1.9l0,0
	C49.7,86.4,48.9,85.6,47.9,85.6z"/>
<path class="st6" d="M35.7,85.6H19.3c-1,0-1.9,0.8-1.9,1.9l0,0c0,1,0.8,1.9,1.9,1.9h16.4c0.6,0,1.1-0.5,1.1-1.1v-1.5
	C36.8,86.1,36.3,85.6,35.7,85.6L35.7,85.6z"/>
<path class="st6" d="M58.2,96L58.2,96c0,1,0.8,1.9,1.9,1.9h40.5c1,0,1.9-0.8,1.9-1.9l0,0c0-1-0.8-1.9-1.9-1.9H60.1
	C59.1,94.2,58.2,95,58.2,96z"/>
<path class="st6" d="M29.4,96L29.4,96c0,1,0.8,1.9,1.9,1.9h18.9c1,0,1.9-0.8,1.9-1.9l0,0c0-1-0.8-1.9-1.9-1.9H31.3
	C30.2,94.2,29.4,95,29.4,96z"/>
<path class="st6" d="M15.5,105.2L15.5,105.2c0,1,0.8,1.9,1.9,1.9h2.5c1,0,1.9-0.8,1.9-1.9l0,0c0-1-0.8-1.9-1.9-1.9h-2.5
	C16.3,103.4,15.5,104.2,15.5,105.2z"/>
<path class="st6" d="M24.2,105.2L24.2,105.2c0,1,0.8,1.9,1.9,1.9h24.4c1,0,1.9-0.8,1.9-1.9l0,0c0-1-0.8-1.9-1.9-1.9H26.1
	C25,103.4,24.2,104.2,24.2,105.2z"/>
<path class="st6" d="M56.2,105.2L56.2,105.2c0,1,0.8,1.9,1.9,1.9h9c1,0,1.9-0.8,1.9-1.9l0,0c0-1-0.8-1.9-1.9-1.9h-9
	C57.1,103.4,56.2,104.2,56.2,105.2z"/>
<path class="st6" d="M74.4,105.2L74.4,105.2c0,1,0.8,1.9,1.9,1.9h9.2c1,0,1.9-0.8,1.9-1.9l0,0c0-1-0.8-1.9-1.9-1.9h-9.2
	C75.2,103.4,74.4,104.2,74.4,105.2z"/>
<path class="st6" d="M93.7,105.2L93.7,105.2c0,1,0.8,1.9,1.9,1.9h5c1,0,1.9-0.8,1.9-1.9l0,0c0-1-0.8-1.9-1.9-1.9h-5
	C94.6,103.4,93.7,104.2,93.7,105.2z"/>
<path class="st6" d="M36.1,114.4L36.1,114.4c0,1,0.8,1.9,1.9,1.9h3.5c1,0,1.9-0.8,1.9-1.9l0,0c0-1-0.8-1.9-1.9-1.9H38
	C37,112.6,36.1,113.4,36.1,114.4z"/>
<path class="st6" d="M50.7,114.4L50.7,114.4c0,1,0.8,1.9,1.9,1.9H70c1,0,1.9-0.8,1.9-1.9l0,0c0-1-0.8-1.9-1.9-1.9H52.6
	C51.5,112.6,50.7,113.4,50.7,114.4z"/>
<path class="st6" d="M75.7,114.4L75.7,114.4c0,1,0.8,1.9,1.9,1.9h13.7c1,0,1.9-0.8,1.9-1.9l0,0c0-1-0.8-1.9-1.9-1.9H77.5
	C76.5,112.6,75.7,113.4,75.7,114.4z"/>
<path class="st6" d="M58.7,51.7L58.7,51.7c0,1,0.8,1.9,1.9,1.9h40.5c1,0,1.9-0.8,1.9-1.9l0,0c0-1-0.8-1.9-1.9-1.9H60.6
	C59.5,49.8,58.7,50.7,58.7,51.7z"/>
<path class="st6" d="M73.5,41.9h-4.9c-1,0-1.9,0.8-1.9,1.9l0,0c0,1,0.8,1.9,1.9,1.9h4.9c1,0,1.9-0.8,1.9-1.9l0,0
	C75.4,42.7,74.5,41.9,73.5,41.9z"/>
<path class="st6" d="M61,41.9H44.2c-1,0-1.9,0.8-1.9,1.9l0,0c0,1,0.8,1.9,1.9,1.9H61c1,0,1.9-0.8,1.9-1.9l0,0
	C62.9,42.7,62.1,41.9,61,41.9z"/>
<path class="st6" d="M80.1,41.9H101c1,0,1.9,0.8,1.9,1.9v0c0,1-0.8,1.9-1.9,1.9H80.1c-1,0-1.9-0.8-1.9-1.9v0
	C78.2,42.7,79.1,41.9,80.1,41.9z"/>
<path class="st6" d="M56.7,60.9L56.7,60.9c0,1,0.8,1.9,1.9,1.9h8.9c1,0,1.9-0.8,1.9-1.9l0,0c0-1-0.8-1.9-1.9-1.9h-9
	C57.5,59,56.7,59.9,56.7,60.9z"/>
<path class="st6" d="M74.8,60.9L74.8,60.9c0,1,0.8,1.9,1.9,1.9h9.2c1,0,1.9-0.8,1.9-1.9l0,0c0-1-0.8-1.9-1.9-1.9h-9.2
	C75.7,59,74.8,59.9,74.8,60.9z"/>
<path class="st6" d="M93.1,60.9L93.1,60.9c0,1,0.8,1.9,1.9,1.9h6.8c1,0,1.9-0.8,1.9-1.9l0,0c0-1-0.8-1.9-1.9-1.9H95
	C94,59,93.1,59.9,93.1,60.9z"/>
<path class="st6" d="M65.2,70.1L65.2,70.1c0,1,0.8,1.9,1.9,1.9h10.4c1,0,1.9-0.8,1.9-1.9l0,0c0-1-0.8-1.9-1.9-1.9H67.1
	C66.1,68.2,65.2,69.1,65.2,70.1z"/>
<path class="st6" d="M36.6,70.1L36.6,70.1c0,1,0.8,1.9,1.9,1.9h3.5c1,0,1.9-0.8,1.9-1.9l0,0c0-1-0.8-1.9-1.9-1.9h-3.5
	C37.4,68.2,36.6,69.1,36.6,70.1z"/>
<path class="st6" d="M47.3,70.1L47.3,70.1c0,1,0.8,1.9,1.9,1.9h7.7c1,0,1.9-0.8,1.9-1.9l0,0c0-1-0.8-1.9-1.9-1.9h-7.7
	C48.1,68.2,47.3,69.1,47.3,70.1z"/>
<path class="st6" d="M86.3,70.1L86.3,70.1c0,1,0.8,1.9,1.9,1.9h13.7c1,0,1.9-0.8,1.9-1.9l0,0c0-1-0.8-1.9-1.9-1.9H88.1
	C87.1,68.2,86.3,69.1,86.3,70.1z"/>
<path class="st6" d="M35.8,48c-0.2,0-0.4-0.1-0.6-0.2l-4.4-4.1l4.4-4.5c0.3-0.3,0.9-0.4,1.2,0s0.4,0.9,0,1.2l-3.1,3.2l3.1,2.9
	c0.4,0.3,0.4,0.9,0,1.2C36.3,47.9,36,48,35.8,48L35.8,48z"/>
<path class="st6" d="M41.2,48c-0.2,0-0.4-0.1-0.6-0.2l-4.4-4.1l4.4-4.5c0.3-0.3,0.9-0.4,1.2,0s0.4,0.9,0,1.2l-3.1,3.2l3.1,2.9
	c0.4,0.3,0.4,0.9,0,1.2C41.6,47.9,41.4,48,41.2,48L41.2,48z"/>
<path class="st6" d="M101.2,119.3c-0.2,0-0.5-0.1-0.7-0.3c-0.3-0.4-0.3-0.9,0.1-1.2l3.1-2.9l-3.1-3.2c-0.3-0.3-0.3-0.9,0-1.2
	s0.9-0.3,1.2,0l4.4,4.6l-4.4,4.1C101.6,119.2,101.4,119.3,101.2,119.3L101.2,119.3z"/>
<path class="st6" d="M95.8,119.3c-0.2,0-0.5-0.1-0.7-0.3c-0.3-0.4-0.3-0.9,0.1-1.2l3.1-2.9l-3.1-3.2c-0.3-0.3-0.3-0.9,0-1.2
	s0.9-0.3,1.2,0l4.4,4.6l-4.4,4.1C96.3,119.2,96.1,119.3,95.8,119.3L95.8,119.3z"/>
<path class="st16" d="M170,76.9h1.1c3,0,5.4,2.4,5.4,5.4v39.8c0,3-2.4,5.4-5.4,5.4H170c-3,0-5.4-2.4-5.4-5.4V82.4
	C164.6,79.4,167,76.9,170,76.9z"/>
<path class="st16" d="M190.4,164.2l-1.1,0.6c-2.3,1.3-5.2,0.4-6.5-1.9l-15.4-28.5c-1.2-2.3-0.4-5.2,1.9-6.5l1.1-0.6
	c2.3-1.3,5.2-0.4,6.5,1.9l15.4,28.5C193.6,160.1,192.8,162.9,190.4,164.2z"/>
<path class="st24" d="M187,181.6c-3.3-6.6-1.8-14.1,3.5-16.8c5.3-2.7,12.3,0.5,15.6,7.1"/>
<ellipse class="st8" cx="171" cy="122.5" rx="1.9" ry="1.9"/>
<path class="st8" d="M174.6,131.6c0,1.1-0.9,1.9-1.9,1.9s-1.9-0.9-1.9-1.9s0.9-1.9,1.9-1.9S174.6,130.6,174.6,131.6z"/>
<ellipse class="st20" cx="171.3" cy="79.3" rx="12" ry="12"/>
<ellipse cx="171.3" cy="79.3" rx="8.1" ry="8.2"/>
<path class="st20" d="M187,181.8c-3.3-6.6-1.8-14.1,3.5-16.8c5.3-2.7,12.3,0.5,15.6,7.1"/>
<path class="st22" d="M171.5,76.9V61.5c0-6.2-5-11.2-11.1-11.2h-54.2"/>
<path class="st22" d="M106.2,74.3h24.3c5.1,0,9.9,2,13.5,5.6l23,23.2"/>
<path class="st22" d="M106.2,82.3h19.2c5.1,0,9.9,2,13.5,5.6l27.8,27.9"/>
<path class="st1" d="M166.5,277.7l7.1-42.7c0.2-1.2-0.8-2.4-2-2.4h-31.2"/>
<rect x="259.1" y="308.6" class="st16" width="121.7" height="112.3"/>
<line class="st11" x1="380.8" y1="330.8" x2="259.1" y2="330.8"/>
<line class="st11" x1="380.8" y1="352.9" x2="259.1" y2="352.9"/>
<line class="st11" x1="380.8" y1="375.1" x2="259.1" y2="375.1"/>
<line class="st11" x1="380.8" y1="397.2" x2="259.1" y2="397.2"/>
<rect x="267.7" y="405.3" class="st6" width="23" height="6.5"/>
<rect x="302.2" y="405.3" class="st6" width="68.1" height="6.5"/>
<rect x="267.7" y="383.6" class="st6" width="23" height="6.5"/>
<rect x="302.2" y="383.6" class="st6" width="68.1" height="6.5"/>
<rect x="267.7" y="362" class="st6" width="23" height="6.5"/>
<rect x="302.2" y="362" class="st6" width="68.1" height="6.5"/>
<rect x="267.7" y="340.3" class="st6" width="23" height="6.5"/>
<rect x="302.2" y="340.3" class="st6" width="68.1" height="6.5"/>
<rect x="267.7" y="318.7" class="st6" width="23" height="6.5"/>
<rect x="302.2" y="318.7" class="st6" width="68.1" height="6.5"/>
<ellipse class="st6" cx="345.5" cy="127.4" rx="3.4" ry="3.4"/>
<path class="st6" d="M374,121.5c0,1.9-1.5,3.4-3.4,3.4s-3.4-1.5-3.4-3.4s1.5-3.4,3.4-3.4S374,119.6,374,121.5z"/>
<path class="st6" d="M366.3,117c0,1.9-1.5,3.4-3.4,3.4s-3.4-1.5-3.4-3.4s1.5-3.4,3.4-3.4S366.3,115.1,366.3,117z"/>
<ellipse class="st6" cx="355.9" cy="109.7" rx="3.4" ry="3.4"/>
<polyline class="st1" points="370.8,119.8 371.5,285.2 404.2,318.1 404.2,368.3 384.5,388.1 "/>
<polyline class="st1" points="356,108.5 356,274.6 327.1,303.7 "/>
<line class="st1" x1="363.1" y1="116.7" x2="363.1" y2="299.6"/>
<polyline class="st1" points="345.5,127.4 345.5,270.1 312.9,303 "/>
<ellipse class="st6" cx="312.8" cy="302.9" rx="3.4" ry="3.4"/>
<path class="st6" d="M366.9,302.4c0,1.9-1.5,3.4-3.4,3.4s-3.4-1.5-3.4-3.4s1.5-3.4,3.4-3.4S366.9,300.5,366.9,302.4z"/>
<ellipse class="st6" cx="383.9" cy="389" rx="3.4" ry="3.4"/>
<ellipse class="st6" cx="327.1" cy="302.9" rx="3.4" ry="3.4"/>
</svg>
