<?xml version="1.0" encoding="UTF-8"?><svg id="Character" xmlns="http://www.w3.org/2000/svg" viewBox="0 0 437.93 460.91"><defs><style>.cls-1,.cls-2,.cls-3,.cls-4,.cls-5,.cls-6,.cls-7,.cls-8,.cls-9,.cls-10,.cls-11,.cls-12,.cls-13,.cls-14,.cls-15,.cls-16,.cls-17,.cls-18,.cls-19,.cls-20,.cls-21,.cls-22,.cls-23,.cls-24,.cls-25,.cls-26{stroke-width:0px;}.cls-1,.cls-2,.cls-4,.cls-5,.cls-6,.cls-27,.cls-11,.cls-20{fill:#fff;}.cls-1,.cls-3,.cls-4,.cls-7,.cls-28,.cls-26{opacity:.2;}.cls-2,.cls-5{opacity:.8;}.cls-3,.cls-4,.cls-5,.cls-7,.cls-8,.cls-25{isolation:isolate;}.cls-3,.cls-16{fill:#333;}.cls-6{opacity:.9;}.cls-29,.cls-27{stroke:#fff;stroke-miterlimit:10;}.cls-29,.cls-17{fill:#7db1d1;}.cls-30,.cls-8,.cls-10,.cls-11{opacity:.3;}.cls-31{opacity:.7;}.cls-10,.cls-14{fill:#407bff;}.cls-12,.cls-25{fill:#263238;}.cls-13{fill:#43688c;}.cls-15{fill:#e0e0e0;}.cls-18{fill:#ff8300;}.cls-19{fill:#64a2d0;}.cls-21{fill:#ffb45e;}.cls-22{fill:#ebebeb;}.cls-23{fill:#f0f0f0;}.cls-24{fill:#f5f5f5;}.cls-25{opacity:.5;}</style></defs><rect class="cls-22" x="146.14" y="396.01" width="65.97" height="11.48"/><g class="cls-30"><path class="cls-15" d="m151.85,396.6v10.29c0,.48.75.48.75,0v-10.29c0-.48-.75-.48-.75,0h0Z"/></g><g class="cls-30"><path class="cls-15" d="m157.3,396.6v10.29c0,.48.75.48.75,0v-10.29c0-.48-.75-.48-.75,0h0Z"/></g><g class="cls-30"><path class="cls-15" d="m162.67,396.6v10.29c0,.48.75.48.75,0v-10.29c0-.48-.75-.48-.75,0h0Z"/></g><g class="cls-30"><path class="cls-15" d="m168.05,396.6v10.29c0,.48.75.48.75,0v-10.29c0-.48-.75-.48-.75,0h0Z"/></g><g class="cls-30"><path class="cls-15" d="m173.42,396.6v10.29c0,.48.75.48.75,0v-10.29c0-.48-.75-.48-.75,0h0Z"/></g><g class="cls-30"><path class="cls-15" d="m178.79,396.6v10.29c0,.48.75.48.75,0v-10.29c0-.48-.75-.48-.75,0h0Z"/></g><g class="cls-30"><path class="cls-15" d="m184.16,396.6v10.29c0,.48.75.48.75,0v-10.29c0-.48-.75-.48-.75,0h0Z"/></g><g class="cls-30"><path class="cls-15" d="m189.54,396.6v10.29c0,.48.75.48.75,0v-10.29c0-.48-.75-.48-.75,0h0Z"/></g><g class="cls-30"><path class="cls-15" d="m194.91,396.6v10.29c0,.48.75.48.75,0v-10.29c0-.48-.75-.48-.75,0h0Z"/></g><g class="cls-30"><path class="cls-15" d="m200.28,396.6v10.29c0,.48.75.48.75,0v-10.29c0-.48-.75-.48-.75,0h0Z"/></g><g class="cls-30"><path class="cls-15" d="m205.65,396.6v10.29c0,.48.75.48.75,0v-10.29c0-.48-.75-.48-.75,0h0Z"/></g><rect class="cls-23" x="142.09" y="407.49" width="65.97" height="11.48"/><g class="cls-30"><path class="cls-15" d="m147.48,408.12v10.29c0,.48.75.48.75,0v-10.29c0-.48-.75-.48-.75,0h0Z"/></g><g class="cls-30"><path class="cls-15" d="m152.93,408.12v10.29c0,.48.75.48.75,0v-10.29c0-.48-.75-.48-.75,0h0Z"/></g><g class="cls-30"><path class="cls-15" d="m158.31,408.12v10.29c0,.48.75.48.75,0v-10.29c0-.48-.75-.48-.75,0h0Z"/></g><g class="cls-30"><path class="cls-15" d="m163.68,408.12v10.29c0,.48.75.48.75,0v-10.29c0-.48-.75-.48-.75,0h0Z"/></g><g class="cls-30"><path class="cls-15" d="m169.05,408.12v10.29c0,.48.75.48.75,0v-10.29c0-.48-.75-.48-.75,0h0Z"/></g><g class="cls-30"><path class="cls-15" d="m174.43,408.12v10.29c0,.48.75.48.75,0v-10.29c0-.48-.75-.48-.75,0h0Z"/></g><g class="cls-30"><path class="cls-15" d="m179.8,408.12v10.29c0,.48.75.48.75,0v-10.29c0-.48-.75-.48-.75,0h0Z"/></g><g class="cls-30"><path class="cls-15" d="m185.17,408.12v10.29c0,.48.75.48.75,0v-10.29c0-.48-.75-.48-.75,0h0Z"/></g><g class="cls-30"><path class="cls-15" d="m190.54,408.12v10.29c0,.48.75.48.75,0v-10.29c0-.48-.75-.48-.75,0h0Z"/></g><g class="cls-30"><path class="cls-15" d="m195.92,408.12v10.29c0,.48.75.48.75,0v-10.29c0-.48-.75-.48-.75,0h0Z"/></g><g class="cls-30"><path class="cls-15" d="m201.29,408.12v10.29c0,.48.75.48.75,0v-10.29c0-.48-.75-.48-.75,0h0Z"/></g><rect class="cls-23" x="141.1" y="429.82" width="65.97" height="11.48"/><rect class="cls-22" x="146.14" y="418.63" width="65.97" height="11.48"/><g class="cls-30"><path class="cls-15" d="m151.85,419.23v10.29c0,.48.75.48.75,0v-10.29c0-.48-.75-.48-.75,0h0Z"/></g><g class="cls-30"><path class="cls-15" d="m157.3,419.23v10.29c0,.48.75.48.75,0v-10.29c0-.48-.75-.48-.75,0h0Z"/></g><g class="cls-30"><path class="cls-15" d="m162.67,419.23v10.29c0,.48.75.48.75,0v-10.29c0-.48-.75-.48-.75,0h0Z"/></g><g class="cls-30"><path class="cls-15" d="m168.05,419.23v10.29c0,.48.75.48.75,0v-10.29c0-.48-.75-.48-.75,0h0Z"/></g><g class="cls-30"><path class="cls-15" d="m173.42,419.23v10.29c0,.48.75.48.75,0v-10.29c0-.48-.75-.48-.75,0h0Z"/></g><g class="cls-30"><path class="cls-15" d="m178.79,419.23v10.29c0,.48.75.48.75,0v-10.29c0-.48-.75-.48-.75,0h0Z"/></g><g class="cls-30"><path class="cls-15" d="m184.16,419.23v10.29c0,.48.75.48.75,0v-10.29c0-.48-.75-.48-.75,0h0Z"/></g><g class="cls-30"><path class="cls-15" d="m189.54,419.23v10.29c0,.48.75.48.75,0v-10.29c0-.48-.75-.48-.75,0h0Z"/></g><g class="cls-30"><path class="cls-15" d="m194.91,419.23v10.29c0,.48.75.48.75,0v-10.29c0-.48-.75-.48-.75,0h0Z"/></g><g class="cls-30"><path class="cls-15" d="m200.28,419.23v10.29c0,.48.75.48.75,0v-10.29c0-.48-.75-.48-.75,0h0Z"/></g><g class="cls-30"><path class="cls-15" d="m205.65,419.23v10.29c0,.48.75.48.75,0v-10.29c0-.48-.75-.48-.75,0h0Z"/></g><g class="cls-30"><path class="cls-15" d="m145.95,430.62v10.29c0,.48.75.48.75,0v-10.29c0-.48-.75-.48-.75,0h0Z"/></g><g class="cls-30"><path class="cls-15" d="m151.41,430.62v10.29c0,.48.75.48.75,0v-10.29c0-.48-.75-.48-.75,0h0Z"/></g><g class="cls-30"><path class="cls-15" d="m156.78,430.62v10.29c0,.48.75.48.75,0v-10.29c0-.48-.75-.48-.75,0h0Z"/></g><g class="cls-30"><path class="cls-15" d="m162.15,430.62v10.29c0,.48.75.48.75,0v-10.29c0-.48-.75-.48-.75,0h0Z"/></g><g class="cls-30"><path class="cls-15" d="m167.53,430.62v10.29c0,.48.75.48.75,0v-10.29c0-.48-.75-.48-.75,0h0Z"/></g><g class="cls-30"><path class="cls-15" d="m172.9,430.62v10.29c0,.48.75.48.75,0v-10.29c0-.48-.75-.48-.75,0h0Z"/></g><g class="cls-30"><path class="cls-15" d="m178.27,430.62v10.29c0,.48.75.48.75,0v-10.29c0-.48-.75-.48-.75,0h0Z"/></g><g class="cls-30"><path class="cls-15" d="m183.64,430.62v10.29c0,.48.75.48.75,0v-10.29c0-.48-.75-.48-.75,0h0Z"/></g><g class="cls-30"><path class="cls-15" d="m189.02,430.62v10.29c0,.48.75.48.75,0v-10.29c0-.48-.75-.48-.75,0h0Z"/></g><g class="cls-30"><path class="cls-15" d="m194.39,430.62v10.29c0,.48.75.48.75,0v-10.29c0-.48-.75-.48-.75,0h0Z"/></g><g class="cls-30"><path class="cls-15" d="m199.76,430.62v10.29c0,.48.75.48.75,0v-10.29c0-.48-.75-.48-.75,0h0Z"/></g><rect class="cls-22" x="33.28" y="396.01" width="65.97" height="11.48"/><g class="cls-30"><path class="cls-15" d="m38.98,396.6v10.29c0,.48.75.48.75,0v-10.29c0-.48-.75-.48-.75,0h0Z"/></g><g class="cls-30"><path class="cls-15" d="m44.44,396.6v10.29c0,.48.75.48.75,0v-10.29c0-.48-.75-.48-.75,0h0Z"/></g><g class="cls-30"><path class="cls-15" d="m49.81,396.6v10.29c0,.48.75.48.75,0v-10.29c0-.48-.75-.48-.75,0h0Z"/></g><g class="cls-30"><path class="cls-15" d="m55.18,396.6v10.29c0,.48.75.48.75,0v-10.29c0-.48-.75-.48-.75,0h0Z"/></g><g class="cls-30"><path class="cls-15" d="m60.56,396.6v10.29c0,.48.75.48.75,0v-10.29c0-.48-.75-.48-.75,0h0Z"/></g><g class="cls-30"><path class="cls-15" d="m65.93,396.6v10.29c0,.48.75.48.75,0v-10.29c0-.48-.75-.48-.75,0h0Z"/></g><g class="cls-30"><path class="cls-15" d="m71.3,396.6v10.29c0,.48.75.48.75,0v-10.29c0-.48-.75-.48-.75,0h0Z"/></g><g class="cls-30"><path class="cls-15" d="m76.67,396.6v10.29c0,.48.75.48.75,0v-10.29c0-.48-.75-.48-.75,0h0Z"/></g><g class="cls-30"><path class="cls-15" d="m82.05,396.6v10.29c0,.48.75.48.75,0v-10.29c0-.48-.75-.48-.75,0h0Z"/></g><g class="cls-30"><path class="cls-15" d="m87.42,396.6v10.29c0,.48.75.48.75,0v-10.29c0-.48-.75-.48-.75,0h0Z"/></g><g class="cls-30"><path class="cls-15" d="m92.79,396.6v10.29c0,.48.75.48.75,0v-10.29c0-.48-.75-.48-.75,0h0Z"/></g><rect class="cls-23" x="29.22" y="407.49" width="65.97" height="11.48"/><g class="cls-30"><path class="cls-15" d="m34.62,408.12v10.29c0,.48.75.48.75,0v-10.29c0-.48-.75-.48-.75,0h0Z"/></g><g class="cls-30"><path class="cls-15" d="m40.07,408.12v10.29c0,.48.75.48.75,0v-10.29c0-.48-.75-.48-.75,0h0Z"/></g><g class="cls-30"><path class="cls-15" d="m45.44,408.12v10.29c0,.48.75.48.75,0v-10.29c0-.48-.75-.48-.75,0h0Z"/></g><g class="cls-30"><path class="cls-15" d="m50.82,408.12v10.29c0,.48.75.48.75,0v-10.29c0-.48-.75-.48-.75,0h0Z"/></g><g class="cls-30"><path class="cls-15" d="m56.19,408.12v10.29c0,.48.75.48.75,0v-10.29c0-.48-.75-.48-.75,0h0Z"/></g><g class="cls-30"><path class="cls-15" d="m61.56,408.12v10.29c0,.48.75.48.75,0v-10.29c0-.48-.75-.48-.75,0h0Z"/></g><g class="cls-30"><path class="cls-15" d="m66.94,408.12v10.29c0,.48.75.48.75,0v-10.29c0-.48-.75-.48-.75,0h0Z"/></g><g class="cls-30"><path class="cls-15" d="m72.31,408.12v10.29c0,.48.75.48.75,0v-10.29c0-.48-.75-.48-.75,0h0Z"/></g><g class="cls-30"><path class="cls-15" d="m77.68,408.12v10.29c0,.48.75.48.75,0v-10.29c0-.48-.75-.48-.75,0h0Z"/></g><g class="cls-30"><path class="cls-15" d="m83.05,408.12v10.29c0,.48.75.48.75,0v-10.29c0-.48-.75-.48-.75,0h0Z"/></g><g class="cls-30"><path class="cls-15" d="m88.43,408.12v10.29c0,.48.75.48.75,0v-10.29c0-.48-.75-.48-.75,0h0Z"/></g><rect class="cls-23" x="28.24" y="429.82" width="65.97" height="11.48"/><rect class="cls-22" x="33.28" y="418.63" width="65.97" height="11.48"/><g class="cls-30"><path class="cls-15" d="m38.98,419.23v10.29c0,.48.75.48.75,0v-10.29c0-.48-.75-.48-.75,0h0Z"/></g><g class="cls-30"><path class="cls-15" d="m44.44,419.23v10.29c0,.48.75.48.75,0v-10.29c0-.48-.75-.48-.75,0h0Z"/></g><g class="cls-30"><path class="cls-15" d="m49.81,419.23v10.29c0,.48.75.48.75,0v-10.29c0-.48-.75-.48-.75,0h0Z"/></g><g class="cls-30"><path class="cls-15" d="m55.18,419.23v10.29c0,.48.75.48.75,0v-10.29c0-.48-.75-.48-.75,0h0Z"/></g><g class="cls-30"><path class="cls-15" d="m60.56,419.23v10.29c0,.48.75.48.75,0v-10.29c0-.48-.75-.48-.75,0h0Z"/></g><g class="cls-30"><path class="cls-15" d="m65.93,419.23v10.29c0,.48.75.48.75,0v-10.29c0-.48-.75-.48-.75,0h0Z"/></g><g class="cls-30"><path class="cls-15" d="m71.3,419.23v10.29c0,.48.75.48.75,0v-10.29c0-.48-.75-.48-.75,0h0Z"/></g><g class="cls-30"><path class="cls-15" d="m76.67,419.23v10.29c0,.48.75.48.75,0v-10.29c0-.48-.75-.48-.75,0h0Z"/></g><g class="cls-30"><path class="cls-15" d="m82.05,419.23v10.29c0,.48.75.48.75,0v-10.29c0-.48-.75-.48-.75,0h0Z"/></g><g class="cls-30"><path class="cls-15" d="m87.42,419.23v10.29c0,.48.75.48.75,0v-10.29c0-.48-.75-.48-.75,0h0Z"/></g><g class="cls-30"><path class="cls-15" d="m92.79,419.23v10.29c0,.48.75.48.75,0v-10.29c0-.48-.75-.48-.75,0h0Z"/></g><g class="cls-30"><path class="cls-15" d="m33.09,430.62v10.29c0,.48.75.48.75,0v-10.29c0-.48-.75-.48-.75,0h0Z"/></g><g class="cls-30"><path class="cls-15" d="m38.54,430.62v10.29c0,.48.75.48.75,0v-10.29c0-.48-.75-.48-.75,0h0Z"/></g><g class="cls-30"><path class="cls-15" d="m43.92,430.62v10.29c0,.48.75.48.75,0v-10.29c0-.48-.75-.48-.75,0h0Z"/></g><g class="cls-30"><path class="cls-15" d="m49.29,430.62v10.29c0,.48.75.48.75,0v-10.29c0-.48-.75-.48-.75,0h0Z"/></g><g class="cls-30"><path class="cls-15" d="m54.66,430.62v10.29c0,.48.75.48.75,0v-10.29c0-.48-.75-.48-.75,0h0Z"/></g><g class="cls-30"><path class="cls-15" d="m60.03,430.62v10.29c0,.48.75.48.75,0v-10.29c0-.48-.75-.48-.75,0h0Z"/></g><g class="cls-30"><path class="cls-15" d="m65.41,430.62v10.29c0,.48.75.48.75,0v-10.29c0-.48-.75-.48-.75,0h0Z"/></g><g class="cls-30"><path class="cls-15" d="m70.78,430.62v10.29c0,.48.75.48.75,0v-10.29c0-.48-.75-.48-.75,0h0Z"/></g><g class="cls-30"><path class="cls-15" d="m76.15,430.62v10.29c0,.48.75.48.75,0v-10.29c0-.48-.75-.48-.75,0h0Z"/></g><g class="cls-30"><path class="cls-15" d="m81.53,430.62v10.29c0,.48.75.48.75,0v-10.29c0-.48-.75-.48-.75,0h0Z"/></g><g class="cls-30"><path class="cls-15" d="m86.9,430.62v10.29c0,.48.75.48.75,0v-10.29c0-.48-.75-.48-.75,0h0Z"/></g><path class="cls-15" d="m416.65,309.28h-180.75c-3.23,0-5.86-2.76-5.86-6.14V27.33c0-3.39,2.63-6.14,5.86-6.14h180.75c3.23,0,5.86,2.75,5.86,6.14v275.81c0,3.39-2.63,6.14-5.86,6.14ZM235.91,21.45c-3.09,0-5.61,2.64-5.61,5.88v275.81c0,3.24,2.52,5.88,5.61,5.88h180.75c3.09,0,5.61-2.64,5.61-5.88V27.33c0-3.24-2.52-5.88-5.61-5.88h-180.75Z"/><path class="cls-15" d="m208.23,309.28H27.48c-3.23,0-5.86-2.76-5.86-6.14V27.33c0-3.39,2.63-6.14,5.86-6.14h180.75c3.23,0,5.86,2.75,5.86,6.14v275.81c0,3.39-2.63,6.14-5.86,6.14ZM27.48,21.45c-3.09,0-5.61,2.64-5.61,5.88v275.81c0,3.24,2.52,5.88,5.61,5.88h180.75c3.09,0,5.61-2.64,5.61-5.88V27.33c0-3.24-2.52-5.88-5.61-5.88H27.48Z"/><path class="cls-22" d="m282.31,396.32c-2.71-.15-5.26-1.47-7.26-3.3s-3.48-4.16-4.7-6.58c-3.25-6.42-4.83-13.68-4.52-20.88.07-1.54.23-3.12.89-4.51.66-1.39,1.92-2.59,3.44-2.81,2.28-.33,4.27,1.49,5.72,3.29,6.58,8.14,9.96,18.79,9.28,29.23-.17,2.55-1.02,5.02-2.85,5.57"/><path class="cls-22" d="m298.19,381.9c-2.48-5.16-2.67-11.27-1.02-16.76,1.64-5.49,5.02-10.36,9.19-14.28,4.58-4.3,10.47-7.59,16.75-7.63,2.68-.01,5.58.7,7.22,2.82,1.75,2.25,1.61,5.45.84,8.2-1.26,4.5-3.93,8.5-7.11,11.91-3.19,3.41-6.9,6.28-10.6,9.13-4.17,3.21-8.68,6.53-13.92,6.93"/><path class="cls-15" d="m270.21,362.28c6.24,15.25,11.25,30.99,14.93,47.05,1.04,4.53,1.97,9.09,2.8,13.67.09.47.81.27.72-.2-2.95-16.21-7.2-32.17-12.74-47.69-1.56-4.38-3.23-8.72-4.99-13.03-.18-.44-.91-.25-.72.2h0Z"/><path class="cls-15" d="m292.14,420.5c-.34-10.48.49-21.05,3.42-31.15,2.94-10.12,8.03-19.51,15.06-27.38,4.38-4.91,9.42-9.18,14.85-12.9.4-.27.02-.92-.38-.65-9.41,6.45-17.62,14.62-23.37,24.52-5.2,8.95-8.23,18.97-9.55,29.21-.78,6.08-.98,12.22-.78,18.35.02.48.77.48.75,0h0Z"/><path class="cls-15" d="m272.73,415.34v-12.55h34.97v12.55s.67,22.19-11.66,24.21h-11.66c-12.33-2.02-11.66-24.21-11.66-24.21Z"/><path class="cls-22" d="m52.66,335.24c6.45,10.76,9.54,21.81,4.62,28.58-1.02,1.41-4.77,3.52-6.27,4.42-8.71,5.22-22.09-1.08-29.89-14.09-7.8-13-7.06-27.78,1.65-33,1.27-.76,4.83-3.02,6.26-3.3,8.42-1.69,16.96,6.28,23.62,17.39Z"/><g class="cls-28"><path class="cls-20" d="m24.57,348.21l-1.88-5.12c-1.31,1.63-3.15,2.83-5.16,3.4.59,1.75,1.33,3.51,2.22,5.25,1.88-.74,3.56-1.96,4.82-3.53Z"/></g><g class="cls-28"><path class="cls-20" d="m38.97,364.11l-2.39-1.42c-1.02,1.54-1.99,2.81-2.99,4.27,1.09.64,2.19,1.18,3.29,1.63.82-1.54,1.35-2.82,2.09-4.48Z"/></g><g class="cls-28"><path class="cls-20" d="m38.53,369.19c3.53,1.14,7.01,1.26,10.09.2.31-1.08.58-2.17.77-3.28l-8.89-1.2c-.63,1.46-1.22,2.98-1.97,4.29Z"/></g><ellipse class="cls-23" cx="41.89" cy="341.7" rx="18.38" ry="27.26" transform="translate(-169.78 70.21) rotate(-30.95)"/><path class="cls-22" d="m52.76,335.41c5.38,8.98,4.92,19.15-1.03,22.71-5.95,3.57-15.14-.81-20.52-9.79s-4.92-19.15,1.03-22.71c5.95-3.57,15.14.82,20.52,9.79Z"/><path class="cls-15" d="m32.44,348.06c-5.38-8.98-4.92-19.15,1.03-22.71.66-.39,1.35-.69,2.08-.89-1.2.16-2.34.53-3.37,1.15-5.95,3.57-6.41,13.74-1.03,22.71,4.79,7.99,12.59,12.33,18.44,10.68-5.67.74-12.7-3.54-17.15-10.95Z"/><path class="cls-1" d="m39.28,356.83c-.06.3-.29,7.23-.29,7.23l-2.33-1.33.45-7.36,2.18,1.45Z"/><path class="cls-1" d="m25.98,319.72c-.23.2-.45.41-.66.63l-1.88,2.42s-.01.02-.02.03l-.95,20.38s0,.03.01.04l2.13,5.17s0,.02.01.03c0-.1.97-25.66,1.36-28.7Z"/><path class="cls-1" d="m60.38,337.68c-.32,5.08-.81,18.99-.99,24.32,4.41-5.57,4.8-15.01.99-24.32Z"/><path class="cls-1" d="m41.4,357.99l-.88,6.86s5.77,2.37,8.6,2.06l.37-7.86s-.01,0-.02,0c-2.48.64-5.29.23-8.07-1.07Z"/><path class="cls-1" d="m50.9,332.67l.14-8.71c-2.74-2.58-5.71-4.55-8.7-5.83l.77,7.86c2.78,1.41,5.5,3.69,7.8,6.67Z"/><path class="cls-15" d="m48.54,350.02l1.65,2.76-1.67,1-1.61-2.68c-1.74.84-3.78,1.03-5.34.52l-.96-3.48.84-.38c1.38.41,2.22.66,3.52.11l-2.46-4.11c-2.25.45-4.87.78-6.98-2.74-1.56-2.61-1.62-5.62.75-7.64l-1.64-2.73,1.67-1,1.61,2.68c1.34-.6,2.85-.84,4.29-.53l1.69,3.1-.5.42c-1.05-.1-2.75-.04-3.54.26l2.51,4.18c2.24-.47,4.82-.78,6.9,2.69,1.53,2.56,1.59,5.53-.75,7.57Zm-8.24-9.95l-2.11-3.51c-.71.83-.63,1.76-.14,2.57.52.87,1.3,1.04,2.24.94Zm6.45,4.24c-.52-.87-1.29-1.05-2.23-.99l2.05,3.42c.67-.77.65-1.64.18-2.43Z"/><path class="cls-23" d="m49.38,349.68l1.66,2.77-1.67,1-1.62-2.7c-1.74.84-3.79,1.03-5.34.51l-.89-3.57c1.38.42,2.99.36,4.29-.18l-2.48-4.13c-2.25.44-4.87.77-7-2.77-1.57-2.62-1.64-5.65.73-7.67l-1.65-2.75,1.67-1,1.62,2.7c1.34-.6,2.86-.84,4.29-.52l.99,3.55c-1.28-.21-2.4-.11-3.33.24l2.52,4.21c2.24-.47,4.82-.77,6.92,2.72,1.54,2.57,1.61,5.56-.73,7.6Zm-8.23-9.94l-2.11-3.51c-.71.83-.63,1.76-.14,2.57.52.87,1.3,1.04,2.24.94Zm6.45,4.24c-.52-.87-1.29-1.05-2.23-.99l2.05,3.42c.67-.77.65-1.64.18-2.43Z"/><path class="cls-15" d="m50.17,366.5c-8.27.57-15.84-5.08-20.75-11.23-5.7-7.16-9.59-17.09-7.87-26.33.77-4.16,2.84-8.03,6.52-10.29.41-.25.03-.9-.38-.65-7.3,4.49-8.19,14.15-6.53,21.8,2.07,9.51,8.09,18.63,16.38,23.84,3.76,2.36,8.16,3.93,12.64,3.62.48-.03.48-.78,0-.75h0Z"/><path class="cls-22" d="m73.79,29.3c7.4-7.37,15.72-12.08,22.18-9.47,1.35.55,3.8,3.15,4.83,4.18,5.97,5.99,3.55,18.07-5.4,26.98-8.95,8.91-21.04,11.28-27,5.28-.87-.87-3.41-3.3-3.92-4.4-3.05-6.47,1.67-14.97,9.32-22.58Z"/><g class="cls-28"><path class="cls-20" d="m89.9,49.4l-3.76,2.55c1.58.73,2.92,1.98,3.78,3.49,1.3-.83,2.57-1.78,3.8-2.84-.97-1.37-2.3-2.48-3.82-3.19Z"/></g><g class="cls-28"><path class="cls-20" d="m99.87,34.58l-.67,2.21c1.45.52,2.67,1.04,4.05,1.56.3-1.01.52-2.01.66-2.99-1.41-.35-2.55-.53-4.04-.79Z"/></g><g class="cls-28"><path class="cls-20" d="m104.07,33.91c.21-3.08-.39-5.92-1.86-8.2-.94-.03-1.87-.03-2.81.03l.81,7.43c1.31.22,2.66.38,3.86.73Z"/></g><path class="cls-23" d="m70.37,25.86c8.88-8.85,20.92-11.16,26.89-5.17,5.97,5.99,3.6,18.02-5.28,26.87-8.88,8.85-20.92,11.16-26.89,5.17s-3.6-18.02,5.28-26.87Z"/><path class="cls-22" d="m73.9,29.18c6.18-6.15,14.49-7.82,18.57-3.72,4.08,4.09,2.38,12.4-3.8,18.55s-14.49,7.82-18.57,3.72c-4.08-4.09-2.38-12.4,3.8-18.55Z"/><path class="cls-15" d="m88.21,43.07c-6.18,6.15-14.49,7.82-18.57,3.72-.45-.45-.83-.96-1.14-1.5.37.94.9,1.78,1.61,2.5,4.08,4.09,12.39,2.43,18.57-3.72,5.49-5.47,7.44-12.65,4.94-17.05,1.73,4.43-.31,10.98-5.41,16.05Z"/><path class="cls-1" d="m93.92,35.79c.25-.01,5.9-1.21,5.9-1.21l-.61,2.15-6.04,1.11.74-2.05Z"/><path class="cls-1" d="m66.6,53.97c.21.14.42.28.64.41l2.34,1.04s.02,0,.03,0l16.66-3.31s.02-.01.03-.02l3.75-2.76s.01-.01.02-.02c-.08.02-20.94,4.36-23.47,4.66Z"/><path class="cls-1" d="m74.22,22.57c4.17-.76,15.51-3.15,19.86-4.07-5.39-2.44-13.09-.88-19.86,4.07Z"/><path class="cls-1" d="m94.44,33.84l5.72-.66s.76-5.14-.06-7.37l-6.42,1.27s0,.01,0,.02c1.02,1.88,1.24,4.23.75,6.74Z"/><path class="cls-1" d="m72.07,31.24l-7.07,1.64c-1.54,2.73-2.54,5.53-2.96,8.2l6.2-2.19c.58-2.53,1.88-5.19,3.83-7.64Z"/><path class="cls-15" d="m86.56,29.66l1.9-1.89,1.14,1.15-1.85,1.84c1.03,1.24,1.59,2.85,1.49,4.21l-2.62,1.47-.48-.6c.05-1.2.09-1.92-.62-2.87l-2.83,2.82c.81,1.73,1.6,3.78-.82,6.19-1.79,1.79-4.22,2.44-6.33.93l-1.88,1.87-1.14-1.15,1.85-1.84c-.76-.96-1.25-2.14-1.29-3.36l2.17-1.99.44.32c.13.87.52,2.23.92,2.81l2.88-2.87c-.83-1.71-1.6-3.74.79-6.12,1.76-1.75,4.15-2.4,6.27-.92Zm-6.39,8.66l-2.42,2.41c.81.41,1.54.15,2.11-.41.6-.59.58-1.26.31-2Zm2.14-6.06c-.6.59-.59,1.25-.35,2l2.35-2.34c-.76-.39-1.45-.2-2,.34Z"/><path class="cls-23" d="m86.12,29.06l1.91-1.9,1.14,1.15-1.86,1.85c1.03,1.24,1.59,2.86,1.49,4.22l-2.71,1.44c.06-1.2-.31-2.49-1.01-3.43l-2.84,2.83c.81,1.73,1.6,3.79-.84,6.21-1.8,1.8-4.24,2.46-6.35.95l-1.89,1.88-1.14-1.15,1.86-1.85c-.76-.96-1.25-2.14-1.28-3.37l2.67-1.51c.09,1.08.4,1.96.86,2.64l2.9-2.88c-.83-1.72-1.59-3.74.81-6.14,1.77-1.76,4.17-2.42,6.29-.94Zm-6.38,8.65l-2.42,2.41c.81.41,1.54.15,2.11-.41.6-.59.58-1.26.31-2Zm2.14-6.06c-.6.59-.59,1.25-.35,2l2.35-2.34c-.76-.39-1.45-.2-2,.34Z"/><path class="cls-15" d="m99.5,25.07c2.22,6.94-1.25,14.59-5.65,19.89-4.7,5.65-11.73,10.41-19.27,10.71-3.39.13-6.75-.8-9.22-3.21-.35-.34-.88.19-.53.53,4.86,4.75,12.36,3.91,18.08,1.35,7.58-3.39,14.03-10.18,16.78-18.05,1.28-3.65,1.73-7.69.54-11.42-.15-.46-.87-.26-.72.2h0Z"/><path class="cls-22" d="m342.98,40.59c6.45,10.76,9.54,21.81,4.62,28.58-1.02,1.41-4.77,3.52-6.27,4.42-8.71,5.22-22.09-1.08-29.89-14.09-7.8-13-7.06-27.78,1.65-33,1.27-.76,4.83-3.02,6.26-3.3,8.42-1.69,16.96,6.28,23.62,17.39Z"/><g class="cls-28"><path class="cls-20" d="m314.89,53.56l-1.88-5.12c-1.31,1.63-3.15,2.83-5.16,3.4.59,1.75,1.33,3.51,2.22,5.25,1.88-.74,3.56-1.96,4.82-3.53Z"/></g><g class="cls-28"><path class="cls-20" d="m329.28,69.46l-2.39-1.42c-1.02,1.54-1.99,2.81-2.99,4.27,1.09.64,2.19,1.18,3.29,1.63.82-1.54,1.35-2.82,2.09-4.48Z"/></g><g class="cls-28"><path class="cls-20" d="m328.84,74.54c3.53,1.14,7.01,1.26,10.09.2.31-1.08.58-2.17.77-3.28l-8.89-1.2c-.63,1.46-1.22,2.98-1.97,4.29Z"/></g><ellipse class="cls-23" cx="332.21" cy="47.05" rx="18.38" ry="27.26" transform="translate(23.11 177.57) rotate(-30.95)"/><path class="cls-22" d="m343.08,40.76c5.38,8.98,4.92,19.15-1.03,22.71-5.95,3.57-15.14-.82-20.52-9.79s-4.92-19.15,1.03-22.71c5.95-3.57,15.14.82,20.52,9.79Z"/><path class="cls-15" d="m322.76,53.41c-5.38-8.98-4.92-19.15,1.03-22.71.66-.39,1.35-.69,2.08-.89-1.2.16-2.34.53-3.37,1.15-5.95,3.57-6.41,13.74-1.03,22.71,4.79,7.99,12.59,12.33,18.44,10.68-5.67.74-12.7-3.54-17.15-10.95Z"/><path class="cls-1" d="m329.59,62.18c-.06.3-.29,7.23-.29,7.23l-2.33-1.33.45-7.36,2.18,1.45Z"/><path class="cls-1" d="m316.3,25.08c-.23.2-.45.41-.66.63l-1.88,2.42s-.01.02-.02.03l-.95,20.38s0,.03.01.04l2.13,5.17s0,.02.01.03c0-.1.97-25.66,1.36-28.7Z"/><path class="cls-1" d="m350.69,43.03c-.32,5.08-.81,18.99-.99,24.32,4.41-5.57,4.8-15.01.99-24.32Z"/><path class="cls-1" d="m331.72,63.34l-.88,6.86s5.77,2.37,8.6,2.06l.37-7.86s-.01,0-.02,0c-2.48.64-5.29.23-8.07-1.07Z"/><path class="cls-1" d="m341.21,38.03l.14-8.71c-2.74-2.58-5.71-4.55-8.7-5.83l.76,7.86c2.78,1.41,5.5,3.69,7.8,6.67Z"/><path class="cls-15" d="m338.86,55.37l1.65,2.76-1.67,1-1.61-2.68c-1.74.84-3.78,1.03-5.34.52l-.96-3.48.84-.38c1.38.41,2.22.66,3.52.11l-2.46-4.11c-2.25.45-4.87.78-6.98-2.74-1.56-2.61-1.62-5.62.75-7.64l-1.64-2.73,1.67-1,1.61,2.68c1.34-.6,2.85-.84,4.29-.53l1.69,3.1-.5.42c-1.05-.1-2.75-.04-3.54.26l2.51,4.18c2.24-.47,4.82-.78,6.9,2.69,1.53,2.56,1.59,5.53-.75,7.57Zm-8.24-9.95l-2.11-3.51c-.71.83-.63,1.76-.14,2.57.52.87,1.3,1.04,2.24.94Zm6.45,4.24c-.52-.87-1.29-1.05-2.23-.99l2.05,3.42c.67-.77.65-1.64.18-2.43Z"/><path class="cls-23" d="m339.69,55.03l1.66,2.77-1.67,1-1.62-2.7c-1.74.84-3.79,1.03-5.34.51l-.89-3.57c1.38.42,2.99.36,4.29-.18l-2.48-4.13c-2.25.44-4.87.77-7-2.77-1.57-2.62-1.64-5.65.73-7.67l-1.65-2.75,1.67-1,1.62,2.7c1.34-.6,2.86-.84,4.29-.52l.99,3.55c-1.28-.21-2.4-.11-3.33.24l2.52,4.21c2.24-.47,4.82-.77,6.92,2.72,1.54,2.57,1.61,5.56-.73,7.6Zm-8.23-9.94l-2.11-3.51c-.71.83-.63,1.76-.14,2.57.52.87,1.3,1.04,2.24.94Zm6.45,4.24c-.52-.87-1.29-1.05-2.23-.99l2.05,3.42c.67-.77.65-1.64.18-2.43Z"/><path class="cls-15" d="m340.49,71.85c-8.27.57-15.84-5.08-20.75-11.23-5.7-7.16-9.59-17.09-7.87-26.33.77-4.16,2.84-8.03,6.52-10.29.41-.25.03-.9-.38-.65-7.3,4.49-8.19,14.15-6.53,21.8,2.07,9.51,8.09,18.63,16.38,23.84,3.76,2.36,8.16,3.93,12.64,3.62.48-.03.48-.78,0-.75h0Z"/><path class="cls-22" d="m384.11,378.82c13.21-3.83,25.79-4.01,31.59,3.09,1.21,1.48,2.39,6.04,2.93,7.88,3.1,10.69-7.33,23.11-23.29,27.74-15.96,4.63-31.42-.28-34.52-10.97-.45-1.55-1.85-5.96-1.75-7.56.57-9.39,11.4-16.22,25.04-20.18Z"/><g class="cls-28"><path class="cls-20" d="m390,412.23l-5.95.56c1.36,1.85,2.12,4.13,2.16,6.42,2.02-.14,4.09-.43,6.18-.88-.26-2.19-1.09-4.32-2.39-6.1Z"/></g><g class="cls-28"><path class="cls-20" d="m410.89,401.41l-2.18,2.13c1.35,1.51,2.43,2.89,3.69,4.36.98-.98,1.87-1.99,2.65-3.03-1.4-1.29-2.61-2.22-4.16-3.46Z"/></g><g class="cls-28"><path class="cls-20" d="m416.15,403.3c2.19-3.42,3.29-7.08,3.03-10.64-1.06-.63-2.14-1.22-3.26-1.73l-3.76,9.09c1.37,1.08,2.82,2.12,3.99,3.29Z"/></g><ellipse class="cls-23" cx="387.95" cy="392.05" rx="29.88" ry="20.15" transform="translate(-93.86 123.6) rotate(-16.18)"/><ellipse class="cls-22" cx="388.15" cy="391.99" rx="20.78" ry="13.77" transform="translate(-93.84 123.66) rotate(-16.18)"/><path class="cls-15" d="m392.05,403.84c-11.02,3.2-21.67-.13-23.79-7.44-.23-.81-.35-1.63-.36-2.45-.17,1.31-.09,2.63.28,3.9,2.12,7.31,12.77,10.64,23.79,7.44,9.8-2.84,16.59-9.9,16.48-16.56-.8,6.21-7.3,12.48-16.4,15.12Z"/><path class="cls-1" d="m403.25,399.05c.3.14,7.58,2.33,7.58,2.33l-2.06,2.1-7.67-2.53,2.15-1.9Z"/><path class="cls-1" d="m360.2,402.76c.15.3.31.59.48.87l2.04,2.67s.02.02.03.03l21.33,6.71s.03,0,.05,0l6.08-.81s.02,0,.03,0c-.1-.03-26.93-8.2-30.04-9.46Z"/><path class="cls-1" d="m388.86,371.33c5.29,1.76,19.9,6.17,25.51,7.86-4.68-6.23-14.56-9.29-25.51-7.86Z"/><path class="cls-1" d="m405.08,397.12l7.02,2.85s4.12-5.46,4.59-8.54l-8.22-2.59s0,.02,0,.02c-.01,2.81-1.24,5.67-3.39,8.26Z"/><path class="cls-1" d="m380.9,379.98l-9.19-2.58c-3.5,2.18-6.42,4.78-8.61,7.6l8.55,1.39c2.27-2.55,5.45-4.8,9.26-6.4Z"/><path class="cls-15" d="m398.62,387.32l3.38-.98.59,2.05-3.29.95c.41,2.08.04,4.3-.94,5.8l-3.95.04-.17-1c.82-1.35,1.32-2.17,1.1-3.7l-5.05,1.46c-.16,2.51-.54,5.38-4.86,6.63-3.2.93-6.41.15-7.89-2.93l-3.35.97-.59-2.05,3.29-.96c-.26-1.59-.09-3.26.64-4.7l3.76-.93.3.64c-.4,1.09-.81,2.9-.71,3.82l5.14-1.49c.13-2.5.52-5.33,4.78-6.56,3.14-.91,6.31-.14,7.82,2.91Zm-12.86,5.95l-4.32,1.25c.68.98,1.69,1.16,2.69.86,1.06-.31,1.46-1.09,1.63-2.12Zm6.3-5.65c-1.06.31-1.47,1.07-1.67,2.08l4.19-1.22c-.63-.93-1.55-1.15-2.52-.87Z"/><path class="cls-23" d="m398.5,386.34l3.4-.99.59,2.05-3.31.96c.41,2.08.03,4.3-.95,5.81l-4.03-.05c.83-1.35,1.22-3.06,1-4.6l-5.07,1.47c-.16,2.51-.55,5.38-4.89,6.64-3.22.93-6.44.16-7.93-2.92l-3.37.98-.59-2.05,3.31-.96c-.26-1.59-.09-3.26.65-4.7l4.03-.06c-.58,1.3-.78,2.52-.67,3.59l5.17-1.5c.13-2.5.53-5.33,4.81-6.57,3.16-.92,6.35-.15,7.86,2.9Zm-12.84,5.95l-4.32,1.25c.68.98,1.69,1.16,2.69.86,1.06-.31,1.46-1.09,1.63-2.12Zm6.3-5.65c-1.06.31-1.47,1.07-1.67,2.08l4.19-1.22c-.63-.93-1.55-1.15-2.52-.87Z"/><path class="cls-15" d="m416.59,390.21c-1.73,9.08-10.06,15.61-18.12,19.05-9.15,3.91-20.66,5.18-29.88.75-4.14-1.99-7.62-5.26-8.97-9.74-.14-.46-.86-.26-.72.2,2.65,8.78,12.29,12.46,20.67,12.96,10.76.64,22.29-3.17,30.24-10.52,3.61-3.34,6.58-7.61,7.51-12.51.09-.47-.63-.67-.72-.2h0Z"/><path class="cls-22" d="m379.09,189.43c12.42-12.37,26.38-20.28,37.21-15.88,2.26.92,6.37,5.28,8.1,7.02,10.01,10.05,5.96,30.32-9.05,45.28-15.01,14.95-35.3,18.92-45.31,8.87-1.46-1.46-5.71-5.54-6.59-7.38-5.12-10.85,2.81-25.12,15.64-37.89Z"/><g class="cls-28"><path class="cls-20" d="m406.13,223.18l-6.31,4.27c2.66,1.23,4.89,3.32,6.35,5.86,2.17-1.39,4.31-2.98,6.37-4.77-1.63-2.3-3.86-4.16-6.41-5.36Z"/></g><g class="cls-28"><path class="cls-20" d="m422.86,198.3l-1.13,3.72c2.43.87,4.48,1.75,6.79,2.62.5-1.69.87-3.37,1.11-5.01-2.36-.59-4.28-.88-6.77-1.32Z"/></g><g class="cls-28"><path class="cls-20" d="m429.9,197.18c.35-5.17-.65-9.93-3.13-13.76-1.57-.06-3.14-.05-4.71.06l1.36,12.47c2.2.36,4.46.65,6.48,1.23Z"/></g><ellipse class="cls-23" cx="391.48" cy="201.87" rx="38.09" ry="25.69" transform="translate(-28.36 335.09) rotate(-44.88)"/><path class="cls-22" d="m379.29,189.24c10.36-10.32,24.31-13.12,31.16-6.25,6.84,6.87,3.99,20.81-6.38,31.13-10.36,10.32-24.31,13.12-31.16,6.25-6.84-6.87-3.99-20.81,6.38-31.13Z"/><path class="cls-15" d="m403.28,212.55c-10.36,10.32-24.31,13.12-31.16,6.25-.76-.76-1.39-1.61-1.91-2.52.61,1.57,1.51,2.99,2.7,4.19,6.84,6.87,20.79,4.07,31.16-6.25,9.22-9.18,12.49-21.22,8.28-28.61,2.91,7.44-.52,18.42-9.08,26.94Z"/><path class="cls-1" d="m412.88,200.33c.42-.02,9.91-2.03,9.91-2.03l-1.02,3.61-10.13,1.87,1.24-3.44Z"/><path class="cls-1" d="m367.02,230.84c.35.24.71.47,1.07.68l3.92,1.74s.03.01.05.02l27.96-5.56s.03-.02.05-.03l6.3-4.63s.02-.02.03-.03c-.13.03-35.13,7.32-39.38,7.81Z"/><path class="cls-1" d="m379.81,178.15c6.99-1.28,26.03-5.29,33.33-6.83-9.04-4.1-21.97-1.47-33.33,6.83Z"/><path class="cls-1" d="m413.74,197.06l9.6-1.11s1.27-8.62-.09-12.36l-10.78,2.14s0,.02.01.03c1.7,3.15,2.09,7.1,1.26,11.31Z"/><path class="cls-1" d="m376.21,192.69l-11.86,2.74c-2.58,4.58-4.25,9.28-4.97,13.76l10.41-3.68c.98-4.25,3.16-8.71,6.43-12.83Z"/><path class="cls-15" d="m400.52,190.05l3.18-3.17,1.92,1.93-3.1,3.08c1.73,2.08,2.67,4.79,2.51,7.06l-4.39,2.47-.8-1.01c.09-2.01.15-3.23-1.04-4.82l-4.75,4.73c1.36,2.9,2.69,6.34-1.37,10.39-3.01,3-7.07,4.09-10.62,1.55l-3.15,3.14-1.92-1.93,3.1-3.08c-1.27-1.62-2.1-3.59-2.16-5.64l3.64-3.34.73.53c.22,1.46.87,3.74,1.55,4.71l4.83-4.81c-1.39-2.88-2.68-6.27,1.32-10.26,2.95-2.94,6.97-4.02,10.52-1.54Zm-10.73,14.53l-4.06,4.04c1.36.68,2.59.26,3.54-.68,1-1,.97-2.12.52-3.36Zm3.59-10.17c-1,1-.99,2.1-.59,3.35l3.94-3.93c-1.27-.65-2.44-.33-3.35.58Z"/><path class="cls-23" d="m399.79,189.03l3.2-3.19,1.92,1.93-3.11,3.1c1.73,2.08,2.67,4.79,2.49,7.08l-4.54,2.41c.1-2.02-.51-4.17-1.69-5.76l-4.77,4.75c1.36,2.91,2.68,6.35-1.4,10.42-3.03,3.02-7.11,4.12-10.66,1.59l-3.17,3.16-1.92-1.93,3.12-3.1c-1.27-1.62-2.1-3.59-2.15-5.65l4.48-2.54c.15,1.81.66,3.29,1.45,4.43l4.86-4.84c-1.39-2.88-2.67-6.28,1.36-10.3,2.97-2.96,7-4.06,10.56-1.57Zm-10.71,14.51l-4.06,4.04c1.36.68,2.59.26,3.54-.68,1-1,.97-2.12.52-3.36Zm3.59-10.17c-1,1-.99,2.1-.59,3.35l3.94-3.93c-1.27-.65-2.44-.33-3.35.58Z"/><path class="cls-15" d="m422.48,182.27c3.81,11.7-2.14,24.71-9.56,33.63-7.95,9.55-19.86,17.59-32.64,18.04-5.69.2-11.4-1.39-15.52-5.46-.34-.34-.87.19-.53.53,8.12,8.03,20.89,6.41,30.42,2.05,12.52-5.74,23.18-17.01,27.7-30.07,2.09-6.03,2.87-12.76.86-18.92-.15-.46-.87-.26-.72.2h0Z"/><circle class="cls-23" cx="191.68" cy="36.69" r="31.94" transform="translate(121 218.6) rotate(-79.6)"/><ellipse class="cls-24" cx="191.78" cy="36.9" rx="21.83" ry="22.21" transform="translate(1.56 81.13) rotate(-23.98)"/><path class="cls-15" d="m173.91,45.35c-4.99-11.21-.1-24.26,10.92-29.16,1.22-.54,2.46-.95,3.71-1.25-1.99.27-3.97.81-5.89,1.66-11.01,4.9-15.9,17.96-10.92,29.16,4.44,9.97,15.19,15.11,25.26,12.68-9.41,1.26-18.96-3.83-23.08-13.09Z"/><path class="cls-1" d="m181.32,56.22c-.21.38-3.42,9.28-3.42,9.28l-3.08-1.69,3.72-9.45,2.79,1.86Z"/><path class="cls-1" d="m175.1,9.4c-.45.27-.89.55-1.31.84l-4.01,3.21s-.03.03-.04.04l-9.85,26.16s0,.04,0,.05l1.31,6.51s0,.02.01.04c.05-.12,12.03-32.94,13.89-36.85Z"/><path class="cls-1" d="m223.02,30.52c-2.58,6.52-9.05,24.38-11.52,31.22,9.35-7.38,13.84-19.49,11.52-31.22Z"/><path class="cls-1" d="m184.25,57.59l-4.22,8.84s8.3,2.72,12.98,2.17l3.8-10.09s-.02,0-.03,0c-4.24.96-8.59.58-12.53-.93Z"/><path class="cls-1" d="m209.84,24.63l3.77-11.17c-3.35-3.16-7.32-5.52-11.6-6.99l-1.98,10.03c3.89,1.65,7.34,4.43,9.81,8.12Z"/><path class="cls-15" d="m199.62,46.61l1.54,3.46-3.09,1.37-1.5-3.37c-3.14,1.18-6.5,1.52-8.79.95l-.94-4.1.96-.43c2.05.46,4.65.3,6.97-.47l-2.3-5.16c-3.8.69-8.14,1.25-10.11-3.17-1.46-3.27-.33-7.15,4.31-9.87l-1.53-3.43,3.09-1.37,1.5,3.37c2.4-.85,4.93-1.23,7.11-.91l.15,4.49-.96.43c-1.65-.07-3.09-.36-4.48.07l2.34,5.25c3.79-.72,8.07-1.26,10,3.1,1.43,3.21.32,7.04-4.27,9.78Zm-9.17-12.28l-1.95-4.39c-1.47,1.1-1.72,2.28-1.27,3.3.48,1.08,1.67,1.26,3.22,1.08Zm8.63,5.08c-.48-1.08-1.64-1.27-3.17-1.14l1.9,4.26c1.39-1.03,1.72-2.13,1.28-3.12Z"/><path class="cls-23" d="m198.66,47.04l1.54,3.46-3.09,1.37-1.5-3.37c-3.14,1.18-6.5,1.52-8.79.95l.02-4.53c2.05.46,4.65.3,6.97-.47l-2.3-5.16c-3.8.69-8.14,1.25-10.11-3.17-1.46-3.27-.33-7.15,4.31-9.87l-1.53-3.43,3.09-1.37,1.5,3.37c2.4-.85,4.93-1.23,7.11-.91l.15,4.49c-1.97-.19-3.81,0-5.44.5l2.34,5.25c3.79-.72,8.07-1.26,10,3.1,1.43,3.21.32,7.04-4.27,9.78Zm-9.17-12.28l-1.95-4.39c-1.47,1.1-1.72,2.28-1.27,3.3.48,1.08,1.67,1.26,3.22,1.08Zm8.63,5.08c-.48-1.08-1.64-1.27-3.17-1.14l1.9,4.26c1.39-1.03,1.72-2.13,1.28-3.12Z"/><ellipse class="cls-24" cx="219.04" cy="447.68" rx="214.87" ry="9.11"/><rect class="cls-14" x="29" y="88.43" width="83.86" height="62.88" rx="3.92" ry="3.92"/><rect class="cls-2" x="29" y="88.43" width="83.86" height="62.88" rx="3.92" ry="3.92"/><path class="cls-14" d="m38.56,129.7c3.48,9.69,13.68,14.9,22.78,11.63l3.24-1.16-12.61-35.1-3.24,1.16c-9.1,3.27-13.65,13.78-10.17,23.47Z"/><path class="cls-17" d="m38.56,129.7c3.48,9.69,13.68,14.9,22.78,11.63l3.24-1.16-12.61-35.1-3.24,1.16c-9.1,3.27-13.65,13.78-10.17,23.47Z"/><path class="cls-13" d="m75.15,130.57c-4.39,9.32-15.51,13.31-24.82,8.92-9.32-4.39-13.31-15.51-8.92-24.82,4.39-9.32,15.51-13.31,24.82-8.92,9.32,4.39,13.31,15.51,8.92,24.82Z"/><path class="cls-14" d="m44.23,127.67c2.79,7.76,11.34,11.79,19.1,9,7.76-2.79,11.79-11.34,9-19.1-2.79-7.76-11.34-11.79-19.1-9-7.76,2.79-11.79,11.34-9,19.1Z"/><path class="cls-11" d="m44.23,127.67c2.79,7.76,11.34,11.79,19.1,9,7.76-2.79,11.79-11.34,9-19.1-2.79-7.76-11.34-11.79-19.1-9-7.76,2.79-11.79,11.34-9,19.1Z"/><path class="cls-13" d="m62.45,127.4c-.54.81-1.31,1.41-2.29,1.8l.09.48c.05.25,0,.48-.15.7-.15.22-.34.36-.59.4-.25.05-.47,0-.67-.15-.2-.15-.33-.35-.38-.61l-.08-.43c-.94.06-1.78-.08-2.53-.41-.75-.33-1.33-.77-1.73-1.34-.19-.27-.3-.51-.33-.7-.05-.26,0-.5.15-.72.15-.22.36-.36.64-.41.22-.04.42-.01.62.08s.35.24.46.43c.22.4.55.7.99.91.44.21.91.31,1.43.32l-.7-4.16c-1.14-.15-2.07-.43-2.78-.86-.72-.43-1.16-1.09-1.33-1.98-.17-.9,0-1.72.5-2.45.5-.73,1.29-1.27,2.34-1.62l-.08-.41c-.05-.25,0-.48.14-.7.14-.22.32-.35.56-.4.25-.05.48,0,.69.16.22.15.35.35.39.6l.07.39c1.07-.09,1.94.05,2.62.43.68.38,1.09.94,1.23,1.69.05.28,0,.54-.14.76-.15.22-.35.36-.61.41-.23.04-.44,0-.63-.11-.19-.12-.32-.29-.39-.52-.09-.26-.29-.48-.61-.64-.32-.16-.71-.24-1.18-.25l.62,3.7c2.48.32,3.88,1.32,4.2,3,.17.92-.01,1.78-.55,2.59Zm-6.81-6.31c.31.2.77.37,1.38.49l-.57-3.12c-.53.19-.9.45-1.13.76-.23.32-.31.67-.23,1.06.06.34.25.61.55.81Zm5.3,5.37c.25-.4.34-.8.26-1.21-.06-.34-.25-.62-.56-.87-.31-.24-.8-.43-1.47-.56l.65,3.57c.49-.23.86-.54,1.12-.93Z"/><path class="cls-14" d="m44.95,115.34c4.03-7.36,13.26-10.06,20.62-6.04,7.36,4.03,10.06,13.26,6.04,20.62,2.85-7.13-.08-15.27-6.82-18.96-7.36-4.03-16.59-1.32-20.62,6.04.23-.57.49-1.12.78-1.66Z"/><path class="cls-17" d="m44.95,115.34c4.03-7.36,13.26-10.06,20.62-6.04,7.36,4.03,10.06,13.26,6.04,20.62,2.85-7.13-.08-15.27-6.82-18.96-7.36-4.03-16.59-1.32-20.62,6.04.23-.57.49-1.12.78-1.66Z"/><circle class="cls-27" cx="45.93" cy="94.5" r="2.01"/><circle class="cls-27" cx="40.2" cy="94.5" r="2.01"/><circle class="cls-27" cx="34.46" cy="94.5" r="2.01"/><g class="cls-30"><path class="cls-20" d="m83.4,139.91h21.51c1.93,0,1.93-3,0-3h-21.51c-1.93,0-1.93,3,0,3h0Z"/></g><g class="cls-30"><path class="cls-20" d="m83.4,135.65h21.51c1.93,0,1.93-3,0-3h-21.51c-1.93,0-1.93,3,0,3h0Z"/></g><g class="cls-30"><path class="cls-20" d="m83.4,131.4h21.51c1.93,0,1.93-3,0-3h-21.51c-1.93,0-1.93,3,0,3h0Z"/></g><g class="cls-30"><path class="cls-20" d="m83.4,127.15h21.51c1.93,0,1.93-3,0-3h-21.51c-1.93,0-1.93,3,0,3h0Z"/></g><g class="cls-30"><path class="cls-20" d="m83.4,122.9h21.51c1.93,0,1.93-3,0-3h-21.51c-1.93,0-1.93,3,0,3h0Z"/></g><g class="cls-30"><path class="cls-20" d="m83.4,118.65h21.51c1.93,0,1.93-3,0-3h-21.51c-1.93,0-1.93,3,0,3h0Z"/></g><g class="cls-30"><path class="cls-20" d="m83.4,114.4h21.51c1.93,0,1.93-3,0-3h-21.51c-1.93,0-1.93,3,0,3h0Z"/></g><g class="cls-30"><path class="cls-20" d="m83.4,110.15h21.51c1.93,0,1.93-3,0-3h-21.51c-1.93,0-1.93,3,0,3h0Z"/></g><rect class="cls-14" x="312.94" y="64.59" width="89.82" height="96.79" rx="5.11" ry="5.11"/><rect class="cls-2" x="312.94" y="64.59" width="89.82" height="96.79" rx="5.11" ry="5.11"/><path class="cls-19" d="m359.49,113.73l-14.85-23.25c4.43-2.83,9.59-4.34,14.85-4.34,8.4,0,16.35,3.83,21.58,10.4l-21.58,17.19Z"/><path class="cls-20" d="m356.35,115.22l-27.43,3.02c-.11-1-.17-2.01-.17-3.02,0-9.2,4.6-17.81,12.24-22.93l15.35,22.93Z"/><path class="cls-13" d="m362.72,117.07l20.77-17.43c4.1,4.88,6.34,11.05,6.34,17.43,0,5.73-1.82,11.31-5.19,15.95l-21.92-15.95Z"/><path class="cls-17" d="m358.84,119.6l24.04,16.73c-5.47,7.86-14.46,12.56-24.04,12.56-14.86,0-27.48-11.31-29.11-26.08l29.11-3.21Z"/><path class="cls-13" d="m342.1,73.94c0,1.71-1.39,3.1-3.1,3.1s-3.1-1.39-3.1-3.1,1.39-3.1,3.1-3.1,3.1,1.39,3.1,3.1Z"/><path class="cls-13" d="m333.28,73.94c0,1.71-1.39,3.1-3.1,3.1s-3.1-1.39-3.1-3.1,1.39-3.1,3.1-3.1,3.1,1.39,3.1,3.1Z"/><circle class="cls-13" cx="321.35" cy="73.94" r="3.1"/><rect class="cls-14" x="22.08" y="168.52" width="93.15" height="55.28" rx="4.09" ry="4.09"/><rect class="cls-2" x="22.08" y="168.52" width="93.15" height="55.28" rx="4.09" ry="4.09"/><path class="cls-12" d="m36.35,199.49c3.89-3.58,7.55-7.42,11.31-11.13-.15.02-.3.04-.45.06,3.58,1.76,7.17,3.53,10.75,5.29.14.07.34.07.45-.06,3.5-4.12,7.01-8.24,10.51-12.37l-.59-.08c3.58,5.16,7.17,10.33,10.75,15.49.11.16.33.25.51.13,3.5-2.28,6.99-4.56,10.49-6.84.4-.26.03-.91-.38-.65-3.5,2.28-6.99,4.56-10.49,6.84.17.04.34.09.51.13-3.58-5.16-7.17-10.33-10.75-15.49-.13-.18-.42-.27-.59-.08-3.5,4.12-7.01,8.24-10.51,12.37.15-.02.3-.04.45-.06-3.58-1.76-7.17-3.53-10.75-5.29-.15-.07-.33-.06-.45.06-3.76,3.71-7.42,7.55-11.31,11.13-.36.33.18.86.53.53h0Z"/><rect class="cls-17" x="34.41" y="204.07" width="5.04" height="11.17"/><rect class="cls-14" x="44.79" y="196.69" width="5.04" height="18.55"/><rect class="cls-17" x="55.36" y="198.56" width="5.04" height="16.69"/><rect class="cls-14" x="66.13" y="188.1" width="5.04" height="27.15"/><rect class="cls-17" x="77.01" y="202.49" width="5.04" height="12.75"/><path class="cls-17" d="m39.64,197.96c0,1.5-1.21,2.71-2.71,2.71s-2.71-1.21-2.71-2.71,1.21-2.71,2.71-2.71,2.71,1.21,2.71,2.71Z"/><path class="cls-17" d="m50.02,188.1c0,1.5-1.21,2.71-2.71,2.71s-2.71-1.21-2.71-2.71,1.21-2.71,2.71-2.71,2.71,1.21,2.71,2.71Z"/><circle class="cls-17" cx="58.14" cy="192.55" r="2.71"/><path class="cls-17" d="m71.36,181.03c0,1.5-1.21,2.71-2.71,2.71s-2.71-1.21-2.71-2.71,1.21-2.71,2.71-2.71,2.71,1.21,2.71,2.71Z"/><path class="cls-17" d="m82.11,196.52c0,1.5-1.21,2.71-2.71,2.71s-2.71-1.21-2.71-2.71,1.21-2.71,2.71-2.71,2.71,1.21,2.71,2.71Z"/><rect class="cls-14" x="87.79" y="196.1" width="5.04" height="19.14"/><rect class="cls-13" x="44.79" y="196.69" width="5.04" height="18.55"/><rect class="cls-13" x="66.13" y="188.1" width="5.04" height="27.15"/><rect class="cls-13" x="87.79" y="196.1" width="5.04" height="19.14"/><rect class="cls-17" x="98.94" y="202.49" width="5.04" height="12.75"/><path class="cls-12" d="m89.7,190c3.37,1.87,6.75,3.75,10.12,5.62.48.27.96.53,1.44.8.42.23.8-.41.38-.65-3.37-1.87-6.75-3.75-10.12-5.62-.48-.27-.96-.53-1.44-.8-.42-.23-.8.41-.38.65h0Z"/><path class="cls-17" d="m93.2,189.68c0,1.5-1.21,2.71-2.71,2.71s-2.71-1.21-2.71-2.71,1.21-2.71,2.71-2.71,2.71,1.21,2.71,2.71Z"/><path class="cls-17" d="m104.17,196.1c0,1.5-1.21,2.71-2.71,2.71s-2.71-1.21-2.71-2.71,1.21-2.71,2.71-2.71,2.71,1.21,2.71,2.71Z"/><circle class="cls-13" cx="29.07" cy="175.21" r="2.22"/><path class="cls-13" d="m37.36,175.21c0,1.23-.99,2.22-2.22,2.22s-2.22-.99-2.22-2.22.99-2.22,2.22-2.22,2.22.99,2.22,2.22Z"/><circle class="cls-13" cx="41.2" cy="175.21" r="2.22"/><path class="cls-12" d="m271.53,364.91h-117.67c-13.23,0-23.96-10.73-24.7-23.81V59.84c.74-13.39,11.47-24.12,24.7-24.13h117.67c13.23,0,23.96,10.73,23.97,23.97v281.26c0,13.23-10.73,23.96-23.97,23.97Z"/><path class="cls-14" d="m271.53,41.22h-30.58c-1.99-.01-3.67,1.45-3.94,3.42l-.13.96c-.64,4.84-4.76,8.47-9.65,8.49h-29.07c-4.88-.02-9-3.65-9.65-8.49l-.11-.96c-.26-1.99-1.96-3.47-3.96-3.47h-30.58c-10.2-.04-18.49,8.2-18.53,18.4,0,.04,0,.08,0,.11v281.26c0,10.2,8.27,18.46,18.46,18.46h117.67c10.2,0,18.47-8.26,18.48-18.46V59.68c0-10.17-8.24-18.42-18.41-18.46Z"/><path class="cls-5" d="m271.53,41.22h-30.58c-1.99-.01-3.67,1.45-3.94,3.42l-.13.96c-.64,4.84-4.76,8.47-9.65,8.49h-29.07c-4.88-.02-9-3.65-9.65-8.49l-.11-.96c-.26-1.99-1.96-3.47-3.96-3.47h-30.58c-10.2-.04-18.49,8.2-18.53,18.4,0,.04,0,.08,0,.11v281.26c0,10.2,8.27,18.46,18.46,18.46h117.67c10.2,0,18.47-8.26,18.48-18.46V59.68c0-10.17-8.24-18.42-18.41-18.46Z"/><g class="cls-31"><path class="cls-9" d="m205.57,44.33c0,1.3-1.03,2.35-2.33,2.36-1.3,0-2.35-1.03-2.36-2.33,0-1.3,1.03-2.35,2.33-2.36.01,0,.02,0,.03,0,1.29,0,2.33,1.04,2.33,2.33Z"/><path class="cls-9" d="m222.15,42h-8.02c-1.29,0-2.33,1.04-2.33,2.33s1.04,2.33,2.33,2.33h8.02c1.29,0,2.33-1.04,2.33-2.33s-1.04-2.33-2.33-2.33Z"/></g><rect class="cls-13" x="148.2" y="51.62" width="2.48" height="2.48"/><polygon class="cls-13" points="153.14 51.62 153.14 54.09 155.62 54.09 155.62 51.62 155.62 49.14 153.14 49.14 153.14 51.62"/><polygon class="cls-13" points="158.1 46.68 158.1 49.14 158.1 51.62 158.1 54.09 160.57 54.09 160.57 51.62 160.57 49.14 160.57 46.68 158.1 46.68"/><path class="cls-13" d="m264.51,46.84v1.81h-1.21v3.63h1.21v1.81h10.95v-7.25h-10.95Zm4.89,5.44h-3.71v-3.63h3.63l.08,3.63Z"/><path class="cls-1" d="m272.69,363.74h-117.67c-13.23,0-23.96-10.73-24.7-23.81V58.67c.74-13.39,11.47-24.12,24.7-24.13h117.67c13.23,0,23.96,10.73,23.97,23.97v281.26c0,13.23-10.73,23.96-23.97,23.97Z"/><path class="cls-1" d="m132.92,288.34c0-2.84,10.17-39.69,32.54-78.44,22.37-38.75,50.03-12.29,76.87-54.81,26.84-42.53,29.86-113.51,29.86-113.51h-31.26s-5.93,79.49-34.4,89.89c-28.47,10.4-73.62,73.71-73.62,73.71v83.16Z"/><path class="cls-1" d="m153.97,359.88h18.46s102.33-145.96,117.51-172.2v-28.29c-13.95,32.81-135.97,200.5-135.97,200.5Z"/><path class="cls-20" d="m147.04,69.09h131.2c3.17,0,5.74,2.57,5.74,5.74v261.47c0,10.2-8.28,18.47-18.47,18.47h-105.2c-10.49,0-19.01-8.52-19.01-19.01V74.83c0-3.17,2.57-5.74,5.74-5.74Z"/><rect class="cls-13" x="153.97" y="304.69" width="19.96" height="19.96"/><g class="cls-30"><path class="cls-20" d="m168.44,316.45s.18,2.37.15,3.59"/><path class="cls-20" d="m166.94,316.45c.09,1.19.17,2.39.15,3.59-.02.78.7,1.54,1.5,1.5s1.48-.66,1.5-1.5c.02-1.19-.06-2.4-.15-3.59-.03-.4-.15-.77-.44-1.06-.26-.26-.69-.46-1.06-.44s-.79.14-1.06.44-.47.67-.44,1.06h0Z"/></g><g class="cls-30"><path class="cls-20" d="m163.64,314.67s.18,3.54.15,5.36"/><path class="cls-20" d="m162.14,314.67c.09,1.78.17,3.57.15,5.36-.01.78.7,1.54,1.5,1.5s1.49-.66,1.5-1.5c.02-1.79-.06-3.58-.15-5.36-.04-.78-.66-1.54-1.5-1.5-.78.03-1.54.66-1.5,1.5h0Z"/></g><g class="cls-30"><path class="cls-20" d="m158.82,311.12s.18,5.89.15,8.91"/><path class="cls-20" d="m157.32,311.12c.09,2.97.17,5.94.15,8.91,0,.78.69,1.54,1.5,1.5s1.49-.66,1.5-1.5c.02-2.97-.06-5.94-.15-8.91-.02-.78-.67-1.54-1.5-1.5s-1.53.66-1.5,1.5h0Z"/></g><rect class="cls-13" x="180.35" y="304.69" width="93.31" height="40.54"/><path class="cls-13" d="m147.24,69.09h130.73c3.32,0,6.02,2.7,6.02,6.02v31.7h-143.09v-31.37c0-3.5,2.84-6.34,6.34-6.34Z"/><path class="cls-12" d="m161.03,92.56c0,2.07-1.6,3.27-4.66,3.27h-6.03v-11.98h5.69c2.91,0,4.41,1.25,4.41,3.12,0,1.2-.6,2.12-1.55,2.64,1.3.43,2.13,1.46,2.13,2.96Zm-8.01-6.63v2.82h2.68c1.32,0,2.03-.48,2.03-1.42s-.72-1.4-2.03-1.4h-2.68Zm5.29,6.33c0-1.01-.75-1.49-2.15-1.49h-3.15v2.96h3.15c1.4,0,2.15-.44,2.15-1.47Z"/><path class="cls-12" d="m171.92,86.62v9.21h-2.46v-1.1c-.68.8-1.68,1.23-2.78,1.23-2.25,0-3.83-1.3-3.83-4.14v-5.2h2.6v4.81c0,1.54.66,2.23,1.81,2.23s2.06-.79,2.06-2.48v-4.55h2.6Z"/><path class="cls-12" d="m173.47,94.98l.87-1.92c.8.53,2.01.89,3.11.89,1.2,0,1.65-.33,1.65-.84,0-1.51-5.41.03-5.41-3.65,0-1.75,1.53-2.98,4.14-2.98,1.23,0,2.6.29,3.45.8l-.87,1.9c-.88-.51-1.76-.69-2.58-.69-1.16,0-1.66.38-1.66.86,0,1.58,5.41.05,5.41,3.68,0,1.71-1.55,2.93-4.23,2.93-1.51,0-3.05-.43-3.88-.99Z"/><path class="cls-12" d="m182.86,83.85c0-.84.65-1.49,1.62-1.49s1.62.62,1.62,1.44c0,.89-.65,1.54-1.62,1.54s-1.62-.65-1.62-1.49Zm.32,2.77h2.6v9.21h-2.6v-9.21Z"/><path class="cls-12" d="m197.34,90.56v5.27h-2.6v-4.86c0-1.49-.67-2.17-1.81-2.17-1.25,0-2.15.79-2.15,2.48v4.55h-2.6v-9.21h2.48v1.08c.7-.79,1.75-1.22,2.96-1.22,2.11,0,3.71,1.27,3.71,4.07Z"/><path class="cls-12" d="m208.52,91.98h-6.78c.25,1.15,1.2,1.85,2.56,1.85.95,0,1.63-.29,2.25-.89l1.38,1.54c-.83.98-2.08,1.49-3.7,1.49-3.1,0-5.11-2-5.11-4.74s2.05-4.74,4.78-4.74,4.66,1.81,4.66,4.78c0,.21-.03.5-.05.72Zm-6.81-1.56h4.41c-.18-1.16-1.03-1.92-2.2-1.92s-2.03.74-2.21,1.92Z"/><path class="cls-12" d="m209.43,94.98l.87-1.92c.8.53,2.01.89,3.11.89,1.2,0,1.65-.33,1.65-.84,0-1.51-5.41.03-5.41-3.65,0-1.75,1.53-2.98,4.14-2.98,1.23,0,2.6.29,3.45.8l-.87,1.9c-.88-.51-1.76-.69-2.58-.69-1.16,0-1.66.38-1.66.86,0,1.58,5.41.05,5.41,3.68,0,1.71-1.55,2.93-4.23,2.93-1.51,0-3.05-.43-3.88-.99Z"/><path class="cls-12" d="m218.28,94.98l.87-1.92c.8.53,2.01.89,3.11.89,1.2,0,1.65-.33,1.65-.84,0-1.51-5.41.03-5.41-3.65,0-1.75,1.53-2.98,4.14-2.98,1.23,0,2.6.29,3.45.8l-.87,1.9c-.88-.51-1.76-.69-2.58-.69-1.16,0-1.66.38-1.66.86,0,1.58,5.41.05,5.41,3.68,0,1.71-1.55,2.93-4.23,2.93-1.51,0-3.05-.43-3.88-.99Z"/><rect class="cls-19" x="229.49" y="80.02" width="46.21" height="19.32"/><path class="cls-20" d="m245.44,83.85v11.98h-2.28l-5.97-7.28v7.28h-2.74v-11.98h2.29l5.96,7.28v-7.28h2.74Z"/><path class="cls-20" d="m257.06,91.98h-6.97c.26,1.15,1.23,1.85,2.64,1.85.98,0,1.68-.29,2.31-.89l1.42,1.54c-.86.98-2.14,1.49-3.8,1.49-3.18,0-5.26-2-5.26-4.74s2.11-4.74,4.91-4.74,4.79,1.81,4.79,4.78c0,.21-.03.5-.05.72Zm-7-1.56h4.54c-.19-1.16-1.06-1.92-2.26-1.92s-2.09.74-2.28,1.92Z"/><path class="cls-20" d="m273.51,86.62l-3.34,9.21h-2.57l-2.07-5.72-2.14,5.72h-2.57l-3.32-9.21h2.52l2.17,6.23,2.26-6.23h2.26l2.19,6.23,2.24-6.23h2.36Z"/><path class="cls-13" d="m204.99,141.34c-.07,10.85-6.93,20.82-17.2,24.49s-22.04.43-28.99-8.02-7.74-20.6-2.15-29.89,16.87-14.3,27.59-12.07c12,2.5,20.67,13.28,20.75,25.49,0,.96,1.51.97,1.5,0-.07-11.43-7.25-21.83-17.99-25.83s-23.43-.62-30.76,8.29c-7.33,8.91-8.35,21.81-2.38,31.71s17.66,15.03,28.95,12.83,20.09-11.44,21.84-22.67c.22-1.44.34-2.89.35-4.34,0-.97-1.49-.97-1.5,0Z"/><path class="cls-13" d="m176.12,114.18c-5.77,5.64-9.91,12.97-11.26,20.97s.09,15.56,3.76,22.41c2.17,4.05,5.09,7.66,8.53,10.7.72.64,1.79-.42,1.06-1.06-5.73-5.07-9.91-11.75-11.58-19.24s-.55-15.21,2.77-22.02c1.95-4,4.61-7.6,7.79-10.71.69-.68-.37-1.74-1.06-1.06h0Z"/><path class="cls-13" d="m181.83,168.27c5.82-5.61,10.04-12.94,11.43-20.95s-.08-15.53-3.78-22.36c-2.2-4.06-5.16-7.67-8.64-10.7-.72-.63-1.79.42-1.06,1.06,5.74,5.01,9.99,11.64,11.69,19.1s.58,15.28-2.8,22.09c-1.99,4.01-4.68,7.6-7.9,10.7-.7.67.37,1.73,1.06,1.06h0Z"/><path class="cls-13" d="m152.44,141.62h52.48c.97,0,.97-1.5,0-1.5h-52.48c-.97,0-.97,1.5,0,1.5h0Z"/><path class="cls-13" d="m157.56,126.97h43.16c.97,0,.97-1.5,0-1.5h-43.16c-.97,0-.97,1.5,0,1.5h0Z"/><path class="cls-13" d="m157.56,157.58h43.16c.97,0,.97-1.5,0-1.5h-43.16c-.97,0-.97,1.5,0,1.5h0Z"/><rect class="cls-17" x="215.8" y="116.4" width="58.81" height="52.34"/><path class="cls-10" d="m227.84,162.33c0,1.62-1.32,2.94-2.94,2.94s-2.94-1.32-2.94-2.94,1.32-2.94,2.94-2.94,2.94,1.32,2.94,2.94Z"/><path class="cls-10" d="m268.53,162.33c0,1.62-1.32,2.94-2.94,2.94s-2.94-1.32-2.94-2.94,1.32-2.94,2.94-2.94,2.94,1.32,2.94,2.94Z"/><path class="cls-10" d="m235.95,162.33c0,1.62-1.32,2.94-2.94,2.94s-2.94-1.32-2.94-2.94,1.32-2.94,2.94-2.94,2.94,1.32,2.94,2.94Z"/><rect class="cls-17" x="149.48" y="175.88" width="124.19" height="41.09"/><g class="cls-30"><path class="cls-20" d="m155.46,184.52h23.33c1.93,0,1.93-3,0-3h-23.33c-1.93,0-1.93,3,0,3h0Z"/></g><circle class="cls-17" cx="179.27" cy="142.1" r="23.11" transform="translate(-.72 283.3) rotate(-76.52)"/><path class="cls-13" d="m196.84,126.75s-16.02,4.66-16.53,5.54-.63,7.58.75,8.94c1.38,1.36,5.9,1.28,6.4,0,.5-1.28,1.51-2.66,2.39-1.15.88,1.51-.88,7.03-.88,8.29s2.89,4.56,5.15,5.54c2.26.98,6.71-9.97,8.13-11.33,1.41-1.37-2.18-14.2-5.4-15.82"/><path class="cls-13" d="m156.59,136.53s6.14,5.42,4.89,8.06c-1.26,2.64-.75,9.04,2.51,10.54,3.26,1.51,4.39,3.89,6.15,3.01,1.76-.88,4.14-13.64,4.52-16.55.38-2.91-4.77-6.67-4.9-8.93-.13-2.26,5.9-5.98,3.14-6.44-2.76-.46-12.5,1.85-12.5,1.85,0,0-2.42,3.16-3.81,8.45"/><g class="cls-30"><path class="cls-20" d="m222.36,155.4h45.54c1.93,0,1.93-3,0-3h-45.54c-1.93,0-1.93,3,0,3h0Z"/></g><g class="cls-30"><path class="cls-20" d="m222.36,149.09h45.54c1.93,0,1.93-3,0-3h-45.54c-1.93,0-1.93,3,0,3h0Z"/></g><g class="cls-30"><path class="cls-20" d="m222.36,142.78h45.54c1.93,0,1.93-3,0-3h-45.54c-1.93,0-1.93,3,0,3h0Z"/></g><g class="cls-30"><path class="cls-20" d="m222.36,136.48h45.54c1.93,0,1.93-3,0-3h-45.54c-1.93,0-1.93,3,0,3h0Z"/></g><g class="cls-30"><path class="cls-20" d="m222.36,130.17h45.54c1.93,0,1.93-3,0-3h-45.54c-1.93,0-1.93,3,0,3h0Z"/></g><g class="cls-30"><path class="cls-20" d="m222.36,122.87h17.52c1.93,0,1.93-3,0-3h-17.52c-1.93,0-1.93,3,0,3h0Z"/></g><rect class="cls-29" x="207.94" y="224.11" width="66.67" height="44.96"/><path class="cls-12" d="m200.41,267.52h-48.18l.75.75v-44.17l-.75.75h48.18l-.75-.75v44.17c0,.97,1.5.97,1.5,0v-44.17c0-.41-.34-.75-.75-.75h-48.18c-.41,0-.75.34-.75.75v44.17c0,.41.34.75.75.75h48.18c.97,0,.97-1.5,0-1.5Z"/><path class="cls-13" d="m189.79,245.05c0,1.33-1.08,2.42-2.42,2.42s-2.42-1.08-2.42-2.42,1.08-2.42,2.42-2.42,2.42,1.08,2.42,2.42Z"/><circle class="cls-13" cx="175.66" cy="235.37" r="2.42"/><path class="cls-13" d="m165.9,230.89c0,1.33-1.08,2.42-2.42,2.42s-2.42-1.08-2.42-2.42,1.08-2.42,2.42-2.42,2.42,1.08,2.42,2.42Z"/><rect class="cls-13" x="182.25" y="253.39" width="8.93" height="8.93"/><path class="cls-13" d="m160.65,232.13c12.45-1.28,21.92,8.26,29.75,16.55.33.35.86-.18.53-.53-7.96-8.42-17.64-18.06-30.28-16.77-.48.05-.48.8,0,.75h0Z"/><rect class="cls-13" x="170.34" y="246.19" width="8.93" height="16.13"/><rect class="cls-13" x="158.61" y="234.66" width="8.93" height="27.67"/><g class="cls-30"><path class="cls-20" d="m216.08,231.9h19.62c1.93,0,1.93-3,0-3h-19.62c-1.93,0-1.93,3,0,3h0Z"/></g><g class="cls-30"><path class="cls-20" d="m217.19,242.26h48.86c1.93,0,1.93-3,0-3h-48.86c-1.93,0-1.93,3,0,3h0Z"/></g><g class="cls-30"><path class="cls-20" d="m217.19,248.97h48.86c1.93,0,1.93-3,0-3h-48.86c-1.93,0-1.93,3,0,3h0Z"/></g><g class="cls-30"><path class="cls-20" d="m187.72,312.36h18.2c1.93,0,1.93-3,0-3h-18.2c-1.93,0-1.93,3,0,3h0Z"/></g><g class="cls-30"><path class="cls-20" d="m187.11,339.32h80.23c1.93,0,1.93-3,0-3h-80.23c-1.93,0-1.93,3,0,3h0Z"/></g><g class="cls-30"><path class="cls-20" d="m187.11,332.74h80.23c1.93,0,1.93-3,0-3h-80.23c-1.93,0-1.93,3,0,3h0Z"/></g><g class="cls-30"><path class="cls-20" d="m187.73,326.46h80.23c1.93,0,1.93-3,0-3h-80.23c-1.93,0-1.93,3,0,3h0Z"/></g><g class="cls-30"><path class="cls-20" d="m187.11,319.57h80.23c1.93,0,1.93-3,0-3h-80.23c-1.93,0-1.93,3,0,3h0Z"/></g><g class="cls-30"><path class="cls-20" d="m216.47,255.68h48.86c1.93,0,1.93-3,0-3h-48.86c-1.93,0-1.93,3,0,3h0Z"/></g><g class="cls-30"><path class="cls-20" d="m154.74,191.3h111.02c1.93,0,1.93-3,0-3h-111.02c-1.93,0-1.93,3,0,3h0Z"/></g><g class="cls-30"><path class="cls-20" d="m154.74,197.96h111.02c1.93,0,1.93-3,0-3h-111.02c-1.93,0-1.93,3,0,3h0Z"/></g><g class="cls-30"><path class="cls-20" d="m154.74,204.62h111.02c1.93,0,1.93-3,0-3h-111.02c-1.93,0-1.93,3,0,3h0Z"/></g><g class="cls-30"><path class="cls-20" d="m154.74,211.28h111.02c1.93,0,1.93-3,0-3h-111.02c-1.93,0-1.93,3,0,3h0Z"/></g><polygon class="cls-13" points="237.09 295.24 152.23 295.24 152.23 276.72 225.17 276.72 237.09 295.24"/><rect class="cls-13" x="153.97" y="329.64" width="19.96" height="12.68"/><path class="cls-13" d="m230.26,276.72l12.29,18.52s31.12.21,31.12,0,0,.21,0,.21v-18.39l-43.4-.34Z"/><path class="cls-20" d="m168.56,279.96v11.98h-2.28l-5.97-7.28v7.28h-2.74v-11.98h2.29l5.96,7.28v-7.28h2.74Z"/><path class="cls-20" d="m180.18,288.09h-6.97c.26,1.15,1.23,1.85,2.64,1.85.98,0,1.68-.29,2.31-.89l1.42,1.54c-.86.98-2.14,1.49-3.8,1.49-3.18,0-5.26-2-5.26-4.74s2.11-4.74,4.91-4.74,4.79,1.81,4.79,4.78c0,.21-.03.5-.05.72Zm-7-1.56h4.54c-.19-1.16-1.06-1.92-2.26-1.92s-2.09.74-2.28,1.92Z"/><path class="cls-20" d="m196.63,282.73l-3.34,9.21h-2.57l-2.07-5.72-2.14,5.72h-2.57l-3.32-9.21h2.52l2.17,6.23,2.26-6.23h2.26l2.19,6.23,2.24-6.23h2.36Z"/><rect class="cls-19" x="81.75" y="351.34" width="74.32" height="12.94"/><g class="cls-30"><path class="cls-12" d="m87.87,352.05v11.59c0,.48.75.48.75,0v-11.59c0-.48-.75-.48-.75,0h0Z"/></g><g class="cls-30"><path class="cls-12" d="m94.02,352.05v11.59c0,.48.75.48.75,0v-11.59c0-.48-.75-.48-.75,0h0Z"/></g><g class="cls-30"><path class="cls-12" d="m100.07,352.05v11.59c0,.48.75.48.75,0v-11.59c0-.48-.75-.48-.75,0h0Z"/></g><g class="cls-30"><path class="cls-12" d="m106.12,352.05v11.59c0,.48.75.48.75,0v-11.59c0-.48-.75-.48-.75,0h0Z"/></g><g class="cls-30"><path class="cls-12" d="m112.18,352.05v11.59c0,.48.75.48.75,0v-11.59c0-.48-.75-.48-.75,0h0Z"/></g><g class="cls-30"><path class="cls-12" d="m118.23,352.05v11.59c0,.48.75.48.75,0v-11.59c0-.48-.75-.48-.75,0h0Z"/></g><g class="cls-30"><path class="cls-12" d="m124.28,352.05v11.59c0,.48.75.48.75,0v-11.59c0-.48-.75-.48-.75,0h0Z"/></g><g class="cls-30"><path class="cls-12" d="m130.34,352.05v11.59c0,.48.75.48.75,0v-11.59c0-.48-.75-.48-.75,0h0Z"/></g><g class="cls-30"><path class="cls-12" d="m136.39,352.05v11.59c0,.48.75.48.75,0v-11.59c0-.48-.75-.48-.75,0h0Z"/></g><g class="cls-30"><path class="cls-12" d="m142.44,352.05v11.59c0,.48.75.48.75,0v-11.59c0-.48-.75-.48-.75,0h0Z"/></g><g class="cls-30"><path class="cls-12" d="m148.5,352.05v11.59c0,.48.75.48.75,0v-11.59c0-.48-.75-.48-.75,0h0Z"/></g><rect class="cls-19" x="80.63" y="376.5" width="74.32" height="12.94"/><rect class="cls-14" x="86.32" y="363.89" width="74.32" height="12.94"/><rect class="cls-13" x="86.32" y="363.89" width="74.32" height="12.94"/><g class="cls-30"><path class="cls-12" d="m92.79,364.57v11.59c0,.48.75.48.75,0v-11.59c0-.48-.75-.48-.75,0h0Z"/></g><g class="cls-30"><path class="cls-12" d="m98.94,364.57v11.59c0,.48.75.48.75,0v-11.59c0-.48-.75-.48-.75,0h0Z"/></g><g class="cls-30"><path class="cls-12" d="m104.99,364.57v11.59c0,.48.75.48.75,0v-11.59c0-.48-.75-.48-.75,0h0Z"/></g><g class="cls-30"><path class="cls-12" d="m111.04,364.57v11.59c0,.48.75.48.75,0v-11.59c0-.48-.75-.48-.75,0h0Z"/></g><g class="cls-30"><path class="cls-12" d="m117.1,364.57v11.59c0,.48.75.48.75,0v-11.59c0-.48-.75-.48-.75,0h0Z"/></g><g class="cls-30"><path class="cls-12" d="m123.15,364.57v11.59c0,.48.75.48.75,0v-11.59c0-.48-.75-.48-.75,0h0Z"/></g><g class="cls-30"><path class="cls-12" d="m129.2,364.57v11.59c0,.48.75.48.75,0v-11.59c0-.48-.75-.48-.75,0h0Z"/></g><g class="cls-30"><path class="cls-12" d="m135.26,364.57v11.59c0,.48.75.48.75,0v-11.59c0-.48-.75-.48-.75,0h0Z"/></g><g class="cls-30"><path class="cls-12" d="m141.31,364.57v11.59c0,.48.75.48.75,0v-11.59c0-.48-.75-.48-.75,0h0Z"/></g><g class="cls-30"><path class="cls-12" d="m147.36,364.57v11.59c0,.48.75.48.75,0v-11.59c0-.48-.75-.48-.75,0h0Z"/></g><g class="cls-30"><path class="cls-12" d="m153.42,364.57v11.59c0,.48.75.48.75,0v-11.59c0-.48-.75-.48-.75,0h0Z"/></g><rect class="cls-14" x="86.32" y="338.22" width="74.32" height="12.94"/><rect class="cls-13" x="86.32" y="338.22" width="74.32" height="12.94"/><g class="cls-30"><path class="cls-12" d="m92.79,338.89v11.59c0,.48.75.48.75,0v-11.59c0-.48-.75-.48-.75,0h0Z"/></g><g class="cls-30"><path class="cls-12" d="m98.94,338.89v11.59c0,.48.75.48.75,0v-11.59c0-.48-.75-.48-.75,0h0Z"/></g><g class="cls-30"><path class="cls-12" d="m104.99,338.89v11.59c0,.48.75.48.75,0v-11.59c0-.48-.75-.48-.75,0h0Z"/></g><g class="cls-30"><path class="cls-12" d="m111.04,338.89v11.59c0,.48.75.48.75,0v-11.59c0-.48-.75-.48-.75,0h0Z"/></g><g class="cls-30"><path class="cls-12" d="m117.1,338.89v11.59c0,.48.75.48.75,0v-11.59c0-.48-.75-.48-.75,0h0Z"/></g><g class="cls-30"><path class="cls-12" d="m123.15,338.89v11.59c0,.48.75.48.75,0v-11.59c0-.48-.75-.48-.75,0h0Z"/></g><g class="cls-30"><path class="cls-12" d="m129.2,338.89v11.59c0,.48.75.48.75,0v-11.59c0-.48-.75-.48-.75,0h0Z"/></g><g class="cls-30"><path class="cls-12" d="m135.26,338.89v11.59c0,.48.75.48.75,0v-11.59c0-.48-.75-.48-.75,0h0Z"/></g><g class="cls-30"><path class="cls-12" d="m141.31,338.89v11.59c0,.48.75.48.75,0v-11.59c0-.48-.75-.48-.75,0h0Z"/></g><g class="cls-30"><path class="cls-12" d="m147.36,338.89v11.59c0,.48.75.48.75,0v-11.59c0-.48-.75-.48-.75,0h0Z"/></g><g class="cls-30"><path class="cls-12" d="m153.42,338.89v11.59c0,.48.75.48.75,0v-11.59c0-.48-.75-.48-.75,0h0Z"/></g><g class="cls-30"><path class="cls-12" d="m86.15,377.4v11.59c0,.48.75.48.75,0v-11.59c0-.48-.75-.48-.75,0h0Z"/></g><g class="cls-30"><path class="cls-12" d="m92.3,377.4v11.59c0,.48.75.48.75,0v-11.59c0-.48-.75-.48-.75,0h0Z"/></g><g class="cls-30"><path class="cls-12" d="m98.35,377.4v11.59c0,.48.75.48.75,0v-11.59c0-.48-.75-.48-.75,0h0Z"/></g><g class="cls-30"><path class="cls-12" d="m104.4,377.4v11.59c0,.48.75.48.75,0v-11.59c0-.48-.75-.48-.75,0h0Z"/></g><g class="cls-30"><path class="cls-12" d="m110.46,377.4v11.59c0,.48.75.48.75,0v-11.59c0-.48-.75-.48-.75,0h0Z"/></g><g class="cls-30"><path class="cls-12" d="m116.51,377.4v11.59c0,.48.75.48.75,0v-11.59c0-.48-.75-.48-.75,0h0Z"/></g><g class="cls-30"><path class="cls-12" d="m122.56,377.4v11.59c0,.48.75.48.75,0v-11.59c0-.48-.75-.48-.75,0h0Z"/></g><g class="cls-30"><path class="cls-12" d="m128.62,377.4v11.59c0,.48.75.48.75,0v-11.59c0-.48-.75-.48-.75,0h0Z"/></g><g class="cls-30"><path class="cls-12" d="m134.67,377.4v11.59c0,.48.75.48.75,0v-11.59c0-.48-.75-.48-.75,0h0Z"/></g><g class="cls-30"><path class="cls-12" d="m140.72,377.4v11.59c0,.48.75.48.75,0v-11.59c0-.48-.75-.48-.75,0h0Z"/></g><g class="cls-30"><path class="cls-12" d="m146.78,377.4v11.59c0,.48.75.48.75,0v-11.59c0-.48-.75-.48-.75,0h0Z"/></g><rect class="cls-19" x="81.75" y="402.48" width="74.32" height="12.94"/><g class="cls-30"><path class="cls-12" d="m87.87,403.18v11.59c0,.48.75.48.75,0v-11.59c0-.48-.75-.48-.75,0h0Z"/></g><g class="cls-30"><path class="cls-12" d="m94.02,403.18v11.59c0,.48.75.48.75,0v-11.59c0-.48-.75-.48-.75,0h0Z"/></g><g class="cls-30"><path class="cls-12" d="m100.07,403.18v11.59c0,.48.75.48.75,0v-11.59c0-.48-.75-.48-.75,0h0Z"/></g><g class="cls-30"><path class="cls-12" d="m106.12,403.18v11.59c0,.48.75.48.75,0v-11.59c0-.48-.75-.48-.75,0h0Z"/></g><g class="cls-30"><path class="cls-12" d="m112.18,403.18v11.59c0,.48.75.48.75,0v-11.59c0-.48-.75-.48-.75,0h0Z"/></g><g class="cls-30"><path class="cls-12" d="m118.23,403.18v11.59c0,.48.75.48.75,0v-11.59c0-.48-.75-.48-.75,0h0Z"/></g><g class="cls-30"><path class="cls-12" d="m124.28,403.18v11.59c0,.48.75.48.75,0v-11.59c0-.48-.75-.48-.75,0h0Z"/></g><g class="cls-30"><path class="cls-12" d="m130.34,403.18v11.59c0,.48.75.48.75,0v-11.59c0-.48-.75-.48-.75,0h0Z"/></g><g class="cls-30"><path class="cls-12" d="m136.39,403.18v11.59c0,.48.75.48.75,0v-11.59c0-.48-.75-.48-.75,0h0Z"/></g><g class="cls-30"><path class="cls-12" d="m142.44,403.18v11.59c0,.48.75.48.75,0v-11.59c0-.48-.75-.48-.75,0h0Z"/></g><g class="cls-30"><path class="cls-12" d="m148.5,403.18v11.59c0,.48.75.48.75,0v-11.59c0-.48-.75-.48-.75,0h0Z"/></g><rect class="cls-19" x="80.63" y="427.64" width="74.32" height="12.94"/><rect class="cls-14" x="86.32" y="415.03" width="74.32" height="12.94"/><rect class="cls-13" x="86.32" y="415.03" width="74.32" height="12.94"/><g class="cls-30"><path class="cls-12" d="m92.79,415.7v11.59c0,.48.75.48.75,0v-11.59c0-.48-.75-.48-.75,0h0Z"/></g><g class="cls-30"><path class="cls-12" d="m98.94,415.7v11.59c0,.48.75.48.75,0v-11.59c0-.48-.75-.48-.75,0h0Z"/></g><g class="cls-30"><path class="cls-12" d="m104.99,415.7v11.59c0,.48.75.48.75,0v-11.59c0-.48-.75-.48-.75,0h0Z"/></g><g class="cls-30"><path class="cls-12" d="m111.04,415.7v11.59c0,.48.75.48.75,0v-11.59c0-.48-.75-.48-.75,0h0Z"/></g><g class="cls-30"><path class="cls-12" d="m117.1,415.7v11.59c0,.48.75.48.75,0v-11.59c0-.48-.75-.48-.75,0h0Z"/></g><g class="cls-30"><path class="cls-12" d="m123.15,415.7v11.59c0,.48.75.48.75,0v-11.59c0-.48-.75-.48-.75,0h0Z"/></g><g class="cls-30"><path class="cls-12" d="m129.2,415.7v11.59c0,.48.75.48.75,0v-11.59c0-.48-.75-.48-.75,0h0Z"/></g><g class="cls-30"><path class="cls-12" d="m135.26,415.7v11.59c0,.48.75.48.75,0v-11.59c0-.48-.75-.48-.75,0h0Z"/></g><g class="cls-30"><path class="cls-12" d="m141.31,415.7v11.59c0,.48.75.48.75,0v-11.59c0-.48-.75-.48-.75,0h0Z"/></g><g class="cls-30"><path class="cls-12" d="m147.36,415.7v11.59c0,.48.75.48.75,0v-11.59c0-.48-.75-.48-.75,0h0Z"/></g><g class="cls-30"><path class="cls-12" d="m153.42,415.7v11.59c0,.48.75.48.75,0v-11.59c0-.48-.75-.48-.75,0h0Z"/></g><rect class="cls-14" x="86.32" y="389.35" width="74.32" height="12.94"/><rect class="cls-13" x="86.32" y="389.35" width="74.32" height="12.94"/><g class="cls-30"><path class="cls-12" d="m92.79,390.03v11.59c0,.48.75.48.75,0v-11.59c0-.48-.75-.48-.75,0h0Z"/></g><g class="cls-30"><path class="cls-12" d="m98.94,390.03v11.59c0,.48.75.48.75,0v-11.59c0-.48-.75-.48-.75,0h0Z"/></g><g class="cls-30"><path class="cls-12" d="m104.99,390.03v11.59c0,.48.75.48.75,0v-11.59c0-.48-.75-.48-.75,0h0Z"/></g><g class="cls-30"><path class="cls-12" d="m111.04,390.03v11.59c0,.48.75.48.75,0v-11.59c0-.48-.75-.48-.75,0h0Z"/></g><g class="cls-30"><path class="cls-12" d="m117.1,390.03v11.59c0,.48.75.48.75,0v-11.59c0-.48-.75-.48-.75,0h0Z"/></g><g class="cls-30"><path class="cls-12" d="m123.15,390.03v11.59c0,.48.75.48.75,0v-11.59c0-.48-.75-.48-.75,0h0Z"/></g><g class="cls-30"><path class="cls-12" d="m129.2,390.03v11.59c0,.48.75.48.75,0v-11.59c0-.48-.75-.48-.75,0h0Z"/></g><g class="cls-30"><path class="cls-12" d="m135.26,390.03v11.59c0,.48.75.48.75,0v-11.59c0-.48-.75-.48-.75,0h0Z"/></g><g class="cls-30"><path class="cls-12" d="m141.31,390.03v11.59c0,.48.75.48.75,0v-11.59c0-.48-.75-.48-.75,0h0Z"/></g><g class="cls-30"><path class="cls-12" d="m147.36,390.03v11.59c0,.48.75.48.75,0v-11.59c0-.48-.75-.48-.75,0h0Z"/></g><g class="cls-30"><path class="cls-12" d="m153.42,390.03v11.59c0,.48.75.48.75,0v-11.59c0-.48-.75-.48-.75,0h0Z"/></g><g class="cls-30"><path class="cls-12" d="m86.15,428.54v11.59c0,.48.75.48.75,0v-11.59c0-.48-.75-.48-.75,0h0Z"/></g><g class="cls-30"><path class="cls-12" d="m92.3,428.54v11.59c0,.48.75.48.75,0v-11.59c0-.48-.75-.48-.75,0h0Z"/></g><g class="cls-30"><path class="cls-12" d="m98.35,428.54v11.59c0,.48.75.48.75,0v-11.59c0-.48-.75-.48-.75,0h0Z"/></g><g class="cls-30"><path class="cls-12" d="m104.4,428.54v11.59c0,.48.75.48.75,0v-11.59c0-.48-.75-.48-.75,0h0Z"/></g><g class="cls-30"><path class="cls-12" d="m110.46,428.54v11.59c0,.48.75.48.75,0v-11.59c0-.48-.75-.48-.75,0h0Z"/></g><g class="cls-30"><path class="cls-12" d="m116.51,428.54v11.59c0,.48.75.48.75,0v-11.59c0-.48-.75-.48-.75,0h0Z"/></g><g class="cls-30"><path class="cls-12" d="m122.56,428.54v11.59c0,.48.75.48.75,0v-11.59c0-.48-.75-.48-.75,0h0Z"/></g><g class="cls-30"><path class="cls-12" d="m128.62,428.54v11.59c0,.48.75.48.75,0v-11.59c0-.48-.75-.48-.75,0h0Z"/></g><g class="cls-30"><path class="cls-12" d="m134.67,428.54v11.59c0,.48.75.48.75,0v-11.59c0-.48-.75-.48-.75,0h0Z"/></g><g class="cls-30"><path class="cls-12" d="m140.72,428.54v11.59c0,.48.75.48.75,0v-11.59c0-.48-.75-.48-.75,0h0Z"/></g><g class="cls-30"><path class="cls-12" d="m146.78,428.54v11.59c0,.48.75.48.75,0v-11.59c0-.48-.75-.48-.75,0h0Z"/></g><path class="cls-14" d="m65.46,259.78c12.83-7.69,26-11.37,34.07-5.51,1.68,1.22,4.19,5.68,5.26,7.47,6.23,10.38-1.29,26.33-16.79,35.63-15.5,9.3-33.11,8.42-39.34-1.96-.91-1.51-3.59-5.76-3.94-7.47-2.01-10.03,7.48-20.22,20.73-28.16Z"/><g class="cls-28"><path class="cls-20" d="m80.92,293.27l-6.1,2.24c1.95,1.56,3.37,3.75,4.05,6.15,2.09-.71,4.18-1.58,6.25-2.64-.88-2.24-2.34-4.24-4.21-5.75Z"/></g><g class="cls-28"><path class="cls-20" d="m99.88,276.1l-1.7,2.85c1.84,1.22,3.35,2.37,5.09,3.56.76-1.3,1.41-2.61,1.95-3.92-1.83-.97-3.36-1.61-5.34-2.49Z"/></g><g class="cls-28"><path class="cls-20" d="m105.94,276.63c1.35-4.21,1.5-8.36.23-12.03-1.29-.37-2.59-.69-3.91-.92l-1.44,10.6c1.74.75,3.56,1.45,5.11,2.35Z"/></g><path class="cls-19" d="m65.5,259.79c12.83-7.69,26-11.37,34.07-5.51,1.68,1.22,4.19,5.68,5.27,7.47,6.23,10.38-1.29,26.33-16.79,35.63-15.5,9.3-33.11,8.42-39.34-1.96-.91-1.51-3.59-5.76-3.94-7.47-2.01-10.03,7.48-20.22,20.73-28.16Z"/><ellipse class="cls-19" cx="73.17" cy="272.62" rx="32.49" ry="21.92" transform="translate(-129.8 76.46) rotate(-30.95)"/><path class="cls-14" d="m65.66,259.66c10.7-6.42,22.82-5.87,27.08,1.22,4.25,7.09-.97,18.05-11.67,24.46-10.7,6.42-22.82,5.87-27.08-1.22s.97-18.05,11.67-24.46Z"/><path class="cls-13" d="m65.66,259.66c10.7-6.42,22.82-5.87,27.08,1.22,4.25,7.09-.97,18.05-11.67,24.46-10.7,6.42-22.82,5.87-27.08-1.22s.97-18.05,11.67-24.46Z"/><path class="cls-26" d="m80.75,283.88c-10.7,6.42-22.82,5.87-27.08-1.22-.47-.78-.82-1.61-1.06-2.48.19,1.43.63,2.79,1.38,4.02,4.25,7.09,16.38,7.64,27.08,1.22,9.52-5.71,14.7-15.01,12.73-21.98.88,6.76-4.21,15.14-13.05,20.44Z"/><path class="cls-1" d="m91.2,275.73c.35.07,8.62.35,8.62.35l-1.58,2.78-8.77-.53,1.73-2.6Z"/><path class="cls-1" d="m46.97,291.58c.24.27.49.53.75.79l2.89,2.25s.02.02.04.02l24.29,1.14s.03-.01.05-.02l6.16-2.54s.02-.01.03-.02c-.12,0-30.59-1.15-34.21-1.62Z"/><path class="cls-1" d="m68.37,250.58c6.05.38,22.64.97,29,1.19-6.64-5.25-17.89-5.73-29-1.19Z"/><path class="cls-1" d="m92.59,273.2l8.18,1.05s2.82-6.88,2.46-10.26l-9.36-.44s0,.02,0,.02c.76,2.96.27,6.31-1.28,9.62Z"/><path class="cls-1" d="m62.4,261.88l-10.38-.16c-3.08,3.26-5.43,6.81-6.94,10.38l9.37-.91c1.68-3.32,4.4-6.56,7.96-9.3Z"/><g class="cls-28"><path class="cls-19" d="m82.75,264.29l3.3-1.98,1.19,1.99-3.22,1.93c1,2.08,1.22,4.52.61,6.37l-3.88,1.68-.37-.62c.49-1.65.43-3.56-.22-5.12l-4.93,2.96c.53,2.69.92,5.81-3.3,8.34-3.13,1.88-6.73,1.95-9.15-.87l-3.28,1.96-1.19-1.99,3.22-1.93c-.72-1.6-1-3.41-.62-5.12l4.23-1.18.37.62c-.12,1.26-.44,2.4-.08,3.35l5.02-3.01c-.56-2.67-.92-5.75,3.24-8.25,3.07-1.84,6.63-1.92,9.07.87Zm-11.85,9.81l-4.19,2.51c.99.84,2.09.75,3.07.16,1.03-.62,1.24-1.55,1.12-2.68Zm5.06-7.69c-1.03.62-1.25,1.53-1.18,2.65l4.07-2.44c-.92-.8-1.95-.78-2.9-.21Z"/></g><path class="cls-19" d="m83.12,264.91l3.3-1.98,1.19,1.99-3.22,1.93c1,2.08,1.22,4.52.61,6.37l-4.26,1.06c.49-1.65.43-3.56-.22-5.12l-4.93,2.96c.53,2.69.92,5.81-3.3,8.34-3.13,1.88-6.73,1.95-9.15-.87l-3.28,1.96-1.19-1.99,3.22-1.93c-.72-1.6-1-3.41-.62-5.12l4.23-1.18c-.25,1.53-.13,2.86.29,3.96l5.02-3.01c-.56-2.67-.92-5.75,3.24-8.25,3.07-1.84,6.63-1.92,9.07.87Zm-11.85,9.81l-4.19,2.51c.99.84,2.09.75,3.07.16,1.03-.62,1.24-1.55,1.12-2.68Zm5.06-7.69c-1.03.62-1.25,1.53-1.18,2.65l4.07-2.44c-.92-.8-1.95-.78-2.9-.21Z"/><path class="cls-12" d="m102.8,262.75c.7,9.93-6.14,19.04-13.54,24.89-8.59,6.79-20.51,11.42-31.57,9.26-4.88-.96-9.42-3.44-12.07-7.75-.25-.41-.9-.03-.65.38,5.31,8.66,16.78,9.72,25.84,7.77,11.33-2.44,22.19-9.6,28.4-19.45,2.82-4.48,4.71-9.74,4.34-15.09-.03-.48-.78-.48-.75,0h0Z"/><path class="cls-14" d="m381.6,320.23c10.98,3.15,19.91,8.58,20.84,16.15.19,1.58-.99,5.3-1.43,6.84-2.55,8.89-15.37,13.01-28.64,9.21-13.27-3.8-21.97-14.09-19.42-22.98.37-1.29,1.34-5.01,2.11-6.09,4.55-6.35,15.19-6.37,26.53-3.12Z"/><g class="cls-28"><path class="cls-20" d="m370.96,346.32l-4.43-2.24c.14,1.9-.34,3.84-1.32,5.47,1.48.8,3.06,1.51,4.74,2.11.79-1.66,1.15-3.52,1.02-5.35Z"/></g><g class="cls-28"><path class="cls-20" d="m390.43,347.96l-2.47.54c.28,1.66.43,3.11.66,4.7,1.12-.25,2.19-.57,3.2-.96-.41-1.53-.85-2.72-1.39-4.28Z"/></g><g class="cls-28"><path class="cls-20" d="m393.3,351.61c3.06-1.44,5.45-3.52,6.84-6.14-.46-.91-.97-1.81-1.53-2.66l-6.67,4.73c.49,1.37,1.05,2.74,1.35,4.08Z"/></g><path class="cls-13" d="m381.61,320.26c10.98,3.15,19.91,8.58,20.84,16.15.19,1.58-.99,5.3-1.43,6.84-2.55,8.89-15.37,13.01-28.64,9.21-13.27-3.8-21.97-14.09-19.42-22.98.37-1.29,1.34-5.01,2.11-6.09,4.55-6.35,15.19-6.37,26.53-3.12Z"/><path class="cls-13" d="m383.06,315.13c13.18,3.78,21.79,14.04,19.25,22.93-2.55,8.89-15.29,13.03-28.47,9.25-13.18-3.78-21.79-14.04-19.25-22.93,2.55-8.89,15.29-13.03,28.47-9.25Z"/><path class="cls-14" d="m381.77,320.28c9.16,2.63,15.18,9.68,13.44,15.75-1.74,6.07-10.58,8.87-19.74,6.24-9.16-2.63-15.18-9.68-13.44-15.75,1.74-6.07,10.58-8.87,19.74-6.24Z"/><path class="cls-19" d="m381.77,320.28c9.16,2.63,15.18,9.68,13.44,15.75-1.74,6.07-10.58,8.87-19.74,6.24-9.16-2.63-15.18-9.68-13.44-15.75,1.74-6.07,10.58-8.87,19.74-6.24Z"/><path class="cls-26" d="m376.11,341.33c-9.16-2.63-15.18-9.68-13.44-15.75.19-.67.48-1.3.83-1.89-.7.85-1.22,1.81-1.53,2.87-1.74,6.07,4.28,13.13,13.44,15.75,8.15,2.34,16.04.38,18.91-4.36-3.31,4.02-10.65,5.54-18.21,3.38Z"/><path class="cls-1" d="m386.11,342.92c.15.23,4.3,5,4.3,5l-2.38.56-4.28-5.17,2.35-.39Z"/><path class="cls-1" d="m354.2,326.49c-.03.28-.04.55-.05.83l.25,2.78s0,.02,0,.03l12.03,14.15s.02.01.04.02l4.63,2.12s.02,0,.03.01c-.06-.07-15.31-17.68-16.94-19.94Z"/><path class="cls-1" d="m388.25,317.06c2.94,3.58,11.27,13.14,14.46,16.8-.53-6.45-6.13-12.97-14.46-16.8Z"/><path class="cls-1" d="m388.25,342.37l3.68,5.11s5.31-2.01,7.01-3.97l-4.64-5.46s0,0-.01.02c-1.25,1.97-3.38,3.44-6.04,4.31Z"/><path class="cls-1" d="m378.83,319.62l-5.32-5.88c-3.43-.01-6.63.52-9.41,1.53l5.4,4.76c2.73-.79,5.96-.97,9.34-.41Z"/><g class="cls-28"><path class="cls-13" d="m388.09,332.24l2.83.81-.49,1.7-2.75-.79c-.64,1.64-1.88,3.04-3.24,3.66l-2.97-1.29.15-.53c1.18-.58,2.21-1.62,2.74-2.79l-4.22-1.21c-1.22,1.7-2.76,3.54-6.38,2.51-2.68-.77-4.6-2.74-4.28-5.56l-2.8-.8.49-1.7,2.75.79c.52-1.23,1.38-2.33,2.53-3.02l2.86,1.74-.15.53c-.76.59-1.57,1.01-1.91,1.7l4.29,1.23c1.2-1.7,2.73-3.51,6.29-2.49,2.63.75,4.53,2.7,4.24,5.51Zm-11.66-1.5l-3.59-1.03c.04.99.67,1.56,1.51,1.8.88.25,1.51-.12,2.08-.77Zm6.93-1.19c-.88-.25-1.51.1-2.09.73l3.49,1c-.03-.93-.58-1.49-1.39-1.73Z"/></g><path class="cls-13" d="m387.94,332.77l2.83.81-.49,1.7-2.75-.79c-.64,1.64-1.88,3.04-3.24,3.66l-2.81-1.82c1.18-.58,2.21-1.62,2.74-2.79l-4.22-1.21c-1.22,1.7-2.76,3.54-6.38,2.51-2.68-.77-4.6-2.74-4.28-5.56l-2.8-.8.49-1.7,2.75.79c.52-1.23,1.38-2.33,2.53-3.02l2.86,1.74c-.98.66-1.66,1.42-2.06,2.23l4.29,1.23c1.2-1.7,2.73-3.51,6.29-2.49,2.63.75,4.53,2.7,4.24,5.51Zm-11.66-1.5l-3.59-1.03c.04.99.67,1.56,1.51,1.8.88.25,1.51-.12,2.08-.77Zm6.93-1.19c-.88-.25-1.51.1-2.09.73l3.49,1c-.03-.93-.58-1.49-1.39-1.73Z"/><path class="cls-12" d="m399.34,342.57c-5.78,6.19-15.69,6.67-23.44,4.9-7.53-1.72-15.34-5.93-19.33-12.81-1.79-3.09-2.58-6.68-1.62-10.17.13-.47-.6-.67-.72-.2-1.9,6.94,2.6,13.52,7.88,17.61,7.14,5.53,16.89,8.19,25.84,6.88,4.42-.65,8.83-2.36,11.93-5.68.33-.35-.2-.88-.53-.53h0Z"/><path class="cls-12" d="m246.54,166.28c.31.6.12,1.35-.43,1.67-.05.03-.1.06-.16.08l-11.89,4.8c-.67.21-1.4-.12-1.74-.79l-12.16-24.53c-.32-.69-.08-1.51.54-1.84l11.89-4.8c.74-.19,1.53.19,1.9.94l12.05,24.48Z"/><path class="cls-4" d="m246.54,166.28c.31.6.12,1.35-.43,1.67-.05.03-.1.06-.16.08l-11.89,4.8c-.67.21-1.4-.12-1.74-.79l-12.16-24.53c-.32-.69-.08-1.51.54-1.84l11.89-4.8c.74-.19,1.53.19,1.9.94l12.05,24.48Z"/><path class="cls-25" d="m232.69,142.43c-.32-.65-.96-1.01-1.62-.96l-10.37,4.19c-.62.34-.86,1.16-.54,1.84l12.16,24.53c.29.57.85.87,1.42.83l10.41-4.2c.06-.02.11-.05.16-.08.55-.32.74-1.07.43-1.67l-12.05-24.48Z"/><path class="cls-21" d="m234.39,156.43l3.01,3.89c1.3,1.65,1.31,3.82.02,4.92l-1.44,1.25s-4.4,5.08-9.72,5.59l-.99-1.43c-1.55-2.13-2.16-4.79-1.7-7.38l1.31-5.82c.21-1.18,1.14-2.1,2.31-2.31l3.11-.56c1.59-.18,3.15.53,4.07,1.84Z"/><path class="cls-12" d="m272.57,115.69c-5.41,1.57-4.81-5.92-3.07-9.33,2.97-5.92,8.48,7.76,3.07,9.33Z"/><path class="cls-21" d="m282.06,153.26c5.98-1.5,11.01-5.53,13.76-11.04-1.58-.87-2.9-2.16-3.82-3.71-2.09-3.56-3.55-7.46-4.32-11.52-.5-2.33-.89-4.69-1.15-7.05l-4.32,6.91-4.79,7.56c.72,1.14,1.35,2.33,1.89,3.57,1.44,3.48,1.37,6.84-2.88,9.42-.58,2.59-.06,7.47,5.63,5.87Z"/><path class="cls-7" d="m289.66,133.72s-2.19,7.48-9.81,5.86l-.55-1.61,10.35-4.25Z"/><path class="cls-21" d="m293.96,109.79c-2.33-6.77-9.7-10.37-16.47-8.04-9.33,3.23-11.23,17.06-9.59,25.57,1.83,9.47,13.2,14.38,20.63,7.54,4.95-4.55,5.05-10.06,6.05-19.39.22-1.92,0-3.86-.62-5.68Z"/><path class="cls-12" d="m263.86,108.22s.94,1.06,1.8.7c-.89-1.39-.8-3.16.22-4.46,0,0,.27.3,1.01.3.32-2.92.26-4.66,1.54-6.67.61-.96,1.46-1.77,2.41-2.43,10.03-6.96,19.3,2.19,19.3,2.19,0,0,3.96-1.26,7.59,2.34,4.89,4.85,2.36,9.73.54,13.08-1.52,3.42.03,7.39-4.96,9.25-2.5-2.74-2.73-7.02-2.52-10-.75-.18-1.45-.54-2.02-1.07-2.23-2.05-.69-9.58-9.45-8.1-1.56-.9-3.53-.82-5.01.19-2.67,1.71-4.01,10.49-7.78,8.1-3.77-2.39-2.66-3.42-2.66-3.42Z"/><path class="cls-12" d="m268.8,110.83c.13.13.31.19.49.15,1.2-.34,2.49-.09,3.47.67.2.18.5.17.69-.03.18-.2.17-.51-.03-.69,0,0,0,0,0,0-1.22-.99-2.85-1.33-4.36-.91-.26.06-.43.32-.37.58,0,0,0,0,0,.01.03.08.06.15.11.21Z"/><path class="cls-12" d="m284.77,114.28c.1.01.2,0,.29-.05.21-.17.24-.47.08-.68,0,0,0,0,0,0-.98-1.24-2.5-1.93-4.08-1.84-.27.03-.46.27-.43.54h0c.04.27.27.45.54.43h0c1.25-.03,2.43.53,3.2,1.51.11.09.26.13.4.1Z"/><path class="cls-21" d="m299.64,123.32c-.98,2.39-2.86,4.29-5.24,5.29-3.16,1.3-5.14-1.43-4.61-4.62.5-2.83,2.72-7.02,6.06-6.93,3.34.09,4.95,3.32,3.78,6.27Z"/><g class="cls-30"><path class="cls-9" d="m292.41,124.53c.11-1.12.59-2.22,1.32-3.07.36-.42.79-.82,1.28-1.1.44-.26,1.02-.46,1.48-.14.4.27.78-.38.38-.65-1.22-.83-2.77.36-3.57,1.25-.93,1.03-1.5,2.33-1.64,3.71-.02.2.19.38.37.38.22,0,.35-.17.37-.38h0Z"/></g><path class="cls-12" d="m282.88,118.14c-.11,1.09-.94,1.85-1.7,1.7-.76-.14-1.19-1.14-1.01-2.22.18-1.08.96-1.84,1.7-1.7.74.14,1.19,1.12,1.01,2.22Z"/><path class="cls-12" d="m273.28,116.77c-.11,1.09-.96,1.84-1.7,1.7-.74-.14-1.19-1.14-1.01-2.22.18-1.08.96-1.84,1.7-1.7.74.14,1.19,1.19,1.01,2.22Z"/><path class="cls-18" d="m275.17,115.88c-1.51,2.37-3.36,4.52-5.5,6.39,1.09,1.07,2.6,1.64,4.13,1.56l1.37-7.95Z"/><path class="cls-12" d="m275.49,127.58c1.47-.14,2.81-.99,3.54-2.28.24-.42-.41-.8-.65-.38-.59,1.05-1.7,1.79-2.89,1.91-.2.02-.37.16-.37.38,0,.19.17.39.37.38h0Z"/><polygon class="cls-12" points="349.95 402.7 355.31 430.29 346.53 431.76 336.69 407.47 349.95 402.7"/><path class="cls-12" d="m357.11,445.08l-7.68-.06s-1.55-.84-2.46-.73c-.91.1-4.08.68-4.08.68l-19.84-.05c.17-.85.11-1.68.35-2.35.29-.82.33-1.55.7-2.14,1.28-2.05,1.55-2.32,5.24-3.51,2.91-.94,11.53-5.45,11.53-5.45,0,0,2.26-.2,2.47-3.67.08-1.3,2.01-2.87,2.92-3,1.87-.26,2.9.93,3.15,2.8l.09,1.32,2.24-.63s4.4-2.17,4.17-.03c-.13,1.22,2.37,6.59,1.87,10.9-.12,1.01-.22,1.96-.32,2.79h0c-.21,1.85-.36,3.13-.36,3.13Z"/><g class="cls-28"><path class="cls-20" d="m323.04,444.92l19.84.05s3.17-.58,4.08-.68c.91-.1,2.46.73,2.46.73l7.68.06s.15-1.27.36-3.13l-34.07.61c-.23.67-.18,1.5-.35,2.35Z"/></g><path class="cls-14" d="m336.37,433.66c.1-.09.24-.1.35-.03.5.34.92.82,1.21,1.41.15.31-.31.61-.46.3-.25-.53-.62-.95-1.06-1.25-.15-.1-.17-.31-.04-.43,0,0,0,0,0,0Z"/><path class="cls-14" d="m338,432.71c.1-.09.24-.1.35-.03.5.34.92.82,1.21,1.41.15.31-.31.61-.46.3-.25-.53-.62-.95-1.06-1.25-.15-.1-.17-.31-.04-.43,0,0,0,0,0,0Z"/><path class="cls-14" d="m339.68,431.84c.1-.09.24-.1.35-.03.5.34.92.82,1.21,1.41.15.31-.31.61-.46.3-.25-.53-.62-.95-1.06-1.25-.15-.1-.17-.31-.04-.43,0,0,0,0,0,0Z"/><polygon class="cls-12" points="249.96 403.85 242.16 430.85 233.68 428.17 235.97 402.06 249.96 403.85"/><path class="cls-12" d="m245.16,444.83l-7.68-.06s-1.55-.84-2.46-.73c-.91.1-4.08.68-4.08.68l-19.84-.05c.17-.85.11-1.68.35-2.35.29-.82.33-1.55.7-2.14,1.28-2.05,1.55-2.32,5.24-3.51,2.91-.94,11.53-5.45,11.53-5.45,0,0,2.26-.2,2.47-3.67.08-1.3,2.01-2.87,2.92-3,1.87-.26,2.9.93,3.15,2.8l.09,1.32,2.24-.63s4.4-2.17,4.17-.03c-.13,1.22,2.37,6.59,1.87,10.9-.12,1.01-.22,1.96-.32,2.79h0c-.21,1.85-.36,3.13-.36,3.13Z"/><g class="cls-28"><path class="cls-20" d="m211.1,444.67l19.84.05s3.17-.58,4.08-.68c.91-.1,2.46.73,2.46.73l7.68.06s.15-1.27.36-3.13l-34.07.61c-.23.67-.18,1.5-.35,2.35Z"/></g><path class="cls-14" d="m224.43,433.41c.1-.09.24-.1.35-.03.5.34.92.82,1.21,1.41.15.31-.31.61-.46.3-.25-.53-.62-.95-1.06-1.25-.15-.1-.17-.31-.04-.43,0,0,0,0,0,0Z"/><path class="cls-14" d="m226.06,432.47c.1-.09.24-.1.35-.03.5.34.92.82,1.21,1.41.15.31-.31.61-.46.3-.25-.53-.62-.95-1.06-1.25-.15-.1-.17-.31-.04-.43,0,0,0,0,0,0Z"/><path class="cls-14" d="m227.74,431.59c.09-.09.24-.1.35-.03.5.34.92.82,1.21,1.41.15.31-.31.61-.46.3-.25-.53-.62-.95-1.06-1.25-.15-.1-.17-.31-.04-.43,0,0,0,0,0,0Z"/><path class="cls-14" d="m232.71,421.88l18.27,4.29s6-58.35,15.87-89.52c5.42-17.09,14.96-44.38,23.36-67.73,4.1-11.57,7.93-22.17,10.81-30.12,3.15-8.74,5.16-14.25,5.16-14.25l-32.15-14.76s-26.35,84.68-33.6,113.85c-7.96,31.96-7.7,98.23-7.7,98.23Z"/><path class="cls-16" d="m232.71,421.88l18.27,4.29s6-58.35,15.87-89.52c5.42-17.09,14.96-44.38,23.36-67.73,4.1-11.57,7.93-22.17,10.81-30.12,3.15-8.74,5.16-14.25,5.16-14.25l-32.15-14.76s-26.35,84.68-33.6,113.85c-7.96,31.96-7.7,98.23-7.7,98.23Z"/><path class="cls-8" d="m290.14,268.93c4.1-11.57,7.93-22.17,10.81-30.12-2.21.06-4.34.85-6.06,2.25-4.02,8.71-5.66,18.32-4.75,27.87Z"/><path class="cls-14" d="m286.89,214.33s12,87.87,17.91,117.35c6.37,32.3,34.7,92.21,34.7,92.21l18.35-3.86s-19.3-55.37-23.57-87.81c-4.77-36.25-11.94-118.22-11.94-118.22l-35.45.33Z"/><path class="cls-16" d="m286.89,214.33s12,87.87,17.91,117.35c6.37,32.3,34.7,92.21,34.7,92.21l18.35-3.86s-19.3-55.37-23.57-87.81c-4.77-36.25-11.94-118.22-11.94-118.22l-35.45.33Z"/><path class="cls-12" d="m299.58,142.1h-3.64l-3.98-4.96s-9.15,11.28-9.27,10.96c-.12-.32-3.02-6.93-3.02-6.93l-1.4,2.94-4.17.22-8.63,14.53,1.86,20.89,22.83,6.56,9.4-44.21Z"/><path class="cls-6" d="m299.58,142.1h-3.64l-3.98-4.96s-9.15,11.28-9.27,10.96c-.12-.32-3.02-6.93-3.02-6.93l-1.4,2.94-4.17.22-8.63,14.53,1.86,20.89,22.83,6.56,9.4-44.21Z"/><path class="cls-13" d="m356.24,259.25s-4.37-8.49-11.17-7.57c-6.8.92-8.41,11.62-8.41,11.62l3.81-.86s-.31-7.93,4.51-8.52c4.82-.58,8.53,6.2,8.53,6.2l2.23-.88"/><polygon class="cls-13" points="386.4 300.6 384.98 295.16 374.72 255.87 316.88 266.43 323.39 312.96 386.4 300.6"/><path class="cls-21" d="m349.89,240.78c.68.58,3.01,7.76,3.29,9.65.28,1.89-.01,2.93-.91,3.18-.9.25-1.9.46-2.11.38-.21-.08.1,1.88-1.43,2.18-1.53.3-2.1-.11-2.1-.11,0,0-.62,2.45-2.45,2.44-1.84,0-2.32-.79-2.53-1.02-.9-.97-.65-3.26-.65-3.26l-2.54,3s-.95-2.08-1.16-4c-.21-1.92,1.64-6.38,1.64-6.38l2.45-3.67.89-6.32s7.34,1.85,7.33,2.03c-.01.18.28,1.89.28,1.89Z"/><g class="cls-30"><path class="cls-9" d="m320.62,288c18.04-3.63,36.11-7.08,54.18-10.54,1.69-.32,3.38-.65,5.07-.97.47-.09.27-.81-.2-.72-14.7,2.8-29.39,5.63-44.08,8.51-5.06.99-10.12,1.99-15.17,3-.47.1-.27.82.2.72h0Z"/></g><rect class="cls-9" x="332.78" y="282.32" width="2.88" height="6.52" transform="translate(-45.71 64.41) rotate(-10.31)"/><rect class="cls-9" x="365.23" y="275.99" width="2.88" height="6.52" transform="translate(-44.06 70.13) rotate(-10.31)"/><path class="cls-16" d="m233.94,168.84c-.28.22,7.16,18.71,8.17,17.48,1.02-1.23,13.88-23.86,16.13-28.64,2.25-4.79,2.52-11.27,6.37-11.29,3.85-.02,0,34.06,0,34.06,0,0-11.55,23.31-19.72,25.62-9.1,2.57-14.23-4.22-15.82-7.89-1.59-3.66-7.39-23.53-7.68-26.71-.29-3.18,12.55-2.63,12.55-2.63Z"/><path class="cls-16" d="m326.97,244.02l-36.63,3.72-6.34-15.1-6.01,13.7-13.84-4.42,5.72-27.91c-2.91-20.19-7.36-34.64-9.15-45.89-2.3-14.44,3.91-21.73,3.91-21.73,10.62-2.46,11.44-2.32,11.44-2.32-9.61,14.71,5.42,50.86,5.42,50.86,8.62-24.18,18.12-52.82,18.12-52.82,6.51.26,13.15,2.1,19.09,4.79,0,0-1.99,49.15,2.98,63.16,4.97,14.01,5.32,33.96,5.32,33.96Z"/><path class="cls-3" d="m313.61,166.48s-.43,14.64,5.01,22.59c-.43-7.39-.55-15.43-.55-22.43-1.77-.38-2.89-1.06-4.46-.16Z"/><g class="cls-30"><path class="cls-16" d="m302.93,143.25c-1.01,3.16-.66,6.57-.24,9.86.42,3.29.9,6.66.13,9.89-.77,3.23-3.1,6.32-6.36,6.92,1.21,6.21-2.07,12.22-6.22,16.59-2.88,3.04-7.28,5.61-8.19,10-1,4.83.93,10.59,1.33,15.44.55,6.6.57,13.24.13,19.85"/></g><g class="cls-30"><path class="cls-16" d="m303.43,222.09c6-.84,9.53-2.36,15.41-3.81-1.26-1.78-2.52-3.57-3.78-5.35-4.69,1.31-9.4,2.51-14.15,3.59l2.53,5.57Z"/></g><g class="cls-30"><path class="cls-16" d="m273.82,144.77c-2.14,3.06-4.3,6.14-5.76,9.58-1.46,3.44-2.19,7.3-1.35,10.94.44,1.91,2.37,2.98,2.72,4.91.29,1.6-.85,3.97-.68,5.59.74,6.87,8.02,14.07,12.71,19.14"/></g><g class="cls-30"><path class="cls-16" d="m263.65,182.37c-2.24-7.43-3.52-15.15-3.78-22.9"/></g><path class="cls-16" d="m317.74,146.97s.49-2.21,10.34,14.89c8.44,14.65,12.88,23.81,15.58,31.6,4.13,10.48,8.94,47.85,8.94,47.85l-14.05,2.06s-3.93-30.25-7.44-39.88c-3.51-9.63-15.15-20.7-17.44-31.23-.5-2.33-1.6-6.84-1.75-11.39-.25-7.43.86-9.91,5.81-13.91Z"/><g class="cls-30"><path class="cls-16" d="m311.96,162.1c-.85-5.23,1.15-10.84,5.13-14.34"/></g><path class="cls-13" d="m279.81,154.21c-1.58,8.05-2.84,18.92-2.99,27.12.96,1.97,3.5,11.65,4.65,13.59.84-2.22,2.55-7.85,3.56-10.09-.9-9.64-3.69-25.75-3.17-30.87l-2.04.25Z"/><polygon class="cls-13" points="280.08 158.82 278.9 152.87 282.14 149.59 284.5 152.81 280.08 158.82"/><polygon class="cls-8" points="294.95 142.1 286.72 154.86 282.14 149.59 286.09 156.24 287.64 156.24 294.95 142.1"/><polygon class="cls-8" points="282.14 149.59 278.64 153.13 278.24 145.4 277.73 154.21 278.64 154.21 282.14 149.59"/></svg>