<?xml version="1.0" encoding="UTF-8"?><svg id="Layer_1" xmlns="http://www.w3.org/2000/svg" xmlns:xlink="http://www.w3.org/1999/xlink" viewBox="0 0 1920 1080"><defs><style>.cls-1{clip-path:url(#clippath);}.cls-2{fill:none;}.cls-2,.cls-3,.cls-4{stroke-width:0px;}.cls-3{fill:url(#linear-gradient);}.cls-4{fill:url(#linear-gradient-2);isolation:isolate;opacity:.6;}.cls-5{clip-path:url(#clippath-1);}.cls-6{fill:#656565;}.cls-6,.cls-7,.cls-8,.cls-9,.cls-10,.cls-11,.cls-12,.cls-13,.cls-14,.cls-15,.cls-16,.cls-17{stroke:#fff;stroke-miterlimit:10;}.cls-7{fill:#818181;}.cls-8{fill:#bababa;}.cls-9{fill:#737373;}.cls-10{fill:#8f8f8f;}.cls-11{fill:#9d9d9d;}.cls-12{fill:#c8c8c8;}.cls-13{fill:#acacac;}.cls-14{fill:#575757;}.cls-15{fill:#3a3a3a;}.cls-16{fill:#404040;}.cls-17{fill:#4e4e4e;}.cls-18{opacity:.5;}</style><linearGradient id="linear-gradient" x1="-65.6" y1="735.06" x2="1985.6" y2="344.94" gradientTransform="translate(0 1080) scale(1 -1)" gradientUnits="userSpaceOnUse"><stop offset=".28" stop-color="#25688f"/><stop offset=".42" stop-color="#26678d"/><stop offset=".47" stop-color="#2d6789"/><stop offset=".51" stop-color="#396782"/><stop offset=".54" stop-color="#4a6677"/><stop offset=".57" stop-color="#606669"/><stop offset=".57" stop-color="#666"/><stop offset=".73" stop-color="#32a3d3"/></linearGradient><clipPath id="clippath"><rect class="cls-2" x="0" y="0" width="1920" height="1080"/></clipPath><clipPath id="clippath-1"><rect class="cls-2" x="0" y="6.02" width="1920" height="1067.97"/></clipPath><linearGradient id="linear-gradient-2" x1="0" y1="540" x2="1920" y2="540" gradientUnits="userSpaceOnUse"><stop offset=".36" stop-color="#25688f"/><stop offset=".49" stop-color="#666" stop-opacity=".6"/><stop offset=".59" stop-color="#3b98bf" stop-opacity=".86"/><stop offset=".67" stop-color="#32a3d3"/></linearGradient></defs><rect class="cls-3" y="0" width="1920" height="1080"/><g class="cls-18"><g class="cls-1"><path class="cls-15" d="m1705.79-614.83h214.21v219.06l-214.21-219.06ZM0,1099v206.17h241.98L0,1099Z"/><path class="cls-7" d="m753.72-161.98l-182.48-254.04,238.02,58.91-55.54,195.13Zm257.85-257.72l347.11,77.32-180.5-272.44-166.61,195.13Zm-440.33,3.68l79.34-198.81-359.01,108.61,279.67,90.2ZM483.97-51.53L154.71,134.39l198.35,117.81L483.97-51.53Zm218.18,79.16l-218.18-79.16,182.48,281.65,35.7-202.49Zm-349.09,224.58l-204.3,176.72,91.24,123.34,113.06-300.06Zm-162.64,504.39l49.59-204.33-188.43,97.56,138.84,106.77Zm731.9,445.48l71.4,103.09,162.64-119.65-234.05,16.57Zm630.74-86.52l249.92,115.97-115.04-171.2-134.88,55.23Zm-190.41,104.93l190.41-104.93-283.64-106.77,93.22,211.7Zm-551.41-620.36l198.35,69.95-136.86-289.01-61.49,219.06Z"/><path class="cls-10" d="m571.24-416.02l79.34-198.81,158.68,257.72-238.02-58.91ZM154.71,134.39L483.97-51.53l-230.08-86.52-99.17,272.44Zm648.6-38.66l247.93,127.02-85.29-294.54-162.64,167.52Zm-101.16-68.11l101.16,68.11,162.64-167.52L702.15,27.62ZM240,552.26l-49.59,204.33,164.63-125.18-115.04-79.16Zm115.04,79.16l150.74,127.02,152.73-95.72-303.47-31.29Zm128.93,393.94l438.35-106.77-166.61-92.04-271.74,198.81Zm95.21,279.81h414.55l-71.41-103.09-343.14,103.09Zm343.14-103.09l234.05-16.57,1.98-66.27-236.03,82.84Zm71.4,103.09h216.2l-53.55-119.65-162.64,119.65Zm517.69,0l-148.76-84.68-152.73,84.68h301.49Zm41.65-189.61l-190.41,104.93,148.76,84.68,41.65-189.61Zm-220.17-347.92l-63.47,241.15,353.06-75.47-289.59-165.68Zm-460.17-386.58l136.86,289.01,41.65-447.33-178.51,158.31Zm485.95-723.45l31.74,296.38,170.58-46.02-202.31-250.35Z"/><path class="cls-8" d="m936.2-614.83l75.37,195.13-202.31,62.59,126.94-257.72ZM666.45,230.12l206.28,150.95-69.42-285.33-136.86,134.38Zm255.87,688.48l236.03,200.65,111.07-110.45-347.11-90.2Zm87.27-248.51l-87.27,248.51,228.1-213.54-140.83-34.98Zm41.65-447.33l154.71-294.54h-240l85.29,294.54ZM1390.41-46.01l-184.46-25.77,105.12,211.7,79.34-185.93Zm-380.83,716.09l354.4-284.24-312.74-163.08-41.65,447.33Zm435.32-66l-294.49,100.98,182.48,62.59,112.01-163.57Z"/><path class="cls-12" d="m1269.42,1008.79l-347.11-90.2,228.1-213.54,119.01,303.74Zm-119.01-303.74l294.49-100.98-80.92-218.24-213.57,319.22Zm160.66-565.14l188.43-97.56-109.09-88.36-79.34,185.93Z"/><path class="cls-13" d="m650.58-614.83h285.62l-126.94,257.72-158.68-257.72Zm360.99,195.13l-202.31,62.59,95.21,97.56,107.11-160.15Zm-257.85,257.72l212.23,90.2-61.49-187.77-150.74,97.56Zm150.74-97.56l176.53,60.75-69.42-220.9-107.11,160.15Zm-31.74,640.61l-206.28-150.95,144.79,370.01,61.49-219.06ZM190.41,756.6l315.37,1.84-150.74-127.02-164.63,125.18Zm315.37,1.84l249.92,68.11-97.19-163.84-152.73,95.72Zm416.53,160.15l-438.35,106.77,438.35,176.72v-283.49Zm440.33,301.9l-204.3-101.25-1.98,66.27,206.28,34.98ZM1080.99-198.8l124.96,127.02,152.73-270.6-277.69,143.59Zm-29.75,421.55l259.83-82.84-105.12-211.7-154.71,294.54Zm-41.65,447.33l140.83,34.98,213.57-319.22-354.4,284.24Zm435.32-66l264.85-151.22-345.77-67.02,80.92,218.24Zm-133.83-464.16l52.91,245.92,312.05-128.11-364.96-117.81Zm249.92-231.95l-170.58,46.02,109.09,88.36,61.49-134.38Z"/><path class="cls-11" d="m809.26-357.11l95.21,97.56-150.74,97.56,55.54-195.13Zm202.31-62.59l166.61-195.13h-241.98l75.37,195.13ZM702.15,27.62l263.8-99.41-212.23-90.2-51.57,189.61Zm656.53-370.01l-347.11-77.32,69.42,220.9,277.69-143.59Zm-277.69,143.59l-176.53-60.75,61.49,187.77,115.04-127.02Zm-414.55,428.92l136.86-134.38-101.16-68.11-35.7,202.49Zm136.86-134.38l69.42,285.33,178.51-158.31-247.93-127.02Zm119.01,822.86v283.49l236.03-82.84-236.03-200.65Zm287.6,386.58l152.73-84.68-206.28-34.98,53.55,119.65Zm152.73-84.68l-93.22-211.7-111.07,110.45,204.3,101.25Zm-93.22-211.7l63.47-241.15-182.48-62.59,119.01,303.74ZM965.95-71.78h240l-124.96-127.02-115.04,127.02Zm240,0l184.46,25.77-31.74-296.38-152.73,270.6Zm-154.71,294.54l312.74,163.08-52.91-245.92-259.83,82.84Zm448.26-180.4l-188.43,97.56,364.96,117.81-176.53-215.38Z"/><path class="cls-16" d="m1705.79-614.83l214.21,219.06-180.5,86.52-33.72-305.58ZM579.17,1305.17l-95.21-279.81-241.98,279.81h337.19Zm-351.07-386.58L0,1099l241.98,206.17-13.88-386.58ZM1668.1-226.41l214.21,36.82-142.81-119.65-71.41,82.84Zm214.21,36.82l37.69,55.23v-261.4l-37.69,206.17Z"/><path class="cls-9" d="m571.24-416.02l-291.57,71.79,11.9-161.99,279.67,90.2ZM0-57.05l154.71,191.45,99.17-272.44L0-57.05Zm154.71,191.45L0,285.34l353.06-33.14-198.35-117.81Zm198.35,117.81l313.39-22.09L483.97-51.53l-130.91,303.74ZM483.97-51.53l218.18,79.16,51.57-189.61L483.97-51.53Zm174.55,714.25l152.73-62.59-144.79-370.01-7.93,432.6ZM353.06,252.21l-113.06,300.06,115.04,79.16-1.98-379.21Zm305.45,410.51l97.19,163.84,55.54-226.42-152.73,62.59Zm351.07,7.36l-253.88,156.47,166.61,92.04,87.27-248.51Zm-525.62,355.28l271.74-198.81-249.92-68.11-21.82,266.92Zm-293.55-268.76l37.69,161.99,277.69-160.15-315.37-1.84Zm1453.88,548.57l158.68-73.63-249.92-115.97,91.24,189.61Zm0,0h164.63l-5.95-73.63-158.68,73.63Zm-91.24-189.61l69.42-182.24-353.06,75.47,283.64,106.77Zm-108.15-511.49l-112.01,163.57,289.59,165.68-177.58-329.24Zm243.03,456.26l136.86-143.59-202.31,16.57,65.45,127.02ZM1499.5,42.35l263.8-138.06-202.31,3.68-61.49,134.38Zm176.53,215.38l243.97,161.99V106.78l-243.97,150.95Zm243.97,703.2l-95.21-44.18-21.82,314.78,117.02-270.6Z"/><path class="cls-15" d="m1705.79-614.83l33.72,305.58-198.35-62.59,164.63-242.99Zm-1414.21,108.61L0-614.83v156.47l291.57-47.86Zm-63.47,1424.81l13.88,386.58,241.98-279.81-255.87-106.77Zm0,0L0,819.19v279.81l228.1-180.4ZM0,480.47l148.76-51.54L0,285.34v195.13ZM0,819.19l51.57-169.36L0,480.47v338.72ZM1560.99-92.03l202.31-3.68-95.21-130.7-107.11,134.38Zm359.01-303.74l-180.5,86.52,142.81,119.65,37.69-206.17Zm-156.69,300.06l119.01-93.88-214.21-36.82,95.21,130.7Zm-87.27,353.44l33.72,195.13,210.25-33.14-243.97-161.99Zm132.89,447.33l111.07,40.5v-325.83l-111.07,285.33Zm-5.95,526.48l117.02,73.63v-344.24l-117.02,270.6Z"/><path class="cls-17" d="m291.57-506.22l-11.9,161.99L0-458.36l291.57-47.86Zm279.67,90.2l-291.57,71.79,208.26,121.5,83.31-193.29Zm969.92,44.18l164.63-242.99h-273.72l109.09,242.99ZM0-57.05l140.83-193.29L0-230.09V-57.05Zm148.76,485.98L0,480.47l51.57,169.36,97.19-220.9ZM1358.68-342.39l202.31,250.35-19.83-279.81-182.48,29.45Zm450.25,1047.44l-186.45,228.26,202.31-16.57-15.87-211.7Zm-267.77-1076.89l126.94,145.43,71.41-82.84-198.35-62.59Zm222.15,276.13l156.69-38.66-37.69-55.23-119.01,93.88Zm156.69-38.66l-156.69,38.66,156.69,202.49v-241.15Zm-95.21,1051.12l95.21,44.18v-215.38l-95.21,171.2ZM353.06,252.21l1.98,379.21,179.7-248.65-181.69-130.56Z"/><path class="cls-14" d="m140.83-250.34l138.84-93.88-25.79,206.17-113.06-112.29Zm347.11,27.61l-208.26-121.5-25.79,206.17,234.05-84.68Zm0,0l265.79,60.75-182.48-254.04-83.31,193.29Zm870.74-119.65l182.48-29.45-109.09-242.99-73.39,272.44Zm-1019.5-272.44H0l291.57,108.61,47.6-108.61ZM0-458.36v228.26l140.83-20.25L0-458.36ZM0-57.05v342.4l154.71-150.95L0-57.05Zm483.97,1082.42l21.82-266.92-277.69,160.15,255.87,106.77ZM0,819.19l228.1,99.41-37.69-161.99L0,819.19ZM1676.03,257.73l-312.05,128.11,345.77,67.02-33.72-195.13Zm-53.55,675.59l186.45-228.26-364.02-100.98,177.58,329.24Zm-61.49-1025.35l107.11-134.38-126.94-145.43,19.83,279.81Zm115.04,349.76l243.97-150.95-156.69-202.49-87.27,353.44Zm33.72,195.13l99.17,252.2,111.07-285.33-210.25,33.14Zm99.17,252.2l15.87,211.7,95.21-171.2-111.07-40.5Zm111.07,600.12l-117.02-73.63,5.95,73.63h111.07ZM534.74,382.77l131.7-152.65-313.39,22.09,181.69,130.56Zm0,0l-179.7,248.65,303.47,31.29-123.77-279.95Z"/><path class="cls-6" d="m0-458.36l279.67,114.13-138.84,93.88L0-458.36Zm1358.68,115.97l73.39-272.44h-253.88l180.5,272.44Zm-708.1-272.44h-311.4l-47.6,108.61,359.01-108.61ZM140.83-250.34L0-57.05l253.88-81-113.06-112.29Zm347.11,27.61l-3.97,171.2,269.75-110.45-265.79-60.75Zm-234.05,84.68l230.08,86.52,3.97-171.2-234.05,84.68Zm-105.12,566.98l204.3-176.72L0,285.34l148.76,143.59Zm0,0l-97.19,220.9,188.43-97.56-91.24-123.34Zm606.94,397.62l253.88-156.47-198.35-69.95-55.54,226.42Zm-271.74,198.81l95.21,279.81,343.14-103.09-438.35-176.72ZM0,819.19l190.41-62.59-138.84-106.77L0,819.19Zm1511.41,485.98h132.89l-91.24-189.61-41.65,189.61Zm41.65-189.61l134.88-55.23-65.45-127.02-69.42,182.24Zm156.69-662.7l-264.85,151.22,364.02,100.98-99.17-252.2Zm115.04,463.89l-136.86,143.59,115.04,171.2,21.82-314.78Zm-61.49-1012.46l-263.8,138.06,176.53,215.38,87.27-353.44ZM658.51,662.72l7.93-432.6-131.7,152.65,123.77,279.95Z"/></g></g><g class="cls-18"><g class="cls-5"><path class="cls-15" d="m1705.79-601.97h214.21v216.62l-214.21-216.62ZM0,1092.77v203.88h241.98L0,1092.77Z"/><path class="cls-7" d="m753.72-154.16l-182.48-251.21,238.02,58.25-55.54,192.96Zm257.85-254.85l347.11,76.45-180.5-269.41-166.61,192.96Zm-440.33,3.64l79.34-196.6-359.01,107.4,279.67,89.2ZM483.97-44.94L154.71,138.91l198.35,116.5L483.97-44.94Zm218.18,78.27l-218.18-78.27,182.48,278.51,35.7-200.24Zm-349.09,222.08l-204.3,174.75,91.24,121.96,113.06-296.72Zm-162.64,498.77l49.59-202.06-188.43,96.48,138.84,105.58Zm731.9,440.52l71.4,101.94,162.64-118.32-234.05,16.38Zm630.74-85.56l249.92,114.68-115.04-169.29-134.88,54.61Zm-190.41,103.76l190.41-103.76-283.64-105.58,93.22,209.34Zm-551.41-613.45l198.35,69.17-136.86-285.79-61.49,216.62Z"/><path class="cls-10" d="m571.24-405.37l79.34-196.6,158.68,254.85-238.02-58.25ZM154.71,138.91L483.97-44.94l-230.08-85.56-99.17,269.41Zm648.6-38.23l247.93,125.6-85.29-291.25-162.64,165.65Zm-101.16-67.35l101.16,67.35,162.64-165.65-263.8,98.3ZM240,552.13l-49.59,202.06,164.63-123.78-115.04-78.27Zm115.04,78.27l150.74,125.6,152.73-94.66-303.47-30.95Zm128.93,389.55l438.35-105.58-166.61-91.02-271.74,196.6Zm95.21,276.69h414.55l-71.41-101.94-343.14,101.94Zm343.14-101.94l234.05-16.38,1.98-65.53-236.03,81.92Zm71.4,101.94h216.2l-53.55-118.32-162.64,118.32Zm517.69,0l-148.76-83.74-152.73,83.74h301.49Zm41.65-187.49l-190.41,103.76,148.76,83.74,41.65-187.49Zm-220.17-344.04l-63.47,238.46,353.06-74.63-289.59-163.83Zm-460.17-382.27l136.86,285.79,41.65-442.34-178.51,156.55Zm485.95-715.39l31.74,293.07,170.58-45.51-202.31-247.57Z"/><path class="cls-8" d="m936.2-601.97l75.37,192.96-202.31,61.89,126.94-254.85ZM666.45,233.57l206.28,149.27-69.42-282.15-136.86,132.88Zm255.87,680.81l236.03,198.42,111.07-109.22-347.11-89.2Zm87.27-245.75l-87.27,245.75,228.1-211.16-140.83-34.59Zm41.65-442.34l154.71-291.25h-240l85.29,291.25ZM1390.41-39.48l-184.46-25.48,105.12,209.34,79.34-183.85Zm-380.83,708.11l354.4-281.07-312.74-161.27-41.65,442.34Zm435.32-65.27l-294.49,99.85,182.48,61.89,112.01-161.75Z"/><path class="cls-12" d="m1269.42,1003.57l-347.11-89.2,228.1-211.16,119.01,300.36Zm-119.01-300.36l294.49-99.85-80.92-215.81-213.57,315.66Zm160.66-558.84l188.43-96.48-109.09-87.38-79.34,183.85Z"/><path class="cls-13" d="m650.58-601.97h285.62l-126.94,254.85-158.68-254.85Zm360.99,192.96l-202.31,61.89,95.21,96.48,107.11-158.37Zm-257.85,254.85l212.23,89.2-61.49-185.67-150.74,96.48Zm150.74-96.48l176.53,60.07-69.42-218.44-107.11,158.37Zm-31.74,633.48l-206.28-149.27,144.79,365.89,61.49-216.62ZM190.41,754.19l315.37,1.82-150.74-125.6-164.63,123.78Zm315.37,1.82l249.92,67.35-97.19-162.01-152.73,94.66Zm416.53,158.37l-438.35,105.58,438.35,174.75v-280.33Zm440.33,298.54l-204.3-100.12-1.98,65.53,206.28,34.59ZM1080.99-190.57l124.96,125.6,152.73-267.59-277.69,141.99Zm-29.75,416.86l259.83-81.92-105.12-209.34-154.71,291.25Zm-41.65,442.34l140.83,34.59,213.57-315.66-354.4,281.07Zm435.32-65.27l264.85-149.53-345.77-66.27,80.92,215.81Zm-133.83-458.99l52.91,243.18,312.05-126.68-364.96-116.5Zm249.92-229.36l-170.58,45.51,109.09,87.38,61.49-132.88Z"/><path class="cls-11" d="m809.26-347.12l95.21,96.48-150.74,96.48,55.54-192.96Zm202.31-61.89l166.61-192.96h-241.98l75.37,192.96ZM702.15,33.33l263.8-98.3-212.23-89.2-51.57,187.49Zm656.53-365.89l-347.11-76.45,69.42,218.44,277.69-141.99Zm-277.69,141.99l-176.53-60.07,61.49,185.67,115.04-125.6Zm-414.55,424.14l136.86-132.88-101.16-67.35-35.7,200.24Zm136.86-132.88l69.42,282.15,178.51-156.55-247.93-125.6Zm119.01,813.69v280.33l236.03-81.92-236.03-198.42Zm287.6,382.27l152.73-83.74-206.28-34.59,53.55,118.32Zm152.73-83.74l-93.22-209.34-111.07,109.22,204.3,100.12Zm-93.22-209.34l63.47-238.46-182.48-61.89,119.01,300.36ZM965.95-64.97h240l-124.96-125.6-115.04,125.6Zm240,0l184.46,25.48-31.74-293.07-152.73,267.59Zm-154.71,291.25l312.74,161.27-52.91-243.18-259.83,81.92Zm448.26-178.39l-188.43,96.48,364.96,116.5-176.53-212.98Z"/><path class="cls-16" d="m1705.79-601.97l214.21,216.62-180.5,85.56-33.72-302.18ZM579.17,1296.65l-95.21-276.69-241.98,276.69h337.19Zm-351.07-382.27L0,1092.77l241.98,203.88-13.88-382.27ZM1668.1-217.87l214.21,36.41-142.81-118.32-71.41,81.92Zm214.21,36.41l37.69,54.61v-258.49l-37.69,203.88Z"/><path class="cls-9" d="m571.24-405.37l-291.57,70.99,11.9-160.19,279.67,89.2ZM0-50.4l154.71,189.32,99.17-269.41L0-50.4Zm154.71,189.32L0,288.18l353.06-32.77-198.35-116.5Zm198.35,116.5l313.39-21.84L483.97-44.94l-130.91,300.36ZM483.97-44.94l218.18,78.27,51.57-187.49L483.97-44.94Zm174.55,706.29l152.73-61.89-144.79-365.89-7.93,427.78ZM353.06,255.41l-113.06,296.72,115.04,78.27-1.98-374.99Zm305.45,405.94l97.19,162.01,55.54-223.9-152.73,61.89Zm351.07,7.28l-253.88,154.73,166.61,91.02,87.27-245.75Zm-525.62,351.33l271.74-196.6-249.92-67.35-21.82,263.95Zm-293.55-265.77l37.69,160.19,277.69-158.37-315.37-1.82Zm1453.88,542.46l158.68-72.81-249.92-114.68,91.24,187.49Zm0,0h164.63l-5.95-72.81-158.68,72.81Zm-91.24-187.49l69.42-180.21-353.06,74.63,283.64,105.58Zm-108.15-505.79l-112.01,161.75,289.59,163.83-177.58-325.58Zm243.03,451.18l136.86-141.99-202.31,16.38,65.45,125.6ZM1499.5,47.89l263.8-136.53-202.31,3.64-61.49,132.88Zm176.53,212.98l243.97,160.19V111.61l-243.97,149.27Zm243.97,695.37l-95.21-43.69-21.82,311.28,117.02-267.59Z"/><path class="cls-15" d="m1705.79-601.97l33.72,302.18-198.35-61.89,164.63-240.28Zm-1414.21,107.4L0-601.97v154.73l291.57-47.33Zm-63.47,1408.94l13.88,382.27,241.98-276.69-255.87-105.58Zm0,0L0,816.08v276.69l228.1-178.39ZM0,481.13l148.76-50.97L0,288.18v192.96ZM0,816.08l51.57-167.47L0,481.13v334.94ZM1560.99-84.99l202.31-3.64-95.21-129.24-107.11,132.88Zm359.01-300.36l-180.5,85.56,142.81,118.32,37.69-203.88Zm-156.69,296.72l119.01-92.84-214.21-36.41,95.21,129.24Zm-87.27,349.5l33.72,192.96,210.25-32.77-243.97-160.19Zm132.89,442.34l111.07,40.05v-322.2l-111.07,282.15Zm-5.95,520.62l117.02,72.81v-340.4l-117.02,267.59Z"/><path class="cls-17" d="m291.57-494.57l-11.9,160.19L0-447.24l291.57-47.33Zm279.67,89.2l-291.57,70.99,208.26,120.14,83.31-191.14Zm969.92,43.69l164.63-240.28h-273.72l109.09,240.28ZM0-50.4l140.83-191.14L0-221.52V-50.4Zm148.76,480.57L0,481.13l51.57,167.47,97.19-218.44ZM1358.68-332.56l202.31,247.57-19.83-276.69-182.48,29.13Zm450.25,1035.77l-186.45,225.72,202.31-16.38-15.87-209.34Zm-267.77-1064.9l126.94,143.81,71.41-81.92-198.35-61.89Zm222.15,273.05l156.69-38.23-37.69-54.61-119.01,92.84Zm156.69-38.23l-156.69,38.23,156.69,200.24V-126.86Zm-95.21,1039.41l95.21,43.69v-212.98l-95.21,169.29ZM353.06,255.41l1.98,374.99,179.7-245.88-181.69-129.11Z"/><path class="cls-14" d="m140.83-241.54l138.84-92.84-25.79,203.88-113.06-111.04Zm347.11,27.31l-208.26-120.14-25.79,203.88,234.05-83.74Zm0,0l265.79,60.07-182.48-251.21-83.31,191.14Zm870.74-118.32l182.48-29.13-109.09-240.28-73.39,269.41Zm-1019.5-269.41H0l291.57,107.4,47.6-107.4ZM0-447.24v225.72l140.83-20.02L0-447.24ZM0-50.4v338.58l154.71-149.27L0-50.4ZM483.97,1019.95l21.82-263.95-277.69,158.37,255.87,105.58ZM0,816.08l228.1,98.3-37.69-160.19L0,816.08ZM1676.03,260.87l-312.05,126.68,345.77,66.27-33.72-192.96Zm-53.55,668.06l186.45-225.72-364.02-99.85,177.58,325.58Zm-61.49-1013.93l107.11-132.88-126.94-143.81,19.83,276.69Zm115.04,345.86l243.97-149.27-156.69-200.24-87.27,349.5Zm33.72,192.96l99.17,249.39,111.07-282.15-210.25,32.77Zm99.17,249.39l15.87,209.34,95.21-169.29-111.07-40.05Zm111.07,593.43l-117.02-72.81,5.95,72.81h111.07ZM534.74,384.52l131.7-150.95-313.39,21.84,181.69,129.11Zm0,0l-179.7,245.88,303.47,30.95-123.77-276.83Z"/><path class="cls-6" d="m0-447.24l279.67,112.86-138.84,92.84L0-447.24Zm1358.68,114.68l73.39-269.41h-253.88l180.5,269.41Zm-708.1-269.41h-311.4l-47.6,107.4,359.01-107.4ZM140.83-241.54L0-50.4l253.88-80.09-113.06-111.04Zm347.11,27.31l-3.97,169.29,269.75-109.22-265.79-60.07Zm-234.05,83.74l230.08,85.56,3.97-169.29-234.05,83.74Zm-105.12,560.66l204.3-174.75L0,288.18l148.76,141.99Zm0,0l-97.19,218.44,188.43-96.48-91.24-121.96Zm606.94,393.19l253.88-154.73-198.35-69.17-55.54,223.9Zm-271.74,196.6l95.21,276.69,343.14-101.94-438.35-174.75ZM0,816.08l190.41-61.89-138.84-105.58L0,816.08Zm1511.41,480.57h132.89l-91.24-187.49-41.65,187.49Zm41.65-187.49l134.88-54.61-65.45-125.6-69.42,180.21Zm156.69-655.32l-264.85,149.53,364.02,99.85-99.17-249.39Zm115.04,458.73l-136.86,141.99,115.04,169.29,21.82-311.28Zm-61.49-1001.19l-263.8,136.53,176.53,212.98,87.27-349.5ZM658.51,661.35l7.93-427.78-131.7,150.95,123.77,276.83Z"/></g></g><rect class="cls-4" x="0" width="1920" height="1080"/></svg>