<svg width="110" height="110" viewBox="0 0 110 110" fill="none" xmlns="http://www.w3.org/2000/svg">
<path d="M95.896 77.7812H85.2168V80.985H95.896V77.7812Z" fill="black"/>
<path d="M104.298 28.2379H100.984V25.6776C100.984 24.4637 100.509 23.3197 99.6467 22.4579C98.7837 21.5945 97.6364 21.1182 96.4172 21.1182H13.5822C12.3567 21.1182 11.2095 21.5966 10.3636 22.4547C9.49846 23.3143 9.02215 24.4594 9.02215 25.6778V77.7836H0V83.333C0 84.8187 0.576855 86.2135 1.62809 87.2628C2.6791 88.3071 4.07279 88.8825 5.55113 88.8825H76.8086C76.8088 88.8825 76.809 88.8825 76.8092 88.8825H104.298C107.443 88.8825 110 86.3271 110 83.1867V33.9403C110 30.7954 107.443 28.2379 104.298 28.2379ZM5.5507 85.6794C4.92379 85.6794 4.33297 85.4347 3.88867 84.9936C3.44695 84.5519 3.20396 83.963 3.20396 83.333V80.9874H71.1141V83.1867C71.1141 84.0803 71.3215 84.9259 71.6897 85.6794H5.5507ZM106.796 83.1867C106.796 84.5607 105.675 85.6787 104.298 85.6787H76.8092C75.4353 85.6787 74.3177 84.5607 74.3177 83.1867V71.8024H71.1139V77.7836H19.3469V31.4388H64.9705V28.2344H16.1431V77.7834H12.2255V25.6776C12.2255 25.3184 12.3668 24.9802 12.633 24.7144C12.8837 24.4613 13.2204 24.3217 13.5818 24.3217H96.4174C96.7809 24.3217 97.1218 24.4641 97.3809 24.7222C97.639 24.9802 97.7808 25.3194 97.7808 25.6776V28.2379H76.8092C73.6693 28.2379 71.1139 30.7954 71.1139 33.9403V44.7484H74.3177V33.9403C74.3177 32.5631 75.4353 31.4416 76.8092 31.4416H104.298C105.675 31.4416 106.796 32.5631 106.796 33.9403V83.1867Z" fill="black"/>
<path d="M58.6382 63.1835C57.327 61.8716 56.6049 60.1282 56.6049 58.2754V54.406L58.8539 56.655L61.1194 54.3895L55.0028 48.2725L48.8862 54.3895L51.1518 56.655L53.4007 54.406V58.2754C53.4007 60.9841 54.4563 63.5317 56.3718 65.4486C58.288 67.3648 60.8361 68.4207 63.5465 68.4207H80.5888V65.217H63.5465C61.692 65.2168 59.949 64.4947 58.6382 63.1835Z" fill="black"/>
<path d="M92.1583 62.1424V58.2752C92.1583 55.5654 91.1028 53.0172 89.1873 51.1005C87.2715 49.1843 84.7234 48.1299 82.013 48.1299H64.9707V51.3336H82.013C83.8681 51.3336 85.611 52.0553 86.9211 53.3658C88.2323 54.677 88.9544 56.4211 88.9544 58.2752V62.1431L86.7049 59.8939L84.4394 62.1594L90.556 68.2764L96.6726 62.1594L94.4071 59.8939L92.1583 62.1424Z" fill="black"/>
</svg>
