<?xml version="1.0" encoding="UTF-8"?><svg xmlns="http://www.w3.org/2000/svg" xmlns:xlink="http://www.w3.org/1999/xlink" viewBox="0 0 400.66 398.96"><defs><style>.cls-1{letter-spacing:-.08em;}.cls-2{letter-spacing:-.01em;}.cls-3{fill:#fff;}.cls-3,.cls-4,.cls-5,.cls-6,.cls-7{opacity:.8;}.cls-3,.cls-4,.cls-6,.cls-7{mix-blend-mode:screen;}.cls-3,.cls-4,.cls-8,.cls-9,.cls-10,.cls-11,.cls-12,.cls-13,.cls-14,.cls-15,.cls-16,.cls-17,.cls-18,.cls-19,.cls-20{stroke-width:0px;}.cls-4,.cls-21,.cls-11,.cls-12,.cls-13,.cls-14,.cls-15,.cls-20{fill:#64a2d0;}.cls-5{mix-blend-mode:multiply;stroke:url(#Degradado_sin_nombre_129);}.cls-5,.cls-7,.cls-22,.cls-23{stroke-miterlimit:10;}.cls-5,.cls-7,.cls-23{fill:none;}.cls-24{letter-spacing:0em;}.cls-25{letter-spacing:-.03em;}.cls-26{letter-spacing:-.01em;}.cls-21{font-size:11px;}.cls-21,.cls-27,.cls-28{font-family:MyriadPro-Regular, 'Myriad Pro';}.cls-7{stroke:url(#Degradado_sin_nombre_129-2);}.cls-29{letter-spacing:0em;}.cls-22{stroke-width:3px;}.cls-22,.cls-27,.cls-30,.cls-16,.cls-17,.cls-18,.cls-19,.cls-28{fill:#43688c;}.cls-22,.cls-23{stroke:#43688c;}.cls-31{letter-spacing:.03em;}.cls-32{letter-spacing:-.02em;}.cls-33{isolation:isolate;}.cls-27{font-size:12px;}.cls-23{stroke-linecap:round;stroke-width:5px;}.cls-9{fill:url(#Degradado_sin_nombre_128);}.cls-10{fill:url(#Degradado_sin_nombre_127);}.cls-30{font-family:Poppins-Medium, Poppins;font-size:7px;font-weight:500;}.cls-11{filter:url(#drop-shadow-1);}.cls-12{filter:url(#drop-shadow-4);}.cls-13{filter:url(#drop-shadow-8);}.cls-14{filter:url(#drop-shadow-2);}.cls-15{filter:url(#drop-shadow-6);}.cls-16{filter:url(#drop-shadow-5);}.cls-17{filter:url(#drop-shadow-3);}.cls-18{filter:url(#drop-shadow-7);}.cls-34{letter-spacing:.2em;}.cls-28{font-size:77.78px;}</style><linearGradient id="Degradado_sin_nombre_129" x1="14.86" y1="198.61" x2="386.94" y2="198.61" gradientTransform="translate(199.28 -83.89) rotate(45)" gradientUnits="userSpaceOnUse"><stop offset="0" stop-color="#dce3e6"/><stop offset=".12" stop-color="#dce3e6"/><stop offset=".5" stop-color="#fff"/><stop offset="1" stop-color="#dfe4e7"/></linearGradient><linearGradient id="Degradado_sin_nombre_129-2" x1="14.48" y1="197.73" x2="386.56" y2="197.73" gradientTransform="translate(198.55 -83.88) rotate(45)" xlink:href="#Degradado_sin_nombre_129"/><filter id="drop-shadow-1" filterUnits="userSpaceOnUse"><feOffset dx="0" dy="5"/><feGaussianBlur result="blur" stdDeviation="2"/><feFlood flood-color="#708cba" flood-opacity=".3"/><feComposite in2="blur" operator="in"/><feComposite in="SourceGraphic"/></filter><filter id="drop-shadow-2" filterUnits="userSpaceOnUse"><feOffset dx="0" dy="5"/><feGaussianBlur result="blur-2" stdDeviation="2"/><feFlood flood-color="#708cba" flood-opacity=".3"/><feComposite in2="blur-2" operator="in"/><feComposite in="SourceGraphic"/></filter><filter id="drop-shadow-3" filterUnits="userSpaceOnUse"><feOffset dx="0" dy="5"/><feGaussianBlur result="blur-3" stdDeviation="2"/><feFlood flood-color="#708cba" flood-opacity=".3"/><feComposite in2="blur-3" operator="in"/><feComposite in="SourceGraphic"/></filter><filter id="drop-shadow-4" filterUnits="userSpaceOnUse"><feOffset dx="0" dy="5"/><feGaussianBlur result="blur-4" stdDeviation="2"/><feFlood flood-color="#708cba" flood-opacity=".3"/><feComposite in2="blur-4" operator="in"/><feComposite in="SourceGraphic"/></filter><filter id="drop-shadow-5" filterUnits="userSpaceOnUse"><feOffset dx="0" dy="5"/><feGaussianBlur result="blur-5" stdDeviation="2"/><feFlood flood-color="#708cba" flood-opacity=".3"/><feComposite in2="blur-5" operator="in"/><feComposite in="SourceGraphic"/></filter><filter id="drop-shadow-6" filterUnits="userSpaceOnUse"><feOffset dx="0" dy="5"/><feGaussianBlur result="blur-6" stdDeviation="2"/><feFlood flood-color="#708cba" flood-opacity=".3"/><feComposite in2="blur-6" operator="in"/><feComposite in="SourceGraphic"/></filter><filter id="drop-shadow-7" filterUnits="userSpaceOnUse"><feOffset dx="0" dy="5"/><feGaussianBlur result="blur-7" stdDeviation="2"/><feFlood flood-color="#708cba" flood-opacity=".3"/><feComposite in2="blur-7" operator="in"/><feComposite in="SourceGraphic"/></filter><filter id="drop-shadow-8" filterUnits="userSpaceOnUse"><feOffset dx="0" dy="5"/><feGaussianBlur result="blur-8" stdDeviation="2"/><feFlood flood-color="#708cba" flood-opacity=".3"/><feComposite in2="blur-8" operator="in"/><feComposite in="SourceGraphic"/></filter><radialGradient id="Degradado_sin_nombre_128" cx="130.33" cy="27.93" fx="130.33" fy="27.93" r="13.29" gradientUnits="userSpaceOnUse"><stop offset=".19" stop-color="#eef0f1"/><stop offset="1" stop-color="#c0d2db"/></radialGradient><linearGradient id="Degradado_sin_nombre_127" x1="119" y1="27.93" x2="141.65" y2="27.93" gradientUnits="userSpaceOnUse"><stop offset="0" stop-color="#dce3e6"/><stop offset="1" stop-color="#fff"/></linearGradient></defs><g class="cls-33"><g id="BACKGROUND"><path class="cls-8" d="m46.02,117.7c3.22,0,3.22-5,0-5s-3.22,5,0,5h0Z"/><text class="cls-28" transform="translate(146.24 215.73)"><tspan x="0" y="0">ERP</tspan></text></g><g id="OBJECTS"><path class="cls-20" d="m73.97,266.35l-11.65-28.15c-2.84,14.7-15.39,23.88-31.6,29.58,16.05-5.98,31.55-10.21,43.25-1.44Z"/><path class="cls-20" d="m268.8,324.92l-28.15,11.65c14.7,2.84,23.88,15.39,29.58,31.6-5.98-16.05-10.21-31.55-1.44-43.25Z"/><path class="cls-20" d="m132.53,71.53l28.15-11.65c-14.7-2.84-23.88-15.39-29.58-31.6,5.98,16.05,10.21,31.55,1.44,43.25Z"/><circle class="cls-5" cx="200.9" cy="198.61" r="185.54" transform="translate(-81.6 200.23) rotate(-45)"/><circle class="cls-5" cx="200.9" cy="198.61" r="185.54" transform="translate(-81.6 200.23) rotate(-45)"/><circle class="cls-7" cx="200.52" cy="197.73" r="185.54" transform="translate(-81.08 199.7) rotate(-45)"/><line class="cls-23" x1="310.47" y1="88.81" x2="200.99" y2="43.42"/><line class="cls-23" x1="200.43" y1="352.92" x2="90.95" y2="307.53"/><line class="cls-23" x1="200.43" y1="353.11" x2="309.94" y2="307.8"/><line class="cls-23" x1="91.48" y1="88.54" x2="200.99" y2="43.22"/><line class="cls-23" x1="45.77" y1="197.89" x2="91.08" y2="307.4"/><line class="cls-23" x1="310.34" y1="88.94" x2="355.65" y2="198.45"/><line class="cls-23" x1="91.35" y1="88.41" x2="45.96" y2="197.89"/><line class="cls-23" x1="355.46" y1="198.45" x2="310.07" y2="307.93"/><path class="cls-22" d="m268.8,71.53l-28.15-11.65c14.7-2.84,23.88-15.39,29.58-31.6-5.98,16.05-10.21,31.55-1.44,43.25Z"/><circle class="cls-11" cx="270.24" cy="28.15" r="26.37" transform="translate(-1.06 42.98) rotate(-9.08)"/><path class="cls-19" d="m269.85,52.72c-13.55-.02-24.55-11.06-24.53-24.61.02-13.53,11.04-24.53,24.57-24.53,13.59.02,24.59,11.06,24.57,24.61-.02,13.53-11.04,24.53-24.57,24.53h-.04Z"/><path class="cls-3" d="m260.56,20.12c4.46,0,8.05,3.6,8.03,8.06-.01,4.41-3.61,7.98-8.05,7.98-4.46,0-8.04-3.6-8.03-8.05.01-4.42,3.61-7.99,8.04-7.98Zm-.32,3.32c-.45.14-.84.23-1.2.38-.95.4-1.51,1.11-1.53,2.15-.03,1.05.5,1.78,1.45,2.19.48.2.98.33,1.46.52.52.2,1.08.35,1.54.65.7.46.59,1.39-.2,1.67-.43.16-.97.28-1.39.16-.94-.26-1.84-.68-2.82-1.07-.14.28-.36.71-.57,1.14.94.89,2.04,1.27,3.26,1.48v1.74h1.13v-1.73c.47-.16.89-.26,1.29-.44.93-.43,1.45-1.15,1.48-2.19.03-1.05-.49-1.78-1.42-2.21-.41-.19-.85-.34-1.28-.49-.49-.18-.99-.32-1.46-.53-.47-.21-.8-.57-.69-1.13.1-.51.51-.68.97-.72.27-.03.55-.08.8-.01.77.19,1.54.44,2.37.68.17-.36.38-.79.65-1.36-.93-.33-1.79-.63-2.71-.95v-1.53h-1.12v1.61Zm17.04,17.95c-4.89,0-9.78,0-14.67,0-.73,0-1.05-.32-1.08-1.07-.01-.31,0-.62,0-.94v-2.19h-1.74c0,1.02.03,1.99,0,2.97-.07,1.77,1.23,3,2.99,2.98,5.18-.06,10.36-.03,15.54-.01.47,0,.76-.15,1.05-.5,1.74-2.05,3.5-4.07,5.23-6.12.2-.24.35-.62.35-.93.02-3.33.02-6.66.02-9.99,0-3.25,0-6.49,0-9.74,0-1.51-1.09-2.7-2.53-2.7-6.7-.02-13.4-.01-20.1,0-1.16,0-2.29.83-2.41,1.97-.14,1.31-.03,2.64-.03,3.97h1.64c0-.98,0-1.94,0-2.89,0-1.06.27-1.32,1.33-1.32,6.33,0,12.65,0,18.98,0,1.14,0,1.39.25,1.39,1.39,0,5.97,0,11.94,0,17.92v.73c-.94,0-1.81,0-2.68,0-1.81,0-2.92,1.12-2.92,2.92,0,1.16,0,2.32,0,3.53-.18.02-.26.03-.35.03Zm-.99-3.46v-2.12h-11.34v2.12h11.34Zm3.51-4.36v-2.1c-.07-.03-.1-.06-.14-.06-3.45,0-6.9-.01-10.35,0-.14,0-.34.13-.41.26-.35.61-.67,1.23-1.03,1.91h11.94Zm-12.67-11.68c.3.36.55.66.82.99.46-.32.92-.64,1.38-.96,1.24,1.08,2.43,2.13,3.63,3.18,2.02-1.42,3.98-2.8,5.96-4.19.27.37.51.68.78,1.06.56-1.2,1.09-2.34,1.65-3.54-1.34.12-2.57.23-3.87.35.24.38.45.7.69,1.07-1.71,1.21-3.41,2.4-5.12,3.6-1.22-1.07-2.41-2.11-3.65-3.2-.78.56-1.52,1.1-2.27,1.64Zm12.66,7.29v-2.11h-10.2v2.11h10.2Z"/><path class="cls-20" d="m327.36,130.09l11.65,28.15c2.84-14.7,15.39-23.88,31.6-29.58-16.05,5.98-31.55,10.21-43.25,1.44Z"/><circle class="cls-14" cx="370.61" cy="128.65" r="26.37" transform="translate(10.75 284.86) rotate(-42.61)"/><path class="cls-20" d="m370.57,153.22c-13.55-.02-24.55-11.06-24.53-24.61.02-13.53,11.04-24.53,24.57-24.53,6.6.01,12.77,2.58,17.4,7.22,4.63,4.65,7.18,10.82,7.17,17.39-.02,13.53-11.04,24.53-24.57,24.53h-.04Z"/><path class="cls-4" d="m375.61,125.65h.4c2.96,0,5.92,0,8.87,0,.58,0,.73.14.73.71,0,5.53,0,11.06,0,16.59,0,.55-.15.7-.71.7-4.2,0-8.39,0-12.59,0-.55,0-.7-.15-.7-.71,0-1.63,0-3.27,0-4.9v-.38h-.38c-4.96,0-9.92,0-14.87,0-.62,0-.75-.13-.75-.75v-22.49c0-.62.13-.75.75-.75,5.01,0,10.02,0,15.03,0,.31,0,.53.09.74.31,1.05,1.07,2.11,2.13,3.18,3.18.22.21.3.44.3.75,0,2.45,0,4.89,0,7.34v.42Zm-1.02,0v-7.5h-2.43c-1.03,0-1.05-.02-1.05-1.04v-2.44h-14.48v21.96h14.98v-.35c0-3.31,0-6.62,0-9.94,0-.55.15-.7.71-.7.75,0,1.5,0,2.27,0Zm10,16.98v-15.96h-11.96v15.96h11.96Zm-12.45-27.16v1.66h1.66c-.56-.55-1.11-1.11-1.66-1.66Zm-11.03,13.18c1.94,0,3.51,1.57,3.5,3.52,0,1.92-1.59,3.49-3.51,3.48-1.94,0-3.5-1.59-3.49-3.53,0-1.9,1.59-3.47,3.49-3.46Zm-.5,1.07c-1.72.34-2.55,2.34-1.58,3.8.51-.51,1.02-1.01,1.52-1.52.04-.04.06-.11.06-.17,0-.7,0-1.39,0-2.11Zm2.93,2.93c-.58,0-1.15.02-1.7,0-.38-.02-.64.1-.89.37-.38.42-.8.8-1.2,1.21,1.5.96,3.51.12,3.8-1.58Zm0-1.01c-.19-.99-1.09-1.87-1.91-1.89v1.89h1.91Zm-1.93-6.99c.81,0,1.58,0,2.35,0,.47,0,.65.17.65.63,0,.58,0,1.17,0,1.75,0,.44-.18.62-.63.62-1.92,0-3.83,0-5.75,0-.45,0-.62-.18-.62-.63,0-1.25,0-2.5,0-3.75,0-.45.18-.62.63-.62.92,0,1.83,0,2.75,0,.45,0,.62.18.62.62,0,.45,0,.89,0,1.38Zm-2.98,1.01v.97h4.96v-.97h-4.96Zm-.01-1.03h1.97v-.95h-1.97v.95Zm1.42-3.81c.48-.34.66-.85.55-1.43-.12-.6-.49-1-1.08-1.17-.15-.04-.31-.04-.46-.07-.25-.05-.41-.21-.42-.47-.01-.25.12-.42.35-.49.25-.08.45.02.58.24.04.07.06.15.09.21h.97c-.03-.51-.22-.93-.63-1.18-.29-.17-.42-.36-.37-.68,0-.03-.01-.06-.02-.09h-.99c.11.41-.1.61-.41.82-.49.34-.67.87-.54,1.46.13.6.51.99,1.1,1.15.14.04.29.03.43.06.25.05.41.21.42.47.01.25-.12.42-.35.49-.25.08-.45-.02-.58-.24-.04-.07-.06-.15-.09-.22h-.97c.03.53.22.96.66,1.21.28.16.38.34.34.64,0,.04,0,.08.02.13h1c-.12-.42.1-.61.41-.83Zm2.16-4.32c-.49.34-.67.87-.54,1.46.13.6.5.99,1.1,1.15.13.03.27.04.4.06.27.04.44.2.46.47.02.26-.13.44-.38.51-.25.06-.45-.04-.57-.27-.03-.06-.05-.13-.08-.18h-.98c.04.53.24.96.68,1.22.25.15.37.3.32.58,0,.05,0,.1,0,.16h1c-.1-.4.09-.61.41-.82.48-.33.66-.85.55-1.43-.11-.6-.48-1-1.08-1.17-.13-.04-.27-.04-.4-.06-.29-.03-.48-.22-.49-.47,0-.26.13-.44.38-.51.27-.06.47.05.58.3.02.05.05.11.06.15h.97c-.03-.52-.22-.95-.66-1.2-.3-.17-.39-.36-.34-.66,0-.03-.01-.06-.02-.1h-.99c.11.41-.1.61-.41.82Zm11.39,3.64v-.96h-7.96v.96h7.96Zm0,4.5v-.96h-7.96v.96h7.96Zm-3,1.04h-4.96v.97h4.96v-.97Zm-4.95,4v.96h4.96v-.96h-4.96Zm0,2.95h4.96v-.96h-4.96v.96Zm0,1.05v.96h4.96v-.96h-4.96Zm0-16.5v.96h4.47v-.96h-4.47Zm12.96,13.48c-1.44,0-2.87,0-4.31,0-.51,0-.67-.16-.67-.68,0-.57,0-1.15,0-1.72,0-.43.18-.6.61-.6,2.93,0,5.85,0,8.78,0,.43,0,.6.18.61.61,0,.59,0,1.19,0,1.78,0,.43-.18.6-.61.6-1.47,0-2.94,0-4.41,0Zm4.01-1.98h-7.96v.96h7.96v-.96Zm-5.99,4.47c0,.32,0,.65,0,.97,0,.33-.2.53-.53.53-.65,0-1.29,0-1.94,0-.33,0-.53-.2-.53-.53,0-.65,0-1.29,0-1.94,0-.33.19-.53.53-.53.65,0,1.29,0,1.94,0,.33,0,.52.19.53.53,0,.32,0,.65,0,.97Zm-1.99.48h.97v-.96h-.97v.96Zm2.49-.47c0-.32,0-.65,0-.97,0-.33.19-.53.53-.53.65,0,1.29,0,1.94,0,.33,0,.53.19.53.53,0,.65,0,1.29,0,1.94,0,.33-.2.53-.53.53-.65,0-1.29,0-1.94,0-.33,0-.52-.19-.53-.53,0-.32,0-.65,0-.97Zm1.02-.49v.97h.96v-.97h-.96Zm5.48.49c0,.32,0,.65,0,.97,0,.33-.2.52-.53.53-.65,0-1.29,0-1.94,0-.33,0-.52-.2-.53-.53,0-.65,0-1.29,0-1.94,0-.33.2-.52.53-.53.65,0,1.29,0,1.94,0,.33,0,.52.2.53.53,0,.32,0,.65,0,.97Zm-1.02.49v-.97h-.95v.97h.95Zm-5.98,3.01c0,.3,0,.6,0,.91,0,.39-.19.58-.57.59-.62,0-1.25,0-1.87,0-.37,0-.55-.2-.55-.57,0-.62,0-1.25,0-1.87,0-.37.19-.55.57-.55.62,0,1.25,0,1.87,0,.37,0,.55.19.55.57,0,.31,0,.62,0,.94Zm-1.97-.5v.97h.95v-.97h-.95Zm3.95,1.99c-.3,0-.6,0-.91,0-.37,0-.56-.19-.57-.55,0-.62,0-1.25,0-1.87,0-.37.19-.56.55-.57.62,0,1.25,0,1.87,0,.37,0,.56.19.57.55,0,.62,0,1.25,0,1.87,0,.38-.19.56-.59.57-.31,0-.62,0-.94,0Zm.51-1.98h-.97v.96h.97v-.96Zm4.51.48c0,.32,0,.65,0,.97,0,.33-.2.53-.53.53-.65,0-1.29,0-1.94,0-.33,0-.53-.19-.53-.53,0-.65,0-1.29,0-1.94,0-.33.19-.53.52-.53.65,0,1.29,0,1.94,0,.34,0,.52.2.54.56,0,.01,0,.02,0,.03,0,.3,0,.6,0,.91Zm-1.02.5v-.97h-.95v.97h.95Zm-3.95,1.51c.31,0,.62,0,.94,0,.33,0,.53.19.53.52,0,.65,0,1.29,0,1.94,0,.33-.19.53-.52.53-.65,0-1.29,0-1.94,0-.33,0-.53-.19-.53-.52,0-.65,0-1.29,0-1.94,0-.35.2-.53.55-.53.32,0,.65,0,.97,0Zm.46,1.02h-.96v.96h.96v-.96Zm4.51.51c0,.31,0,.62,0,.94,0,.33-.2.53-.53.53-.65,0-1.29,0-1.94,0-.33,0-.52-.2-.53-.53,0-.65,0-1.29,0-1.94,0-.33.19-.52.53-.53.65,0,1.29,0,1.94,0,.33,0,.52.19.53.53,0,.33,0,.67,0,1Zm-1.99.45h.97v-.96h-.97v.96Zm-6.52,1.02c-.3,0-.6,0-.91,0-.39,0-.58-.19-.58-.57,0-.61,0-1.23,0-1.84,0-.39.18-.58.57-.58.61,0,1.23,0,1.84,0,.39,0,.58.19.58.57,0,.61,0,1.23,0,1.84,0,.4-.19.58-.6.58-.3,0-.6,0-.91,0Zm-.47-1.99v.96h.96v-.96h-.96Z"/><path class="cls-19" d="m327.36,266.35l11.65-28.15c2.84,14.7,15.39,23.88,31.6,29.58-16.05-5.98-31.55-10.21-43.25-1.44Z"/><circle class="cls-17" cx="370.39" cy="268.56" r="26.37" transform="translate(-81.42 340.56) rotate(-45)"/><path class="cls-19" d="m370.35,293.13c-13.55-.02-24.55-11.06-24.53-24.61.02-13.53,11.04-24.53,24.57-24.53,13.59.02,24.59,11.06,24.57,24.61-.02,13.53-11.04,24.53-24.57,24.53h-.04Z"/><g class="cls-6"><path class="cls-19" d="m381.91,253.56h-23.04c-1.33,0-2.41,1.08-2.41,2.41v23.09c0,1.33,1.08,2.41,2.41,2.41h10.52v1.57c0,.29.23.52.52.52h5.98c.29,0,.52-.23.52-.52v-1.57h5.51c1.33,0,2.41-1.08,2.41-2.41v-23.09c0-1.33-1.08-2.41-2.41-2.41Zm-24.42,25.5v-23.09c0-.76.62-1.37,1.38-1.37h3.72v25.84h-3.72c-.76,0-1.38-.62-1.38-1.37Zm17.98-1.08c-.07.09-.11.2-.11.32v4.23h-4.95v-4.23c0-.12-.04-.23-.11-.32l-3.47-4.43c.89.22,1.94.35,2.93.43,1.63.18,2.9.14,3.11.13.22,0,1.48.05,3.12-.13.99-.08,2.04-.21,2.93-.43l-3.47,4.43Zm.16-5c-.81.06-1.72.1-2.74.1s-1.93-.04-2.74-.1c-1.29-.13-2.84-.4-4.25-.95.69-.38,3.04-.93,6.99-.93s6.3.55,6.99.93c-1.41.56-2.97.83-4.25.95Zm7.66,6.09c0,.76-.62,1.37-1.38,1.37h-5.51v-1.96l4.6-5.88c.09-.12.11-.26.08-.4,0-.04.03-.08.03-.12,0-1.93-6.84-2.03-8.21-2.03s-8.21.1-8.21,2.03c0,.04.02.08.03.12-.02.14,0,.28.08.4l4.6,5.88v1.96h-5.77v-25.84h18.29c.76,0,1.38.62,1.38,1.37v23.09Z"/><path class="cls-19" d="m380.87,256h-15.02c-.29,0-.52.23-.52.52s.23.52.52.52h15.02c.29,0,.52-.23.52-.52s-.23-.52-.52-.52Z"/><path class="cls-19" d="m380.87,259.14h-15.02c-.29,0-.52.23-.52.52s.23.52.52.52h15.02c.29,0,.52-.23.52-.52s-.23-.52-.52-.52Z"/><path class="cls-19" d="m380.87,262.28h-15.02c-.29,0-.52.23-.52.52s.23.52.52.52h15.02c.29,0,.52-.23.52-.52s-.23-.52-.52-.52Z"/><path class="cls-19" d="m375.43,265.42h-9.58c-.29,0-.52.23-.52.52s.23.52.52.52h9.58c.29,0,.52-.23.52-.52s-.23-.52-.52-.52Z"/></g><circle class="cls-12" cx="269.89" cy="369.06" r="26.37" transform="translate(-155.85 202.34) rotate(-32.44)"/><path class="cls-20" d="m269.89,393.63c-13.53,0-24.55-11-24.57-24.53-.02-13.55,10.98-24.59,24.53-24.61,13.57,0,24.59,11,24.61,24.53.01,6.56-2.54,12.74-7.17,17.39-4.63,4.65-10.8,7.21-17.36,7.22h-.04Z"/><path class="cls-19" d="m254.91,382.87c0-.1-.01-.18-.01-.26,0-3.77,0-7.54,0-11.31,0-.13.09-.32.2-.39,2.16-1.31,4.33-2.61,6.49-3.9.05-.03.11-.06.22-.12v3.45c1.95-1.17,3.84-2.3,5.77-3.46v3.46c1.94-1.16,3.83-2.29,5.76-3.45v4.45h2.36c.38-5.76.77-11.52,1.15-17.28h4.54c.38,5.77.77,11.52,1.15,17.3h2.33v11.52h-29.98Zm1.14-1.14h27.69v-9.22h-11.55v-3.58c-1.94,1.16-3.82,2.29-5.76,3.45v-3.46c-1.93,1.15-3.81,2.29-5.76,3.45v-3.45c-.15.09-.26.14-.36.2-1.33.79-2.65,1.6-3.98,2.38-.21.13-.29.26-.29.51,0,3.12,0,6.23,0,9.35v.37Zm20.82-10.4h4.54c-.36-5.39-.72-10.75-1.08-16.11h-2.39c-.36,5.38-.72,10.74-1.07,16.11Z"/><path class="cls-19" d="m132.53,324.92l28.15,11.65c-14.7,2.84-23.88,15.39-29.58,31.6,5.98-16.05,10.21-31.55,1.44-43.25Z"/><circle class="cls-16" cx="129.98" cy="369.28" r="26.37" transform="translate(-217.87 189.66) rotate(-43.3)"/><path class="cls-19" d="m129.97,393.85c-13.53,0-24.55-11-24.57-24.53-.01-6.56,2.54-12.74,7.17-17.39,4.63-4.65,10.8-7.21,17.36-7.22,13.57,0,24.59,11,24.61,24.53.02,13.55-10.98,24.59-24.53,24.61h-.04Z"/><path class="cls-4" d="m114.71,374.23h21.82c0,.11,0,.2,0,.29,0,1.35-.03,2.7.02,4.05.06,1.57,1.67,2.76,3.21,2.43,1.37-.3,2.22-1.34,2.22-2.75,0-7.16,0-14.31,0-21.47v-.28h-19.09v16.33h-2.72v-19.06h24.54v.26c0,8.13,0,16.25,0,24.38,0,2.51-1.91,4.8-4.39,5.25-.38.07-.77.11-1.15.11-6.26,0-12.52,0-18.77.01-1.1,0-2.14-.21-3.07-.8-1.67-1.06-2.57-2.59-2.62-4.59-.03-1.34,0-2.68,0-4.03,0-.04,0-.08.01-.14Zm2.72,2.74c0,.47,0,.91,0,1.35,0,1.53,1.19,2.72,2.72,2.72,4.73,0,9.46,0,14.18,0,.07,0,.13,0,.24-.01-.83-1.27-.82-2.66-.78-4.06h-16.37Zm21.82-15.01h-8.16v2.71h8.16v-2.71Zm-8.16,5.47v2.69h8.17v-2.69h-8.17Zm-2.75-2.76v-2.7h-2.7v2.7h2.7Zm0,2.76h-2.7v2.7h2.7v-2.7Z"/><circle class="cls-15" cx="29.48" cy="268.56" r="26.37" transform="translate(-181.27 99.5) rotate(-45)"/><path class="cls-20" d="m29.48,293.13c-13.53,0-24.55-11-24.57-24.53-.02-13.55,10.98-24.59,24.53-24.61,13.57,0,24.59,11,24.61,24.53.02,13.55-10.98,24.59-24.53,24.61h-.04Z"/><g class="cls-6"><path class="cls-20" d="m43.55,283.56h-.67c-.3-.25-.63-.48-.91-.76-1.29-1.28-2.58-2.57-3.86-3.86-.35-.36-.69-.74-1.03-1.11-2.18,1.73-4.5,2.77-7.15,3.11-6.66.86-13.12-3.38-14.92-9.86-.23-.85-.36-1.72-.54-2.59v-2.27c.05-.32.1-.65.15-.97,1.16-7.5,8.09-12.62,15.61-11.55,8.42,1.2,13.81,9.99,10.96,18.03-.55,1.54-1.46,2.96-2.24,4.53.02.02.16.18.32.34,1.52,1.52,3.05,3.04,4.57,4.57.94.94.84,1.72-.3,2.39Zm-15.33-27.5c-6.23,0-11.23,5.01-11.24,11.28,0,6.2,5.06,11.25,11.29,11.24,6.11,0,11.19-5.07,11.23-11.2.04-6.24-5.02-11.31-11.29-11.32Z"/><path class="cls-20" d="m28.81,267.31c3.29.71,5.28,2.96,5.2,5.79h-11.5c-.52-2.34,1.72-4.93,5.13-5.82-1.17-.3-2.07-.83-2.63-1.79-.55-.94-.7-1.95-.38-3.01.5-1.69,2.15-2.8,3.93-2.65,1.68.14,3.13,1.51,3.37,3.19.28,1.95-.81,3.48-3.12,4.29Z"/></g><path class="cls-19" d="m73.97,130.09l-11.65,28.15c-2.84-14.7-15.39-23.88-31.6-29.58,16.05,5.98,31.55,10.21,43.25,1.44Z"/><circle class="cls-18" cx="29.61" cy="128.65" r="26.37" transform="translate(-102.15 120.41) rotate(-73.46)"/><path class="cls-19" d="m29.26,153.22c-13.53,0-24.55-11-24.57-24.53-.02-13.55,10.98-24.59,24.53-24.61,13.57,0,24.59,11,24.61,24.53.02,13.55-10.98,24.59-24.53,24.61h-.04Z"/><g class="cls-6"><path class="cls-20" d="m12.41,141.23v-11.12c.08-.24.25-.38.48-.46.06-.02.11-.05.16-.08,2.62-1.25,5.24-2.5,7.86-3.75.13-.06.17-.14.16-.28,0-3.46,0-6.92,0-10.39,0-.27.12-.45.36-.56.08-.03.16-.07.23-.11,2.61-1.26,5.22-2.52,7.82-3.78h.26c.31.14.62.28.93.42,2.58,1.16,5.17,2.31,7.75,3.46.24.11.36.29.36.56,0,3.47,0,6.94,0,10.41,0,.13.04.2.16.26,2.4,1.24,4.8,2.49,7.21,3.71.47.24.65.51.65,1.05-.03,3.47-.01,6.95-.01,10.42,0,.3-.1.5-.36.66-2.64,1.6-5.28,3.2-7.92,4.8-.2.12-.4.13-.6,0-.06-.04-.12-.08-.19-.11-2.65-1.5-5.29-3.01-7.94-4.51-.11-.07-.2-.07-.31,0-2.53,1.54-5.07,3.08-7.61,4.61-.21.13-.41.13-.62,0-.05-.03-.1-.06-.16-.09-2.74-1.56-5.48-3.12-8.23-4.67-.21-.12-.37-.25-.43-.48Zm17.73-11.87c.07-.03.12-.05.16-.07,2.43-1.16,4.85-2.32,7.28-3.48.11-.05.14-.12.14-.23,0-3.15,0-6.3,0-9.45,0-.05,0-.1-.01-.16-.07.03-.13.05-.18.08-2.4,1.12-4.79,2.24-7.19,3.36-.15.07-.2.15-.2.31,0,3.13,0,6.26,0,9.4v.25Zm-16.66,1.76c0,.06,0,.09,0,.13,0,3.16,0,6.31,0,9.47,0,.12.05.17.14.22,2.4,1.36,4.81,2.73,7.21,4.09.05.03.1.05.17.09,0-.07,0-.12,0-.18,0-3.16,0-6.31,0-9.47,0-.13-.04-.19-.15-.25-.98-.54-1.95-1.08-2.92-1.62-.05-.03-.1-.05-.17-.08v.22c0,.64,0,1.28,0,1.92,0,.23-.07.42-.28.54-.36.2-.77-.05-.77-.49,0-.87,0-1.74,0-2.61,0-.13-.04-.2-.15-.26-.98-.54-1.95-1.08-2.92-1.62-.05-.03-.1-.05-.17-.09Zm16.67,0c0,.08-.01.13-.01.18,0,3.13,0,6.27,0,9.4,0,.13.05.19.16.25,2.39,1.35,4.78,2.71,7.16,4.07.06.03.11.06.19.1,0-.07.01-.13.01-.18,0-3.16,0-6.31,0-9.47,0-.13-.04-.19-.15-.25-.81-.44-1.61-.89-2.41-1.34-.22-.12-.43-.24-.68-.38v.23c0,.64,0,1.28,0,1.92,0,.18-.04.34-.17.46-.16.15-.35.19-.56.1-.22-.09-.32-.27-.32-.51,0-.87,0-1.74,0-2.61,0-.13-.04-.2-.16-.27-.9-.49-1.8-1-2.7-1.5-.12-.06-.23-.13-.37-.2Zm15.57.03c-.07.03-.11.05-.15.08-2.25,1.33-4.49,2.66-6.74,3.99-.1.06-.12.13-.12.23,0,3.16,0,6.33,0,9.49,0,.04,0,.09.01.15.06-.03.09-.05.13-.07,2.24-1.36,4.49-2.72,6.74-4.07.11-.07.14-.14.14-.26,0-3.06,0-6.12,0-9.18v-.36Zm-23.66,13.95c.06-.03.09-.05.12-.06,2.24-1.36,4.49-2.72,6.74-4.07.11-.07.14-.14.14-.26,0-3.11,0-6.23,0-9.34,0-.06,0-.12,0-.2-.07.03-.11.06-.16.08-2.22,1.32-4.44,2.63-6.66,3.95-.13.07-.17.16-.17.3,0,3.13,0,6.26,0,9.4v.21Zm7.01-15.77c0-.05,0-.08,0-.1,0-3.21,0-6.41,0-9.62,0-.12-.05-.16-.14-.2-.89-.44-1.77-.89-2.66-1.34-.05-.02-.1-.04-.16-.07v.22c0,.55,0,1.11,0,1.66,0,.27-.19.48-.45.52-.23.04-.48-.1-.56-.32-.04-.1-.05-.21-.05-.32,0-.71,0-1.41,0-2.12,0-.14-.05-.21-.17-.28-.76-.37-1.51-.76-2.27-1.14-.16-.08-.32-.16-.51-.26v.19c0,3.14,0,6.28,0,9.42,0,.13.05.19.16.25,1.98,1.02,3.95,2.04,5.93,3.06.28.14.56.29.86.44Zm16.08.91c-.95-.49-1.86-.96-2.77-1.44-.12-.06-.21-.06-.33,0-1.93,1.04-3.86,2.08-5.79,3.11-.42.22-.83.45-1.27.68.07.04.12.07.17.1.95.53,1.9,1.06,2.85,1.59.12.07.2.06.31,0,1.79-1.07,3.58-2.13,5.37-3.19.48-.28.95-.56,1.45-.86Zm-16.65,0c-.96-.5-1.9-.98-2.84-1.46-.06-.03-.17-.01-.23.02-2.31,1.24-4.62,2.48-6.93,3.72-.05.02-.09.05-.14.09.03.02.04.03.06.04,1,.56,2,1.11,3,1.67.1.06.17.03.25-.02,1.7-1.01,3.4-2.02,5.1-3.03.57-.34,1.14-.68,1.74-1.03Zm-4.09-2.1c-.06-.04-.1-.06-.14-.08-.85-.44-1.7-.87-2.54-1.32-.11-.06-.2-.06-.32,0-1.58.76-3.16,1.51-4.74,2.27-.85.41-1.7.81-2.58,1.23.08.05.14.09.2.12.9.5,1.81,1,2.71,1.51.18.1.31.09.48,0,1.86-1.01,3.73-2.01,5.59-3.01.44-.24.87-.47,1.33-.72Zm6.35,2.1c.05.04.08.06.11.08.97.54,1.93,1.08,2.91,1.61.07.04.19.02.26-.02,2.24-1.2,4.48-2.4,6.72-3.61.09-.05.18-.1.29-.17-.05-.03-.07-.05-.1-.06-.88-.45-1.75-.91-2.63-1.35-.06-.03-.16-.02-.23.01-1.03.49-2.05.98-3.07,1.47-1.41.68-2.83,1.35-4.27,2.04Zm6.2-15.12c-.08-.04-.13-.06-.19-.09-.98-.44-1.96-.87-2.93-1.32-.15-.07-.26-.06-.41.01-1.82.93-3.63,1.85-5.45,2.77-.4.2-.8.41-1.22.62.08.04.13.07.18.1.83.42,1.66.83,2.49,1.26.12.06.22.06.34,0,1.73-.82,3.47-1.62,5.21-2.44.65-.3,1.3-.61,1.97-.92Zm-4.57-2.04c-.07-.03-.12-.06-.16-.08-.82-.37-1.64-.73-2.46-1.11-.12-.05-.21-.05-.32,0-1.7.82-3.4,1.64-5.09,2.46-.51.25-1.03.5-1.56.75.07.04.11.07.16.09.82.41,1.64.82,2.46,1.24.13.07.23.07.37,0,1.72-.88,3.44-1.75,5.16-2.63.48-.25.96-.49,1.46-.75Z"/></g><circle class="cls-13" cx="130.33" cy="27.93" r="26.37" transform="translate(-1.47 8.04) rotate(-3.52)"/><path class="cls-20" d="m129.94,52.5c-13.55-.02-24.55-11.06-24.53-24.61.02-13.53,11.04-24.53,24.57-24.53,6.6.01,12.77,2.58,17.4,7.22,4.63,4.65,7.18,10.82,7.17,17.39-.02,13.53-11.04,24.53-24.57,24.53h-.04Z"/><path class="cls-9" d="m136.3,12.93c.17.14.36.27.51.42,1.5,1.49,3,3,4.5,4.49.23.23.34.48.34.8,0,7.82,0,15.64,0,23.46,0,.62-.2.82-.83.82-6.99,0-13.98,0-20.97,0-.65,0-.84-.19-.84-.84,0-9.44,0-18.88,0-28.33,0-.39.1-.69.49-.84h16.82Zm-16.06,28.76h20.16v-22.63h-.37c-1.2,0-2.4,0-3.6,0-.71,0-.89-.18-.89-.88,0-1.23,0-2.46,0-3.69v-.31h-15.29v27.51Zm16.53-23.87h2.69c-.9-.89-1.8-1.78-2.69-2.66v2.66Zm-8.62,14.89c2.53-1.52,3.88-3.79,4.22-6.69.06-.52.08-1.04.12-1.61.49.43.94.82,1.41,1.23.28-.32.53-.61.82-.93-.07-.06-.13-.09-.18-.14-.73-.64-1.45-1.27-2.18-1.91-.37-.32-.64-.32-1.01,0-.49.42-.97.85-1.45,1.27-.29.26-.58.51-.89.78.28.32.54.62.81.92.48-.42.93-.81,1.45-1.26-.02.44-.03.8-.06,1.16-.17,1.98-.85,3.74-2.33,5.12-1.24,1.16-2.73,1.82-4.36,2.2-.6.14-1.22.22-1.82.32v1.19c1.98-.15,3.8-.66,5.46-1.66Zm-5.77,5.96v1.19h12.82v-1.19h-12.82Zm9.48-17.48c-1.33,0-2.43-1.09-2.46-2.43-.02-1.33,1.12-2.47,2.46-2.46,1.34.01,2.44,1.11,2.44,2.44,0,1.33-1.11,2.44-2.44,2.44Zm0-1.23c.68,0,1.23-.56,1.22-1.23,0-.66-.56-1.21-1.22-1.21-.67,0-1.24.57-1.23,1.24.01.66.56,1.2,1.23,1.2Zm-6.13,8.5c.48.49.94.96,1.36,1.39.31-.3.6-.58.91-.88-.45-.44-.9-.9-1.39-1.38.46-.45.93-.9,1.36-1.32-.3-.31-.57-.59-.9-.93-.44.46-.89.93-1.37,1.43-.46-.47-.91-.93-1.34-1.37-.29.28-.57.56-.91.89.47.45.94.9,1.42,1.37-.47.47-.93.92-1.38,1.36.29.29.57.56.88.87.44-.46.89-.92,1.36-1.41Zm8.14.58c-.3.3-.59.58-.91.9.46.44.92.9,1.43,1.4-.47.46-.93.91-1.38,1.35.28.28.55.56.85.87.46-.46.92-.92,1.39-1.4.45.47.9.93,1.34,1.38.31-.31.59-.59.91-.92-.45-.44-.92-.89-1.41-1.37.47-.46.94-.91,1.39-1.34-.31-.31-.58-.59-.89-.9-.44.45-.89.91-1.38,1.41-.48-.49-.92-.96-1.35-1.4Zm-7.23-12.46v-1.18h-4.86v1.18h4.86Zm.03,19.62v1.19h3.04v-1.19h-3.04Zm7.32,1.19v-1.19h-3.04v1.19h3.04Zm-11.6,0h3.02v-1.19h-3.02v1.19Zm15.88,0v-1.19h-3.03v1.19h3.03Zm-16.48-18.37h3.01v-1.19h-3.01v1.19Z"/><path class="cls-10" d="m136.3,12.93h-16.82c-.39.15-.49.44-.49.84,0,9.44,0,18.88,0,28.33,0,.65.19.84.84.84,3.5,0,6.99,0,10.49,0s6.99,0,10.49,0c.63,0,.83-.2.83-.82,0-7.82,0-15.64,0-23.46,0-.33-.11-.57-.34-.8-1.5-1.49-3-3-4.5-4.49-.16-.16-.34-.28-.51-.42h0Zm-16.06,28.76V14.18h15.29v.31c0,1.23,0,2.46,0,3.69,0,.7.18.88.89.88.52,0,1.03,0,1.55,0,.68,0,1.37,0,2.05,0h.37v22.63h-20.16Zm16.53-23.87v-2.66c.89.88,1.78,1.77,2.69,2.66h-2.69Zm-10.14-2.41h-4.86v1.18h4.86v-1.18h0Zm5.22.9c-1.33,0-2.46,1.14-2.44,2.46.02,1.34,1.12,2.43,2.45,2.43,0,0,0,0,0,0,1.33,0,2.44-1.11,2.44-2.44,0-1.33-1.1-2.43-2.44-2.44,0,0-.01,0-.02,0h0Zm0,3.66c-.67,0-1.21-.54-1.23-1.2-.01-.66.56-1.24,1.23-1.24h0c.66,0,1.21.55,1.22,1.21,0,.68-.54,1.23-1.22,1.23h0Zm-7.06-2.12h-3.01v1.19h3.01v-1.19h0Zm7.06,4.58c-.16,0-.32.08-.51.24-.49.42-.97.85-1.45,1.27-.29.26-.58.51-.89.78.28.32.54.62.81.92.48-.42.93-.81,1.45-1.26-.02.44-.03.8-.06,1.16-.17,1.98-.85,3.74-2.33,5.12-1.24,1.16-2.73,1.82-4.36,2.2-.6.14-1.22.22-1.82.32v1.19c1.98-.15,3.8-.66,5.46-1.66,2.53-1.52,3.88-3.79,4.22-6.69.06-.52.08-1.04.12-1.61.49.43.94.82,1.41,1.23.28-.32.53-.61.82-.93-.07-.06-.13-.09-.18-.14-.73-.64-1.45-1.27-2.18-1.91-.18-.16-.34-.24-.5-.24h0Zm-4.79,2.91c-.44.46-.89.93-1.37,1.43-.46-.47-.91-.93-1.34-1.37-.29.28-.57.56-.91.89.47.45.94.9,1.42,1.37-.47.47-.93.92-1.38,1.36.29.29.57.56.88.87.44-.46.89-.92,1.36-1.41.48.49.94.96,1.36,1.39.31-.3.6-.58.91-.88-.45-.44-.9-.9-1.39-1.38.46-.45.93-.9,1.36-1.32-.3-.31-.57-.59-.9-.93h0Zm9.53,3.71c-.44.45-.89.91-1.38,1.41-.48-.49-.92-.96-1.35-1.4-.3.3-.59.58-.91.9.46.44.92.9,1.43,1.4-.47.46-.93.91-1.38,1.35.28.28.55.56.85.87.46-.46.92-.92,1.39-1.4.45.47.9.93,1.35,1.38.31-.31.59-.59.91-.92-.45-.44-.92-.89-1.41-1.37.47-.46.94-.91,1.39-1.34-.31-.31-.58-.59-.89-.9h0Zm-11.18,7.17h-3.02v1.19h3.02v-1.19h0Zm8.58,0h-3.04v1.19h3.04v-1.19h0Zm-4.29,0h-3.04v1.19h3.04v-1.19h0Zm8.57,0h-3.03v1.19h3.03v-1.19h0Zm-3.06,2.46h-12.82v1.19h12.82v-1.19h0Z"/><polygon class="cls-19" points="111.69 168.25 116.24 157.27 118.92 165.25 111.69 168.25"/><polygon class="cls-19" points="289.68 168.25 285.12 157.27 282.45 165.25 289.68 168.25"/><polygon class="cls-19" points="109.97 223.05 114.52 234.03 117.2 226.05 109.97 223.05"/><polygon class="cls-19" points="291.68 223.05 287.12 234.03 284.45 226.05 291.68 223.05"/><polygon class="cls-19" points="227.87 107.96 238.85 112.51 230.87 115.19 227.87 107.96"/><polygon class="cls-19" points="227.22 288.32 238.2 283.77 230.22 281.09 227.22 288.32"/><polygon class="cls-19" points="172.42 108.61 161.44 113.16 169.42 115.84 172.42 108.61"/><polygon class="cls-19" points="172.79 287.95 161.82 283.4 169.8 280.72 172.79 287.95"/></g><g id="TEXTS"><text class="cls-27" transform="translate(228.32 85.95) rotate(22.47)"><tspan x="0" y="0">SALES</tspan><tspan class="cls-34" x="30.74" y="0">	</tspan></text><text class="cls-27" transform="translate(129.12 300.44) rotate(22.47)"><tspan x="0" y="0">PU</tspan><tspan class="cls-24" x="14.15" y="0">R</tspan><tspan x="20.64" y="0">CHASE</tspan></text><text class="cls-21" transform="translate(87.06 224.02) rotate(69.21)"><tspan x="0" y="0">HU</tspan><tspan class="cls-2" x="14.29" y="0">M</tspan><tspan x="23.02" y="0">AN </tspan><tspan x="-4.44" y="9.9">RESOURSE</tspan></text><text class="cls-21" transform="translate(297.92 134.31) rotate(69.01)"><tspan x="0" y="0">FINANCE</tspan></text><text class="cls-27" transform="translate(83.69 180.34) rotate(-68.1)"><tspan x="0" y="0">INVEN</tspan><tspan class="cls-25" x="31.26" y="0">T</tspan><tspan x="36.9" y="0">O</tspan><tspan class="cls-26" x="45.17" y="0">R</tspan><tspan x="51.49" y="0">Y</tspan></text><text class="cls-21" transform="translate(134.54 101.13) rotate(-23.1)"><tspan x="0" y="0">PLANNING</tspan></text><text class="cls-27" transform="translate(310.6 253.1) rotate(-67.67)"><tspan x="0" y="0">CRM</tspan></text><text class="cls-21" transform="translate(209.76 326.98) rotate(-22.85)"><tspan class="cls-29" x="0" y="0">M</tspan><tspan x="8.73" y="0">ANU</tspan><tspan class="cls-1" x="29.82" y="0">F</tspan><tspan class="cls-32" x="34.32" y="0">A</tspan><tspan class="cls-31" x="40.89" y="0">C</tspan><tspan x="47.57" y="0">TURING</tspan></text><text class="cls-30" transform="translate(147.15 228.54)"><tspan x="0" y="0">ENTERPRISE RESOURCE PLANNING</tspan></text></g></g></svg>