<?xml version="1.0" encoding="UTF-8"?><svg xmlns="http://www.w3.org/2000/svg" xmlns:xlink="http://www.w3.org/1999/xlink" viewBox="0 0 561.33 410.82"><defs><style>.cls-1{fill:none;stroke:#232230;stroke-linecap:round;stroke-linejoin:round;}.cls-2,.cls-3,.cls-4,.cls-5,.cls-6,.cls-7,.cls-8,.cls-9,.cls-10,.cls-11,.cls-12,.cls-13,.cls-14,.cls-15,.cls-16,.cls-17,.cls-18,.cls-19,.cls-20,.cls-21,.cls-22,.cls-23,.cls-24,.cls-25,.cls-26,.cls-27,.cls-28,.cls-29,.cls-30,.cls-31,.cls-32,.cls-33,.cls-34,.cls-35,.cls-36,.cls-37,.cls-38,.cls-39,.cls-40,.cls-41,.cls-42,.cls-43,.cls-44,.cls-45,.cls-46,.cls-47,.cls-48,.cls-49,.cls-50,.cls-51,.cls-52,.cls-53,.cls-54,.cls-55,.cls-56,.cls-57,.cls-58,.cls-59,.cls-60,.cls-61,.cls-62,.cls-63{stroke-width:0px;}.cls-2,.cls-3,.cls-5,.cls-64,.cls-34,.cls-48{fill:#37688c;}.cls-2,.cls-5{mix-blend-mode:screen;}.cls-2,.cls-34,.cls-55,.cls-56,.cls-57,.cls-58,.cls-59,.cls-60,.cls-61,.cls-62,.cls-63{opacity:.5;}.cls-3,.cls-4,.cls-34,.cls-55,.cls-56,.cls-57,.cls-58,.cls-59,.cls-60,.cls-61,.cls-62,.cls-63{mix-blend-mode:multiply;}.cls-4{fill:url(#linear-gradient-10);}.cls-6{fill:url(#linear-gradient);}.cls-7{fill:url(#linear-gradient-33);}.cls-8{fill:url(#linear-gradient-29);}.cls-9{fill:url(#linear-gradient-32);}.cls-10{fill:url(#linear-gradient-30);}.cls-11{fill:url(#linear-gradient-31);}.cls-12{fill:url(#linear-gradient-36);}.cls-13{fill:url(#linear-gradient-34);}.cls-14{fill:url(#linear-gradient-35);}.cls-15{fill:url(#linear-gradient-28);}.cls-16{fill:url(#linear-gradient-25);}.cls-17{fill:url(#linear-gradient-11);}.cls-18{fill:url(#linear-gradient-12);}.cls-19{fill:url(#linear-gradient-13);}.cls-20{fill:url(#linear-gradient-19);}.cls-21{fill:url(#linear-gradient-23);}.cls-22{fill:url(#linear-gradient-14);}.cls-23{fill:url(#linear-gradient-22);}.cls-24{fill:url(#linear-gradient-27);}.cls-25{fill:url(#linear-gradient-24);}.cls-26{fill:url(#linear-gradient-26);}.cls-27{fill:url(#linear-gradient-45);}.cls-28{fill:url(#linear-gradient-44);}.cls-29{fill:url(#linear-gradient-42);}.cls-30{fill:url(#linear-gradient-43);}.cls-31{fill:url(#linear-gradient-40);}.cls-32{fill:url(#linear-gradient-41);}.cls-64{font-family:Montserrat-ExtraBold, Montserrat;font-size:88.09px;font-weight:700;}.cls-33{fill:#d76b66;opacity:.32;}.cls-35{fill:url(#linear-gradient-4);}.cls-36{fill:url(#linear-gradient-2);}.cls-37{fill:url(#linear-gradient-3);}.cls-38{fill:url(#linear-gradient-8);}.cls-39{fill:url(#linear-gradient-9);}.cls-40{fill:url(#linear-gradient-7);}.cls-41{fill:url(#linear-gradient-5);}.cls-42{fill:url(#linear-gradient-6);}.cls-65{isolation:isolate;}.cls-44{fill:#f3b2ad;}.cls-45{fill:#283770;}.cls-46{fill:#53a2ce;}.cls-47{fill:#1a246e;}.cls-49{fill:#222842;}.cls-50{fill:#8fabd8;}.cls-51{fill:#ff8189;}.cls-52{fill:#fff;}.cls-53{fill:#ef9795;}.cls-54{fill:#ffa49a;}.cls-55{fill:url(#linear-gradient-21);}.cls-56{fill:url(#linear-gradient-15);}.cls-57{fill:url(#linear-gradient-17);}.cls-58{fill:url(#linear-gradient-16);}.cls-59{fill:url(#linear-gradient-18);}.cls-60{fill:url(#linear-gradient-20);}.cls-61{fill:url(#linear-gradient-38);}.cls-62{fill:url(#linear-gradient-37);}.cls-63{fill:url(#linear-gradient-39);}</style><linearGradient id="linear-gradient" x1="89.13" y1="400.88" x2="89.13" y2="50.17" gradientTransform="translate(66.43 -46.33) rotate(45)" gradientUnits="userSpaceOnUse"><stop offset="0" stop-color="#dfedf2"/><stop offset="1" stop-color="#e8f8ff"/></linearGradient><linearGradient id="linear-gradient-2" x1="450.36" y1="400.88" x2="450.36" y2="50.17" gradientTransform="matrix(1,0,0,1,0,0)" xlink:href="#linear-gradient"/><linearGradient id="linear-gradient-3" x1="272.67" y1="400.88" x2="272.67" y2="50.17" gradientTransform="matrix(1,0,0,1,0,0)" xlink:href="#linear-gradient"/><linearGradient id="linear-gradient-4" x1="545.13" y1="400.88" x2="545.13" y2="50.17" gradientTransform="matrix(1,0,0,1,0,0)" xlink:href="#linear-gradient"/><linearGradient id="linear-gradient-5" x1="53.07" y1="400.88" x2="53.07" y2="50.17" gradientTransform="matrix(1,0,0,1,0,0)" xlink:href="#linear-gradient"/><linearGradient id="linear-gradient-6" x1="471.52" y1="400.88" x2="471.52" y2="50.17" gradientTransform="matrix(1,0,0,1,0,0)" xlink:href="#linear-gradient"/><linearGradient id="linear-gradient-7" x1="357.97" y1="77.47" x2="414.64" y2="153.47" gradientUnits="userSpaceOnUse"><stop offset="0" stop-color="#71d2f9"/><stop offset="1" stop-color="#51b9f8"/></linearGradient><linearGradient id="linear-gradient-8" x1="272.67" y1="-16310.34" x2="272.67" y2="-16058.94" gradientTransform="translate(0 -15951.58) scale(1 -1)" gradientUnits="userSpaceOnUse"><stop offset="0" stop-color="#cbe1f2"/><stop offset="1" stop-color="#aed2ed"/></linearGradient><linearGradient id="linear-gradient-9" x1="272.67" y1="-16356.79" x2="272.67" y2="-16301.8" xlink:href="#linear-gradient-8"/><linearGradient id="linear-gradient-10" x1="246.83" y1="-16312.65" x2="298.51" y2="-16312.65" xlink:href="#linear-gradient-8"/><linearGradient id="linear-gradient-11" x1="272.67" y1="-16363.87" x2="272.67" y2="-16339.15" xlink:href="#linear-gradient-8"/><linearGradient id="linear-gradient-12" x1="88.63" y1="132.54" x2="183.6" y2="132.54" gradientTransform="matrix(1,0,0,1,0,0)" xlink:href="#linear-gradient-8"/><linearGradient id="linear-gradient-13" x1="271.19" y1="312.96" x2="339.56" y2="312.96" gradientTransform="translate(153.95 -97.25) rotate(24.04)" xlink:href="#linear-gradient"/><linearGradient id="linear-gradient-14" x1="276.69" y1="312.96" x2="334.06" y2="312.96" gradientTransform="translate(154.58 -97.48) rotate(24.12)" xlink:href="#linear-gradient"/><linearGradient id="linear-gradient-15" x1="481.12" y1="341.83" x2="478.46" y2="302.22" gradientUnits="userSpaceOnUse"><stop offset="0" stop-color="#283770"/><stop offset="1" stop-color="#141a5a"/></linearGradient><linearGradient id="linear-gradient-16" x1="458.17" y1="244.68" x2="458.17" y2="265.43" gradientUnits="userSpaceOnUse"><stop offset="0" stop-color="#49a5f7"/><stop offset="1" stop-color="#1c6ceb"/></linearGradient><linearGradient id="linear-gradient-17" x1="484.59" y1="246.54" x2="484.59" y2="267.15" xlink:href="#linear-gradient-16"/><linearGradient id="linear-gradient-18" x1="356.56" y1="-16275.47" x2="357.09" y2="-16259.1" gradientTransform="translate(737.52 -15951.58) rotate(-180)" xlink:href="#linear-gradient-15"/><linearGradient id="linear-gradient-19" x1="400.43" y1="227.21" x2="400.43" y2="288.68" xlink:href="#linear-gradient-16"/><linearGradient id="linear-gradient-20" x1="392.79" y1="253.63" x2="399.41" y2="253.63" xlink:href="#linear-gradient-16"/><linearGradient id="linear-gradient-21" x1="361.78" y1="250.93" x2="368.81" y2="264.76" xlink:href="#linear-gradient-16"/><linearGradient id="linear-gradient-22" x1="412.64" y1="193.92" x2="452.27" y2="193.92" xlink:href="#linear-gradient-7"/><linearGradient id="linear-gradient-23" x1="67.46" y1="216.54" x2="67.46" y2="237.6" xlink:href="#linear-gradient-7"/><linearGradient id="linear-gradient-24" x1="246.29" y1="80.47" x2="288.16" y2="138.47" gradientTransform="matrix(1,0,0,1,0,0)" xlink:href="#linear-gradient-8"/><linearGradient id="linear-gradient-25" x1="262.26" y1="68.93" x2="304.13" y2="126.93" gradientTransform="matrix(1,0,0,1,0,0)" xlink:href="#linear-gradient-8"/><linearGradient id="linear-gradient-26" x1="260.78" y1="70" x2="302.66" y2="128" gradientTransform="matrix(1,0,0,1,0,0)" xlink:href="#linear-gradient-8"/><linearGradient id="linear-gradient-27" x1="255.3" y1="73.96" x2="297.18" y2="131.96" gradientTransform="matrix(1,0,0,1,0,0)" xlink:href="#linear-gradient-8"/><linearGradient id="linear-gradient-28" x1="237.33" y1="86.93" x2="279.2" y2="144.93" gradientTransform="matrix(1,0,0,1,0,0)" xlink:href="#linear-gradient-8"/><linearGradient id="linear-gradient-29" x1="253.3" y1="75.4" x2="295.18" y2="133.4" gradientTransform="matrix(1,0,0,1,0,0)" xlink:href="#linear-gradient-8"/><linearGradient id="linear-gradient-30" x1="251.82" y1="76.47" x2="293.7" y2="134.47" gradientTransform="matrix(1,0,0,1,0,0)" xlink:href="#linear-gradient-8"/><linearGradient id="linear-gradient-31" x1="246.35" y1="80.42" x2="288.22" y2="138.42" gradientTransform="matrix(1,0,0,1,0,0)" xlink:href="#linear-gradient-8"/><linearGradient id="linear-gradient-32" x1="228.37" y1="93.4" x2="270.25" y2="151.4" gradientTransform="matrix(1,0,0,1,0,0)" xlink:href="#linear-gradient-8"/><linearGradient id="linear-gradient-33" x1="244.35" y1="81.87" x2="286.22" y2="139.87" gradientTransform="matrix(1,0,0,1,0,0)" xlink:href="#linear-gradient-8"/><linearGradient id="linear-gradient-34" x1="242.87" y1="82.93" x2="284.74" y2="140.93" gradientTransform="matrix(1,0,0,1,0,0)" xlink:href="#linear-gradient-8"/><linearGradient id="linear-gradient-35" x1="237.39" y1="86.89" x2="279.27" y2="144.89" gradientTransform="matrix(1,0,0,1,0,0)" xlink:href="#linear-gradient-8"/><linearGradient id="linear-gradient-36" x1="261.66" y1="69.37" x2="303.53" y2="127.37" gradientTransform="matrix(1,0,0,1,0,0)" xlink:href="#linear-gradient-8"/><linearGradient id="linear-gradient-37" x1="111.66" y1="312.97" x2="117.09" y2="312.97" xlink:href="#linear-gradient-15"/><linearGradient id="linear-gradient-38" x1="101.58" y1="248.44" x2="102.75" y2="256.94" xlink:href="#linear-gradient-16"/><linearGradient id="linear-gradient-39" x1="124.69" y1="249.36" x2="130.87" y2="249.36" xlink:href="#linear-gradient-16"/><linearGradient id="linear-gradient-40" x1="322.44" y1="163.44" x2="330.44" y2="163.44" gradientTransform="matrix(1,0,0,1,0,0)" xlink:href="#linear-gradient"/><linearGradient id="linear-gradient-41" x1="335.15" y1="159.19" x2="343.15" y2="159.19" gradientTransform="matrix(1,0,0,1,0,0)" xlink:href="#linear-gradient"/><linearGradient id="linear-gradient-42" x1="347.87" y1="167.45" x2="355.87" y2="167.45" gradientTransform="matrix(1,0,0,1,0,0)" xlink:href="#linear-gradient"/><linearGradient id="linear-gradient-43" x1="360.58" y1="160.35" x2="368.58" y2="160.35" gradientTransform="matrix(1,0,0,1,0,0)" xlink:href="#linear-gradient"/><linearGradient id="linear-gradient-44" x1="373.3" y1="161.69" x2="381.3" y2="161.69" gradientTransform="matrix(1,0,0,1,0,0)" xlink:href="#linear-gradient"/><linearGradient id="linear-gradient-45" x1="386.01" y1="153.93" x2="394.01" y2="153.93" gradientTransform="matrix(1,0,0,1,0,0)" xlink:href="#linear-gradient"/></defs><g class="cls-65"><g id="OBJECTS"><path class="cls-46" d="m260.33,36.56C119.74,36.56,5.76,150.54,5.76,291.13c0,41.35,9.86,80.41,27.36,114.93h454.42c17.5-34.52,27.36-73.58,27.36-114.93,0-140.59-113.98-254.57-254.57-254.57Z"/><circle class="cls-6" cx="89.13" cy="57.02" r="19.11" transform="translate(-14.21 79.73) rotate(-45)"/><circle class="cls-36" cx="450.36" cy="82.39" r="4"/><circle class="cls-37" cx="272.67" cy="15.21" r="7.89"/><circle class="cls-52" cx="390.71" cy="99.67" r="4"/><circle class="cls-35" cx="545.13" cy="339.92" r="11.2"/><circle class="cls-52" cx="502" cy="210.54" r="18.33" transform="translate(40.86 499.83) rotate(-54.85)"/><path class="cls-52" d="m38.77,381.01c0,8.24-6.68,14.93-14.93,14.93s-14.93-6.68-14.93-14.93,6.68-14.93,14.93-14.93,14.93,6.68,14.93,14.93Z"/><circle class="cls-41" cx="53.07" cy="147.71" r="24.33"/><circle class="cls-52" cx="202.82" cy="38.3" r="39.02" transform="translate(-3.39 47.35) rotate(-13.21)"/><path class="cls-52" d="m46.97,342.05h-3.71v-3.71c0-.54-.44-.98-.98-.98s-.98.44-.98.98v3.71h-3.71c-.54,0-.98.44-.98.98s.44.98.98.98h3.71v3.71c0,.54.44.98.98.98s.98-.44.98-.98v-3.71h3.71c.54,0,.98-.44.98-.98s-.44-.98-.98-.98Z"/><path class="cls-42" d="m478.65,103.67h-5.64v-5.64c0-.82-.67-1.49-1.49-1.49s-1.49.67-1.49,1.49v5.64h-5.64c-.82,0-1.49.67-1.49,1.49s.67,1.49,1.49,1.49h5.64v5.64c0,.82.67,1.49,1.49,1.49s1.49-.67,1.49-1.49v-5.64h5.64c.82,0,1.49-.67,1.49-1.49s-.67-1.49-1.49-1.49Z"/><path class="cls-52" d="m454.01,371.78h-3.71v-3.71c0-.54-.44-.98-.98-.98s-.98.44-.98.98v3.71h-3.71c-.54,0-.98.44-.98.98s.44.98.98.98h3.71v3.71c0,.54.44.98.98.98s.98-.44.98-.98v-3.71h3.71c.54,0,.98-.44.98-.98s-.44-.98-.98-.98Z"/><path class="cls-52" d="m124.49,313.51v-10.03c0-.98-.8-1.78-1.78-1.78h-2.58c-.76,0-1.42-.51-1.59-1.25-.89-3.9-2.42-7.55-4.47-10.84-.41-.66-.33-1.51.22-2.05l1.82-1.82c.69-.69.69-1.82,0-2.51l-7.09-7.09c-.69-.69-1.82-.69-2.51,0l-1.81,1.81c-.55.55-1.4.63-2.05.22-3.29-2.05-6.95-3.58-10.85-4.47-.74-.17-1.25-.84-1.25-1.59v-2.57c0-.98-.8-1.78-1.78-1.78h-10.03c-.98,0-1.78.8-1.78,1.78v2.57c0,.76-.51,1.42-1.25,1.59-3.9.89-7.55,2.42-10.85,4.47-.66.41-1.51.33-2.05-.22l-1.81-1.81c-.69-.69-1.82-.69-2.51,0l-7.09,7.09c-.69.69-.69,1.82,0,2.51l1.81,1.81c.55.55.63,1.4.22,2.05-2.05,3.29-3.58,6.95-4.47,10.85-.17.74-.84,1.25-1.59,1.25h-2.58c-.98,0-1.78.8-1.78,1.78v10.03c0,.98.8,1.78,1.78,1.78h2.58c.76,0,1.42.51,1.59,1.25.9,3.9,2.42,7.55,4.47,10.84.41.66.33,1.51-.22,2.05l-1.82,1.82c-.69.69-.69,1.82,0,2.51l7.09,7.09c.69.69,1.82.69,2.51,0l1.82-1.82c.55-.55,1.4-.63,2.05-.22,3.29,2.05,6.95,3.57,10.84,4.47.74.17,1.25.84,1.25,1.59v2.59c0,.98.8,1.78,1.78,1.78h10.03c.98,0,1.78-.8,1.78-1.78v-2.59c0-.76.51-1.42,1.25-1.59,3.89-.89,7.55-2.41,10.84-4.47.66-.41,1.51-.33,2.05.22l1.82,1.82c.69.69,1.82.69,2.51,0l7.09-7.09c.69-.69.69-1.82,0-2.51l-1.82-1.82c-.55-.55-.63-1.4-.22-2.05,2.05-3.29,3.57-6.95,4.47-10.84.17-.74.84-1.25,1.59-1.25h2.58c.98,0,1.78-.8,1.78-1.78Zm-40.75,18.5c-12.98,0-23.5-10.53-23.5-23.52s10.51-23.5,23.5-23.5,23.5,10.53,23.5,23.5-10.51,23.52-23.5,23.52Z"/><path class="cls-40" d="m441.92,140.42v-10.03c0-.98-.8-1.78-1.78-1.78h-2.58c-.76,0-1.42-.51-1.59-1.25-.89-3.9-2.42-7.55-4.47-10.84-.41-.66-.33-1.51.22-2.05l1.82-1.82c.69-.69.69-1.82,0-2.51l-7.09-7.09c-.69-.69-1.82-.69-2.51,0l-1.81,1.81c-.55.55-1.4.63-2.05.22-3.29-2.05-6.95-3.58-10.85-4.47-.74-.17-1.25-.84-1.25-1.59v-2.57c0-.98-.8-1.78-1.78-1.78h-10.03c-.98,0-1.78.8-1.78,1.78v2.57c0,.76-.51,1.42-1.25,1.59-3.9.89-7.55,2.42-10.85,4.47-.66.41-1.51.33-2.05-.22l-1.81-1.81c-.69-.69-1.82-.69-2.51,0l-7.09,7.09c-.69.69-.69,1.82,0,2.51l1.81,1.81c.55.55.63,1.4.22,2.05-2.05,3.29-3.58,6.95-4.47,10.85-.17.74-.84,1.25-1.59,1.25h-2.58c-.98,0-1.78.8-1.78,1.78v10.03c0,.98.8,1.78,1.78,1.78h2.58c.76,0,1.42.51,1.59,1.25.9,3.9,2.42,7.55,4.47,10.84.41.66.33,1.51-.22,2.05l-1.82,1.82c-.69.69-.69,1.82,0,2.51l7.09,7.09c.69.69,1.82.69,2.51,0l1.82-1.82c.55-.55,1.4-.63,2.05-.22,3.29,2.05,6.95,3.57,10.84,4.47.74.17,1.25.84,1.25,1.59v2.59c0,.98.8,1.78,1.78,1.78h10.03c.98,0,1.78-.8,1.78-1.78v-2.59c0-.76.51-1.42,1.25-1.59,3.89-.89,7.55-2.41,10.84-4.47.66-.41,1.5-.33,2.05.22l1.82,1.82c.69.69,1.82.69,2.51,0l7.09-7.09c.69-.69.69-1.82,0-2.51l-1.82-1.82c-.55-.55-.63-1.4-.22-2.05,2.05-3.29,3.57-6.95,4.47-10.84.17-.74.84-1.25,1.59-1.25h2.58c.98,0,1.78-.8,1.78-1.78Zm-40.75,18.5c-12.98,0-23.5-10.53-23.5-23.52s10.51-23.5,23.5-23.5,23.5,10.53,23.5,23.5-10.51,23.52-23.5,23.52Z"/><path class="cls-52" d="m52.28,279.77v-5.7c0-.56-.45-1.01-1.01-1.01h-1.47c-.43,0-.81-.29-.91-.71-.51-2.21-1.37-4.29-2.54-6.16-.23-.37-.19-.86.12-1.17l1.03-1.03c.39-.39.39-1.03,0-1.43l-4.03-4.03c-.39-.39-1.03-.39-1.43,0l-1.03,1.03c-.31.31-.79.36-1.17.12-1.87-1.17-3.95-2.03-6.17-2.54-.42-.1-.71-.48-.71-.91v-1.46c0-.56-.45-1.01-1.01-1.01h-5.7c-.56,0-1.01.45-1.01,1.01v1.46c0,.43-.29.81-.71.91-2.22.51-4.29,1.37-6.17,2.54-.37.23-.86.19-1.17-.12l-1.03-1.03c-.39-.39-1.03-.39-1.43,0l-4.03,4.03c-.39.39-.39,1.03,0,1.43l1.03,1.03c.31.31.36.79.12,1.17-1.17,1.87-2.03,3.95-2.54,6.17-.1.42-.48.71-.91.71h-1.47c-.56,0-1.01.45-1.01,1.01v5.7c0,.56.45,1.01,1.01,1.01h1.47c.43,0,.81.29.91.71.51,2.21,1.37,4.29,2.54,6.16.23.37.19.86-.12,1.17l-1.03,1.03c-.39.39-.39,1.03,0,1.43l4.03,4.03c.39.39,1.03.39,1.43,0l1.03-1.03c.31-.31.79-.36,1.17-.12,1.87,1.17,3.95,2.03,6.16,2.54.42.1.71.48.71.91v1.47c0,.56.45,1.01,1.01,1.01h5.7c.56,0,1.01-.45,1.01-1.01v-1.47c0-.43.29-.81.71-.91,2.21-.51,4.29-1.37,6.16-2.54.37-.23.86-.19,1.17.12l1.03,1.03c.39.39,1.03.39,1.43,0l4.03-4.03c.39-.39.39-1.03,0-1.43l-1.03-1.03c-.31-.31-.36-.79-.12-1.17,1.17-1.87,2.03-3.95,2.54-6.16.1-.42.48-.71.91-.71h1.47c.56,0,1.01-.45,1.01-1.01Zm-23.17,9c-6.54,0-11.84-5.31-11.84-11.85s5.3-11.84,11.84-11.84,11.84,5.31,11.84,11.84-5.3,11.85-11.84,11.85Z"/><rect class="cls-38" x="101.24" y="120.04" width="342.86" height="235.81" rx="20.74" ry="20.74"/><path class="cls-52" d="m435.69,141.68v174.95c0,3.21-2.6,5.81-5.81,5.81H115.47c-3.21,0-5.81-2.6-5.81-5.81v-174.95c0-7.68,6.22-13.9,13.9-13.9h298.23c7.68,0,13.9,6.22,13.9,13.9Z"/><polygon class="cls-39" points="305.38 406.16 239.96 406.16 246.83 366.29 248.63 355.85 296.71 355.85 298.51 366.29 305.38 406.16"/><polygon class="cls-4" points="298.51 366.29 246.83 366.29 248.63 355.85 296.71 355.85 298.51 366.29"/><rect class="cls-17" x="218.28" y="397.59" width="108.77" height="8.57"/><rect class="cls-50" x="171.21" y="264.86" width="202.91" height="6.05"/><rect class="cls-52" x="89.13" y="101.22" width="93.97" height="62.65" rx="5.65" ry="5.65"/><path class="cls-18" d="m177.45,100.72h-82.67c-3.39,0-6.15,2.76-6.15,6.15v51.34c0,3.39,2.76,6.15,6.15,6.15h82.67c3.39,0,6.15-2.76,6.15-6.15v-51.34c0-3.39-2.76-6.15-6.15-6.15Zm5.15,6.15v9.51h-14.66v-14.66h9.51c2.84,0,5.15,2.31,5.15,5.15Zm-46.98,26.17v14.66h-14.66v-14.66h14.66Zm-14.66-1v-14.66h14.66v14.66h-14.66Zm15.66,1h14.66v14.66h-14.66v-14.66Zm0-1v-14.66h14.66v14.66h-14.66Zm15.66-14.66h14.66v14.66h-14.66v-14.66Zm0-1v-14.66h14.66v14.66h-14.66Zm-1,0h-14.66v-14.66h14.66v14.66Zm-15.66,0h-14.66v-14.66h14.66v14.66Zm-15.66,0h-14.66v-14.66h14.66v14.66Zm0,1v14.66h-14.66v-14.66h14.66Zm-15.66,14.66h-14.66v-14.66h14.66v14.66Zm0,1v14.66h-14.66v-14.66h14.66Zm1,0h14.66v14.66h-14.66v-14.66Zm14.66,15.66v14.66h-14.66v-14.66h14.66Zm1,0h14.66v14.66h-14.66v-14.66Zm15.66,0h14.66v14.66h-14.66v-14.66Zm15.66,0h14.66v14.66h-14.66v-14.66Zm0-1v-14.66h14.66v14.66h-14.66Zm15.66-14.66h14.66v14.66h-14.66v-14.66Zm0-1v-14.66h14.66v14.66h-14.66Zm-73.16-30.32h9.51v14.66h-14.66v-9.51c0-2.84,2.31-5.15,5.15-5.15Zm-5.15,56.5v-9.51h14.66v14.66h-9.51c-2.84,0-5.15-2.31-5.15-5.15Zm87.82,5.15h-9.51v-14.66h14.66v9.51c0,2.84-2.31,5.15-5.15,5.15Z"/><path class="cls-48" d="m201.39,88.43l-11.36,2.61c-.6.14-.82.87-.41,1.32l1.68,1.81-41.57,38.84-17.28-16.18c-.75-.7-1.93-.68-2.65.04l-37.63,37.63c-.32.32-.32.84,0,1.15l3.87,3.87c.32.32.84.32,1.15,0l34.08-34.08,17.16,16.06c.73.69,1.87.69,2.61,0l45.11-42.15,1.42,1.53c.42.45,1.17.28,1.35-.31l3.42-11.14c.18-.59-.34-1.15-.94-1.01Z"/><circle class="cls-19" cx="305.38" cy="312.96" r="34.18" transform="translate(-100.99 151.52) rotate(-24.04)"/><circle class="cls-22" cx="305.38" cy="312.96" r="28.68" transform="translate(-101.24 152.14) rotate(-24.12)"/><path class="cls-48" d="m308.63,293.87c0,1.8-1.46,3.25-3.25,3.25s-3.25-1.46-3.25-3.25,1.46-3.25,3.25-3.25,3.25,1.46,3.25,3.25Z"/><path class="cls-48" d="m311.06,299.99c-.35-.36-.87-.69-1.47-.98-2.64-1.28-5.77-1.28-8.42,0-.6.29-1.13.62-1.47.98-1.38,1.45-1.52,4.84-1.52,4.84h14.4s-.14-3.39-1.52-4.84Z"/><path class="cls-48" d="m291.56,318.14c0,1.48-1.2,2.68-2.68,2.68s-2.68-1.2-2.68-2.68,1.2-2.68,2.68-2.68,2.68,1.2,2.68,2.68Z"/><path class="cls-48" d="m293.56,323.18c-.28-.3-.72-.57-1.21-.81-2.18-1.05-4.75-1.05-6.93,0-.49.24-.93.51-1.21.81-1.14,1.2-1.25,3.99-1.25,3.99h11.87s-.11-2.79-1.25-3.99Z"/><path class="cls-48" d="m308.06,318.14c0,1.48-1.2,2.68-2.68,2.68s-2.68-1.2-2.68-2.68,1.2-2.68,2.68-2.68,2.68,1.2,2.68,2.68Z"/><path class="cls-48" d="m310.06,323.18c-.28-.3-.72-.57-1.21-.81-2.18-1.05-4.75-1.05-6.93,0-.49.24-.93.51-1.21.81-1.14,1.2-1.25,3.99-1.25,3.99h11.87s-.11-2.79-1.25-3.99Z"/><path class="cls-48" d="m324.56,318.14c0,1.48-1.2,2.68-2.68,2.68s-2.68-1.2-2.68-2.68,1.2-2.68,2.68-2.68,2.68,1.2,2.68,2.68Z"/><path class="cls-48" d="m326.56,323.18c-.28-.3-.72-.57-1.21-.81-2.18-1.05-4.75-1.05-6.93,0-.49.24-.93.51-1.21.81-1.14,1.2-1.25,3.99-1.25,3.99h11.87s-.11-2.79-1.25-3.99Z"/><path class="cls-48" d="m319.41,309.04h-13.53v-2.67c0-.28-.22-.5-.5-.5s-.5.22-.5.5v2.67h-13.53c-1.64,0-2.97,1.33-2.97,2.97v1.78c0,.28.22.5.5.5s.5-.22.5-.5v-1.78c0-1.08.88-1.97,1.97-1.97h13.53v3.75c0,.28.22.5.5.5s.5-.22.5-.5v-3.75h13.53c1.08,0,1.97.88,1.97,1.97v1.78c0,.28.22.5.5.5s.5-.22.5-.5v-1.78c0-1.64-1.33-2.97-2.97-2.97Z"/><path class="cls-54" d="m519.62,393.99l-3.37-7.03,8-2.75,1.88,5.91s.75,2.03-.63,3.24c-1.37,1.22-5.87.62-5.87.62Z"/><path class="cls-45" d="m519.62,393.99s5.78-.11,6.5-3.87c0,0,2.72,1.45,3.97,4.41,0,0-1.66,3.26-2.43,5.93-.77,2.68-4.59,5.2-8.33,5.25h-5.58s-2.93-.62,2.97-4.38c2.6-1.66,2.9-7.35,2.9-7.35Z"/><path class="cls-43" d="m474.43,230.33l19.38,23.23s13.31-8.12-8.43-29.52c-1.39-1.37-3.18-3-4.73-4.84-.41-.48-.74-1.01-1.02-1.56h-4.27c-.18,1.9-2.94,7.08-.92,12.69Z"/><path class="cls-54" d="m473.97,393.62l.58,5.11s2.86,1.7,5.11,1.36c2.25-.34,2.51-1.36,2.51-1.36l.21-6.08-8.41.97Z"/><path class="cls-45" d="m482.16,398.73s-1.29.82-4.52.58c-.51-.04-2.35-.35-3.1-.58,0,0-12.71,4.8-12.77,5.97-.06,1.17,1.55,1.02,1.55,1.02h19.21s2.38-3.06-.38-6.98Z"/><path class="cls-43" d="m525.14,385.46c-3.03,2.39-8.41,3.81-8.41,3.81-5.63-11.41-21.78-44.24-23.76-49.71-1.95-4.06-5.82-10.55-9.88-20.87-.12,2.11-.25,4.42-.42,6.81v.02c-.48,6.72-1.23,14.12-2.42,19.9,1.16,2.85,2.89,8.99,2.97,15.73.1,7.74-.43,16.55-.53,24.18-.03,2.09-.09,6.73,0,8.32-3.52.6-7.49.62-9.12.5-1.72-11.99-5.91-41.18-6.96-49.84-1.83-8.62-4.26-28.48-5.93-43.88-.71-6.5-.57-12.32-.88-15.72l20.3-9.18c1.73,2.34,3.11,4.5,4.22,6.51l6.67-.89s.9,1.53,2.8,4.2c1.69,2.35,3.32,4.93,4.68,9.73.44,1.55,2.54,10.96,3.06,13.62,2.17,11.22,3.72,22.76,5.03,27.08.92.72,3.86,3.38,6,9.19,1.89,5.18,5.92,20.24,9.4,31.43,1.09,3.49,2.28,6.74,3.18,9.06Z"/><path class="cls-56" d="m483.09,318.69c-.12,2.11-.25,4.42-.42,6.81-1.2-5.08-7.58-21.04-7.58-21.04.88.25,2.94.37,2.94.37.75,2.44,5.06,13.86,5.06,13.86Z"/><path class="cls-43" d="m459.36,205.9s-2.57,4.22.44,8.57c0,0,1.45,2.29,2.4,6.31-3.87,9.53-1.3,17.74-1.3,17.74,0,0,6.12-5.22,8.38-6.28,2.26-1.06.45-13.92.45-13.92,0,0-1.56-7.19-1.81-7.89-.25-.7-4.78-6.08-4.78-6.08l-3.8,1.56Z"/><path class="cls-54" d="m450.92,242.08s-3.79-7.8-4.1-8.86c0,0-.24-1.76-.89-2.66s-2.47-1.44-3.03-1.84-1.36-.96-2.18-1.65c-.39-.33-.81.23-.61,1.16.2.93,1.28,1.83,1.28,1.83,0,0-1.06-.2-2.58-.96s-2.25-2.1-3.21-2.28c-.96-.18-.86.4-.42.99.37.5,1.27,1.5,1.88,2.13l-.98-.48s-1.51-1.51-2.22-1.84c-.71-.33-1.24-.1-1.16.28.08.38,1.72,2.4,2.05,2.8.13.16.64.49,1.24.85.4.51.79.99.93,1.17.33.4,4.54,2.59,4.9,2.79.25.15,3.55,9.12,3.55,9.12l5.56-2.54Z"/><path class="cls-48" d="m461.43,230.56c-2,1.27-4.37,4.68-6.44,10.45,0,.01,0,.03,0,.04-1.57,4.29-2.83,8.14-3.81,11.35l3.84,13.72c.33,0,.69-.07,1.05-.23.75-.33,1.56-1.04,2.41-2.34,1.26-1.91,2.61-4.51,3.79-6.95,1.81-3.74,3.21-7.11,3.21-7.11l-4.04-18.93Z"/><path class="cls-48" d="m449.81,239.67s-2.53,1.1-3.64,1.6c-2.42,1.1-2.61,1.25-2.61,1.25,2.15,6.1,6.37,21.61,11.45,23.6l1.44-14.17c-2.38-4.51-6.64-12.28-6.64-12.28Z"/><path class="cls-58" d="m462.35,253.21l-.09,3.39c-1.18,2.44-2.53,5.04-3.79,6.95-.85,1.3-1.66,2.01-2.41,2.34h0c-.09-2.28-2.09-13.59-2.07-15.65.03-2.06,3.03-6.61,3.03-6.61l5.33,9.59Z"/><path class="cls-48" d="m460.15,231.71s.3,3.67-1.82,8.92c-2.05,5.08-4.21,7.65-3.12,11.83,1.15,4.4,3.15,12.9,3.95,20.25.75,6.86.34,12.73.34,12.73,0,0,5.96,5.52,33.16-3.15,0,0-5.96-7.52-5.77-17.96.18-10.44,3.54-14.08,3.54-18.33,0-2.55.77-7.18-1.52-10.88-1.53-2.47-3.82-3.69-8.77-5.73-3.18-.29-11.29-1.11-16.08-.42-1.17.44-3.44,2.04-3.92,2.73Z"/><polygon class="cls-57" points="482.3 246.11 483.97 262.13 486.88 260.71 482.3 246.11"/><path class="cls-54" d="m480.15,229.4c-1.02,2.64-8.99,6.07-13.31,5.12-3.77-.82-3.67-4.74-2.77-5.54.93-.51,2.03-1.09,2.57-1.48.1-.31.18-.78.25-1.35.16-1.43.24-3.47.27-5.07.03-1.43.03-2.52.03-2.52l3.07-5.18s5.97-3.03,5.43,0c-.69,3.92-.24,13.63.17,13.94,1.26.95,4.29,2.08,4.29,2.08Z"/><path class="cls-51" d="m473.1,219.9s-1.59,4.64-6.21,6.25c.16-1.43.24-3.47.27-5.07l5.94-1.18Z"/><path class="cls-54" d="m474.6,218.01c-.3.46-.64.9-1,1.33h0c-2.71,3.18-6.86,5.39-8.93,4.9-3-.73-4.45-3.52-5.07-6.84-1.15-6,.42-13.68.42-13.68,2.41-8.21,17.3-2.98,17.86,2.93.56,5.92-3.27,11.36-3.27,11.36Z"/><path class="cls-43" d="m479.31,210.9c1.19-2.75,1.39-6.25-2.92-7.81,0,0-1.47-5.24-7.85-4.74-9.11.72-14.35,7.04-10.02,13.24,0,0,12.38.09,13.02-4.69,0,0-.38,4.34,2.75,6.36,0,0,1.02,2.38,1.06,4.38h4.27c-1.07-2.08-1.26-4.55-.31-6.74Z"/><rect class="cls-47" x="460.71" y="246.99" width="24.28" height="34.59" transform="translate(-68.75 254.05) rotate(-28.12)"/><rect class="cls-46" x="460.71" y="246.99" width="24.28" height="34.59" transform="translate(-65.58 204.87) rotate(-22.91)"/><path class="cls-53" d="m475.37,262.12l-7.86,2.27c-.59.11-1.65.27-2.28.18-.89-.14-2.26-.77-3.11-.95-.54-.11-2.03.62-3.14,1.18-.63.32-1.19.5-1.27.63-.22.35.39.89.93.84.38-.04,1.18-.18,1.92-.36l.16.05c-.87.35-2.05.88-2.2,1.2,0,0-.22.33-.17.75.04.32.29.62.84.7-.05.13-.09.32-.06.52.04.31.27.6.78.69-.04.13-.07.3-.05.48.05.32.29.63.86.7,0,0,0,0,0,0,.06.42.55,1,1.55.88.66-.08,1.63-.52,2.23-.81.04-.02.09-.03.14-.06.76-.43,1.75-.97,2.29-1.25l10.09-1.33-1.67-6.33Z"/><path class="cls-48" d="m493.92,266.86c-1.26.95-4.03,1.39-7.12,1.6-3.39.24-9.64.57-12.62.53-1.17-2.65-1.57-4.59-1.78-6.22,2.59-.81,12.9-3.23,12.9-3.23,0,0-3.03-13.63-3.78-16.97-1.24-5.58.28-9.82.68-12.31,2.9,1.12,5.9,2.74,8.28,6.39,3.5,5.38,6.77,27.72,3.46,30.21Z"/><path class="cls-54" d="m473.1,212.62s.63-2.74,2.59-1.65c1.36.76.75,5.31-1.33,5.49"/><path class="cls-44" d="m357.69,400.37l1.36-5.67c-2.34.4-6.13-.73-7.66-.93l.15,6.61s2.87,1.77,6.14,0Z"/><path class="cls-43" d="m391.43,287.29s0-.03,0-.03c0,0,0,.02,0,.03Z"/><path class="cls-43" d="m387.54,400.37l.26-4.31c-2.34.4-5.02.16-6.55-.04l.15,4.35s2.87,1.77,6.14,0Z"/><path class="cls-43" d="m350.86,394.86c1.6.92,6.26,1.63,8.52.9,0,0,10.02-45.41,11.3-51,1.68-7.3,4.59-16.1,6.33-24.06-.02,4.13.34,9.49.74,14.06v.02c.46,5.28.96,9.48.96,9.48-.35,3.34-1.04,19.5.29,29.77.87,6.61.92,22,.92,22,1.78.41,5.3.75,8.8.11,0,0,5.49-50.74,5.74-54.69,1-16.61.28-53.41.2-54.13,0,.26-1.91,1.92-7.77,1.59-8.08-.45-23.31-1.6-23.31-1.6-4.47,2.51-5.3,15.44-5.14,21.7.19,2.95-1.34,23.02-2.31,34.53-2.95,6.93-2.97,18.73-3.56,27.39-.91,13.51-1.69,23.95-1.69,23.95Z"/><path class="cls-45" d="m391.68,400.04s-2.98-2.4-3.97-2.4c-.77,0-1.15.48-1.86.74-.49.18-.93.21-1.05.22-2.55.03-3.48-.71-3.48-.71-2.39,4.36-.95,7.88-.95,7.88h19.43c.55-4.62-5.68-4.95-8.11-5.73Z"/><path class="cls-45" d="m360.11,399.03s-.75-.85-2.22-1.38c-1.27-.46-2.8-.76-5.38.24-.69.02-1.03-.06-1.03-.06-.2.65-.57,1.17-1.01,1.63-3.72,3.9-1.52,6.31-1.52,6.31h11.86c1.69-2.03,2.02-5.61-.71-6.75Z"/><path class="cls-59" d="m377,320.69c0,1.58.04,3.34.13,5.16l4.72-16.17c1.23-1.94,2.32-3.17,2.46-3.33l-4.38,1.71c-.67,3.59-2.93,12.63-2.93,12.63Z"/><path class="cls-54" d="m397.68,256.11c2.45-.93,5.66-2.32,9.92-4.91.62,1.49,2.59,6.27,3.19,7.59,6.04-6.5,13.55-14.54,13.55-14.54,0,0,5.04,2.92,4.22,3.72-.82.8-15.46,24.38-19.56,24.38-3.45,0-6.82-6.29-11.32-16.25Z"/><path class="cls-20" d="m408.5,252.25c-3.01,2.13-6.54,3.68-9.09,4.63-.82.31-1.53.56-2.1.74-.34-.62-.68-1.25-1.02-1.89-1.19-2.22-2.77-2.27-3.5-2.15-.26.04-.42.11-.42.11l6.37-19.61s2.6,2.55,5.88,9.63c1.03,2.23,2.56,5.39,3.88,8.54Z"/><path class="cls-60" d="m399.41,256.88c-.82.31-1.53.56-2.1.74-.34-.62-.68-1.25-1.02-1.89-1.19-2.22-2.77-2.27-3.5-2.15l.59-2.2,4.68-1.75,1.35,7.25Z"/><path class="cls-48" d="m398.74,234.08c-1.63-1.75-6.92-4.65-9.97-5.41-1.27-.06-1.27-.22-3.07-.17-2.43.08-5.3.11-9.43.69-4.64.65-12.13,7.24-12.96,9.06-2.28,4.98.61,21.65-.39,37.47-2.26,7.88-1.56,12.76-1.36,12.99,1.57,1.82,17.24,1.94,22.28,1.94,4.48,0,10.51-1.29,10.89-2.72.24-.89.55-6.58.51-15.57.95-11.42,3.1-25.59,3.78-27.44.9-2.41,1.54-8.88-.28-10.84Z"/><polygon class="cls-55" points="369.83 251.38 367.77 263.34 361.56 265.89 369.83 251.38"/><path class="cls-54" d="m376.26,229.19s4.5,5.53,10.19,4.25c2.59-.59,2.31-4.77,2.31-4.77,0,0-1.15-.12-1.64-.91-.1-.16-.28-.78-.46-1.53-.35-1.5-.75-3.54-.75-3.54l-1.99-.74-6.19-2.32s-.01,5.7-.62,8.46c-.19.85-.86,1.1-.86,1.1Z"/><path class="cls-33" d="m381.14,222.08s.39,3.53,5.53,4.15c-.35-1.5-.75-3.54-.75-3.54l-1.99-.74-2.79.13Z"/><path class="cls-54" d="m383.96,205.24c.99.27,4.58-1.51,5.3-.43.72,1.08,2.31,8.26,2.7,9.74.25.94,1.32,6.93-.74,8.81-2.18,1.99-8.29.21-8.99-.02-1.84-.6-5.3-2.52-5.78-4.24l-.25-10.44,7.76-3.43Z"/><path class="cls-54" d="m391.09,210.94s2,3.55,2.26,4.14-1.94,1.44-1.94,1.44"/><path class="cls-43" d="m391.91,202.1c-.25-.5-.71-.86-1.06-1.31-.58-.76-.85-1.8-1.68-2.26-.91-.51-2.02-.1-3.05.06-1.16.18-2.37.02-3.44-.46-.37-.17-.72-.37-1.11-.51-1.01-.36-2.19-.2-3.07.42-.27.19-.52.42-.8.61-.92.59-2.09.57-3.18.61-1.09.04-2.3.24-2.98,1.1-.93,1.18-.44,3.04-1.34,4.25-.65.86-1.92,1.24-2.23,2.28-.19.63.06,1.3.13,1.96.16,1.67-.84,3.5.02,4.93.44.74,1.28,1.14,1.99,1.63.35.48.75.95,1.18,1.41.16.47.22.97.45,1.41.52,1,1.73,1.33,2.87,1.5.98.72,2.02,1.38,3.07,1.96l.71-1.01s-2.09-3.13-.87-5.16c1.36-1.76,2.89.24,3.79,1.09.13.12.34.03.34-.14.02-.87-.24-1.4.15-2.71.33-.83.95-1.41,1.06-1.97.06-.29,0-.59-.02-.88-.02-.29.04-.62.26-.81.2-.16.48-.17.73-.13.25.04.5.12.75.12.66,0,1.17-.55,1.69-.96.11-.09.23-.17.37-.21.14-.03.28-.02.42,0,.92.08,1.86-.13,2.67-.57.44-.24.87-.6.98-1.09.07-.29.03-.6.11-.88.02-.03.05-.06.07-.1.04-.04.1-.07.13-.11.26-.28.4-.64.54-.99.4-.99.8-2.13.32-3.08Z"/><circle class="cls-48" cx="363.17" cy="284.4" r="17.43" transform="translate(-61.93 105.33) rotate(-15.22)"/><path class="cls-3" d="m372.09,296.12c-6.47,4.92-15.71,3.67-20.64-2.8-4.92-6.47-3.67-15.71,2.8-20.64,6.47-4.92,15.71-3.67,20.64,2.8,4.92,6.47,3.67,15.71-2.8,20.64Z"/><path class="cls-48" d="m371.72,295.64c-6.21,4.72-15.06,3.52-19.78-2.69-4.72-6.21-3.52-15.06,2.69-19.78s15.06-3.52,19.78,2.69c4.72,6.21,3.52,15.06-2.69,19.78Z"/><path class="cls-5" d="m370.57,283.76l-.03-.27c-.08-.7-.29-1.37-.63-2.03-.22-.44-.1-.98.3-1.28l.24-.18c.46-.35.55-1,.2-1.46-.35-.46-1-.55-1.46-.2l-.45.34c-.35.26-.82.28-1.19.04-1.53-1.01-3.3-1.01-4.71.07-1.9,1.45-1.6,3.64-.99,5.79.48,1.78.34,2.76-.49,3.39-.91.69-2.14.38-3.01-.75-.67-.88-1.09-2-1.16-3.07l-.03-.41s-.16-1.26-1.45-.86c-.89.28-.75,1.56-.75,1.56v.25c.03.77.31,1.7.77,2.58.24.46.13,1.01-.28,1.32l-.3.23c-.46.35-.55,1-.2,1.46v.02c.36.46,1.01.55,1.47.2l.51-.39c.34-.26.82-.29,1.18-.05,1.6,1.05,3.51,1.06,4.98-.06,1.66-1.27,2.06-2.98,1.31-5.74-.57-2.16-.52-2.95.24-3.53.61-.46,1.66-.56,2.6.68.88,1.15,1.01,2.19,1.07,2.63l.05.38s.16,1.31,1.44.91c.89-.28.75-1.56.75-1.56Z"/><path class="cls-54" d="m373.48,299.39c-.11-.35-1.55-2.2-1.8-2.53-.67-.87-2.99-2.82-2.99-2.82l-2.83-17.3c-.82-3.46-2.34-7.62-2.34-7.62,0,0,2.19-8,3.81-15.28-7.16-2.21-7.83-8.12-9.82-9.21-1.23,5.55-4.47,14.4-4.96,21.22h0c-.16,1.06-.17,2.13-.07,3.22.07,1.7.35,3.16.9,4.27,1.41,4.46,3.66,9.25,6.07,13.56,3.36,6,4.8,8.18,4.8,8.18,0,0,.34,4.24.83,5.15.49.91,1.09,2.15,1.74,2.17.65.02.82-.27.82-.27,0,0,.47.14.91.05.44-.09.64-.59.64-.59,0,0,.48.2.85.03s.4-.54.4-.54c0,0,.99.04,1.27-.62.14-.32-.39-1.41-.39-1.41,0,0,.41.76,1.3.9.89.14.98-.21.88-.56Z"/><path class="cls-48" d="m371.41,245.64l1.72-15.39s-8.14,3.06-12.88,8.42c-2.32,2.63-5.52,11.78-6.4,18.16,1.93,1.06,5.05,2.45,13.02,3.02,1.4-4.16,4.08-11.06,4.54-14.21Z"/><path class="cls-54" d="m380.77,216.07s.33.4.44,1.85c.11,1.45-.09,3.48-.93,3.71-.84.23-2.45-.99-2.97-2.46-.45-1.28-.89-3.55.75-4.27,1.64-.72,2.71,1.17,2.71,1.17Z"/><path class="cls-46" d="m401.25,271.26h23.5c.53,0,.98-.38,1.07-.9l5.99-34.76c.11-.66-.4-1.27-1.07-1.27h-23.5c-.53,0-.98.38-1.07.9l-5.99,34.76c-.11.66.4,1.27,1.07,1.27Z"/><path class="cls-54" d="m431.01,240.82s.81,1.62.81,3.04-1.07,4.11-2.14,4.64c-1.06.53-3.22.47-3.71.31-.49-.15-.61-.62-.61-.62,0,0-1.31-.09-1.54-.22-.74-.42-.35-1.08-.35-1.08,0,0-1,.02-1.37-.23-.37-.25-.54-1.03.05-1.55.41-.36,1.31-.62,1.31-.62,0,0,.03-.62.64-1.14.29-.25,1.91-.68,3.37-.83,1.13-.12,2.97-.14,3.54-1.71Z"/><circle class="cls-23" cx="432.46" cy="193.92" r="19.82"/><path class="cls-48" d="m455.12,189.14l-22.67,4.78-5.63-22.46c1.8-.46,3.69-.69,5.63-.69,11.15,0,20.46,7.88,22.67,18.37Z"/><path class="cls-52" d="m55.62,216.26h18.71c2.73,0,4.95,2.22,4.95,4.95v18.71c0,2.73-2.22,4.95-4.95,4.95h-18.71c-2.73,0-4.95-2.22-4.95-4.95v-18.71c0-2.73,2.22-4.95,4.95-4.95Z"/><path class="cls-21" d="m52.65,231.79s8.06,2.04,12,10.02c0,0,5.67-14.12,17.62-20.03,0,0-8.93-.82-18.06,12.7,0,0-5.57-4.34-11.57-2.69Z"/><rect class="cls-52" x="311.55" y="80.92" width="28.61" height="28.61" rx="4.95" ry="4.95"/><path class="cls-48" d="m313.53,96.46s8.06,2.04,12,10.02c0,0,5.67-14.12,17.62-20.03,0,0-8.93-.82-18.06,12.7,0,0-5.57-4.34-11.57-2.69Z"/><rect class="cls-48" x="242.46" y="71.54" width="56.51" height="72.11" rx="1.95" ry="1.95"/><rect class="cls-52" x="246.36" y="74.79" width="48.71" height="65.11" rx="1.27" ry="1.27"/><path class="cls-50" d="m261.3,69.13h18.82c1.11,0,2.02.9,2.02,2.02v5.9h-22.85v-5.9c0-1.11.9-2.02,2.02-2.02Z"/><path class="cls-25" d="m258.63,98.39h-7.15c-1.22,0-2.21-.99-2.21-2.21v-7.15c0-1.22.99-2.21,2.21-2.21h7.15c1.22,0,2.21.99,2.21,2.21v7.15c0,1.22-.99,2.21-2.21,2.21Zm-7.15-10.56c-.67,0-1.21.54-1.21,1.21v7.15c0,.67.54,1.21,1.21,1.21h7.15c.67,0,1.21-.54,1.21-1.21v-7.15c0-.67-.54-1.21-1.21-1.21h-7.15Z"/><path class="cls-16" d="m290.27,89.99h-26.33c-.28,0-.5-.22-.5-.5s.22-.5.5-.5h26.33c.28,0,.5.22.5.5s-.22.5-.5.5Z"/><path class="cls-26" d="m290.27,93.11h-26.33c-.28,0-.5-.22-.5-.5s.22-.5.5-.5h26.33c.28,0,.5.22.5.5s-.22.5-.5.5Z"/><path class="cls-24" d="m278.1,96.22h-14.17c-.28,0-.5-.22-.5-.5s.22-.5.5-.5h14.17c.28,0,.5.22.5.5s-.22.5-.5.5Z"/><path class="cls-15" d="m258.63,117.26h-7.15c-1.22,0-2.21-.99-2.21-2.21v-7.15c0-1.22.99-2.21,2.21-2.21h7.15c1.22,0,2.21.99,2.21,2.21v7.15c0,1.22-.99,2.21-2.21,2.21Zm-7.15-10.56c-.67,0-1.21.54-1.21,1.21v7.15c0,.67.54,1.21,1.21,1.21h7.15c.67,0,1.21-.54,1.21-1.21v-7.15c0-.67-.54-1.21-1.21-1.21h-7.15Z"/><path class="cls-8" d="m290.27,108.87h-26.33c-.28,0-.5-.22-.5-.5s.22-.5.5-.5h26.33c.28,0,.5.22.5.5s-.22.5-.5.5Z"/><path class="cls-10" d="m290.27,111.98h-26.33c-.28,0-.5-.22-.5-.5s.22-.5.5-.5h26.33c.28,0,.5.22.5.5s-.22.5-.5.5Z"/><path class="cls-11" d="m278.1,115.1h-14.17c-.28,0-.5-.22-.5-.5s.22-.5.5-.5h14.17c.28,0,.5.22.5.5s-.22.5-.5.5Z"/><path class="cls-9" d="m258.63,136.13h-7.15c-1.22,0-2.21-.99-2.21-2.21v-7.15c0-1.22.99-2.21,2.21-2.21h7.15c1.22,0,2.21.99,2.21,2.21v7.15c0,1.22-.99,2.21-2.21,2.21Zm-7.15-10.56c-.67,0-1.21.54-1.21,1.21v7.15c0,.67.54,1.21,1.21,1.21h7.15c.67,0,1.21-.54,1.21-1.21v-7.15c0-.67-.54-1.21-1.21-1.21h-7.15Z"/><path class="cls-7" d="m290.27,127.74h-26.33c-.28,0-.5-.22-.5-.5s.22-.5.5-.5h26.33c.28,0,.5.22.5.5s-.22.5-.5.5Z"/><path class="cls-13" d="m290.27,130.85h-26.33c-.28,0-.5-.22-.5-.5s.22-.5.5-.5h26.33c.28,0,.5.22.5.5s-.22.5-.5.5Z"/><path class="cls-14" d="m278.1,133.97h-14.17c-.28,0-.5-.22-.5-.5s.22-.5.5-.5h14.17c.28,0,.5.22.5.5s-.22.5-.5.5Z"/><path class="cls-12" d="m256.96,80.46h28.12c.52,0,.94.42.94.94v1.88c0,.52-.42.94-.94.94h-28.12c-.52,0-.94-.42-.94-.94v-1.87c0-.52.42-.94.94-.94Z"/><path class="cls-48" d="m248.58,90.69s4.05,1.02,6.03,5.03c0,0,2.84-7.09,8.85-10.06,0,0-4.48-.41-9.07,6.38,0,0-2.8-2.18-5.81-1.35Z"/><path class="cls-48" d="m248.58,109.57s4.05,1.02,6.03,5.03c0,0,2.84-7.09,8.85-10.06,0,0-4.48-.41-9.07,6.38,0,0-2.8-2.18-5.81-1.35Z"/><rect class="cls-48" x="130.3" y="352.34" width="56.21" height="53.82"/><rect class="cls-48" x="186.51" y="352.34" width="8.42" height="53.82"/><rect class="cls-2" x="153.68" y="352.34" width="9.44" height="8.15"/><rect class="cls-34" x="134.13" y="396.06" width="7.89" height="7.89" rx="1.22" ry="1.22"/><rect class="cls-34" x="143.82" y="396.06" width="7.89" height="7.89" rx="1.22" ry="1.22"/><rect class="cls-34" x="153.5" y="396.06" width="7.89" height="7.89" rx="1.22" ry="1.22"/><rect class="cls-48" x="173.32" y="298.53" width="56.21" height="53.82"/><rect class="cls-48" x="229.53" y="298.53" width="8.42" height="53.82"/><rect class="cls-2" x="196.7" y="298.53" width="9.44" height="8.15"/><rect class="cls-34" x="177.15" y="342.25" width="7.89" height="7.89" rx="1.22" ry="1.22"/><rect class="cls-34" x="186.83" y="342.25" width="7.89" height="7.89" rx="1.22" ry="1.22"/><rect class="cls-34" x="196.52" y="342.25" width="7.89" height="7.89" rx="1.22" ry="1.22"/><rect class="cls-48" x="191.1" y="352.34" width="56.21" height="53.82"/><rect class="cls-48" x="247.31" y="352.34" width="8.42" height="53.82"/><rect class="cls-2" x="214.49" y="352.34" width="9.44" height="8.15"/><rect class="cls-34" x="194.93" y="396.06" width="7.89" height="7.89" rx="1.22" ry="1.22"/><rect class="cls-34" x="204.62" y="396.06" width="7.89" height="7.89" rx="1.22" ry="1.22"/><rect class="cls-34" x="214.31" y="396.06" width="7.89" height="7.89" rx="1.22" ry="1.22"/><path class="cls-53" d="m79.09,393.09c2.09.88,4.2,1.02,4.2,1.02l1.94-3.13-6.17-5.71s-1.45,4.03-2.25,5.69c0,0,.19,1.25,2.28,2.12Z"/><path class="cls-49" d="m89.85,402.42c-.46-.51-2.34-1.5-4.07-2.52-2.11-2.59-1.98-5.16-2.49-5.8,0,0-2.06-.37-4.15-1.25-2.09-.88-2.33-1.9-2.33-1.9-.97.69-3.67,2.31-5.1,6.12,0,0,8.08,6.79,10.37,8.61,0,0,6.84,0,8.59,0,.28-.86.4-1.94-.81-3.28Z"/><path class="cls-49" d="m123.08,398.57s1.32.84,4.6.59c.52-.04,2.4-.36,3.16-.59,0,0,1.49.73,3.72,1.51,2.13.75,4.96,1.51,7.02,2.94,1.49,1.03,1.23,2.67,1.23,2.67h-19.47c-.43,0-.83-.23-1.02-.61-.55-1.1-1.31-3.57.76-6.51Z"/><path class="cls-43" d="m98.86,283.53c-2.01,4.12-3.26,8.21-3.51,13.52-.18,3.79.36,7.7.56,11.74.17,3.48.53,32.26.53,32.26,0,0-6,10.32-8.18,16.49-2.18,6.17-10.62,30.94-10.62,30.94,2.62,3.25,7.33,3.6,7.33,3.6,0,0,16.59-25.6,25.15-46.98.37-.92,4.6-19.45,5.02-21.32.34-1.51.63-2.85.88-3.97.06-.27.11-.55.18-.81.31-1.47.6-2.92.89-4.35,2.78-13.96,4.42-25.64,4.42-25.64l-22.64-5.48Z"/><path class="cls-62" d="m117.09,314.66c-.29,1.43-.58,2.88-.89,4.35-.06.26-.11.54-.18.81-.25,1.13-.54,2.46-.88,3.97-.77-4.41-2.13-9.77-3.08-14.91-1.37-7.37,1.25-6.69,1.25-6.69l3.78,12.48Z"/><path class="cls-53" d="m122.83,394.4c.21,2.27.25,4.17.25,4.17,2.52,1.8,7.76,0,7.76,0,0,0,.08-2.03.23-4.17,0,0-8.24,0-8.24,0Z"/><path class="cls-43" d="m133.08,285.03h-22.45c-1.24,4.4-1.54,7.33-.86,14.67.68,7.34,4.61,13.87,5.51,17.83.9,3.95,5.02,24.19,5.02,24.19,0,0-1.6,12.64-1.72,19.19-.09,5.22,2.21,26.38,3.39,34.61,0,0,5.51.66,9.29-.02,0,0,2.82-30.49,4.15-53.94.59-10.44.2-19.42.33-23.8.58-20.94-2.67-32.72-2.67-32.72Z"/><path class="cls-54" d="m126.55,211.69c-.28-4.21-1.02-8.12-1.02-8.12-.4-4.77-7.03-5.26-10.87-5.12-3.84.14-10.95,4.39-6.34,14.46.86,1.87,2.01,2.52,3.22,2.75.89,7.1-.3,13.33-.3,13.33,3.34.79,7.49.33,9.91-.07,1.23-.2,2.02-.4,2.02-.4-.6-4.16-.81-5.98-.94-7.13,2.66.31,3.64-.62,3.64-.62,1.29-1.76.92-5.39.68-9.08Z"/><path class="cls-48" d="m110.41,227.71l.87-3.76s5.1-2.29,12.38,1.17l.59,1.98"/><path class="cls-54" d="m95.35,253.78s-1.06,8.18-.69,9.87,8.12,6.94,8.12,6.94c0,0,.38-14.56-.31-16s-7.12-.8-7.12-.8Z"/><path class="cls-48" d="m106.54,257.71c-3.16.02-5.61-.24-7.46-.58-3.4-.63-4.77-1.54-4.77-1.54,1.83-16.88,7.37-22.46,7.37-22.46l4.37,22.1.49,2.48Z"/><path class="cls-61" d="m106.54,257.71c-3.16.02-5.61-.24-7.46-.58-.01-3.92.05-8.5.05-8.5l4.26,1.08,2.66,5.52.49,2.48Z"/><path class="cls-48" d="m131.66,273.88c.89,8.67,2.4,14.23,2.72,15.74-23.93,7.27-37.27,1.83-38.3.67.79-3.91,6.44-24.68,4.47-33.19-2.17-9.41-2.17-17.46-.27-21.77,2.76-6.22,13.68-9.12,13.68-9.12,2.01-.56,9.41-.95,13.28,1.33,4.71,2.77,7.93,4.65,7.93,4.65,1.34,3.86-3.13,9.32-4.26,13.85-.02.06-.03.14-.04.23-.13.87-.22,3.13-.22,6.18-.01,5.68.26,14.11,1.01,21.43Z"/><path class="cls-63" d="m130.87,246.27c-.13.87-.22,3.13-.22,6.18l-5.96-5.58,6.18-.6Z"/><path class="cls-54" d="m174.19,220.06c-.16-.72-1.06-1.16-1.06-1.16-.19-1.19-.95-1.3-1.14-1.49s-.26-.67-.67-.9c-.5-.28-1.13-.46-1.13-.46,0,0,1.9-2.83,2.5-3.81.78-1.27.59-2.41.05-2.49-.54-.08-1.91,2-2.66,2.84-.75.83-3.07,2.24-3.75,3.29-.73,1.13-1.39,4.71-1.59,5.86-.88.97-4.36,4.78-7.26,8.03-1.16,1.3-3.49,3.83-4.99,5.32-.75.74-3.42,3.73-4.51,5.11-1.02-.64-2.1-1.34-3.24-2.06,0,0-1.08,5.1-5.23,11.46,5.84,2.05,11.38,3.25,13.11,2.14.16-.1.32-.23.47-.36.06-.03.11-.07.16-.12,2.94-3.02,7.4-11.52,10.99-17.89,2.18-3.87,4.18-6.86,4.73-7.66,2.56-.1,3.16-2.18,3.16-2.18,0,0,.03,1.69.84,1.59.28-.03.5-.61.77-1.24.3-.71.73-1.87.73-2.14,0-.5-.12-.95-.28-1.67Z"/><path class="cls-48" d="m130.58,229.66c-4.45-2.05-8.79-.73-10.51,1.55,0,0-4.76,5.4-1.12,10.86,2.53,3.8,11.41,8.33,21.02,11.71,5.27-8.08,6.65-14.56,6.65-14.56-5.3-3.36-11.34-7.14-16.04-9.56Z"/><path class="cls-43" d="m127.13,197.15c-.61.05-1.25.72-1.66,1.47.44-1.4,1-4.69-1.38-6.06-2.46-1.42-3.62.78-6.6,2.83-2.29,1.57-4.71.35-7.84,1.62-5.17,2.1-3.9,6.73-3.9,6.73-1.86.88-2.88,3.64-1.22,8.05,1.66,4.41,5.71,6.97,6.33,8.21,1.29,2.57,6.99.78,7.29-.28.61-2.08.21-6.25-.37-6.91-1.41-1.6-2-3.61-1.07-4.43,1.59-1.39,2.47,1.72,2.47,1.72l1.62.77s.66-2.01.58-3.96c8.96-1.6,8.75-9.99,5.74-9.75Z"/><path class="cls-54" d="m120.12,210.98c-.05-.77-.22-2.21-1.11-3-.89-.79-3.17-.15-2.94,2.22.23,2.36,2.22,3.86,3.43,3.3.7-.32.67-1.9.62-2.52Z"/><rect class="cls-48" x="316.02" y="123.83" width="84.42" height="50.71" rx="3.75" ry="3.75"/><rect class="cls-31" x="322.44" y="156.12" width="8" height="14.65"/><rect class="cls-32" x="335.15" y="147.61" width="8" height="23.16"/><rect class="cls-29" x="347.87" y="164.12" width="8" height="6.65"/><rect class="cls-30" x="360.58" y="149.93" width="8" height="20.84"/><rect class="cls-28" x="373.3" y="152.62" width="8" height="18.15"/><rect class="cls-27" x="386.01" y="137.09" width="8" height="33.68"/><circle class="cls-48" cx="392.07" cy="128.84" r="1.94"/><circle class="cls-48" cx="384" cy="128.84" r="1.94"/><circle class="cls-48" cx="375.93" cy="128.84" r="1.94"/><line class="cls-1" x1="12.92" y1="406.17" x2="532.42" y2="406.17"/></g><g id="TEXTS"><text class="cls-64" transform="translate(178.02 253.21)"><tspan x="0" y="0">ERP</tspan></text></g></g></svg>