<svg width="127" height="127" viewBox="0 0 127 127" fill="none" xmlns="http://www.w3.org/2000/svg">
<path d="M88.9207 4.81445C79.532 4.81445 70.45 8.47432 63.5001 14.9613C56.5508 8.47459 47.4688 4.81445 38.0796 4.81445C17.0823 4.81445 0 22.6252 0 44.5177C0 50.0101 0.896516 55.5825 2.66586 61.0845C2.72795 61.2767 4.18737 65.7743 5.57136 68.4636C11.8756 81.9851 23.2855 95.075 39.4867 107.372C51.4854 116.478 61.5399 121.605 61.9623 121.819C62.4457 122.063 62.9729 122.186 63.5001 122.186C64.0274 122.186 64.5546 122.064 65.0377 121.819C65.4601 121.605 75.5146 116.479 87.513 107.372C103.74 95.0551 115.161 81.9423 121.459 68.3977C121.465 68.3854 121.471 68.3726 121.476 68.3598C121.557 68.1812 123.461 63.9415 124.35 61.0327C126.133 55.2002 127 49.7982 127 44.5174C127 22.6252 109.918 4.81445 88.9207 4.81445ZM117.84 59.0422C117.104 61.4499 115.411 65.247 115.277 65.5466C108.036 81.1052 94.0021 93.886 83.5024 101.869C74.6404 108.606 66.7275 113.158 63.5001 114.924C60.2725 113.158 52.3599 108.606 43.4979 101.869C32.9938 93.8825 18.9529 81.0946 11.7143 65.5275C11.6931 65.4818 11.6708 65.4366 11.6474 65.3914C10.7092 63.5883 9.52208 60.1596 9.14572 58.9959C7.59452 54.1727 6.80829 49.3018 6.80829 44.518C6.80829 26.3796 20.8366 11.623 38.0796 11.623C46.7182 11.623 55.0551 15.4387 60.9527 22.0915C61.599 22.8202 62.526 23.2374 63.5001 23.2374C64.474 23.2374 65.401 22.8202 66.0475 22.0915C72.0328 15.3406 80.1559 11.623 88.9207 11.623C106.164 11.623 120.192 26.3799 120.192 44.518C120.192 49.1136 119.423 53.8647 117.84 59.0422Z" fill="black"/>
</svg>
