<?xml version="1.0" encoding="utf-8"?>
<!-- Generator: Adobe Illustrator 27.8.0, SVG Export Plug-In . SVG Version: 6.00 Build 0)  -->
<svg version="1.1" id="Layer_1" xmlns="http://www.w3.org/2000/svg" xmlns:xlink="http://www.w3.org/1999/xlink" x="0px" y="0px"
	 viewBox="0 0 473.7 393.8" style="enable-background:new 0 0 473.7 393.8;" xml:space="preserve">
<style type="text/css">
	.st0{fill:#DDDDDD;}
	.st1{fill:#25688F;}
	.st2{fill:#32A3D3;}
	.st3{fill:none;stroke:#32A3D3;stroke-width:2.1324;stroke-miterlimit:10;}
	.st4{fill:#EDC6C9;}
	.st5{fill:#898989;}
	.st6{fill:#333072;}
	.st7{fill:#939393;}
	.st8{fill:#F2F2F2;}
	.st9{fill:#B38273;}
	.st10{fill:#A76F5E;}
	.st11{fill:#666666;}
	.st12{fill:#161616;}
	.st13{fill:#A5D0FE;}
	.st14{fill:#B8B8C1;}
	.st15{fill:#F7F7F7;}
	.st16{fill:#F3D559;}
	.st17{fill:#000002;}
	.st18{fill:#E4AAAF;}
	.st19{fill:#636363;}
</style>
<g id="BACKGROUND">
	<g>
		<g>
			<path class="st0" d="M58.4,184.5c6.3,12.1,11,24.7,10.8,38.1c-0.4,28.7-24.6,52.3-28,80.8c-2.4,20,6.6,41.1,22.8,53
				c12.6,9.2,28.5,12.8,44.1,13.2c15.6,0.4,31-2.1,46.4-4.2c18.3-2.4,37.4-4.4,55.8-1.9s35.7,9.7,53.6,14.5
				c25.6,6.9,53.7,6.5,74.8-11.5c18.4-15.7,25-40.9,26.6-64.1c1.4-21.4,9.7-40,22.2-57.1c13.1-17.6,29.8-33.6,37.9-54.2
				c4.7-12,6.3-25.1,5.7-38c-0.5-12.6-3-25.3-9.1-36.4c-12.8-23.3-39.5-35.9-65.8-39.9c-27.4-4.4-56,1.8-83-3.4
				c-40.6-7.7-74.5-33.7-114.4-43.7c-26.9-6.7-56.1-7.1-81.3,4.4c-15.5,7.1-28.9,18.5-38.7,32.4c-17,24.3-16.1,52.3-3.4,78.3
				C42.1,157.8,51.3,170.7,58.4,184.5z"/>
		</g>
		<g>
			<g id="XMLID_2_">
				<path class="st0" d="M54.5,192.7c0.8,1.6,2,3,3.6,3.9c0.6,0.4,0.6,1.3-0.1,1.6c-1.6,0.8-3,2.1-3.9,3.7c-0.4,0.7-1.4,0.6-1.6-0.1
					c-0.8-1.6-2-3-3.6-3.9c-0.6-0.4-0.6-1.3,0.1-1.6c1.6-0.8,3-2.1,3.9-3.7C53.2,192,54.1,192,54.5,192.7z"/>
			</g>
			<g id="XMLID_4_">
				<path class="st0" d="M29.8,190.8c0.8,1.6,2,3,3.6,3.9c0.6,0.4,0.6,1.3-0.1,1.6c-1.6,0.8-3,2.1-3.9,3.7c-0.4,0.7-1.4,0.6-1.6-0.1
					c-0.8-1.6-2-3-3.6-3.9c-0.6-0.4-0.6-1.3,0.1-1.6c1.6-0.8,3-2.1,3.9-3.7C28.6,190.1,29.5,190.2,29.8,190.8z"/>
			</g>
			<g id="XMLID_5_">
				<path class="st0" d="M36.8,167.9c0.8,1.6,2,3,3.6,3.9c0.6,0.4,0.6,1.3-0.1,1.6c-1.6,0.8-3,2.1-3.9,3.7c-0.4,0.7-1.4,0.6-1.6-0.1
					c-0.8-1.6-2-3-3.6-3.9c-0.6-0.4-0.6-1.3,0.1-1.6c1.6-0.8,3-2.1,3.9-3.7C35.5,167.3,36.5,167.3,36.8,167.9z"/>
			</g>
			<g id="XMLID_8_">
				<path class="st0" d="M425.3,215.4c0.8,1.6,2,3,3.6,3.9c0.6,0.4,0.6,1.3-0.1,1.6c-1.6,0.8-3,2.1-3.9,3.7
					c-0.4,0.7-1.4,0.6-1.6-0.1c-0.8-1.6-2-3-3.6-3.9c-0.6-0.4-0.6-1.3,0.1-1.6c1.6-0.8,3-2.1,3.9-3.7
					C424.1,214.7,425,214.7,425.3,215.4z"/>
			</g>
			<g id="XMLID_7_">
				<path class="st0" d="M410.7,234.4c0.8,1.6,2,3,3.6,3.9c0.6,0.4,0.6,1.3-0.1,1.6c-1.6,0.8-3,2.1-3.9,3.7
					c-0.4,0.7-1.4,0.6-1.6-0.1c-0.8-1.6-2-3-3.6-3.9c-0.6-0.4-0.6-1.3,0.1-1.6c1.6-0.8,3-2.1,3.9-3.7
					C409.5,233.7,410.4,233.7,410.7,234.4z"/>
			</g>
			<g id="XMLID_6_">
				<path class="st0" d="M432.3,237.6c0.8,1.6,2,3,3.6,3.9c0.6,0.4,0.6,1.3-0.1,1.6c-1.6,0.8-3,2.1-3.9,3.7
					c-0.4,0.7-1.4,0.6-1.6-0.1c-0.8-1.6-2-3-3.6-3.9c-0.6-0.4-0.6-1.3,0.1-1.6c1.6-0.8,3-2.1,3.9-3.7
					C431,236.9,432,236.9,432.3,237.6z"/>
			</g>
			<g id="XMLID_11_">
				<path class="st0" d="M248,49.7c-1.8-0.1-3.6,0.3-5.1,1.3c-0.6,0.4-1.5-0.1-1.4-0.9c0.1-1.8-0.4-3.6-1.4-5.1
					c-0.4-0.7,0.1-1.5,0.9-1.5c1.8,0.1,3.6-0.3,5.2-1.3c0.6-0.4,1.5,0.1,1.4,0.9c-0.1,1.8,0.4,3.6,1.4,5.1
					C249.2,48.9,248.7,49.7,248,49.7z"/>
			</g>
			<g id="XMLID_10_">
				<path class="st0" d="M248,20.3c-1.8-0.1-3.6,0.3-5.1,1.3c-0.6,0.4-1.5-0.1-1.4-0.9c0.1-1.8-0.4-3.6-1.4-5.1
					c-0.4-0.7,0.1-1.5,0.9-1.5c1.8,0.1,3.6-0.3,5.2-1.3c0.6-0.4,1.5,0.1,1.4,0.9c-0.1,1.8,0.4,3.6,1.4,5.1
					C249.2,19.5,248.7,20.4,248,20.3z"/>
			</g>
			<g id="XMLID_9_">
				<path class="st0" d="M213.3,32.5c-1.8-0.1-3.6,0.3-5.1,1.3c-0.6,0.4-1.5-0.1-1.4-0.9c0.1-1.8-0.4-3.6-1.4-5.1
					c-0.4-0.7,0.1-1.5,0.9-1.5c1.8,0.1,3.6-0.3,5.2-1.3c0.6-0.4,1.5,0.1,1.4,0.9c-0.1,1.8,0.4,3.6,1.4,5.1
					C214.5,31.7,213.9,32.6,213.3,32.5z"/>
			</g>
		</g>
	</g>
</g>
<path class="st1" d="M145.6,131.7c1.5-1.3,3-2.7,4.3-4.3l6.7,2.8l8.1-19.6l-6.9-2.8c0.3-4.8-0.4-9.8-2.2-14.4l5.8-4.7l-13.5-16.4
	l-5.8,4.7c-3.7-2.3-7.8-3.9-12-4.6l-1.1-7.3l-21,3.2l1.1,7.2c-2.3,1.2-4.4,2.5-6.5,4.3c-1.5,1.2-2.7,2.4-3.9,3.8l-6.6-2.7L84,100.3
	l6.4,2.6c-0.4,5,0.3,10.2,2.2,15l-5.3,4.4l13.5,16.4l5.3-4.4c3.9,2.4,8.1,4.1,12.6,4.7l1.1,6.9l21-3.2l-1.1-7.1
	C141.7,134.5,143.7,133.2,145.6,131.7z M106.5,120.1c-8.1-9.9-6.8-24.4,3.1-32.5c9.9-8.1,24.4-6.8,32.5,3.1
	c8.1,9.9,6.8,24.4-3.1,32.5C129.1,131.3,114.6,129.8,106.5,120.1z"/>
<path class="st2" d="M163.8,64.5c0.7-0.6,1.3-1.2,1.7-1.7l2.7,1.2l3.3-8l-2.8-1.2c0.1-1.9-0.2-4-0.9-5.9l2.3-1.9l-5.5-6.7l-2.3,1.9
	c-1.5-1-3.2-1.5-4.9-1.9l-0.5-3l-8.6,1.3l0.5,2.9c-1,0.5-1.8,1.1-2.6,1.7c-0.6,0.5-1.1,1-1.5,1.5l-2.7-1.1l-3.3,8l2.6,1.1
	c-0.2,2,0.1,4.2,0.9,6.1l-2.1,1.7l5.5,6.7l2.1-1.7c1.5,1,3.3,1.6,5.1,1.9l0.4,2.8l8.6-1.3l-0.4-2.9
	C162.2,65.6,163.1,65.2,163.8,64.5z M147.9,59.7c-3.3-4-2.7-10,1.3-13.2s10-2.7,13.2,1.3s2.7,10-1.3,13.2
	C157.2,64.3,151.2,63.7,147.9,59.7z"/>
<path class="st1" d="M186,80.1c0.5-0.4,0.9-0.8,1.3-1.2l1.9,0.8l2.3-5.6l-1.9-0.8c0.1-1.4-0.1-2.8-0.7-4.2l1.6-1.4l-3.9-4.6
	l-1.6,1.4c-1.1-0.7-2.2-1.1-3.4-1.4l-0.3-2.1l-6,0.9l0.3,2c-0.7,0.3-1.3,0.7-1.8,1.2c-0.4,0.3-0.8,0.7-1.1,1.1l-1.8-0.8l-2.3,5.6
	l1.8,0.8c-0.1,1.5,0.1,2.9,0.6,4.3l-1.5,1.3l3.9,4.6l1.5-1.3c1.1,0.7,2.3,1.2,3.6,1.4l0.3,1.9l6-0.9l-0.3-2
	C184.8,80.9,185.4,80.6,186,80.1z M174.9,76.9c-2.3-2.8-1.9-7,0.9-9.3c2.8-2.3,7-1.9,9.3,0.9c2.3,2.8,1.9,7-0.9,9.3
	C181.3,80,177.2,79.7,174.9,76.9z"/>
<path class="st2" d="M431.7,188c1.5-0.4,3-0.9,4.4-1.5l3.8,4.2l12.3-11.1l-3.9-4.3c1.8-3.3,3-7,3.3-10.8l5.6-1.5l-4.1-16.1l-5.6,1.5
	c-1.8-2.9-4.2-5.3-6.9-7.3l1.6-5.5l-15.9-4.8l-1.6,5.4c-1.9,0-4,0.3-6,0.8c-1.4,0.4-2.7,0.8-4,1.4l-3.7-4.1l-12.3,11.1l3.6,4
	c-1.9,3.4-3.2,7.3-3.5,11.2l-5.1,1.3l4.1,16.1l5.1-1.3c1.9,3,4.4,5.5,7.3,7.5l-1.5,5.1l15.9,4.8l1.6-5.3
	C427.9,188.6,429.8,188.3,431.7,188z M408.1,166.7c-2.4-9.6,3.4-19.3,13.1-21.8c9.7-2.4,19.3,3.4,21.8,13.1
	c2.4,9.6-3.4,19.3-13.1,21.8C420.2,182.2,410.5,176.4,408.1,166.7z"/>
<path class="st1" d="M401.3,214.4c0.8-0.9,1.5-1.8,2-2.8l4.1,1l2.9-12l-4.2-1.1c-0.3-2.8-1.1-5.6-2.5-8.1l2.9-3.3l-9.2-8.2l-2.9,3.3
	c-2.3-1-4.8-1.5-7.3-1.6l-1.3-4.2l-11.8,3.7l1.3,4.1c-1.2,0.9-2.3,1.8-3.4,3c-0.7,0.8-1.4,1.6-1.9,2.5l-4-1l-2.9,12l3.9,1
	c0.2,2.9,1.1,5.8,2.6,8.4l-2.6,3l9.2,8.2l2.6-3c2.4,1.1,5,1.5,7.6,1.6l1.2,3.9l11.8-3.7l-1.3-4C399.3,216.4,400.4,215.4,401.3,214.4
	z M377.8,211.2c-5.5-4.9-6-13.3-1.1-19c4.9-5.5,13.3-6,19-1.1c5.5,4.9,6,13.3,1.1,19C391.9,215.6,383.4,216.1,377.8,211.2z"/>
<g>
	<path class="st1" d="M206.2,381.1c0-1.5-27.4-2.8-61.1-2.8S84,379.5,84,381.1s27.4,2.8,61.1,2.8C178.8,384,206.2,382.7,206.2,381.1
		z"/>
	<path class="st1" d="M214,342.3c11.5,0,20.7-10,19.4-21.7c-1-8.9-8.1-16.1-17-17.2c-7.1-0.9-13.4,2-17.5,7v-45.1h-1v-0.1h-44
		c4.7-4.1,7.5-10.4,6.7-17.3c-1.1-8.8-8.3-16-17.1-16.9c-11.8-1.3-21.8,7.9-21.8,19.4c0,5.9,2.7,11.3,6.9,14.9H83.9v89.5
		c0,14,11.3,25.3,25.3,25.3h89.7v-45C202.5,339.5,207.9,342.3,214,342.3z"/>
</g>
<path class="st1" d="M289.2,67.2l5.4,44.2c-4.5-4.4-11.3-6.5-18.2-4.8c-8.7,2.1-15,10.2-14.9,19.1c0.1,11.9,10.4,20.6,21.9,19.2
	c6.1-0.8,11.1-4.2,14.1-8.9l5.4,44.9l0.9-0.1v0.1l44-5.3c-4.4,4.5-6.6,11.3-4.9,18.2c2.1,8.7,10.2,15,19.1,14.9
	c11.8-0.1,20.6-10.4,19.2-21.9c-0.8-6.1-4.2-11.1-9-14.1l45-5.4l-10.7-88.5c-1.6-13.9-14.3-23.8-28.2-22.1L289.2,67.2z"/>
<polyline class="st3" points="312.6,179.6 358.8,25.6 393.7,169.9 "/>
<circle class="st2" cx="358.8" cy="27.2" r="8.4"/>
<path class="st4" d="M316.5,20.1l-0.6-0.7l0,0l0,0l-2.6-2.9l-3.7,2.3c1.5,1.4,2.9,2.4,3.2,4l-2.2,4.8l4.4,1.1l4-6.7
	C318.1,21.3,317.2,20.7,316.5,20.1z"/>
<path class="st5" d="M328.4,43.9c1.5,5.5,4.6,9.7-0.6,17.5l-14.2-9c1.2-2.1,2.1-4.2,2.3-6.4L328.4,43.9z"/>
<path class="st1" d="M311.9,37c-2.2-2.6-2.8-6.4-1.3-9.5l0,0c1.9,0.3,3.9-0.9,4.4-2.8l1.5-4.7c8.3,3.1,6.8,19,11.2,21.1l-12,2
	c-0.2-1.1-0.6-2.1-1.4-3.3L311.9,37z"/>
<path class="st6" d="M315.9,46c0.1-0.9,0.1-1.8-0.1-2.8l12-2c0.2,1,0.4,1.8,0.7,2.7L315.9,46z"/>
<path class="st5" d="M328.5,59.9c-0.6,2.1-2.5,3.4-5.7,3.9c-0.9,0.1-1.6,0.2-2.5,0.2l0,0c-2.2,0-4.5-0.4-6.7-1.3l-10.1-4l-4.2-1.6
	l-1.5-0.6c-1.3-0.5-2.5-0.6-3.8-0.5c-1.4,0.2-2.7,0.8-3.8,1.7c-2.3,2-3.3,5.3-2.1,8.2l1.5,4.2v0.1l-7.3,12.7l-0.1,0.1
	c0,0.1,0,0.2,0,0.2c1,4-2.6,3.7-10.3,2.8c-1.1-0.1-1.7-1.4,0.2-1.7l7.6-1.8v-0.1v-0.1l7-29c1.4-5.7,6.9-9.6,12.7-8.5l1.6,0.4
	l6.6,1.5l0,0l12.1,2.3c4.1,0.8,7.4,3.7,8.5,7.6C328.7,57.9,328.8,59,328.5,59.9z"/>
<path class="st7" d="M301.7,66.4l-4.5,0.6c4.5-0.6,3.1,16.6,5.4,31.2v0.1l0.1,0.1c3.1,2.8,0,4.5-7,8.1c-1,0.5-2.2-0.2-0.8-1.5
	l5.4-5.7v-0.1l-10.5-28.9l-1.5-4.2c-1.1-2.9-0.2-6.2,2.1-8.2c1.1-1,2.4-1.5,3.8-1.7c1.3-0.2,2.6,0,3.8,0.5l1.5,0.6l4.2,1.4l16.7,5.5
	L301.7,66.4z"/>
<path class="st2" d="M307.6,44.1l-0.5,2.4L290.2,43c0,0-5.5-17.7-5.4-17.7c0.2,0,2.3-0.4,2.3-0.4l5.3,15.8L307.6,44.1z"/>
<g>
	<g>
		<path class="st4" d="M312.6,10.8c-1.7-2.5-5.1-4.7-7.3-4.1c-2.7,0.9-4.4,3.2-2,10.2c0.1,0.3,0.3,0.6,0.4,0.9
			c-0.2,0.3-0.4,0.6-0.3,0.8c0.1,0.2,0.5,0.2,0.8,0.1c0,0,0,0,0.1,0c1.4,1.8,3.7,3,5.9,2.5c2.1-0.5,3.5-3.6,3.7-6.2
			C314.6,14.4,312.9,10.5,312.6,10.8z"/>
		<g>
			<g>
				<path class="st6" d="M306.6,18.3c0.3-0.5,0.5-1.3,0.1-2.1c0-0.1-0.1-0.1-0.2-0.1c-0.1,0-0.1,0.1-0.1,0.2
					c0.8,1.5-0.7,2.5-0.8,2.6c-0.1,0-0.1,0.1,0,0.2c0,0.1,0.1,0.1,0.2,0C305.8,19.2,306.2,18.9,306.6,18.3z"/>
			</g>
		</g>
		<g>
			<g>
				<path class="st6" d="M304.8,15.8c0.2,0.4,0.2,0.9,0,1s-0.6-0.2-0.8-0.6c-0.2-0.4-0.2-0.9,0-1C304.3,15.2,304.6,15.4,304.8,15.8z
					"/>
			</g>
		</g>
		<g>
			<g>
				<path class="st6" d="M305,14.2L305,14.2c0.1-0.1,0-0.2,0-0.2c-0.8-0.6-1.5-0.2-1.6,0.2c-0.1,0.1,0,0.2,0,0.2
					c0.1,0.1,0.2,0.1,0.2,0c0,0,0.6-0.7,1.3-0.1C304.8,14.2,304.9,14.2,305,14.2z"/>
			</g>
		</g>
	</g>
</g>
<g>
	<path d="M301.2,14.2c1.3-0.2,3.4-0.9,4.7-1.4c1.4-0.5,2.8,0.1,3.6,1.3c0.7,1.2,1.5,2.3,1.6,2.6c0.3,0.5,0.9,1.3,0.2,3
		c-0.3,1-0.8,1.7-0.9,2.8c-0.3,1.9-0.1,4.3,1.8,5.4c1.3,0.8,3,0.3,4.1-0.7c-1.5,0.3-2.5-1.6-2.3-2.9c0.2-1.5,0.7-3.4,2.3-3.8
		c1.3-0.3,2.1-0.1,2.6,1.2c0.3,0.9,0.2,1.8,0.5,2.7c0.4,1.3,1.2,2.2,2.5,2.6c1.5,0.4,3.4,1,4.7-0.1c1-0.7,1.8-2.2,2.2-3.3
		c-0.9,0.5-1.5,0.8-2.4,0.4c-1.5-0.6-1-2-0.9-3.2c0.1-1.4-0.4-3.1-1.5-3.9c-0.7-0.5-2-0.4-2.9-0.6c-0.9-0.2-1.5-0.5-1.7-1.4
		c-0.2-0.7-0.3-1.4-0.4-2c-0.4-3-2.8-7.2-7.5-9.1c-1.3-0.5-2.7-0.3-4-0.1c-1,0.2-4.7,1.5-6.1,4C300,10.4,301.2,14.2,301.2,14.2z"/>
</g>
<path class="st4" d="M300.5,42.5l-7.2-1.6c0.6-2.8,3.8-3.1,8-0.2l22.5-2.5c0,0-1.7-2.3-4.8-7.1c1.6-1.2,2.5-1.9,4.4-3.5
	c4.5,7.8,5.6,10,5.2,13.6C328.3,46.3,300.5,42.5,300.5,42.5z"/>
<path class="st1" d="M323.5,27.6c-1.9,1.6-2.9,2.3-4.4,3.5c-2.3-3.5-4.2-6.8-4.5-7.6c-0.8-1.5,0.6-3.2,2.7-3.6
	c2.2-0.4,3.6,3.7,5.3,6.3C322.9,26.8,323.2,27.1,323.5,27.6z"/>
<path d="M272.1,86.1c-1.1-0.1-1.7-1.4,0.2-1.7l7.6-1.8v-0.1v-0.1l2.4,0.9C283.4,87.2,279.9,86.9,272.1,86.1z"/>
<path d="M295.7,106.4c-1,0.5-2.2-0.2-0.8-1.5l5.4-5.7v-0.1l2.4-0.8C305.8,101.1,302.6,102.9,295.7,106.4z"/>
<path class="st8" d="M429.1,381.2c0,1.2-15.3,2-34,2c-18.8,0-34-0.9-34-2s15.3-2,34-2C413.8,379.1,429.1,380,429.1,381.2z"/>
<path class="st8" d="M359.6,381.1c0-1.5-27.4-2.8-61.1-2.8s-61.1,1.3-61.1,2.8s27.4,2.8,61.1,2.8S359.6,382.7,359.6,381.1z"/>
<path class="st9" d="M364.3,284.2l-6-7.3c-7.6,4.1-17.4,6-27.2,6.6l0.2,0.8l-0.2-0.8c-1.5-0.6-2.7-0.8-3.6-0.9
	c-1.2-0.1-1.5,1.5-0.4,1.9l1.3,0.7l-1.5,0.3c-1.2,0.1-2.1,0.4-2.8,0.8c-1.9,1-1.5,4,0.7,4.3c3.4,0.4,7.2-3,7.2-3l0,0
	C342.8,288,355.5,287.9,364.3,284.2z"/>
<path class="st2" d="M373.6,274.6c0,0.9-0.2,1.6-0.8,2.5c-1,1.5-2.1,2.8-3.5,4s-2.8,2.1-4.4,2.8c-0.2,0.1-0.5,0.2-0.7,0.3l-6-7.3
	c2.8-1.5,5.4-3.3,7.5-5.4c1.1-1.1,2.5-1.5,4-1.3C372.1,270.5,373.6,272.5,373.6,274.6z"/>
<path class="st2" d="M314.6,281.5c0,11.5-10,20.7-21.8,19.4c-8.9-1-16.1-8.1-17.2-17c-0.8-7.1,2.1-13.4,7.1-17.5h-44.4v45.1
	c4.1-4.9,10.4-7.8,17.5-7c8.9,1.1,16.1,8.3,17,17.2c1.3,11.8-7.9,21.7-19.4,21.7c-6.1,0-11.5-2.8-15.1-7.2v45h88.9
	c14,0,25.3-11.3,25.3-25.3v-89.4h-45.3C311.8,269.9,314.6,275.4,314.6,281.5z"/>
<g>
	<path class="st10" d="M366.5,262.7c0,0,2.9,4.2,4.7,7.9c0.9,1.8-3.2,5.6-3.4,5.6c-0.3,0-0.5-0.2-0.6-0.5c-0.6-2-1.8-5.4-4.3-7.6
		L366.5,262.7z"/>
	<g>
		<path class="st9" d="M368.3,259.6c-1.6-3-5-5.9-7.4-5.4c-3.1,0.6-5.4,2.9-3.6,10.9c0.1,0.4,0,0.2,0.1,0.5
			c-0.3,0.3-0.5,0.6-0.4,0.9c0.1,0.3,0.5,0.3,0.9,0.2c0,0,0,0,0.1,0c1.3,2.2,3.9,4.4,6.3,4.1c2.4-0.3,4.4-3.4,4.8-6.4
			C370,263.8,368.6,259.3,368.3,259.6z"/>
		<g>
			<path class="st6" d="M360.5,267.2c0.4-0.5,0.7-1.3,0.4-2.3c0-0.1-0.1-0.1-0.2-0.1s-0.1,0.1-0.1,0.2c0.7,1.8-1.1,2.7-1.2,2.7
				s-0.1,0.1-0.1,0.2s0.1,0.1,0.2,0.1C359.7,267.9,360.1,267.6,360.5,267.2z"/>
		</g>
		<g>
			<path class="st6" d="M359.1,264.2c0.2,0.5,0.1,1-0.1,1.1c-0.3,0.1-0.6-0.3-0.8-0.8c-0.2-0.5-0.1-1,0.1-1.1
				C358.5,263.3,358.9,263.7,359.1,264.2z"/>
		</g>
		<g>
			<path class="st6" d="M359.5,262.3L359.5,262.3c0.1-0.1,0.1-0.2,0-0.2c-0.8-0.8-1.5-0.4-1.8-0.1c-0.1,0.1-0.1,0.2,0,0.2
				c0.1,0.1,0.2,0.1,0.2,0c0,0,0.7-0.7,1.5,0.1C359.3,262.3,359.4,262.3,359.5,262.3z"/>
		</g>
	</g>
</g>
<path class="st11" d="M410.4,375.5c1.8,4.8-2.2,4.8-11.7,4.7c-1.4,0-2.2-1.4,0-2.1l6.9-3c0,0,4.1,0,4.7,0L410.4,375.5z"/>
<path class="st12" d="M388.8,303.5l10.6-7.6l0,0c4.4,4.5,6.2,11,4.8,17.1c-0.6,2.5-1.1,4.8-1.1,6c-0.1,18.2,2,37.1,7.2,56.1h-4.7
	C396.8,355.6,391.1,331.4,388.8,303.5z"/>
<path class="st2" d="M383.5,306.9l16.2-10.6c-10.2-8.7-13-21.4-20.1-25.9c-2.7-1.7-5.6-2.5-8.5-1.9c-4.4,0.9-7.3,5.3-6.1,9.7
	c0.7,2.6,2.9,5.4,5.6,8.3c4.2,4.6,7.6,10,10.4,15.6L383.5,306.9z"/>
<path class="st12" d="M383.5,306.9c-13.6,21.5-10.3,43.6,9.8,66.4l4.1-0.9l-9.7-20.7c-3.9-8.2-4.1-17.7-0.7-26.2l12.8-29.3
	L383.5,306.9z"/>
<path class="st11" d="M397.5,372.5l-4.1,0.9l-1.2,3.8c-0.4,1.2-1.3,2.1-2.4,2.6c-0.2,0.1-0.5,0.2-0.7,0.4c-0.7,0.5-0.3,1.6,0.6,1.6
	h2.3c1.4,0,2.7-0.7,3.5-1.8l2.5-3.8C397.9,376.1,399.4,374.4,397.5,372.5z"/>
<path class="st9" d="M367.7,284.9l-7.3-6c-6.7,5.5-15.9,9.3-25.3,11.9l0.3,0.8l-0.3-0.8c-1.6-0.3-2.8-0.3-3.7-0.1
	c-1.2,0.2-1.2,1.8,0,2l1.4,0.4l-1.5,0.6c-1.2,0.4-2,0.9-2.6,1.4c-1.7,1.4-0.7,4.3,1.5,4.1c3.4-0.3,6.5-4.4,6.5-4.4l0,0
	C347.5,293,359.8,290.3,367.7,284.9z"/>
<path class="st2" d="M374.9,273.7c0.2,0.8,0.1,1.7-0.2,2.6c-0.7,1.6-1.5,3.2-2.6,4.5c-1.1,1.4-2.3,2.6-3.8,3.7
	c-0.2,0.2-0.4,0.3-0.6,0.4l-7.3-6c2.5-2,4.6-4.3,6.3-6.9c0.9-1.3,2.2-2,3.7-2C372.6,270,374.5,271.6,374.9,273.7z"/>
<g>
	<path d="M373.4,260.4c-0.2-0.3-0.6-0.6-0.9-0.8c-0.5-0.3-0.5-0.1-0.7-0.7c-0.3-1.4-0.6-2.6-1.4-3.9c-0.4-0.7-2.6-3.1-3.4-1.5
		c0.1-1.3-1.3-3-2.4-3.5c-1.2-0.4-2.4,0.7-2.3,1.8c-0.9-0.5-2.1-0.6-3-0.4c-0.6,0.1-2.5,1-1.8,1.8c-1.2,0.4-2.4,1.2-2.8,2.4
		c-0.1,0.3-0.2,0.7-0.4,1.1c-0.3,1,0.8,1.9,1.6,1.5l0,0c-0.2,0.6-0.7,1.2,0.1,1.6c0.8,0.4,1.6-0.2,2.1,0c0.4,0.2,0.5,0.6,1.1,0.7
		c0.3,0.1,0.8,0.1,1.2,0c0.8-0.1,1.5-0.5,2-1c-0.2,1.7,0.7,3,2.6,2.6c-0.3,1.6-0.9,3.2,0.8,4.2c0.7,0.4,1.5,0.7,2.3,0.5
		c0.4-0.1,0.6-0.5,0.9-0.7c0.2-0.1,0.1-0.2,0.3-0.2c0.2,0,0.6,0.1,0.8,0.1c1.8,0.1,3.1-1.5,3.4-3.2
		C373.7,262.2,373.8,261.1,373.4,260.4z"/>
</g>
<ellipse class="st9" cx="364.4" cy="262.3" rx="1.4" ry="2.1"/>
<path class="st8" d="M75.7,388c0,1.2-15.3,2-34,2s-34-0.9-34-2s15.3-2,34-2S75.7,386.9,75.7,388z"/>
<g>
	<path d="M47.9,265.4c-1-1.9-2.2-3.7-3.2-5.5l-1.4,11.2c0,0,2,0.2,2.7,0.3c0.7,0.1,2.5,0.1,2.9,0.7C50,270.1,48.9,267.3,47.9,265.4z
		"/>
</g>
<g>
	<path d="M36.8,259.5l-1.4,11.2c0,0,2,0.2,2.7,0.3c0.7,0.1,2.5,0.1,2.9,0.7c1.1-2-0.1-4.8-1.1-6.7C39,263.1,37.7,261.4,36.8,259.5z"
		/>
</g>
<path class="st9" d="M56.8,277.3c0,0-3.7-2.5-2.7-3.4c0.3-0.2,2.1,1.5,3.6,2.3L56.8,277.3z"/>
<path class="st1" d="M65.8,260.4c-3.9,1.8-9.2,5.2-15.1,5.8l0.1,4.6c6.3-0.8,10.8,1.5,15.4,2.6L65.8,260.4z"/>
<path class="st2" d="M66.2,273.4c-0.8,0-1.5-1.5-1.9-3.7c-0.2-0.9-0.3-1.8-0.3-2.8c0-1.1,0-2,0.1-2.9c0.3-2.2,0.9-3.6,1.6-3.7
	c1.1,0,2,2.7,2.1,6.5C68.1,270.6,67.2,273.4,66.2,273.4z"/>
<path class="st13" d="M64.4,270c-0.1,0-0.1,0-0.2-0.1c-0.2-0.9-0.3-1.8-0.3-2.8c0-1.1,0-2,0.1-2.9c0.1-0.1,0.1-0.1,0.2-0.1
	c0.5,0,1,1.3,1,2.9S65,269.9,64.4,270z"/>
<path class="st2" d="M52,268.4c0,1-0.7,1.7-1.6,1.7s-1.7-0.7-1.7-1.6s0.7-1.7,1.6-1.7C51.1,266.7,52,267.5,52,268.4z"/>
<path class="st14" d="M50.9,271.4L50.9,271.4c-0.3,0-0.6-0.2-0.6-0.5l-0.1-4.5c0-0.3,0.2-0.6,0.5-0.6l0,0c0.3,0,0.6,0.2,0.6,0.5
	l0.1,4.5C51.4,271.1,51.2,271.4,50.9,271.4z"/>
<path class="st15" d="M55.6,277.4L55.6,277.4c-0.6,0-1-0.4-1-1l-0.2-7.3l1.9-0.1l0.2,7.3C56.6,276.9,56.2,277.4,55.6,277.4z"/>
<path class="st9" d="M63.1,293.6l-4.2-16.2c0,0,0.7-5.3-3.6-5.9c-1.5-0.2-2.2,1.7-1.1,2.6c0.4,0.3,0.9,0.5,1.5,0.7
	c0.7,0.2,1.2,0.9,1.1,1.6l-0.2,1.1l0,0l1.5,13.5l-6.7-10.2l-2.9-4.4c-0.8-1.4-1.9-2-3-2c-1.1,0-2,0.7-2.6,2.1
	c-0.5,1.3-0.2,2.7,0.7,3.7l3.2,4.3l8,9.7C59.8,299.7,63.6,297.3,63.1,293.6z"/>
<path class="st1" d="M51.6,280.7c-1.8,1.1-3.6,2.7-4.5,3.7l-3.2-4.3c-0.9-1-1.2-2.4-0.7-3.7c0.6-1.5,1.5-2.1,2.6-2.1
	c1.1,0,2.2,0.7,3,2L51.6,280.7z"/>
<g>
	<path class="st9" d="M53.7,314.3L53.7,314.3L53.7,314.3z"/>
	<path class="st9" d="M55.4,306.6C55.5,306.3,55.4,306.6,55.4,306.6L55.4,306.6z"/>
</g>
<path class="st16" d="M37,276"/>
<path class="st9" d="M46.8,281.1c-5.1-0.5-8-4.2-9.3-6.1l0.9-1.5c0.5-0.9,1-1.8,1.3-2.8l0.9-2.7l3.7,1.5c-0.5,1.4-0.4,2.7,0.1,4.2
	c0.3,0.7,0.8,1.2,1.4,1.5l0,0l1.5,0.7C50.8,280.6,46.8,281.1,46.8,281.1z"/>
<g>
	<path class="st9" d="M36.2,267.4c-0.7-1-1-2.4-0.1-2.8c0.3-0.1,0.6-0.2,1-0.1c-0.6-3.2,0.2-7.3,2.3-8.5c2.7-1.5,5.7-1.1,9.2,6
		c1.4,2.8,0.7,6.7-1.8,8.3c-1.9,1.3-5.3,0-7.3-1.8C38.2,268.6,37.1,268.6,36.2,267.4z"/>
	<g>
		<g>
			<g>
				<path class="st6" d="M46.3,264.8C46.3,264.7,46.3,264.7,46.3,264.8c0.4-0.2,0.8-0.5,0.7-0.8c-0.1-0.5-1.2-0.5-1.5-0.5
					c-0.1,0-0.2,0.1-0.2,0.2s0.1,0.2,0.2,0.2c0.6,0,1.3,0.1,1.3,0.3c0,0,0,0.1-0.5,0.4c-0.1,0-0.1,0.2-0.1,0.2
					C46.2,264.7,46.3,264.8,46.3,264.8z"/>
			</g>
		</g>
		<g>
			<g>
				<path class="st6" d="M46.8,266.8c0.2-0.1,0.3-0.1,0.3-0.1c0.1-0.1,0.1-0.2,0.1-0.3c-0.1-0.1-0.2-0.1-0.3-0.1
					c-0.1,0-2,1.2-3.4-0.7c-0.1-0.1-0.2-0.1-0.3,0c-0.1,0.1-0.1,0.2,0,0.3C44.4,267.5,46.2,267.1,46.8,266.8z"/>
			</g>
		</g>
		<path class="st6" d="M42.3,263.6"/>
		<g>
			<g>
				<path class="st6" d="M40.6,263c0.1,0,0.1-0.1,0.1-0.2c0.2-1.2,1.3-1.2,1.3-1.1c0.1,0,0.2-0.1,0.2-0.2s-0.1-0.2-0.2-0.2
					c-0.5,0-1.5,0.2-1.6,1.5C40.4,262.9,40.4,263,40.6,263C40.5,263,40.5,263,40.6,263z"/>
			</g>
		</g>
		<g>
			<g>
				<path class="st6" d="M45.1,260.4c0.1,0,0.1,0,0.2,0c0.8-0.7,1.4,0,1.5,0c0.1,0.1,0.2,0.1,0.2,0c0.1-0.1,0.1-0.2,0-0.2
					c-0.3-0.3-1.1-0.7-1.8,0C45,260.2,45,260.3,45.1,260.4L45.1,260.4z"/>
			</g>
		</g>
		<path class="st6" d="M42.4,263.5c0.2,0.4,0.4,0.7,0.6,0.6c0.2-0.1,0.2-0.5,0.1-0.9c-0.1-0.4-0.4-0.7-0.6-0.6
			C42.3,262.7,42.2,263.1,42.4,263.5z"/>
		<path class="st6" d="M46,262.2c0.2,0.4,0.4,0.7,0.6,0.6c0.2-0.1,0.2-0.5,0.1-0.9c-0.1-0.4-0.4-0.7-0.6-0.6S45.9,261.8,46,262.2z"
			/>
	</g>
</g>
<path class="st11" d="M46.1,381.4L46.1,381.4L46.1,381.4c0-0.5,0.2-1,0.4-1.5c0.2-0.4,0.5-0.9,0.7-1.5l3.4,0.7l0,0
	c0.4,1.4,0.6,2.2,1,3.1c0.5,1.4,1.2,1.8,2.4,2.2c0.3,0.1,0.8,0.1,1,0.2c1.2,0.4,1.3,1.6,1.1,2.8l-3.1,0.6c-1.2,0.1-1.7-0.3-2.3-1.2
	c-0.8-1.2-1.6-2.1-2.6-2.9l-0.1,3.7h-0.7l-0.9-5.4C46.1,381.9,46,381.7,46.1,381.4z"/>
<path class="st11" d="M24.1,386l1.1-4.6l0,0c0.1-0.7,0.5-1.3,1.1-1.8c0.3-0.3,0.8-0.5,1.2-1l2.9,1.7l0,0c-0.2,1.5-0.3,2.3-0.3,3.3
	c-0.1,1.5,0.4,2.1,1.4,3c0.2,0.2,0.7,0.4,0.9,0.6c1,0.8,0.6,1.9-0.1,3l-3.1-0.7c-1.1-0.3-1.5-1-1.7-1.9c-0.2-1.4-0.7-2.5-1.3-3.6
	l-1.5,2.5L24.1,386z"/>
<path class="st1" d="M37,276l0.6-1c2.5-1,4.4,3.2,8.3,4c1.7,0.3,2.8-1.9,1.4-2.9c0,0,0,0-0.1,0l0.6,0.3c1.5,0.8,3,1.5,4.1,2.5
	c1.5,1.3,2.3,2.9,1.9,5.5l-1.5,5.7c-0.6,2.6-0.5,5.1-0.1,7.5H41.5c-1.1-4.9-5.1-13.2-5.3-14.4C35.8,279.8,37.5,279.1,37,276z"/>
<path class="st17" d="M57.1,337.6c0.6,10-6.6,41.3-6.6,41.5c-1.2-0.1-2.2-0.3-3.4-0.4c1.4-5.9,0.9-18.9,0.8-20.3
	c-0.1-1.5,0-3.4,1.5-4.3c0,0-0.5-7.9-1.3-16.1c-0.6-5.7-1.2-11.7-1.9-15.1c-0.6,4.5-1.3,10.1-2,15.3c-1.1,7.4-2.2,14.1-3,16.3
	c-3.1,9-7.2,18.8-10.7,25.7c-1-0.6-1.9-1.1-2.9-1.7c3.7-5.3,4.3-24.6,8-24.1c0.2-4.9-1.9-33.7-1.4-37.1c0.6-3.2,1.6-6.4,3.3-9.3
	c1.5-2.6,3.9-4.8,4.4-7.8H53c1.5,5.6,4.2,11.1,4.1,17.1c0,0.1,0,0,0,0.1c-0.1,8,0.1,9,0.1,17.6v0.1c0,0.2,0,0.4,0,0.5
	C57.1,336,57,337,57.1,337.6z"/>
<path class="st9" d="M42.3,321.9c0,0-2.9,2.8-7.2-4.8l-10.3-16.4c-1.3-2-1.4-4.6-0.2-6.7l6.9-12l2.2-4c3.7-6.4,10.2-2.6,5.1,4.5
	l-2.4,3.8l-6.8,10.5l7.8,18.6l4.6,3.2c0,0-0.5,1-2.1,0.1C39.9,318.8,43.4,320.7,42.3,321.9z"/>
<path class="st1" d="M38.8,282.5l-2.4,3.8c-1.2-1.9-3.7-3.6-4.9-4.4l2.2-4C37.4,271.6,43.8,275.4,38.8,282.5z"/>
<path class="st11" d="M41.8,300c0.1-0.7,0-1.5-0.2-2.6h10.6c0.2,0.9,0.4,1.8,0.6,2.7L41.8,300C41.8,300.1,41.8,300,41.8,300z"/>
<g>
	<path d="M45.1,256.8c0.5-0.1,0.1,1.5-0.3,1.6c-0.7,0.6-1.5,0.3-2.2,0c0.1,2-2,2.4-3.6,2.5c1,1.4,1.7,4.1,0.1,5.1
		c-0.4,0.3-0.9,0.2-0.8,0.8c0.6,3.9,4.4,6,4.4,6c-2,0.9-8.1-2.1-8.1-2.1c-0.3-0.3-5-5.2-1.5-13.2c1.4-3.1,5.5-3.2,7.9-3.3
		c1.4-0.1,3.3,0.3,4.4,1.1c0.5,0.4,0.9,1.1,1.1,1.6c0.3,0.7,0,1.3-0.8,0.7"/>
</g>
<path class="st4" d="M137,196.1c-2.9-1.7-3.8-6.9-3.8-6.9c-7.1-5-14.7-11.1-19.8-17.6c-1.5-1.9-2.8-3.9-3.9-5.9
	c-1.4-2.6-2-5.5-2-8.4c0-0.6,0-1.2,0.1-1.8c0.3-3.3,3.9-5.1,6.8-3.6c1.3,0.7,2.1,2,2.3,3.5c0.6,4.7,2.4,9.4,5,13.8
	c3.7,6.2,8.9,12,14.6,17.2c1.5,0.5,2.6,1.1,3.4,1.5c1,0.7,0.2,2.1-0.9,1.8l-1.5-0.3l1,1.2c0.9,0.9,1.4,1.6,1.7,2.3
	C141.1,195.1,138.8,197.2,137,196.1z"/>
<path class="st1" d="M121.8,169.3l-8.3,2.3c-1.5-1.9-2.8-3.9-3.9-5.9c-1.4-2.6-2-5.5-2-8.4c0-0.6,0-1.2,0.1-1.8
	c0.3-3.3,3.9-5.1,6.8-3.6c1.3,0.7,2.1,2,2.3,3.5C117.2,160.1,119.1,164.8,121.8,169.3z"/>
<path class="st2" d="M176.4,196.8c-2.4-11.2,5.4-22.3,17.2-23.5c8.9-0.9,17.4,4.5,20.3,13c2.3,6.6,0.9,13.3-3,18.4l43-9.2l-9.4-44.2
	c-2.9,5.6-8.5,9.9-15.6,10.5c-8.9,0.9-17.5-4.7-20.3-13.2c-3.8-11.2,3.2-22.9,14.4-25.3c6-1.3,11.9,0.3,16.2,3.9l-9.3-43.6
	l-86.8,18.5c-13.7,2.9-22.4,16.3-19.5,30.1l18.5,87.1l43.8-9.3C181.3,207.3,177.7,202.6,176.4,196.8z"/>
<path class="st18" d="M108.8,140.5c0,0-1.5,4.8-1.9,9.1c-0.3,1.9,4.8,4.4,5,4.3c0.3-0.1,0.5-0.3,0.4-0.7c-0.1-2,0-5.7,1.5-8.6
	L108.8,140.5z"/>
<g>
	<path class="st4" d="M107,142.9c1.5,2.6,4.3,5,6.6,4.4c2.4-0.6,4.2-3.4,4.6-5.9h0.1c0.3-0.1,0.7-0.2,0.7-0.5c0-0.3-0.3-0.5-0.7-0.7
		c0-0.4,0-0.2,0-0.5c-0.9-8.2-3.8-9.7-6.9-9.2c-1.4,0.2-2.7,1.5-3.7,3.2C106,136.9,106.5,142.1,107,142.9z"/>
	<g>
		<path class="st6" d="M115.9,142.8c-0.6-0.4-1.1-1-1.1-2c0-0.1,0.1-0.2,0.2-0.2s0.2,0.1,0.2,0.2c0,1.9,1.8,2.2,1.9,2.2
			c0.1,0,0.2,0.1,0.1,0.2c0,0.1-0.1,0.2-0.2,0.1C117,143.3,116.5,143.2,115.9,142.8z"/>
	</g>
	<g>
		<path class="st6" d="M116.4,139.5c0,0.6,0.2,1,0.5,1s0.5-0.4,0.5-1s-0.2-1-0.5-1S116.4,139,116.4,139.5z"/>
	</g>
	<g>
		<path class="st6" d="M115.4,137.9L115.4,137.9c-0.1-0.1-0.1-0.2-0.1-0.2c0.5-1,1.4-0.9,1.7-0.7c0.1,0,0.1,0.1,0.1,0.2
			c0,0.1-0.1,0.1-0.2,0.1c0,0-0.9-0.4-1.4,0.5C115.6,137.9,115.5,137.9,115.4,137.9z"/>
	</g>
</g>
<path d="M110.9,261c-1.8,4.8,1.9,4.9,11.3,4.9c1.4,0,2.2-1.4,0-2.1l-7.3-3c0,0-3.3,0-4.1,0V261z"/>
<path d="M89,260.6c-1.8,4.8,2.2,4.8,11.7,4.7c1.4,0,2.2-1.4,0-2.1l-6.9-3c0,0-4.1,0-4.7,0L89,260.6z"/>
<path class="st19" d="M116.5,188.4H99.8c7.6,22.8,11.2,47,11.2,72.3h4C118.8,237.1,119.4,213,116.5,188.4z"/>
<path class="st19" d="M110.5,188.4H97c-2.6,5.7,0.4,12.4,0.4,12.4c0,19.1-3.1,39.6-8.4,59.5h4.7
	C102.6,240.9,108.2,216.3,110.5,188.4z"/>
<path class="st1" d="M116.5,188.4H97c3.7-12.9-0.9-24.9,2.6-32.7c1.4-2.9,3.3-5.1,6.1-6.3c4.2-1.6,9,0.5,10.3,4.7
	c0.9,2.6,0.5,6.1-0.1,10.1c-1,6.2-1,12.5-0.2,18.8L116.5,188.4z"/>
<path class="st4" d="M146.8,128.9c-1.7,2.9-6.9,3.8-6.9,3.8c-5.3,7.5-11.8,15.5-18.7,20.6l-2.5-8.4c6.6-3.7,12.9-9.3,18.5-15.5
	c0.5-1.5,1.1-2.6,1.5-3.4c0.7-1,2.1-0.2,1.8,0.9l-0.3,1.5l1.2-1c0.9-0.9,1.6-1.4,2.3-1.7C145.9,124.8,148,127,146.8,128.9z"/>
<path class="st1" d="M121.3,153.3c-1.5,1.2-3.2,2.2-4.8,3c-2.6,1.4-5.5,2-8.5,2c-0.6,0-1.2,0-1.7-0.1c-3.3-0.3-5.1-3.9-3.6-6.8
	c0.7-1.3,2-2.1,3.5-2.3c4.3-0.5,8.5-2,12.6-4.4L121.3,153.3z"/>
<g>
	<path d="M111.1,141.7c1.2-1.5,2-3.3,1.9-5.1c0.3,0.2,0.8,0.4,1.2,0.5c3,0.7,6.3-0.3,8.5-2.4c-3.1-1.5-5.4-3.9-7-4.6
		c-1.5-0.8-3.1-1.1-4.6-0.8c-0.5,0.1-0.9,0.3-1.4,0.5c-0.4,0.3-0.6,0.8-1,1c-0.2,0.1-0.4,0.1-0.7,0.1c-2.1-0.2-4.3,2-4.5,3.9
		C102.1,146,109.3,144.2,111.1,141.7z"/>
</g>
</svg>
