<svg xmlns="http://www.w3.org/2000/svg" xmlns:xlink="http://www.w3.org/1999/xlink" width="100" zoomAndPan="magnify" viewBox="0 0 75 74.999997" height="100" preserveAspectRatio="xMidYMid meet" version="1.0"><defs><clipPath id="8f83f17d1d"><path d="M 27 1.320312 L 48 1.320312 L 48 22 L 27 22 Z M 27 1.320312 " clip-rule="nonzero"/></clipPath><clipPath id="154e585d75"><path d="M 2.46875 42 L 23 42 L 23 63 L 2.46875 63 Z M 2.46875 42 " clip-rule="nonzero"/></clipPath><clipPath id="0b62dd549e"><path d="M 52 41 L 72.21875 41 L 72.21875 62 L 52 62 Z M 52 41 " clip-rule="nonzero"/></clipPath><clipPath id="d0b26986f7"><path d="M 23 63 L 52 63 L 52 68.820312 L 23 68.820312 Z M 23 63 " clip-rule="nonzero"/></clipPath><clipPath id="3d6fc6b9ec"><path d="M 23 62 L 29 62 L 29 68.820312 L 23 68.820312 Z M 23 62 " clip-rule="nonzero"/></clipPath></defs><g clip-path="url(#8f83f17d1d)"><path fill="#ffffff" d="M 33.402344 12.058594 C 33.402344 12.058594 33.402344 12.0625 33.402344 12.058594 C 33.402344 12.058594 33.402344 12.0625 33.402344 12.058594 Z M 41.644531 12.878906 C 41.644531 12.878906 41.640625 12.878906 41.640625 12.882812 C 41.644531 12.878906 41.644531 12.878906 41.644531 12.878906 Z M 29.300781 20.1875 L 45.636719 20.1875 C 45.351562 17.300781 43.546875 14.738281 40.871094 13.519531 C 40.519531 13.359375 40.277344 13.035156 40.226562 12.652344 C 40.175781 12.273438 40.320312 11.902344 40.613281 11.652344 C 41.714844 10.726562 42.347656 9.367188 42.347656 7.925781 C 42.347656 6.558594 41.796875 5.292969 40.796875 4.359375 C 39.796875 3.425781 38.492188 2.964844 37.121094 3.058594 C 34.679688 3.226562 32.738281 5.199219 32.601562 7.640625 C 32.515625 9.195312 33.140625 10.65625 34.328125 11.652344 C 34.621094 11.902344 34.765625 12.277344 34.714844 12.65625 C 34.660156 13.039062 34.417969 13.363281 34.066406 13.519531 C 31.394531 14.738281 29.585938 17.300781 29.300781 20.1875 Z M 46.476562 21.789062 L 28.460938 21.789062 C 28.019531 21.789062 27.660156 21.429688 27.660156 20.988281 C 27.660156 17.394531 29.640625 14.089844 32.761719 12.378906 C 31.535156 11.089844 30.898438 9.367188 31 7.550781 C 31.179688 4.300781 33.765625 1.683594 37.007812 1.460938 C 38.828125 1.332031 40.5625 1.949219 41.890625 3.183594 C 43.199219 4.40625 43.949219 6.132812 43.949219 7.921875 C 43.949219 9.59375 43.308594 11.179688 42.171875 12.378906 C 45.296875 14.089844 47.277344 17.394531 47.277344 20.988281 C 47.277344 21.429688 46.917969 21.789062 46.476562 21.789062 Z M 46.476562 21.789062 " fill-opacity="1" fill-rule="evenodd"/></g><g clip-path="url(#154e585d75)"><path fill="#ffffff" d="M 16.347656 53.246094 Z M 4.113281 61.371094 L 20.445312 61.371094 C 20.160156 58.484375 18.355469 55.925781 15.679688 54.703125 C 15.328125 54.542969 15.085938 54.21875 15.035156 53.839844 C 14.984375 53.460938 15.125 53.085938 15.417969 52.839844 C 16.523438 51.910156 17.15625 50.550781 17.15625 49.109375 C 17.15625 47.742188 16.605469 46.476562 15.605469 45.542969 C 14.605469 44.609375 13.300781 44.148438 11.929688 44.242188 C 9.488281 44.414062 7.546875 46.382812 7.410156 48.824219 C 7.324219 50.378906 7.953125 51.84375 9.136719 52.839844 C 9.429688 53.089844 9.574219 53.460938 9.519531 53.839844 C 9.46875 54.222656 9.226562 54.546875 8.875 54.703125 C 6.203125 55.921875 4.398438 58.484375 4.113281 61.371094 Z M 21.285156 62.972656 L 3.273438 62.972656 C 2.828125 62.972656 2.46875 62.613281 2.46875 62.171875 C 2.46875 58.578125 4.453125 55.273438 7.574219 53.566406 C 6.347656 52.273438 5.707031 50.550781 5.808594 48.734375 C 5.992188 45.484375 8.574219 42.867188 11.820312 42.644531 C 13.640625 42.519531 15.371094 43.132812 16.699219 44.371094 C 18.007812 45.589844 18.761719 47.320312 18.761719 49.109375 C 18.761719 50.777344 18.121094 52.367188 16.984375 53.566406 C 20.105469 55.273438 22.085938 58.578125 22.085938 62.171875 C 22.085938 62.613281 21.726562 62.972656 21.285156 62.972656 Z M 21.285156 62.972656 " fill-opacity="1" fill-rule="evenodd"/></g><g clip-path="url(#0b62dd549e)"><path fill="#ffffff" d="M 58.59375 51.710938 Z M 54.492188 59.839844 L 70.824219 59.839844 C 70.539062 56.953125 68.730469 54.390625 66.058594 53.171875 C 65.707031 53.011719 65.46875 52.691406 65.414062 52.308594 C 65.363281 51.929688 65.503906 51.554688 65.796875 51.308594 C 66.902344 50.375 67.535156 49.019531 67.535156 47.574219 C 67.535156 46.210938 66.984375 44.941406 65.984375 44.007812 C 64.984375 43.078125 63.679688 42.617188 62.308594 42.710938 C 59.871094 42.878906 57.925781 44.847656 57.789062 47.292969 C 57.703125 48.84375 58.332031 50.308594 59.515625 51.304688 C 59.8125 51.554688 59.953125 51.929688 59.902344 52.308594 C 59.847656 52.6875 59.605469 53.011719 59.253906 53.171875 C 56.582031 54.390625 54.777344 56.949219 54.492188 59.839844 Z M 71.664062 61.441406 L 53.652344 61.441406 C 53.210938 61.441406 52.851562 61.082031 52.851562 60.640625 C 52.851562 57.046875 54.832031 53.742188 57.953125 52.03125 C 56.726562 50.742188 56.085938 49.019531 56.1875 47.203125 C 56.371094 43.953125 58.953125 41.335938 62.199219 41.113281 C 64.019531 40.984375 65.75 41.597656 67.078125 42.835938 C 68.386719 44.058594 69.136719 45.785156 69.136719 47.574219 C 69.136719 49.246094 68.5 50.835938 67.363281 52.03125 C 70.484375 53.742188 72.46875 57.046875 72.46875 60.640625 C 72.46875 61.082031 72.109375 61.441406 71.664062 61.441406 Z M 71.664062 61.441406 " fill-opacity="1" fill-rule="evenodd"/></g><g clip-path="url(#d0b26986f7)"><path fill="#ffffff" d="M 37.46875 68.523438 C 32.835938 68.523438 28.226562 67.398438 24.144531 65.273438 C 23.753906 65.066406 23.601562 64.585938 23.804688 64.191406 C 24.007812 63.800781 24.492188 63.648438 24.886719 63.851562 C 28.738281 65.859375 33.089844 66.921875 37.46875 66.921875 C 41.953125 66.921875 46.394531 65.808594 50.320312 63.707031 C 50.710938 63.5 51.195312 63.644531 51.40625 64.035156 C 51.613281 64.425781 51.46875 64.910156 51.078125 65.121094 C 46.921875 67.347656 42.214844 68.523438 37.46875 68.523438 Z M 37.46875 68.523438 " fill-opacity="1" fill-rule="evenodd"/></g><path fill="#ffffff" d="M 9.429688 39.558594 C 9.421875 39.558594 9.414062 39.554688 9.402344 39.554688 C 8.960938 39.542969 8.613281 39.171875 8.628906 38.730469 C 8.792969 33.59375 10.328125 28.59375 13.066406 24.261719 C 15.734375 20.046875 19.464844 16.574219 23.859375 14.21875 C 23.867188 14.214844 23.878906 14.207031 23.890625 14.203125 C 23.976562 14.15625 24.0625 14.113281 24.144531 14.066406 C 24.890625 13.679688 25.65625 13.324219 26.417969 13.007812 C 26.828125 12.835938 27.292969 13.03125 27.464844 13.441406 C 27.632812 13.851562 27.4375 14.320312 27.03125 14.488281 C 26.3125 14.789062 25.585938 15.125 24.882812 15.488281 C 24.792969 15.535156 24.703125 15.582031 24.613281 15.628906 C 24.605469 15.632812 24.59375 15.640625 24.585938 15.644531 C 16.039062 20.242188 10.539062 29.101562 10.230469 38.777344 C 10.214844 39.214844 9.859375 39.558594 9.429688 39.558594 Z M 9.429688 39.558594 " fill-opacity="1" fill-rule="evenodd"/><path fill="#ffffff" d="M 65.214844 36.320312 C 64.804688 36.320312 64.464844 36.011719 64.417969 35.613281 C 63.160156 27.164062 57.902344 19.707031 50.351562 15.648438 C 50.34375 15.640625 50.332031 15.636719 50.324219 15.632812 C 50.234375 15.582031 50.144531 15.535156 50.054688 15.488281 C 49.664062 15.285156 49.507812 14.804688 49.710938 14.410156 C 49.914062 14.019531 50.398438 13.863281 50.792969 14.066406 C 50.878906 14.109375 50.964844 14.15625 51.046875 14.203125 C 51.058594 14.207031 51.070312 14.214844 51.078125 14.21875 C 59.097656 18.515625 64.679688 26.433594 66.007812 35.398438 C 66.015625 35.4375 66.015625 35.476562 66.015625 35.515625 C 66.015625 35.957031 65.65625 36.320312 65.214844 36.320312 Z M 65.214844 36.320312 " fill-opacity="1" fill-rule="evenodd"/><path fill="#ffffff" d="M 25.296875 18.019531 C 25.195312 18.019531 25.089844 18 24.992188 17.960938 C 24.582031 17.789062 24.386719 17.320312 24.554688 16.910156 L 25.683594 14.183594 L 22.957031 13.054688 C 22.546875 12.886719 22.351562 12.417969 22.523438 12.007812 C 22.691406 11.601562 23.164062 11.40625 23.570312 11.574219 L 27.035156 13.011719 C 27.445312 13.179688 27.640625 13.648438 27.472656 14.058594 L 26.035156 17.527344 C 25.910156 17.835938 25.609375 18.019531 25.296875 18.019531 Z M 25.296875 18.019531 " fill-opacity="1" fill-rule="evenodd"/><g clip-path="url(#3d6fc6b9ec)"><path fill="#ffffff" d="M 25.640625 68.933594 C 25.304688 68.933594 24.988281 68.714844 24.878906 68.375 L 23.75 64.796875 C 23.6875 64.589844 23.707031 64.371094 23.804688 64.183594 C 23.902344 63.996094 24.070312 63.851562 24.273438 63.789062 L 27.855469 62.660156 C 28.277344 62.527344 28.726562 62.761719 28.859375 63.183594 C 28.992188 63.605469 28.757812 64.054688 28.335938 64.1875 L 25.519531 65.078125 L 26.40625 67.890625 C 26.539062 68.3125 26.304688 68.765625 25.882812 68.898438 C 25.804688 68.921875 25.722656 68.933594 25.640625 68.933594 Z M 25.640625 68.933594 " fill-opacity="1" fill-rule="evenodd"/></g><path fill="#ffffff" d="M 65.214844 36.320312 C 65.046875 36.320312 64.878906 36.269531 64.738281 36.164062 L 61.71875 33.933594 C 61.363281 33.667969 61.289062 33.167969 61.554688 32.8125 C 61.816406 32.453125 62.316406 32.378906 62.671875 32.644531 L 65.046875 34.398438 L 66.804688 32.027344 C 67.066406 31.671875 67.566406 31.59375 67.925781 31.859375 C 68.28125 32.121094 68.355469 32.625 68.089844 32.980469 L 65.859375 35.996094 C 65.699219 36.210938 65.460938 36.320312 65.214844 36.320312 Z M 65.214844 36.320312 " fill-opacity="1" fill-rule="evenodd"/></svg>