<svg width="111" height="110" viewBox="0 0 111 110" fill="none" xmlns="http://www.w3.org/2000/svg">
<g clip-path="url(#clip0_205_4518)">
<path d="M56.8926 26.3041H54.4829V23.9133C54.4829 8.27995 62.8256 0 78.5774 0H80.9862V2.3916C80.9862 18.0241 72.6436 26.3041 56.8926 26.3041ZM76.0768 4.87252C65.5962 5.58973 60.115 11.0297 59.3615 21.4622C70.0238 20.745 75.3842 15.4241 76.0768 4.87252Z" fill="black"/>
<path d="M76.168 110C72.2865 109.997 68.4641 109.064 65.0247 107.28C59.9538 104.585 53.8611 104.585 48.7911 107.28C45.3508 109.064 41.5284 109.997 37.6469 110C21.4442 110 8.73389 87.9397 8.73389 59.7826C8.73389 42.6543 21.7151 28.6953 37.6469 28.6953C40.6302 28.6953 43.5931 29.1901 46.4114 30.1604L55.3567 33.2386C56.3811 33.5897 57.4946 33.5897 58.5191 33.2386L67.4335 30.1604C70.2429 29.1945 73.1944 28.6997 76.168 28.6953C84.8715 28.6953 93.0033 32.8506 98.5454 40.0841L100.653 42.8636L97.2801 43.8199C88.6189 46.2973 82.85 54.4083 83.3997 63.338C83.9486 72.2677 90.6686 79.622 99.5689 81.0346L102.31 81.483L101.467 84.1136C96.4674 100.075 86.7395 110 76.168 110ZM56.8929 100.434C60.5061 100.462 64.0603 101.355 67.2526 103.035C70.0003 104.475 73.0612 105.224 76.168 105.217C84.0589 105.217 91.558 97.5945 96.0757 85.1601C85.7009 82.2711 78.5424 72.8676 78.5777 62.1733C78.6191 52.8749 84.0615 44.4347 92.5515 40.5027C88.1248 36.019 82.3118 33.4776 76.168 33.4776C73.7282 33.4785 71.3053 33.8822 68.9997 34.6739L60.0552 37.752C58.0152 38.4474 55.7996 38.4474 53.7605 37.752L44.7852 34.6739C42.4796 33.8822 40.0566 33.4776 37.6169 33.4776C24.3348 33.4776 13.5233 45.285 13.5233 59.7826C13.5233 84.4131 24.5457 105.217 37.6169 105.217C40.7237 105.225 43.7855 104.476 46.5323 103.035C49.7246 101.355 53.2788 100.462 56.8929 100.434Z" fill="black"/>
</g>
<defs>
<clipPath id="clip0_205_4518">
<rect width="110.833" height="110" rx="10" fill="white"/>
</clipPath>
</defs>
</svg>
