<?xml version="1.0" encoding="utf-8"?>
<!-- Generator: Adobe Illustrator 27.8.1, SVG Export Plug-In . SVG Version: 6.00 Build 0)  -->
<svg version="1.1" xmlns="http://www.w3.org/2000/svg" xmlns:xlink="http://www.w3.org/1999/xlink" x="0px" y="0px"
	 viewBox="0 0 750 500" style="enable-background:new 0 0 750 500;" xml:space="preserve">
<style type="text/css">
	.st0{fill:#B4CFFE;}
	.st1{fill:#32A4D5;}
	.st2{opacity:0.5;}
	.st3{fill:#383C56;stroke:#5C0000;stroke-miterlimit:10;}
	.st4{fill:#3C4D77;stroke:#5C0000;stroke-miterlimit:10;}
	.st5{fill:#7285B2;stroke:#5C0000;stroke-miterlimit:10;}
	.st6{fill:#FFFFFF;stroke:#5C0000;stroke-miterlimit:10;}
	.st7{fill:#B4CFFE;stroke:#5C0000;stroke-miterlimit:10;}
	.st8{fill:#EBAC3B;stroke:#5C0000;stroke-miterlimit:10;}
	.st9{fill:#32A4D5;stroke:#272525;stroke-miterlimit:10;}
	.st10{fill:#383C56;}
	.st11{fill:#E5B7AE;}
	.st12{fill:#4361B7;}
	.st13{fill:#5D95E8;}
	.st14{fill:#F1CBC2;}
	.st15{fill:#454E7C;}
	.st16{fill:#CA7E86;}
	.st17{fill:#50608F;}
	.st18{fill:#7285B2;}
	.st19{fill:#EBAC3B;}
	.st20{fill:#BD8A2F;}
	.st21{fill:#FFFFFF;}
	.st22{fill:#7BA9FA;}
	.st23{font-family:'Montserrat-Bold';}
	.st24{font-size:16.725px;}
	.st25{font-size:13.421px;}
	.st26{font-size:12.2151px;}
</style>
<g id="BACKGROUND">
</g>
<g id="OBJECTS">
	<g>
		<path class="st0" d="M495.8,180.4H301c-5,0-9.1-4.3-9.1-9.5l0-39.7c0-5.3,4.1-9.5,9.1-9.5h194.8c5,0,9.1,4.3,9.1,9.5l0,39.7
			C505,176.2,500.9,180.4,495.8,180.4z"/>
		<path class="st0" d="M125.1,142.7H78.8c-2.9,0-5.2-2.4-5.2-5.4l0-37.4c0-3,2.3-5.4,5.2-5.4h46.3c2.9,0,5.2,2.4,5.2,5.4l0,37.4
			C130.3,140.3,128,142.7,125.1,142.7z"/>
		<path class="st0" d="M477.7,333.8h-46.3c-2.9,0-5.2-2.4-5.2-5.4l0-37.4c0-3,2.3-5.4,5.2-5.4h46.3c2.9,0,5.2,2.4,5.2,5.4l0,37.4
			C482.9,331.3,480.6,333.8,477.7,333.8z"/>
		<path class="st0" d="M57.7,376.2H33.9c-1.5,0-2.7-1.2-2.7-2.8l0-19.2c0-1.5,1.2-2.8,2.7-2.8h23.8c1.5,0,2.7,1.2,2.7,2.8l0,19.2
			C60.4,374.9,59.2,376.2,57.7,376.2z"/>
		<path class="st0" d="M281.3,56.1h-23.8c-1.5,0-2.7-1.2-2.7-2.8l0-19.2c0-1.5,1.2-2.8,2.7-2.8h23.8c1.5,0,2.7,1.2,2.7,2.8l0,19.2
			C284,54.9,282.8,56.1,281.3,56.1z"/>
	</g>
	<g>
		<path class="st1" d="M682,206.3c3.8-7.1,6-15.2,6-23.8c0-16.2-7.7-30.6-19.6-39.8c3-5.2,4.8-11.3,4.8-17.8
			c0-19.6-15.9-35.4-35.4-35.4c-19.6,0-35.4,15.9-35.4,35.4c0,6.5,1.7,12.5,4.8,17.8c-11.9,9.2-19.6,23.6-19.6,39.8
			c0,8.6,2.2,16.7,6,23.8c-15.9,12.9-26.2,32.6-26.2,54.7c0,38.9,31.5,70.4,70.4,70.4c38.9,0,70.4-31.5,70.4-70.4
			C708.1,238.9,697.9,219.2,682,206.3z"/>
		<g class="st2">
			<path class="st1" d="M640.3,450.7h-5l0-277.6c0-1.4,1.1-2.5,2.5-2.5l0,0c1.4,0,2.5,1.1,2.5,2.5V450.7z"/>
			<path class="st1" d="M638.1,225.6l-2.2-2.2c-0.4-0.4-0.4-1,0-1.4l27.3-27.3c1-1,2.6-1,3.6,0l0,0c1,1,1,2.6,0,3.6l-27.3,27.3
				C639.1,226,638.5,226,638.1,225.6z"/>
			<path class="st1" d="M636.8,259.5l2.2-2.2c0.4-0.4,0.4-1,0-1.4l-27.3-27.3c-1-1-2.6-1-3.6,0l0,0c-1,1-1,2.6,0,3.6l27.3,27.3
				C635.8,259.9,636.4,259.9,636.8,259.5z"/>
		</g>
	</g>
	<path class="st0" d="M316.2,73.8h15.1c-0.5-1.1-0.7-2.2-0.7-3.4c0-4.7,3.8-8.5,8.5-8.5c1.6,0,3,0.4,4.3,1.2c0,0,0,0,0,0
		c-0.3-1.6-0.5-3.3-0.5-5c0-14.1,11.5-25.6,25.6-25.6c12.9,0,23.5,9.5,25.3,21.9c6.3-7.3,20.3,0.1,16.2,10.5
		c1.6-1.7,3.8-2.9,6.3-2.9c4.7,0,8.5,3.8,8.5,8.5c0,1.2-0.3,2.4-0.7,3.4h9.8c1.6,0,2.8,1.3,2.8,2.8v0c0,1.6-1.3,2.8-2.8,2.8h-51.5
		h-28h-38.2c-1.6,0-2.8-1.3-2.8-2.8v0C313.4,75,314.7,73.8,316.2,73.8z"/>
	<path class="st1" d="M175.8,453.6c16.5-10.4,25.3-41.6,25.3-41.6c-22.9,7-36.9,35-36.9,35c5.4-19.9-4.2-33.8-4.2-33.8
		c-10.2,7.7-9.1,34.2-9.1,34.2c-8.9-42.6-45.2-52.1-45.2-52.1c-2.9,22.9,6,47,27.6,57.4L175.8,453.6z"/>
	<g>
		<g>
			<path class="st3" d="M347.3,447v4.1h-68.8c-21.2,0-18.1-19.4-18.1-19.4l3.4-38.1l5.6-4.1l57.6,4.1l-9.7,52.7L347.3,447z"/>
			<path class="st4" d="M279.6,447c-18.2,0-13.6-19.4-13.6-19.4l3.4-38.1h63.2l-3.4,38.1c0,0-3.1,19.4,18.1,19.4H279.6z"/>
			<rect x="300.9" y="447" class="st5" width="67.7" height="4.1"/>
		</g>
		<g>
			<path class="st3" d="M425,393.6H139.7c-14,0.1-17.6-2.8-17.5-12.6l0.7-277.2c-0.1-6.1,6.6-13.5,21-13.5c0.1,0,4.4,0,4.5,0
				l298.5,8.1c1.4,0,2.4,1,2.5,2.4l11.3,270.4c0,0.3,0,0.5-0.1,0.8C455.7,394.1,441.2,394.1,425,393.6z"/>
			<path class="st4" d="M450.7,385.3H141.2c-4,0-6.9-2.9-6.9-6.8l0.4-278.5c0-5.1,4.8-9.8,10-9.8h309.4c4,0,6.9,2.9,6.9,6.8
				l-0.4,278.5C460.6,380.6,455.8,385.3,450.7,385.3z"/>
			<path class="st3" d="M447.4,323.4H146.3c-2.7,0-4.7-2-4.7-4.6l-0.7-212.2c0-3.5,3.3-6.8,6.9-6.8h301.1c2.7,0,4.7,2,4.7,4.6
				l0.7,212.2C454.3,320.2,451,323.4,447.4,323.4z"/>
			<path class="st6" d="M444.1,319H150.5c-1.6,0-2.8-1.2-2.8-2.7l-0.5-139.6l-0.2-68.5c0-2.1,1.9-4,4-4h293.5c1.6,0,2.8,1.2,2.8,2.7
				l0.2,69.8l0.4,138.3C448.1,317.1,446.2,319,444.1,319z"/>
			<path class="st7" d="M290.9,230.1H161.3c-1.3,0-2.2-1.1-2-2.4l0,0c0.2-1.3,1.5-2.4,2.9-2.4h129.6c1.3,0,2.2,1.1,2,2.4l0,0
				C293.5,229,292.2,230.1,290.9,230.1z"/>
			<path class="st7" d="M432.6,245.4H161.3c-1.3,0-2.2-1.1-2-2.4l0,0c0.2-1.3,1.5-2.4,2.9-2.4h271.3c1.3,0,2.2,1.1,2,2.4l0,0
				C435.2,244.4,433.9,245.4,432.6,245.4z"/>
			<path class="st7" d="M432.7,261.3H161.4c-1.3,0-2.2-1.1-2-2.4l0,0c0.2-1.3,1.5-2.4,2.9-2.4h271.3c1.3,0,2.2,1.1,2,2.4l0,0
				C435.4,260.2,434.1,261.3,432.7,261.3z"/>
			<path class="st7" d="M432.7,277.2H161.4c-1.3,0-2.2-1.1-2-2.4l0,0c0.2-1.3,1.5-2.4,2.9-2.4h271.3c1.3,0,2.2,1.1,2,2.4l0,0
				C435.3,276.1,434,277.2,432.7,277.2z"/>
			<path class="st8" d="M447.7,182.6l-300.4-0.4l-0.2-74.1c0-2.1,1.9-4,4-4h293.5c1.6,0,2.8,1.2,2.8,2.7L447.7,182.6z"/>
			<path class="st6" d="M437.7,175.1H274.5c-1.3,0-2.2-1.1-2-2.4l0,0c0.2-1.3,1.5-2.4,2.9-2.4h163.2c1.3,0,2.2,1.1,2,2.4l0,0
				C440.3,174,439,175.1,437.7,175.1z"/>
			<path class="st6" d="M373.3,141.9H270.1c-1.3,0-2.2-1.1-2-2.4l0,0c0.2-1.3,1.5-2.4,2.9-2.4h103.2c1.3,0,2.2,1.1,2,2.4l0,0
				C375.9,140.8,374.6,141.9,373.3,141.9z"/>
			<path class="st6" d="M349.4,130.4h-76.2c-4,0-6.7-3.3-5.9-7.3l0,0c0.7-4,4.6-7.3,8.6-7.3h76.2c4,0,6.7,3.3,5.9,7.3l0,0
				C357.2,127.2,353.4,130.4,349.4,130.4z"/>
			<path class="st6" d="M241.1,175.1h-70.4c-3.6,0-6.5-2.9-6.6-6.5l-0.5-51.1c0-3.6,2.8-6.5,6.4-6.5h70.4c3.6,0,6.5,2.9,6.6,6.5
				l0.5,51.1C247.6,172.2,244.7,175.1,241.1,175.1z"/>
		</g>
	</g>
	<g>
		<path class="st9" d="M566,157.7H430.8c-5.3,0-9.5-4.3-9.5-9.5l0-66c0-5.3,4.3-9.5,9.5-9.5H566c5.3,0,9.5,4.3,9.5,9.5l0,66
			C575.5,153.5,571.3,157.7,566,157.7z"/>
		<g>
			<g>
				<path class="st9" d="M564.2,98c-0.2,0.9-0.9,1.6-1.9,1.6H434.4c-1.1,0-1.9-0.9-1.9-1.9c0-0.1,0-0.2,0-0.4
					c0.2-0.9,0.9-1.5,1.9-1.5h127.9c1.1,0,1.9,0.9,1.9,1.9C564.2,97.8,564.2,97.9,564.2,98z"/>
				<path class="st9" d="M510.5,95.7l-0.7,3.8h-75.3c-1.1,0-1.9-0.9-1.9-1.9c0-0.1,0-0.2,0-0.4c0.2-0.9,0.9-1.5,1.9-1.5H510.5z"/>
				<path class="st9" d="M513.3,97.1c-0.4,2.1-2.5,3.9-4.6,3.9c-2.1,0-3.5-1.7-3.1-3.9s2.5-3.9,4.6-3.9
					C512.4,93.3,513.8,95,513.3,97.1z"/>
				<path class="st9" d="M473.6,91.1h-38.1c-1.7,0-3-1.3-3-3l0,0c0-1.7,1.3-3,3-3h38.1c1.7,0,3,1.3,3,3h0
					C476.6,89.8,475.3,91.1,473.6,91.1z"/>
			</g>
			<g>
				<path class="st9" d="M564.2,120.9c-0.2,0.9-0.9,1.6-1.9,1.6H434.4c-1,0-1.9-0.9-1.9-1.9c0-0.1,0-0.2,0-0.4
					c0.2-0.9,0.9-1.5,1.9-1.5h127.9c1.1,0,1.9,0.9,1.9,1.9C564.2,120.6,564.2,120.7,564.2,120.9z"/>
				<path class="st9" d="M544.5,118.6l-0.7,3.8H434.4c-1,0-1.9-0.9-1.9-1.9c0-0.1,0-0.2,0-0.4c0.2-0.9,0.9-1.5,1.9-1.5H544.5z"/>
				<path class="st9" d="M546.9,120.5c-0.4,2.1-2.5,3.9-4.6,3.9c-2.1,0-3.5-1.7-3.1-3.9c0.4-2.1,2.5-3.9,4.6-3.9
					C545.9,116.6,547.3,118.4,546.9,120.5z"/>
				<path class="st9" d="M473.6,114h-38.1c-1.7,0-3-1.3-3-3l0,0c0-1.7,1.3-3,3-3h38.1c1.7,0,3,1.3,3,3l0,0
					C476.6,112.6,475.3,114,473.6,114z"/>
			</g>
			<g>
				<path class="st9" d="M564.2,143.7c-0.2,0.9-0.9,1.6-1.9,1.6H434.4c-1,0-1.9-0.9-1.9-1.9c0-0.1,0-0.2,0-0.4
					c0.2-0.9,0.9-1.5,1.9-1.5h127.9c1.1,0,1.9,0.8,1.9,1.9C564.3,143.5,564.3,143.6,564.2,143.7z"/>
				<path class="st9" d="M523.7,141.5l-0.7,3.8h-88.5c-1,0-1.9-0.9-1.9-1.9c0-0.1,0-0.2,0-0.4c0.2-0.9,0.9-1.5,1.9-1.5H523.7z"/>
				<path class="st9" d="M526.1,143.4c-0.4,2.1-2.5,3.9-4.6,3.9c-2.1,0-3.5-1.7-3.1-3.9c0.4-2.1,2.5-3.9,4.6-3.9
					C525.1,139.5,526.5,141.2,526.1,143.4z"/>
				<path class="st9" d="M473.7,136.8h-38.1c-1.7,0-3-1.3-3-3l0,0c0-1.7,1.3-3,3-3h38.1c1.7,0,3,1.3,3,3l0,0
					C476.7,135.5,475.3,136.8,473.7,136.8z"/>
			</g>
		</g>
	</g>
	<g>
		<path class="st9" d="M225.2,347.1H74.4c-3.8,0-7-3.1-7-7L67.4,158c0-3.8,3.1-7,6.9-7h150.8c3.8,0,7,3.1,7,7l0.1,182.1
			C232.2,344,229.1,347.1,225.2,347.1z"/>
		<g>
			<path class="st9" d="M192.1,326.8h-84.7c-6.4,0-11.5-5.2-11.6-11.5l0,0c0-6.4,5.2-11.5,11.5-11.5h84.7c6.4,0,11.5,5.2,11.6,11.5
				l0,0C203.6,321.7,198.5,326.8,192.1,326.8z"/>
			<g>
				<path class="st9" d="M166.7,315.3c0,9.4-7.6,17-17,17s-17-7.6-17-17c0-9.4,7.6-17,17-17C159.1,298.3,166.7,305.9,166.7,315.3z"
					/>
				
					<ellipse transform="matrix(0.709 -0.7052 0.7052 0.709 -178.7636 197.3408)" class="st9" cx="149.7" cy="315.3" rx="14.8" ry="14.8"/>
				<path class="st9" d="M144.8,321l0-11.4c0-0.8,0.8-1.3,1.6-1l11.4,5.6c0.8,0.4,0.8,1.5,0,1.9l-11.4,5.8
					C145.7,322.3,144.8,321.8,144.8,321z"/>
			</g>
			<path class="st9" d="M120.1,314.1c-0.2,0.2-0.4,0.4-0.6,0.6c-0.5,0.4-1,0.9-1.4,1.4c-0.1,0.1-0.3,0.3-0.4,0.4c0,0-0.1,0.1,0,0.1
				c0.2,1,0.4,2,0.5,3c0,0.2,0.1,0.3,0.1,0.5c-0.3-0.1-0.6-0.3-0.8-0.4c-0.8-0.4-1.6-0.8-2.4-1.2c0,0,0,0,0,0c-1,0.5-2,1.1-3,1.6
				c0,0-0.1,0-0.1,0c0,0,0-0.1,0-0.1c0.2-0.9,0.3-1.8,0.5-2.7c0-0.2,0.1-0.4,0.1-0.6c0-0.1,0-0.1-0.1-0.2c-0.8-0.8-1.7-1.6-2.5-2.4
				c0,0,0,0,0,0c0.2,0,0.5-0.1,0.7-0.1c0.7-0.1,1.4-0.2,2.2-0.3c0.2,0,0.4-0.1,0.6-0.1c0.1,0,0.1,0,0.2-0.1c0.5-1,1-2,1.5-3
				c0,0,0,0,0-0.1c0,0,0,0,0,0c0.1,0.1,0.1,0.2,0.2,0.4c0.5,1,1,1.9,1.4,2.9C117.7,313.8,118.8,313.9,120.1,314.1
				C120,314.1,120,314.1,120.1,314.1z"/>
			<g>
				<g>
					<path class="st9" d="M186.5,311.6c0-0.3-0.3-0.6-0.5-0.6c-1.1,0.2-2,0.9-2.6,2h-0.7c-1.1,0-1.9,1.1-1.9,2.4
						c0,1.3,0.9,2.4,1.9,2.4h0.7c0.6,1.1,1.5,1.8,2.6,2c0.3,0,0.5-0.2,0.5-0.6L186.5,311.6z"/>
					<g>
						<path class="st9" d="M188.2,320c-0.2,0-0.3-0.1-0.3-0.2c-0.1-0.2,0-0.4,0.2-0.5c1.8-0.6,3-2.3,3-4.3c0-1.9-1.2-3.6-3.1-4.3
							c-0.2-0.1-0.3-0.3-0.2-0.5c0.1-0.2,0.3-0.3,0.5-0.2c2.1,0.7,3.5,2.7,3.5,5c0,2.2-1.4,4.2-3.5,5C188.3,320,188.3,320,188.2,320
							z"/>
					</g>
					<g>
						<path class="st9" d="M188.1,317.6c-0.1,0-0.2,0-0.3-0.1c-0.1-0.2-0.1-0.4,0.1-0.5c0.6-0.5,0.9-1.1,0.9-1.9
							c0-0.7-0.3-1.4-0.9-1.9c-0.2-0.1-0.2-0.4-0.1-0.5c0.1-0.2,0.4-0.2,0.5-0.1c0.8,0.6,1.2,1.5,1.2,2.5c0,1-0.4,1.9-1.2,2.5
							C188.3,317.6,188.2,317.6,188.1,317.6z"/>
					</g>
				</g>
				<line class="st9" x1="191.3" y1="310.1" x2="180.5" y2="320.9"/>
				<line class="st9" x1="191.7" y1="309.7" x2="180.8" y2="320.6"/>
			</g>
		</g>
		<path class="st9" d="M211.2,260.6H83.6c-2.3,0-4.2-1.9-4.2-4.2l-0.1-89.1c0-2.3,1.9-4.2,4.2-4.2h127.6c2.3,0,4.2,1.9,4.2,4.2
			l0.1,89.1C215.4,258.8,213.5,260.6,211.2,260.6z"/>
		<g>
			<path class="st9" d="M215.4,279.8c0,0.6-0.2,1.2-0.7,1.6c-0.4,0.4-1,0.7-1.6,0.7H81.7c-1.2,0-2.3-1-2.3-2.3
				c0-0.6,0.2-1.2,0.7-1.6c0.4-0.4,1-0.7,1.6-0.7h131.4C214.4,277.5,215.4,278.6,215.4,279.8z"/>
			<path class="st9" d="M124.1,277.5l0,4.5H81.7c-1.2,0-2.3-1-2.3-2.3c0-0.6,0.2-1.2,0.7-1.6c0.4-0.4,1-0.7,1.6-0.7H124.1z"/>
			
				<ellipse transform="matrix(0.707 -0.7072 0.7072 0.707 -161.5028 169.776)" class="st9" cx="124.1" cy="279.8" rx="4.9" ry="4.9"/>
		</g>
		<g>
			<path class="st9" d="M96.3,220.5L96.3,220.5c-1.6,0-2.9-1.3-2.9-2.9l0-11.5c0-1.6,1.3-2.9,2.9-2.9l0,0c1.6,0,2.9,1.3,2.9,2.9
				l0,11.5C99.2,219.2,97.9,220.5,96.3,220.5z"/>
			<path class="st9" d="M107.7,230.1L107.7,230.1c-1.6,0-2.9-1.3-2.9-2.9l0-30.7c0-1.6,1.3-2.9,2.9-2.9l0,0c1.6,0,2.9,1.3,2.9,2.9
				l0,30.7C110.6,228.8,109.3,230.1,107.7,230.1z"/>
			<path class="st9" d="M119,240.5L119,240.5c-1.6,0-2.9-1.3-2.9-2.9l0-51.5c0-1.6,1.3-2.9,2.9-2.9l0,0c1.6,0,2.9,1.3,2.9,2.9
				l0,51.5C121.9,239.2,120.6,240.5,119,240.5z"/>
			<path class="st9" d="M130.4,226.6L130.4,226.6c-1.6,0-2.9-1.3-2.9-2.9l0-23.6c0-1.6,1.3-2.9,2.9-2.9l0,0c1.6,0,2.9,1.3,2.9,2.9
				l0,23.6C133.3,225.3,132,226.6,130.4,226.6z"/>
			<path class="st9" d="M141.7,249.5L141.7,249.5c-1.6,0-2.9-1.3-2.9-2.9l0-69.5c0-1.6,1.3-2.9,2.9-2.9l0,0c1.6,0,2.9,1.3,2.9,2.9
				l0,69.5C144.6,248.2,143.3,249.5,141.7,249.5z"/>
			<path class="st9" d="M153.1,237.1L153.1,237.1c-1.6,0-2.9-1.3-2.9-2.9l0-44.7c0-1.6,1.3-2.9,2.9-2.9h0c1.6,0,2.9,1.3,2.9,2.9
				l0,44.7C156,235.8,154.7,237.1,153.1,237.1z"/>
			<path class="st9" d="M164.4,221.4L164.4,221.4c-1.6,0-2.9-1.3-2.9-2.9l0-13.2c0-1.6,1.3-2.9,2.9-2.9l0,0c1.6,0,2.9,1.3,2.9,2.9
				l0,13.2C167.3,220.1,166,221.4,164.4,221.4z"/>
			<path class="st9" d="M175.8,247.1L175.8,247.1c-1.6,0-2.9-1.3-2.9-2.9l0-64.6c0-1.6,1.3-2.9,2.9-2.9l0,0c1.6,0,2.9,1.3,2.9,2.9
				l0,64.6C178.7,245.8,177.4,247.1,175.8,247.1z"/>
			<path class="st9" d="M187.1,231.6L187.1,231.6c-1.6,0-2.9-1.3-2.9-2.9l0-33.7c0-1.6,1.3-2.9,2.9-2.9l0,0c1.6,0,2.9,1.3,2.9,2.9
				l0,33.7C190,230.3,188.7,231.6,187.1,231.6z"/>
			<path class="st9" d="M198.5,222.9L198.5,222.9c-1.6,0-2.9-1.3-2.9-2.9l0-16.2c0-1.6,1.3-2.9,2.9-2.9l0,0c1.6,0,2.9,1.3,2.9,2.9
				l0,16.2C201.4,221.6,200.1,222.9,198.5,222.9z"/>
		</g>
	</g>
	<g>
		<g>
			<g>
				<path class="st10" d="M636,401h-36.8c-2.5,0-4.4-2-4.4-4.4l0,0c0-2.5,2-4.4,4.4-4.4H636c2.5,0,4.4,2,4.4,4.4l0,0
					C640.4,399,638.5,401,636,401z"/>
				<path class="st10" d="M626.8,452.9h-18.4c-1.2,0-2.2-1-2.2-2.2l0,0c0-1.2,1-2.2,2.2-2.2h18.4c1.2,0,2.2,1,2.2,2.2l0,0
					C629,451.9,628,452.9,626.8,452.9z"/>
				<rect x="614.5" y="398.2" class="st10" width="6.2" height="51.1"/>
			</g>
			<g>
				<g>
					<g>
						<g>
							<path class="st11" d="M553.5,361.1c-1.9,0-3.6-1.3-4-3.2c-0.5-2.2,0.9-4.4,3.1-4.9l31.4-7.1l8.1-31.5c0.6-2.2,2.8-3.5,5-2.9
								c2.2,0.6,3.5,2.8,2.9,5l-8.7,33.9c-0.4,1.5-1.6,2.6-3.1,3l-33.9,7.6C554.1,361.1,553.8,361.1,553.5,361.1z"/>
						</g>
						<path class="st11" d="M563.9,353.2h-14.5c0-4,3.2-7.3,7.2-7.3C560.7,345.9,563.9,349.2,563.9,353.2z"/>
						<path class="st12" d="M602.7,318.1l-4,15.4l-12.9-2.7l3.6-13.9c1.4-4.9,6.9-7,6.9-7S603.6,314.6,602.7,318.1z"/>
					</g>
					<path class="st13" d="M630.5,379.9l-38.9-4.4l3.3-35.9c-1-1.5-4-3.5-5-7.3c-0.7-2.8-0.1-5.7,1.5-8.1l3.9-5.9l1.1-8.5
						c2.7-2.1,7-2.8,11.4-3.4h7.9c4.7,0,16.2,2.9,16.2,4.7l-5.8,38.4L630.5,379.9z"/>
					<g>
						<path class="st14" d="M585,361.1c-1.9,0-3.6-1.3-4-3.2c-0.5-2.2,0.9-4.4,3.1-4.9l31.4-7.1l8.1-31.5c0.6-2.2,2.8-3.5,5-2.9
							c2.2,0.6,3.5,2.8,2.9,5l-8.7,33.9c-0.4,1.5-1.6,2.6-3.1,3l-33.9,7.6C585.6,361.1,585.3,361.1,585,361.1z"/>
						<path class="st14" d="M596.8,353.1h-14.5c0-4,3.2-7.3,7.2-7.3C593.5,345.9,596.8,349.1,596.8,353.1z"/>
						<g>
							<path class="st12" d="M634.2,318.1l-4,15.4l-12.9-2.7l4.1-15.9c0.9-3.5,4.5-5.6,8-4.7C633,311,635.1,314.6,634.2,318.1z"/>
						</g>
					</g>
				</g>
				<g>
					<g>
						<path class="st10" d="M542.1,441.4c0,0-10.9,3.6-16.7,8.3c-1.3,1.1-0.5,3.2,1.1,3.2l15.5,0l8.2-2.6l0.2,2.6h3.4
							c0.9-4.9,1.7-8.7-0.7-13.2L542.1,441.4z"/>
						<path class="st14" d="M549.9,410.4l-6.5,30.2c-5.6,5.3-1.6,4.4,9.7-0.8l6.5-28.2L549.9,410.4z"/>
					</g>
					<path class="st10" d="M597.9,367.1c-0.8,0-34.2-0.1-34.2-0.1c-3.4,0.2-8.9,3.5-9.8,8l-10.6,58.7c3,1.5,7,2,12.2,1.5l12.4-43.2
						l27.2,0.4c0,0,20,1.2,20-12.4C615.2,368.5,608.2,367,597.9,367.1z"/>
				</g>
				<g>
					<g>
						<path class="st15" d="M557.4,441.4c0,0-10.9,3.6-16.7,8.3c-1.3,1.1-0.5,3.2,1.1,3.2l15.5,0l8.2-2.6l0.2,2.6h3.4
							c0.9-4.9,1.7-8.7-0.7-13.2L557.4,441.4z"/>
						<path class="st14" d="M565.2,410.4l-6.5,30.2c-5.6,5.3-1.6,4.4,9.7-0.8l6.5-28.2L565.2,410.4z"/>
					</g>
					<path class="st15" d="M613.2,367.1c-0.8,0-34.2-0.1-34.2-0.1c-3.4,0.2-8.9,3.5-9.8,8l-10.6,58.7c3,1.5,7,2,12.2,1.5l12.4-43.2
						l27.2,0.4c0,0,20,1.2,20-12.4C630.5,368.5,623.5,367,613.2,367.1z"/>
				</g>
				<g>
					<path class="st14" d="M609.4,316.2L609.4,316.2c-2.4,0-4.4-1.9-4.4-4.3l-0.2-28.1l8.8-0.1l0.2,28.1
						C613.8,314.2,611.8,316.1,609.4,316.2z"/>
					<g>
						<path class="st14" d="M594.4,282L594.4,282c0,0-1.9,3.6-1.9,7.7c0,0.4,0,0.7,0,1c0.3,4.2,2.9,8.6,11.6,10
							c3.1,0.5,9.4,1.3,11.9,0.6c5.9-1.8,10.6-6.7,11.9-13.2l0,0l2-11.4c0.8-4.6-2.3-9-6.9-9.8l-16.8-3c-4.6-0.8-8.1-2.7-9,1.9
							L594.4,282z"/>
						<path class="st10" d="M600.7,278.9c-0.3,1.5-1,2.6-1.7,2.5c-0.6-0.1-1-1.4-0.7-2.9c0.3-1.5,1-2.6,1.7-2.5
							C600.6,276.2,600.9,277.5,600.7,278.9z"/>
						<polygon class="st10" points="600,276 597.6,275.8 599,277.3 						"/>
						<path class="st14" d="M596,277.6c0,0-2.4,3.5-3.9,4.7c-3.3,2.7,3.2,3.3,3.2,3.3L596,277.6z"/>
						<path class="st16" d="M592.5,289.8c0,0.4,0,0.7,0,1c1.7,0.6,4.1,0.8,5.6-1.2c0.2-0.2,0.1-0.5-0.1-0.7
							c-0.2-0.2-0.5-0.1-0.7,0.1C596,290.9,593.6,290.2,592.5,289.8z"/>
					</g>
				</g>
				<path class="st10" d="M592.5,271.3c0,0,5.8,2.5,18.1-0.1c0,0,6.7,19.5-7.3,35.3c0,0,31.2,1.4,32.6-24.2
					c0.9-16.8-8.5-17.9-8.5-17.9s-1.9-10.2-13.2-11C592.5,251.8,592.5,271.3,592.5,271.3z"/>
			</g>
			<g>
				<path class="st10" d="M591.5,452.9L591.5,452.9c-1.4,0-2.6-1.1-2.6-2.6V362c0-0.3,0.2-0.6,0.6-0.6h4c0.3,0,0.6,0.2,0.6,0.6v88.3
					C594,451.7,592.9,452.9,591.5,452.9z"/>
				<path class="st10" d="M506.1,452.9L506.1,452.9c-1.4,0-2.6-1.1-2.6-2.6V362c0-0.3,0.2-0.6,0.6-0.6h4c0.3,0,0.6,0.2,0.6,0.6v88.3
					C508.6,451.7,507.5,452.9,506.1,452.9z"/>
				<path class="st10" d="M654.8,452.9L654.8,452.9c-1.4,0-2.6-1.1-2.6-2.6V362c0-0.3,0.2-0.6,0.6-0.6h4c0.3,0,0.6,0.2,0.6,0.6v88.3
					C657.4,451.7,656.2,452.9,654.8,452.9z"/>
				<g>
					<path class="st10" d="M607.3,359.7h-70.5c-0.1,0-0.2,0-0.3-0.1l-9-3.5l69.1-2.9l2.2-0.1c0.4,0,0.9,0.1,1.2,0.3l7.7,4.6
						C608.6,358.5,608.2,359.7,607.3,359.7z"/>
					<path class="st17" d="M598.9,356.2h-70.9c-0.9,0-1.6-0.7-1.6-1.6l0,0c0-0.9,0.7-1.6,1.6-1.6h70.9c0.9,0,1.6,0.7,1.6,1.6l0,0
						C600.5,355.5,599.8,356.2,598.9,356.2z"/>
					<path class="st18" d="M607.8,358l-7.7-4.6c0,0,0,0,0,0c0,0,0,0,0,0h0c0,0,0,0,0,0c0,0-0.1-0.1-0.1-0.1c0,0,0,0,0,0h0
						c0,0,0,0-0.1,0c-0.5-0.2-0.8,0-0.8,0c-0.6,0.1-1,0.6-1.2,1.2c0,0,0,0.1,0,0.1c0,0,0,0.1,0,0.1c0,0,0,0.1,0,0.1v0
						c0,0.6,0.4,1.1,0.9,1.4c0,0,0,0,0,0l6.6,3.5h2.1C608.2,359.7,608.6,358.5,607.8,358z"/>
				</g>
				<path class="st19" d="M662.3,361.5c0,0.8-0.3,1.5-0.8,2c-0.5,0.5-1.3,0.9-2,0.9H502.5c-1.6,0-2.9-1.3-2.9-2.9
					c0-0.8,0.3-1.5,0.9-2c0.5-0.5,1.2-0.8,2-0.8h156.9C661,358.6,662.3,359.9,662.3,361.5z"/>
				<path class="st20" d="M662.3,361.5c0,0.8-0.3,1.5-0.8,2c-0.5,0.5-1.3,0.9-2,0.9h-61.6c-1.6,0-2.9-1.3-2.9-2.9
					c0-0.8,0.3-1.5,0.8-2c0.5-0.5,1.3-0.8,2-0.8h61.6C661,358.6,662.3,359.9,662.3,361.5z"/>
			</g>
		</g>
		<g>
			<path class="st21" d="M517.3,231.6h-36.2c-4.2,0-7.6,3.4-7.6,7.6v24.3c0,4.2,3.4,7.6,7.6,7.6h31.1c0,0.1,0.1,0.3,0.2,0.4l5.9,5.9
				c0.6,0.6,1.5,0.2,1.5-0.6v-6.1c2.9-1,5.1-3.8,5.1-7.1v-24.3C524.9,235,521.5,231.6,517.3,231.6z"/>
			<text transform="matrix(1 0 0 1 480.2983 256.9724)" class="st22 st23 st24">PHP</text>
		</g>
		<g>
			<path class="st21" d="M533.6,307.5h-25.1c-2.9,0-5.3,2.4-5.3,5.3v16.8c0,2.9,2.4,5.3,5.3,5.3h21.6c0,0.1,0.1,0.2,0.2,0.3l4.1,4.1
				c0.4,0.4,1,0.1,1-0.4v-4.2c2-0.7,3.5-2.7,3.5-5v-16.8C538.9,309.8,536.5,307.5,533.6,307.5z"/>
			<text transform="matrix(1 0 0 1 508.0964 325.6524)" class="st22 st23 st25">C++</text>
		</g>
		<g>
			<path class="st21" d="M547.5,277.1h22.3c2.6,0,4.7,2.1,4.7,4.7v14.9c0,2.6-2.1,4.7-4.7,4.7h-19.2c0,0.1-0.1,0.2-0.1,0.2l-3.6,3.6
				c-0.3,0.3-0.9,0.1-0.9-0.4v-3.7c-1.8-0.6-3.1-2.4-3.1-4.4v-14.9C542.9,279.2,545,277.1,547.5,277.1z"/>
			<text transform="matrix(1 0 0 1 549.6677 292.7692)" class="st22 st23 st26">C:/</text>
		</g>
	</g>
	<g>
		<path class="st9" d="M410,418.5H290.3c-5.3,0-9.5-4.3-9.5-9.5l-0.1-142.1c0-5.3,4.3-9.5,9.5-9.5h119.7c5.3,0,9.5,4.3,9.5,9.5
			l0.1,142.1C419.5,414.2,415.3,418.5,410,418.5z"/>
		<g>
			<g>
				<path class="st9" d="M350.1,271.4c-24.9,0-45.1,20.2-45.1,45.1c0,24.9,20.2,45.1,45.1,45.1c24.9,0,45.1-20.2,45.1-45.1
					C395.2,291.6,375,271.4,350.1,271.4z"/>
				<path class="st9" d="M364,313.7c-0.1,0-0.2,0-0.3,0c0.4-2,0.4-4.2-0.7-6.5c-2-4.4-6.4-7.3-11.2-6.9c-5,0.4-9,4.2-9.9,9.1
					c-1.6-0.6-3.3-0.8-5.2-0.4c-4.4,1-7.6,4.9-7.5,9.4c0.1,5.1,4.3,9.1,9.4,9.1c0.1,0,0.2,0,0.3,0l0,0h7.8l0-8.1h-5.2l9.2-8.9
					l9.2,8.9h-5.2l0,8.1h9.1c0.1,0,0.1,0,0.2,0c0.1,0,0.1,0,0.2,0h0l0,0c3.7-0.1,6.7-3.1,6.7-6.9C370.9,316.8,367.8,313.7,364,313.7
					z"/>
				<path class="st9" d="M369.9,280.6c-2.6-1.4-5.4-2.6-8.4-3.4c-18.1-5.2-37,2.6-46.4,17.9c-0.2,0.4-0.5,0.8-0.7,1.2
					c-0.2,0.4-0.5,0.8-0.7,1.2c0,0,0,0,0,0c-0.2,0.4-0.4,0.7-0.6,1.1c0,0.1-0.1,0.1-0.1,0.2c-0.2,0.4-0.4,0.7-0.5,1.1
					c-0.2,0.4-0.3,0.7-0.5,1.1c0,0.1-0.1,0.2-0.1,0.3c-0.2,0.4-0.3,0.8-0.4,1.1c-0.1,0.4-0.3,0.8-0.4,1.2c-0.2,0.5-0.3,1-0.5,1.5
					c-6.3,21.8,6.3,44.6,28.1,50.9c21.8,6.3,44.6-6.3,50.8-28.1C395,309.2,386.4,289.6,369.9,280.6z M341.6,346.1
					c-16.3-4.7-25.7-21.8-21-38.1c0.1-0.4,0.2-0.8,0.4-1.1c0.1-0.3,0.2-0.7,0.3-1c0.3-0.8,0.6-1.5,1-2.3c0.1-0.3,0.3-0.6,0.5-0.9
					c0.1-0.2,0.2-0.5,0.4-0.7c0.2-0.3,0.3-0.6,0.5-0.9c0.3-0.5,0.6-1,0.9-1.5c7.2-10.9,20.9-16.3,34.1-12.5c1.9,0.6,3.7,1.3,5.5,2.2
					c0.3,0.2,0.7,0.3,1,0.5c0.1,0.1,0.2,0.1,0.3,0.2c0.3,0.2,0.7,0.4,1,0.6c0,0,0,0,0,0c0.4,0.2,0.8,0.5,1.1,0.7c0,0,0.1,0,0.1,0.1
					c0.3,0.2,0.6,0.4,0.9,0.7c0.4,0.3,0.7,0.6,1.1,0.9c0.3,0.3,0.6,0.5,0.9,0.8c0,0,0,0.1,0.1,0.1c0.3,0.3,0.6,0.6,1,0.9
					c0,0,0,0,0.1,0.1c0.3,0.3,0.6,0.6,0.9,0.9c0.3,0.3,0.6,0.6,0.9,1c0.3,0.3,0.5,0.6,0.7,0.9c0,0,0.1,0.1,0.1,0.1
					c0.5,0.7,1.1,1.4,1.5,2.1c0.2,0.4,0.5,0.7,0.7,1.1c0.2,0.4,0.4,0.7,0.6,1.1c0.2,0.4,0.4,0.8,0.6,1.1c0.2,0.4,0.4,0.9,0.6,1.3
					c0.1,0.3,0.3,0.6,0.4,0.9c0.2,0.5,0.4,0.9,0.5,1.4c0.1,0.4,0.2,0.8,0.4,1.1c0,0,0,0,0,0.1c0.1,0.4,0.2,0.8,0.3,1.3
					c0,0,0,0.1,0,0.1c0.1,0.4,0.2,0.8,0.3,1.2c0.1,0.4,0.2,0.9,0.2,1.3c0.1,0.4,0.1,0.8,0.2,1.2c0,0,0,0.1,0,0.1
					c0.1,0.4,0.1,0.9,0.1,1.3c0,0.5,0.1,0.9,0.1,1.4c0,0.4,0,0.8,0,1.3c0,0.4,0,0.7,0,1.1c0,0.2,0,0.3,0,0.5c0,0.4-0.1,0.8-0.1,1.1
					c0,0,0,0,0,0c0,0.4-0.1,0.7-0.1,1.1c0,0.1,0,0.3-0.1,0.4c-0.1,0.3-0.1,0.7-0.2,1c0,0,0,0.1,0,0.1c-0.2,0.9-0.4,1.8-0.6,2.6
					C374.9,341.4,357.9,350.8,341.6,346.1z"/>
				<path class="st9" d="M310.6,305.1c-6.3,21.8,6.3,44.6,28.1,50.9c21.8,6.3,44.6-6.3,50.9-28c0.1-0.5,0.3-1,0.4-1.5
					c0.1-0.4,0.2-0.8,0.3-1.2c0.1-0.4,0.2-0.8,0.2-1.2c0-0.1,0.1-0.2,0.1-0.4c0.1-0.4,0.1-0.8,0.2-1.2c0.1-0.4,0.1-0.8,0.2-1.2
					c0-0.1,0-0.1,0-0.2c0-0.4,0.1-0.8,0.1-1.3c0,0,0,0,0,0c0-0.5,0.1-0.9,0.1-1.4c0-0.4,0-0.9,0-1.4c-0.4,3.8-3.5,5.7-5.8,5.4
					c-2.7-0.4-4.7-3.7-4.5-6.6c0,0.6,0,1.2,0,1.7c0,0.3,0,0.7-0.1,1c0,0.3,0,0.5-0.1,0.8c0,0.3-0.1,0.7-0.1,1
					c-0.1,0.8-0.2,1.6-0.4,2.4c-0.1,0.3-0.2,0.7-0.2,1c-0.1,0.4-0.2,0.8-0.3,1.2c-4.7,16.3-21.7,25.7-38,21
					c-16.3-4.7-25.7-21.8-21-38.1c0.3-0.9,0.5-1.7,0.9-2.6c0-0.1,0-0.1,0-0.1c0.1-0.3,0.3-0.7,0.4-1c0.1-0.1,0.1-0.3,0.2-0.4
					c0.1-0.3,0.3-0.7,0.5-1c0,0,0,0,0,0c0.2-0.3,0.3-0.7,0.5-1c0.1-0.1,0.2-0.3,0.2-0.4c0.2-0.3,0.3-0.6,0.5-0.9
					c0.2-0.4,0.4-0.7,0.7-1.1c0.3-0.4,0.5-0.8,0.8-1.2c0.3-0.4,0.5-0.7,0.8-1c0,0,0,0,0.1-0.1c0.3-0.3,0.5-0.6,0.8-0.9
					c0.3-0.3,0.6-0.7,0.9-1c0.3-0.3,0.6-0.6,0.8-0.8c0,0,0.1-0.1,0.1-0.1c0.3-0.3,0.6-0.6,1-0.9c0,0,0,0,0,0
					c0.3-0.3,0.6-0.5,0.9-0.8c0.4-0.3,0.8-0.6,1.2-0.9c0.3-0.2,0.5-0.4,0.8-0.6c0.4-0.3,0.8-0.5,1.3-0.8c0.4-0.2,0.7-0.4,1.1-0.6
					c0.4-0.2,0.8-0.4,1.1-0.6c0.4-0.2,0.8-0.4,1.2-0.6c0.8-0.4,1.6-0.7,2.4-1c0,0,0.1,0,0.1,0c0.4-0.1,0.7-0.2,1.1-0.4
					c0.4-0.1,0.8-0.2,1.3-0.4c0.4-0.1,0.8-0.2,1.2-0.3c0,0,0,0,0.1,0c0.4-0.1,0.9-0.2,1.3-0.2c0,0,0.1,0,0.1,0
					c0.4-0.1,0.8-0.1,1.2-0.2c0.5-0.1,0.9-0.1,1.4-0.1c0.4,0,0.7-0.1,1.1-0.1c0,0,0.1,0,0.1,0c0.4,0,0.9,0,1.3,0c0,0,0,0,0.1,0
					c0.4,0,0.8,0,1.2,0c0.1,0,0.2,0,0.4,0c0.4,0,0.7,0,1.1,0.1c-7.4,0.2-6.9-10.3-0.3-10.4C333.8,274.4,316.1,286.3,310.6,305.1z"/>
			</g>
			<g>
				<path class="st9" d="M405.8,380.8H294.5c-2.1,0-3.8-1.7-3.8-3.8l0-3c0-2.1,1.7-3.8,3.8-3.8h111.3c2.1,0,3.8,1.7,3.8,3.8l0,3
					C409.6,379.1,407.9,380.8,405.8,380.8z"/>
				<path class="st9" d="M405.8,399h-35.4c-2.1,0-3.8-1.7-3.8-3.8l0-5.4c0-2.1,1.7-3.8,3.8-3.8h35.4c2.1,0,3.8,1.7,3.8,3.8l0,5.4
					C409.6,397.3,407.9,399,405.8,399z"/>
			</g>
			<path class="st9" d="M361.8,392.3c0,3.7-3,6.7-6.7,6.7c-3.7,0-6.7-3-6.7-6.7c0-3.7,3-6.7,6.7-6.7
				C358.8,385.6,361.8,388.6,361.8,392.3z"/>
			<path class="st9" d="M344.2,392.3c0,3.7-3,6.7-6.7,6.7c-3.7,0-6.7-3-6.7-6.7c0-3.7,3-6.7,6.7-6.7
				C341.2,385.6,344.2,388.6,344.2,392.3z"/>
		</g>
	</g>
	<g>
		<path class="st13" d="M534.5,215.6H338.9c-3.2,0-5.7-2.6-5.7-5.7l0-13.2c0-3.2,2.6-5.7,5.7-5.7h195.6c3.2,0,5.7,2.6,5.7,5.7
			l0,13.2C540.2,213,537.6,215.6,534.5,215.6z"/>
		
			<ellipse transform="matrix(0.7086 -0.7056 0.7056 0.7086 9.5173 429.6232)" class="st19" cx="524.9" cy="203.3" rx="9.2" ry="9.2"/>
		<path class="st12" d="M506.1,210.6H386.4c-1.9,0-3.4-1.5-3.4-3.4l0-7.7c0-1.9,1.5-3.4,3.4-3.4h119.7c1.9,0,3.4,1.5,3.4,3.4l0,7.7
			C509.5,209,508,210.6,506.1,210.6z"/>
		<path class="st0" d="M370.2,210.6h-24c-2.3,0-4.2-1.9-4.2-4.2l0-6c0-2.3,1.9-4.2,4.2-4.2h24c2.3,0,4.2,1.9,4.2,4.2l0,6
			C374.4,208.7,372.6,210.6,370.2,210.6z"/>
		<path class="st21" d="M530.7,202.2H526l0-4.7c0-0.6-0.5-1.1-1.1-1.1l0,0c-0.6,0-1.1,0.5-1.1,1.1l0,4.7h-4.7
			c-0.6,0-1.1,0.5-1.1,1.1l0,0c0,0.6,0.5,1.1,1.1,1.1h4.7l0,4.7c0,0.6,0.5,1.1,1.1,1.1l0,0c0.6,0,1.1-0.5,1.1-1.1l0-4.7h4.7
			c0.6,0,1.1-0.5,1.1-1.1l0,0C531.8,202.7,531.3,202.2,530.7,202.2z"/>
	</g>
	<g>
		<path class="st9" d="M307.7,125h-203c-5.3,0-9.5-4.3-9.5-9.5l0-39.7c0-5.3,4.3-9.5,9.5-9.5h203c5.3,0,9.5,4.3,9.5,9.5l0,39.7
			C317.2,120.7,312.9,125,307.7,125z"/>
		<g>
			<path class="st9" d="M305.6,78.1H106.7c-1.3,0-2.3-1-2.3-2.3l0,0c0-1.3,1-2.3,2.3-2.3h198.9c1.3,0,2.3,1,2.3,2.3l0,0
				C307.9,77,306.9,78.1,305.6,78.1z"/>
			<path class="st9" d="M191.5,91.1h-84.8c-1.3,0-2.3-1-2.3-2.3l0,0c0-1.3,1-2.3,2.3-2.3h84.8c1.3,0,2.3,1,2.3,2.3l0,0
				C193.7,90,192.7,91.1,191.5,91.1z"/>
			<path class="st9" d="M304.1,117.7h-36.8c-2.1,0-3.8-1.7-3.8-3.8l0-10.6c0-2.1,1.7-3.8,3.8-3.8h36.8c2.1,0,3.8,1.7,3.8,3.8l0,10.6
				C307.9,116,306.2,117.7,304.1,117.7z"/>
			<path class="st9" d="M252.5,117.7h-36.8c-2.1,0-3.8-1.7-3.8-3.8l0-10.6c0-2.1,1.7-3.8,3.8-3.8h36.8c2.1,0,3.8,1.7,3.8,3.8l0,10.6
				C256.3,116,254.6,117.7,252.5,117.7z"/>
		</g>
	</g>
	<path class="st1" d="M703.3,450.5H47.7c-3.8,0-7,3.1-7,7c0,3.8,3.1,7,7,7h593.6h62c3.8,0,7-3.1,7-7
		C710.2,453.6,707.1,450.5,703.3,450.5z"/>
</g>
</svg>
