<svg width="110" height="110" viewBox="0 0 110 110" fill="none" xmlns="http://www.w3.org/2000/svg">
<g clip-path="url(#clip0_219_289)">
<path d="M76.0311 66.9174C77.0104 65.1929 77.7687 63.3602 78.2961 61.4449H85.8266V48.5558H78.2961C77.7687 46.6402 77.0102 44.8078 76.0311 43.0833L81.3549 37.7596L72.2408 28.6457L66.9172 33.9694C65.1926 32.9902 63.3602 32.2317 61.4446 31.7043V24.1738H48.5555V31.7043C46.6398 32.2317 44.8076 32.99 43.0828 33.9694L37.7591 28.6457L28.645 37.7596L33.9689 43.0833C32.9895 44.8078 32.2312 46.6405 31.7038 48.5558H24.1733V61.4449H31.7038C32.2312 63.3605 32.9897 65.1929 33.9689 66.9174L28.645 72.2411L37.7591 81.355L43.0828 76.0313C44.8073 77.0107 46.64 77.769 48.5555 78.2964V85.8269H61.4446V78.2964C63.3602 77.769 65.1926 77.0105 66.9172 76.0313L72.2408 81.355L81.3549 72.2411L76.0311 66.9174ZM67.3861 71.9438L66.2942 72.6443C64.2079 73.983 61.9183 74.9306 59.4896 75.461L58.2221 75.7379V82.605H51.7776V75.7379L50.5101 75.461C48.0812 74.9308 45.7919 73.983 43.7053 72.6443L42.6134 71.9438L37.7591 76.7983L33.2022 72.2413L38.0567 67.387L37.3561 66.2951C36.0174 64.2086 35.0696 61.919 34.5394 59.4903L34.2625 58.2229H27.3956V51.7783H34.2625L34.5394 50.5109C35.0696 48.0821 36.0174 45.7928 37.3561 43.7062L38.0567 42.6143L33.2022 37.7598L37.7591 33.2029L42.6136 38.0574L43.7055 37.3568C45.7916 36.0183 48.0812 35.0705 50.5104 34.5401L51.7778 34.2634V27.3965H58.2224V34.2634L59.4898 34.5401C61.919 35.0707 64.2083 36.0183 66.2944 37.3568L67.3863 38.0574L72.2408 33.2029L76.7978 37.7598L71.9433 42.6143L72.6438 43.7062C73.9826 45.7928 74.9303 48.0821 75.4605 50.5109L75.7374 51.7783H82.6043V58.2229H75.7374L75.4605 59.4903C74.9303 61.919 73.9826 64.2086 72.6438 66.2951L71.9433 67.387L76.7978 72.2413L72.2408 76.7983L67.3861 71.9438Z" fill="black"/>
<path d="M55.0001 38.8887C46.1163 38.8887 38.8887 46.1163 38.8887 55.0001C38.8887 63.8839 46.1163 71.1115 55.0001 71.1115C57.4316 71.1115 59.7689 70.5828 61.9469 69.5403L60.5555 66.6338C58.8151 67.4669 56.9459 67.8894 54.9999 67.8894C47.8928 67.8894 42.1107 62.1074 42.1107 55.0003C42.1107 47.8932 47.8928 42.1112 54.9999 42.1112C62.107 42.1112 67.889 47.8932 67.889 55.0003C67.889 56.9459 67.4667 58.8151 66.6334 60.556L69.5399 61.9469C70.5826 59.7682 71.1111 57.4312 71.1111 55.0003C71.1115 46.1163 63.8839 38.8887 55.0001 38.8887Z" fill="black"/>
<path d="M62.9282 65.3154L65.1452 62.9793L67.4813 65.1962L65.2644 67.5324L62.9282 65.3154Z" fill="black"/>
<path d="M20.9509 56.6111V53.3888H15.6796L12.4574 47.8076H4.15245L0 55L4.15245 62.1923H12.4574L15.6796 56.6111H20.9509ZM10.597 58.97H6.01278L3.72066 55L6.01278 51.0299H10.597L12.8891 55L10.597 58.97Z" fill="black"/>
<path d="M29.7843 77.9365L26.057 81.6638L19.832 79.9958L13.9595 85.8683L16.109 93.8903L24.1309 96.0397L30.0034 90.1672L28.3354 83.9422L32.0627 80.2149L29.7843 77.9365ZM23.1681 92.4458L18.7401 91.2594L17.5536 86.8313L20.7952 83.5899L25.2231 84.7764L26.4095 89.2042L23.1681 92.4458Z" fill="black"/>
<path d="M80.2156 32.0632L83.9429 28.3359L90.1679 30.0039L96.0404 24.1314L93.891 16.1094L85.869 13.96L79.9963 19.8325L81.6643 26.0575L77.937 29.7848L80.2156 32.0632ZM86.8318 17.5539L91.2599 18.7403L92.4463 23.1684L89.2047 26.4098L84.7768 25.2233L83.5904 20.7955L86.8318 17.5539Z" fill="black"/>
<path d="M56.6111 89.0488H53.3888V94.3203L47.8076 97.5426V105.847L55 110L62.1923 105.847V97.5426L56.6111 94.3203V89.0488ZM58.97 103.987L55 106.279L51.0299 103.987V99.4027L55 97.1106L58.97 99.4027V103.987Z" fill="black"/>
<path d="M53.3888 20.9509H56.6111V15.6796L62.1923 12.4574V4.15245L55 0L47.8076 4.15245V12.4574L53.3888 15.6796V20.9509ZM51.0299 6.01278L55 3.72066L58.97 6.01278V10.597L55 12.8891L51.0299 10.597V6.01278Z" fill="black"/>
<path d="M105.847 47.8076H97.5426L94.3203 53.3888H89.0488V56.6111H94.3203L97.5426 62.1923H105.847L110 55L105.847 47.8076ZM103.987 58.97H99.4027L97.1106 55L99.4027 51.0299H103.987L106.279 55L103.987 58.97Z" fill="black"/>
<path d="M83.9427 81.6638L80.2154 77.9365L77.937 80.2149L81.6643 83.9422L79.9963 90.1672L85.8688 96.0397L93.8908 93.8903L96.0402 85.8683L90.1677 79.9958L83.9427 81.6638ZM91.2599 91.2594L86.8318 92.4458L83.5904 89.2042L84.7768 84.7764L89.2047 83.5899L92.4463 86.8313L91.2599 91.2594Z" fill="black"/>
<path d="M26.057 28.3359L29.7843 32.0632L32.0627 29.7848L28.3354 26.0575L30.0034 19.8325L24.1309 13.96L16.109 16.1092L13.9595 24.1312L19.832 30.0037L26.057 28.3359ZM18.7398 18.7401L23.1679 17.5537L26.4093 20.7953L25.2229 25.2231L20.795 26.4096L17.5534 23.1682L18.7398 18.7401Z" fill="black"/>
<path d="M53.3887 46.9443H56.611V50.1666H53.3887V46.9443Z" fill="black"/>
<path d="M59.8335 50.166H63.0558V53.3883H59.8335V50.166Z" fill="black"/>
</g>
<defs>
<clipPath id="clip0_219_289">
<rect width="110" height="110" fill="white"/>
</clipPath>
</defs>
</svg>
