<svg width="110" height="110" viewBox="0 0 110 110" fill="none" xmlns="http://www.w3.org/2000/svg">
<g clip-path="url(#clip0_219_317)">
<path d="M8.17578 64.464V97.9805C8.17578 100.591 10.2997 102.715 12.9101 102.715C15.5209 102.715 17.6446 100.591 17.6446 97.9805V64.464C17.6446 61.8534 15.5209 59.7295 12.9101 59.7295C10.2995 59.7295 8.17578 61.8534 8.17578 64.464ZM14.4157 64.464V97.9805C14.4157 98.8106 13.7402 99.4859 12.9101 99.4859C12.0799 99.4859 11.4047 98.8106 11.4047 97.9805V64.464C11.4047 63.6338 12.0799 62.9584 12.9101 62.9584C13.7402 62.9584 14.4157 63.6338 14.4157 64.464Z" fill="black"/>
<path d="M26.9401 59.7295C24.3293 59.7295 22.2056 61.8552 22.2056 64.4679V97.9766C22.2056 100.589 24.3295 102.715 26.9401 102.715C29.5509 102.715 31.6746 100.589 31.6746 97.9766V64.4679C31.6748 61.8552 29.5509 59.7295 26.9401 59.7295ZM28.4457 97.9766C28.4457 98.8089 27.7702 99.4859 26.9401 99.4859C26.1099 99.4859 25.4345 98.8087 25.4345 97.9766V64.4679C25.4345 63.6356 26.1099 62.9584 26.9401 62.9584C27.7702 62.9584 28.4457 63.6356 28.4457 64.4679V97.9766Z" fill="black"/>
<path d="M36.2358 64.464V97.9805C36.2358 100.591 38.3596 102.715 40.9701 102.715C43.5809 102.715 45.7046 100.591 45.7046 97.9805V64.464C45.7046 61.8534 43.5807 59.7295 40.9701 59.7295C38.3596 59.7295 36.2358 61.8534 36.2358 64.464ZM42.4755 64.464V97.9805C42.4755 98.8106 41.8001 99.4859 40.9699 99.4859C40.1398 99.4859 39.4645 98.8106 39.4645 97.9805V64.464C39.4645 63.6338 40.1398 62.9584 40.9699 62.9584C41.8001 62.9584 42.4755 63.6338 42.4755 64.464Z" fill="black"/>
<path d="M50.2656 64.4679V97.9766C50.2656 100.589 52.3894 102.715 55.0001 102.715C57.6109 102.715 59.7346 100.589 59.7346 97.9766V64.4679C59.7346 61.8552 57.6109 59.7295 55.0001 59.7295C52.3894 59.7295 50.2656 61.8552 50.2656 64.4679ZM56.5058 64.4679V97.9766C56.5058 98.8089 55.8303 99.4859 55.0001 99.4859C54.17 99.4859 53.4945 98.8087 53.4945 97.9766V64.4679C53.4945 63.6356 54.17 62.9584 55.0001 62.9584C55.8303 62.9584 56.5058 63.6356 56.5058 64.4679Z" fill="black"/>
<path d="M64.2954 64.464V97.9805C64.2954 100.591 66.4194 102.715 69.0299 102.715C71.6405 102.715 73.7642 100.591 73.7642 97.9805V64.464C73.7642 61.8534 71.6405 59.7295 69.0299 59.7295C66.4194 59.7295 64.2954 61.8534 64.2954 64.464ZM70.5353 64.464V97.9805C70.5353 98.8106 69.8601 99.4859 69.0299 99.4859C68.1998 99.4859 67.5243 98.8106 67.5243 97.9805V64.464C67.5243 63.6338 68.1998 62.9584 69.0299 62.9584C69.8601 62.9584 70.5353 63.6338 70.5353 64.464Z" fill="black"/>
<path d="M87.7942 97.9766V64.4679C87.7942 61.8552 85.6703 59.7295 83.0597 59.7295C80.4489 59.7295 78.3252 61.8552 78.3252 64.4679V97.9766C78.3252 100.589 80.4489 102.715 83.0597 102.715C85.6703 102.715 87.7942 100.589 87.7942 97.9766ZM81.5541 97.9766V64.4679C81.5541 63.6356 82.2295 62.9584 83.0597 62.9584C83.8899 62.9584 84.5653 63.6356 84.5653 64.4679V97.9766C84.5653 98.8089 83.8899 99.4859 83.0597 99.4859C82.2295 99.4861 81.5541 98.8089 81.5541 97.9766Z" fill="black"/>
<path d="M101.824 97.9805V64.464C101.824 61.8534 99.7005 59.7295 97.09 59.7295C94.4792 59.7295 92.3555 61.8534 92.3555 64.464V97.9805C92.3555 100.591 94.4792 102.715 97.09 102.715C99.7005 102.715 101.824 100.591 101.824 97.9805ZM95.5844 97.9805V64.464C95.5844 63.6338 96.2598 62.9584 97.09 62.9584C97.9201 62.9584 98.5954 63.6338 98.5954 64.464V97.9805C98.5954 98.8106 97.9201 99.4859 97.09 99.4859C96.2598 99.4861 95.5844 98.8106 95.5844 97.9805Z" fill="black"/>
<path d="M108.385 45.1249H99.1119V43.0132C99.1119 40.0686 96.7181 37.6726 93.7759 37.6726C92.2977 37.6726 90.9586 38.2774 89.9914 39.2526L60.5492 24.1186C61.3409 23.0656 61.8415 21.7811 61.9281 20.3844C62.0937 17.7147 60.7572 15.2331 58.4401 13.9079C57.4739 13.3551 56.8232 12.3529 56.6573 11.2112H61.6017C64.8676 11.2112 67.5241 8.55443 67.5241 5.28881V1.61455C67.5241 0.722949 66.8014 0 65.9095 0H44.09C43.1982 0 42.4755 0.722949 42.4755 1.61455V5.28881C42.4755 8.55443 45.1322 11.2112 48.3979 11.2112H53.411C53.5951 13.5141 54.8709 15.5863 56.8369 16.7108C58.0783 17.4208 58.7941 18.7518 58.7054 20.1846C58.6476 21.1161 58.2248 21.9669 57.5839 22.5947L55.738 21.6457C55.2748 21.4075 54.7252 21.4075 54.2618 21.6457L52.4049 22.6001C51.685 21.8947 51.2869 20.9561 51.2869 19.9442C51.2869 19.0526 50.5641 18.3296 49.6723 18.3296C48.7805 18.3296 48.0578 19.0523 48.0578 19.9442C48.0578 21.4537 48.5577 22.9217 49.4532 24.1173L20.0086 39.2528C19.0414 38.2776 17.7021 37.6729 16.2241 37.6729C13.2819 37.6729 10.8881 40.0686 10.8881 43.0134V45.1251H1.61455C0.722734 45.1251 0 45.8481 0 46.7397V54.0598V108.386C0 109.277 0.722734 110 1.61455 110H75.3788C76.2706 110 76.9933 109.277 76.9933 108.385C76.9933 107.494 76.2706 106.771 75.3788 106.771H3.22889V55.6742H24.4514C25.3432 55.6742 26.0659 54.9512 26.0659 54.0596C26.0659 53.168 25.3432 52.4451 24.4514 52.4451H3.22889V48.354H68.9208C69.8126 48.354 70.5354 47.6311 70.5354 46.7395C70.5354 45.8479 69.8126 45.1249 68.9208 45.1249H21.5598V43.0132C21.5598 42.7103 21.5331 42.4138 21.4846 42.1246L52.2313 26.3199C53.9797 27.0823 56.0171 27.0789 57.7653 26.3181L88.5154 42.1246C88.4669 42.4138 88.4402 42.7105 88.4402 43.0132V45.1249H75.3788C74.487 45.1249 73.7642 45.8479 73.7642 46.7395C73.7642 47.6311 74.487 48.354 75.3788 48.354H106.771V52.4451H30.9094C30.0175 52.4451 29.2948 53.168 29.2948 54.0596C29.2948 54.9512 30.0175 55.6742 30.9094 55.6742H106.771V106.771H81.8368C80.945 106.771 80.2222 107.494 80.2222 108.386C80.2222 109.277 80.945 110 81.8368 110H108.385C109.277 110 110 109.277 110 108.386V54.0596V46.7395C110 45.8479 109.277 45.1249 108.385 45.1249ZM45.7046 5.28859V3.22889H64.2954V5.28859C64.2954 6.77381 63.0872 7.98209 61.6019 7.98209H48.3981C46.9128 7.98209 45.7046 6.77381 45.7046 5.28859ZM14.117 45.1249V43.0132C14.117 41.849 15.0621 40.9017 16.2239 40.9017C17.3856 40.9017 18.3307 41.849 18.3307 43.0132V45.1249H14.117ZM91.6691 43.0132C91.6691 41.849 92.6142 40.9017 93.7759 40.9017C94.9377 40.9017 95.8828 41.849 95.8828 43.0132V45.1249H91.6691V43.0132Z" fill="black"/>
</g>
<defs>
<clipPath id="clip0_219_317">
<rect width="110" height="110" fill="white"/>
</clipPath>
</defs>
</svg>
