<svg width="110" height="110" viewBox="0 0 110 110" fill="none" xmlns="http://www.w3.org/2000/svg">
<g clip-path="url(#clip0_219_313)">
<path d="M95.0751 17.0851H107.852C109.038 17.0851 110 16.1234 110 14.9367V2.14844C110 0.961761 109.038 0 107.852 0H95.0751C93.8884 0 92.9266 0.961761 92.9266 2.14844V6.39412H63.5367V2.14844C63.5367 0.961761 62.5749 0 61.3882 0H48.6118C47.4251 0 46.4633 0.961761 46.4633 2.14844V6.39412H17.0734V2.14844C17.0734 0.961761 16.1116 0 14.9249 0H2.14844C0.961761 0 0 0.961761 0 2.14844V14.9367C0 16.1234 0.961761 17.0851 2.14844 17.0851H14.9249C16.1116 17.0851 17.0734 16.1234 17.0734 14.9367V10.691H34.9457C28.6523 13.5444 22.9782 17.7355 18.3549 23.0353C11.1056 31.3454 6.91444 41.861 6.43021 52.8516H2.14844C0.961761 52.8516 0 53.8133 0 55V67.7882C0 68.9749 0.961761 69.9367 2.14844 69.9367H14.9249C16.1116 69.9367 17.0734 68.9749 17.0734 67.7882V55C17.0734 53.8133 16.1116 52.8516 14.9249 52.8516H10.7321C11.7224 32.6051 26.6163 15.3647 46.4633 11.4891V14.9375C46.4633 16.1242 47.4251 17.086 48.6118 17.086H61.3882C62.5749 17.086 63.5367 16.1242 63.5367 14.9375V11.4891C83.3837 15.3647 98.2776 32.6051 99.2679 52.8516H95.0751C93.8884 52.8516 92.9266 53.8133 92.9266 55V67.7882C92.9266 68.9749 93.8884 69.9367 95.0751 69.9367H107.852C109.038 69.9367 110 68.9749 110 67.7882V55C110 53.8133 109.038 52.8516 107.852 52.8516H103.57C103.086 41.861 98.8944 31.3454 91.6451 23.0353C87.0218 17.7355 81.3477 13.5444 75.0543 10.691H92.9266V14.9375C92.9266 16.1234 93.8884 17.0851 95.0751 17.0851ZM12.7765 12.7882H4.29688V4.29688H12.7765V12.7882ZM12.7765 65.6398H4.29688V57.1484H12.7765V65.6398ZM105.703 65.6398H97.2235V57.1484H105.703V65.6398ZM59.2398 12.7882H50.7602V4.29688H59.2398V12.7882ZM97.2235 4.29688H105.703V12.7882H97.2235V4.29688Z" fill="black"/>
<path d="M56.8812 23.6706C56.5035 22.9849 55.7826 22.5586 54.9996 22.5586C54.2166 22.5586 53.4957 22.9849 53.1181 23.6706L44.1945 39.8711C43.6221 40.9109 44.0006 42.2176 45.0404 42.7892C46.0786 43.3615 47.3861 42.9839 47.9584 41.944L52.8512 33.0608V48.9046C49.8685 49.8244 47.6949 52.6065 47.6949 55.8871C47.6949 59.9146 50.9721 63.1918 54.9996 63.1918C59.0271 63.1918 62.3043 59.9146 62.3043 55.8871C62.3043 52.6065 60.1307 49.8244 57.1481 48.9046V33.0608L71.8875 59.8222C67.0451 64.72 63.7444 71.0025 62.4621 77.7734H47.5371C46.254 71.0025 42.9533 64.72 38.1117 59.8222L40.574 55.3516C41.1464 54.3127 40.7679 53.006 39.7289 52.4336C38.69 51.8613 37.3824 52.2389 36.8101 53.2787L33.5538 59.192C33.0755 60.0597 33.2534 61.1432 33.9844 61.8129C38.6111 66.0502 41.8236 71.663 43.153 77.7734H41.1523C37.5981 77.7734 34.707 80.6654 34.707 84.2188C34.707 86.7264 36.1462 88.9017 38.2418 89.9667V107.852C38.2418 109.038 39.2036 110 40.3902 110C41.5769 110 42.5387 109.038 42.5387 107.852V90.6641H67.4606V107.852C67.4606 109.038 68.4223 110 69.609 110C70.7957 110 71.7574 109.038 71.7574 107.852V89.9667C73.853 88.9017 75.2923 86.7255 75.2923 84.2188C75.2923 80.6646 72.4011 77.7734 68.847 77.7734H66.8462C68.1756 71.6621 71.3882 66.0502 76.0149 61.8121C76.7458 61.1423 76.9237 60.0597 76.4454 59.1911L56.8812 23.6706ZM54.9996 58.8949C53.3413 58.8949 51.9918 57.5454 51.9918 55.8871C51.9918 54.2279 53.3413 52.8793 54.9996 52.8793C56.6579 52.8793 58.0074 54.2279 58.0074 55.8871C58.0074 57.5454 56.6579 58.8949 54.9996 58.8949ZM70.9954 84.2188C70.9954 85.4037 70.032 86.3672 68.847 86.3672H41.1523C39.9673 86.3672 39.0038 85.4037 39.0038 84.2188C39.0038 83.0338 39.9673 82.0703 41.1523 82.0703H68.847C70.032 82.0703 70.9954 83.0338 70.9954 84.2188Z" fill="black"/>
<path d="M42.2441 49.8701C42.8098 49.8701 43.3637 49.6418 43.7632 49.2424C44.1626 48.8404 44.3926 48.289 44.3926 47.7217C44.3926 47.156 44.1626 46.6047 43.7632 46.2027C43.3637 45.8032 42.8098 45.5732 42.2441 45.5732C41.6768 45.5732 41.1229 45.8032 40.7234 46.2027C40.324 46.6047 40.0957 47.156 40.0957 47.7217C40.0957 48.289 40.324 48.8404 40.7234 49.2424C41.1229 49.6418 41.6768 49.8701 42.2441 49.8701Z" fill="black"/>
</g>
<defs>
<clipPath id="clip0_219_313">
<rect width="110" height="110" fill="white"/>
</clipPath>
</defs>
</svg>
