<svg width="110" height="110" viewBox="0 0 110 110" fill="none" xmlns="http://www.w3.org/2000/svg">
<path d="M3.575 74.9514C3.63516 75.7077 4.18344 76.335 4.92594 76.4949L10.9158 77.7873C11.1272 78.8083 11.3953 79.8155 11.7202 80.7986L7.18609 84.9064C6.62406 85.4152 6.4625 86.2333 6.78906 86.9191C7.6175 88.6619 8.54047 90.2723 9.53219 91.7058C9.96187 92.328 10.7491 92.5961 11.4727 92.3641L17.2941 90.4889C17.9902 91.2692 18.7309 92.01 19.5112 92.7061L17.6361 98.5275C17.4041 99.2477 17.6705 100.037 18.2944 100.468C19.7278 101.46 21.3383 102.383 23.0811 103.211C23.7686 103.538 24.585 103.374 25.0938 102.814L29.2016 98.28C30.1864 98.6031 31.1936 98.873 32.2145 99.0844L33.507 105.074C33.6669 105.815 34.2942 106.363 35.0487 106.425C35.9631 106.497 36.8792 106.563 37.8125 106.563C38.7458 106.563 39.6619 106.497 40.5762 106.425C41.3325 106.365 41.9598 105.817 42.1197 105.074L43.4122 99.0844C44.4331 98.873 45.442 98.6048 46.4252 98.28L50.533 102.814C51.0434 103.376 51.8616 103.539 52.5456 103.211C54.2884 102.383 55.8989 101.458 57.3323 100.468C57.9562 100.037 58.2227 99.2477 57.9906 98.5275L56.1155 92.7061C56.8958 92.01 57.6366 91.2692 58.3327 90.4906L64.1541 92.3658C64.8742 92.5995 65.6631 92.3314 66.0945 91.7075C67.0863 90.2741 68.0092 88.6636 68.8377 86.9208C69.1642 86.235 69.0027 85.4169 68.4406 84.9081L63.9066 80.8003C64.2297 79.8155 64.4995 78.8083 64.7109 77.7873L70.7008 76.4949C71.4416 76.335 71.9898 75.7077 72.0517 74.9531C72.1222 74.037 72.1875 73.1209 72.1875 72.1877C72.1875 71.2544 72.1222 70.3383 72.05 69.4239C71.9898 68.6677 71.4416 68.0403 70.6991 67.8805L64.7092 66.588C64.4978 65.567 64.2297 64.5581 63.9048 63.575L68.4389 59.4672C69.0009 58.9584 69.1625 58.1403 68.8359 57.4545C68.0075 55.7117 67.0828 54.1013 66.0928 52.6678C65.6614 52.0439 64.8725 51.7758 64.1523 52.0095L58.3309 53.8847C57.6348 53.1044 56.8941 52.3636 56.1137 51.6675L57.9889 45.8461C58.2209 45.1259 57.9545 44.337 57.3306 43.9056C55.8972 42.9139 54.2867 41.9909 52.5439 41.1625C51.8564 40.8342 51.04 40.9975 50.5312 41.5595L46.4234 46.0936C45.4386 45.7705 44.4314 45.5006 43.4105 45.2892L42.118 39.2994C41.9581 38.5586 41.3308 38.0103 40.5762 37.9484C38.7458 37.8006 36.8775 37.8041 35.047 37.9484C34.2908 38.0086 33.6634 38.5569 33.5036 39.2994L32.2111 45.2892C31.1902 45.5006 30.183 45.7688 29.1998 46.0936L25.092 41.5595C24.5833 40.9975 23.7669 40.8359 23.0794 41.1625C21.3366 41.9909 19.7261 42.9139 18.2927 43.9056C17.6687 44.337 17.4023 45.1259 17.6344 45.8461L19.5095 51.6675C18.7292 52.3636 17.9884 53.1044 17.2923 53.8847L11.4727 52.0095C10.7508 51.7758 9.96187 52.0439 9.53219 52.6678C8.54047 54.1013 7.6175 55.7117 6.78906 57.4545C6.4625 58.1403 6.62406 58.9584 7.18609 59.4672L11.7202 63.575C11.397 64.5598 11.1272 65.567 10.9158 66.588L4.92594 67.8805C4.18516 68.0403 3.63687 68.6677 3.575 69.4222C3.50281 70.3383 3.4375 71.2544 3.4375 72.1877C3.4375 73.1209 3.50281 74.037 3.575 74.9514ZM6.91109 70.9691L12.7583 69.7058C13.4492 69.5563 13.9786 68.9994 14.092 68.3016C14.3498 66.7169 14.7658 65.1614 15.3278 63.6764C15.5788 63.0164 15.3983 62.2688 14.8741 61.7944L10.4586 57.7931C10.8436 57.0558 11.2458 56.3494 11.6617 55.6808L17.3267 57.5061C17.997 57.7209 18.7361 57.5061 19.1847 56.9595C20.1987 55.7186 21.3434 54.5756 22.5844 53.5598C23.1309 53.113 23.3492 52.3756 23.1309 51.7019L21.3056 46.0369C21.9742 45.6192 22.6789 45.217 23.418 44.8338L27.4192 49.2509C27.8953 49.7752 28.6447 49.9556 29.303 49.7047C30.7845 49.1427 32.34 48.7267 33.9264 48.4689C34.6242 48.3555 35.1811 47.8261 35.3306 47.1352L36.5922 41.288C37.4017 41.245 38.225 41.2433 39.0311 41.288L40.2944 47.1352C40.4439 47.8261 41.0008 48.3555 41.6986 48.4689C43.2833 48.7267 44.8387 49.1427 46.3237 49.7047C46.9803 49.9556 47.7297 49.7769 48.2058 49.2509L52.207 44.8355C52.9444 45.2205 53.6508 45.6227 54.3194 46.0386L52.4941 51.7036C52.2775 52.3773 52.4941 53.113 53.0406 53.5616C54.2816 54.5756 55.4245 55.7203 56.4403 56.9613C56.8889 57.5095 57.6262 57.7278 58.2983 57.5078L63.9633 55.6825C64.3809 56.3511 64.7831 57.0558 65.1664 57.7931L60.7492 61.7944C60.225 62.2688 60.0445 63.0164 60.2955 63.6781C60.8575 65.1597 61.2734 66.7152 61.5312 68.3016C61.6447 68.9994 62.1741 69.5563 62.865 69.7058L68.7122 70.9674C68.7345 71.3713 68.75 71.7786 68.75 72.1877C68.75 72.5967 68.7363 73.0041 68.7139 73.4063L62.8667 74.6695C62.1758 74.8191 61.6464 75.3759 61.533 76.0738C61.2752 77.6584 60.8592 79.2139 60.2972 80.6989C60.0462 81.3589 60.2267 82.1066 60.7509 82.5809L65.1664 86.5822C64.7814 87.3195 64.3792 88.0259 63.9633 88.6945L58.2983 86.8692C57.6228 86.6492 56.8889 86.8675 56.4403 87.4158C55.428 88.6533 54.2833 89.798 53.0406 90.8155C52.4941 91.2624 52.2775 91.9997 52.4941 92.6717L54.3194 98.3367C53.6508 98.7544 52.9461 99.1566 52.2087 99.5399L48.2075 95.1227C47.7331 94.5984 46.9855 94.4214 46.3237 94.6689C44.8422 95.2309 43.2867 95.6469 41.7003 95.9047C41.0025 96.0181 40.4456 96.5475 40.2961 97.2384L39.0345 103.086C38.225 103.129 37.4017 103.13 36.5956 103.086L35.3323 97.2384C35.1828 96.5475 34.6259 96.0181 33.9281 95.9047C32.3434 95.6469 30.788 95.2309 29.303 94.6689C28.6447 94.418 27.8953 94.5967 27.4209 95.1227L23.4197 99.5381C22.6823 99.1531 21.9759 98.7509 21.3073 98.335L23.1327 92.67C23.3492 91.9963 23.1327 91.2606 22.5861 90.812C21.3452 89.798 20.2022 88.6533 19.1864 87.4123C18.7378 86.8641 17.9987 86.6475 17.3284 86.8658L11.6634 88.6911C11.2458 88.0225 10.8436 87.3178 10.4603 86.5788L14.8775 82.5775C15.4017 82.1031 15.5822 81.3555 15.3313 80.6938C14.7692 79.2122 14.3533 77.6567 14.0955 76.0703C13.982 75.3725 13.4527 74.8156 12.7617 74.6661L6.91109 73.408C6.89047 73.0041 6.875 72.5967 6.875 72.1877C6.875 71.7786 6.88875 71.3713 6.91109 70.9691Z" fill="black"/>
<path d="M93.1889 27.904C93.8352 27.7012 94.3027 27.1357 94.38 26.462C94.4831 25.594 94.5312 24.8086 94.5312 24.0626C94.5312 23.3167 94.4831 22.5312 94.3817 21.6632C94.3044 20.9895 93.8369 20.424 93.1906 20.2212L88.4245 18.7242C88.2819 18.334 88.1238 17.9507 87.9502 17.5761L90.2602 13.1503C90.573 12.5504 90.5042 11.8217 90.0848 11.2889C89.0897 10.0307 87.945 8.88605 86.6834 7.88746C86.1506 7.46637 85.4219 7.39934 84.822 7.71043L80.3928 10.0204C80.0181 9.84855 79.6348 9.69043 79.2447 9.54777L77.7477 4.78168C77.5448 4.13543 76.9794 3.66793 76.3056 3.59059C74.5662 3.38777 73.2445 3.38777 71.5052 3.59059C70.8314 3.66793 70.2659 4.13543 70.0631 4.78168L68.5661 9.54777C68.1759 9.69043 67.7927 9.84855 67.418 10.0221L62.9922 7.71215C62.3923 7.40105 61.6653 7.46809 61.1308 7.88746C59.8727 8.88262 58.728 10.0273 57.7294 11.2889C57.3083 11.8217 57.2395 12.5487 57.5523 13.1503L59.8606 17.5761C59.6887 17.9507 59.5306 18.334 59.388 18.7242L54.6219 20.2212C53.9756 20.424 53.5081 20.9895 53.4308 21.6632C53.3294 22.5312 53.2812 23.3167 53.2812 24.0626C53.2812 24.8086 53.3294 25.594 53.4308 26.462C53.5081 27.1357 53.9756 27.7012 54.6219 27.904L59.388 29.4011C59.5306 29.7912 59.6887 30.1745 59.8623 30.5492L57.5523 34.975C57.2395 35.5748 57.3083 36.3036 57.7277 36.8364C58.7228 38.0945 59.8675 39.2392 61.1291 40.2378C61.6602 40.6589 62.3906 40.7259 62.9905 40.4148L67.4162 38.1065C67.7909 38.2784 68.1742 38.4365 68.5644 38.5792L70.0614 43.3453C70.2642 43.9915 70.8297 44.459 71.5034 44.5364C72.3748 44.6395 73.1603 44.6876 73.9062 44.6876C74.6522 44.6876 75.4377 44.6395 76.3056 44.5381C76.9794 44.4607 77.5448 43.9932 77.7477 43.347L79.2447 38.5809C79.6348 38.4382 80.0181 38.2801 80.3928 38.1065L84.8186 40.4165C85.4184 40.7293 86.1472 40.6623 86.68 40.2412C87.9381 39.2461 89.0828 38.1014 90.0814 36.8398C90.5025 36.307 90.5713 35.58 90.2584 34.9784L87.9484 30.5526C88.122 30.1779 88.2802 29.7946 88.4228 29.4045L93.1889 27.904ZM86.5545 26.3846C86.0114 26.5565 85.5886 26.9845 85.4236 27.5311C85.1898 28.3079 84.8805 29.0556 84.5058 29.7551C84.2359 30.257 84.2308 30.8603 84.4955 31.3639L86.6766 35.5439C86.2692 35.9959 85.8378 36.4273 85.3875 36.8329L81.2075 34.6518C80.7022 34.3871 80.0989 34.394 79.5988 34.6621C78.8992 35.0368 78.1516 35.3462 77.3747 35.58C76.8298 35.7432 76.4002 36.1678 76.2283 36.7109L74.812 41.2209C74.1847 41.2587 73.6295 41.2587 73.0005 41.2209L71.5842 36.7109C71.4123 36.1678 70.9844 35.745 70.4378 35.58C69.6592 35.3462 68.9116 35.0368 68.2155 34.6621C67.7136 34.3923 67.1103 34.3871 66.605 34.6518L62.425 36.8329C61.973 36.4256 61.5416 35.9942 61.1359 35.5439L63.317 31.3639C63.58 30.8603 63.5766 30.2553 63.3067 29.7551C62.932 29.0556 62.6227 28.3079 62.3889 27.5311C62.2256 26.9862 61.8011 26.5565 61.258 26.3846L56.748 24.9684C56.7273 24.6539 56.7188 24.3531 56.7188 24.0626C56.7188 23.7721 56.7273 23.4714 56.748 23.1568L61.258 21.7406C61.8011 21.5687 62.2239 21.1407 62.3889 20.5942C62.6227 19.8156 62.932 19.0679 63.3067 18.3718C63.5766 17.87 63.5817 17.2667 63.317 16.7614L61.1359 12.5814C61.5433 12.1293 61.9747 11.6979 62.425 11.2923L66.605 13.4734C67.1086 13.7364 67.7136 13.7312 68.2137 13.4631C68.9133 13.0884 69.6609 12.779 70.4378 12.5453C70.9827 12.382 71.4123 11.9575 71.5842 11.4143L73.0005 6.90434C73.6278 6.86652 74.183 6.86652 74.812 6.90434L76.2283 11.4143C76.4002 11.9575 76.8281 12.3803 77.3747 12.5453C78.1533 12.779 78.9009 13.0884 79.597 13.4631C80.0989 13.7329 80.7022 13.7381 81.2075 13.4734L85.3875 11.2923C85.8395 11.6996 86.2709 12.1311 86.6766 12.5814L84.4955 16.7614C84.2325 17.265 84.2359 17.87 84.5058 18.3701C84.8805 19.0696 85.1898 19.8173 85.4236 20.5942C85.5869 21.139 86.0114 21.5687 86.5545 21.7406L91.0645 23.1568C91.0852 23.4714 91.0938 23.7721 91.0938 24.0626C91.0938 24.3531 91.0852 24.6539 91.0645 24.9684L86.5545 26.3846Z" fill="black"/>
<path d="M105.294 60.0941L102.341 59.0456C102.173 58.5661 101.98 58.0969 101.762 57.6414L103.104 54.8141C103.385 54.2263 103.307 53.5319 102.905 53.0197C102.046 51.9214 101.052 50.9263 99.9505 50.0634C99.4366 49.6613 98.7388 49.5856 98.1544 49.8641L95.3253 51.2064C94.8716 50.9898 94.4023 50.7956 93.9228 50.6289L92.8727 47.6761C92.6544 47.0625 92.1061 46.6242 91.4598 46.5452C89.9284 46.3613 88.8198 46.3613 87.2884 46.5452C86.6422 46.6225 86.0939 47.0608 85.8756 47.6761L84.8272 50.6289C84.3477 50.7973 83.8784 50.9898 83.423 51.2081L80.5956 49.8658C80.0112 49.5873 79.3152 49.6647 78.8012 50.0652C77.703 50.9245 76.7078 51.918 75.845 53.0197C75.4445 53.5319 75.3672 54.228 75.6456 54.8158L76.988 57.6448C76.7714 58.0986 76.5772 58.5678 76.4105 59.0473L73.4577 60.0975C72.8441 60.3158 72.4058 60.8641 72.3267 61.5103C72.2322 62.2717 72.1875 62.9541 72.1875 63.5934C72.1875 64.2328 72.2322 64.9134 72.325 65.6783C72.4023 66.3245 72.8406 66.8728 73.4559 67.0911L76.4088 68.1395C76.5772 68.6191 76.7697 69.0883 76.988 69.5438L75.6456 72.3711C75.3655 72.9589 75.4428 73.6533 75.845 74.1655C76.7044 75.2638 77.6978 76.2589 78.7995 77.1217C79.3117 77.5222 80.0095 77.5995 80.5956 77.3211L83.4247 75.9788C83.8784 76.1953 84.3477 76.3895 84.8272 76.5562L85.8773 79.5091C86.0956 80.1227 86.6439 80.5609 87.2902 80.64C88.055 80.7362 88.7356 80.7809 89.375 80.7809C90.0144 80.7809 90.695 80.7362 91.4598 80.6434C92.1061 80.5661 92.6544 80.1278 92.8727 79.5125L93.9211 76.5597C94.4006 76.3912 94.8698 76.1988 95.3253 75.9805L98.1527 77.3228C98.7387 77.603 99.4366 77.5273 99.947 77.1234C101.045 76.2641 102.04 75.2706 102.903 74.1689C103.304 73.6567 103.381 72.9606 103.103 72.3728L101.76 69.5438C101.977 69.09 102.171 68.6208 102.338 68.1413L105.291 67.0911C105.904 66.8728 106.342 66.3245 106.422 65.6783C106.518 64.9134 106.562 64.2328 106.562 63.5934C106.562 62.9541 106.518 62.2734 106.425 61.5086C106.348 60.8606 105.909 60.3141 105.294 60.0941ZM103.108 64.2208L100.384 65.1884C99.8559 65.3758 99.452 65.8089 99.3025 66.3486C99.0773 67.165 98.7559 67.9436 98.3486 68.6638C98.0736 69.1502 98.053 69.7414 98.2919 70.2467L99.5259 72.8472C99.2406 73.16 98.9416 73.4591 98.6305 73.7427L96.03 72.5086C95.5281 72.2697 94.9352 72.2903 94.447 72.5653C93.7252 72.9744 92.9466 73.2941 92.1336 73.5192C91.5939 73.6688 91.1608 74.0727 90.9717 74.6003L90.0041 77.3245C89.5881 77.3469 89.1653 77.3469 88.7494 77.3245L87.7817 74.6003C87.5944 74.0727 87.1612 73.6688 86.6216 73.5192C85.8052 73.2941 85.0266 72.9727 84.3064 72.5653C83.82 72.292 83.2305 72.2714 82.7234 72.5086L80.123 73.7427C79.8102 73.4573 79.5111 73.1583 79.2275 72.8472L80.4616 70.2467C80.7022 69.7414 80.6798 69.1502 80.4048 68.6638C79.9958 67.9419 79.6761 67.1633 79.4509 66.3503C79.3014 65.8106 78.8975 65.3775 78.3698 65.1884L75.6456 64.2208C75.6319 64.0128 75.625 63.8048 75.625 63.5934C75.625 63.382 75.6319 63.1723 75.6422 62.9661L78.3664 61.9967C78.8941 61.8094 79.298 61.3763 79.4458 60.8366C79.6727 60.0184 79.9941 59.2416 80.4014 58.5214C80.6764 58.035 80.697 57.4437 80.4581 56.9384L79.2241 54.338C79.5094 54.0252 79.8084 53.7261 80.1195 53.4425L82.72 54.6766C83.2253 54.9172 83.8166 54.8966 84.303 54.6198C85.0248 54.2108 85.8034 53.8911 86.6164 53.6659C87.1561 53.5164 87.5892 53.1125 87.7783 52.5848L88.7459 49.8606C89.1619 49.8383 89.5847 49.8383 90.0006 49.8606L90.9683 52.5848C91.1556 53.1125 91.5888 53.5164 92.1284 53.6659C92.9448 53.8911 93.7234 54.2125 94.4436 54.6198C94.9317 54.8966 95.5212 54.9172 96.0266 54.6766L98.627 53.4425C98.9398 53.7278 99.2389 54.0269 99.5225 54.338L98.2884 56.9384C98.0478 57.4437 98.0702 58.035 98.3452 58.5214C98.7542 59.2433 99.0739 60.0219 99.2991 60.8348C99.4486 61.3745 99.8525 61.8077 100.38 61.9967L103.104 62.9644C103.118 63.1741 103.125 63.382 103.125 63.5934C103.125 63.8048 103.118 64.0128 103.108 64.2208Z" fill="black"/>
<path d="M37.8125 91.0938C48.2367 91.0938 56.7188 82.6117 56.7188 72.1875C56.7188 61.7633 48.2367 53.2812 37.8125 53.2812C27.3883 53.2812 18.9062 61.7633 18.9062 72.1875C18.9062 82.6117 27.3883 91.0938 37.8125 91.0938ZM37.8125 56.7188C46.3409 56.7188 53.2812 63.6591 53.2812 72.1875C53.2812 80.7159 46.3409 87.6562 37.8125 87.6562C29.2841 87.6562 22.3438 80.7159 22.3438 72.1875C22.3438 63.6591 29.2841 56.7188 37.8125 56.7188Z" fill="black"/>
<path d="M3.4751 43.5861L6.1151 45.7878C13.9853 36.3502 25.537 30.9378 37.8123 30.9378C38.6871 30.9378 39.5603 30.9877 40.4334 31.0427L38.3159 33.1602L40.7462 35.5905L45.9024 30.4342C46.5745 29.7622 46.5745 28.6759 45.9024 28.0039L40.7462 22.8477L38.3159 25.278L40.6517 27.6137C39.7064 27.5536 38.7593 27.5003 37.8123 27.5003C24.516 27.5003 12.0001 33.363 3.4751 43.5861Z" fill="black"/>
<path d="M73.9062 15.4688C69.1677 15.4688 65.3125 19.3239 65.3125 24.0625C65.3125 28.8011 69.1677 32.6562 73.9062 32.6562C78.6448 32.6562 82.5 28.8011 82.5 24.0625C82.5 19.3239 78.6448 15.4688 73.9062 15.4688ZM73.9062 29.2188C71.0634 29.2188 68.75 26.9053 68.75 24.0625C68.75 21.2197 71.0634 18.9062 73.9062 18.9062C76.7491 18.9062 79.0625 21.2197 79.0625 24.0625C79.0625 26.9053 76.7491 29.2188 73.9062 29.2188Z" fill="black"/>
<path d="M89.375 56.7188C85.5834 56.7188 82.5 59.8022 82.5 63.5938C82.5 67.3853 85.5834 70.4688 89.375 70.4688C93.1666 70.4688 96.25 67.3853 96.25 63.5938C96.25 59.8022 93.1666 56.7188 89.375 56.7188ZM89.375 67.0312C87.4792 67.0312 85.9375 65.4895 85.9375 63.5938C85.9375 61.698 87.4792 60.1562 89.375 60.1562C91.2708 60.1562 92.8125 61.698 92.8125 63.5938C92.8125 65.4895 91.2708 67.0312 89.375 67.0312Z" fill="black"/>
<path d="M105.181 8.62828L96.5869 6.90953C95.6519 6.72046 94.7496 7.32718 94.564 8.25703L92.8452 16.8508L96.2157 17.5262L97.1421 12.8994C98.8076 16.3644 99.6876 20.1834 99.6876 24.0627C99.6876 29.9889 97.7316 35.5611 94.0329 40.1759L96.7158 42.3261C100.849 37.1681 103.125 30.6833 103.125 24.0627C103.125 19.5612 102.085 15.1234 100.107 11.1187L104.507 11.9987L105.181 8.62828Z" fill="black"/>
</svg>
