<svg version="1.2" xmlns="http://www.w3.org/2000/svg" viewBox="0 0 768 576" width="768" height="576">
	<title>RPA_Chart_new-svg</title>
	<defs>
		<clipPath clipPathUnits="userSpaceOnUse" id="cp1">
			<path d="m323.43 229h85.57v92h-85.57z"/>
		</clipPath>
		<clipPath clipPathUnits="userSpaceOnUse" id="cp2">
			<path d="m412.13 253.36h26.71v5.64h-26.71z"/>
		</clipPath>
		<clipPath clipPathUnits="userSpaceOnUse" id="cp3">
			<path d="m405 234h33.84v6h-33.84z"/>
		</clipPath>
		<clipPath clipPathUnits="userSpaceOnUse" id="cp4">
			<path d="m385 224.74h53.84v5.26h-53.84z"/>
		</clipPath>
		<clipPath clipPathUnits="userSpaceOnUse" id="cp5">
			<path d="m412.13 292h26.71v5h-26.71z"/>
		</clipPath>
		<clipPath clipPathUnits="userSpaceOnUse" id="cp6">
			<path d="m412.13 301h26.71v6h-26.71z"/>
		</clipPath>
		<clipPath clipPathUnits="userSpaceOnUse" id="cp7">
			<path d="m405 311h33.84v5.3h-33.84z"/>
		</clipPath>
		<clipPath clipPathUnits="userSpaceOnUse" id="cp8">
			<path d="m385 320.59h53.84v5.12h-53.84z"/>
		</clipPath>
	</defs>
	<style>
		.s0 { fill: #ffffff } 
		.s1 { fill: #25678f } 
		.s2 { fill: #32a4d5 } 
		.s3 { fill: #dbd2d2 } 
		.s4 { fill: #000000 } 
		.s5 { fill: #5eb4e8 } 
		.s6 { fill: #3b56af } 
	</style>
	<path id="Layer" class="s0" d="m-76.8-57.6h921.6v691.2h-921.6z"/>
	<path id="Layer" class="s0" d="m-76.8-57.6h921.6v691.2h-921.6z"/>
	<path id="Layer" class="s1" d="m151.5 206.1l75.7-16.6 50.8 57.2c-2.4 10-5.4 29.4 0.3 52.4 7.1 29 24 47.2 31.7 54.3l-70.5 31.2-8.4 77.2c-17-14-64.2-56.6-82.3-129.7-14.2-56.9-3.7-104.1 2.7-126z"/>
	<path id="Layer" class="s2" d="m376.9 36.6l38.2 67.4-39.4 65.4c-10.3 0.7-29.7 3.6-50.1 15.9-25.6 15.5-37.9 36.9-42.4 46.3-16.9-19.4-33.8-38.8-50.7-58.1l-76.2 15.1c8.2-20.3 34.9-78 99.4-117 50.2-30.5 98.4-34.5 121.2-35z"/>
	<path id="Layer" class="s3" d="m605.8 197.7l-51.7 57.6-74.6-16.6c-4-9.5-12.8-27.1-30.9-42.5-22.8-19.2-47.1-24-57.4-25.5 13-22.1 26-44.4 39-66.5l-38.6-67.3c22 1.3 85.2 8.2 142.6 57 44.8 37.9 63.9 82.4 71.6 103.8z"/>
	<path id="Layer" class="s1" d="m521.9 466.9l-70.4-32.2-6.2-76.2c7.8-6.7 22-20.2 31.3-42.1 11.8-27.5 9-52.2 7.3-62.4 25 5.8 50.1 11.6 75.1 17.5l53-56.7c5.2 21.4 17.4 83.8-12 153.1-23 53.9-59.8 85.4-78.1 99z"/>
	<path id="Layer" class="s3" d="m242.8 469.1l8.3-77 70.3-30c8.8 5.5 26.1 14.5 49.8 16.4 29.8 2.4 52.4-7.8 61.5-12.7 2.4 25.5 4.7 51.2 7.1 76.7l70.6 32.4c-18.6 11.7-73.9 42.9-149.1 36.9-58.3-4.7-99.8-29.7-118.5-42.7z"/>
	<path id="Layer" fill-rule="evenodd" class="s4" d="m367.9 277.6h-7.2c-1.3 0-2.4-1-2.4-2.4v-9.6c0-1.3 1.1-2.4 2.4-2.4h7.2c4 0 7.2 3.2 7.2 7.2 0 4-3.2 7.2-7.2 7.2zm-4.8-4.8h4.8c1.3 0 2.4-1.1 2.4-2.4 0-1.3-1.1-2.4-2.4-2.4h-4.8z"/>
	<path id="Layer" class="s4" d="m372.7 287.2c-1.3 0-2.4-1-2.4-2.4 0-2.1-1.6-6.4-2.6-7.2h-4.6v7.2c0 1.4-1.1 2.4-2.4 2.4-1.3 0-2.4-1-2.4-2.4v-9.6c0-1.3 1.1-2.4 2.4-2.4h7.2c5 0 7.2 9.2 7.2 12 0 1.4-1.1 2.4-2.4 2.4z"/>
	<path id="Layer" class="s4" d="m416 287.2c-1.3 0-2.4-1-2.4-2.4v-13.2c0-2-1.6-3.6-3.6-3.6-2 0-3.6 1.6-3.6 3.6v13.2c0 1.4-1.1 2.4-2.4 2.4-1.4 0-2.4-1-2.4-2.4v-13.2c0-4.6 3.7-8.4 8.4-8.4 4.6 0 8.4 3.8 8.4 8.4v13.2c0 1.4-1.1 2.4-2.4 2.4z"/>
	<path id="Layer" class="s4" d="m416 280h-12c-1.4 0-2.4-1-2.4-2.4 0-1.3 1-2.4 2.4-2.4h12c1.3 0 2.4 1.1 2.4 2.4 0 1.4-1.1 2.4-2.4 2.4z"/>
	<path id="Layer" fill-rule="evenodd" class="s4" d="m389.5 277.6h-7.2c-1.3 0-2.4-1-2.4-2.4v-9.6c0-1.3 1.1-2.4 2.4-2.4h7.2c4 0 7.3 3.2 7.3 7.2 0 4-3.3 7.2-7.3 7.2zm-4.8-4.8h4.8c1.4 0 2.4-1.1 2.4-2.4 0-1.3-1-2.4-2.4-2.4h-4.8z"/>
	<path id="Layer" class="s4" d="m382.3 287.2c-1.3 0-2.4-1-2.4-2.4v-9.6c0-1.3 1.1-2.4 2.4-2.4 1.4 0 2.4 1.1 2.4 2.4v9.6c0 1.4-1 2.4-2.4 2.4z"/>
	<path id="Layer" class="s4" d="m378.5 294.7c-2.8 1.4-6 2.2-9.4 2.2-11.9 0-21.6-9.7-21.6-21.7 0-11.9 9.7-21.6 21.6-21.6 3.4 0 6.6 0.8 9.4 2.2h23.7l4.3-4.4-13.6-13.6-6 6c-3.9-1.6-4.2-1.8-8.2-3.4v-8.5h-19.2v8.5c-4 1.6-4.3 1.8-8.2 3.4l-6-6-13.6 13.6 6 6c-1.7 4-1.8 4.3-3.4 8.2h-8.5v19.2h8.5c1.6 4 1.7 4.3 3.4 8.3l-6 5.9 13.6 13.6 6-5.9c3.9 1.6 4.2 1.7 8.2 3.4v8.4h19.2v-8.4c4-1.7 4.3-1.8 8.2-3.4l6 5.9 13.6-13.6-4.3-4.3z"/>
	<g id="Clip-Path" clip-path="url(#cp1)">
		<g id="Layer">
			<path id="Layer" fill-rule="evenodd" class="s5" d="m378.7 320.9h-19.2c-0.6 0-1.3-0.2-1.7-0.7-0.5-0.4-0.7-1-0.7-1.7v-6.8l-5.3-2.2-4.8 4.8c-0.9 0.9-2.5 0.9-3.4 0l-13.6-13.6c-0.4-0.4-0.7-1-0.7-1.7 0-0.6 0.3-1.2 0.7-1.7l4.9-4.8c-1-2.2-1.3-3.1-2.2-5.3h-6.9c-0.6 0-1.2-0.2-1.7-0.6-0.4-0.5-0.7-1.1-0.7-1.8v-19.2c0-0.6 0.3-1.2 0.7-1.7 0.5-0.4 1.1-0.7 1.7-0.7h6.9l0.7-1.8c0.6-1.3 1-2.3 1.8-4.4 0.5-1.2 2-1.7 3.2-1.2 0.6 0.2 1 0.6 1.3 1.2 0.2 0.7 0.2 1.3 0 1.9l-1.2 2.8c-0.5 1.4-1 2.4-2 4.8-0.4 0.9-1.2 1.5-2.2 1.5h-6.1v14.4h6.1c1 0 1.8 0.6 2.2 1.5l3.4 8.2c0.4 0.9 0.2 2-0.5 2.6l-4.3 4.3 10.2 10.2 4.3-4.3c0.7-0.6 1.7-0.8 2.6-0.5l3.4 1.4c1.3 0.6 2.4 1 4.8 2 0.9 0.4 1.5 1.3 1.5 2.2v6.1h14.4v-6.1c0-0.9 0.6-1.8 1.5-2.2 2.1-0.8 3.1-1.2 4.2-1.7 1-0.4 2.1-0.9 4-1.7 0.9-0.3 2-0.1 2.6 0.5l4.3 4.3 10.2-10.2-1.9-1.9h-22.2c-3.1 1.4-6.5 2.2-9.9 2.2-13.2 0-24-10.8-24-24.1 0-13.2 10.8-24 24-24 3.4 0 6.8 0.7 9.9 2.1h22.2l1.9-1.9-10.2-10.2-4.3 4.3c-0.6 0.7-1.7 0.9-2.6 0.5-3-1.2-3.9-1.6-6-2.5l-2.2-0.9c-0.9-0.4-1.5-1.2-1.5-2.2v-6h-14.4v6c0 1-0.6 1.8-1.5 2.2l-3 1.3c-1.5 0.6-2.5 1-5.2 2.1-0.9 0.4-1.9 0.2-2.6-0.5l-4.3-4.3-4.7 4.7c-0.9 0.9-2.5 0.9-3.4 0-0.9-0.9-0.9-2.4 0-3.4l6.4-6.4c0.9-0.9 2.5-0.9 3.4 0l4.8 4.9 1.8-0.8c1.1-0.4 2-0.8 3.5-1.4v-6.9c0-0.6 0.2-1.2 0.7-1.7 0.4-0.4 1-0.7 1.7-0.7h19.2c0.7 0 1.3 0.3 1.7 0.7 0.5 0.5 0.7 1.1 0.7 1.7v6.9c2.2 0.9 3.1 1.3 5.3 2.2l4.8-4.9c0.9-0.9 2.5-0.9 3.4 0l13.6 13.6c0.5 0.5 0.7 1.1 0.7 1.7 0 0.7-0.2 1.3-0.7 1.7l-4.3 4.4c-0.5 0.4-1.1 0.7-1.7 0.7h-23.7l-1-0.3c-2.7-1.3-5.5-1.9-8.4-1.9-10.6 0-19.2 8.6-19.2 19.2 0 10.6 8.6 19.2 19.2 19.3 2.9 0 5.7-0.7 8.3-2l1.1-0.2h23.7c0.6 0 1.2 0.3 1.7 0.7l4.3 4.3c0.5 0.5 0.7 1.1 0.7 1.7 0 0.7-0.2 1.3-0.7 1.7l-13.6 13.6c-0.9 0.9-2.5 0.9-3.4 0l-4.8-4.8-5.3 2.2v6.8c0 0.7-0.2 1.3-0.7 1.7-0.4 0.5-1 0.7-1.7 0.7zm-46.6-67.5c-0.6 0-1.2-0.2-1.7-0.7-0.9-0.9-0.9-2.4 0-3.4 0.9-0.9 2.5-0.9 3.4 0 0.9 1 0.9 2.5 0 3.4-0.5 0.5-1.1 0.7-1.7 0.7z"/>
		</g>
	</g>
	<g id="Clip-Path" clip-path="url(#cp2)">
		<g id="Layer">
			<path id="Layer" class="s1" d="m436.4 258.4h-21.6c-1.3 0-2.4-1.1-2.4-2.4 0-1.3 1.1-2.4 2.4-2.4h21.6c1.4 0 2.4 1.1 2.4 2.4 0 1.3-1 2.4-2.4 2.4z"/>
		</g>
	</g>
	<path id="Layer" class="s6" d="m412.4 246.4c0-1.3 1.1-2.4 2.4-2.4 1.3 0 2.4 1.1 2.4 2.4 0 1.3-1.1 2.4-2.4 2.4-1.3 0-2.4-1.1-2.4-2.4zm9.6 0c0-1.3 1.1-2.4 2.4-2.4 1.3 0 2.4 1.1 2.4 2.4 0 1.3-1.1 2.4-2.4 2.4-1.3 0-2.4-1.1-2.4-2.4zm9.6 0c0-1.3 1.1-2.4 2.4-2.4 1.3 0 2.4 1.1 2.4 2.4 0 1.3-1.1 2.4-2.4 2.4-1.3 0-2.4-1.1-2.4-2.4z"/>
	<g id="Clip-Path" clip-path="url(#cp3)">
		<g id="Layer">
			<path id="Layer" class="s1" d="m436.4 239.2h-28.8c-1.4 0-2.4-1.1-2.4-2.4 0-1.4 1-2.4 2.4-2.4h28.8c1.4 0 2.4 1 2.4 2.4 0 1.3-1 2.4-2.4 2.4z"/>
		</g>
	</g>
	<g id="Clip-Path" clip-path="url(#cp4)">
		<g id="Layer">
			<path id="Layer" class="s6" d="m402.8 229.5h-14.5c-1.3 0-2.4-1-2.4-2.4 0-1.3 1.1-2.4 2.4-2.4h14.5c1.3 0 2.4 1.1 2.4 2.4 0 1.4-1.1 2.4-2.4 2.4zm9.6 0c-1.3 0-2.4-1-2.4-2.4 0-1.3 1.1-2.4 2.4-2.4 1.3 0 2.4 1.1 2.4 2.4 0 1.4-1.1 2.4-2.4 2.4zm24 0h-14.4c-1.3 0-2.4-1-2.4-2.4 0-1.3 1.1-2.4 2.4-2.4h14.4c1.3 0 2.4 1.1 2.4 2.4 0 1.4-1.1 2.4-2.4 2.4z"/>
		</g>
	</g>
	<g id="Clip-Path" clip-path="url(#cp5)">
		<g id="Layer">
			<path id="Layer" class="s1" d="m436.4 296.9h-21.6c-1.3 0-2.4-1.1-2.4-2.4 0-1.4 1.1-2.4 2.4-2.4h21.6c1.4 0 2.4 1 2.4 2.4 0 1.3-1 2.4-2.4 2.4z"/>
		</g>
	</g>
	<g id="Clip-Path" clip-path="url(#cp6)">
		<g id="Layer">
			<path id="Layer" class="s1" d="m436.4 306.5h-21.6c-1.3 0-2.4-1.1-2.4-2.4 0-1.4 1.1-2.4 2.4-2.4h21.6c1.4 0 2.4 1 2.4 2.4 0 1.3-1 2.4-2.4 2.4z"/>
		</g>
	</g>
	<g id="Clip-Path" clip-path="url(#cp7)">
		<g id="Layer">
			<path id="Layer" class="s6" d="m426.8 316.1h-19.2c-1.3 0-2.4-1.1-2.4-2.4 0-1.3 1.1-2.4 2.4-2.4h19.2c1.3 0 2.4 1.1 2.4 2.4 0 1.3-1.1 2.4-2.4 2.4zm9.6 0c-1.3 0-2.4-1.1-2.4-2.4 0-1.3 1.1-2.4 2.4-2.4 1.3 0 2.4 1.1 2.4 2.4 0 1.3-1.1 2.4-2.4 2.4z"/>
		</g>
	</g>
	<g id="Clip-Path" clip-path="url(#cp8)">
		<g id="Layer">
			<path id="Layer" class="s6" d="m385.9 323.3c0-1.3 1.1-2.4 2.4-2.4 1.4 0 2.4 1.1 2.4 2.4 0 1.3-1 2.4-2.4 2.4-1.3 0-2.4-1.1-2.4-2.4zm9.7 0c0-1.3 1-2.4 2.4-2.4 1.3 0 2.4 1.1 2.4 2.4 0 1.3-1.1 2.4-2.4 2.4-1.4 0-2.4-1.1-2.4-2.4zm9.6 0c0-1.3 1.1-2.4 2.4-2.4 1.3 0 2.4 1.1 2.4 2.4 0 1.3-1.1 2.4-2.4 2.4-1.3 0-2.4-1.1-2.4-2.4zm9.6 0c0-1.3 1.1-2.4 2.4-2.4 1.3 0 2.4 1.1 2.4 2.4 0 1.3-1.1 2.4-2.4 2.4-1.3 0-2.4-1.1-2.4-2.4zm9.6 0c0-1.3 1.1-2.4 2.4-2.4 1.3 0 2.4 1.1 2.4 2.4 0 1.3-1.1 2.4-2.4 2.4-1.3 0-2.4-1.1-2.4-2.4zm9.6 0c0-1.3 1.1-2.4 2.4-2.4 1.4 0 2.4 1.1 2.4 2.4 0 1.3-1 2.4-2.4 2.4-1.3 0-2.4-1.1-2.4-2.4z"/>
		</g>
	</g>
	<g id="Layer">
		<g id="Layer">
			<g id="Layer">
				<path id="Layer" fill-rule="evenodd" class="s0" d="m451.5 134h5.7q2.4 0 3.8 1.2 1.5 1.2 1.5 3.6 0 2.3-1.5 3.7-1.5 1.3-3.8 1.3h-2.2v5.8h-3.5zm3.5 7h1q1.2 0 2-0.4 0.8-0.5 0.8-1.6 0-1.2-0.8-1.6-0.8-0.5-2-0.5h-1z"/>
			</g>
		</g>
	</g>
	<g id="Layer">
		<g id="Layer">
			<g id="Layer">
				<path id="Layer" class="s0" d="m465.1 149.6v-9.7h3.3v1.4h0.1q0-0.1 0.1-0.2 0.1-0.1 0.3-0.4 0.3-0.3 0.7-0.5 0.3-0.2 0.8-0.4 0.5-0.2 1-0.2 0.6 0 1.1 0.2 0.6 0.1 0.8 0.3l0.3 0.1-1.4 2.9q-0.7-0.6-1.8-0.6-0.6 0-1 0.3-0.5 0.3-0.7 0.6-0.1 0.4-0.2 0.7-0.1 0.3-0.1 0.4v5.1z"/>
			</g>
		</g>
	</g>
	<g id="Layer">
		<g id="Layer">
			<g id="Layer">
				<path id="Layer" fill-rule="evenodd" class="s0" d="m476.4 148.5q-1.6-1.5-1.6-3.7 0-2.3 1.6-3.7 1.7-1.5 4.2-1.5 2.5 0 4.2 1.5 1.6 1.4 1.6 3.7 0 2.2-1.6 3.7-1.6 1.4-4.2 1.4-2.6 0-4.2-1.4zm2.6-5.4q-0.7 0.7-0.7 1.7 0 1 0.7 1.6 0.6 0.7 1.6 0.7 1 0 1.6-0.7 0.7-0.6 0.7-1.6 0-1-0.7-1.7-0.6-0.6-1.6-0.6-1 0-1.6 0.6z"/>
			</g>
		</g>
	</g>
	<g id="Layer">
		<g id="Layer">
			<g id="Layer">
				<path id="Layer" class="s0" d="m494.2 142.4q-1 0-1.7 0.7-0.7 0.7-0.7 1.6 0 1.1 0.7 1.8 0.7 0.7 1.7 0.7 0.4 0 0.8-0.1 0.4-0.2 0.6-0.3l0.2-0.1 1.1 2.3q-0.1 0.1-0.3 0.3-0.3 0.1-1.1 0.4-0.9 0.2-1.8 0.2-2.2 0-3.8-1.5-1.6-1.5-1.6-3.6 0-2.1 1.6-3.7 1.6-1.5 3.8-1.5 0.9 0 1.7 0.2 0.9 0.3 1.2 0.5l0.3 0.2-1.1 2.3q-0.6-0.4-1.6-0.4z"/>
			</g>
		</g>
	</g>
	<g id="Layer">
		<g id="Layer">
			<g id="Layer">
				<path id="Layer" fill-rule="evenodd" class="s0" d="m509.1 145.2h-7.1q0 1.1 0.7 1.6 0.7 0.4 1.5 0.4 0.8 0 1.2-0.2 0.5-0.2 1.1-0.9l2.5 1.3q-1.6 2.5-5.1 2.5-2.2 0-3.8-1.5-1.6-1.5-1.6-3.6 0-2.1 1.6-3.7 1.6-1.5 3.8-1.5 2.3 0 3.8 1.3 1.4 1.4 1.4 3.9 0 0.3 0 0.4zm-7-1.8h3.7q-0.1-0.8-0.6-1.2-0.4-0.4-1.2-0.4-0.8 0-1.3 0.4-0.5 0.5-0.6 1.2z"/>
			</g>
		</g>
	</g>
	<g id="Layer">
		<g id="Layer">
			<g id="Layer">
				<path id="Layer" class="s0" d="m515.9 139.6q0.8 0 1.6 0.2 0.9 0.2 1.3 0.4l0.4 0.2-1.1 2.2q-1.2-0.6-2.2-0.6-0.6 0-0.8 0.1-0.3 0.1-0.3 0.4 0 0.1 0.1 0.2 0 0.1 0 0.2 0.1 0 0.1 0.1 0.1 0 0.2 0.1 0.1 0 0.2 0 0 0.1 0.2 0.1 0.2 0.1 0.2 0.1 0.1 0.1 0.3 0.1 0.2 0.1 0.3 0.1 0.5 0.2 1 0.4 0.4 0.2 0.9 0.5 0.5 0.4 0.8 0.9 0.2 0.6 0.2 1.3 0 3.3-4.6 3.3-1 0-2-0.3-0.9-0.3-1.3-0.7l-0.4-0.3 1.3-2.3q0.2 0.1 0.4 0.3 0.3 0.2 0.9 0.5 0.7 0.3 1.1 0.3 1.1 0 1.1-0.7 0-0.3-0.3-0.5-0.3-0.2-0.9-0.4-0.6-0.2-1-0.4-0.9-0.5-1.4-1.1-0.6-0.6-0.6-1.6 0-1.4 1.2-2.3 1.1-0.8 3.1-0.8z"/>
			</g>
		</g>
	</g>
	<g id="Layer">
		<g id="Layer">
			<g id="Layer">
				<path id="Layer" class="s0" d="m526.2 139.6q0.8 0 1.6 0.2 0.8 0.2 1.3 0.4l0.3 0.2-1 2.2q-1.2-0.6-2.2-0.6-0.6 0-0.8 0.1-0.3 0.1-0.3 0.4 0 0.1 0.1 0.2 0 0.1 0 0.2 0.1 0 0.1 0.1 0.1 0 0.2 0.1 0.1 0 0.2 0 0 0.1 0.2 0.1 0.2 0.1 0.2 0.1 0.1 0.1 0.3 0.1 0.2 0.1 0.3 0.1 0.5 0.2 1 0.4 0.4 0.2 0.9 0.5 0.5 0.4 0.8 0.9 0.2 0.6 0.2 1.3 0 3.3-4.6 3.3-1 0-2-0.3-0.9-0.3-1.3-0.7l-0.5-0.3 1.4-2.3q0.2 0.1 0.4 0.3 0.3 0.2 0.9 0.5 0.7 0.3 1.1 0.3 1.1 0 1.1-0.7 0-0.3-0.3-0.5-0.3-0.2-0.9-0.4-0.6-0.2-1-0.4-0.9-0.5-1.4-1.1-0.6-0.6-0.6-1.6 0-1.4 1.2-2.3 1.1-0.8 3.1-0.8z"/>
			</g>
		</g>
	</g>
	<g id="Layer">
		<g id="Layer">
			<g id="Layer">
				<path id="Layer" fill-rule="evenodd" class="s0" d="m451.5 152.7h4.5q3.3 0 5.6 2.2 2.3 2.3 2.3 5.6 0 3.4-2.3 5.6-2.3 2.3-5.6 2.3h-4.5zm3.5 12.5h0.6q1.9 0 3.2-1.3 1.2-1.4 1.2-3.4 0-2-1.2-3.3-1.3-1.3-3.2-1.3h-0.6z"/>
			</g>
		</g>
	</g>
	<g id="Layer">
		<g id="Layer">
			<g id="Layer">
				<path id="Layer" fill-rule="evenodd" class="s0" d="m466.2 154.6q0 0.8 0.5 1.4 0.6 0.6 1.4 0.6 0.9 0 1.4-0.6 0.6-0.6 0.6-1.4 0-0.8-0.6-1.4-0.5-0.6-1.4-0.6-0.8 0-1.4 0.6-0.5 0.6-0.5 1.4zm0.2 4v9.8h3.4v-9.8z"/>
			</g>
		</g>
	</g>
	<g id="Layer">
		<g id="Layer">
			<g id="Layer">
				<path id="Layer" class="s0" d="m477.3 158.4q0.9 0 1.7 0.1 0.8 0.2 1.2 0.4l0.4 0.2-1.1 2.2q-1.1-0.6-2.2-0.6-0.5 0-0.8 0.1-0.2 0.2-0.2 0.5 0 0.1 0 0.1 0 0.1 0.1 0.2 0.1 0.1 0.1 0.1 0 0.1 0.2 0.1 0.1 0.1 0.1 0.1 0.1 0 0.3 0.1 0.1 0 0.2 0.1 0.1 0 0.2 0.1 0.2 0 0.3 0 0.6 0.2 1 0.4 0.5 0.2 1 0.6 0.4 0.3 0.7 0.9 0.3 0.5 0.3 1.2 0 3.4-4.6 3.4-1.1 0-2-0.3-1-0.4-1.4-0.7l-0.4-0.3 1.4-2.3q0.1 0.1 0.4 0.3 0.2 0.2 0.9 0.5 0.6 0.3 1.1 0.3 1 0 1-0.7 0-0.3-0.2-0.5-0.3-0.2-0.9-0.4-0.7-0.3-1-0.5-0.9-0.4-1.5-1-0.5-0.6-0.5-1.6 0-1.5 1.1-2.3 1.2-0.8 3.1-0.8z"/>
			</g>
		</g>
	</g>
	<g id="Layer">
		<g id="Layer">
			<g id="Layer">
				<path id="Layer" class="s0" d="m488.6 161.1q-1 0-1.6 0.7-0.7 0.7-0.7 1.7 0 1 0.7 1.7 0.6 0.7 1.6 0.7 0.4 0 0.9-0.1 0.4-0.1 0.6-0.2l0.1-0.1 1.2 2.3q-0.2 0.1-0.4 0.2-0.2 0.2-1.1 0.4-0.8 0.3-1.8 0.3-2.2 0-3.8-1.5-1.6-1.5-1.6-3.7 0-2.1 1.6-3.6 1.6-1.5 3.8-1.5 1 0 1.8 0.2 0.8 0.2 1.1 0.4l0.4 0.3-1.2 2.3q-0.6-0.5-1.6-0.5z"/>
			</g>
		</g>
	</g>
	<g id="Layer">
		<g id="Layer">
			<g id="Layer">
				<path id="Layer" fill-rule="evenodd" class="s0" d="m494.6 167.2q-1.6-1.4-1.6-3.7 0-2.2 1.7-3.7 1.7-1.4 4.2-1.4 2.4 0 4.1 1.4 1.7 1.5 1.7 3.7 0 2.3-1.7 3.7-1.6 1.5-4.1 1.5-2.7 0-4.3-1.5zm2.6-5.3q-0.6 0.6-0.6 1.6 0 1 0.6 1.7 0.6 0.6 1.6 0.6 1 0 1.6-0.6 0.7-0.7 0.7-1.7 0-1-0.7-1.6-0.6-0.7-1.6-0.7-0.9 0-1.6 0.7z"/>
			</g>
		</g>
	</g>
	<g id="Layer">
		<g id="Layer">
			<g id="Layer">
				<path id="Layer" class="s0" d="m509.7 158.6l2.3 5.3 2.4-5.3h4l-5.2 9.8h-2.3l-5.2-9.8z"/>
			</g>
		</g>
	</g>
	<g id="Layer">
		<g id="Layer">
			<g id="Layer">
				<path id="Layer" fill-rule="evenodd" class="s0" d="m530 164h-7.1q0 1 0.7 1.5 0.6 0.5 1.4 0.5 0.8 0 1.3-0.2 0.5-0.2 1.1-0.9l2.4 1.2q-1.5 2.6-5 2.6-2.2 0-3.8-1.5-1.6-1.5-1.6-3.7 0-2.1 1.6-3.6 1.6-1.5 3.8-1.5 2.3 0 3.7 1.3 1.5 1.3 1.5 3.8 0 0.4 0 0.5zm-7-1.9h3.7q-0.1-0.7-0.6-1.2-0.5-0.4-1.2-0.4-0.9 0-1.4 0.5-0.5 0.4-0.5 1.1z"/>
			</g>
		</g>
	</g>
	<g id="Layer">
		<g id="Layer">
			<g id="Layer">
				<path id="Layer" class="s0" d="m532.5 168.4v-9.8h3.4v1.4q0 0 0.1-0.1 0.1-0.2 0.4-0.4 0.3-0.3 0.6-0.6 0.3-0.2 0.8-0.4 0.6-0.1 1.1-0.1 0.5 0 1.1 0.1 0.5 0.2 0.8 0.3l0.2 0.2-1.4 2.8q-0.6-0.5-1.7-0.5-0.6 0-1.1 0.2-0.4 0.3-0.6 0.7-0.2 0.4-0.3 0.6 0 0.3 0 0.5v5.1z"/>
			</g>
		</g>
	</g>
	<g id="Layer">
		<g id="Layer">
			<g id="Layer">
				<path id="Layer" class="s0" d="m550.3 158.6h3.9l-7.7 14.7h-3.8l3.3-6.4-4.6-8.3h3.9l2.7 5z"/>
			</g>
		</g>
	</g>
	<g id="Layer">
		<g id="Layer">
			<g id="Layer">
				<path id="Layer" fill-rule="evenodd" class="s0" d="m492.9 331.2h5.7q2.4 0 3.9 1.2 1.5 1.2 1.5 3.6 0 2.3-1.5 3.7-1.5 1.3-3.9 1.3h-2.1v5.8h-3.6zm3.6 7.1h1q1.2 0 2-0.5 0.7-0.5 0.7-1.6 0-1.1-0.7-1.6-0.8-0.5-2-0.5h-1z"/>
			</g>
		</g>
	</g>
	<g id="Layer">
		<g id="Layer">
			<g id="Layer">
				<path id="Layer" class="s0" d="m506.5 346.8v-9.7h3.4v1.4q0.1-0.1 0.1-0.2 0.1-0.1 0.4-0.4 0.3-0.3 0.6-0.5 0.3-0.2 0.8-0.4 0.6-0.2 1.1-0.2 0.6 0 1.1 0.2 0.5 0.1 0.8 0.3l0.2 0.1-1.4 2.9q-0.6-0.6-1.7-0.6-0.6 0-1.1 0.3-0.4 0.3-0.6 0.7-0.2 0.3-0.2 0.6-0.1 0.3-0.1 0.4v5.1z"/>
			</g>
		</g>
	</g>
	<g id="Layer">
		<g id="Layer">
			<g id="Layer">
				<path id="Layer" fill-rule="evenodd" class="s0" d="m517.9 345.7q-1.7-1.5-1.7-3.7 0-2.3 1.7-3.7 1.7-1.5 4.2-1.5 2.5 0 4.1 1.5 1.7 1.4 1.7 3.7 0 2.2-1.6 3.7-1.7 1.4-4.2 1.4-2.6 0-4.2-1.4zm2.5-5.4q-0.6 0.7-0.6 1.7 0 1 0.6 1.6 0.7 0.7 1.7 0.7 1 0 1.6-0.7 0.6-0.6 0.6-1.6 0-1-0.6-1.7-0.7-0.6-1.6-0.6-1 0-1.7 0.6z"/>
			</g>
		</g>
	</g>
	<g id="Layer">
		<g id="Layer">
			<g id="Layer">
				<path id="Layer" class="s0" d="m535.6 339.6q-0.9 0-1.6 0.7-0.7 0.7-0.7 1.7 0 1 0.7 1.7 0.7 0.7 1.6 0.7 0.5 0 0.9-0.1 0.4-0.2 0.6-0.3l0.2-0.1 1.1 2.3q-0.1 0.1-0.4 0.3-0.2 0.1-1.1 0.4-0.8 0.2-1.8 0.2-2.1 0-3.7-1.5-1.7-1.5-1.7-3.6 0-2.1 1.7-3.7 1.6-1.5 3.7-1.5 1 0 1.8 0.2 0.8 0.3 1.2 0.5l0.3 0.2-1.1 2.3q-0.7-0.4-1.7-0.4z"/>
			</g>
		</g>
	</g>
	<g id="Layer">
		<g id="Layer">
			<g id="Layer">
				<path id="Layer" fill-rule="evenodd" class="s0" d="m550.6 342.4h-7.1q0 1.1 0.7 1.6 0.6 0.5 1.4 0.5 0.8 0 1.3-0.3 0.5-0.2 1.1-0.8l2.4 1.2q-1.5 2.5-5 2.5-2.2 0-3.8-1.5-1.6-1.5-1.6-3.6 0-2.1 1.6-3.7 1.6-1.5 3.8-1.5 2.3 0 3.7 1.4 1.5 1.3 1.5 3.8 0 0.3 0 0.4zm-7-1.8h3.7q-0.1-0.8-0.6-1.2-0.5-0.4-1.2-0.4-0.9 0-1.4 0.4-0.5 0.5-0.5 1.2z"/>
			</g>
		</g>
	</g>
	<g id="Layer">
		<g id="Layer">
			<g id="Layer">
				<path id="Layer" class="s0" d="m557.4 336.8q0.8 0 1.6 0.2 0.8 0.2 1.2 0.4l0.4 0.2-1.1 2.2q-1.1-0.6-2.1-0.6-0.6 0-0.9 0.1-0.2 0.1-0.2 0.4 0 0.1 0 0.2 0.1 0.1 0.1 0.2 0.1 0 0.1 0.1 0.1 0 0.2 0.1 0.1 0 0.2 0.1 0 0 0.2 0.1 0.1 0 0.2 0 0.1 0.1 0.2 0.1 0.2 0.1 0.3 0.1 0.6 0.2 1.1 0.4 0.4 0.2 0.9 0.5 0.5 0.4 0.7 0.9 0.3 0.6 0.3 1.3 0 3.3-4.6 3.3-1.1 0-2-0.3-1-0.3-1.4-0.6l-0.4-0.4 1.4-2.3q0.1 0.2 0.4 0.3 0.2 0.2 0.9 0.5 0.6 0.3 1.1 0.3 1 0 1-0.7 0-0.3-0.2-0.5-0.3-0.2-0.9-0.4-0.7-0.2-1-0.4-0.9-0.5-1.5-1.1-0.5-0.6-0.5-1.5 0-1.5 1.1-2.4 1.2-0.8 3.2-0.8z"/>
			</g>
		</g>
	</g>
	<g id="Layer">
		<g id="Layer">
			<g id="Layer">
				<path id="Layer" class="s0" d="m567.6 336.8q0.9 0 1.7 0.2 0.8 0.2 1.2 0.4l0.4 0.2-1.1 2.2q-1.1-0.6-2.2-0.6-0.5 0-0.8 0.1-0.2 0.1-0.2 0.4 0 0.1 0 0.2 0 0.1 0.1 0.2 0.1 0 0.1 0.1 0.1 0 0.2 0.1 0.1 0 0.1 0.1 0.1 0 0.3 0.1 0.1 0 0.2 0 0.1 0.1 0.2 0.1 0.2 0.1 0.3 0.1 0.6 0.2 1 0.4 0.5 0.2 1 0.5 0.5 0.4 0.7 0.9 0.3 0.6 0.3 1.3 0 3.3-4.6 3.3-1.1 0-2-0.3-1-0.3-1.4-0.6l-0.4-0.4 1.4-2.3q0.1 0.2 0.4 0.3 0.2 0.2 0.9 0.5 0.6 0.3 1.1 0.3 1 0 1-0.7 0-0.3-0.2-0.5-0.3-0.2-0.9-0.4-0.7-0.2-1-0.4-0.9-0.5-1.5-1.1-0.5-0.6-0.5-1.5 0-1.5 1.1-2.4 1.2-0.8 3.1-0.8z"/>
			</g>
		</g>
	</g>
	<g id="Layer">
		<g id="Layer">
			<g id="Layer">
				<path id="Layer" fill-rule="evenodd" class="s0" d="m500.9 349.9l6.3 15.7h-3.8l-1.2-3.1h-6l-1.1 3.1h-3.9l6.4-15.7zm0.1 9.4l-1.8-4.5-1.7 4.5z"/>
			</g>
		</g>
	</g>
	<g id="Layer">
		<g id="Layer">
			<g id="Layer">
				<path id="Layer" class="s0" d="m508.8 365.6v-9.8h3.3v1.1h0.1q1.3-1.3 2.7-1.3 0.8 0 1.5 0.1 0.7 0.2 1.4 0.6 0.6 0.4 1 1.2 0.4 0.7 0.4 1.7v6.4h-3.3v-5.5q0-0.8-0.5-1.3-0.5-0.6-1.3-0.6-0.7 0-1.4 0.6-0.6 0.6-0.6 1.3v5.5z"/>
			</g>
		</g>
	</g>
	<g id="Layer">
		<g id="Layer">
			<g id="Layer">
				<path id="Layer" fill-rule="evenodd" class="s0" d="m522.9 364.4q-1.3-1.5-1.3-3.7 0-2.1 1.3-3.6 1.4-1.5 3.5-1.5 1.9 0 3.2 1.2v-1h3.4v9.8h-3.4v-1.1q-1.3 1.4-3.2 1.4-2.1 0-3.5-1.5zm2.9-5.3q-0.7 0.6-0.7 1.6 0 1 0.7 1.7 0.6 0.6 1.6 0.6 1 0 1.6-0.6 0.7-0.7 0.7-1.7 0-1-0.7-1.6-0.6-0.7-1.6-0.7-1 0-1.6 0.7z"/>
			</g>
		</g>
	</g>
	<g id="Layer">
		<g id="Layer">
			<g id="Layer">
				<path id="Layer" class="s0" d="m536.2 365.6v-16.4h3.4v16.4z"/>
			</g>
		</g>
	</g>
	<g id="Layer">
		<g id="Layer">
			<g id="Layer">
				<path id="Layer" class="s0" d="m550.2 355.8h3.8l-7.6 14.7h-3.9l3.4-6.4-4.6-8.3h3.8l2.8 5z"/>
			</g>
		</g>
	</g>
	<g id="Layer">
		<g id="Layer">
			<g id="Layer">
				<path id="Layer" class="s0" d="m560 355.6q0.8 0 1.6 0.1 0.9 0.2 1.3 0.4l0.4 0.2-1.1 2.2q-1.2-0.6-2.2-0.6-0.6 0-0.8 0.1-0.3 0.2-0.3 0.5 0 0.1 0.1 0.2 0 0 0 0.1 0.1 0.1 0.1 0.1 0.1 0.1 0.2 0.1 0.1 0.1 0.2 0.1 0.1 0 0.2 0.1 0.2 0 0.2 0.1 0.1 0 0.3 0.1 0.2 0 0.3 0 0.6 0.2 1 0.4 0.4 0.2 0.9 0.6 0.5 0.4 0.8 0.9 0.2 0.5 0.2 1.2 0 3.4-4.6 3.4-1 0-2-0.3-0.9-0.4-1.3-0.7l-0.4-0.3 1.3-2.3q0.2 0.1 0.4 0.3 0.3 0.2 0.9 0.5 0.7 0.3 1.1 0.3 1.1 0 1.1-0.7 0-0.3-0.3-0.5-0.3-0.2-0.9-0.4-0.6-0.3-1-0.4-0.9-0.5-1.4-1.1-0.6-0.6-0.6-1.6 0-1.5 1.2-2.3 1.1-0.8 3.1-0.8z"/>
			</g>
		</g>
	</g>
	<g id="Layer">
		<g id="Layer">
			<g id="Layer">
				<path id="Layer" fill-rule="evenodd" class="s0" d="m565.8 351.8q0 0.8 0.6 1.4 0.6 0.6 1.4 0.6 0.8 0 1.4-0.6 0.6-0.6 0.6-1.4 0-0.8-0.6-1.4-0.6-0.6-1.4-0.6-0.8 0-1.4 0.6-0.6 0.6-0.6 1.4zm0.3 4v9.8h3.3v-9.8z"/>
			</g>
		</g>
	</g>
	<g id="Layer">
		<g id="Layer">
			<g id="Layer">
				<path id="Layer" class="s0" d="m577 355.6q0.8 0 1.6 0.1 0.8 0.2 1.3 0.4l0.3 0.2-1.1 2.2q-1.1-0.6-2.1-0.6-0.6 0-0.8 0.1-0.3 0.2-0.3 0.5 0 0.1 0 0.2 0.1 0 0.1 0.1 0.1 0.1 0.1 0.1 0.1 0.1 0.2 0.1 0.1 0.1 0.2 0.1 0 0 0.2 0.1 0.1 0 0.2 0.1 0.1 0 0.3 0.1 0.1 0 0.3 0 0.5 0.2 1 0.4 0.4 0.2 0.9 0.6 0.5 0.4 0.7 0.9 0.3 0.5 0.3 1.2 0 3.4-4.6 3.4-1 0-2-0.3-0.9-0.4-1.3-0.7l-0.5-0.3 1.4-2.3q0.2 0.1 0.4 0.3 0.2 0.2 0.9 0.5 0.7 0.3 1.1 0.3 1.1 0 1.1-0.7 0-0.3-0.3-0.5-0.3-0.2-0.9-0.4-0.6-0.3-1-0.4-0.9-0.5-1.4-1.1-0.6-0.6-0.6-1.6 0-1.5 1.2-2.3 1.1-0.8 3.1-0.8z"/>
			</g>
		</g>
	</g>
	<g id="Layer">
		<g id="Layer">
			<g id="Layer">
				<path id="Layer" fill-rule="evenodd" class="s0" d="m310.8 422.3h5.7q2.4 0 3.9 1.3 1.5 1.2 1.5 3.5 0 2.4-1.5 3.7-1.5 1.4-3.9 1.4h-2.1v5.8h-3.6zm3.6 7h1q1.2 0 2-0.5 0.7-0.5 0.7-1.6 0-1.1-0.7-1.6-0.8-0.5-2-0.5h-1z"/>
			</g>
		</g>
	</g>
	<g id="Layer">
		<g id="Layer">
			<g id="Layer">
				<path id="Layer" class="s0" d="m324.4 438v-9.8h3.4v1.4q0 0 0.1-0.1 0.1-0.1 0.4-0.4 0.3-0.3 0.6-0.5 0.3-0.3 0.8-0.5 0.6-0.1 1.1-0.1 0.5 0 1.1 0.1 0.5 0.2 0.8 0.3l0.2 0.2-1.4 2.8q-0.6-0.5-1.7-0.5-0.6 0-1.1 0.2-0.4 0.3-0.6 0.7-0.2 0.4-0.3 0.6 0 0.3 0 0.5v5.1z"/>
			</g>
		</g>
	</g>
	<g id="Layer">
		<g id="Layer">
			<g id="Layer">
				<path id="Layer" fill-rule="evenodd" class="s0" d="m335.7 436.8q-1.6-1.4-1.6-3.7 0-2.2 1.7-3.7 1.7-1.4 4.2-1.4 2.4 0 4.1 1.4 1.7 1.5 1.7 3.7 0 2.3-1.7 3.7-1.6 1.5-4.1 1.5-2.6 0-4.3-1.5zm2.6-5.3q-0.6 0.6-0.6 1.6 0 1 0.6 1.7 0.6 0.6 1.7 0.6 1 0 1.6-0.6 0.6-0.7 0.6-1.7 0-1-0.6-1.6-0.7-0.7-1.6-0.7-1 0-1.7 0.7z"/>
			</g>
		</g>
	</g>
	<g id="Layer">
		<g id="Layer">
			<g id="Layer">
				<path id="Layer" class="s0" d="m353.5 430.7q-0.9 0-1.6 0.7-0.7 0.7-0.7 1.7 0 1 0.7 1.7 0.7 0.7 1.6 0.7 0.5 0 0.9-0.1 0.4-0.1 0.6-0.2l0.2-0.1 1.1 2.3q-0.1 0.1-0.4 0.2-0.2 0.2-1.1 0.4-0.8 0.3-1.8 0.3-2.1 0-3.8-1.5-1.6-1.5-1.6-3.7 0-2.1 1.6-3.6 1.7-1.5 3.8-1.5 1 0 1.8 0.2 0.8 0.2 1.2 0.4l0.3 0.3-1.1 2.3q-0.7-0.5-1.7-0.5z"/>
			</g>
		</g>
	</g>
	<g id="Layer">
		<g id="Layer">
			<g id="Layer">
				<path id="Layer" fill-rule="evenodd" class="s0" d="m368.5 433.6h-7.1q0 1 0.7 1.5 0.6 0.5 1.4 0.5 0.8 0 1.3-0.2 0.5-0.2 1.1-0.9l2.4 1.2q-1.5 2.6-5 2.6-2.2 0-3.8-1.5-1.6-1.5-1.6-3.7 0-2.1 1.6-3.6 1.6-1.5 3.8-1.5 2.3 0 3.7 1.3 1.5 1.3 1.5 3.8 0 0.4 0 0.5zm-7-1.9h3.7q-0.1-0.7-0.6-1.1-0.5-0.5-1.2-0.5-0.9 0-1.4 0.5-0.5 0.4-0.5 1.1z"/>
			</g>
		</g>
	</g>
	<g id="Layer">
		<g id="Layer">
			<g id="Layer">
				<path id="Layer" class="s0" d="m375.2 428q0.9 0 1.7 0.1 0.8 0.2 1.2 0.4l0.4 0.2-1.1 2.2q-1.1-0.6-2.2-0.6-0.5 0-0.8 0.1-0.2 0.2-0.2 0.5 0 0.1 0 0.2 0 0 0.1 0.1 0.1 0.1 0.1 0.1 0 0.1 0.2 0.1 0.1 0.1 0.1 0.1 0.1 0 0.3 0.1 0.1 0 0.2 0.1 0.1 0 0.2 0.1 0.2 0 0.3 0 0.6 0.2 1 0.4 0.5 0.2 1 0.6 0.4 0.4 0.7 0.9 0.3 0.5 0.3 1.2 0 3.4-4.6 3.4-1.1 0-2-0.3-1-0.4-1.4-0.7l-0.4-0.3 1.4-2.3q0.1 0.1 0.4 0.3 0.2 0.2 0.9 0.5 0.6 0.3 1.1 0.3 1 0 1-0.7 0-0.3-0.2-0.5-0.3-0.2-0.9-0.4-0.7-0.3-1-0.4-0.9-0.5-1.5-1.1-0.5-0.6-0.5-1.6 0-1.5 1.1-2.3 1.2-0.8 3.1-0.8z"/>
			</g>
		</g>
	</g>
	<g id="Layer">
		<g id="Layer">
			<g id="Layer">
				<path id="Layer" class="s0" d="m385.5 428q0.9 0 1.7 0.1 0.8 0.2 1.2 0.4l0.4 0.2-1.1 2.2q-1.1-0.6-2.2-0.6-0.5 0-0.8 0.1-0.2 0.2-0.2 0.5 0 0.1 0 0.2 0 0 0.1 0.1 0 0.1 0.1 0.1 0 0.1 0.2 0.1 0.1 0.1 0.1 0.1 0.1 0 0.3 0.1 0.1 0 0.2 0.1 0.1 0 0.2 0.1 0.2 0 0.3 0 0.6 0.2 1 0.4 0.5 0.2 1 0.6 0.4 0.4 0.7 0.9 0.3 0.5 0.3 1.2 0 3.4-4.6 3.4-1.1 0-2-0.3-1-0.4-1.4-0.7l-0.4-0.3 1.4-2.3q0.1 0.1 0.4 0.3 0.2 0.2 0.9 0.5 0.6 0.3 1.1 0.3 1 0 1-0.7 0-0.3-0.2-0.5-0.3-0.2-0.9-0.4-0.7-0.3-1-0.4-1-0.5-1.5-1.1-0.5-0.6-0.5-1.6 0-1.5 1.1-2.3 1.2-0.8 3.1-0.8z"/>
			</g>
		</g>
	</g>
	<g id="Layer">
		<g id="Layer">
			<g id="Layer">
				<path id="Layer" fill-rule="evenodd" class="s0" d="m310.8 441.1h5.6q2.3 0 3.7 1.2 1.4 1.2 1.4 3.4 0 1.7-0.8 2.9-0.9 1.2-2.4 1.7l5.4 6.4h-4.5l-4.8-6.1v6.1h-3.6zm3.6 7h0.4q0.5 0 0.8 0 0.4-0.1 0.8-0.2 0.5-0.1 0.7-0.3 0.3-0.2 0.5-0.6 0.2-0.4 0.2-1 0-0.5-0.2-0.9-0.2-0.4-0.5-0.6-0.2-0.2-0.7-0.4-0.4-0.1-0.8-0.1-0.3 0-0.8 0h-0.4z"/>
			</g>
		</g>
	</g>
	<g id="Layer">
		<g id="Layer">
			<g id="Layer">
				<path id="Layer" fill-rule="evenodd" class="s0" d="m335.2 452.3h-7q0 1.1 0.6 1.6 0.7 0.5 1.5 0.5 0.8 0 1.2-0.3 0.5-0.2 1.1-0.8l2.5 1.2q-1.6 2.5-5.1 2.5-2.2 0-3.8-1.5-1.5-1.5-1.5-3.6 0-2.1 1.5-3.7 1.6-1.5 3.8-1.5 2.3 0 3.8 1.4 1.4 1.3 1.4 3.8 0 0.3 0 0.4zm-6.9-1.8h3.7q-0.2-0.8-0.6-1.2-0.5-0.4-1.3-0.4-0.8 0-1.3 0.4-0.5 0.5-0.5 1.2z"/>
			</g>
		</g>
	</g>
	<g id="Layer">
		<g id="Layer">
			<g id="Layer">
				<path id="Layer" fill-rule="evenodd" class="s0" d="m338.4 455.5q-1.3-1.5-1.3-3.6 0-2.2 1.3-3.7 1.4-1.5 3.5-1.5 1.9 0 3.2 1.2v-7.5h3.4v16.3h-3.4v-1.1q-1.3 1.4-3.2 1.4-2.1 0-3.5-1.5zm2.9-5.3q-0.7 0.7-0.7 1.7 0 1 0.7 1.6 0.6 0.7 1.6 0.7 1 0 1.6-0.7 0.7-0.6 0.7-1.6 0-1-0.7-1.7-0.6-0.6-1.6-0.6-1 0-1.6 0.6z"/>
			</g>
		</g>
	</g>
	<g id="Layer">
		<g id="Layer">
			<g id="Layer">
				<path id="Layer" fill-rule="evenodd" class="s0" d="m361.5 452.3h-7q0 1.1 0.6 1.6 0.7 0.5 1.5 0.5 0.8 0 1.3-0.3 0.5-0.2 1.1-0.8l2.4 1.2q-1.5 2.5-5.1 2.5-2.2 0-3.7-1.5-1.6-1.5-1.6-3.6 0-2.1 1.6-3.7 1.5-1.5 3.7-1.5 2.4 0 3.8 1.4 1.5 1.3 1.5 3.8 0 0.3-0.1 0.4zm-6.9-1.8h3.7q-0.1-0.8-0.6-1.2-0.5-0.4-1.3-0.4-0.8 0-1.3 0.4-0.5 0.5-0.5 1.2z"/>
			</g>
		</g>
	</g>
	<g id="Layer">
		<g id="Layer">
			<g id="Layer">
				<path id="Layer" class="s0" d="m368.3 446.7q0.9 0 1.7 0.2 0.8 0.2 1.2 0.4l0.4 0.2-1.1 2.2q-1.1-0.6-2.2-0.6-0.5 0-0.8 0.1-0.2 0.1-0.2 0.4 0 0.1 0 0.2 0 0.1 0.1 0.2 0 0 0.1 0.1 0 0 0.1 0.1 0.2 0 0.2 0.1 0.1 0 0.2 0.1 0.2 0 0.3 0 0 0.1 0.2 0.1 0.2 0.1 0.3 0.1 0.6 0.2 1 0.4 0.5 0.2 1 0.5 0.4 0.4 0.7 0.9 0.3 0.6 0.3 1.3 0 3.3-4.6 3.3-1.1 0-2-0.3-1-0.3-1.4-0.6l-0.4-0.4 1.4-2.3q0.1 0.2 0.4 0.3 0.2 0.2 0.8 0.5 0.7 0.3 1.2 0.3 1 0 1-0.7 0-0.3-0.2-0.5-0.3-0.2-1-0.4-0.6-0.2-1-0.4-0.9-0.5-1.4-1.1-0.5-0.6-0.5-1.5 0-1.5 1.1-2.4 1.2-0.8 3.1-0.8z"/>
			</g>
		</g>
	</g>
	<g id="Layer">
		<g id="Layer">
			<g id="Layer">
				<path id="Layer" fill-rule="evenodd" class="s0" d="m374.1 443q0 0.8 0.6 1.4 0.6 0.6 1.4 0.6 0.8 0 1.4-0.6 0.6-0.6 0.6-1.4 0-0.9-0.6-1.4-0.6-0.6-1.4-0.6-0.8 0-1.4 0.6-0.6 0.5-0.6 1.4zm0.3 4v9.7h3.3v-9.7z"/>
			</g>
		</g>
	</g>
	<g id="Layer">
		<g id="Layer">
			<g id="Layer">
				<path id="Layer" fill-rule="evenodd" class="s0" d="m380.6 459.1l2.8-1.3q0.8 1.2 2.6 1.2 0.9 0 1.7-0.5 0.7-0.6 0.7-1.7v-0.8q-0.9 1-3.2 1-2.1 0-3.5-1.5-1.3-1.5-1.3-3.6 0-2.2 1.3-3.7 1.4-1.5 3.5-1.5 1.9 0 3.2 1.2v-0.9h3.4v10q0 2.4-1.6 3.7-1.6 1.3-4.2 1.3-4.1 0-5.4-2.9zm4-8.9q-0.6 0.7-0.6 1.7 0 1 0.6 1.6 0.6 0.7 1.6 0.7 1 0 1.6-0.7 0.7-0.6 0.7-1.6 0-1-0.7-1.7-0.6-0.6-1.6-0.6-1 0-1.6 0.6z"/>
			</g>
		</g>
	</g>
	<g id="Layer">
		<g id="Layer">
			<g id="Layer">
				<path id="Layer" class="s0" d="m395 456.7v-9.7h3.4v1q1.3-1.3 2.8-1.3 0.7 0 1.4 0.2 0.7 0.2 1.4 0.6 0.7 0.4 1.1 1.1 0.4 0.8 0.4 1.7v6.4h-3.4v-5.5q0-0.7-0.5-1.3-0.5-0.6-1.2-0.6-0.8 0-1.4 0.6-0.6 0.6-0.6 1.3v5.5z"/>
			</g>
		</g>
	</g>
	<g id="Layer">
		<g id="Layer">
			<g id="Layer">
				<path id="Layer" fill-rule="evenodd" class="s0" d="m155.6 308.9h4.5q1.9 0 3.1 1 1.2 1 1.2 2.8 0 1.9-1.2 3-1.2 1-3.1 1h-1.7v4.6h-2.8zm2.8 5.6h0.8q1 0 1.6-0.4 0.6-0.4 0.6-1.3 0-0.9-0.6-1.2-0.6-0.4-1.6-0.4h-0.8z"/>
			</g>
		</g>
	</g>
	<g id="Layer">
		<g id="Layer">
			<g id="Layer">
				<path id="Layer" class="s0" d="m166.4 321.3v-7.7h2.6v1.1h0.1q0 0 0.1-0.1 0-0.1 0.3-0.3 0.2-0.3 0.5-0.5 0.2-0.1 0.6-0.3 0.4-0.1 0.9-0.1 0.4 0 0.8 0.1 0.4 0.1 0.6 0.2l0.2 0.2-1.1 2.2q-0.5-0.4-1.4-0.4-0.4 0-0.8 0.2-0.3 0.2-0.5 0.5-0.1 0.3-0.2 0.5-0.1 0.2-0.1 0.4v4z"/>
			</g>
		</g>
	</g>
	<g id="Layer">
		<g id="Layer">
			<g id="Layer">
				<path id="Layer" fill-rule="evenodd" class="s0" d="m175.4 320.4q-1.3-1.1-1.3-2.9 0-1.8 1.3-3 1.4-1.1 3.3-1.1 2 0 3.3 1.1 1.3 1.2 1.3 3 0 1.8-1.3 2.9-1.3 1.1-3.3 1.1-2 0-3.3-1.1zm2-4.2q-0.5 0.5-0.5 1.3 0 0.8 0.5 1.3 0.5 0.5 1.3 0.5 0.8 0 1.3-0.5 0.5-0.5 0.5-1.3 0-0.8-0.5-1.3-0.5-0.5-1.3-0.5-0.7 0-1.3 0.5z"/>
			</g>
		</g>
	</g>
	<g id="Layer">
		<g id="Layer">
			<g id="Layer">
				<path id="Layer" class="s0" d="m189.5 315.6q-0.8 0-1.3 0.5-0.6 0.6-0.6 1.4 0 0.8 0.6 1.3 0.5 0.6 1.3 0.6 0.3 0 0.6-0.1 0.4-0.1 0.5-0.2l0.2-0.1 0.9 1.9q-0.1 0-0.3 0.1-0.2 0.2-0.9 0.3-0.7 0.2-1.4 0.2-1.7 0-3-1.1-1.3-1.2-1.3-2.9 0-1.7 1.3-2.9 1.3-1.2 3-1.2 0.7 0 1.4 0.2 0.6 0.1 0.9 0.3l0.3 0.2-0.9 1.8q-0.5-0.3-1.3-0.3z"/>
			</g>
		</g>
	</g>
	<g id="Layer">
		<g id="Layer">
			<g id="Layer">
				<path id="Layer" fill-rule="evenodd" class="s0" d="m201.3 317.8h-5.6q0 0.8 0.5 1.2 0.6 0.4 1.2 0.4 0.6 0 1-0.1 0.4-0.2 0.9-0.7l1.9 0.9q-1.2 2-4 2-1.8 0-3-1.1-1.3-1.2-1.3-2.9 0-1.7 1.3-2.9 1.2-1.2 3-1.2 1.8 0 3 1 1.1 1.1 1.1 3.1 0 0.3 0 0.3zm-5.5-1.4h2.9q-0.1-0.6-0.5-1-0.3-0.3-0.9-0.3-0.7 0-1.1 0.4-0.4 0.3-0.4 0.9z"/>
			</g>
		</g>
	</g>
	<g id="Layer">
		<g id="Layer">
			<g id="Layer">
				<path id="Layer" class="s0" d="m206.7 313.4q0.6 0 1.3 0.1 0.6 0.2 1 0.3l0.3 0.2-0.9 1.7q-0.9-0.4-1.7-0.4-0.5 0-0.7 0-0.1 0.1-0.1 0.4 0 0.1 0 0.1 0 0.1 0 0.2 0.1 0 0.1 0 0 0.1 0.1 0.1 0.1 0.1 0.2 0.1 0 0 0.2 0.1 0.1 0 0.1 0 0.1 0 0.2 0.1 0.2 0 0.3 0.1 0.4 0.1 0.8 0.3 0.3 0.1 0.7 0.4 0.4 0.3 0.6 0.7 0.2 0.5 0.2 1 0 2.6-3.6 2.6-0.9 0-1.6-0.2-0.8-0.2-1.1-0.5l-0.3-0.3 1.1-1.8q0.1 0.1 0.3 0.2 0.2 0.2 0.7 0.4 0.5 0.3 0.9 0.3 0.8 0 0.8-0.6 0-0.2-0.2-0.4-0.2-0.1-0.7-0.3-0.5-0.2-0.8-0.3-0.7-0.4-1.2-0.9-0.4-0.5-0.4-1.2 0-1.2 0.9-1.9 0.9-0.6 2.5-0.6z"/>
			</g>
		</g>
	</g>
	<g id="Layer">
		<g id="Layer">
			<g id="Layer">
				<path id="Layer" class="s0" d="m214.9 313.4q0.6 0 1.2 0.1 0.7 0.2 1 0.3l0.3 0.2-0.8 1.7q-0.9-0.4-1.7-0.4-0.5 0-0.7 0-0.2 0.1-0.2 0.4 0 0.1 0 0.1 0.1 0.1 0.1 0.2 0 0 0.1 0 0 0.1 0.1 0.1 0.1 0.1 0.1 0.1 0.1 0 0.2 0.1 0.1 0 0.2 0 0.1 0 0.2 0.1 0.1 0 0.2 0.1 0.5 0.1 0.8 0.3 0.4 0.1 0.8 0.4 0.3 0.3 0.6 0.7 0.2 0.5 0.2 1 0 2.6-3.7 2.6-0.8 0-1.6-0.2-0.7-0.2-1-0.5l-0.4-0.3 1.1-1.8q0.1 0.1 0.3 0.2 0.2 0.2 0.7 0.4 0.6 0.3 0.9 0.3 0.9 0 0.9-0.6 0-0.2-0.3-0.4-0.2-0.1-0.7-0.3-0.5-0.2-0.8-0.3-0.7-0.4-1.1-0.9-0.4-0.5-0.4-1.2 0-1.2 0.9-1.9 0.9-0.6 2.5-0.6z"/>
			</g>
		</g>
	</g>
	<g id="Layer">
		<g id="Layer">
			<g id="Layer">
				<path id="Layer" class="s0" d="m158.4 323.9v12.4h-2.8v-12.4z"/>
			</g>
		</g>
	</g>
	<g id="Layer">
		<g id="Layer">
			<g id="Layer">
				<path id="Layer" class="s0" d="m161 336.3v-7.7h2.7v0.8q1-1 2.2-1 0.8 0 1.6 0.3 0.7 0.4 1.1 1.1 1.2-1.4 2.6-1.4 1.2 0 2.1 0.7 0.9 0.7 0.9 2.1v5.1h-2.7v-4.3q0-0.7-0.3-1.1-0.4-0.4-1-0.4-0.6 0-1 0.4-0.3 0.3-0.3 0.8v4.6h-2.7v-4.3q0-0.7-0.3-1.1-0.3-0.4-1-0.4-0.6 0-0.9 0.4-0.3 0.4-0.3 0.9v4.5z"/>
			</g>
		</g>
	</g>
	<g id="Layer">
		<g id="Layer">
			<g id="Layer">
				<path id="Layer" fill-rule="evenodd" class="s0" d="m184.5 329.6q1.1 1.1 1.1 2.9 0 1.7-1.1 2.9-1.1 1.1-2.7 1.1-1.6 0-2.6-0.9v4.7h-2.6v-11.7h2.6v0.9q1-1.1 2.6-1.1 1.6 0 2.7 1.2zm-2.2 4.2q0.5-0.5 0.5-1.3 0-0.8-0.5-1.3-0.5-0.5-1.3-0.5-0.8 0-1.3 0.5-0.5 0.5-0.5 1.3 0 0.8 0.5 1.3 0.5 0.5 1.3 0.5 0.7 0 1.3-0.5z"/>
			</g>
		</g>
	</g>
	<g id="Layer">
		<g id="Layer">
			<g id="Layer">
				<path id="Layer" class="s0" d="m187.6 336.3v-12.9h2.7v12.9z"/>
			</g>
		</g>
	</g>
	<g id="Layer">
		<g id="Layer">
			<g id="Layer">
				<path id="Layer" fill-rule="evenodd" class="s0" d="m200.7 332.8h-5.6q0 0.8 0.5 1.2 0.5 0.4 1.1 0.4 0.7 0 1.1-0.1 0.3-0.2 0.8-0.7l1.9 0.9q-1.2 2-4 2-1.7 0-3-1.1-1.2-1.2-1.2-2.9 0-1.7 1.2-2.9 1.3-1.2 3-1.2 1.9 0 3 1 1.2 1.1 1.2 3.1 0 0.3 0 0.3zm-5.6-1.4h3q-0.1-0.6-0.5-1-0.4-0.3-1-0.3-0.7 0-1 0.4-0.4 0.3-0.5 0.9z"/>
			</g>
		</g>
	</g>
	<g id="Layer">
		<g id="Layer">
			<g id="Layer">
				<path id="Layer" class="s0" d="m202.7 336.3v-7.7h2.6v0.8h0.1q1-1 2.2-1 0.8 0 1.6 0.3 0.7 0.4 1.1 1.1 1.2-1.4 2.6-1.4 1.2 0 2.1 0.7 0.9 0.7 0.9 2.1v5.1h-2.7v-4.3q0-0.7-0.3-1.1-0.4-0.4-1.1-0.4-0.6 0-0.9 0.4-0.3 0.3-0.3 0.8v4.6h-2.7v-4.3q0-0.7-0.3-1.1-0.3-0.4-1-0.4-0.6 0-0.9 0.4-0.4 0.4-0.4 0.9v4.5z"/>
			</g>
		</g>
	</g>
	<g id="Layer">
		<g id="Layer">
			<g id="Layer">
				<path id="Layer" fill-rule="evenodd" class="s0" d="m226.1 332.8h-5.6q0 0.8 0.5 1.2 0.5 0.4 1.2 0.4 0.6 0 1-0.1 0.3-0.2 0.8-0.7l2 0.9q-1.3 2-4 2-1.8 0-3-1.1-1.3-1.2-1.3-2.9 0-1.7 1.3-2.9 1.2-1.2 3-1.2 1.8 0 2.9 1 1.2 1.1 1.2 3.1 0 0.3 0 0.3zm-5.6-1.4h3q-0.1-0.6-0.5-1-0.4-0.3-1-0.3-0.6 0-1 0.4-0.4 0.3-0.5 0.9z"/>
			</g>
		</g>
	</g>
	<g id="Layer">
		<g id="Layer">
			<g id="Layer">
				<path id="Layer" class="s0" d="m228.1 336.3v-7.7h2.7v0.8q1-1 2.2-1 0.6 0 1.1 0.1 0.6 0.2 1.1 0.5 0.6 0.3 0.9 0.9 0.3 0.6 0.3 1.3v5.1h-2.7v-4.3q0-0.6-0.4-1.1-0.3-0.4-0.9-0.4-0.7 0-1.2 0.4-0.4 0.5-0.4 1.1v4.3z"/>
			</g>
		</g>
	</g>
	<g id="Layer">
		<g id="Layer">
			<g id="Layer">
				<path id="Layer" class="s0" d="m239.3 328.6v-2.9h2.6v2.9h1.7v2h-1.7v2.5q0 1.1 0.6 1.1 0.2 0 0.3-0.1 0.2-0.1 0.3-0.1l0.1-0.1 0.7 2.2q-0.9 0.4-2 0.4-0.8 0-1.3-0.2-0.5-0.3-0.8-0.7-0.3-0.5-0.4-0.9-0.1-0.5-0.1-1.1v-3h-1.2v-2z"/>
			</g>
		</g>
	</g>
	<g id="Layer">
		<g id="Layer">
			<g id="Layer">
				<path id="Layer" fill-rule="evenodd" class="s0" d="m246 335.4q-1.1-1.2-1.1-2.9 0-1.7 1.1-2.9 1.1-1.2 2.8-1.2 1.5 0 2.5 0.9v-0.7h2.7v7.7h-2.6v-0.8h-0.1q-1 1-2.5 1-1.7 0-2.8-1.1zm2.3-4.2q-0.5 0.5-0.5 1.3 0 0.8 0.5 1.3 0.5 0.5 1.3 0.5 0.8 0 1.3-0.5 0.5-0.5 0.5-1.3 0-0.8-0.5-1.3-0.6-0.5-1.3-0.5-0.8 0-1.3 0.5z"/>
			</g>
		</g>
	</g>
	<g id="Layer">
		<g id="Layer">
			<g id="Layer">
				<path id="Layer" class="s0" d="m257 328.6v-2.9h2.7v2.9h1.6v2h-1.6v2.5q0 1.1 0.6 1.1 0.1 0 0.3-0.1 0.2-0.1 0.2-0.1l0.1-0.1 0.7 2.2q-0.9 0.4-2 0.4-0.7 0-1.3-0.2-0.5-0.3-0.8-0.7-0.3-0.5-0.4-0.9-0.1-0.5-0.1-1.1v-3h-1.1v-2z"/>
			</g>
		</g>
	</g>
	<g id="Layer">
		<g id="Layer">
			<g id="Layer">
				<path id="Layer" fill-rule="evenodd" class="s0" d="m263 325.4q0 0.7 0.5 1.1 0.5 0.5 1.1 0.5 0.7 0 1.1-0.5 0.5-0.4 0.5-1.1 0-0.6-0.5-1.1-0.4-0.5-1.1-0.5-0.6 0-1.1 0.5-0.5 0.5-0.5 1.1zm0.3 3.2v7.7h2.6v-7.7z"/>
			</g>
		</g>
	</g>
	<g id="Layer">
		<g id="Layer">
			<g id="Layer">
				<path id="Layer" fill-rule="evenodd" class="s0" d="m269.3 335.4q-1.3-1.1-1.3-2.9 0-1.8 1.3-3 1.4-1.1 3.3-1.1 2 0 3.3 1.1 1.4 1.2 1.4 3 0 1.8-1.4 2.9-1.3 1.1-3.3 1.1-2 0-3.3-1.1zm2-4.2q-0.5 0.5-0.5 1.3 0 0.8 0.5 1.3 0.5 0.5 1.3 0.5 0.8 0 1.3-0.5 0.5-0.5 0.5-1.3 0-0.8-0.5-1.3-0.5-0.5-1.3-0.5-0.7 0-1.3 0.5z"/>
			</g>
		</g>
	</g>
	<g id="Layer">
		<g id="Layer">
			<g id="Layer">
				<path id="Layer" class="s0" d="m279.3 336.3v-7.7h2.6v0.8q1.1-1 2.3-1 0.5 0 1.1 0.1 0.6 0.2 1.1 0.5 0.5 0.3 0.8 0.9 0.4 0.6 0.4 1.3v5.1h-2.7v-4.3q0-0.6-0.4-1.1-0.4-0.4-1-0.4-0.6 0-1.1 0.4-0.5 0.5-0.5 1.1v4.3z"/>
			</g>
		</g>
	</g>
	<g id="Layer">
		<g id="Layer">
			<g id="Layer">
				<path id="Layer" fill-rule="evenodd" class="s0" d="m252.8 104.3h5.7q2.4 0 3.9 1.3 1.4 1.2 1.4 3.6 0 2.3-1.5 3.7-1.5 1.3-3.8 1.3h-2.2v5.8h-3.5zm3.5 7h1q1.2 0 2-0.5 0.8-0.5 0.8-1.5 0-1.2-0.8-1.7-0.8-0.4-2-0.4h-1z"/>
			</g>
		</g>
	</g>
	<g id="Layer">
		<g id="Layer">
			<g id="Layer">
				<path id="Layer" class="s0" d="m266.4 120v-9.7h3.3v1.4h0.1q0-0.1 0.1-0.2 0.1-0.1 0.4-0.4 0.2-0.3 0.6-0.5 0.3-0.3 0.8-0.4 0.5-0.2 1.1-0.2 0.5 0 1 0.1 0.6 0.2 0.8 0.3l0.3 0.2-1.4 2.8q-0.6-0.5-1.8-0.5-0.6 0-1 0.3-0.5 0.2-0.6 0.6-0.2 0.4-0.3 0.7-0.1 0.2-0.1 0.4v5.1z"/>
			</g>
		</g>
	</g>
	<g id="Layer">
		<g id="Layer">
			<g id="Layer">
				<path id="Layer" fill-rule="evenodd" class="s0" d="m277.7 118.9q-1.6-1.5-1.6-3.7 0-2.3 1.7-3.8 1.7-1.4 4.2-1.4 2.4 0 4.1 1.5 1.7 1.4 1.7 3.7 0 2.2-1.7 3.6-1.6 1.5-4.1 1.5-2.7 0-4.3-1.4zm2.6-5.4q-0.6 0.6-0.6 1.7 0 1 0.6 1.6 0.6 0.6 1.6 0.6 1 0 1.6-0.6 0.7-0.7 0.7-1.6 0-1.1-0.7-1.7-0.6-0.6-1.6-0.6-0.9 0-1.6 0.6z"/>
			</g>
		</g>
	</g>
	<g id="Layer">
		<g id="Layer">
			<g id="Layer">
				<path id="Layer" class="s0" d="m295.5 112.7q-1 0-1.7 0.7-0.6 0.7-0.6 1.7 0 1 0.6 1.7 0.7 0.7 1.7 0.7 0.4 0 0.8-0.1 0.4-0.1 0.6-0.2l0.2-0.1 1.1 2.3q-0.1 0.1-0.3 0.3-0.3 0.1-1.1 0.3-0.9 0.3-1.8 0.3-2.2 0-3.8-1.5-1.6-1.5-1.6-3.6 0-2.1 1.6-3.7 1.6-1.5 3.8-1.5 0.9 0 1.8 0.2 0.8 0.2 1.1 0.5l0.3 0.2-1.1 2.3q-0.6-0.5-1.6-0.5z"/>
			</g>
		</g>
	</g>
	<g id="Layer">
		<g id="Layer">
			<g id="Layer">
				<path id="Layer" fill-rule="evenodd" class="s0" d="m310.4 115.6h-7q0 1 0.6 1.5 0.7 0.5 1.5 0.5 0.8 0 1.3-0.2 0.4-0.2 1-0.9l2.5 1.3q-1.6 2.5-5.1 2.5-2.2 0-3.8-1.5-1.5-1.5-1.5-3.6 0-2.2 1.5-3.7 1.6-1.5 3.8-1.5 2.3 0 3.8 1.3 1.4 1.4 1.4 3.9 0 0.3 0 0.4zm-6.9-1.8h3.7q-0.2-0.8-0.6-1.2-0.5-0.4-1.3-0.4-0.8 0-1.3 0.4-0.5 0.4-0.5 1.2z"/>
			</g>
		</g>
	</g>
	<g id="Layer">
		<g id="Layer">
			<g id="Layer">
				<path id="Layer" class="s0" d="m317.2 110q0.8 0 1.7 0.2 0.8 0.2 1.2 0.3l0.4 0.3-1.1 2.2q-1.2-0.7-2.2-0.7-0.6 0-0.8 0.2-0.2 0.1-0.2 0.4 0 0.1 0 0.2 0 0.1 0.1 0.1 0 0.1 0.1 0.1 0 0.1 0.1 0.2 0.1 0 0.2 0 0.1 0.1 0.2 0.1 0.2 0.1 0.2 0.1 0.1 0 0.3 0.1 0.2 0 0.3 0.1 0.6 0.1 1 0.4 0.4 0.2 0.9 0.5 0.5 0.4 0.8 0.9 0.2 0.6 0.2 1.3 0 3.3-4.6 3.3-1 0-2-0.3-0.9-0.3-1.3-0.7l-0.4-0.3 1.3-2.3q0.2 0.1 0.4 0.3 0.3 0.2 0.9 0.5 0.7 0.3 1.1 0.3 1.1 0 1.1-0.7 0-0.3-0.3-0.5-0.2-0.2-0.9-0.4-0.6-0.2-1-0.4-0.9-0.5-1.4-1.1-0.5-0.6-0.5-1.6 0-1.5 1.1-2.3 1.1-0.8 3.1-0.8z"/>
			</g>
		</g>
	</g>
	<g id="Layer">
		<g id="Layer">
			<g id="Layer">
				<path id="Layer" class="s0" d="m327.5 110q0.8 0 1.7 0.2 0.8 0.2 1.2 0.3l0.4 0.3-1.1 2.2q-1.2-0.7-2.2-0.7-0.6 0-0.8 0.2-0.2 0.1-0.2 0.4 0 0.1 0 0.2 0 0.1 0 0.1 0.1 0.1 0.2 0.1 0 0.1 0.1 0.2 0.1 0 0.2 0 0.1 0.1 0.2 0.1 0.2 0.1 0.2 0.1 0.1 0 0.3 0.1 0.2 0 0.3 0.1 0.6 0.1 1 0.4 0.4 0.2 0.9 0.5 0.5 0.4 0.8 0.9 0.2 0.6 0.2 1.3 0 3.3-4.6 3.3-1 0-2-0.3-0.9-0.3-1.3-0.7l-0.4-0.3 1.3-2.3q0.2 0.1 0.4 0.3 0.3 0.2 0.9 0.5 0.7 0.3 1.1 0.3 1.1 0 1.1-0.7 0-0.3-0.3-0.5-0.2-0.2-0.9-0.4-0.6-0.2-1-0.4-0.9-0.5-1.4-1.1-0.6-0.6-0.5-1.6-0.1-1.5 1.1-2.3 1.1-0.8 3.1-0.8z"/>
			</g>
		</g>
	</g>
	<g id="Layer">
		<g id="Layer">
			<g id="Layer">
				<path id="Layer" class="s0" d="m265.7 138.8l-0.7-9.3h-0.1l-3.2 9.2h-2.1l-3.3-9.2h-0.1l-0.7 9.3h-3.6l1.4-15.7h3.8l3.5 9 3.5-9h3.8l1.4 15.7z"/>
			</g>
		</g>
	</g>
	<g id="Layer">
		<g id="Layer">
			<g id="Layer">
				<path id="Layer" fill-rule="evenodd" class="s0" d="m272.6 137.6q-1.6-1.4-1.6-3.7 0-2.3 1.7-3.7 1.7-1.5 4.2-1.5 2.4 0 4.1 1.5 1.7 1.5 1.7 3.7 0 2.2-1.7 3.7-1.6 1.4-4.1 1.4-2.7 0-4.3-1.4zm2.6-5.3q-0.6 0.6-0.6 1.6 0 1 0.6 1.6 0.6 0.7 1.6 0.7 1 0 1.7-0.7 0.6-0.6 0.6-1.6 0-1-0.7-1.6-0.6-0.7-1.6-0.7-0.9 0-1.6 0.7z"/>
			</g>
		</g>
	</g>
	<g id="Layer">
		<g id="Layer">
			<g id="Layer">
				<path id="Layer" class="s0" d="m285.2 138.8v-9.8h3.4v1q1.3-1.3 2.8-1.3 0.7 0 1.4 0.2 0.7 0.2 1.4 0.6 0.7 0.4 1.1 1.1 0.4 0.8 0.4 1.7v6.5h-3.4v-5.5q0-0.8-0.5-1.4-0.5-0.5-1.2-0.5-0.8 0-1.4 0.6-0.6 0.5-0.6 1.3v5.5z"/>
			</g>
		</g>
	</g>
	<g id="Layer">
		<g id="Layer">
			<g id="Layer">
				<path id="Layer" fill-rule="evenodd" class="s0" d="m298.4 125q0 0.8 0.6 1.4 0.6 0.6 1.4 0.6 0.8 0 1.4-0.6 0.6-0.6 0.6-1.4 0-0.8-0.6-1.4-0.6-0.6-1.4-0.6-0.8 0-1.4 0.6-0.6 0.6-0.6 1.4zm0.3 4v9.8h3.4v-9.8z"/>
			</g>
		</g>
	</g>
	<g id="Layer">
		<g id="Layer">
			<g id="Layer">
				<path id="Layer" class="s0" d="m306 129v-3.6h3.3v3.6h2.1v2.6h-2.1v3.1q0 1.3 0.8 1.3 0.2 0 0.4 0 0.2-0.1 0.3-0.2l0.1-0.1 0.8 2.7q-1 0.6-2.4 0.6-1 0-1.7-0.3-0.6-0.3-1-0.9-0.3-0.5-0.5-1.1-0.1-0.7-0.1-1.4v-3.7h-1.5v-2.6z"/>
			</g>
		</g>
	</g>
	<g id="Layer">
		<g id="Layer">
			<g id="Layer">
				<path id="Layer" fill-rule="evenodd" class="s0" d="m314.8 137.6q-1.7-1.4-1.7-3.7 0-2.3 1.7-3.7 1.7-1.5 4.2-1.5 2.5 0 4.1 1.5 1.7 1.5 1.7 3.7 0 2.2-1.6 3.7-1.7 1.4-4.2 1.4-2.6 0-4.2-1.4zm2.6-5.3q-0.7 0.6-0.7 1.6 0 1 0.6 1.6 0.7 0.7 1.7 0.7 1 0 1.6-0.7 0.6-0.6 0.7-1.6 0-1-0.7-1.6-0.7-0.7-1.6-0.7-1 0-1.6 0.7z"/>
			</g>
		</g>
	</g>
	<g id="Layer">
		<g id="Layer">
			<g id="Layer">
				<path id="Layer" class="s0" d="m327.4 138.8v-9.8h3.3v1.4h0.1q0-0.1 0.1-0.2 0.1-0.1 0.3-0.4 0.3-0.2 0.7-0.5 0.3-0.2 0.8-0.4 0.5-0.2 1-0.2 0.6 0 1.1 0.2 0.5 0.1 0.8 0.3l0.3 0.1-1.4 2.9q-0.7-0.5-1.8-0.5-0.6 0-1 0.2-0.5 0.3-0.7 0.7-0.1 0.4-0.2 0.6-0.1 0.3-0.1 0.4v5.2z"/>
			</g>
		</g>
	</g>
	<g id="Layer">
		<g id="Layer">
			<g id="Layer">
				<path id="Layer" fill-rule="evenodd" class="s0" d="m337.5 125q0 0.8 0.6 1.4 0.6 0.6 1.4 0.6 0.8 0 1.4-0.6 0.6-0.6 0.6-1.4 0-0.8-0.6-1.4-0.6-0.6-1.4-0.6-0.8 0-1.4 0.6-0.6 0.6-0.6 1.4zm0.3 4v9.8h3.3v-9.8z"/>
			</g>
		</g>
	</g>
	<g id="Layer">
		<g id="Layer">
			<g id="Layer">
				<path id="Layer" class="s0" d="m344.4 138.8v-9.8h3.4v1h0.1q1.3-1.3 2.7-1.3 0.8 0 1.5 0.2 0.7 0.2 1.3 0.6 0.7 0.4 1.1 1.1 0.4 0.8 0.4 1.7v6.5h-3.3v-5.5q0-0.8-0.5-1.4-0.5-0.5-1.3-0.5-0.8 0-1.4 0.6-0.6 0.5-0.6 1.3v5.5z"/>
			</g>
		</g>
	</g>
	<g id="Layer">
		<g id="Layer">
			<g id="Layer">
				<path id="Layer" fill-rule="evenodd" class="s0" d="m357.5 141.2l2.8-1.4q0.7 1.3 2.6 1.3 0.9 0 1.6-0.6 0.8-0.6 0.8-1.7v-0.7q-0.9 0.9-3.2 0.9-2.1 0-3.5-1.4-1.3-1.5-1.3-3.7 0-2.2 1.3-3.7 1.4-1.5 3.5-1.5 1.9 0 3.1 1.2h0.1v-0.9h3.4v10q0 2.4-1.6 3.7-1.6 1.3-4.2 1.3-4.2 0-5.4-2.8zm4-8.9q-0.7 0.6-0.7 1.6 0 1 0.7 1.6 0.6 0.7 1.6 0.7 1 0 1.6-0.7 0.7-0.6 0.7-1.6 0-1-0.7-1.6-0.7-0.7-1.6-0.7-1 0-1.6 0.7z"/>
			</g>
		</g>
	</g>
</svg>