<?xml version="1.0" encoding="utf-8"?>
<!-- Generator: Adobe Illustrator 27.8.1, SVG Export Plug-In . SVG Version: 6.00 Build 0)  -->
<svg version="1.1" xmlns="http://www.w3.org/2000/svg" xmlns:xlink="http://www.w3.org/1999/xlink" x="0px" y="0px"
	 viewBox="0 0 500 500" style="enable-background:new 0 0 500 500;" xml:space="preserve">
<style type="text/css">
	.st0{fill:#E5F1FF;stroke:#000000;stroke-miterlimit:10;}
	.st1{fill:#32A4D5;stroke:#000000;stroke-miterlimit:10;}
	
		.st2{fill:#32A4D5;stroke:#000000;stroke-width:1.1276;stroke-linecap:round;stroke-linejoin:round;stroke-miterlimit:10;stroke-dasharray:0,5.6381;}
	.st3{fill:#32A4D5;stroke:#000000;stroke-width:1.1276;stroke-miterlimit:10;}
	.st4{fill:#32A4D5;stroke:#000000;stroke-width:0.5638;stroke-miterlimit:10;}
	.st5{fill:#32A4D5;stroke:#000000;stroke-width:2.2552;stroke-linecap:round;stroke-linejoin:round;stroke-miterlimit:10;}
	.st6{fill:#32A4D5;stroke:#000000;stroke-width:1.0152;stroke-miterlimit:10;}
	.st7{fill:#32A4D5;stroke:#000000;stroke-width:0.2538;stroke-miterlimit:10;}
	.st8{fill:#32A4D5;stroke:#000000;stroke-width:0.5076;stroke-miterlimit:10;}
	.st9{font-family:'BebasNeueRegular';}
	.st10{font-size:8.122px;}
	.st11{font-family:'BebasNeueBook';}
	.st12{fill:#32A4D5;stroke:#000000;stroke-width:1.1276;stroke-linecap:round;stroke-linejoin:round;stroke-miterlimit:10;}
</style>
<g id="BACKGROUND">
</g>
<g id="OBJECTS">
	<circle class="st0" cx="372.37" cy="174.48" r="85.82"/>
	
		<ellipse transform="matrix(0.7071 -0.7071 0.7071 0.7071 -207.0038 211.0419)" class="st0" cx="151.25" cy="355.4" rx="50.16" ry="50.16"/>
	<g>
		<path class="st1" d="M150.58,117.27c-25.33,0-45.86,20.53-45.86,45.86c0,25.33,20.53,45.86,45.86,45.86
			c25.33,0,45.86-20.53,45.86-45.86C196.43,137.8,175.9,117.27,150.58,117.27z M150.58,192.44c-16.19,0-29.32-13.13-29.32-29.32
			s13.13-29.32,29.32-29.32c16.19,0,29.32,13.13,29.32,29.32S166.77,192.44,150.58,192.44z"/>
		<path class="st1" d="M323.83,410.45c0,2.91-2.36,5.26-5.26,5.26H185.5c-2.91,0-5.26-2.36-5.26-5.26c0-2.91,2.36-5.26,5.26-5.26
			h47.23l6.52-12.03h11.28h3.01h11.28l6.52,12.03h47.23C321.47,405.19,323.83,407.54,323.83,410.45z"/>
		<rect x="240.04" y="382.26" class="st1" width="21.8" height="6.39"/>
		<rect x="240.04" y="371.74" class="st1" width="21.8" height="6.39"/>
		<path class="st2" d="M424.51,350.11c-3.79,1.46-7.91,2.25-12.21,2.25c-18.83,0-34.09-15.26-34.09-34.09s15.26-34.09,34.09-34.09
			c18.83,0,34.09,15.26,34.09,34.09c0,5.05-1.1,9.83-3.06,14.14"/>
		<path class="st1" d="M328.25,158.22h-5.44c-1.13-4.84-3.03-9.37-5.58-13.47l3.85-3.85c1.66-1.66,1.66-4.35,0-6.01l-8.55-8.55
			c-1.66-1.66-4.35-1.66-6.01,0l-3.85,3.85c-4.1-2.55-8.64-4.45-13.47-5.58v-5.44c0-2.35-1.9-4.25-4.25-4.25h-12.09
			c-2.35,0-4.25,1.9-4.25,4.25v5.44c-4.84,1.13-9.37,3.03-13.47,5.58l-3.85-3.85c-1.66-1.66-4.35-1.66-6.01,0l-8.55,8.55
			c-1.66,1.66-1.66,4.35,0,6.01l3.85,3.85c-2.55,4.1-4.45,8.64-5.58,13.47h-5.44c-2.35,0-4.25,1.9-4.25,4.25v12.09
			c0,2.35,1.9,4.25,4.25,4.25h5.44c1.13,4.84,3.03,9.37,5.58,13.47l-3.85,3.85c-1.66,1.66-1.66,4.35,0,6.01l8.55,8.55
			c1.66,1.66,4.35,1.66,6.01,0l3.85-3.85c4.1,2.55,8.64,4.45,13.47,5.58v5.44c0,2.35,1.9,4.25,4.25,4.25h12.09
			c2.35,0,4.25-1.9,4.25-4.25v-5.44c4.84-1.13,9.37-3.03,13.47-5.58l3.85,3.85c1.66,1.66,4.35,1.66,6.01,0l8.55-8.55
			c1.66-1.66,1.66-4.35,0-6.01l-3.85-3.85c2.55-4.1,4.45-8.64,5.58-13.47h5.44c2.35,0,4.25-1.9,4.25-4.25v-12.09
			C332.5,160.12,330.6,158.22,328.25,158.22z M278.91,190.08c-11.91,0-21.57-9.66-21.57-21.57c0-11.91,9.66-21.57,21.57-21.57
			c11.91,0,21.57,9.66,21.57,21.57C300.48,180.43,290.82,190.08,278.91,190.08z"/>
		<path class="st1" d="M102.26,368.86c-6.33,0-11.47-5.13-11.47-11.47V177.93c0-6.33,5.13-11.47,11.47-11.47h299.55
			c6.33,0,11.47,5.13,11.47,11.47V357.4c0,6.33-5.13,11.47-11.47,11.47H102.26z"/>
		<rect x="114.31" y="191.51" class="st1" width="33.26" height="7.33"/>
		<rect x="154.34" y="191.51" class="st1" width="33.26" height="7.33"/>
		<rect x="255.82" y="191.51" class="st1" width="33.26" height="7.33"/>
		<rect x="357.31" y="191.51" class="st1" width="33.26" height="7.33"/>
		<rect x="192.11" y="191.51" class="st1" width="59.48" height="7.33"/>
		<rect x="293.03" y="191.51" class="st1" width="59.48" height="7.33"/>
		<rect x="114.49" y="185.68" class="st1" width="5.83" height="3.57"/>
		<g>
			<rect x="114.49" y="204.85" class="st1" width="60.8" height="3.57"/>
			<rect x="114.49" y="211.14" class="st1" width="18.04" height="3.57"/>
		</g>
		<path class="st1" d="M178.86,343.17h-56.38c-4.2,0-7.61-3.41-7.61-7.61V233.51c0-4.2,3.41-7.61,7.61-7.61h56.38
			c4.2,0,7.61,3.41,7.61,7.61v102.05C186.47,339.76,183.07,343.17,178.86,343.17z"/>
		<g>
			<rect x="123.89" y="243.09" class="st1" width="23.96" height="3.66"/>
			<rect x="123.89" y="251.27" class="st1" width="23.96" height="3.66"/>
			<rect x="123.89" y="259.44" class="st1" width="23.96" height="3.66"/>
		</g>
		<rect x="123.89" y="293.55" class="st1" width="14.66" height="3.66"/>
		<rect x="123.89" y="301.73" class="st1" width="14.66" height="3.66"/>
		<rect x="149.07" y="301.73" class="st1" width="14.66" height="3.66"/>
		<rect x="123.89" y="284.25" class="st1" width="9.21" height="3.66"/>
		<rect x="163.36" y="284.25" class="st1" width="4.89" height="3.66"/>
		<rect x="136.3" y="284.25" class="st1" width="25.18" height="3.66"/>
		<rect x="123.89" y="270.44" class="st1" width="3.52" height="3.66"/>
		<rect x="123.89" y="276.92" class="st1" width="3.52" height="3.66"/>
		<polygon class="st1" points="143.44,306.15 142.12,306.15 145.27,301.45 146.58,301.45 		"/>
		<rect x="123.89" y="312.44" class="st1" width="54.41" height="3.1"/>
		<rect x="123.89" y="319.49" class="st1" width="54.41" height="3.1"/>
		<path class="st1" d="M440,274.39H290.4c-3.74,0-6.77-3.03-6.77-6.77v-40.59c0-3.74,3.03-6.77,6.77-6.77H440
			c3.74,0,6.77,3.03,6.77,6.77v40.59C446.77,271.36,443.74,274.39,440,274.39z"/>
		<path class="st3" d="M332.12,255.22c0,0,8.27-20.3,31.95-15.41c23.68,4.89,35.71,31.57,66.15,9.77"/>
		<rect x="405.42" y="256.34" class="st3" width="3.38" height="3.38"/>
		<line class="st4" x1="336.26" y1="238.87" x2="379.11" y2="238.87"/>
		<line class="st4" x1="385.69" y1="258.97" x2="428.54" y2="258.97"/>
		<rect x="354.3" y="237.17" class="st3" width="3.38" height="3.38"/>
		<g>
			<path class="st1" d="M312.2,288.29h-32.33c-2.7,0-4.89-2.19-4.89-4.89v-48.49c0-2.7,2.19-4.89,4.89-4.89h32.33
				c2.7,0,4.89,2.19,4.89,4.89v48.49C317.09,286.1,314.9,288.29,312.2,288.29z"/>
			<g>
				<g>
					<rect x="281.57" y="238.3" class="st1" width="23.96" height="3.3"/>
					<rect x="281.57" y="245.67" class="st1" width="23.96" height="3.3"/>
					<rect x="281.57" y="253.04" class="st1" width="9.02" height="3.3"/>
				</g>
				<g>
					<rect x="281.57" y="260.66" class="st1" width="15.6" height="3.3"/>
					<rect x="281.57" y="268.03" class="st1" width="10.52" height="3.3"/>
					<rect x="281.57" y="275.4" class="st1" width="10.52" height="3.3"/>
				</g>
			</g>
		</g>
		<line class="st5" x1="420.46" y1="212.93" x2="437.37" y2="212.93"/>
		<g>
			<path class="st6" d="M382.45,308.37l-5.84,4.57l-8.38,1.52c0,0-7.87-0.51-8.63-0.51s-6.09-4.31-6.09-4.31l-9.9-3.55l-6.85,2.54
				l-8.12-1.78l-12.18-0.76l-11.68,4.57l-9.64,1.52l-8.63,2.79l-9.64,0.76l-10.41-8.12l-9.64-1.78l-9.9,5.58l-7.87,2.54l-8.93-0.25
				l-11.26,6.85h-6.71l-11.34,3.98"/>
			<g>
				<g>
					<line class="st7" x1="200.98" y1="324.7" x2="382.7" y2="324.7"/>
					<rect x="199.2" y="322.41" class="st1" width="1.86" height="4.57"/>
					<rect x="381.6" y="322.41" class="st1" width="1.86" height="4.57"/>
				</g>
				<path class="st8" d="M200.98,324.7"/>
			</g>
			<line class="st7" x1="382.54" y1="324.7" x2="382.54" y2="309.38"/>
			<path class="st1" d="M383.55,308.62c0,0.79-0.64,1.44-1.44,1.44c-0.79,0-1.44-0.64-1.44-1.44c0-0.79,0.64-1.44,1.44-1.44
				C382.91,307.18,383.55,307.83,383.55,308.62z"/>
			<text transform="matrix(1 0 0 1 201.2282 335.4151)" class="st1 st9 st10">beta test</text>
			<rect x="242.94" y="331.3" class="st1" width="113.03" height="2.03"/>
			<rect x="242.94" y="331.3" class="st1" width="69.38" height="2.03"/>
			<rect x="242.94" y="335.19" class="st1" width="55.58" height="2.03"/>
			<g>
				<polygon class="st1" points="207.7,341.24 214.55,341.24 215.44,339.33 201.61,339.33 201.61,342.51 206.43,342.51 				"/>
				<rect x="221.14" y="339.31" class="st1" width="0.76" height="0.76"/>
				<rect x="225.87" y="339.31" class="st1" width="0.76" height="0.76"/>
				<rect x="230.6" y="339.31" class="st1" width="0.76" height="0.76"/>
			</g>
			<text transform="matrix(1 0 0 1 373.6491 303.5479)" class="st1 st11 st10">500</text>
			<g>
				<polygon class="st1" points="364.09,337.39 362.4,337.39 359.69,331.3 361.38,331.3 				"/>
				<polygon class="st1" points="368.49,337.39 366.8,337.39 364.09,331.3 365.78,331.3 				"/>
				<polygon class="st1" points="372.89,337.39 371.2,337.39 368.49,331.3 370.18,331.3 				"/>
				<polygon class="st1" points="377.29,337.39 375.6,337.39 372.89,331.3 374.58,331.3 				"/>
				<polygon class="st1" points="381.6,337.39 379.91,337.39 377.2,331.3 378.9,331.3 				"/>
			</g>
		</g>
		<g>
			<g>
				<rect x="346.75" y="127.66" class="st1" width="27.51" height="4.93"/>
				<rect x="346.75" y="136.48" class="st1" width="41.48" height="4.93"/>
				<rect x="346.75" y="145.3" class="st1" width="51.16" height="4.93"/>
				<rect x="346.75" y="154.12" class="st1" width="19.56" height="4.93"/>
			</g>
		</g>
		<g>
			<g>
				<rect x="58.08" y="187.05" class="st1" width="27.51" height="4.93"/>
				<rect x="58.08" y="195.87" class="st1" width="41.48" height="4.93"/>
				<rect x="58.08" y="204.69" class="st1" width="51.16" height="4.93"/>
				<rect x="58.08" y="213.5" class="st1" width="19.56" height="4.93"/>
			</g>
		</g>
		<rect x="126.71" y="360.08" class="st3" width="117.27" height="15.22"/>
		<rect x="183.28" y="240.18" class="st3" width="5.64" height="34.58"/>
		<g>
			
				<ellipse transform="matrix(0.9872 -0.1592 0.1592 0.9872 -45.4157 69.7061)" class="st1" cx="412.3" cy="318.27" rx="19.43" ry="19.43"/>
			<g>
				<g>
					<path class="st1" d="M410.89,316.45l-7.72,2.83l7.72,2.8v2.9l-11.03-4.2v-3.01l11.03-4.19V316.45z"/>
				</g>
				<g>
					<path class="st1" d="M413.41,313.58l11.03,4.19v3.01l-11.03,4.2v-2.9l7.72-2.8l-7.72-2.83V313.58z"/>
				</g>
			</g>
		</g>
		<path class="st3" d="M444.7,334.15c0,1.4-1.14,2.54-2.54,2.54c-1.4,0-2.54-1.14-2.54-2.54c0-1.4,1.14-2.54,2.54-2.54
			C443.56,331.61,444.7,332.75,444.7,334.15z"/>
		<rect x="120.51" y="150.35" class="st3" width="91.9" height="9.58"/>
		<rect x="124.46" y="153.45" class="st1" width="56.94" height="2.82"/>
		<g>
			<rect x="198.69" y="225.15" class="st1" width="67.28" height="3.38"/>
			<rect x="198.69" y="225.15" class="st1" width="30.49" height="3.38"/>
		</g>
		<g>
			<rect x="198.69" y="233.88" class="st1" width="67.28" height="3.38"/>
			<rect x="198.69" y="233.88" class="st1" width="46.84" height="3.38"/>
		</g>
		<g>
			<rect x="198.69" y="242.62" class="st1" width="67.28" height="3.38"/>
			<rect x="198.69" y="242.62" class="st1" width="13.72" height="3.38"/>
		</g>
		<g>
			<rect x="198.97" y="219.23" class="st1" width="1.32" height="1.32"/>
			<rect x="203.48" y="219.23" class="st1" width="1.32" height="1.32"/>
			<rect x="207.99" y="219.23" class="st1" width="1.32" height="1.32"/>
		</g>
		<g>
			<rect x="324.17" y="265.3" class="st1" width="2.19" height="2.19"/>
			<rect x="331.69" y="265.3" class="st1" width="2.19" height="2.19"/>
			<rect x="339.2" y="265.3" class="st1" width="2.19" height="2.19"/>
		</g>
		<g>
			<rect x="355.82" y="178.17" class="st1" width="4.11" height="4.11"/>
			<rect x="369.91" y="178.17" class="st1" width="4.11" height="4.11"/>
			<rect x="384.01" y="178.17" class="st1" width="4.11" height="4.11"/>
		</g>
		<g>
			<rect x="297.56" y="348.07" class="st1" width="4.11" height="4.11"/>
			<rect x="311.65" y="348.07" class="st1" width="4.11" height="4.11"/>
			<rect x="325.75" y="348.07" class="st1" width="4.11" height="4.11"/>
		</g>
		<g>
			<rect x="125.08" y="234.23" class="st1" width="2.19" height="2.19"/>
			<rect x="132.6" y="234.23" class="st1" width="2.19" height="2.19"/>
			<rect x="140.12" y="234.23" class="st1" width="2.19" height="2.19"/>
		</g>
		<g>
			<rect x="396.02" y="231.54" class="st1" width="36.46" height="3.57"/>
			<rect x="396.02" y="237.83" class="st1" width="10.82" height="3.57"/>
		</g>
		<polygon class="st1" points="101.9,238.87 94.01,238.87 94.01,230.97 86.68,230.97 86.68,238.87 78.79,238.87 78.79,246.19 
			86.68,246.19 86.68,254.09 94.01,254.09 94.01,246.19 101.9,246.19 		"/>
		<polygon class="st1" points="80.78,260.85 75.97,260.85 75.97,256.04 71.5,256.04 71.5,260.85 66.69,260.85 66.69,265.32 
			71.5,265.32 71.5,270.14 75.97,270.14 75.97,265.32 80.78,265.32 		"/>
		<g>
			<path class="st1" d="M212.52,256.65c-6.82,0-12.34,5.53-12.34,12.34c0,6.82,5.53,12.34,12.34,12.34
				c6.82,0,12.34-5.53,12.34-12.34C224.86,262.18,219.33,256.65,212.52,256.65z M212.52,275.43c-3.55,0-6.43-2.88-6.43-6.43
				c0-3.55,2.88-6.43,6.43-6.43c3.55,0,6.43,2.88,6.43,6.43C218.95,272.55,216.07,275.43,212.52,275.43z"/>
			<path class="st1" d="M204.11,267.78c1.15,0,2.15-0.68,2.67-1.7c1.06-2.08,3.23-3.51,5.73-3.51c2.5,0,4.67,1.43,5.73,3.51
				c0.52,1.02,1.53,1.7,2.67,1.7l0,0c2.16,0,3.64-2.26,2.69-4.2c-2.01-4.1-6.22-6.92-11.09-6.92c-4.87,0-9.08,2.82-11.09,6.92
				C200.47,265.51,201.95,267.78,204.11,267.78L204.11,267.78z"/>
		</g>
		<g>
			<path class="st1" d="M233.25,269c0,6.82,5.53,12.34,12.34,12.34c6.82,0,12.34-5.53,12.34-12.34c0-6.82-5.53-12.34-12.34-12.34
				C238.77,256.65,233.25,262.18,233.25,269z M252.02,269c0,3.55-2.88,6.43-6.43,6.43c-3.55,0-6.43-2.88-6.43-6.43
				c0-3.55,2.88-6.43,6.43-6.43C249.14,262.56,252.02,265.44,252.02,269z"/>
			<path class="st1" d="M244.38,277.4c0-1.15-0.68-2.15-1.7-2.67c-2.08-1.06-3.51-3.23-3.51-5.73c0-2.5,1.43-4.67,3.51-5.73
				c1.02-0.52,1.7-1.53,1.7-2.67l0,0c0-2.16-2.26-3.64-4.2-2.69c-4.1,2.01-6.92,6.22-6.92,11.09c0,4.87,2.82,9.08,6.92,11.09
				C242.11,281.04,244.38,279.56,244.38,277.4L244.38,277.4z"/>
		</g>
		<rect x="154.71" y="220.26" class="st3" width="22.55" height="54.13"/>
		<g>
			<rect x="157.91" y="230.69" class="st1" width="6.58" height="1.94"/>
			<rect x="157.91" y="235.03" class="st1" width="6.58" height="1.94"/>
			<rect x="157.91" y="239.36" class="st1" width="6.58" height="1.94"/>
			<rect x="157.91" y="261.92" class="st1" width="6.58" height="1.94"/>
		</g>
		<g>
			<rect x="157.91" y="245.72" class="st1" width="9.58" height="1.94"/>
			<rect x="157.91" y="250.06" class="st1" width="9.58" height="1.94"/>
			<rect x="157.91" y="254.4" class="st1" width="9.58" height="1.94"/>
		</g>
		<rect x="73.9" y="287.92" class="st1" width="28.57" height="28.57"/>
		<rect x="58.87" y="294.68" class="st3" width="28.57" height="28.57"/>
		<rect x="413.69" y="370.61" class="st3" width="12.03" height="12.03"/>
		<g>
			<polyline class="st3" points="269.35,351.63 279.5,351.63 285.14,357.27 343.78,357.27 352.8,348.24 384.37,348.24 			"/>
			<circle class="st3" cx="266.39" cy="351.77" r="2.96"/>
			<circle class="st3" cx="387.43" cy="348.1" r="2.96"/>
		</g>
		<path class="st1" d="M427.22,192.44c0,2.08-1.68,3.76-3.76,3.76s-3.76-1.68-3.76-3.76s1.68-3.76,3.76-3.76
			S427.22,190.37,427.22,192.44z"/>
		<path class="st1" d="M79.91,339.04c0,2.08-1.68,3.76-3.76,3.76s-3.76-1.68-3.76-3.76c0-2.08,1.68-3.76,3.76-3.76
			S79.91,336.96,79.91,339.04z"/>
		<path class="st1" d="M97.2,352.94c0,3.63-2.94,6.58-6.58,6.58s-6.58-2.94-6.58-6.58c0-3.63,2.94-6.58,6.58-6.58
			S97.2,349.31,97.2,352.94z"/>
		<g>
			<rect x="294.91" y="375.12" class="st3" width="26.31" height="6.01"/>
			<rect x="294.91" y="386.4" class="st3" width="57.7" height="6.01"/>
		</g>
		<g>
			<line class="st12" x1="133.73" y1="380.88" x2="127.35" y2="387.26"/>
			<line class="st12" x1="139.86" y1="380.88" x2="133.48" y2="387.26"/>
			<line class="st12" x1="145.99" y1="380.88" x2="139.62" y2="387.26"/>
			<line class="st12" x1="152.12" y1="380.88" x2="145.75" y2="387.26"/>
			<line class="st12" x1="158.26" y1="380.88" x2="151.88" y2="387.26"/>
		</g>
	</g>
</g>
</svg>
