<?xml version="1.0" encoding="UTF-8"?><svg id="_Слой_1" xmlns="http://www.w3.org/2000/svg" xmlns:xlink="http://www.w3.org/1999/xlink" viewBox="0 0 2083.76 1746.92"><defs><style>.cls-1{fill:url(#linear-gradient);}.cls-1,.cls-2,.cls-3,.cls-4,.cls-5,.cls-6,.cls-7,.cls-8,.cls-9,.cls-10,.cls-11,.cls-12,.cls-13,.cls-14,.cls-15,.cls-16,.cls-17,.cls-18,.cls-19,.cls-20,.cls-21,.cls-22,.cls-23,.cls-24,.cls-25,.cls-26,.cls-27,.cls-28,.cls-29,.cls-30,.cls-31,.cls-32,.cls-33,.cls-34,.cls-35,.cls-36,.cls-37,.cls-38,.cls-39,.cls-40,.cls-41,.cls-42,.cls-43,.cls-44,.cls-45,.cls-46,.cls-47,.cls-48{stroke-width:0px;}.cls-3{fill:#f3f3f3;}.cls-4{fill:#4e4f4f;}.cls-5{fill:#4da8f2;}.cls-6{fill:#292c47;}.cls-7{fill:#5c544d;}.cls-8{fill:#464240;}.cls-9{fill:#2f4563;}.cls-10{fill:#25688f;}.cls-11{fill:#3c4145;}.cls-12{fill:#444;}.cls-13{fill:#1d3b54;}.cls-14{fill:#41608a;}.cls-15{fill:#141414;}.cls-16{fill:#434343;}.cls-17{fill:#424773;}.cls-18{fill:#23344a;}.cls-19{fill:#1e2d40;}.cls-20{fill:#de9673;}.cls-21{fill:#de9d7d;}.cls-22{fill:#ccc;}.cls-23{fill:#e0e0e0;}.cls-24{fill:#e2d2ca;}.cls-25{fill:#c98462;}.cls-26{fill:#d6d6d6;}.cls-27{fill:#dfe1e8;}.cls-28{fill:#db9c7c;}.cls-29{fill:#d9d9d9;}.cls-30{fill:#a77860;}.cls-31{fill:#d88a51;}.cls-32{fill:#cf8c6c;}.cls-33{fill:#b8b8b8;}.cls-34{fill:#8f8f8f;}.cls-35{fill:#32a3d3;}.cls-36{fill:#33373b;}.cls-37{fill:#8c8c8c;}.cls-38{fill:#969696;}.cls-39{fill:#fff;}.cls-40{fill:#eea886;}.cls-41{fill:#eea987;}.cls-42{fill:#efaa88;}.cls-43{fill:#fccca2;}.cls-44{fill:#eef0f7;}.cls-45{fill:#f0f0f0;}.cls-46{fill:#fcfcfc;}.cls-47{fill:#f5f7ff;}.cls-48{fill:#e6e6e6;}</style><linearGradient id="linear-gradient" x1="-4737.37" y1="1363.38" x2="-4588.45" y2="1363.38" gradientTransform="translate(-4537.33) rotate(-180) scale(1 -1)" gradientUnits="userSpaceOnUse"><stop offset="0" stop-color="#40d5e6"/><stop offset="1" stop-color="#57f"/></linearGradient></defs><path class="cls-10" d="m498.34,745.7c25.16,54.9,39.29,106.85,20.77,130.02-1.1,1.37-2.29,2.62-3.58,3.77-14.27,12.57-42.33,12.85-89.71-5.86-126.09-49.81-132.07-135.76-157.58-219.7-25.14-82.89-112.96-68.88-115.2-68.51,204.62-71.28,302.62,67.21,345.3,160.28Z"/><path class="cls-46" d="m519.11,875.72c-1.1,1.37-2.29,2.62-3.58,3.77-23.69-14.27-69.04-44.52-90.42-78.48-10.09-16.03-18.56-34.05-27.55-53.11-16.96-36.06-34.54-73.35-65.21-101.95l3.42-3.69c31.37,29.28,49.13,67,66.32,103.5,8.91,18.93,17.32,36.81,27.27,52.57,20.85,33.13,66.67,63.5,89.76,77.39Z"/><path class="cls-35" d="m476.43,768.13c-1.48,3.65-2.44,5.72-2.55,5.95-.39-2.02-.76-4.02-1.15-5.95-16.82-86.19-39.31-95.19-106.76-170.58-68.97-77.11-29.31-148.94-29.31-148.94,231.07,66.76,155.46,280.99,139.76,319.52Z"/><path class="cls-46" d="m476.43,768.13c-1.48,3.65-2.44,5.72-2.55,5.95-.39-2.02-.76-4.02-1.15-5.95,7.48-74.51-37.46-161.94-51.59-177.62-14.61-16.25-23.62-38.59-27.02-47.01-.57-1.4-1.11-2.73-1.28-3.04l3.26-1.84c.29.51.66,1.43,1.49,3.48,3.32,8.25,12.17,30.14,26.34,45.88,17.9,19.9,59.36,107.74,52.49,180.14Z"/><path class="cls-10" d="m1786.94,413.85l-28.48-46.63c-2.34-3.82-1.13-8.82,2.69-11.15,3.82-2.33,8.82-1.13,11.15,2.69l20.14,32.97,53.54-31.69c3.86-2.28,8.83-1.01,11.11,2.85,2.28,3.86,1.01,8.83-2.85,11.11l-67.31,39.84Z"/><path class="cls-10" d="m1806.06,485.72c-56.47,0-102.42-45.94-102.42-102.42s45.94-102.42,102.42-102.42,102.41,45.94,102.41,102.42-45.94,102.42-102.41,102.42Zm0-190.2c-48.41,0-87.79,39.38-87.79,87.78s39.38,87.78,87.79,87.78,87.78-39.38,87.78-87.78-39.38-87.78-87.78-87.78Z"/><path class="cls-10" d="m1469.77,263.22l-17.6-28.81c-1.44-2.36-.7-5.45,1.67-6.89,2.36-1.44,5.45-.7,6.89,1.66l12.45,20.38,33.08-19.58c2.38-1.41,5.46-.62,6.87,1.76,1.41,2.38.62,5.46-1.76,6.87l-41.59,24.62Z"/><path class="cls-10" d="m1481.59,307.64c-34.9,0-63.29-28.39-63.29-63.29s28.39-63.29,63.29-63.29,63.29,28.39,63.29,63.29-28.39,63.29-63.29,63.29Zm0-117.54c-29.91,0-54.25,24.34-54.25,54.25s24.34,54.25,54.25,54.25,54.25-24.34,54.25-54.25-24.34-54.25-54.25-54.25Z"/><path class="cls-10" d="m1144.31,156.86l-27-44.2c-2.21-3.62-1.07-8.36,2.55-10.57,3.62-2.21,8.36-1.07,10.57,2.55l19.09,31.26,50.75-30.04c3.66-2.16,8.37-.95,10.53,2.7,2.16,3.66.95,8.37-2.7,10.53l-63.8,37.76Z"/><path class="cls-10" d="m1162.44,225c-53.53,0-97.09-43.55-97.09-97.09s43.55-97.09,97.09-97.09,97.09,43.55,97.09,97.09-43.55,97.09-97.09,97.09Zm0-180.3c-45.89,0-83.22,37.33-83.22,83.22s37.33,83.22,83.22,83.22,83.22-37.33,83.22-83.22-37.33-83.22-83.22-83.22Z"/><path class="cls-10" d="m858.77,262.81l-17.84-29.21c-1.46-2.4-.71-5.52,1.69-6.99,2.39-1.46,5.52-.71,6.99,1.69l12.61,20.65,33.54-19.85c2.42-1.43,5.53-.63,6.96,1.78,1.43,2.41.63,5.53-1.79,6.96l-42.16,24.95Z"/><path class="cls-10" d="m870.74,307.84c-35.38,0-64.15-28.78-64.15-64.15s28.78-64.15,64.15-64.15,64.15,28.78,64.15,64.15-28.78,64.15-64.15,64.15Zm0-119.14c-30.32,0-54.99,24.67-54.99,54.99s24.67,54.99,54.99,54.99,54.99-24.67,54.99-54.99-24.67-54.99-54.99-54.99Z"/><path class="cls-10" d="m608.15,122.52l-22.33-36.56c-1.83-3-.89-6.91,2.11-8.74,3-1.83,6.91-.88,8.74,2.11l15.79,25.86,41.98-24.85c3.02-1.79,6.92-.79,8.71,2.23,1.79,3.02.79,6.92-2.23,8.71l-52.78,31.24Z"/><path class="cls-10" d="m623.15,178.88c-44.28,0-80.31-36.03-80.31-80.31s36.03-80.31,80.31-80.31,80.31,36.03,80.31,80.31-36.03,80.31-80.31,80.31Zm0-149.14c-37.96,0-68.84,30.88-68.84,68.84s30.88,68.84,68.84,68.84,68.84-30.88,68.84-68.84-30.88-68.84-68.84-68.84Z"/><path class="cls-10" d="m323.69,304.28l-24.76-40.53c-2.03-3.32-.98-7.66,2.34-9.69,3.32-2.03,7.66-.98,9.69,2.34l17.51,28.66,46.54-27.55c3.35-1.98,7.68-.88,9.66,2.48,1.98,3.35.87,7.68-2.48,9.66l-58.51,34.63Z"/><path class="cls-10" d="m340.31,366.76c-49.09,0-89.04-39.94-89.04-89.03s39.94-89.03,89.04-89.03,89.03,39.94,89.03,89.03-39.94,89.03-89.03,89.03Zm0-165.35c-42.08,0-76.32,34.23-76.32,76.32s34.23,76.32,76.32,76.32,76.32-34.24,76.32-76.32-34.24-76.32-76.32-76.32Z"/><path class="cls-10" d="m1681.97,137.61l-14.08-23.05c-1.16-1.89-.56-4.36,1.33-5.51,1.89-1.15,4.36-.56,5.51,1.33l9.96,16.3,26.46-15.66c1.91-1.13,4.37-.5,5.49,1.41,1.13,1.91.5,4.37-1.41,5.49l-33.27,19.69Z"/><path class="cls-10" d="m1691.42,173.15c-27.92,0-50.63-22.71-50.63-50.63s22.71-50.63,50.63-50.63,50.63,22.71,50.63,50.63-22.71,50.63-50.63,50.63Zm0-94.02c-23.93,0-43.39,19.47-43.39,43.39s19.47,43.39,43.39,43.39,43.4-19.47,43.4-43.39-19.47-43.39-43.4-43.39Z"/><rect class="cls-34" x="918.19" y="1213.41" width="139.64" height="424.12" transform="translate(1976.02 2850.95) rotate(180)"/><path class="cls-45" d="m501.77,471.92h1083.1c33.85,0,61.33,27.48,61.33,61.33v727.95c0,33.85-27.48,61.33-61.33,61.33H501.76c-33.85,0-61.33-27.48-61.33-61.33v-727.95c0-33.85,27.48-61.33,61.33-61.33Z" transform="translate(2086.63 1794.43) rotate(180)"/><rect class="cls-39" x="487.66" y="381.39" width="1111.31" height="807.83" transform="translate(2086.63 1570.61) rotate(180)"/><rect class="cls-35" x="487.66" y="381.39" width="1111.31" height="97.57" transform="translate(2086.63 860.34) rotate(180)"/><path class="cls-22" d="m1463.73,1250.21c0,21.48,20.47,38.89,45.73,38.89s45.73-17.41,45.73-38.89-20.48-38.89-45.73-38.89-45.73,17.41-45.73,38.89Z"/><rect class="cls-2" x="657.13" y="1633.43" width="628.2" height="32.01"/><rect class="cls-47" x="534.08" y="411.74" width="158.5" height="36.87" rx="13.25" ry="13.25"/><rect class="cls-48" x="569.08" y="818.92" width="581.84" height="20"/><rect class="cls-48" x="569.08" y="854.95" width="431.55" height="20"/><rect class="cls-48" x="569.08" y="933.22" width="273.63" height="20"/><rect class="cls-48" x="569.08" y="969.24" width="491.6" height="20"/><rect class="cls-48" x="569.08" y="1055.31" width="460.53" height="20"/><rect class="cls-48" x="569.08" y="1091.33" width="562.36" height="20"/><rect class="cls-10" x="540.69" y="818.92" width="14.62" height="56.02"/><rect class="cls-10" x="540.69" y="933.22" width="14.62" height="56.02"/><rect class="cls-10" x="540.69" y="1055.31" width="14.62" height="56.02"/><path class="cls-10" d="m1297.56,1056.41h46.6c9.25,0,16.77,7.51,16.77,16.77v46.6c0,9.26-7.51,16.77-16.77,16.77h-46.6c-9.26,0-16.77-7.51-16.77-16.77v-46.6c0-9.26,7.51-16.77,16.77-16.77Z"/><path class="cls-3" d="m1318.32,1114.13l-20.26-17.66c-1.66-1.45-1.83-3.97-.39-5.63,1.45-1.66,3.97-1.83,5.63-.39l14.33,12.49,20.43-22.79c1.47-1.64,3.99-1.78,5.63-.31,1.64,1.47,1.78,3.99.31,5.63l-25.68,28.65Z"/><path class="cls-10" d="m1342.7,1014.5h-43.69c-10.07,0-18.26-8.19-18.26-18.26v-43.69c0-10.07,8.19-18.27,18.26-18.27h43.69c10.07,0,18.26,8.19,18.26,18.27v43.69c0,10.07-8.19,18.26-18.26,18.26Zm-43.69-75.13c-7.27,0-13.17,5.91-13.17,13.18v43.69c0,7.27,5.91,13.18,13.17,13.18h43.69c7.27,0,13.17-5.91,13.17-13.18v-43.69c0-7.27-5.91-13.18-13.17-13.18h-43.69Z"/><path class="cls-10" d="m1463.36,1136.59h-43.69c-10.07,0-18.27-8.19-18.27-18.26v-43.69c0-10.07,8.19-18.26,18.27-18.26h43.69c10.07,0,18.26,8.19,18.26,18.26v43.69c0,10.07-8.19,18.26-18.26,18.26Zm-43.69-75.13c-7.27,0-13.18,5.91-13.18,13.18v43.69c0,7.27,5.91,13.18,13.18,13.18h43.69c7.27,0,13.17-5.91,13.17-13.18v-43.69c0-7.27-5.91-13.18-13.17-13.18h-43.69Z"/><path class="cls-35" d="m1418.22,934.32h46.6c9.26,0,16.77,7.51,16.77,16.77v46.6c0,9.26-7.51,16.77-16.77,16.77h-46.6c-9.26,0-16.77-7.51-16.77-16.77v-46.6c0-9.26,7.51-16.77,16.77-16.77Z"/><path class="cls-46" d="m1438.98,992.04l-20.26-17.66c-1.66-1.45-1.83-3.97-.39-5.63,1.45-1.66,3.97-1.83,5.63-.39l14.33,12.49,20.43-22.79c1.47-1.64,3.99-1.78,5.63-.31,1.64,1.47,1.78,3.99.31,5.63l-25.68,28.65Z"/><path class="cls-10" d="m1463.36,892.41h-43.69c-10.07,0-18.27-8.19-18.27-18.26v-43.69c0-10.07,8.19-18.27,18.27-18.27h43.69c10.07,0,18.26,8.19,18.26,18.27v43.69c0,10.07-8.19,18.26-18.26,18.26Zm-43.69-75.13c-7.27,0-13.18,5.91-13.18,13.18v43.69c0,7.27,5.91,13.18,13.18,13.18h43.69c7.27,0,13.17-5.91,13.17-13.18v-43.69c0-7.27-5.91-13.18-13.17-13.18h-43.69Z"/><path class="cls-35" d="m1297.56,812.23h46.6c9.25,0,16.77,7.51,16.77,16.77v46.6c0,9.25-7.51,16.77-16.77,16.77h-46.6c-9.26,0-16.77-7.51-16.77-16.77v-46.6c0-9.26,7.51-16.77,16.77-16.77Z"/><path class="cls-46" d="m1318.32,869.96l-20.26-17.66c-1.66-1.45-1.83-3.97-.39-5.63,1.45-1.66,3.97-1.83,5.63-.39l14.33,12.49,20.43-22.79c1.47-1.64,3.99-1.78,5.63-.31,1.64,1.47,1.78,3.99.31,5.64l-25.68,28.65Z"/><path class="cls-35" d="m358.78,922.18c-18.92-9.05-37.75,51.18-37.75,51.18-32.16,42.49-77.09-14.04-72.7,49.48,7.69,111.15-127.93,34.95-65.37,150.99,62.57,116.04-55.25,65.61-16.36,159.18,38.88,93.57-11.51,205.16,46.99,159.3,0,0,51.51-112.97,104.64-147.92,53.13-34.95-31.83-76.42-15.2-123.89,24.14-68.95,82.31-66.24,40.37-140.34-41.94-74.1,79.69-127.22,15.38-157.98Z"/><path class="cls-39" d="m195.07,1449.8c25.36-17.83,55.04-142.12,56.81-216.15.91-37.92,12.12-53.72,22.01-67.66,9.45-13.32,17.62-24.83,12.86-51.25-9.09-50.49,14.81-72.29,15.05-72.5l-2.77-3.15c-1.06.93-25.95,23.41-16.41,76.4,4.44,24.69-2.88,35.01-12.15,48.08-9.73,13.71-21.84,30.78-22.78,69.98-1.9,79.45-32.24,196.8-55.03,212.82l2.41,3.43Z"/><path class="cls-10" d="m141.91,1413.54c-2.39-5.43-4.87-11.04-7.67-16.96-14.49-30.58-27.32-35.62-48.58-43.96-5.2-2.04-11.08-4.35-17.55-7.25-30.46-13.69-24.56-33.86-19.36-51.65.73-2.49,1.45-4.97,2.08-7.43,2.68-10.47-2.47-15.72-10.26-23.67-5.79-5.91-13-13.26-18.55-24.87-6.08-12.71-2.98-19.52.69-23,7.73-7.32,25.54-5.97,42.36,3.21h0c5.23,2.85,9.53,7.36,14.08,12.12,10.72,11.23,24.07,25.2,57.82,25.36,19.25.09,29.79,2.75,35.25,8.88,6.2,6.96,5.03,17.38,3.41,31.81-.56,4.99-1.19,10.64-1.58,16.75-2.3,36.45,19.22,62.75,19.44,63,12.86,15.31,28.7,47.07,21.86,66.62-2.87,8.19-9.27,13.35-19.05,15.33-3.9.79-7.45,1.16-10.72,1.16-23.6,0-32.25-19.58-43.67-45.46Zm-78.84-191.9c-15.02-8.2-31.13-9.85-37.47-3.85-4.82,4.57-2.54,12.39.21,18.14,5.25,10.98,11.9,17.76,17.76,23.75,8.15,8.32,14.59,14.89,11.32,27.64-.64,2.5-1.38,5.03-2.12,7.56-5.18,17.72-10.07,34.46,17.05,46.65,6.37,2.86,12.21,5.15,17.36,7.18,21.46,8.42,35.64,13.99,50.84,46.07,2.83,5.97,5.32,11.61,7.72,17.06,13.12,29.73,21.04,47.68,49.72,41.88,8.22-1.66,13.58-5.9,15.92-12.6,6.02-17.23-8.39-47.39-21.12-62.54-.93-1.12-22.81-27.79-20.41-65.96.39-6.21,1.03-11.92,1.6-16.96,1.5-13.35,2.58-22.99-2.38-28.55-4.53-5.09-14.44-7.39-32.13-7.48-35.53-.17-49.56-14.86-60.83-26.66-4.51-4.72-8.4-8.8-13.06-11.34h0Z"/><path class="cls-1" d="m195.85,1483.22l4.19-.22c-.21-3.93-5.49-96.69-42.73-123.83-40.86-29.78-53.74-61.79-59.87-83.27-7.23-25.31-44.02-32.08-45.59-32.36l-.73,4.13c.36.06,35.78,6.59,42.28,29.38,6.31,22.08,19.53,54.96,61.44,85.51,35.64,25.98,40.96,119.72,41.01,120.66Z"/><path class="cls-10" d="m110.7,1015.78c26.47-9.08,20.97,41.94,32.16,79.69,11.18,37.75,124.43,16.47,76.89,110.99-47.53,94.52,60.12,31.61,27.96,114.1-32.16,82.49-2.8,170.7-37.75,148.27-34.95-22.44-19.64-126.31-55.99-138.65-36.35-12.34-42.28-26.74-6.29-60.29s-94.31-66.86-62.15-134.62c32.16-67.75-5.42-109,25.17-119.48Z"/><path class="cls-39" d="m193.75,1464.87c3.33-14.12,31.76-138.39,5.23-153.41-23.38-13.24-22.8-64.73-19.16-113.36,3.23-43.04-52.05-63.16-54.41-64l-1.4,3.95c.55.19,54.62,19.89,51.63,59.73-3.75,49.94-4.15,102.93,21.27,117.32,20.14,11.41,1.6,111.28-7.25,148.8l4.08.96Z"/><polygon class="cls-4" points="293.62 1420.62 255.82 1564 171.37 1564 133.57 1420.62 293.62 1420.62"/><path class="cls-37" d="m293.62,1420.62s-83.2,15.62-83.2,143.38h-39.05l-37.79-143.38h160.04Z"/><path class="cls-40" d="m955.5,1325.47s2.91,4.76,3.27,8.65c.29,3.08,2.88,7.68,4,10.22,1.12,2.54,4.73,14.04,4.86,17.04.05,1.22-2.68,8.94-2.29,11.4s1.8,7.36-.42,7.68c-2.22.33-4.73-3.68-4.73-3.68,0,0,.21,2.27-1.67,3.14-3.64,1.69-5.57.2-5.57.2,0,0-1.34,2.5-3.03,2.83-3.72.74-5.54-.75-5.54-.75,0,0-1.64,1.4-4.21,1.35-3.29-.06-4.67-2.91-4.67-2.91,0,0-4.17.84-5.37-1.1-1.21-1.94-1-4.02-1.5-5.78-.5-1.76-.12-17.66,5.28-29.12,5.4-11.45-1.38-22.62-1.38-22.62l22.97,3.43Z"/><path class="cls-28" d="m960.78,1375.29s.37-14.27-3.38-17.31c-3.75-3.04-4.18,2.11-4.18,2.11,0,0,.51-5.09-3.59-5.78-4.1-.69-4.28,5.36-4.28,5.36,0,0-.67-3.92-4.98-3.12-4.31.81-3.28,5.82-3.28,5.82,0,0-4.12-4.91-6.79-.19-4.51,7.96-.16,17.37-.16,17.37,0,0,1.27,2.16,5.37,1.1,0,0,2.74,5.53,8.88,1.55,0,0,6.29,3.46,8.58-2.08,0,0,6.93,3.29,7.83-4.83Z"/><path class="cls-15" d="m1003.91,1119.92s-24.43,81.41-32.68,111.45c-2.59,9.42-8.85,99.36-9.96,102.98-1.11,3.62-32.09,8.58-32.09,8.58,0,0,3.75-112.52,4.1-118.66.35-6.14,34.19-131.79,44.03-136.27,7.37-3.36,11.26-.58,20.55,6.32,13.04,9.68,6.04,25.6,6.04,25.6Z"/><rect class="cls-5" x="1238.03" y="987.17" width="66.82" height="4.96" transform="translate(-334.36 857.86) rotate(-33.2)"/><path class="cls-42" d="m1306.72,990.31s-.53,3.16-1.44,4.43c0,0-1.83,2.18-3.04,3.81-.38.52-.7.98-.88,1.3-.74,1.33-1.95,4.48-4.62,7.18-2.66,2.7-13.03,11.29-13.03,11.29l-8.89-7.54-9.23-4.14s5.17-22.46,7.36-25.26c.22-.27.44-.54.67-.76,2.08-2.19,4.56-2.95,5.78-3.98.45-.37,5.2-3.79,6.89-3.35,2.35.61,3.73,1.99,4.26,3.56,0,0,4.55,1.4,6.32,4.06,0,0,4.24,1.15,5.49,5.1,0,0,4.17,1.65,4.35,4.3Z"/><path class="cls-17" d="m984.09,1675.79s-2.23,15.46-2.5,17.78c-.28,2.32-24.77-1.37-24.77-1.37l-1.98-18.4s26.2-.19,29.26,1.99Z"/><path class="cls-6" d="m981.84,1691.61s7.76,9.31,15.26,13.37c7.51,4.06,19.3,5.67,23.74,9.87,3.2,3.03,11.67,16.09-19.5,15.83-31.17-.26-46.2,1.84-49.54-3.16-3.34-5.01,4.83-36.95,4.83-36.95,0,0,7.38,2.66,25.21,1.05Z"/><path class="cls-17" d="m1159.57,1675.79s-2.23,15.46-2.5,17.78c-.28,2.32-24.77-1.37-24.77-1.37l-1.98-18.4s26.2-.19,29.26,1.99Z"/><path class="cls-6" d="m1157.33,1691.61s7.76,9.31,15.27,13.37c7.5,4.06,35.12,7.39,39.56,11.6,3.2,3.03,8.53,15.24-35.33,14.1-31.16-.81-46.2,1.84-49.54-3.16-3.34-5.01,4.83-36.95,4.83-36.95,0,0,6.96,2.84,25.21,1.05Z"/><path class="cls-12" d="m1004.37,1278.66s-23.01,36.56-21.3,69.61c1.72,33.05-8.34,69.13-11.8,103.66-3.85,38.49-19.63,129.61-20.2,150.2-.57,20.59,2.45,86.33,2.45,86.33l31.57.72s26.52-159.3,33.38-175.56c6.87-16.25,40.92-132.13,42.07-145.14,1.14-13-56.18-89.83-56.18-89.83Z"/><path class="cls-12" d="m1125.51,1283.61s17.34,90.58,19.63,110.81c2.29,20.23,3.82,97.89,4.96,110.54,1.14,12.64,10.69,165.06,13.74,184.23h-40.36s-30.98-111.08-30.98-163.64-23.94-114.26-39.39-148.93c-15.45-34.68-50.82-35.5-60.32-99.83,0,0,119.87-13.58,132.73,6.83Z"/><path class="cls-40" d="m1042.77,971.26s30.89-11.54,45.13,11.98c14.24,23.51,12.87,70.59-2.7,76.37-15.57,5.79-38.96,2.76-46.93-11.95-7.97-14.71-15.17-35.98-14.82-50.2.35-14.21,11.21-22.1,19.32-26.2Z"/><path class="cls-40" d="m1081.85,1060.68s-1.29,8.34.84,12.45c2.12,4.11-40.02,4.21-40.02,4.21,0,0-3.42-22.35-9.91-41.23-6.49-18.88,49.09,24.56,49.09,24.56Z"/><path class="cls-31" d="m1032.76,1036.12s2.91,4.8,14.78,2.94c11.87-1.86,26.36-17.66,31.31-19.39,4.96-1.73,5-4.65,5-4.65l3.1,4.53,5.27.33s-4.8-14.13,2.44-19.89c7.24-5.76-7.52-45.74-45.6-32.43,0,0-29.25,8.06-28.18,24.69,1.06,16.63,5.32,35.58,11.87,43.86Z"/><path class="cls-24" d="m1085.19,1072.64s-.13-7.85-3.69-8.6c-3.56-.75-39.27-4.19-43.64-2.47v9.14s8.42,5.18,47.33,1.93Z"/><path class="cls-40" d="m1083.08,1008.97c-.67-2.79-7.76-10.76-10.48-2.22-2.72,8.54,4.1,20.02,7.91,19.03,3.8-.98,4.26-9.74,2.57-16.81Z"/><path class="cls-15" d="m1144.26,1084.52c-24.49-3.23-59.07-11.89-59.07-11.89l-47.33-1.93s-43.44,9.56-60.55,17.29c-1.62.73-1.63,38.75-6.08,48.72l14.18,29.92s8.19,59.27,9.89,85.64c.78,12.1-16.9,113.48-16.9,113.48,0,0,18.94,5.58,51.25,9.14,32.3,3.56,113.02-1.29,113.52-5.1.51-3.82-15.63-142.07-16.35-149.23-1.1-10.99,3.79-69.38,3.79-69.38,7.46-5.79,72.94-36.18,90.81-52.02,4.78-4.24,24.96-23.89,30.7-30.67,20.31-24.02,36.97-44.63,38.99-49.07,2.3-2.53-22.59-15.95-24.8-16.68-1.94-.65-28.87,35.1-39.44,46.55-4.71,5.1-24.3,19.35-24.3,19.35,0,0-42.99,16.76-58.31,15.88Z"/><path class="cls-31" d="m1033.97,974.03s-39.39,3.08-1.21,62.09l1.21-62.09Z"/><polygon class="cls-27" points="1300.75 973.43 1303.99 968.5 1298.04 969.27 1300.75 973.43"/><path class="cls-20" d="m512.21,1256.74s19.16,1.16,24.53,4.14c5.37,2.99,41.6-8.43,42.27-11.07.67-2.63,0-3.93,0-3.93h-71.12l4.32,10.86Z"/><path class="cls-20" d="m426.19,1172.24s-6.11,48.03,0,54.33c23.35,24.05,109.89,22.14,109.89,22.14l-.03,9.78s-131.54,16.41-143.77-9.11c-14.69-30.66-8.99-80.65-8.99-80.65l42.9,3.52Z"/><polygon class="cls-9" points="382.77 1678.4 390.59 1669.49 376.48 1654.74 364.57 1663.08 382.77 1678.4"/><path class="cls-19" d="m364.57,1663.08s16.1,12.13,20.58,12.62c4.48.49,6.59,2.48,6.06,9.31-.53,6.82,6.54,35.56,11.47,36.02,4.93.46,21.71.55,24.76,11.62,3.05,11.06-53.25,8.74-56.74-.33-3.49-9.07-27.72-53.06-24.85-56.6,2.87-3.54,10.46-11.49,18.72-12.62Z"/><path class="cls-38" d="m467.88,1319.3s105.18,183.23,62.49,221.14c-16.74,14.87-32.86,28.31-56.03,48.21-12.32,10.57-27.19,22.82-44.81,41.17l-.73.77c-12.57,13.1-22.95,24.18-26.14,27.6-.11.11-.21.22-.3.32l-.36.38-11.71,11.17-17.18-15.1s19.47-26.94,30.45-47.63c15.41-29.04,41.3-63.18,53.28-72.7,20.52-16.31,26.16-19.52,26.16-35.12,0-16.73-96.41-110.19-96.41-110.19,0,0-13.99-58.49,19.42-73.8,32.55-14.92,61.87,3.78,61.87,3.78Z"/><path class="cls-14" d="m387.66,1706.78s-.66-8.44.76-13.83c1.42-5.4-21.78-2.3-21.78-2.3,0,0-2.99,22.54-2.12,27.7.86,5.16,23.14-11.57,23.14-11.57Z"/><path class="cls-38" d="m392,1692.97l-31.29,5.64s-2.25-39.92-1.85-70.5c.44-32.87-1.22-58.72,8.82-84.89,9.39-24.47,7.26-33.8,8.08-50.51.83-16.71-8.02-102.75-8.02-102.75,0,0-10.69-38.52,14.05-65.7,24.1-26.48,86.46-.11,86.46-.11,0,0-12.99,117.54-44.18,190.25-8.83,20.58-4.06,33.08-15.31,64.87,0,0-17.1,69.34-16.76,113.7Z"/><path class="cls-41" d="m419.23,1091.75c-1.64,2.76-2.84,6.3-3.71,10.06-.83,3.54-1.37,7.28-1.72,10.73-.76,7.5-.63,13.67-.63,13.67,0,0-41.73-9.08-34.88-18.82,6.84-9.74,2.82-39.23,2.82-39.23,0,0,43.52,14.49,38.12,23.59Z"/><path class="cls-40" d="m442.71,1011.36s10.68,9.28,5.91,36.01c0,0,2.36,21.29,5.62,25,3.26,3.71-8.75,5.08-10.01,7.76-1.26,2.67-3.65,15.19-12.03,22.73-8.37,7.54-49.83-15.2-51.84-28.04-2.02-12.85-30.74-67.9,14.72-70.42,45.46-2.52,47.63,6.97,47.63,6.97Z"/><path class="cls-10" d="m471.31,1208.57c-.85,2.68,2.34,43.81,2.05,47.35-1.59,19.45,3.43,49.01,5.41,59.59.47,2.5.73,3.78.73,3.78-45.06,22.04-107.74,20.11-107.74,20.11.22-1.71,8.97-22.88,9.2-24.5,3.71-26.46,9.19-38.53,7.7-56.43h0c-.83-10.05-3.39-20.57-8.69-33.58-15.3-37.6-14.47-62.63-11.98-83.29,2.49-20.66,8.68-32.44,8.68-32.44l38.07,4.09c8.08,8.95,15.27,13.72,38.24,34.11,24.44,21.7,28.71,28.28,18.32,61.2Z"/><path class="cls-18" d="m363.12,1712.49s22.02-6.26,22.67-6.88c.65-.61.8-1.95,3.84-.73,3.04,1.22,4.29,5.82,7.28,7.28,2.98,1.46,21.15,6.77,31.11,11.67,3.6,1.77,18.82,7.58,21.02,12.42,2.19,4.85,1.51,12.13-24.65,10.41-26.16-1.73-54.77,1.96-60.5-.9-5.73-2.86-2.27-25.7-.77-33.27Z"/><path class="cls-8" d="m449.75,1037.76s5.11-55.5-48.7-45.59c-53.81,9.91-26.07,70.57-18.82,90.34,0,0-.88-30.71,25.03-31.71,25.91-1,31.26-7,42.5-13.04Z"/><path class="cls-41" d="m403.05,1043.01c-3.24-5.64-14.35-2.63-13.08,5.95,1.27,8.58,10.17,17.15,13.12,13,2.95-4.15,4.71-10.67-.04-18.95Z"/><path class="cls-41" d="m404.27,1152.05s-4.43,47.55,1.68,53.84c23.35,24.05,115.48,24.51,115.48,24.51l4.4,13.82s-136.95,9.32-149.17-16.19c-14.69-30.66-8.99-80.65-8.99-80.65l36.6,4.67Z"/><path class="cls-8" d="m384,1005.82s-20.72-19.88-35.46,2.64c-14.73,22.52,17.5,53.93,30.57,35.29,13.07-18.65,4.89-37.92,4.89-37.92Z"/><path class="cls-30" d="m415.52,1101.81c-.83,3.54-1.37,7.28-1.72,10.73-13.87-6.32-24.23-25.62-24.23-25.62,10.04,8.65,25.94,14.89,25.94,14.89h0Z"/><rect class="cls-35" x="483" y="1244.22" width="130.61" height="7.29"/><rect class="cls-35" x="574.47" y="1187.92" width="130.61" height="7.29" transform="translate(-712.24 1225.97) rotate(-63.23)"/><path class="cls-41" d="m502.2,1230.39s19.16-1.47,24.53-5.27c5.37-3.8,41.6,10.74,42.27,14.09.67,3.35,0,5.01,0,5.01h-71.12l4.32-13.82Z"/><polygon class="cls-10" points="376.69 1109.18 379.37 1101.89 415.93 1109.18 415.93 1115.65 376.69 1109.18"/><path class="cls-41" d="m404.22,1152.67s3.92-27.56-15.26-29.98c-19.19-2.42-21.29,24.78-21.29,24.78l36.55,5.2Z"/><path class="cls-7" d="m1654.13,1672.21s2.23,15.6,2.5,17.94c.28,2.34,24.77-1.38,24.77-1.38l1.98-18.57s-26.19-.19-29.25,2.01Z"/><path class="cls-11" d="m1656.37,1688.17s-7.76,9.4-15.26,13.5c-7.5,4.1-19.3,5.72-23.73,9.96-3.2,3.06-11.67,16.24,19.5,15.98,31.17-.27,46.19,1.86,49.53-3.19,3.34-5.05-4.83-37.3-4.83-37.3,0,0-7.38,2.68-25.2,1.06Z"/><path class="cls-7" d="m1478.67,1672.21s2.23,15.6,2.5,17.94c.28,2.34,24.77-1.38,24.77-1.38l1.98-18.57s-26.19-.19-29.25,2.01Z"/><path class="cls-11" d="m1480.91,1688.17s-7.76,9.4-15.26,13.5c-7.5,4.1-35.12,7.46-39.56,11.71-3.2,3.06-8.53,15.39,35.32,14.23,31.16-.82,46.19,1.86,49.53-3.19,3.34-5.05-4.83-37.3-4.83-37.3,0,0-6.95,2.86-25.2,1.06Z"/><path class="cls-36" d="m1645.43,1269.44s13.03,38.71,11.32,72.08c-1.72,33.36,6.74,69.87,10.2,104.72,3.85,38.85,19.62,130.83,20.2,151.61.57,20.78-2.45,87.15-2.45,87.15l-31.57.73s-26.51-160.8-33.38-177.21c-6.87-16.41-40.92-133.38-42.06-146.51-1.14-13.13,67.75-92.57,67.75-92.57Z"/><path class="cls-11" d="m1512.72,1276.33s-17.34,91.44-19.63,111.86c-2.29,20.42-3.81,98.82-4.96,111.58-1.14,12.76-7.63,167-13.73,185.96h40.36s30.98-112.13,30.98-165.18,23.93-115.33,39.38-150.33c15.45-35,50.81-35.83,60.31-100.77,0,0-119.85-13.71-132.71,6.89Z"/><path class="cls-40" d="m1594.74,963.83s-31.81-11.88-46.48,12.33c-14.67,24.21-13.25,72.69,2.78,78.66,16.04,5.96,40.12,2.84,48.33-12.31,8.21-15.15,15.62-37.06,15.26-51.7-.36-14.64-11.54-22.76-19.9-26.98Z"/><path class="cls-40" d="m1556.38,1053.33s1.29,8.34-.84,12.45,40.01,4.21,40.01,4.21c0,0,3.42-22.34,9.91-41.22,6.49-18.88-49.08,24.56-49.08,24.56Z"/><path class="cls-43" d="m1605.46,1028.77s-2.91,4.8-14.78,2.94c-11.87-1.86-26.35-17.66-31.31-19.39-4.96-1.73-5-4.65-5-4.65l-3.1,4.53-5.26.33s4.8-14.13-2.44-19.89c-7.24-5.76,7.52-45.73,45.59-32.42,0,0,29.24,8.06,28.18,24.69-1.06,16.63-5.32,35.57-11.86,43.86Z"/><path class="cls-24" d="m1553.04,1065.28s.13-7.85,3.69-8.6c3.56-.75,39.27-4.19,43.63-2.47v9.14s-8.41,5.18-47.32,1.93Z"/><path class="cls-40" d="m1555.15,1001.62c.67-2.79,7.76-10.76,10.47-2.22,2.72,8.53-4.1,20.01-7.91,19.03s-4.26-9.73-2.57-16.81Z"/><path class="cls-35" d="m1553.04,1065.28s-19.58,7.04-42.25,16.67c0,0-26.08,9.74-28.91,38.54-1.5,15.29-17.78,96.44-20.83,103.3-3.05,6.87-39.15,117.17-40.42,119.46-1.27,2.29,29.46,15.05,31.5,14.03,2.04-1.02,34.96-100.6,38.26-107.98,0,0,18.95-59.71,19.46-68.62,0,0,.54,25.37,1.56,32.49,1.02,7.12-16.85,145.39-16.34,149.2.51,3.81,81.21,8.66,113.51,5.1,32.3-3.56,58.36-10.99,58.36-10.99,0,0-25.41-109.12-24.63-121.22,1.7-26.36,10.51-76.01,10.51-76.01l26.33,49.65-33.71,86.72,7.72,26.36s62.64-94.66,64.67-103.3c2.03-8.65-3.07-19.66-6.38-26.78-3.31-7.12-25.02-61.32-30.11-68.95-5.09-7.63-13.68-38.18-34.46-46.69-17.37-7.11-46.52-12.93-46.52-12.93l-47.32,1.93Z"/><rect class="cls-26" x="1373.21" y="1269.72" width="152.34" height="106.28" transform="translate(374 -318.55) rotate(14.38)"/><path class="cls-25" d="m1407.78,1365.77s-4.22,6.81-5.76,8.76c-1.54,1.94,3.79,3.16,6.07,1.2,2.28-1.97-.31-9.95-.31-9.95Z"/><path class="cls-21" d="m1438.51,1389.05s2.49-2.6,3.03-4.26c0,0,.74-3.11,1.4-5.29.21-.69.41-1.29.58-1.66.71-1.55,2.72-4.75,3.37-8.96.65-4.21,2.49-23.09,2.49-23.09l-11.43-2.88-9.18-1.94s-19.84,19.79-20.9,23.64c-.1.38-.19.75-.24,1.11-.58,3.35.39,6.08.29,7.87-.03.66.06,7.22,1.59,8.45,2.12,1.71,4.28,2.03,6.06,1.46,0,0,4.3,3.16,7.89,2.97,0,0,3.87,3.04,8.27,1.54,0,0,4.28,2.65,6.78,1.04Z"/><path class="cls-35" d="m1483.13,1269.65s-26.19,79.32-31,87.64c0,0-19.21-4.04-31.5-14.03l28.76-85.6,33.74,11.99Z"/><path class="cls-13" d="m2042.88,1364.35s-1.06-18.27-5.9-21.1c-4.84-2.84-2.04,2.82-2.04,2.82,0,0,2.72,13.26,3.32,18.63.03.26,4.62-.34,4.62-.34Z"/><path class="cls-16" d="m1914.16,980.21s45.42-3.78,44.18,44c-1.24,47.78-8.82,54.97.03,88.73,8.84,33.76-44.28-19.17-44.28-19.17l.08-113.56Z"/><path class="cls-41" d="m1875.96,1109.31s-64.34,40.14-69.78,35.87c-7.61-5.97-28.28-56.9-28.28-56.9l-16.19,7.71s19.31,88.06,45.33,81.58c26.02-6.48,85.75-43.42,85.75-43.42l-16.82-24.84Z"/><path class="cls-41" d="m1963.65,1275.45s16.72,21.32,22.63,35.42c5.9,14.1,15.74,45.01,14.43,68.95-1.31,23.94-9.18,68.87-6.89,79.04,2.3,10.17,4.59,31.15,7.05,38.37,2.46,7.21,12.3,28.2,13.28,49.85.98,21.64-13.77,116.75-13.12,125.6.66,8.85-16.73,3.61-16.73,3.61,0,0-5.9-85.92-9.18-100.68-3.28-14.76-7.21-64.93-10.17-68.54-2.95-3.61-11.02-40.99-9.77-46.9,1.25-5.9-32.2-94.45-34.17-112.16-1.97-17.71-51.29-72.56-51.29-72.56,0,0,43.09-16.48,93.92,0Z"/><path class="cls-41" d="m1883.83,1275.45s-.85,8.94-1.84,12.22c-.98,3.28-23.61,86.91-25.91,119.04-2.29,32.14-8.2,59.4-9.18,66.27-.98,6.87.98,29.82,2.95,35.73,1.97,5.9-9.84,145.28-10.82,148.56-.98,3.28,7.87,4.26,14.1,3.28,6.23-.98,37.71-102.32,35.75-119.37-1.97-17.05-3.94-53.41,1.64-68.19,5.58-14.78,55.75-121.69,56.08-128.25.33-6.56,21.71-119.54-62.77-69.28Z"/><path class="cls-41" d="m1984.62,1665.83s-1.62,11.32-3.38,14.41c-1.76,3.09-6.62,18.82-8.82,21.76-2.21,2.94-7.06,25,0,27.64,7.06,2.65,23.67,7.06,29.26-1.76,5.59-8.82,6.32-17.64,5.44-24.41-.88-6.76-7.59-37.8-7.5-40.88.09-3.07-15,3.23-15,3.23Z"/><path class="cls-2" d="m1975.23,1695.89s-.76,17.14,12.18,17.14,18.67-15.59,18.67-15.59c0,0,4.41,7.65,0,23.98-4.41,16.32-22.79,12.94-26.91,12.35-4.12-.59-23.63-5.75-3.95-37.87Z"/><path class="cls-2" d="m1840.43,1650.44s-9.15,16.36-14.58,19.67c-6.77,4.13-19.91,17.38-24.5,18-4.59.61-21.08,3.54-17.9,12.85,2.61,7.63,41.95,6.54,46.39,2.71,4.44-3.83,17.71-17.55,23.06-17.25,5.35.31,3.37,19.8,3.37,19.8h5.81s2.03-18.97,2.28-22.23c.73-9.65-6.16-16.75-6.46-22.26-.31-5.51-.62-9.62-.62-9.62l-16.85-1.68Z"/><path class="cls-41" d="m1802.67,1687.66s12.97,4.48,22.95-1.25c9.98-5.74,29.14-14.45,35.91-14.51,0,0-3.69-11.3-3.77-12.56-.08-1.26-.48-7.21-.48-7.21l-16.75-2.68s-10.86,15.95-15.65,19.7c-4.79,3.75-17.05,13.12-22.21,18.52Z"/><path class="cls-4" d="m1869.45,1273.98s-4.67,19.43-6.4,25.09-12.77,93.42-15.5,148.31c0,0,66.16,25.09,157.17,20.91,0,0,2.21-100.84-6.15-129.37-8.36-28.53-23.5-55.23-34.93-63.46-10.17-7.32-94.2-1.48-94.2-1.48Z"/><path class="cls-41" d="m2020.49,1323.22s-1.35,8.19-3.83,16.09c-2.48,7.9-4.77,10.41-3.77,14.94.75,3.42,4.62,5.98,5.59,4.88.97-1.1,1.45-14.37,6.95-14.31,5.5.06-1.64,16.44,1.63,15.24,3.28-1.2,15.88-8.11,15.09-14.8-.79-6.69-5.84-11.53-5.51-21.53.29-9.07-2.53-12.86-2.53-12.86l-13.61,12.35Z"/><path class="cls-40" d="m1757.34,1092.07s7.68,9.98,12.41,11.03c4.73,1.06,9.88-10.22,9.88-10.22l-2.8-10.14-19.5,9.33Z"/><path class="cls-40" d="m1776.29,1088.74s3.68-11.51,4.18-13.29c.51-1.78-1.29-6.98-4.56-11.95-3.17-4.82-7.16-10.13-8.56-11.52-.73-.72-1.13-1.54-3.52-.46-2.4,1.08-3.83,3.31-3.83,3.31,0,0-3.58-.06-5.14,2.83,0,0-3.37.1-4.6,3.66,0,0-3.29.19-3.96,2.85,0,0,1.59,4.92,1.65,6.9.06,1.99,4.06,11.98,9.37,20.98,0,0,7.9,6.8,18.96-3.34Z"/><path class="cls-32" d="m1767.86,1073.79s-3.96,4.6-4.42,6.45c-.46,1.85-12.02-5.04-12.02-5.04,0,0,10.72-6.08,16.44-1.41Z"/><path class="cls-28" d="m1767.97,1053.16s6.4,13.56,4.25,14.73c-2.14,1.17-3.64.3-3.64.3l-.34,6.8s-2.76,4.37-6.72.09c0,0-2.16,4.35-5.49-.24,0,0-2.7,2.24-4.62.38-1.92-1.86-5.1-11.01-5.1-11.01,0,0,.2-2.24,3.96-2.85,0,0,.98-3.48,4.6-3.66,0,0,2.05-3.57,5.97-3.73,0,0,2.24-3.2,6.52-1.95,0,0,.38.57.61,1.17Z"/><path class="cls-40" d="m1780.35,1074.99s-7.76-6.82-13.63-8.68c-1.33-.42-2.69-.59-3.58.49-.89,1.08-.47,3.73,2.74,6.86,3.21,3.13,5.93,8.64,5.93,8.64,0,0,4.24,2.25,8.54-7.3Z"/><path class="cls-40" d="m1760.85,1053.94s7.92,14.09,7.83,15.74c-.09,1.65,5.19-1.16,5.17-2.58-.02-1.42-5.74-13.96-6.48-15.12-.74-1.16-5.1-2-6.52,1.95Z"/><path class="cls-40" d="m1768.99,1054.7s-12.62-23.55-14.48-22.69c-2.7,1.25-1.98,7.77,8.67,25.35,10.35,17.09,5.81-2.66,5.81-2.66Z"/><path class="cls-35" d="m1872.5,1158.12l-25.98-34.47s46.44-35.97,60.78-13.1c0,0,1.02,37.68-34.79,47.57Z"/><path class="cls-35" d="m1856.9,1156.9c.74,11.56,6.64,21.15,7.62,25.33.98,4.18,0,13.77,1.23,23.37s4.92,55.34,3.69,68.38c-1.23,13.04,89.48,7.15,96.36,3.21,0,0-15.28-27.32-15.69-38.63-.14-3.89-2.46-15.99,3.94-24.84,3.38-4.67,9.63-19.55,15.89-30.43,0,0-1.16-2.26,0,0,2.42-4.22,4.96-8.43,6.73-11.56h0c2.31-4.09,3.6-8.93,3.6-8.93,0,0,4.04-50.18-7.03-55.84-11.07-5.66-16.97-6.64-27.79-7.13-10.82-.49-17.96-2.71-17.96-2.71l-25.33,2.71s-16.23,5.66-22.63,6.15c-6.39.49-14.51,14.27-13.77,23.12.74,8.86-9.59,16.23-8.85,27.79Z"/><path class="cls-13" d="m2024.88,1344.26s-7.33,1.87-6.89,26.65l8.3-1.38s-.15-13.7,2.33-21.16c0,0-.42-4.85-3.73-4.11Z"/><polygon class="cls-13" points="1994.47 1376.5 2059.07 1358.18 2058.88 1437.74 1994.59 1476.27 1994.47 1376.5"/><polygon class="cls-13" points="1994.59 1476.27 2002.68 1477.76 2065.21 1438.88 2064.44 1358.54 2059.07 1358.18 1994.59 1476.27"/><path class="cls-40" d="m1962.47,1102.37s20.12-.07,29.22,17.64c9.1,17.71,10.08,36.4,12.3,43.04,2.21,6.64,8,45.71,10.21,51.37,2.21,5.66,15.37,44.06,18.56,65.71,3.2,21.64,3.87,43.6,3.87,43.6l-16.14-.51s-16.02-58.89-21.54-72.91c-4.72-11.98-6.53-32.91-9.23-40.29-2.71-7.38-19.43-59.28-22.87-62.97-3.44-3.69-21.54-41.42-4.38-44.69Z"/><path class="cls-35" d="m1969.06,1174.13l41-12.91s-12.57-60.47-47.58-58.85c-28.1,1.3,6.59,71.77,6.59,71.77Z"/><path class="cls-40" d="m1918.6,985.05c-11.26-1.84-37.02.98-44.32,30.54,0,0-.02,8.19,1.22,14.77,1.24,6.58-6.6,24.66-5.22,25.76,1.38,1.09,7.38,2.98,7.38,2.98,0,0,4.26,21.22,11.47,21.87,7.21.65,35.05-1.86,50.78-25.86s24.15-62.62-21.31-70.06Z"/><path class="cls-40" d="m1899.91,1072.74s.56,2.97,1.07,7.34c.27,2.23.52,4.83.68,7.58.45,7.62.22,16.43-2.38,22.03,0,0,14.11,8.74,29.23-12.28,0,0-1.47-26.23,7.21-40.1,8.68-13.86-35.81,15.42-35.81,15.42Z"/><path class="cls-16" d="m1874.29,1015.59s16.94,14.63,34.89,19.25c17.95,4.62,27.45,24.78,27.45,24.78,0,0,31.75-31.67,12.59-62.41-19.16-30.74-74.9-17.03-74.93,18.39Z"/><path class="cls-30" d="m1900.98,1080.08c.27,2.23.52,4.83.68,7.58,15.83-7.68,24.55-18.21,24.55-18.21-9.31,6.66-25.24,10.62-25.24,10.62Z"/><path class="cls-16" d="m1912.48,1035.89s18.36,49.36,16.16,61.25c0,0,9.71-1.67,27.02,3.62,0,0-8.37-88.07-43.18-64.86Z"/><path class="cls-40" d="m1934.77,1098.72s-6.05,37.02-28.43,32.84c-22.38-4.18-5.41-31.31-5.41-31.31,0,0,8.74-7.85,33.83-1.53Z"/><path class="cls-44" d="m1498.01,638.46c0,28.93-10.4,55.42-27.67,75.96-21.62,25.69-54.03,42.11-90.4,42.11s-71.59-17.58-93.44-45.88c-15.45-19.96-24.64-45-24.64-72.19,0-65.21,52.87-118.08,118.08-118.08s118.07,52.86,118.07,118.08Z"/><path class="cls-10" d="m1464.38,701.76c-.43-.43-1.41-.79-1.98-1.16-.04-.03-.07-.05-.11-.07h0c-5.18-2.85-20.37-10.4-50.33-19,0,0-.02,0-.02,0-5.43-1.66-9.54-2.74-10.96-3.1l-2.54-4.04c-.41-4.07-.33-10.15-.2-14.21,4.22-4.9,8.02-12.55,10.17-24.48.68.51,1.21-.61,1.21-.61-.38-.67,5.7-15.51,4.6-18.85-.62-1.9-1.88-1.66-2.87-1.11.15-.87.3-1.76.45-2.72,0,0,2.41-22.74-9.11-35.42-1.19-1.14-5.43-1.43-5.43-1.43-18.49-5.66-29.58-3.13-36.53-.16-10.29,8.43-11.08,22.79-10.61,30.69.21,1.87.42,3.75.63,5.59,0,.04,0,.06,0,.06.09.73.17,1.44.26,2.15-.96-.6-2.22-.9-2.92.98-1.23,3.3,3.26,18.11,3.83,19.03,0,0,.97,1.52,1.73.83,0,0,0-.03.01-.03,2.12,13.01,5.95,21.05,9.97,25.99-.29,5.28-1.05,11.49-1.59,15.46l-4.57,4.77h0s0,0,0,0c-.24.08-.48.16-.73.24v-.03c-51.68,13.79-66.29,23.39-66.29,23.39-1.3.8-2.63,2.94-3.96,6.12,21.57,27.95,55.52,45.88,93.44,45.88s68.83-16.47,90.4-42.11c-2.23-5.43-3.83-10.53-5.95-12.65Z"/><rect class="cls-23" x="548.33" y="545.41" width="2.11" height="199.53"/><rect class="cls-23" x="698.68" y="545.41" width="2.11" height="199.53"/><rect class="cls-23" x="849.02" y="545.41" width="2.11" height="199.53"/><rect class="cls-23" x="999.36" y="545.41" width="2.11" height="199.53"/><rect class="cls-23" x="1149.71" y="545.41" width="2.11" height="199.53"/><rect class="cls-33" x="549.39" y="756.76" width="23.92" height="6.93"/><rect class="cls-29" x="549.39" y="520.82" width="36.01" height="5.2"/><rect class="cls-29" x="549.39" y="530.44" width="51.08" height="5.2"/><rect class="cls-29" x="698.11" y="520.82" width="42.28" height="5.2"/><rect class="cls-29" x="698.11" y="530.44" width="27.03" height="5.2"/><rect class="cls-29" x="851.13" y="520.82" width="26.2" height="5.2"/><rect class="cls-29" x="851.13" y="530.44" width="30.54" height="5.2"/><rect class="cls-29" x="1001.48" y="520.82" width="38.16" height="5.2"/><rect class="cls-29" x="1001.48" y="530.44" width="30.54" height="5.2"/><rect class="cls-29" x="1150.77" y="520.82" width="22.79" height="5.2"/><rect class="cls-29" x="1150.77" y="530.44" width="18.24" height="5.2"/><rect class="cls-33" x="699.73" y="756.76" width="23.92" height="6.93"/><rect class="cls-33" x="851.13" y="756.76" width="23.92" height="6.93"/><rect class="cls-33" x="1001.48" y="756.76" width="23.92" height="6.93"/><rect class="cls-33" x="1151.82" y="756.76" width="23.92" height="6.93"/><path class="cls-35" d="m1098.67,685.65c-46.89,0-87.66-18.23-130.15-37.24-52.46-23.46-106.71-47.73-178.99-41.08-46.16,4.24-75.13,21.15-100.69,36.06-23.14,13.51-45.02,25.38-74.66,26.4-47.89,1.64-64.51-16.73-64.78-17.85v-11.79h0c.06.2,10.52,20.82,64.73,20.58,26.7-.12,46.41-11.62,69.22-24.94,26.52-15.47,56.57-33.01,105.15-37.48,75.18-6.91,130.76,17.95,184.5,41.99,56.24,25.15,109.91,48.74,177.77,28.28v9.69c-19.34,5.83-34.81,7.38-52.1,7.39Z"/><path class="cls-10" d="m817.19,683.39c-34.61,0-62.07-20.94-88.94-41.43-20.38-15.54-41.52-31.43-65.93-39.27-74.48-23.92-112.59,19.76-112.93,20.14v-13.29c.4-.45,7.2-8.39,26.86-15.97,17.9-6.9,47.94-12.41,89.38.56,26.25,8.21,48.05,24.84,69.13,40.91,42.77,32.61,79.7,60.78,143.85,16.66,48.58-33.41,94.38-65.26,139.44-76.89,44.07-11.38,90.02-3.05,133.03,35.64l-.32,12.07c-91.36-82.54-169.16-30.24-266.04,36.39-25.66,17.65-47.77,24.48-67.54,24.48Z"/></svg>