<?xml version="1.0" encoding="UTF-8"?><svg xmlns="http://www.w3.org/2000/svg" xmlns:xlink="http://www.w3.org/1999/xlink" viewBox="0 0 561.88 380.05"><defs><style>.cls-1{stroke:#232230;stroke-linejoin:round;}.cls-1,.cls-2{stroke-linecap:round;}.cls-1,.cls-2,.cls-3{fill:none;}.cls-4,.cls-5,.cls-6,.cls-7,.cls-8,.cls-9,.cls-10,.cls-11,.cls-12,.cls-13,.cls-14,.cls-15,.cls-16,.cls-17,.cls-18,.cls-19,.cls-20,.cls-21,.cls-22,.cls-23,.cls-24,.cls-25,.cls-26,.cls-27,.cls-28,.cls-29,.cls-30,.cls-31,.cls-32,.cls-33,.cls-34,.cls-35,.cls-36,.cls-37,.cls-38,.cls-39,.cls-40,.cls-41,.cls-42,.cls-43,.cls-44,.cls-45,.cls-46,.cls-47,.cls-48,.cls-49,.cls-50,.cls-51,.cls-52{stroke-width:0px;}.cls-4,.cls-5,.cls-6,.cls-7,.cls-28,.cls-52{mix-blend-mode:multiply;}.cls-4,.cls-38{fill:#37688c;}.cls-5{fill:url(#linear-gradient-15);}.cls-6{fill:url(#linear-gradient-17);}.cls-7{fill:url(#linear-gradient-16);}.cls-8{fill:url(#linear-gradient);}.cls-9{fill:url(#linear-gradient-11);}.cls-10{fill:url(#linear-gradient-12);}.cls-11{fill:url(#linear-gradient-10);}.cls-12{fill:url(#linear-gradient-19);}.cls-13{fill:url(#linear-gradient-23);}.cls-14{fill:url(#linear-gradient-21);}.cls-15{fill:url(#linear-gradient-18);}.cls-16{fill:url(#linear-gradient-14);}.cls-17{fill:url(#linear-gradient-22);}.cls-18{fill:url(#linear-gradient-20);}.cls-19{fill:url(#linear-gradient-24);}.cls-2,.cls-3{stroke:#fff;stroke-miterlimit:10;}.cls-53,.cls-28,.cls-52{opacity:.5;}.cls-20{fill:url(#linear-gradient-4);}.cls-21{fill:url(#linear-gradient-2);}.cls-22{fill:url(#linear-gradient-3);}.cls-23{fill:url(#linear-gradient-8);}.cls-24{fill:url(#linear-gradient-9);}.cls-25{fill:url(#linear-gradient-7);}.cls-26{fill:url(#linear-gradient-6);}.cls-54{isolation:isolate;}.cls-28{fill:url(#linear-gradient-5);}.cls-29{fill:#606060;}.cls-30{fill:#565656;}.cls-31{fill:#53a2ce;}.cls-32{fill:#a1bcc9;}.cls-33{fill:#569cb7;}.cls-34{fill:#3f3f3f;}.cls-35{fill:#0a0a0a;}.cls-36{fill:#0881b7;}.cls-37{fill:#192139;}.cls-39{fill:#09085f;}.cls-40{fill:#070707;}.cls-41{fill:#dfe3e5;}.cls-42{fill:#dee2f9;}.cls-43{fill:#8c8c8c;}.cls-44{fill:#7c7c7c;}.cls-45{fill:#ff928a;}.cls-46{fill:#ff8189;}.cls-47{fill:#7f7f7f;}.cls-48{fill:#fff;}.cls-49{fill:#ef9795;}.cls-50{fill:#ffa49a;}.cls-51{fill:#007aa0;}.cls-52{fill:url(#linear-gradient-13);}</style><linearGradient id="linear-gradient" x1="544.27" y1="-16254.93" x2="544.27" y2="-16636.29" gradientTransform="translate(0 -16015.03) scale(1 -1)" gradientUnits="userSpaceOnUse"><stop offset="0" stop-color="#dfedf2"/><stop offset="1" stop-color="#e8f8ff"/></linearGradient><linearGradient id="linear-gradient-2" x1="462.55" y1="-16097.11" x2="485.01" y2="-16073.14" xlink:href="#linear-gradient"/><linearGradient id="linear-gradient-3" x1="508.72" y1="-16369.99" x2="523.47" y2="-16354.24" xlink:href="#linear-gradient"/><linearGradient id="linear-gradient-4" x1="36.28" y1="192.53" x2="90.74" y2="246.99" gradientUnits="userSpaceOnUse"><stop offset="0" stop-color="#71d2f9"/><stop offset="1" stop-color="#51b9f8"/></linearGradient><linearGradient id="linear-gradient-5" x1="419.53" y1="258.73" x2="428.66" y2="258.73" gradientUnits="userSpaceOnUse"><stop offset="0" stop-color="#49a5f7"/><stop offset="1" stop-color="#1c6ceb"/></linearGradient><linearGradient id="linear-gradient-6" x1="253.78" y1="133.17" x2="220.21" y2="150.19" gradientTransform="matrix(1,0,0,1,0,0)" xlink:href="#linear-gradient"/><linearGradient id="linear-gradient-7" x1="284.83" y1="123.38" x2="284.83" y2="130.47" gradientTransform="matrix(1,0,0,1,0,0)" xlink:href="#linear-gradient"/><linearGradient id="linear-gradient-8" x1="285.25" y1="128" x2="285.25" y2="135.08" gradientTransform="matrix(1,0,0,1,0,0)" xlink:href="#linear-gradient"/><linearGradient id="linear-gradient-9" x1="285.67" y1="132.61" x2="285.67" y2="139.7" gradientTransform="matrix(1,0,0,1,0,0)" xlink:href="#linear-gradient"/><linearGradient id="linear-gradient-10" x1="286.08" y1="137.23" x2="286.08" y2="144.32" gradientTransform="matrix(1,0,0,1,0,0)" xlink:href="#linear-gradient"/><linearGradient id="linear-gradient-11" x1="286.49" y1="141.84" x2="286.49" y2="148.93" gradientTransform="matrix(1,0,0,1,0,0)" xlink:href="#linear-gradient"/><linearGradient id="linear-gradient-12" x1="286.91" y1="146.45" x2="286.91" y2="153.54" gradientTransform="matrix(1,0,0,1,0,0)" xlink:href="#linear-gradient"/><linearGradient id="linear-gradient-13" x1="237.73" y1="246.99" x2="248.64" y2="246.99" gradientUnits="userSpaceOnUse"><stop offset="0" stop-color="#283770"/><stop offset="1" stop-color="#141a5a"/></linearGradient><linearGradient id="linear-gradient-14" x1="445.7" y1="179.55" x2="499.08" y2="214.8" xlink:href="#linear-gradient-4"/><linearGradient id="linear-gradient-15" x1="-23.39" y1="203.8" x2="-23.39" y2="212.9" gradientTransform="translate(90.19) rotate(-180) scale(1 -1)" gradientUnits="userSpaceOnUse"><stop offset="0" stop-color="#6ec4f7"/><stop offset="1" stop-color="#398ef6"/></linearGradient><linearGradient id="linear-gradient-16" x1="431.29" y1="178.2" x2="442.11" y2="186" gradientTransform="translate(-335.43)" gradientUnits="userSpaceOnUse"><stop offset="0" stop-color="#f4cfb3"/><stop offset="1" stop-color="#f2bb9b"/></linearGradient><linearGradient id="linear-gradient-17" x1="7.06" y1="199.88" x2="7.06" y2="235.59" xlink:href="#linear-gradient-15"/><linearGradient id="linear-gradient-18" x1="173.27" y1="107.82" x2="138.27" y2="47.95" gradientUnits="userSpaceOnUse"><stop offset="0" stop-color="#b6dff6"/><stop offset="1" stop-color="#ddeaf7"/></linearGradient><linearGradient id="linear-gradient-19" x1="173.46" y1="107.71" x2="138.46" y2="47.83" xlink:href="#linear-gradient-18"/><linearGradient id="linear-gradient-20" x1="174.68" y1="106.99" x2="139.68" y2="47.12" xlink:href="#linear-gradient-18"/><linearGradient id="linear-gradient-21" x1="183.96" y1="101.57" x2="148.96" y2="41.7" xlink:href="#linear-gradient-18"/><linearGradient id="linear-gradient-22" x1="191.26" y1="97.3" x2="156.26" y2="37.43" xlink:href="#linear-gradient-18"/><linearGradient id="linear-gradient-23" x1="162.58" y1="114.07" x2="127.58" y2="54.2" xlink:href="#linear-gradient-18"/><linearGradient id="linear-gradient-24" x1="155.27" y1="118.34" x2="120.27" y2="58.47" xlink:href="#linear-gradient-18"/></defs><g class="cls-54"><g id="OBJECTS"><path class="cls-32" d="m259.65,5.4C119.06,5.4,5.08,119.38,5.08,259.97c0,41.35,9.86,80.41,27.36,114.93h454.42c17.5-34.52,27.36-73.58,27.36-114.93,0-140.59-113.98-254.57-254.57-254.57Z"/><circle class="cls-31" cx="88.27" cy="25.3" r="19.11" transform="translate(7.96 69.82) rotate(-45)"/><circle class="cls-38" cx="449.49" cy="50.66" r="4"/><circle class="cls-48" cx="389.84" cy="67.94" r="4"/><circle class="cls-8" cx="544.27" cy="308.19" r="11.2"/><circle class="cls-31" cx="501.13" cy="178.82" r="30.42" transform="translate(20.33 406.73) rotate(-45)"/><path class="cls-38" d="m37.9,349.28c0,8.24-6.68,14.93-14.93,14.93s-14.93-6.68-14.93-14.93,6.68-14.93,14.93-14.93,14.93,6.68,14.93,14.93Z"/><circle class="cls-44" cx="484.37" cy="351.17" r="22.59" transform="translate(-79.59 151.46) rotate(-16.44)"/><line class="cls-2" x1="-5.44" y1="114.24" x2="91.56" y2="114.24"/><line class="cls-2" x1="474" y1="273.62" x2="571" y2="273.62"/><line class="cls-2" x1="311.35" y1="39.82" x2="408.35" y2="39.82"/><path class="cls-48" d="m46.1,310.33h-3.71v-3.71c0-.54-.44-.98-.98-.98s-.98.44-.98.98v3.71h-3.71c-.54,0-.98.44-.98.98s.44.98.98.98h3.71v3.71c0,.54.44.98.98.98s.98-.44.98-.98v-3.71h3.71c.54,0,.98-.44.98-.98s-.44-.98-.98-.98Z"/><path class="cls-21" d="m477.79,71.95h-5.64v-5.64c0-.82-.67-1.49-1.49-1.49s-1.49.67-1.49,1.49v5.64h-5.64c-.82,0-1.49.67-1.49,1.49s.67,1.49,1.49,1.49h5.64v5.64c0,.82.67,1.49,1.49,1.49s1.49-.67,1.49-1.49v-5.64h5.64c.82,0,1.49-.67,1.49-1.49s-.67-1.49-1.49-1.49Z"/><path class="cls-22" d="m518.72,348.3h-3.71v-3.71c0-.54-.44-.98-.98-.98s-.98.44-.98.98v3.71h-3.71c-.54,0-.98.44-.98.98s.44.98.98.98h3.71v3.71c0,.54.44.98.98.98s.98-.44.98-.98v-3.71h3.71c.54,0,.98-.44.98-.98s-.44-.98-.98-.98Z"/><rect class="cls-48" x="278.03" y="36.31" width="7.03" height="7.03" rx=".66" ry=".66"/><rect class="cls-48" x="287.43" y="36.31" width="7.03" height="7.03" rx=".66" ry=".66"/><rect class="cls-48" x="296.83" y="36.31" width="7.03" height="7.03" rx=".66" ry=".66"/><rect class="cls-48" x="120.52" y="295.66" width="7.03" height="7.03" rx=".66" ry=".66"/><rect class="cls-48" x="129.91" y="295.66" width="7.03" height="7.03" rx=".66" ry=".66"/><rect class="cls-48" x="139.31" y="295.66" width="7.03" height="7.03" rx=".66" ry=".66"/><rect class="cls-48" x="316.41" y="348.91" width="4.52" height="4.52" rx=".43" ry=".43"/><rect class="cls-48" x="322.46" y="348.91" width="4.52" height="4.52" rx=".43" ry=".43"/><rect class="cls-48" x="328.51" y="348.91" width="4.52" height="4.52" rx=".43" ry=".43"/><path class="cls-48" d="m113.63,220.78v-8.43c0-.83-.67-1.49-1.49-1.49h-2.17c-.64,0-1.2-.43-1.34-1.05-.75-3.28-2.03-6.35-3.76-9.12-.34-.55-.28-1.27.18-1.73l1.53-1.53c.58-.58.58-1.53,0-2.11l-5.96-5.96c-.58-.58-1.53-.58-2.11,0l-1.52,1.52c-.46.46-1.17.53-1.73.18-2.77-1.73-5.84-3.01-9.12-3.76-.62-.14-1.05-.7-1.05-1.34v-2.16c0-.83-.67-1.49-1.49-1.49h-8.43c-.83,0-1.49.67-1.49,1.49v2.16c0,.64-.43,1.2-1.05,1.34-3.28.75-6.35,2.03-9.12,3.76-.55.34-1.27.28-1.73-.18l-1.52-1.52c-.58-.58-1.53-.58-2.11,0l-5.96,5.96c-.58.58-.58,1.53,0,2.11l1.53,1.52c.46.46.53,1.17.18,1.73-1.73,2.77-3.01,5.85-3.76,9.12-.14.62-.7,1.05-1.34,1.05h-2.17c-.83,0-1.49.67-1.49,1.49v8.43c0,.83.67,1.49,1.49,1.49h2.17c.64,0,1.2.43,1.34,1.05.75,3.28,2.03,6.35,3.76,9.12.34.55.28,1.27-.18,1.73l-1.53,1.53c-.58.58-.58,1.53,0,2.11l5.96,5.96c.58.58,1.53.58,2.11,0l1.53-1.53c.46-.46,1.17-.53,1.73-.18,2.77,1.72,5.84,3,9.12,3.75.62.14,1.05.7,1.05,1.34v2.18c0,.83.67,1.49,1.49,1.49h8.43c.83,0,1.49-.67,1.49-1.49v-2.18c0-.64.43-1.2,1.05-1.34,3.28-.75,6.35-2.03,9.12-3.75.55-.34,1.27-.28,1.73.18l1.53,1.53c.58.58,1.53.58,2.11,0l5.96-5.96c.58-.58.58-1.53,0-2.11l-1.53-1.53c-.46-.46-.53-1.17-.18-1.73,1.73-2.77,3.01-5.84,3.76-9.12.14-.62.7-1.05,1.34-1.05h2.17c.82,0,1.49-.67,1.49-1.49Zm-34.27,15.55c-10.92,0-19.76-8.86-19.76-19.78s8.84-19.76,19.76-19.76,19.76,8.86,19.76,19.76-8.84,19.78-19.76,19.78Z"/><path class="cls-48" d="m410.28,140.24v-6.02c0-.59-.48-1.07-1.07-1.07h-1.55c-.45,0-.85-.31-.96-.75-.54-2.34-1.45-4.53-2.68-6.5-.25-.39-.2-.9.13-1.23l1.09-1.09c.42-.42.42-1.09,0-1.51l-4.25-4.25c-.42-.42-1.09-.42-1.51,0l-1.09,1.09c-.33.33-.84.38-1.23.13-1.98-1.23-4.17-2.15-6.51-2.68-.44-.1-.75-.5-.75-.96v-1.54c0-.59-.48-1.07-1.07-1.07h-6.02c-.59,0-1.07.48-1.07,1.07v1.54c0,.45-.31.85-.75.96-2.34.54-4.53,1.45-6.51,2.68-.39.25-.9.2-1.23-.13l-1.09-1.09c-.42-.42-1.09-.42-1.51,0l-4.25,4.25c-.42.42-.42,1.09,0,1.51l1.09,1.09c.33.33.37.84.13,1.23-1.23,1.98-2.14,4.17-2.68,6.51-.1.44-.5.75-.96.75h-1.55c-.59,0-1.07.48-1.07,1.07v6.02c0,.59.48,1.07,1.07,1.07h1.55c.45,0,.85.31.96.75.54,2.34,1.45,4.53,2.68,6.5.25.39.2.9-.13,1.23l-1.09,1.09c-.42.42-.42,1.09,0,1.51l4.25,4.25c.42.42,1.09.42,1.51,0l1.09-1.09c.33-.33.84-.38,1.23-.13,1.98,1.23,4.17,2.14,6.5,2.68.44.1.75.5.75.96v1.55c0,.59.48,1.07,1.07,1.07h6.02c.59,0,1.07-.48,1.07-1.07v-1.55c0-.45.31-.85.75-.96,2.34-.54,4.53-1.45,6.5-2.68.39-.25.9-.2,1.23.13l1.09,1.09c.42.42,1.09.42,1.51,0l4.25-4.25c.42-.42.42-1.09,0-1.51l-1.09-1.09c-.33-.33-.38-.84-.13-1.23,1.23-1.98,2.14-4.17,2.68-6.5.1-.44.5-.75.96-.75h1.55c.59,0,1.07-.48,1.07-1.07Zm-24.44,11.09c-7.79,0-14.09-6.32-14.09-14.11s6.3-14.09,14.09-14.09,14.09,6.32,14.09,14.09-6.3,14.11-14.09,14.11Z"/><path class="cls-20" d="m54.39,190.32v-5.7c0-.56-.45-1.01-1.01-1.01h-1.47c-.43,0-.81-.29-.91-.71-.51-2.21-1.37-4.29-2.54-6.17-.23-.37-.19-.86.12-1.17l1.03-1.03c.39-.39.39-1.03,0-1.43l-4.03-4.03c-.39-.39-1.03-.39-1.43,0l-1.03,1.03c-.31.31-.79.36-1.17.12-1.87-1.17-3.95-2.03-6.17-2.54-.42-.1-.71-.48-.71-.91v-1.46c0-.56-.45-1.01-1.01-1.01h-5.7c-.56,0-1.01.45-1.01,1.01v1.46c0,.43-.29.81-.71.91-2.22.51-4.29,1.37-6.17,2.54-.37.23-.86.19-1.17-.12l-1.03-1.03c-.39-.39-1.03-.39-1.43,0l-4.03,4.03c-.39.39-.39,1.03,0,1.43l1.03,1.03c.31.31.36.79.12,1.17-1.17,1.87-2.03,3.95-2.54,6.17-.1.42-.48.71-.91.71h-1.47c-.56,0-1.01.45-1.01,1.01v5.7c0,.56.45,1.01,1.01,1.01h1.47c.43,0,.81.29.91.71.51,2.21,1.37,4.29,2.54,6.17.23.37.19.86-.12,1.17l-1.03,1.03c-.39.39-.39,1.03,0,1.43l4.03,4.03c.39.39,1.03.39,1.43,0l1.03-1.03c.31-.31.79-.36,1.17-.12,1.87,1.17,3.95,2.03,6.16,2.54.42.1.71.48.71.91v1.47c0,.56.45,1.01,1.01,1.01h5.7c.56,0,1.01-.45,1.01-1.01v-1.47c0-.43.29-.81.71-.91,2.21-.51,4.29-1.37,6.16-2.54.37-.23.86-.19,1.17.12l1.03,1.03c.39.39,1.03.39,1.43,0l4.03-4.03c.39-.39.39-1.03,0-1.43l-1.03-1.03c-.31-.31-.36-.79-.12-1.17,1.17-1.87,2.03-3.95,2.54-6.16.1-.42.48-.71.91-.71h1.47c.56,0,1.01-.45,1.01-1.01Zm-23.17,9c-6.54,0-11.84-5.31-11.84-11.85s5.3-11.84,11.84-11.84,11.84,5.31,11.84,11.84-5.3,11.85-11.84,11.85Z"/><path class="cls-44" d="m195.2,290.02c-44.41,0-80.54-36.13-80.54-80.54s36.13-80.54,80.54-80.54c54.32,0,88.71,71.08,90.15,74.1l3.06,6.44-3.06,6.44c-1.44,3.03-35.83,74.1-90.15,74.1Zm0-131.08c-27.87,0-50.54,22.67-50.54,50.54s22.67,50.54,50.54,50.54c25.94,0,49.35-32.13,59.69-50.54-10.33-18.42-33.75-50.54-59.69-50.54Z"/><path class="cls-44" d="m348.4,290.02c-54.32,0-88.71-71.08-90.15-74.1l-3.06-6.44,3.06-6.44c1.44-3.03,35.83-74.1,90.15-74.1,44.41,0,80.54,36.13,80.54,80.54s-36.13,80.54-80.54,80.54Zm-59.69-80.54c10.33,18.41,33.75,50.54,59.69,50.54,27.87,0,50.54-22.67,50.54-50.54s-22.67-50.54-50.54-50.54c-25.94,0-49.35,32.13-59.69,50.54Z"/><path class="cls-44" d="m316.36,245.12l-18.94,23.17c-10.53-9.25-19.16-20.05-25.62-29.44v-.02c8.33-12.09,16.92-29.34,16.92-29.34,5.76,10.26,15.58,24.79,27.64,35.63Z"/><path class="cls-4" d="m271.8,180.13c-8.32,12.09-16.92,29.36-16.92,29.36-5.76-10.26-15.58-24.79-27.64-35.63l18.94-23.17c10.53,9.25,19.16,20.05,25.62,29.44Z"/><path class="cls-44" d="m358.9,144.49l-10.5,14.45c-14.56,0-28.33,10.13-39.43,22.28l-15.41-27.01c14.53-13.87,33.09-25.27,54.84-25.27l10.5,15.55Z"/><path class="cls-44" d="m248.15,152.45l-21.85,20.56c-9.35-8.18-19.99-14.07-31.1-14.07l-10.5-15.54,10.5-14.46c20.82,0,38.72,10.45,52.95,23.51Z"/><path class="cls-44" d="m205.7,274.48l-10.5,15.55c-21.34,0-40.76-8.34-55.18-21.94l15.13-27.81c9.25,12,23.76,19.75,40.05,19.75l10.5,14.45Z"/><path class="cls-44" d="m395.8,274.57c-13.31,9.72-29.69,15.46-47.4,15.46l-10.49-15.55,10.49-14.45c14.42,0,27.45-6.07,36.67-15.79l10.73,30.33Z"/><path class="cls-27" d="m411.85,225.46s1.46,8.98.53,12.93c0,0,2.83.48,7.23-1.14,4.4-1.62-1.2-11.79-1.2-11.79"/><path class="cls-39" d="m407.75,211.47s-.87,5,2.03,6.9l1.01-4.32"/><path class="cls-45" d="m417.63,259.09l-6.38-5.53-.88.81-9.31,8.66-27.29,3.55s-2.12.3-3.69,1.67c-.28.25-1.01,1.58-1.01,1.58,0,0,.91.25,1.87.04.64-.14,1.9-.4,2.67-.56l.33,1.13s23.59,2.96,29.04,2.46c.14-.01.28-.03.4-.04,4.6-.7,18.49-10.11,18.49-10.11l-4.23-3.67Z"/><path class="cls-50" d="m428.4,234.02l-9.77,2.7-.43-1.21h0c.08-.83.1-1.62.08-2.36-.05-2.26-.49-4.08-.96-5.41l3.31-2,4.11-4.38,3.65,12.66Z"/><path class="cls-46" d="m418.29,233.15c-.05-2.26-.49-4.08-.96-5.41l3.31-2,1.08-.28s.12,5.26-3.44,7.69Z"/><polygon class="cls-50" points="370 349.93 365.68 363.13 361.48 366.89 357.46 360.33 360.18 347.73 370 349.93"/><path class="cls-50" d="m427.19,217.78s-2.83,3.45-4.09,7.07c-1.01,2.91-3.04,5.61-6.46,6.74-9.27,3.06-7.35-14.01-7.32-16.24.02-1.58-.45-7.27,5.76-8.07,6.03-.78,12.42,1.78,12.11,10.5Z"/><path class="cls-48" d="m393.55,373.94h2.21l4.01-22.16h45.96l4.01,22.16h2.21l-12.73-70.36c-.11-.59-.68-.98-1.27-.88-.6.11-.99.68-.88,1.27l8.25,45.63h-45.17l8.25-45.63c.11-.59-.28-1.16-.87-1.27-.6-.11-1.16.28-1.27.88l-7.98,44.06-.39,2.19-.26,1.42-.4,2.22-3.7,20.46Z"/><path class="cls-27" d="m405.29,306l-21.87,4.14-14.29,43.58-10.94-2.99,11.03-48.84c1.13-4.02,4.18-7.21,8.14-8.53l23.01-7.65"/><polygon class="cls-50" points="381.87 345.07 383.1 349.69 385.74 359.33 386.14 361.69 390.52 362.21 393.93 357.72 392.91 345.95 392.91 345.95 392.81 344.76 381.87 345.07"/><path class="cls-27" d="m433.96,281.58l-9.85-2.51-14.59,4.24c-4.37,1.01-11.86,1.74-22.96,4.16h0s-16.3,1.91-16,15.69c.04,1.73,9.25,44.56,9.25,44.56l13.22-2.02-2.16-40.31c8.31.64,28.71,1.8,37.1-1.58,13.5-5.44,5.99-22.25,5.99-22.25Z"/><path class="cls-29" d="m427.72,231.79s6.21,7.15,7.88,16.02c1.31,6.95-.68,16.59-.95,22.82-.24,5.52-.16,6.31.56,9.68.35,1.64,1.02,4,.02,5.11-.64-.86-15.38-1.64-25.71-2.11,0,0,2.27-5.24,2.33-7.92.12-5.53-1.7-16.79-1.56-22.13.15-5.5,1.78-7.07,3.7-9.88,1.93-2.84,4.22-7.88,4.22-7.88,0,0,5.1-.28,9.52-3.72Z"/><path class="cls-28" d="m428.66,252.54s-1.45,8.58-2.09,11.43l-7.04.95,9.13-12.39Z"/><path class="cls-50" d="m416.77,255.77l-4.24-2.28c-.22.53-5.6,12.95-5.6,12.95-10.8-2.79-25.75-3.83-25.75-3.83,0,0-5.63.04-7.76.26s-4.93,2.2-6.16,3.47c-.74.76-2.58,3.38-2.58,3.38,0,0,1.71.42,3.11-.44,1.4-.87,2.69-1.76,2.69-1.76l3.51-.96c.7-.19,1.44-.1,2.09.23.47.24,1.16.51,2.15.72,2.32.5,4.23.49,4.25.49,6.69,2.63,24.65,11.96,29.59,9.8,3.72-1.63,8.26-9.82,10.64-14.56,1.01-2.01,1.63-3.41,1.63-3.41l-7.57-4.08Z"/><path class="cls-29" d="m430.13,243.95s-1.16,10.95-4.48,17.71c0,0-10.33-2.01-15.36-5.9,0,0,2.77-7.51,7.25-14.79"/><path class="cls-35" d="m407.75,211.47s0,4.03,4.09,5.71c3.6,1.48,7.75,1.85,7.75,1.85,0,0,1.72-.25,3.06,1.08,1.34,1.33,3.29,6.03,3.4,10.29.11,4.26-.93,6.72-.93,6.72,0,0,8.54.07,12.99-4.26,0,0-4.07-6.05-5.49-13.83-1.42-7.77-3.29-16.22-11.91-13.76-12.96-3.06-12.96,6.2-12.96,6.2Z"/><path class="cls-50" d="m419.07,220.6s-.82-2.67,1.17-3.19c3.95-1.01,3.18,6.68,1.43,6.64-1.75-.04-2.59-3.46-2.59-3.46Z"/><path class="cls-27" d="m366.82,359.68s-1.66,2.18-9.36.65c0,0-12.41,4.54-14.03,5.15-2.31.88-3.12,3.13,1.04,3.13h22.06c.83,0,1.74-.24,2.03-1.73.28-1.46-.49-5.6-1.74-7.2Z"/><rect class="cls-48" x="319.67" y="272.45" width="72.47" height="4.93"/><rect class="cls-48" x="354.77" y="277.38" width="2.28" height="96.56" transform="translate(711.81 651.31) rotate(180)"/><path class="cls-48" d="m330.99,368.62h49.83v1.72c0,1.99-1.62,3.61-3.61,3.61h-42.61c-1.99,0-3.61-1.62-3.61-3.61v-1.72h0Z" transform="translate(711.81 742.56) rotate(180)"/><path class="cls-48" d="m348.64,368.62h14.24c0-1.04-.84-1.89-1.89-1.89h-10.47c-1.04,0-1.89.84-1.89,1.89h0Z"/><path class="cls-50" d="m409.24,221.36s-1.02,4.76-.63,5.29c.38.53,2.18-.06,2.18-.06"/><path class="cls-27" d="m393.74,355.57s1.24,1.81,2.09,3.79.26,6.01-3.26,8.18c-2.5,1.54-3.98,5.82-5.57,6.4h-12.82s-3.38-2.36,4.17-5.04c3.78-2.63,7.39-9.58,7.39-9.58,0,0,1.39,1.45,3.43.66,4.76-1.84,4.57-4.42,4.57-4.42Z"/><path class="cls-48" d="m450.83,260.75c-3.1.39-3.5,9.65-7.94,19.17-1.14,2.03-3.34,4.84-7.37,6.75-5.36,2.54-8.44.62-13.79,2.42-3.63,1.22-7.83,7.41-10.15,11.26-1.17,1.93-3.25,3.13-5.51,3.13h-.05c-1.84,0-3.33,1.49-3.33,3.33h0c0,1.84,1.49,3.33,3.33,3.33h34.38c.59,0,1.31-.16,1.96-.39,9.67-4.5,11.41-26.44,11.83-35.29.45-9.32.67-14.22-3.36-13.71Z"/><path class="cls-34" d="m387.93,270.28l-32.68-.76-11.1-30.9c-.18-.49-.64-.82-1.17-.82-.84,0-1.43.81-1.18,1.61l10.32,33.05h37.94c0-1.18-.94-2.14-2.12-2.17Z"/><path class="cls-48" d="m331.93,253.62c-4.65,5.62,0,10.12,0,10.12,0,0,4.65-4.5,0-10.12Z"/><path class="cls-48" d="m328.05,254.4c-2.12,6.98,3.9,9.33,3.9,9.33,0,0,2.55-5.94-3.9-9.33Z"/><path class="cls-48" d="m335.83,254.4c2.12,6.98-3.9,9.33-3.9,9.33,0,0-2.55-5.94,3.9-9.33Z"/><path class="cls-48" d="m339.13,256.63c-.74,7.25-7.21,7.1-7.21,7.1,0,0-.06-6.47,7.21-7.1Z"/><path class="cls-48" d="m324.72,256.63c.74,7.25,7.21,7.1,7.21,7.1,0,0,.06-6.47-7.21-7.1Z"/><polygon class="cls-47" points="336.25 272.45 327.6 272.45 326.15 262.15 337.7 262.15 336.25 272.45"/><path class="cls-49" d="m211.76,334.95c2.16.9,4.32,1.05,4.32,1.05l1.69-4.66-7.03-4.75s-.95,4.44-1.33,6.17c0,0,.19,1.29,2.35,2.19Z"/><path class="cls-27" d="m222.84,344.57c-.48-.53-2.41-1.55-4.2-2.59-2.17-2.67-2.04-5.31-2.57-5.97,0,0-2.12-.39-4.28-1.29-2.16-.9-2.4-1.95-2.4-1.95-1,.71-3.78,2.38-5.26,6.31,0,0,8.33,7,10.68,8.87,0,0,7.05,0,8.84,0,.29-.89.42-2-.83-3.38Z"/><path class="cls-27" d="m258.74,340.61s1.36.86,4.74.6c.54-.04,2.47-.37,3.25-.6,0,0,1.54.76,3.83,1.56,2.2.77,5.11,1.56,7.23,3.03,1.54,1.07,1.27,2.75,1.27,2.75h-21.39s-2.03-3.44,1.06-7.33Z"/><path class="cls-49" d="m258.38,334.87c.22,2.34.36,5.74.36,5.74,2.6,1.85,8,0,8,0,0,0,.18-3.7.33-5.91,0,0-8.69.17-8.69.17Z"/><rect class="cls-38" x="214.77" y="122.23" width="108.08" height="35.47" rx="6.99" ry="6.99" transform="translate(-11.48 24.69) rotate(-5.15)"/><path class="cls-26" d="m247.66,147.85c.38,4.26-2.76,8.02-7.01,8.4l-10.04.9c-3.96.36-7.46-2.56-7.81-6.52l-1.18-13.13c-.36-3.96,2.56-7.45,6.52-7.81l10.44-.94c4.04-.36,7.6,2.61,7.96,6.65l1.12,12.45Z"/><path class="cls-25" d="m255.68,130.47c-.47,0-.87-.36-.91-.83-.05-.5.33-.95.83-1l58.31-5.25c.51-.05.95.33,1,.83.05.5-.33.95-.83,1l-58.31,5.25s-.06,0-.08,0Z"/><path class="cls-23" d="m256.09,135.08c-.47,0-.87-.36-.91-.83-.05-.5.33-.95.83-1l58.31-5.25c.52-.04.95.33,1,.83.05.5-.33.95-.83,1l-58.31,5.25s-.06,0-.08,0Z"/><path class="cls-24" d="m256.51,139.7c-.47,0-.87-.36-.91-.83-.05-.5.33-.95.83-1l58.31-5.25c.51-.04.95.33,1,.83.05.5-.33.95-.83,1l-58.31,5.25s-.06,0-.08,0Z"/><path class="cls-11" d="m256.93,144.32c-.47,0-.87-.36-.91-.83-.05-.5.33-.95.83-1l58.31-5.25c.51-.04.95.33,1,.83.05.5-.33.95-.83,1l-58.31,5.25s-.06,0-.08,0Z"/><path class="cls-9" d="m257.34,148.93c-.47,0-.87-.36-.91-.83-.05-.5.33-.95.83-1l58.31-5.25c.52-.04.95.33,1,.83.05.5-.33.95-.83,1l-58.31,5.25s-.06,0-.08,0Z"/><path class="cls-10" d="m257.76,153.54c-.47,0-.87-.36-.91-.83-.05-.5.33-.95.83-1l58.31-5.25c.51-.04.95.33,1,.83.05.5-.33.95-.83,1l-58.31,5.25s-.06,0-.08,0Z"/><path class="cls-45" d="m266.87,162.41c0-.47.78-1.7.87-2.56.08-.86.2-2,.2-2l-.9.08-.34.03-.98-2.56s-.28-1.51-.39-2.62c-.11-1.12-1.27-1.49-1.34-.98-.03.19-.02.85-.03,1.16-.05-.36-.1-.69-.13-.95-.11-1.12-1.5-1.57-1.57-1.06-.05.34-.06.91-.05,1.55-.35-.8-1.4-1.09-1.46-.65-.06.48-.07,1.29-.05,2.06-.27-.73-.93-.94-1.01-.38-.1.64-.57,2.1-.31,2.81.26.71.58,1.77.91,2.21s1.55,2.48,1.74,3.13c.19.64-4.59,12.72-4.59,12.72,3.52.62,7.24.71,7.24.71,0,0,2.17-12.2,2.17-12.68Z"/><path class="cls-50" d="m266.14,223.99l-12.61.26-16.84-3.45-7.02-2.33c1.53-2.04,3.26-7.75,4.42-12.17.84-3.18,1.4-5.69,1.4-5.69l12.65-1.35,6.08-.65s8.01-1.12,9.81,3.24c.26.63.39,1.35.35,2.22-.09,1.98.01,4.45.22,6.98.49,6.3,1.54,12.93,1.54,12.93Z"/><path class="cls-38" d="m266.14,223.99l-1.19-9.12s-3.95,1.81-12.45,1.54c-8.16-.26-17.35-2.15-20.11-4.23-3.56,2.85-7.51,9.35-6.79,18.88.44,5.81.95,11.62.25,17.39-1.38,11.34-2.04,24.76-2.42,27.51-5.21,10.99-14.1,54.97-14.1,54.97,0,0,4.29,2.67,8.58,2.64,0,0,15.76-37.14,20.91-53.26,1.59-4.98,3.39-11.03,5.11-17.51,1.75-6.45,3.41-13.3,4.72-19.9,1.47-7.48,2.5-14.59,2.67-20.38,3.84,1.03,6.66,1.76,6.82,1.73.55-.09,8-.26,8-.26Z"/><path class="cls-52" d="m248.64,242.9c-1.31,6.59-2.97,13.45-4.72,19.9-5.24-15.28-6.2-31.62-6.2-31.62,0,0,7.74,8.63,10.92,11.72Z"/><path class="cls-38" d="m267.24,337.14s-3.78,1.03-9.03-.25c0,0-5.89-45.49-4.68-59.03,0,0-7.07-18.89-11.81-33.58-.9-2.81-2.47-8.2-3.11-10.56-1.67-6.15-.8-11.31.8-15.25l26.72,5.51c1.1,10.25,4.39,41.8,4.58,56.33.25,17.46-3.48,56.83-3.48,56.83Z"/><path class="cls-50" d="m260.16,161.55c-.73.23-3.77,1.02-6.64-.96-3.3-2.27.06-6.54.06-6.54h6.12l-.15,1.13s-.06.86-.01,2.01c.03,1.34.17,3.07.63,4.36Z"/><path class="cls-46" d="m259.55,155.18s-.06.86-.01,2.01c-2.43-.2-4.37-1.57-4.37-1.57,0,0,2.26-.54,2.99-1.57h1.54l-.15,1.13Z"/><path class="cls-40" d="m260.16,161.55s4.06,5.7,5.6,10.85c1.64,5.45-1.63,27.49-1.41,32.88,0,0-14.51,3.14-29.47-2.08,0,0,1.22-7.52-1.09-17.17-1.72-7.18.13-18.69,1.76-22.04,1.63-3.35,16.52-3.78,16.52-3.78,0,0,3.1,1.77,8.1,1.34Z"/><path class="cls-50" d="m290.74,156.53h0s-.38-1.55-.38-1.55c0,0-.07-.88-.1-2.26-.03-1.58-.83-1.91-1.15-1.78,0-.06.02-.13.03-.19.22-1.37-.7-1.96-1.03-1.83-.04.02-.1.11-.16.25.08-1.63-.85-1.94-1.17-1.8-.18.07-.64,1.58-1.03,2.97,0-.26-.01-.47-.05-.61-.18-.72-.77-.84-1.15,0-.38.84-1.05,3.04-1.03,3.65.03.61.27,3.03.27,3.03l-1.68.15s.97,2.21,1.13,2.93c.15.72.57,2.76.57,2.76-1.07,2.83-3.54,8.58-5.6,13.06-2.63,5.76-4.85,10.82-4.85,10.82l6.96,7.32c2.93-4.08,3.73-7.93,5.36-14.96,1.36-5.87,3.05-13.33,3.48-15.49,0,0,1.32-2.13,1.67-3.92.21-1.07.06-1.99-.1-2.56Z"/><path class="cls-50" d="m274.44,179.07s6.18,10.16,6.73,11.39c.55,1.24-.98,5.73-6.65,4.47-4.83-1.07-10.17-9.76-10.17-9.76l10.09-6.1Z"/><path class="cls-40" d="m262.46,164.16s3.17,1.65,6.01,5.19c3.43,4.27,6.92,11.01,6.92,11.01,0,0-5.08,4.76-11.91,7.81,0,0-7.6-9.34-9.2-15.18-1.59-5.84,4.25-10.81,8.17-8.84Z"/><path class="cls-50" d="m261.9,137.21s2.41,4.72,3.32,9.92c.48,2.72-.67,5.49-2.91,7.11-.87.63-1.75,1.13-2.55,1.52-2.47,1.19-5.46.7-7.39-1.26-1.09-1.1-2.29-2.64-3.41-4.76-4.93-9.37,5.86-19.81,12.93-12.53Z"/><path class="cls-43" d="m261.22,130.42c-.66-1.14-2.53-2.61-4.08-3-4.5-1.13-9.13.94-12.28,3.84h0s-1.37,1.34-3.37,2.88c-2.01,1.55-3.93,3.79-5.07,6.36-2.95,6.63,1.82,12.24.61,14.3-1.21,2.06-6.1,2.42-6.44,6.66-.34,4.24,1.56,5.25,0,9.29,0,0,0,.01,0,.02-2.07,2.56-3.79,5.37-4.55,8.87-2.3,10.59,9.06,13.14,13.9,10.21,4.85-2.93,7.91-1.26,10.38-2.24,11.77-4.65,4.29-25.82,4.54-30.99.05-.95.04-2.01.03-3.14-.05-4.16,1.83-8.03,4.83-10.91,2.69-2.58,4.54-6.92,1.51-12.16Z"/><path class="cls-50" d="m258.28,147.23c-.59-1.89-2.79-3.07-3.84-1.34s-.17,6.14,1.81,6.24c1.98.09,3.34-.72,2.03-4.89Z"/><rect class="cls-48" x="195.31" y="347.94" width="93.51" height="6.46"/><rect class="cls-48" x="444.02" y="177.71" width="53.33" height="36.68" rx="9.79" ry="9.79"/><path class="cls-16" d="m487.56,214.89h-33.75c-5.67,0-10.29-4.62-10.29-10.29v-17.11c0-5.67,4.62-10.29,10.29-10.29h33.75c5.67,0,10.29,4.62,10.29,10.29v17.11c0,5.67-4.62,10.29-10.29,10.29Zm-33.75-36.68c-5.12,0-9.29,4.17-9.29,9.29v17.11c0,5.12,4.17,9.29,9.29,9.29h33.75c5.12,0,9.29-4.17,9.29-9.29v-17.11c0-5.12-4.17-9.29-9.29-9.29h-33.75Z"/><path class="cls-36" d="m464.86,212.92c-.15,0-.3-.03-.45-.08-.67-.25-1-.99-.75-1.66l11.65-31.17c.25-.67.99-1,1.66-.75.67.25,1,.99.75,1.66l-11.65,31.17c-.19.52-.68.84-1.21.84Z"/><path class="cls-36" d="m460.1,207.54c-.38,0-.77-.15-1.06-.44l-8.64-8.64c-1.31-1.31-1.31-3.44,0-4.75l8.82-8.82c.59-.59,1.54-.59,2.12,0,.59.59.59,1.54,0,2.12l-8.82,8.82c-.14.14-.14.36,0,.5l8.64,8.64c.59.59.59,1.54,0,2.12-.29.29-.68.44-1.06.44Z"/><path class="cls-36" d="m481.08,207.54c-.38,0-.77-.15-1.06-.44-.59-.59-.59-1.54,0-2.12l8.82-8.82c.14-.14.14-.36,0-.5l-8.64-8.64c-.59-.59-.59-1.54,0-2.12.59-.59,1.54-.59,2.12,0l8.64,8.64c1.31,1.31,1.31,3.44,0,4.75l-8.82,8.82c-.29.29-.68.44-1.06.44Z"/><path class="cls-50" d="m92.51,357.28l-.38,9.48s4.11,1.74,7.32,0l1.49-9.18"/><path class="cls-50" d="m55.96,354.17l-2.37,11.28s4.56,2.24,8.13.7l2.94-9.37"/><path class="cls-27" d="m90.83,373.99h20.02c.24,0,.44-.22.39-.46-.18-.83-1.37-2.13-3.63-3.31-2.35-1.22-8.15-3.46-8.15-3.46,0,0-4.11.73-7.33,0,0,0-1.14,1.16-1.4,2.9-.26,1.73.11,3.95.11,4.34Z"/><path class="cls-40" d="m75.22,243.79s-7.12,21.94-9.5,41.34c-2.38,19.4-1.49,14.89-2.28,19.88-.71,4.49-2.42,10.98-4.51,20.3-2.38,10.6-4.93,35.36-4.93,35.36,0,0,4.68,1.65,9.44.98,0,0,11.52-29.6,13.13-37.93,1.63-8.39,1.97-15.26,1.97-15.26,0,0,8.9-19.84,12.32-32.48l1.84-.52.53,34.23s-2.48,9.36-3.31,19.68c-.83,10.34,1.94,32.59,1.94,32.59,0,0,6.57,2,8.81.45,0,0,8.19-40.83,9.62-53.7,1.31-11.75,3.75-34.65,4.03-39.53,1-17.2-1.46-24.55-1.46-24.55l-37.64-.84Z"/><path class="cls-27" d="m61.84,365.78s-4.39.56-8.19-.61l-.51,1.58s-3.74,1.28-5.17,2.82c-2.17,2.35-1.21,4.41-1.21,4.41h15.51s1.56-4-.44-8.21Z"/><path class="cls-50" d="m123.88,237.8s-7.8,1.04-12.24.53c-5.14-.58-.37-5.47-.37-5.47l12.06,2.9.55,2.03Z"/><path class="cls-31" d="m112.31,215.81c.8-.19,1.56-.4,2.28-.61,7.47-2.19,9.54-4.81,9.54-4.81-4.69-13.15-7.66-16.1-9.85-18.52-4.04-4.46-.99,9.79-.52,10.04l-1.45,13.91Z"/><polygon class="cls-5" points="113.94 202.79 115.66 210.74 111.51 209.7 113.94 202.79"/><path class="cls-31" d="m76.45,237.83c-.25,2.12-2.93,6.29-2.91,8.73,0,.59,2.01,3.09,7.13,4,0,0,9.11,2.18,22.68.34,3.15-.43,9.06-1.66,10.29-2.71.85-.72-1.12-7.39-1.43-11.64-.71-9.85,1-12.12,1.12-20.55,0-.21.01-.42.01-.63.22-13,1.54-19.5.93-23.52-3.01-3.37-11.33-6.01-11.86-6.12-.02-.01-8.75-.07-10.65,0-4.36,1.12-12.07,3.44-15.9,9.97.21,5.22-.13,11.57.5,19.7.11,1.23,1.18,13.36.09,22.43Z"/><path class="cls-37" d="m111.16,165.72s.66,4.53-1.45,5.36l-.83-5.01"/><path class="cls-50" d="m100.16,192.18c5.11-.61,2.81-5.82,2.27-6.51h0s-.85-5.54-.92-5.8l-8.66-3.78s-.2,9.46-1.07,9.59c-1.32.62.45,7.44,8.39,6.5Z"/><path class="cls-7" d="m95.85,179.24s1.88,4.13,6.34,4.94l-.69-4.31-5.65-.63Z"/><path class="cls-50" d="m110.12,165.51s1.96,14.93-4.62,17.38c0,0-6.56.62-10.38-4.52-1.1-1.48-2.49-1.81-2.95-3.6-.74-2.9-1.78-8.26-.45-11.49,1.89-4.6,18.22-8.96,18.4,2.24Z"/><path class="cls-37" d="m105.73,155.03s-1.53-3.55-6.26-1.86c-3.31,1.18-4.99,3.64-4.99,3.64,0,0-1.32-1.07-2.53.57-.79,1.07-.28,3.35-.28,3.35-7.85,1.44.08,18.12.17,18.66l.84.49c.22-2.44.15-4.68.29-6.38.04-.52.86-.81,1.05-1.18,1.54.26,3.06.24,3.94-.51,1.53-1.31,1.85-3.46,2.01-4.91,1.46.49,13.45,2.39,12.86-4.46,0,0,.54-1.05.72-2.12,1.41-8.49-7.81-5.29-7.81-5.29Z"/><path class="cls-50" d="m95.55,175.58c-2.97,1.14-3.9-6.18-1.08-6.5,2.14-.25,2.23,2.74,2.23,2.74,0,0,.55,3.11-1.15,3.76Z"/><polygon class="cls-6" points="88.3 205.69 84.88 216.96 77.97 217.93 88.3 205.69"/><path class="cls-50" d="m66.11,218.88c2.83-8.54,7.89-18.69,7.89-18.69l11.56,6.64s-4.42,8.82-7.34,14.98c2.82.69,10.12,2.52,15.71,4.32,7.07,2.29,13.66,2.92,13.66,2.92-.31,2.18-.3,4.17-.3,4.17-6.9.38-19.93.48-29.13-.14-3.79-.25-7.04-.62-8.76-1.21-2.7-.93-4.54-1.66-4.66-4.48-.18-4.14,1.33-8.4,1.39-8.5Z"/><path class="cls-48" d="m94.02,236.55h16.02v-1.57h-16.02c-.43,0-.78.35-.78.78h0c0,.43.35.78.78.78Z"/><path class="cls-48" d="m102.68,236.55h38.28c.48,0,.9-.32,1.03-.78l8.21-29.55c.18-.65-.31-1.3-.99-1.3h-36.96c-.9,0-1.7.6-1.94,1.47l-8.18,29.44c-.1.36.17.72.55.72Z"/><path class="cls-30" d="m104.13,236.55h38.28c.48,0,.9-.32,1.03-.78l8.21-29.55c.18-.65-.31-1.3-.99-1.3h-36.96c-.9,0-1.7.6-1.94,1.47l-8.18,29.44c-.1.36.17.72.55.72Z"/><path class="cls-50" d="m137.92,236.55s-.66,1.48-3.67,1.79l.21-1.79h3.46Z"/><path class="cls-50" d="m137.22,231.53c-.07-.28-.74-.59-1.28-.41.23-.64.41-1.2.41-1.27-.06-.78-.82-.68-1.25-.44-.5.28-1.08,1.57-1.24,1.71.2-.41.4-.9.39-.95-.11-.46-1.14-.85-1.73-.31-.3.27-1.19,1.77-1.42,2.16.06-.25.1-.43.09-.47-.11-.46-.99-.63-1.58-.09-.86.78-2.09,3.65-2.09,3.65h0c-.57,1.27-1.09,1.43-1.26,1.43h-3.15s.25,1.31,1.73,1.81c1.47.48,3.77.8,6.62.72,1.41-.03,3.11-.53,3.97-1.84.3-.45.91-2.73,1.12-3.57h0c.13-.44.67-2.09.66-2.14Z"/><path class="cls-31" d="m75.86,195.71s-2.55,3.19-7.12,14.27c0,0,6.88,4.04,15.27,5.7,0,0,1.76-3.55,5.89-13.96"/><path class="cls-33" d="m76.27,131.54h0c0,5.27,4.27,9.55,9.55,9.55h48.96c5.27,0,9.55-4.27,9.55-9.55h0c0-5.27-4.27-9.55-9.55-9.55h-48.96c-5.27,0-9.55,4.27-9.55,9.55Z"/><path class="cls-51" d="m134.07,128.17h-41.34c-.59,0-1.07-.48-1.07-1.07h0c0-.59.48-1.07,1.07-1.07h41.34c.59,0,1.07.48,1.07,1.07h0c0,.59-.48,1.07-1.07,1.07Z"/><path class="cls-51" d="m118.48,132.63h-25.75c-.59,0-1.07-.48-1.07-1.07h0c0-.59.48-1.07,1.07-1.07h25.75c.59,0,1.07.48,1.07,1.07h0c0,.59-.48,1.07-1.07,1.07Z"/><path class="cls-51" d="m134.07,132.63h-11.03c-.59,0-1.07-.48-1.07-1.07h0c0-.59.48-1.07,1.07-1.07h11.03c.59,0,1.07.48,1.07,1.07h0c0,.59-.48,1.07-1.07,1.07Z"/><path class="cls-51" d="m112.33,137.1h-19.6c-.59,0-1.07-.48-1.07-1.07h0c0-.59.48-1.07,1.07-1.07h19.6c.59,0,1.07.48,1.07,1.07h0c0,.59-.48,1.07-1.07,1.07Z"/><path class="cls-41" d="m88.89,127.1c0,.59-.48,1.07-1.07,1.07s-1.07-.48-1.07-1.07.48-1.07,1.07-1.07,1.07.48,1.07,1.07Z"/><path class="cls-41" d="m88.89,131.57c0,.59-.48,1.07-1.07,1.07s-1.07-.48-1.07-1.07.48-1.07,1.07-1.07,1.07.48,1.07,1.07Z"/><path class="cls-41" d="m88.89,136.03c0,.59-.48,1.07-1.07,1.07s-1.07-.48-1.07-1.07.48-1.07,1.07-1.07,1.07.48,1.07,1.07Z"/><path class="cls-3" d="m290.7,91.7h0c0,5.27,4.27,9.55,9.55,9.55h48.96c5.27,0,9.55-4.27,9.55-9.55h0c0-5.27-4.27-9.55-9.55-9.55h-48.96c-5.27,0-9.55,4.27-9.55,9.55Z"/><path class="cls-48" d="m348.49,88.32h-41.34c-.59,0-1.07-.48-1.07-1.07h0c0-.59.48-1.07,1.07-1.07h41.34c.59,0,1.07.48,1.07,1.07h0c0,.59-.48,1.07-1.07,1.07Z"/><path class="cls-48" d="m332.9,92.79h-25.75c-.59,0-1.07-.48-1.07-1.07h0c0-.59.48-1.07,1.07-1.07h25.75c.59,0,1.07.48,1.07,1.07h0c0,.59-.48,1.07-1.07,1.07Z"/><path class="cls-48" d="m348.49,92.79h-11.03c-.59,0-1.07-.48-1.07-1.07h0c0-.59.48-1.07,1.07-1.07h11.03c.59,0,1.07.48,1.07,1.07h0c0,.59-.48,1.07-1.07,1.07Z"/><path class="cls-48" d="m326.75,97.26h-19.6c-.59,0-1.07-.48-1.07-1.07h0c0-.59.48-1.07,1.07-1.07h19.6c.59,0,1.07.48,1.07,1.07h0c0,.59-.48,1.07-1.07,1.07Z"/><path class="cls-48" d="m303.32,87.26c0,.59-.48,1.07-1.07,1.07s-1.07-.48-1.07-1.07.48-1.07,1.07-1.07,1.07.48,1.07,1.07Z"/><path class="cls-48" d="m303.32,91.72c0,.59-.48,1.07-1.07,1.07s-1.07-.48-1.07-1.07.48-1.07,1.07-1.07,1.07.48,1.07,1.07Z"/><path class="cls-48" d="m303.32,96.19c0,.59-.48,1.07-1.07,1.07s-1.07-.48-1.07-1.07.48-1.07,1.07-1.07,1.07.48,1.07,1.07Z"/><rect class="cls-48" x="217.71" y="61.22" width="28.5" height="28.5" rx="5.9" ry="5.9"/><path class="cls-38" d="m225.78,74.82c-.18.3-.47.52-.87.64.4.13.69.34.87.64.18.3.27.74.27,1.32v3.65c0,.47.12.84.36,1.09.24.25.59.37,1.07.37h.4v1.92h-.96c-1.08,0-1.89-.27-2.44-.8-.55-.53-.83-1.31-.83-2.34v-3.96c0-.61-.29-.92-.87-.92h-.63v-1.96h.63c.58,0,.87-.31.87-.92v-3.96c0-1.02.28-1.8.83-2.33.55-.53,1.36-.8,2.44-.8h.96v1.92h-.4c-.47,0-.83.13-1.07.37-.24.25-.36.61-.36,1.09v3.65c0,.58-.09,1.02-.27,1.32Z"/><path class="cls-38" d="m241.77,74.49v1.96h-.65c-.27,0-.48.08-.62.23-.15.15-.22.38-.22.69v3.96c0,1.02-.28,1.8-.84,2.34-.56.53-1.37.8-2.45.8h-.96v-1.92h.4c.49,0,.85-.13,1.09-.37.24-.25.36-.61.36-1.09v-3.65c0-.59.09-1.03.26-1.33.17-.29.46-.51.85-.63-.4-.13-.68-.34-.85-.63-.17-.29-.26-.74-.26-1.33v-3.65c0-.47-.12-.84-.36-1.09-.24-.25-.6-.37-1.09-.37h-.4v-1.92h.96c1.08,0,1.89.27,2.45.8.56.53.84,1.31.84,2.33v3.96c0,.31.07.54.22.69.15.15.36.23.62.23h.65Z"/><circle class="cls-31" cx="172.24" cy="318.49" r="17.33"/><path class="cls-48" d="m169.86,311.39l9.78,5.65c1.12.64,1.12,2.26,0,2.9l-9.78,5.65c-1.12.64-2.51-.16-2.51-1.45v-11.29c0-1.29,1.4-2.09,2.51-1.45Z"/><path class="cls-38" d="m444.27,152.97h.01l-3.5,7.97c-.22.5-.71.82-1.25.82h-2.2c-.32,0-.58-.26-.58-.58v-11.14c0-.34.28-.62.62-.62h1.79c.4,0,.71-.32.71-.72s-.31-.71-.71-.71h-6.25c-.4,0-.71.32-.71.71s.31.72.71.72h1.79c.34,0,.62.28.62.62v11.14c0,.32-.26.58-.58.58h-2.19c-.55,0-1.04-.32-1.26-.82l-3.49-7.97c-.82-1.4-1.28-3.02-1.28-4.76,0-5.08,4.2-9.39,9.29-9.51,5.36-.13,9.74,4.17,9.74,9.51,0,1.74-.47,3.36-1.28,4.76Z"/><path class="cls-38" d="m440.13,164.1h-8.17c-.49,0-.89-.4-.89-.89h0c0-.49.4-.89.89-.89h8.17c.49,0,.89.4.89.89h0c0,.49-.4.89-.89.89Z"/><path class="cls-38" d="m440.13,166.45h-8.17c-.49,0-.89-.4-.89-.89h0c0-.49.4-.89.89-.89h8.17c.49,0,.89.4.89.89h0c0,.49-.4.89-.89.89Z"/><path class="cls-38" d="m438.37,167.07c.26,0,.45.24.41.49-.23,1.3-1.37,2.28-2.73,2.28s-2.5-.99-2.73-2.28c-.05-.25.15-.49.41-.49h4.66Z"/><path class="cls-48" d="m154.9,109.3c-18.14,0-32.9-14.76-32.9-32.9s14.76-32.9,32.9-32.9,32.9,14.76,32.9,32.9-14.76,32.9-32.9,32.9Zm0-65.01c-17.71,0-32.11,14.4-32.11,32.11s14.4,32.11,32.11,32.11,32.11-14.4,32.11-32.11-14.4-32.11-32.11-32.11Z"/><circle class="cls-48" cx="154.9" cy="76.4" r="28.26" transform="translate(-17.13 61.06) rotate(-21.16)"/><path class="cls-15" d="m157.47,76.4c0,1.42-1.15,2.57-2.57,2.57s-2.57-1.15-2.57-2.57,1.15-2.57,2.57-2.57,2.57,1.15,2.57,2.57Z"/><path class="cls-12" d="m154.62,75.9h0c-.39.22-.88.07-1.09-.31l-8.31-14.99c-.22-.39-.08-.88.31-1.09h0c.39-.22.88-.08,1.09.31l8.31,14.99c.22.39.08.88-.31,1.09Z"/><path class="cls-18" d="m155.31,76.81h0c.31-.31.82-.31,1.14,0l7.19,7.19c.31.31.31.82,0,1.14h0c-.31.31-.82.31-1.14,0l-7.19-7.19c-.31-.31-.31-.82,0-1.14Z"/><path class="cls-14" d="m155.08,54.78c-.55,0-1-.45-1-1v-3.25c0-.55.45-1,1-1s1,.45,1,1v3.25c0,.55-.45,1-1,1Z"/><path class="cls-17" d="m180.77,77.57h-3.25c-.55,0-1-.45-1-1s.45-1,1-1h3.25c.55,0,1,.45,1,1s-.45,1-1,1Z"/><path class="cls-13" d="m154.73,103.27c-.55,0-1-.45-1-1v-3.25c0-.55.45-1,1-1s1,.45,1,1v3.25c0,.55-.45,1-1,1Z"/><path class="cls-19" d="m132.28,77.23h-3.25c-.55,0-1-.45-1-1s.45-1,1-1h3.25c.55,0,1,.45,1,1s-.45,1-1,1Z"/><g class="cls-53"><path class="cls-42" d="m143.74,57.23c-.17,0-.34-.09-.43-.25l-1.62-2.81c-.14-.24-.06-.54.18-.68.24-.14.54-.06.68.18l1.62,2.81c.14.24.06.54-.18.68-.08.05-.16.07-.25.07Z"/><path class="cls-42" d="m174.58,65.74c-.17,0-.34-.09-.43-.25-.14-.24-.06-.54.18-.68l2.81-1.62c.24-.14.54-.06.68.18.14.24.06.54-.18.68l-2.81,1.62c-.08.05-.16.07-.25.07Z"/><path class="cls-42" d="m167.69,99.39c-.17,0-.34-.09-.43-.25l-1.62-2.81c-.14-.24-.06-.54.18-.68.24-.14.54-.06.68.18l1.62,2.81c.14.24.06.54-.18.68-.08.05-.16.07-.25.07Z"/><path class="cls-42" d="m132.41,89.69c-.17,0-.34-.09-.43-.25-.14-.24-.06-.54.18-.68l2.81-1.62c.24-.14.54-.06.68.18.14.24.06.54-.18.68l-2.81,1.62c-.08.05-.16.07-.25.07Z"/></g><g class="cls-53"><path class="cls-42" d="m135.4,65.44c-.08,0-.17-.02-.25-.07l-2.81-1.62c-.24-.14-.32-.44-.18-.68.14-.24.44-.32.68-.18l2.81,1.62c.24.14.32.44.18.68-.09.16-.26.25-.43.25Z"/><path class="cls-42" d="m166.36,57.4c-.08,0-.17-.02-.25-.07-.24-.14-.32-.44-.18-.68l1.62-2.81c.14-.24.44-.32.68-.18.24.14.32.44.18.68l-1.62,2.81c-.09.16-.26.25-.43.25Z"/><path class="cls-42" d="m177.22,89.99c-.08,0-.17-.02-.25-.07l-2.81-1.62c-.24-.14-.32-.44-.18-.68.14-.24.44-.32.68-.18l2.81,1.62c.24.14.32.44.18.68-.09.16-.26.25-.43.25Z"/><path class="cls-42" d="m141.82,99.22c-.08,0-.17-.02-.25-.07-.24-.14-.32-.44-.18-.68l1.62-2.81c.14-.24.44-.32.68-.18.24.14.32.44.18.68l-1.62,2.81c-.09.16-.26.25-.43.25Z"/></g><line class="cls-1" x1="12.05" y1="374.44" x2="531.55" y2="374.44"/></g></g></svg>