<?xml version="1.0" encoding="UTF-8"?><svg id="Layer_1" xmlns="http://www.w3.org/2000/svg" viewBox="0 0 396.15 342.75"><defs><style>.cls-1,.cls-2,.cls-3,.cls-4,.cls-5,.cls-6,.cls-7,.cls-8,.cls-9,.cls-10,.cls-11,.cls-12,.cls-13,.cls-14,.cls-15,.cls-16,.cls-17,.cls-18,.cls-19,.cls-20,.cls-21,.cls-22,.cls-23,.cls-24,.cls-25,.cls-26,.cls-27,.cls-28,.cls-29,.cls-30,.cls-31,.cls-32,.cls-33,.cls-34,.cls-35,.cls-36{stroke-width:0px;}.cls-1,.cls-2,.cls-3,.cls-4,.cls-5,.cls-6,.cls-7,.cls-8,.cls-9,.cls-10,.cls-11,.cls-12,.cls-13,.cls-14,.cls-15,.cls-33,.cls-34,.cls-35,.cls-36{isolation:isolate;}.cls-1,.cls-2,.cls-4,.cls-9,.cls-25,.cls-33{fill:#fff;}.cls-1,.cls-37{opacity:.9;}.cls-2{opacity:.6;}.cls-3,.cls-13,.cls-14{opacity:.4;}.cls-4,.cls-5,.cls-38{opacity:.7;}.cls-5,.cls-11,.cls-13,.cls-24{fill:#32a3d3;}.cls-6,.cls-7,.cls-8,.cls-12{opacity:.2;}.cls-6,.cls-10,.cls-16,.cls-34{fill:#606060;}.cls-7,.cls-14,.cls-18,.cls-35{fill:#25688f;}.cls-8,.cls-17{fill:#263238;}.cls-9{opacity:.8;}.cls-10,.cls-11,.cls-39,.cls-15{opacity:.3;}.cls-40,.cls-33,.cls-34,.cls-35{opacity:.5;}.cls-19{fill:#407bff;}.cls-20{fill:#e0e0e0;}.cls-21{fill:#d4827d;}.cls-22{fill:#b97964;}.cls-23{fill:#a24e3f;}.cls-26{fill:#eec1bb;}.cls-27{fill:#ffc3bd;}.cls-28{fill:#fafafa;}.cls-29{fill:#ebebeb;}.cls-30{fill:#f0f0f0;}.cls-31{fill:#e6e6e6;}.cls-32{fill:#f5f5f5;}.cls-36{opacity:.1;}</style></defs><rect class="cls-29" x="243.51" y="13.71" width="124.79" height="132.89"/><rect class="cls-32" x="251.01" y="21.21" width="109.79" height="117.89"/><polygon class="cls-28" points="294.1 139.1 327.1 139.1 358.08 21.21 325.08 21.21 294.1 139.1"/><polygon class="cls-28" points="309.75 21.21 278.77 139.1 286.77 139.1 317.75 21.21 309.75 21.21"/><polygon class="cls-32" points="369.88 19.96 241.93 19.96 239.23 13.66 372.58 13.66 369.88 19.96"/><polygon class="cls-30" points="369.88 23.61 241.93 23.61 239.23 17.31 372.58 17.31 369.88 23.61"/><polygon class="cls-31" points="369.88 27.26 241.93 27.26 239.23 20.96 372.58 20.96 369.88 27.26"/><polygon class="cls-20" points="369.88 30.91 241.93 30.91 239.23 24.61 372.58 24.61 369.88 30.91"/><rect class="cls-20" x="234.58" y="5.77" width="142.65" height="8.4"/><path class="cls-20" d="m236.04,90.33h0c-.8,0-1.45-.65-1.45-1.45v-48.99c0-.8.65-1.45,1.45-1.45h0c.8,0,1.45.65,1.45,1.45v48.99c0,.8-.65,1.45-1.45,1.45Z"/><rect class="cls-20" x="235.52" y="12.49" width="1.05" height="29.1"/><rect class="cls-20" x="40.28" y="11.14" width="1.8" height="140.37"/><rect class="cls-20" x="152.33" y="11.14" width="1.8" height="140.37"/><polygon class="cls-32" points="161.18 19.96 33.23 19.96 30.53 13.66 163.88 13.66 161.18 19.96"/><polygon class="cls-32" points="161.18 28.61 33.23 28.61 30.53 22.31 163.88 22.31 161.18 28.61"/><polygon class="cls-32" points="161.18 37.26 33.23 37.26 30.53 30.96 163.88 30.96 161.18 37.26"/><polygon class="cls-32" points="161.18 45.91 33.23 45.91 30.53 39.61 163.88 39.61 161.18 45.91"/><polygon class="cls-32" points="161.18 54.56 33.23 54.56 30.53 48.26 163.88 48.26 161.18 54.56"/><polygon class="cls-32" points="161.18 63.21 33.23 63.21 30.53 56.91 163.88 56.91 161.18 63.21"/><polygon class="cls-32" points="161.18 71.86 33.23 71.86 30.53 65.56 163.88 65.56 161.18 71.86"/><polygon class="cls-32" points="161.18 80.51 33.23 80.51 30.53 74.21 163.88 74.21 161.18 80.51"/><polygon class="cls-32" points="161.18 89.16 33.23 89.16 30.53 82.86 163.88 82.86 161.18 89.16"/><polygon class="cls-32" points="161.18 97.81 33.23 97.81 30.53 91.51 163.88 91.51 161.18 97.81"/><polygon class="cls-32" points="161.18 106.46 33.23 106.46 30.53 100.16 163.88 100.16 161.18 106.46"/><polygon class="cls-32" points="161.18 115.11 33.23 115.11 30.53 108.81 163.88 108.81 161.18 115.11"/><polygon class="cls-32" points="161.18 123.75 33.23 123.75 30.53 117.46 163.88 117.46 161.18 123.75"/><polygon class="cls-32" points="161.18 132.4 33.23 132.4 30.53 126.1 163.88 126.1 161.18 132.4"/><polygon class="cls-32" points="161.18 141.05 33.23 141.05 30.53 134.75 163.88 134.75 161.18 141.05"/><polygon class="cls-32" points="161.18 149.7 33.23 149.7 30.53 143.4 163.88 143.4 161.18 149.7"/><rect class="cls-20" x="30.53" y="149.7" width="133.35" height="3.6"/><rect class="cls-20" x="25.88" y="5.77" width="142.65" height="8.4"/><path class="cls-20" d="m27.34,90.33h0c-.8,0-1.45-.65-1.45-1.45v-48.99c0-.8.65-1.45,1.45-1.45h0c.8,0,1.45.65,1.45,1.45v48.99c0,.8-.65,1.45-1.45,1.45Z"/><rect class="cls-20" x="26.82" y="12.49" width="1.05" height="29.1"/><path class="cls-29" d="m40.87,241.42c-.12.14.55,1.08-2.19.66-6.75-1.01-18.5-3.75-21.77-10.69-4.67-9.91,9.81-6.3,9.31-11.36s-16.98-4.18-18.73-11.62c-1.75-7.43,9.43-3.89,9.58-7.52.15-3.62-12.73-1.37-15.29-9.39-2.56-8.02,7.18-2.12,6.06-5.45-1.12-3.33-12.01-18.42-6.09-20.17,5.93-1.75,15.92,13.73,19.77,15.92s7.28-10.44,11.87-5.11-2.69,23.99,3.17,27.61c4.36,2.7,3.13-4.73,8.89-3.35,7.82,1.89,5.19,29.51-4.59,40.45Z"/><path class="cls-32" d="m20.04,200.94c2.65.22,4.61.76,5.83,1.2-2.38-3.48-4.09-5.27-4.15-5.33-.19-.2-.19-.51,0-.71.2-.19.51-.19.71,0,.05.05,3.99,4.11,8.31,12.06,2.12-12.79-3.23-23.96-3.29-24.08-.09-.19-.01-.41.17-.5.18-.09.41-.01.5.17.06.12,5.78,12.05,3.18,25.47.69,1.32,1.39,2.72,2.07,4.24,1.98,4.37,4.06,9.97,5.7,16.71,1.14-2.06,3.75-7.57,3.98-15.26,0-.21.18-.37.39-.36.21.01.37.18.36.39-.27,8.9-3.68,14.99-4.47,16.29,2.17,9.36,3.47,20.88,2.54,34.46-.02.28-.26.48-.53.46-.02,0-.04,0-.06,0-.24-.05-.42-.27-.4-.52,1.24-17.97-1.45-32.42-5.17-43.36-.94-1.09-3.73-3.89-7.98-4.55-.19-.05-.35-.23-.31-.43.03-.2.22-.34.43-.31,3.36.53,5.82,2.27,7.28,3.62-2.74-7.6-5.94-13.38-8.53-17.33-.83-.38-3.11-1.26-6.63-1.56-.2-.03-.36-.2-.34-.4.01-.21.2-.36.4-.34Z"/><path class="cls-20" d="m49.52,245.25c5.61.11,15.19-5.1,18.95-10.17,3.82-5.14-6.92-1.95-5.82-5.99,1.1-4.04,14.34-1.05,16.78-6.84,2.44-5.78-7.11-4.45-6.73-7.41.38-2.96,10.27-2.36,13.45-8.5,3.18-6.15-5.52-2.7-4.16-5.25,1.37-2.55,12.27-13.27,7.71-15.51-4.56-2.23-14.79,8.93-18.21,10.18-3.43,1.25-4.23-6.47-8.68-2.78-4.46,3.69-1.12,19.81-6.37,21.94-3.91,1.58-2.25-5.8-6.75-3.93-7.87,3.26-2.44,34.21-.17,34.25Z"/><g class="cls-39"><path class="cls-20" d="m49.52,245.25c5.61.11,15.19-5.1,18.95-10.17,3.82-5.14-6.92-1.95-5.82-5.99,1.1-4.04,14.34-1.05,16.78-6.84,2.44-5.78-7.11-4.45-6.73-7.41.38-2.96,10.27-2.36,13.45-8.5,3.18-6.15-5.52-2.7-4.16-5.25,1.37-2.55,12.27-13.27,7.71-15.51-4.56-2.23-14.79,8.93-18.21,10.18-3.43,1.25-4.23-6.47-8.68-2.78-4.46,3.69-1.12,19.81-6.37,21.94-3.91,1.58-2.25-5.8-6.75-3.93-7.87,3.26-2.44,34.21-.17,34.25Z"/></g><path class="cls-32" d="m51.37,238.52c-.08-.03-.15-.08-.2-.16-.13-.25-3.21-6.2-2.52-15.03.02-.21.19-.36.4-.35.21.02.36.2.35.4-.58,7.46,1.64,12.92,2.27,14.29,2.51-6.82,5.52-12.88,8.54-18.07-.99-12.04,5.18-21.9,5.24-22,.11-.17.34-.23.52-.11.18.11.23.34.11.52-.06.09-5.73,9.16-5.2,20.44,7.19-12.04,14.2-19.03,14.34-19.17.2-.19.51-.19.71,0,.19.2.19.51,0,.71-.12.11-5.11,5.1-10.94,13.84,3.42-1.27,7.13-1.93,10.6-1.87.21,0,.37.17.37.38,0,.2-.17.37-.38.37h0c-3.71-.07-7.71.71-11.31,2.2-2.01,3.08-4.09,6.6-6.1,10.49,1.93-1.3,5.67-3.11,10.46-1.84.2.05.32.26.27.46s-.26.32-.46.27c-6.07-1.6-10.36,2.03-11.06,2.67-5.5,11.07-10.24,25.07-10.87,41.11-.01.27-.23.48-.5.48h-.02c-.28-.01-.49-.24-.48-.52.43-10.86,2.73-20.78,5.86-29.52Z"/><path class="cls-30" d="m33.75,300.02c-5.35-10.07-8.87-24.61-8.87-30.98,0-5.39,2.53-10.22,6.54-13.61h27.41c4.01,3.39,6.54,8.22,6.54,13.61,0,6.38-3.52,20.92-8.87,30.98h-22.74Z"/><g id="Shadow"><ellipse id="_Path_" class="cls-32" cx="196.73" cy="331.43" rx="193.89" ry="11.32"/></g><path class="cls-19" d="m244.21,38.68h-23.98c-1.57,0-3,1.17-3.33,2.73l-.16.75c-.82,3.81-4.31,6.66-8.14,6.66h-22.8c-3.84,0-6.82-2.85-6.98-6.66l-.03-.75c-.06-1.56-1.29-2.73-2.86-2.73h-23.98c-8,0-15.05,6.48-15.75,14.48l-19.29,220.54c-.7,8,5.22,14.48,13.22,14.48h92.27c8,0,15.05-6.48,15.75-14.48l19.3-220.54c.7-8-5.22-14.48-13.22-14.48Z"/><path class="cls-24" d="m244.21,38.68h-23.98c-1.57,0-3,1.17-3.33,2.73l-.16.75c-.82,3.81-4.31,6.66-8.14,6.66h-22.8c-3.84,0-6.82-2.85-6.98-6.66l-.03-.75c-.06-1.56-1.29-2.73-2.86-2.73h-23.98c-8,0-15.05,6.48-15.75,14.48l-19.29,220.54c-.7,8,5.22,14.48,13.22,14.48h92.27c8,0,15.05-6.48,15.75-14.48l19.3-220.54c.7-8-5.22-14.48-13.22-14.48Z"/><path class="cls-25" d="m234.85,140.12h-48.99c-1.78,0-3.09-1.44-2.94-3.22l3.69-42.19c.16-1.78,1.72-3.22,3.5-3.22h48.99c1.78,0,3.09,1.44,2.94,3.22l-3.69,42.19c-.15,1.78-1.72,3.22-3.5,3.22Z"/><path class="cls-25" d="m218.54,272.04h-81.99c-4.41,0-7.68-3.58-7.29-7.99h0c.39-4.41,4.28-7.99,8.69-7.99h81.99c4.41,0,7.68,3.58,7.29,7.99h0c-.39,4.41-4.28,7.99-8.69,7.99Z"/><path class="cls-25" d="m225.09,79.89h-75.23c-2.48,0-4.31-2.01-4.1-4.49l.61-7.01c.22-2.48,2.4-4.49,4.88-4.49h75.23c2.48,0,4.31,2.01,4.1,4.49l-.61,7.01c-.22,2.48-2.4,4.49-4.88,4.49Z"/><path class="cls-25" d="m240.38,68.17c-.06.69-.67,1.25-1.36,1.25s-1.2-.56-1.14-1.25c.06-.69.67-1.25,1.36-1.25s1.2.56,1.14,1.25Z"/><path class="cls-25" d="m240.06,71.9c-.06.69-.67,1.25-1.36,1.25s-1.2-.56-1.14-1.25c.06-.69.67-1.25,1.36-1.25s1.2.56,1.14,1.25Z"/><path class="cls-25" d="m239.73,75.63c-.06.69-.67,1.25-1.36,1.25s-1.2-.56-1.14-1.25c.06-.69.67-1.25,1.36-1.25s1.2.56,1.14,1.25Z"/><path class="cls-25" d="m228.76,209.72h-91.53c-1.78,0-3.09-1.44-2.94-3.22l4.21-48.15c.16-1.78,1.72-3.22,3.5-3.22h91.53c1.78,0,3.09,1.44,2.94,3.22l-4.21,48.15c-.15,1.78-1.72,3.22-3.5,3.22Z"/><path class="cls-25" d="m162.41,219.78h-28.5c-.43,0-.76-.35-.72-.79h0c.04-.43.42-.79.85-.79h28.5c.43,0,.76.35.72.79h0c-.04.43-.42.79-.85.79Z"/><path class="cls-25" d="m198.03,219.78h-30.59c-.43,0-.76-.35-.72-.79h0c.04-.43.42-.79.85-.79h30.59c.43,0,.76.35.72.79h0c-.04.43-.42.79-.85.79Z"/><path class="cls-25" d="m152.59,226.73h-19.28c-.43,0-.76-.35-.72-.79h0c.04-.43.42-.79.85-.79h19.28c.43,0,.76.35.72.79h0c-.04.43-.42.79-.86.79Z"/><path class="cls-25" d="m189.19,226.73h-31.58c-.43,0-.76-.35-.72-.79h0c.04-.43.42-.79.85-.79h31.58c.43,0,.76.35.72.79h0c-.04.43-.42.79-.85.79Z"/><path class="cls-25" d="m184.09,233.67h-51.39c-.43,0-.76-.35-.72-.79h0c.04-.43.42-.79.85-.79h51.39c.43,0,.76.35.72.79h0c-.04.43-.42.79-.85.79Z"/><path class="cls-25" d="m192.51,233.67h-3.39c-.43,0-.76-.35-.72-.79h0c.04-.43.42-.79.85-.79h3.39c.43,0,.76.35.72.79h0c-.04.43-.42.79-.85.79Z"/><path class="cls-25" d="m156.09,240.62h-23.99c-.43,0-.76-.35-.72-.79h0c.04-.43.42-.79.85-.79h23.99c.43,0,.76.35.72.79h0c-.04.43-.42.79-.85.79Z"/><path class="cls-25" d="m190.99,240.62h-29.87c-.43,0-.76-.35-.72-.79h0c.04-.43.42-.79.85-.79h29.87c.43,0,.76.35.72.79h0c-.04.43-.42.79-.85.79Z"/><path class="cls-25" d="m161.03,247.56h-29.54c-.43,0-.76-.35-.72-.79h0c.04-.43.42-.79.85-.79h29.54c.43,0,.76.35.72.79h0c-.04.43-.42.79-.85.79Z"/><path class="cls-25" d="m189.86,247.56h-23.8c-.43,0-.76-.35-.72-.79h0c.04-.43.42-.79.85-.79h23.8c.43,0,.76.35.72.79h0c-.04.43-.42.79-.85.79Z"/><path class="cls-19" d="m233.69,136.12c-.4.41-1.04.45-1.42.09l-40.93-39.06c-.38-.37-.37-1,.03-1.41h0c.4-.41,1.04-.45,1.42-.09l40.93,39.06c.38.37.37,1-.03,1.41h0Z"/><path class="cls-19" d="m187.72,136.11h0c-.33-.41-.23-1.05.21-1.41l20.88-17.07c.45-.37,1.08-.32,1.4.09h0c.33.41.23,1.05-.21,1.41l-20.88,17.07c-.45.37-1.07.33-1.4-.09Z"/><path class="cls-19" d="m214.7,114.04h0c-.33-.41-.23-1.05.21-1.41l20.92-17.1c.45-.37,1.08-.32,1.4.09h0c.33.41.23,1.05-.21,1.41l-20.92,17.1c-.45.37-1.08.33-1.4-.09Z"/><g class="cls-38"><path class="cls-25" d="m233.69,136.12c-.4.41-1.04.45-1.42.09l-40.93-39.06c-.38-.37-.37-1,.03-1.41h0c.4-.41,1.04-.45,1.42-.09l40.93,39.06c.38.37.37,1-.03,1.41h0Z"/></g><g class="cls-38"><path class="cls-25" d="m187.72,136.11h0c-.33-.41-.23-1.05.21-1.41l20.88-17.07c.45-.37,1.08-.32,1.4.09h0c.33.41.23,1.05-.21,1.41l-20.88,17.07c-.45.37-1.07.33-1.4-.09Z"/></g><g class="cls-38"><path class="cls-25" d="m214.7,114.04h0c-.33-.41-.23-1.05.21-1.41l20.92-17.1c.45-.37,1.08-.32,1.4.09h0c.33.41.23,1.05-.21,1.41l-20.92,17.1c-.45.37-1.08.33-1.4-.09Z"/></g><path class="cls-24" d="m117.3,33.89h-12.95c-2.63,0-4.76,2.13-4.76,4.75v12.95c0,2.63,2.13,4.76,4.76,4.76h12.95c2.63,0,4.76-2.13,4.76-4.76v-12.95c0-2.63-2.13-4.75-4.76-4.75Zm-6.48,4.6c1.96,0,3.01,1.58,3.01,3.54s-1.05,3.54-3.01,3.54-3.01-1.58-3.01-3.54c0-1.96,1.05-3.54,3.01-3.54Zm7.82,13.27h-15.64c-.13,0-.25-.05-.33-.14l1-2.74c.65-1.76,2.32-2.93,4.2-2.93h5.9c1.88,0,3.55,1.17,4.2,2.93l1,2.74c-.09.09-.2.14-.33.14Z"/><path class="cls-5" d="m117.3,33.89h-12.95c-2.63,0-4.76,2.13-4.76,4.75v12.95c0,2.63,2.13,4.76,4.76,4.76h12.95c2.63,0,4.76-2.13,4.76-4.76v-12.95c0-2.63-2.13-4.75-4.76-4.75Zm-6.48,4.6c1.96,0,3.01,1.58,3.01,3.54s-1.05,3.54-3.01,3.54-3.01-1.58-3.01-3.54c0-1.96,1.05-3.54,3.01-3.54Zm7.82,13.27h-15.64c-.13,0-.25-.05-.33-.14l1-2.74c.65-1.76,2.32-2.93,4.2-2.93h5.9c1.88,0,3.55,1.17,4.2,2.93l1,2.74c-.09.09-.2.14-.33.14Z"/><path class="cls-18" d="m71.21,87.16h-9.84c-3.54,0-6.41,2.87-6.41,6.41v9.84c0,3.54,2.87,6.41,6.41,6.41h9.84c3.54,0,6.41-2.87,6.41-6.41v-9.84c0-3.54-2.87-6.41-6.41-6.41Zm-4.92,16.7s-4.04-4.4-4.04-6.63,1.81-4.04,4.04-4.04,4.04,1.81,4.04,4.04c0,2.23-4.04,6.63-4.04,6.63Z"/><path class="cls-18" d="m66.29,95.38c-1.02,0-1.85.83-1.85,1.85s.83,1.85,1.85,1.85,1.85-.83,1.85-1.85-.83-1.85-1.85-1.85Z"/><g class="cls-38"><path class="cls-18" d="m71.21,87.16h-9.84c-3.54,0-6.41,2.87-6.41,6.41v9.84c0,3.54,2.87,6.41,6.41,6.41h9.84c3.54,0,6.41-2.87,6.41-6.41v-9.84c0-3.54-2.87-6.41-6.41-6.41Zm-4.92,16.7s-4.04-4.4-4.04-6.63,1.81-4.04,4.04-4.04,4.04,1.81,4.04,4.04c0,2.23-4.04,6.63-4.04,6.63Z"/><path class="cls-18" d="m66.29,95.38c-1.02,0-1.85.83-1.85,1.85s.83,1.85,1.85,1.85,1.85-.83,1.85-1.85-.83-1.85-1.85-1.85Z"/></g><polygon class="cls-24" points="287.25 59.27 293.84 55.01 287.25 50.74 287.25 59.27"/><path class="cls-24" d="m295.74,43.38h-12.56c-2.96,0-5.35,2.4-5.35,5.35v12.56c0,2.96,2.4,5.35,5.35,5.35h12.56c2.95,0,5.35-2.4,5.35-5.35v-12.56c0-2.96-2.4-5.35-5.35-5.35Zm-6.28,19.99c-4.62,0-8.36-3.74-8.36-8.37s3.74-8.36,8.36-8.36,8.36,3.75,8.36,8.36c0,4.62-3.75,8.37-8.36,8.37Z"/><g class="cls-38"><polygon class="cls-24" points="287.25 59.27 293.84 55.01 287.25 50.74 287.25 59.27"/><path class="cls-24" d="m295.74,43.38h-12.56c-2.96,0-5.35,2.4-5.35,5.35v12.56c0,2.96,2.4,5.35,5.35,5.35h12.56c2.95,0,5.35-2.4,5.35-5.35v-12.56c0-2.96-2.4-5.35-5.35-5.35Zm-6.28,19.99c-4.62,0-8.36-3.74-8.36-8.37s3.74-8.36,8.36-8.36,8.36,3.75,8.36,8.36c0,4.62-3.75,8.37-8.36,8.37Z"/></g><path class="cls-24" d="m308.07,91.55c0-.26-.01-.52-.04-.77l1.51-.84c-.11-.73-.3-1.43-.56-2.09l-1.72.03c-.22-.47-.48-.91-.77-1.33l.89-1.48c-.46-.56-.97-1.08-1.53-1.53l-1.48.89c-.42-.29-.86-.55-1.33-.77l.03-1.72c-.67-.26-1.37-.45-2.09-.56l-.84,1.51c-.25-.02-.51-.04-.77-.04s-.52.01-.77.04l-.84-1.51c-.73.11-1.43.3-2.09.56l.03,1.72c-.47.22-.92.48-1.33.77l-1.48-.89c-.56.46-1.08.97-1.53,1.53l.89,1.48c-.3.42-.55.87-.77,1.33l-1.72-.03c-.26.67-.45,1.37-.56,2.09l1.51.84c-.02.25-.04.51-.04.77s.01.52.04.77l-1.51.84c.11.73.3,1.43.56,2.09l1.72-.03c.22.47.48.91.77,1.33l-.89,1.48c.46.56.97,1.08,1.53,1.53l1.48-.89c.42.29.86.55,1.33.77l-.03,1.72c.67.26,1.37.45,2.09.56l.84-1.51c.25.02.51.04.77.04s.52-.01.77-.04l.84,1.51c.73-.11,1.43-.3,2.09-.56l-.03-1.72c.47-.22.92-.48,1.33-.77l1.48.89c.56-.46,1.08-.97,1.53-1.53l-.89-1.48c.3-.42.55-.87.77-1.33l1.72.03c.26-.67.45-1.37.56-2.09l-1.51-.84c.02-.26.04-.51.04-.77Zm-8.71,5.92c-3.27,0-5.92-2.65-5.92-5.92s2.65-5.92,5.92-5.92,5.92,2.65,5.92,5.92-2.65,5.92-5.92,5.92Z"/><path class="cls-5" d="m308.07,91.55c0-.26-.01-.52-.04-.77l1.51-.84c-.11-.73-.3-1.43-.56-2.09l-1.72.03c-.22-.47-.48-.91-.77-1.33l.89-1.48c-.46-.56-.97-1.08-1.53-1.53l-1.48.89c-.42-.29-.86-.55-1.33-.77l.03-1.72c-.67-.26-1.37-.45-2.09-.56l-.84,1.51c-.25-.02-.51-.04-.77-.04s-.52.01-.77.04l-.84-1.51c-.73.11-1.43.3-2.09.56l.03,1.72c-.47.22-.92.48-1.33.77l-1.48-.89c-.56.46-1.08.97-1.53,1.53l.89,1.48c-.3.42-.55.87-.77,1.33l-1.72-.03c-.26.67-.45,1.37-.56,2.09l1.51.84c-.02.25-.04.51-.04.77s.01.52.04.77l-1.51.84c.11.73.3,1.43.56,2.09l1.72-.03c.22.47.48.91.77,1.33l-.89,1.48c.46.56.97,1.08,1.53,1.53l1.48-.89c.42.29.86.55,1.33.77l-.03,1.72c.67.26,1.37.45,2.09.56l.84-1.51c.25.02.51.04.77.04s.52-.01.77-.04l.84,1.51c.73-.11,1.43-.3,2.09-.56l-.03-1.72c.47-.22.92-.48,1.33-.77l1.48.89c.56-.46,1.08-.97,1.53-1.53l-.89-1.48c.3-.42.55-.87.77-1.33l1.72.03c.26-.67.45-1.37.56-2.09l-1.51-.84c.02-.26.04-.51.04-.77Zm-8.71,5.92c-3.27,0-5.92-2.65-5.92-5.92s2.65-5.92,5.92-5.92,5.92,2.65,5.92,5.92-2.65,5.92-5.92,5.92Z"/><path class="cls-24" d="m285.29,121.28c0-.39-.02-.77-.05-1.15l2.26-1.25c-.17-1.09-.46-2.13-.84-3.13l-2.58.04c-.33-.7-.71-1.37-1.15-1.99l1.33-2.21c-.68-.84-1.45-1.61-2.29-2.29l-2.21,1.33c-.63-.44-1.29-.83-1.99-1.15l.04-2.58c-1-.38-2.05-.67-3.13-.84l-1.25,2.26c-.38-.03-.76-.05-1.15-.05s-.77.02-1.15.05l-1.25-2.26c-1.09.17-2.13.46-3.13.84l.04,2.58c-.7.33-1.37.71-1.99,1.15l-2.21-1.33c-.84.68-1.61,1.45-2.29,2.29l1.33,2.21c-.44.63-.83,1.29-1.15,1.99l-2.58-.04c-.38,1-.67,2.04-.84,3.13l2.26,1.25c-.03.38-.05.76-.05,1.15s.02.77.05,1.15l-2.26,1.25c.17,1.09.46,2.13.84,3.13l2.58-.04c.33.7.71,1.37,1.15,1.99l-1.33,2.21c.68.84,1.45,1.61,2.29,2.29l2.21-1.33c.63.44,1.29.83,1.99,1.15l-.04,2.58c1,.38,2.05.67,3.13.84l1.25-2.26c.38.03.76.05,1.15.05s.77-.02,1.15-.05l1.25,2.26c1.09-.17,2.13-.46,3.13-.84l-.04-2.58c.7-.33,1.37-.71,1.99-1.15l2.21,1.33c.84-.68,1.61-1.45,2.29-2.29l-1.33-2.21c.44-.63.83-1.29,1.15-1.99l2.58.04c.38-1,.67-2.04.84-3.13l-2.26-1.25c.03-.38.05-.76.05-1.15Zm-13.04,5.14c-2.84,0-5.14-2.3-5.14-5.14s2.3-5.14,5.14-5.14,5.14,2.3,5.14,5.14-2.3,5.14-5.14,5.14Z"/><path class="cls-5" d="m285.29,121.28c0-.39-.02-.77-.05-1.15l2.26-1.25c-.17-1.09-.46-2.13-.84-3.13l-2.58.04c-.33-.7-.71-1.37-1.15-1.99l1.33-2.21c-.68-.84-1.45-1.61-2.29-2.29l-2.21,1.33c-.63-.44-1.29-.83-1.99-1.15l.04-2.58c-1-.38-2.05-.67-3.13-.84l-1.25,2.26c-.38-.03-.76-.05-1.15-.05s-.77.02-1.15.05l-1.25-2.26c-1.09.17-2.13.46-3.13.84l.04,2.58c-.7.33-1.37.71-1.99,1.15l-2.21-1.33c-.84.68-1.61,1.45-2.29,2.29l1.33,2.21c-.44.63-.83,1.29-1.15,1.99l-2.58-.04c-.38,1-.67,2.04-.84,3.13l2.26,1.25c-.03.38-.05.76-.05,1.15s.02.77.05,1.15l-2.26,1.25c.17,1.09.46,2.13.84,3.13l2.58-.04c.33.7.71,1.37,1.15,1.99l-1.33,2.21c.68.84,1.45,1.61,2.29,2.29l2.21-1.33c.63.44,1.29.83,1.99,1.15l-.04,2.58c1,.38,2.05.67,3.13.84l1.25-2.26c.38.03.76.05,1.15.05s.77-.02,1.15-.05l1.25,2.26c1.09-.17,2.13-.46,3.13-.84l-.04-2.58c.7-.33,1.37-.71,1.99-1.15l2.21,1.33c.84-.68,1.61-1.45,2.29-2.29l-1.33-2.21c.44-.63.83-1.29,1.15-1.99l2.58.04c.38-1,.67-2.04.84-3.13l-2.26-1.25c.03-.38.05-.76.05-1.15Zm-13.04,5.14c-2.84,0-5.14-2.3-5.14-5.14s2.3-5.14,5.14-5.14,5.14,2.3,5.14,5.14-2.3,5.14-5.14,5.14Z"/><path class="cls-18" d="m248.52,63.3v5.24l-4.98,2.63c-.86.46-.86,1.69,0,2.15l4.98,2.63v5.24c0,1.17.95,2.12,2.12,2.12h17.89c1.17,0,2.12-.95,2.12-2.12v-17.89c0-1.17-.95-2.12-2.12-2.12h-17.89c-1.17,0-2.12.95-2.12,2.12Z"/><g class="cls-37"><path class="cls-25" d="m254.68,68.76h10.16c.69,0,1.25-.56,1.25-1.25s-.56-1.25-1.25-1.25h-10.16c-.69,0-1.25.56-1.25,1.25s.56,1.25,1.25,1.25Z"/><path class="cls-25" d="m264.84,70.99h-10.16c-.69,0-1.25.56-1.25,1.25s.56,1.25,1.25,1.25h10.16c.69,0,1.25-.56,1.25-1.25s-.56-1.25-1.25-1.25Z"/><path class="cls-25" d="m264.84,75.73h-10.16c-.69,0-1.25.56-1.25,1.25s.56,1.25,1.25,1.25h10.16c.69,0,1.25-.56,1.25-1.25s-.56-1.25-1.25-1.25Z"/></g><path class="cls-18" d="m147.45,55.08h4.27l2.2,4.18c.64,1.21,2.37,1.21,3,0l2.2-4.18h4.27c1.7,0,3.08-1.38,3.08-3.08v-15.95c0-1.7-1.38-3.08-3.08-3.08h-15.95c-1.7,0-3.08,1.38-3.08,3.08v15.95c0,1.7,1.38,3.08,3.08,3.08Z"/><polygon class="cls-1" points="155.44 37.73 150.51 40.61 150.51 49.03 154.18 49.03 154.18 43.38 156.7 43.38 156.7 49.03 160.37 49.03 160.37 40.61 155.44 37.73"/><path class="cls-18" d="m195.35,283.83h-3.85l-2.46-4.65c-.53-1-1.97-1-2.5,0l-2.46,4.65h-3.85c-1.94,0-3.51,1.57-3.51,3.51v15.1c0,1.94,1.57,3.51,3.51,3.51h15.1c1.94,0,3.51-1.57,3.51-3.51v-15.1c0-1.94-1.57-3.51-3.51-3.51Z"/><path class="cls-1" d="m189.94,289.6c-2.13-2.13-5.6-2.13-7.73,0s-2.13,5.6,0,7.73c1.89,1.89,4.83,2.1,6.95.64.04.24.15.48.34.67l3.39,3.39c.48.48,1.25.48,1.73,0s.48-1.25,0-1.73l-3.39-3.39c-.19-.19-.42-.3-.66-.34,1.46-2.13,1.25-5.06-.63-6.95Zm-1.15,6.57c-1.49,1.49-3.92,1.49-5.41,0s-1.49-3.92,0-5.42c1.49-1.49,3.92-1.49,5.41,0,1.49,1.49,1.49,3.92,0,5.42Z"/><path class="cls-26" d="m356.84,183.27s-8.15,20.2-16.13,22.39-20.01.41-20.01.41l-3.72,1.02-3.65-.54s-.08-.01-.13-.01l-4.12-.1c-.7-.02-1.09-.7-.7-1.24l1.48-2.04c.12-.16.29-.28.49-.35l3.92-1.26c.15-.05.32-.06.48-.04l5.99.95s16.65-2.73,18.35-4.27c1.69-1.54,6.71-17.69,6.71-17.69l11.05,2.77Z"/><path class="cls-36" d="m321.12,202.4c-.25.04-.38.06-.38.06l-5.99-.95c-.16-.02-.32-.01-.48.04l-3.92,1.26c-.2.06-.37.19-.49.35l-1.48,2.04c-.39.54,0,1.22.7,1.24l4.12.1s.08,0,.12.01l2.45.36c1.82-.79,3.63-2.44,5.33-4.51Z"/><path class="cls-19" d="m361.76,163.26c-5.92-1.94-14.25,2.51-17.44,21.15l12.29,3.59s13.61-21.96,5.15-24.74Z"/><path class="cls-17" d="m327.32,138.9c0,.61.33,1.11.73,1.1.4,0,.75-.53.72-1.12-.02-.6-.33-1.11-.73-1.1-.4,0-.72.51-.72,1.12Z"/><path class="cls-21" d="m329.75,139.51l-2.91,4.81s1.01,1.14,3.19.3l-.28-5.11Z"/><path class="cls-17" d="m330.29,135.07c-.07.08-.18.12-.29.11-.8-.14-1.61.12-2.19.68-.12.13-.32.15-.45.03-.13-.12-.14-.32-.03-.45.72-.74,1.75-1.07,2.76-.9.18.02.3.19.27.36h0c0,.06-.04.12-.08.17Z"/><path class="cls-26" d="m350.85,134.54c.45,8.13.82,11.57-2.76,16.19-5.73,4.95-15.49,5.74-18.37-2.1-2.59-7.05-2.9-19.13,4.63-23.32,5.36-2.98,12.13-1.05,15.12,4.31.84,1.51,1.31,3.19,1.39,4.91Z"/><polygon class="cls-26" points="339.52 152.34 341.58 164.38 351.62 162.06 348.11 149.76 339.52 152.34"/><path class="cls-17" d="m332.29,135.14c.51-5.28-1.3.82-3.75-6.15-2.45-6.97,9.09-12.63,10.94-11.33,1.85,1.3.79,3.3,6.89,4.42s5.84,7.05,5.84,7.05c0,0,3.51,1.63,2.26,9.17-1.25,7.54-6.01,13.24-6.01,13.24,0,0-2.31-2.38-5.96-.18,0,0-1.8-1.01-3.57-3.65-1.65-2.46-2.15-4.79-4.41-5-4.73-.42-2.4-5.83-2.23-7.57Z"/><path class="cls-17" d="m351.55,130.05s4.98-3.06,2.78-6.27c-2.2-3.21-1.14,3.53-2.78,6.27Z"/><path class="cls-27" d="m333.73,138.21c-1.11,1.24-1.68,2.87-1.59,4.53.14,2.2,2.3,2.59,4,1.39,1.54-1.09,3.31-3.54,2.33-5.47-.98-1.93-3.36-1.95-4.74-.45Z"/><path class="cls-36" d="m339.72,153.47l.82,4.78c-.05-4.37,2.26-6.53,2.26-6.53-2.35.35-3.08,1.75-3.08,1.75Z"/><rect class="cls-19" x="266.25" y="184.55" width="2.87" height="16.93"/><rect class="cls-4" x="266.25" y="184.55" width="2.87" height="16.93"/><path class="cls-18" d="m249.4,150.93h-7.15c-2.68,0-4.85,2.17-4.85,4.85v33.12c0,2.68,2.17,4.85,4.85,4.85h7.15v-42.82Z"/><path class="cls-19" d="m293.12,193.76h-48.37c-2.68,0-4.85-2.17-4.85-4.85v-33.12c0-2.68,2.17-4.85,4.85-4.85h48.37c2.68,0,4.85,2.17,4.85,4.85v33.12c0,2.68-2.17,4.85-4.85,4.85Z"/><path class="cls-33" d="m293.12,193.76h-48.37c-2.68,0-4.85-2.17-4.85-4.85v-33.12c0-2.68,2.17-4.85,4.85-4.85h48.37c2.68,0,4.85,2.17,4.85,4.85v33.12c0,2.68-2.17,4.85-4.85,4.85Z"/><path class="cls-5" d="m244.75,152.94c-1.57,0-2.85,1.28-2.85,2.85v33.12c0,1.57,1.28,2.85,2.85,2.85h48.38c1.57,0,2.85-1.28,2.85-2.85v-33.12c0-1.57-1.28-2.85-2.85-2.85h-48.38Z"/><path class="cls-18" d="m257.24,208.58c0-5.77,4.68-10.44,10.44-10.44s10.44,4.68,10.44,10.44h-20.89Z"/><polygon class="cls-19" points="281.9 205.02 261.01 205.02 261.01 208.41 302.79 208.41 302.79 207.02 281.9 205.02"/><polygon class="cls-9" points="281.9 205.02 261.01 205.02 261.01 208.41 302.79 208.41 302.79 207.02 281.9 205.02"/><polygon class="cls-19" points="281.9 208.41 261.01 208.41 261.01 205.02 281.9 207.02 281.9 208.41"/><polygon class="cls-2" points="281.9 208.41 261.01 208.41 261.01 205.02 281.9 207.02 281.9 208.41"/><path class="cls-17" d="m327.96,325.12h-43.1c-3.62,0-6.55-2.93-6.55-6.55v-99.07c0-3.62,2.93-6.55,6.55-6.55h43.1c.97,0,1.75.78,1.75,1.75h0c0,.97-.78,1.75-1.75,1.75h-43.1c-1.68,0-3.05,1.36-3.05,3.05v99.07c0,1.68,1.36,3.05,3.05,3.05h43.1c.97,0,1.75.78,1.75,1.75h0c0,.97-.78,1.75-1.75,1.75Z"/><g class="cls-40"><path class="cls-25" d="m327.96,325.12h-43.1c-3.62,0-6.55-2.93-6.55-6.55v-99.07c0-3.62,2.93-6.55,6.55-6.55h43.1c.97,0,1.75.78,1.75,1.75h0c0,.97-.78,1.75-1.75,1.75h-43.1c-1.68,0-3.05,1.36-3.05,3.05v99.07c0,1.68,1.36,3.05,3.05,3.05h43.1c.97,0,1.75.78,1.75,1.75h0c0,.97-.78,1.75-1.75,1.75Z"/></g><rect class="cls-18" x="223.5" y="208.41" width="61.18" height="5.13"/><rect class="cls-7" x="223.5" y="208.41" width="61.18" height="5.13"/><rect class="cls-18" x="281.9" y="208.41" width="52.18" height="5.13"/><rect class="cls-35" x="281.9" y="208.41" width="52.18" height="5.13"/><polygon class="cls-26" points="315.78 288.77 318.68 317.99 311.75 317.99 304.82 289.53 315.78 288.77"/><path class="cls-17" d="m311.1,316.08l8.83.15c.33,0,.62.24.68.57l1.47,7.21c.14.64-.27,1.27-.91,1.4-.08.02-.17.03-.25.03-3.18-.11-6.01-.33-9.97-.39-4.68-.08-3.5.5-9,.49-3.31-.01-3.86-3.79-2.45-3.95,6.44-.7,7.14-2.63,9.66-4.89.55-.43,1.23-.65,1.93-.61Z"/><polygon class="cls-36" points="317.92 310.36 315.78 288.77 304.82 289.53 309.89 310.36 317.92 310.36"/><path class="cls-17" d="m363.17,221.4l-28.39,1.02s-38.2,13.35-39.27,23.66c-1.1,10.58,11.74,59.18,11.74,59.18h11.4s-3.14-35.67-4.35-46.59,39.79-7.3,46.91-16.62c6.55-8.58,1.95-20.65,1.95-20.65Z"/><path class="cls-12" d="m363.17,221.4l-28.39,1.02s-38.2,13.35-39.27,23.66c-1.1,10.58,11.74,59.18,11.74,59.18h11.4s-3.14-35.67-4.35-46.59,39.79-7.3,46.91-16.62c6.55-8.58,1.95-20.65,1.95-20.65Z"/><polygon class="cls-18" points="320.61 303.63 320.86 307.66 306.75 307.66 305.37 303.63 320.61 303.63"/><polygon class="cls-26" points="289.38 290.16 290.13 317.99 283.33 317.99 279.3 290.16 289.38 290.16"/><path class="cls-17" d="m282.39,316.08l8.83.15c.33,0,.62.24.68.57l1.47,7.21c.14.64-.27,1.27-.91,1.4-.08.02-.17.03-.25.03-3.18-.11-6.01-.33-9.97-.39-4.68-.08-3.5.5-9,.49-3.31-.01-3.86-3.79-2.45-3.95,6.44-.7,7.14-2.63,9.66-4.89.55-.43,1.23-.65,1.93-.61Z"/><path class="cls-36" d="m289.93,310.34l-.55-20.18h-10.07l2.92,20.2c2.19,0,5.21,0,7.7-.02Z"/><path class="cls-17" d="m350.83,223.75s2.36,21.58-19.6,22.58c-21.96,1.01-39.08,3.53-39.58,11.33s0,47.6,0,47.6h-11.93s-4.64-25.15-6.45-40.76c-1.76-15.15-4.97-26.14,10.58-31.27,16.53-5.46,45.91-10.5,45.91-10.5l21.16-1.34-.08,2.35Z"/><polygon class="cls-18" points="293.41 303.63 292.65 307.66 279.56 307.66 278.17 303.63 293.41 303.63"/><path class="cls-24" d="m355.59,161.85s0-4.87-9.83-4.31c-10.43.6-8.47,5.26-8.47,5.26l18.3-.96Z"/><path class="cls-11" d="m355.59,161.85s0-4.87-9.83-4.31c-10.43.6-8.47,5.26-8.47,5.26l18.3-.96Z"/><path class="cls-18" d="m364.72,183.64c-.66,9.61-.43,38.52-.43,38.52,0,0-20.97,1.38-37.48.84l-1.91-55.62c0-1.98,1.23-3.78,3.14-4.52,4.66-1.81,15.6-3.86,32.71-1.62,5.9.77,4.75,11.04,3.97,22.4Z"/><path class="cls-26" d="m328.26,183.27s-8.15,20.2-16.13,22.39-20.01.41-20.01.41l-3.72,1.02-3.65-.54s-.08-.01-.13-.01l-4.12-.1c-.7-.02-1.09-.7-.7-1.24l1.48-2.04c.12-.16.29-.28.49-.35l3.92-1.26c.15-.05.32-.06.48-.04l5.99.95s16.65-2.73,18.35-4.27c1.69-1.54,6.71-17.69,6.71-17.69l11.05,2.77Z"/><path class="cls-36" d="m328.05,173.87s-1.26,1.5-2.81,3.69l.55,16.1c6.13-2.7,8.56-18.49,8.56-18.49l-3.98-2.82-2.33,1.53Z"/><path class="cls-18" d="m333.18,163.26c-5.92-1.94-14.25,2.51-17.44,21.15l12.29,3.59s13.61-21.96,5.15-24.74Z"/><rect class="cls-17" x="331.76" y="256.81" width="9.25" height="27.11"/><rect class="cls-2" x="331.76" y="256.81" width="9.25" height="27.11"/><polygon class="cls-17" points="342.45 308.48 342.45 274.04 330.32 274.04 330.32 308.48 302.73 312.31 302.73 316.14 336.38 313.27 370.04 316.14 370.04 312.31 342.45 308.48"/><circle class="cls-18" cx="302.33" cy="321.88" r="3.65"/><circle class="cls-18" cx="370.04" cy="321.88" r="3.65"/><circle class="cls-18" cx="336.38" cy="321.88" r="3.65"/><rect class="cls-15" x="331.76" y="256.81" width="9.25" height="6.7"/><path class="cls-16" d="m372.95,195.36h-30.14c-4.91,0-9.01,3.74-9.47,8.62l-2.55,27.24c-.58,6.2-5.63,11.04-11.85,11.36l-29.09,1.47c-3.54.18-6.31,3.1-6.31,6.64v.61c0,3.04,2.47,5.51,5.51,5.51h88.59l4.77-51.05c.52-5.58-3.87-10.4-9.47-10.4Z"/><path class="cls-10" d="m372.95,195.36h-30.14c-4.91,0-9.01,3.74-9.47,8.62l-2.55,27.24c-.58,6.2-5.63,11.04-11.85,11.36l-29.09,1.47c-3.54.18-6.31,3.1-6.31,6.64v.61c0,3.04,2.47,5.51,5.51,5.51h88.59l4.77-51.05c.52-5.58-3.87-10.4-9.47-10.4Z"/><path class="cls-16" d="m305.92,249.79h-.15c-1.1,0-2-.89-2-2v-21.71h4.15v21.71c0,1.1-.9,2-2,2Z"/><path class="cls-6" d="m305.92,249.79h-.15c-1.1,0-2-.89-2-2v-21.71h4.15v21.71c0,1.1-.9,2-2,2Z"/><path class="cls-16" d="m323.79,219.81h-9.25v7.65h9.25c2.11,0,3.83-1.71,3.83-3.83,0-2.11-1.71-3.83-3.83-3.83Z"/><path class="cls-34" d="m323.79,219.81h-9.25v7.65h9.25c2.11,0,3.83-1.71,3.83-3.83,0-2.11-1.71-3.83-3.83-3.83Z"/><path class="cls-16" d="m320.1,227.46h-32.34c-2.04,0-3.69-1.65-3.69-3.69v-.28c0-2.04,1.65-3.69,3.69-3.69h32.34c2.04,0,3.69,1.65,3.69,3.69v.28c0,2.04-1.65,3.69-3.69,3.69Z"/><path class="cls-10" d="m320.1,227.46h-32.34c-2.04,0-3.69-1.65-3.69-3.69v-.28c0-2.04,1.65-3.69,3.69-3.69h32.34c2.04,0,3.69,1.65,3.69,3.69v.28c0,2.04-1.65,3.69-3.69,3.69Z"/><path class="cls-16" d="m379.74,256.81h-44.31l4.94-52.82c.46-4.89,4.56-8.62,9.47-8.62h30.14c5.6,0,9.99,4.82,9.47,10.39l-4.31,46.14c-.26,2.79-2.6,4.91-5.39,4.91Z"/><path class="cls-34" d="m379.74,256.81h-44.31l4.94-52.82c.46-4.89,4.56-8.62,9.47-8.62h30.14c5.6,0,9.99,4.82,9.47,10.39l-4.31,46.14c-.26,2.79-2.6,4.91-5.39,4.91Z"/><path class="cls-17" d="m276.23,325.12h-43.1c-3.62,0-6.55-2.93-6.55-6.55v-99.07c0-3.62,2.93-6.55,6.55-6.55h43.1c.97,0,1.75.78,1.75,1.75h0c0,.97-.78,1.75-1.75,1.75h-43.1c-1.68,0-3.05,1.36-3.05,3.05v99.07c0,1.68,1.36,3.05,3.05,3.05h43.1c.97,0,1.75.78,1.75,1.75h0c0,.97-.78,1.75-1.75,1.75Z"/><g class="cls-40"><path class="cls-25" d="m276.23,325.12h-43.1c-3.62,0-6.55-2.93-6.55-6.55v-99.07c0-3.62,2.93-6.55,6.55-6.55h43.1c.97,0,1.75.78,1.75,1.75h0c0,.97-.78,1.75-1.75,1.75h-43.1c-1.68,0-3.05,1.36-3.05,3.05v99.07c0,1.68,1.36,3.05,3.05,3.05h43.1c.97,0,1.75.78,1.75,1.75h0c0,.97-.78,1.75-1.75,1.75Z"/></g><path class="cls-25" d="m247.75,160.83l-3.04-2.01c-.33-.22-.33-.69,0-.91l3.04-2.01c.23-.15.53-.09.68.14h0c.15.23.09.53-.14.68l-2.48,1.65,2.48,1.65c.23.15.29.46.14.68h0c-.15.23-.46.29-.68.14Z"/><path class="cls-25" d="m254.38,160.69h0c-.15-.23-.09-.53.14-.68l2.48-1.65-2.48-1.65c-.23-.15-.29-.46-.14-.68h0c.15-.23.46-.29.68-.14l3.03,2.01c.33.22.33.69,0,.91l-3.04,2.01c-.22.15-.53.09-.68-.14Z"/><path class="cls-25" d="m250.27,162h0c-.26-.08-.4-.36-.32-.62l2.07-6.54c.08-.26.36-.4.62-.32h0c.26.08.4.36.32.62l-2.07,6.54c-.08.26-.36.4-.62.32Z"/><path class="cls-25" d="m267.25,167.04h-22.27c-.29,0-.52-.23-.52-.52h0c0-.29.23-.52.52-.52h22.27c.29,0,.52.23.52.52h0c0,.29-.23.52-.52.52Z"/><path class="cls-25" d="m292.84,167.04h-22.27c-.29,0-.52-.23-.52-.52h0c0-.29.23-.52.52-.52h22.27c.29,0,.52.23.52.52h0c0,.29-.23.52-.52.52Z"/><path class="cls-25" d="m257.71,171.62h-12.72c-.29,0-.52-.23-.52-.52h0c0-.29.23-.52.52-.52h12.72c.29,0,.52.23.52.52h0c0,.29-.23.52-.52.52Z"/><path class="cls-25" d="m281.87,171.62h-20.84c-.29,0-.52-.23-.52-.52h0c0-.29.23-.52.52-.52h20.84c.29,0,.52.23.52.52h0c0,.29-.23.52-.52.52Z"/><path class="cls-25" d="m278.91,176.21h-33.92c-.29,0-.52-.23-.52-.52h0c0-.29.23-.52.52-.52h33.92c.29,0,.52.23.52.52h0c0,.29-.23.52-.52.52Z"/><path class="cls-25" d="m289.31,176.21h-7.08c-.29,0-.52-.23-.52-.52h0c0-.29.23-.52.52-.52h7.08c.29,0,.52.23.52.52h0c0,.29-.23.52-.52.52Z"/><path class="cls-25" d="m260.82,180.79h-15.84c-.29,0-.52-.23-.52-.52h0c0-.29.23-.52.52-.52h15.84c.29,0,.52.23.52.52h0c0,.29-.23.52-.52.52Z"/><path class="cls-25" d="m283.86,180.79h-19.72c-.29,0-.52-.23-.52-.52h0c0-.29.23-.52.52-.52h19.72c.29,0,.52.23.52.52h0c0,.29-.23.52-.52.52Z"/><path class="cls-25" d="m267.25,185.37h-22.27c-.29,0-.52-.23-.52-.52h0c0-.29.23-.52.52-.52h22.27c.29,0,.52.23.52.52h0c0,.29-.23.52-.52.52Z"/><path class="cls-25" d="m286.28,185.37h-15.71c-.29,0-.52-.23-.52-.52h0c0-.29.23-.52.52-.52h15.71c.29,0,.52.23.52.52h0c0,.29-.23.52-.52.52Z"/><path class="cls-22" d="m93.03,95.86c.4,4.71-.61,13.24-4.17,15.97,5.8,2.09,11.93,5.69,15.86,10.44,3.89-5.66-.54-8.89-.54-8.89-5.01-1.78-4.46-5.57-3.18-9.06l-7.98-8.46Z"/><path class="cls-17" d="m111.95,91.8c-.06.59.22,1.1.61,1.14s.75-.42.8-1.01c.06-.59-.22-1.1-.61-1.14-.39-.04-.73.42-.8,1.01Z"/><path class="cls-17" d="m112.6,90.81l1.46-.28s-.83,1.08-1.46.28Z"/><path class="cls-23" d="m112.15,92.43c.41,1.4,1,2.74,1.77,3.99-.65.38-1.44.46-2.15.2l.38-4.19Z"/><path class="cls-17" d="m113.63,88.69c.09-.01.18-.05.24-.12.12-.15.11-.37-.04-.49-.83-.76-1.98-1.07-3.09-.82-.16.1-.22.32-.12.48.06.1.18.17.3.17.88-.17,1.78.08,2.44.68.07.07.16.11.26.11Z"/><path class="cls-22" d="m92.53,88.05c-.23,7.32-.48,10.43,2.78,14.5,4.91,6.13,13.8,4.79,16.17-2.33,2.14-6.41,2.16-17.32-4.56-20.87-6.73-3.54-14.15,1.36-14.39,8.7Z"/><path class="cls-17" d="m92.88,101.85c-7.19-1.23-5.13-5.76-5.13-5.76-7.08-1.43-1.62-4.89-1.62-4.89-5.89-2.54,0-4.81,0-4.81-5.68-4.71,2.46-6.31,2.46-6.31-2.01-7.35,4.97-4.34,4.97-4.34,3.81-6.31,7.08-.28,7.08-.28,6.66-9.05,8.29-1.41,8.29-1.41,6.8-1.79,4.19,5.37,4.19,5.37,5.6,1.51,1.21,4.34,1.21,4.34,2.16,2.73-5.65,3.2-5.65,3.2,0,0,3.72,5.96-.03,7.65l-9.46,7.25s-4.34-1.81-6.3,0Z"/><path class="cls-18" d="m99.94,95.95s4.95-11.97,1.09-22.24l3.3-1.13s4.31,14.89-4.39,23.37Z"/><path class="cls-22" d="m104.93,94.64c.83,1.72,1.14,2.46,2.32,3.04,1.04.58,2.35.21,2.93-.82.27-.47.34-1.03.22-1.56-.31-1.72-1.64-4.25-3.46-4.31-1.83-.05-2.86,1.95-2,3.65Z"/><path class="cls-22" d="m99.77,119.61s6.76,4.97,9.52,6.97l19.59-9.24h0c-.05-2.22,1.26-4.25,3.31-5.12l1.39-.59,2.95-1.31c1.12-.5,2.42-.36,3.41.36h0c1.17.85,1.68,2.35,1.27,3.74h0c-.84,2.86-3.12,5.07-6,5.82l-2.86.75s-16.8,12.75-22.78,13.09c-5.98.33-14.79-5.59-14.79-5.59l4.98-8.88Z"/><path class="cls-17" d="m83.48,111.18c5.17-.02,10.95,3.22,20.05,9.12,0,0-1.72,6.47-7.01,11.08,0,0-4.99-1.34-11.63-7.6-8.04-7.57-4.57-12.59-1.4-12.6Z"/><path class="cls-18" d="m181.69,126.16h-48.99c-1.78,0-3.09-1.44-2.94-3.22l3.69-42.19c.16-1.78,1.72-3.22,3.5-3.22h48.99c1.78,0,3.09,1.44,2.94,3.22l-3.69,42.19c-.16,1.78-1.72,3.22-3.5,3.22Z"/><path class="cls-14" d="m181.69,126.16h-48.99c-1.78,0-3.09-1.44-2.94-3.22l3.69-42.19c.16-1.78,1.72-3.22,3.5-3.22h48.99c1.78,0,3.09,1.44,2.94,3.22l-3.69,42.19c-.16,1.78-1.72,3.22-3.5,3.22Z"/><path class="cls-4" d="m181.86,124.16c.67,0,1.27-.55,1.32-1.22l3.69-42.19c.06-.67-.44-1.22-1.11-1.22h-48.99c-.67,0-1.27.55-1.32,1.22l-3.69,42.19c-.06.67.44,1.22,1.11,1.22h48.99Z"/><path class="cls-24" d="m147.81,99.36l-16.02,23.17-.04.42c-.06.67.44,1.22,1.11,1.22h27.76l-12.81-24.81Z"/><path class="cls-11" d="m147.81,99.36l-16.02,23.17-.04.42c-.06.67.44,1.22,1.11,1.22h27.76l-12.81-24.81Z"/><path class="cls-18" d="m183.33,121.33l-13.41-25.47-19.86,28.3h31.81c.67,0,1.27-.55,1.32-1.22l.14-1.62Z"/><path class="cls-24" d="m164.74,91.36c-.22,2.49-2.41,4.5-4.9,4.5s-4.33-2.02-4.11-4.5c.22-2.49,2.41-4.5,4.9-4.5s4.32,2.02,4.11,4.5Z"/><path class="cls-13" d="m164.74,91.36c-.22,2.49-2.41,4.5-4.9,4.5s-4.33-2.02-4.11-4.5c.22-2.49,2.41-4.5,4.9-4.5s4.32,2.02,4.11,4.5Z"/><polygon class="cls-22" points="42.45 296.41 37.47 311.17 45.1 314.29 51.07 300.67 42.45 296.41"/><path class="cls-19" d="m47.84,313.92c-.08-.05-.12-.13-.12-.22.01-.09.08-.17.17-.19.16-.04,3.76-.84,5.1.02.25.15.43.4.5.69.11.33,0,.69-.26.91-.51.36-1.7.21-2.79-.13-.9-.28-1.77-.65-2.61-1.08Zm.76-.07c1.57.71,3.79,1.38,4.37.93.08-.05.17-.16.1-.47-.04-.18-.15-.33-.32-.42-.12-.08-.25-.14-.38-.17-1.25-.2-2.53-.15-3.77.13Z"/><path class="cls-19" d="m47.74,313.87c-.05-.06-.06-.14-.04-.22.05-.11,1.01-2.4,2.41-2.98.4-.17.86-.17,1.27,0,.56.23.64.58.59.82-.12,1.05-2.82,2.3-4.01,2.44-.03,0-.06,0-.09-.02-.05,0-.1-.02-.14-.05Zm3.38-2.84c-.26-.08-.55-.07-.8.04-.89.55-1.59,1.37-2,2.33,1.29-.31,3.13-1.37,3.26-1.98,0-.06.02-.22-.34-.36l-.12-.03h0Z"/><path class="cls-17" d="m47.33,312.41l-9.58-2.96c-.36-.11-.75.04-.94.37l-4.14,7.26c-.37.64-.15,1.46.49,1.83.08.05.17.09.26.12,3.47,1.01,6.6,1.77,10.9,3.1,5.08,1.57,3.6,1.78,9.54,3.71,3.58,1.16,5.5-2.73,4.04-3.4-6.71-3.03-6.78-5.36-8.7-8.69-.44-.66-1.1-1.14-1.87-1.34Z"/><polygon class="cls-8" points="40.06 303.49 48.06 307.53 51.07 300.67 42.45 296.41 40.06 303.49"/><path class="cls-16" d="m76.28,159.89s-10.75,8.21-8.45,33.93c.21,2.38.98,4.87.99,7.6,0,1.81-.5,3.08-1.09,7.14-.86,5.92-2.44,28-4.11,30.87-1.65,2.84-2.35,2.37-7.04,10.28-5.05,8.52-11.5,23.46-16.52,48.79,0,0,4.37,3.41,11.24,4.7,0,0,27.47-43.32,33.31-59.45,5.23-14.43,11.45-60.48,11.45-60.48l.5-19.97-20.29-3.42Z"/><path class="cls-36" d="m88.04,193.82h-7.79s-2.56,24.48,5.9,44.9c.88-3.28,1.78-7.21,2.65-11.46l3.37-21.56c-.48-3.64-.85-6.42-.91-6.6-.17-.57-3.22-5.28-3.22-5.28Z"/><polygon class="cls-22" points="86.75 302.35 86.8 318.04 95.66 317.45 97.01 302.35 86.75 302.35"/><path class="cls-19" d="m96.68,317.18c-.09-.02-.16-.08-.18-.17-.02-.09.02-.18.1-.23.14-.09,3.28-2.03,4.82-1.66.29.06.54.24.7.48.22.27.24.65.05.95-.36.5-1.53.76-2.68.8-.94.03-1.88-.02-2.82-.16Zm.69-.32c1.72.15,4.03.05,4.44-.56.06-.08.11-.21-.06-.47-.09-.16-.26-.26-.44-.29-.14-.03-.28-.05-.42-.04-1.25.23-2.44.69-3.52,1.36Z"/><path class="cls-19" d="m96.56,317.18c-.07-.04-.11-.11-.1-.19,0-.12.16-2.6,1.3-3.61.33-.3.76-.45,1.2-.42.6.04.8.33.83.58.23,1.03-1.9,3.1-2.98,3.62-.03.02-.06.02-.09.01-.05.02-.1.02-.15,0Zm2.26-3.8c-.27,0-.54.11-.74.3-.66.82-1.05,1.81-1.12,2.86,1.11-.71,2.51-2.32,2.43-2.94-.02-.05-.05-.21-.44-.23l-.12.02h0Z"/><path class="cls-17" d="m95.69,315.93l-10.02.36c-.38.01-.7.29-.76.66l-1.52,8.22c-.14.73.34,1.43,1.07,1.57.09.02.19.03.28.02,3.61-.19,6.82-.51,11.32-.66,5.31-.19,3.99.49,10.23.36,3.76-.08,4.3-4.38,2.7-4.54-7.33-.66-8.17-2.83-11.08-5.35-.63-.48-1.42-.71-2.21-.65Z"/><polygon class="cls-8" points="86.78 310.47 96.3 310.27 97.01 302.35 86.75 302.35 86.78 310.47"/><path class="cls-16" d="m82.26,157.01s-10.72,14.21-2.78,42.03l8.97,40.58s-8.54,18.46-4.03,67.16c0,0,6.78,1.08,13.24-.3,0,0,9.99-51.43,11.51-68.81,1.67-19.13.67-76.83.67-76.83l-27.58-3.85Z"/><path class="cls-17" d="m88.75,110.98s-1.66-7.1,8.99-4,9.77,9.18,9.77,9.18l-18.76-5.18Z"/><path class="cls-3" d="m88.75,110.98s-1.66-7.1,8.99-4,9.77,9.18,9.77,9.18l-18.76-5.18Z"/><path class="cls-18" d="m115.19,128.74c0,2.49-1.05,6.09-1.99,10.12-.46,1.91-.88,3.9-1.16,5.92-1.51,11.01-2,22.59-2,22.59,0,0-17.42,4.89-34.34-6.81,0,0,4.19-3.55,3.33-28.14-.39-11.08-4.39-24.25,13.92-22.18,15.46,1.75,20.66,6.55,21.91,14.06,0,.09.03.19.05.29.03.23.06.46.09.7.13,1.09.19,2.25.19,3.45Z"/><path class="cls-3" d="m115.19,128.74c0,2.49-1.05,6.09-1.99,10.12-4.18-5.03-8.37-14.45-8.37-14.45l3.45-5.08,6.08,2.83c.21.69.37,1.4.5,2.14,0,.09.03.19.05.29.03.23.06.46.09.7.13,1.09.19,2.25.19,3.45Z"/><path class="cls-22" d="m121.5,124.4s5.95,5.92,8.37,8.31l20.74-6.22h0c.28-2.21,1.88-4.02,4.03-4.57l1.46-.37,3.12-.86c1.18-.33,2.45,0,3.32.86h0c1.03,1.02,1.31,2.57.7,3.89h0c-1.26,2.7-3.84,4.55-6.8,4.87l-2.94.32s-18.52,10.11-24.48,9.54c-5.96-.56-13.79-7.73-13.79-7.73l6.25-8.04Z"/><path class="cls-18" d="m106.65,113.63c5.12.75,10.35,4.82,18.46,12,0,0-2.66,6.14-8.58,9.92,0,0-4.74-2.07-10.37-9.24-6.82-8.68-2.64-13.13.49-12.67Z"/></svg>