<?xml version="1.0" encoding="UTF-8"?><svg xmlns="http://www.w3.org/2000/svg" viewBox="0 0 464.19 463.69"><defs><style>.cls-1{opacity:.35;}.cls-1,.cls-2,.cls-3,.cls-4,.cls-5,.cls-6,.cls-7,.cls-8,.cls-9,.cls-10,.cls-11,.cls-12,.cls-13,.cls-14,.cls-15,.cls-16,.cls-17,.cls-18,.cls-19,.cls-20,.cls-21,.cls-22,.cls-23,.cls-24,.cls-25,.cls-26,.cls-27{stroke-width:0px;}.cls-1,.cls-2,.cls-3,.cls-7,.cls-8,.cls-10,.cls-14{fill:#43688c;}.cls-2{mix-blend-mode:screen;}.cls-2,.cls-3{opacity:.7;}.cls-4{opacity:.15;}.cls-5,.cls-6,.cls-20{fill:#64a2d0;}.cls-5,.cls-27{opacity:.2;}.cls-6{opacity:.1;}.cls-7{opacity:.25;}.cls-8{opacity:.55;}.cls-28{isolation:isolate;}.cls-10{opacity:.3;}.cls-11{fill:#263238;}.cls-12{fill:#455a64;}.cls-13{fill:#37474f;}.cls-15{fill:#070707;}.cls-16{fill:#e0e0e0;}.cls-17{fill:#b16668;}.cls-18{fill:#ba68c8;}.cls-19{fill:#9a4a4d;}.cls-21{fill:#ffa8a7;}.cls-22{fill:#fafafa;}.cls-23{fill:#f28f8f;}.cls-24{fill:#f0f0f0;}.cls-25{fill:#f5f5f5;}.cls-26{fill:#050505;}</style></defs><g class="cls-28"><g id="City"><g id="City-2"><path class="cls-16" d="m451.8,305.19H14V103.17l33.46-19.32,25.22,14.56v48.8s11.36-6.56,11.36-6.56v-19.03s12.36-7.14,12.36-7.14V42.04l37.59-21.7,16.98,9.81v21.65l15.98-9.23,16.98,9.81v41.24l15.48,8.92v-38.97l16.98-9.81,21.11,12.18v47.01l19.6-11.32V25.5l25.22-14.56,29.35,16.94v61.77l12.36,7.14v25.01l15.48,8.94V45.76l21.1-12.18,25.23,14.56v20.32l12.36,7.14v54.89l15.48,8.94v-36.56l25.23-14.56,12.86,7.43v209.47Zm-436.8-1h435.8V96.3s-11.86-6.85-11.86-6.85l-24.23,13.99v37.72l-17.48-10.09v-54.89l-12.36-7.14v-20.32l-24.23-13.99-20.1,11.61v86.13l-17.48-10.09v-25.01l-12.36-7.14V28.46l-28.35-16.37-24.22,13.99v76.13l-21.6,12.47v-48.16l-20.11-11.61-15.98,9.23v40.12l-17.48-10.07v-41.24l-15.98-9.23-16.98,9.81v-22.81l-15.98-9.23-36.59,21.12v72.43l-12.36,7.14v19.03s-13.36,7.72-13.36,7.72v-49.95s-24.23-13.99-24.23-13.99l-32.46,18.74v200.45Z"/></g></g><g id="Floor"><ellipse id="Floor-2" class="cls-25" cx="232.9" cy="327.22" rx="227.89" ry="131.57"/></g><g id="Gears"><g id="Gear_Icons"><path id="Gear" class="cls-24" d="m98.26,200.67l-3.92-2.8c-.47-.34-.72-1.09-.59-1.68.18-.86.29-1.74.34-2.61.03-.57.72-1.28,1.58-1.6l3.36-1.26c.86-.32,1.45-1,1.31-1.51l-1.46-5.22c-.14-.51-.95-.82-1.8-.7l-3.79.55c-.85.12-1.76-.15-2.06-.59-.52-.79-1.11-1.54-1.77-2.25-.37-.4-.48-1.2-.2-1.81l1.8-3.98c.27-.61.07-1.34-.46-1.64l-4.63-2.61c-.53-.3-1.32-.05-1.78.55l-2.46,3.25c-.46.6-1.36.94-2.06.8-.73-.14-1.46-.24-2.19-.3-.76-.06-1.58-.45-1.77-.93l-1.83-4.55c-.2-.49-1.06-.7-1.94-.48l-4.11,1.05c-.87.22-1.51.84-1.42,1.37l.77,4.77c.09.53-.5,1.32-1.25,1.82-.46.31-.9.64-1.33.99-.67.55-1.61.82-2.19.56l-4.27-1.84c-.58-.25-1.35.04-1.71.65l-2.44,4.12c-.36.61-.27,1.38.2,1.71l3.92,2.8c.47.34.72,1.09.59,1.68-.18.86-.29,1.74-.34,2.61-.03.57-.72,1.28-1.58,1.6l-3.36,1.26c-.86.32-1.45,1-1.31,1.51l1.46,5.22c.14.51.95.82,1.8.7l3.79-.55c.85-.12,1.76.15,2.06.59.52.79,1.11,1.54,1.77,2.25.37.4.48,1.2.2,1.81l-1.8,3.98c-.27.61-.07,1.34.46,1.64l4.63,2.61c.53.3,1.32.05,1.78-.55l2.46-3.25c.46-.6,1.36-.94,2.06-.8.73.14,1.46.24,2.19.3.76.06,1.58.45,1.77.94l1.83,4.55c.2.49,1.06.7,1.94.48l4.11-1.05c.87-.22,1.51-.84,1.42-1.37l-.77-4.77c-.09-.53.5-1.32,1.25-1.82.46-.31.9-.64,1.33-.99.67-.55,1.61-.82,2.19-.56l4.27,1.84c.58.25,1.35-.04,1.71-.65l2.44-4.12c.36-.61.27-1.38-.2-1.71Zm-12.96-2.96c-2.88,4.85-9.27,6.49-14.29,3.66-5.01-2.83-6.75-9.05-3.87-13.9,2.88-4.85,9.27-6.49,14.29-3.66,5.01,2.83,6.75,9.05,3.87,13.9Z"/><path id="Gear-2" class="cls-24" d="m54.75,211.91l-3.2,1.3c-.39.16-.94.01-1.25-.29-.45-.44-.94-.84-1.45-1.21-.33-.23-.5-.93-.36-1.57l.53-2.52c.14-.65-.05-1.26-.41-1.37l-3.73-1.12c-.36-.11-.86.26-1.12.82l-1.12,2.51c-.25.57-.77,1.01-1.15,1.02-.68.01-1.36.08-2.04.21-.39.07-.91-.17-1.17-.57l-1.73-2.62c-.26-.4-.79-.55-1.17-.35l-3.36,1.8c-.38.21-.54.78-.35,1.29l1.03,2.74c.19.51.05,1.18-.3,1.56-.37.39-.71.79-1.02,1.21-.33.44-.88.78-1.25.72l-3.46-.64c-.37-.07-.83.37-1.03.99l-.94,2.9c-.2.61-.07,1.24.28,1.39l3.19,1.36c.35.15.6.81.62,1.45.01.39.04.79.09,1.18.08.61-.12,1.29-.5,1.55l-2.75,1.88c-.38.26-.5.83-.26,1.29l1.56,3.06c.23.45.73.69,1.12.54l3.2-1.3c.39-.16.94-.01,1.25.29.45.44.94.84,1.45,1.2.33.23.5.93.36,1.57l-.53,2.52c-.14.65.05,1.26.41,1.37l3.73,1.12c.36.11.86-.26,1.12-.83l1.12-2.51c.25-.57.77-1.01,1.15-1.02.68-.01,1.36-.08,2.04-.21.39-.07.91.17,1.17.57l1.72,2.62c.26.4.79.55,1.17.35l3.36-1.8c.38-.21.54-.78.35-1.29l-1.03-2.74c-.19-.51-.05-1.18.3-1.56.37-.39.71-.79,1.02-1.21.33-.44.88-.78,1.25-.72l3.46.64c.37.07.83-.37,1.03-.99l.94-2.9c.2-.61.07-1.24-.28-1.39l-3.19-1.37c-.35-.15-.6-.81-.62-1.45-.01-.39-.04-.79-.09-1.18-.08-.61.12-1.29.5-1.55l2.75-1.88c.38-.26.5-.83.27-1.29l-1.56-3.06c-.23-.45-.73-.69-1.12-.54Zm-6.77,6.72c1.83,3.6.37,8.11-3.27,10.06-3.64,1.95-8.07.62-9.91-2.99-1.83-3.6-.37-8.11,3.27-10.07,3.64-1.95,8.07-.62,9.91,2.99Z"/><path id="Gear-3" class="cls-24" d="m46.87,177.8l-2.8,1.14c-.34.14-.82.01-1.09-.25-.4-.39-.82-.74-1.27-1.06-.29-.2-.44-.81-.32-1.38l.46-2.21c.12-.57-.04-1.1-.36-1.2l-3.26-.98c-.32-.1-.76.23-.98.72l-.98,2.2c-.22.5-.67.89-1,.89-.59.01-1.19.07-1.79.18-.34.06-.8-.15-1.03-.5l-1.51-2.29c-.23-.35-.69-.49-1.02-.31l-2.94,1.58c-.34.18-.47.69-.3,1.13l.9,2.4c.17.44.04,1.04-.26,1.36-.32.34-.62.69-.89,1.06-.29.39-.77.69-1.09.63l-3.03-.56c-.33-.06-.73.33-.91.87l-.82,2.54c-.17.54-.06,1.08.25,1.22l2.79,1.2c.31.13.53.71.55,1.27,0,.35.04.69.08,1.04.07.54-.11,1.13-.44,1.35l-2.41,1.65c-.33.23-.43.73-.23,1.13l1.36,2.68c.2.4.64.61.98.47l2.8-1.14c.34-.14.82-.01,1.09.25.4.39.82.74,1.27,1.06.29.21.44.81.32,1.38l-.46,2.21c-.12.57.04,1.1.36,1.2l3.26.98c.32.1.76-.23.98-.72l.98-2.2c.22-.5.67-.89,1-.89.59-.01,1.19-.07,1.79-.18.34-.06.8.15,1.03.5l1.51,2.29c.23.35.69.49,1.02.31l2.94-1.58c.34-.18.47-.69.3-1.13l-.9-2.4c-.17-.44-.04-1.04.26-1.36.32-.34.62-.69.89-1.06.29-.39.77-.69,1.09-.63l3.03.56c.33.06.73-.33.91-.87l.82-2.54c.17-.54.06-1.08-.25-1.22l-2.79-1.2c-.31-.13-.53-.71-.55-1.27,0-.35-.04-.69-.08-1.04-.07-.54.11-1.13.44-1.35l2.41-1.65c.33-.23.43-.73.23-1.13l-1.36-2.68c-.2-.4-.64-.61-.98-.47Zm-5.93,5.88c1.61,3.16.33,7.1-2.86,8.81-3.19,1.71-7.07.54-8.68-2.62-1.61-3.16-.33-7.1,2.86-8.82,3.19-1.71,7.07-.54,8.68,2.62Z"/></g><g id="Gear_Icons-2"><path id="Gear-4" class="cls-24" d="m355.1,200.61l3.13,4.27c.46.63,1.34.87,1.96.53l4.51-2.48c.62-.34,1.68-.14,2.48.39.51.34,1.03.66,1.57.95.87.47,1.61,1.27,1.57,1.87l-.34,5.34c-.04.59.73,1.2,1.72,1.35l4.65.72c.99.15,1.92-.18,2.08-.74l1.53-5.21c.16-.56,1.02-1.08,1.85-1.22.8-.14,1.59-.32,2.38-.56.76-.23,1.79.05,2.35.66l3.05,3.32c.57.62,1.47.8,2.02.42l4.82-3.37c.55-.38.7-1.21.33-1.85l-2.41-4.2c-.37-.64-.34-1.53.03-2.01.65-.85,1.22-1.74,1.71-2.66.28-.52,1.25-.92,2.2-.87l4.24.2c.95.05,1.81-.39,1.91-.96l1.04-5.91c.1-.58-.61-1.26-1.6-1.52l-3.84-1.02c-.99-.26-1.83-.97-1.92-1.59-.14-.96-.36-1.9-.65-2.84-.2-.63-.01-1.49.47-1.91l4.02-3.51c.48-.42.5-1.28.04-1.91l-3.13-4.27c-.46-.63-1.34-.87-1.96-.53l-4.51,2.48c-.62.34-1.68.14-2.48-.39-.51-.34-1.03-.66-1.57-.95-.87-.47-1.61-1.27-1.57-1.87l.33-5.34c.04-.59-.73-1.2-1.72-1.35l-4.65-.72c-.99-.15-1.92.18-2.08.74l-1.53,5.21c-.16.56-1.02,1.08-1.85,1.22-.8.14-1.59.32-2.38.56-.76.23-1.79-.05-2.35-.66l-3.06-3.32c-.57-.62-1.47-.8-2.02-.42l-4.82,3.37c-.55.38-.7,1.21-.33,1.85l2.41,4.2c.37.64.34,1.53-.03,2.01-.65.85-1.22,1.74-1.71,2.66-.28.52-1.25.92-2.2.87l-4.24-.2c-.95-.04-1.81.39-1.91.97l-1.04,5.91c-.1.58.61,1.26,1.6,1.52l3.84,1.02c.99.26,1.83.97,1.92,1.59.14.96.36,1.9.65,2.84.2.63.01,1.49-.47,1.91l-4.02,3.51c-.48.42-.5,1.28-.04,1.91Zm16.77-22.29c5.22-3.65,12.45-2.53,16.14,2.5,3.69,5.03,2.45,12.08-2.77,15.73-5.22,3.65-12.45,2.53-16.14-2.5-3.69-5.03-2.45-12.08,2.77-15.73Z"/><path id="Gear-5" class="cls-24" d="m401.76,211.99l-.47,3.77c-.07.56.27,1.11.76,1.24l3.57.92c.49.13.95.75,1.1,1.42.1.43.22.85.35,1.27.22.68.21,1.46-.1,1.75l-2.81,2.62c-.31.29-.21.99.23,1.55l2.07,2.66c.44.57,1.09.85,1.45.64l3.36-1.96c.36-.21,1.06-.06,1.57.28.48.32.99.62,1.52.88.51.25.91.91.9,1.51l-.04,3.24c0,.6.37,1.14.85,1.21l4.17.62c.48.07.96-.29,1.09-.8l.81-3.38c.12-.51.58-.97,1.01-1.04.76-.12,1.49-.31,2.2-.55.4-.14,1.1.14,1.58.63l2.11,2.19c.48.49,1.14.69,1.47.44l3.46-2.57c.34-.25.3-.96-.08-1.58l-1.5-2.43c-.38-.62-.47-1.41-.21-1.78.4-.57.75-1.17,1.06-1.8.21-.43.73-.78,1.19-.77l3.82.15c.46.02.89-.42.96-.98l.47-3.77c.07-.56-.27-1.11-.76-1.24l-3.57-.92c-.49-.13-.95-.75-1.1-1.42-.1-.43-.21-.85-.35-1.27-.22-.68-.21-1.46.1-1.75l2.8-2.62c.31-.29.21-.99-.23-1.55l-2.07-2.66c-.44-.57-1.09-.85-1.45-.64l-3.36,1.96c-.36.21-1.06.06-1.57-.28-.48-.32-.99-.62-1.52-.88-.51-.25-.91-.91-.9-1.51l.04-3.24c0-.6-.37-1.14-.85-1.21l-4.17-.62c-.48-.07-.96.29-1.09.8l-.81,3.38c-.12.51-.58.97-1.01,1.04-.76.12-1.49.31-2.2.55-.4.14-1.1-.14-1.58-.63l-2.11-2.19c-.48-.49-1.14-.69-1.47-.44l-3.46,2.57c-.34.25-.3.96.08,1.58l1.5,2.43c.38.62.47,1.41.21,1.78-.4.57-.75,1.17-1.06,1.8-.21.43-.73.78-1.19.77l-3.82-.15c-.46-.02-.89.42-.96.98Zm19.73-3.36c4.52.67,7.74,4.81,7.19,9.25-.56,4.44-4.67,7.51-9.2,6.84-4.52-.67-7.74-4.81-7.19-9.25.56-4.44,4.67-7.51,9.2-6.84Z"/><path id="Gear-6" class="cls-24" d="m407.83,164.35l-1.5,3.83c-.22.57-.01,1.24.47,1.5l3.5,1.93c.48.26.8,1.05.78,1.79-.01.48,0,.95.03,1.42.05.77-.17,1.58-.57,1.81l-3.64,2c-.41.22-.48.98-.17,1.69l1.46,3.35c.31.71.91,1.18,1.35,1.06l4.06-1.16c.44-.12,1.13.22,1.57.71.42.47.88.91,1.36,1.33.46.4.71,1.19.54,1.82l-.91,3.39c-.17.63.08,1.3.56,1.5l4.22,1.76c.48.2,1.09-.05,1.35-.55l1.75-3.33c.27-.51.87-.86,1.33-.82.83.07,1.65.07,2.46.01.46-.03,1.12.44,1.49,1.08l1.63,2.87c.37.65,1.01,1.03,1.43.85l4.32-1.77c.42-.17.57-.93.33-1.68l-.92-2.95c-.24-.76-.12-1.6.25-1.92.57-.49,1.1-1.03,1.59-1.61.33-.39.97-.63,1.45-.49l3.97,1.18c.48.14,1.05-.2,1.27-.77l1.5-3.83c.22-.57.01-1.24-.47-1.5l-3.5-1.93c-.48-.26-.8-1.05-.78-1.79.01-.48,0-.95-.03-1.42-.05-.77.17-1.58.57-1.81l3.64-2c.41-.22.48-.98.17-1.69l-1.46-3.35c-.31-.71-.91-1.19-1.35-1.06l-4.06,1.16c-.44.12-1.13-.22-1.57-.71-.42-.47-.88-.91-1.36-1.33-.46-.4-.71-1.19-.54-1.82l.91-3.39c.17-.63-.08-1.3-.56-1.5l-4.22-1.76c-.48-.2-1.09.05-1.35.55l-1.75,3.33c-.27.51-.87.86-1.33.82-.83-.07-1.65-.08-2.46-.01-.46.03-1.12-.44-1.49-1.08l-1.63-2.87c-.37-.65-1.01-1.03-1.43-.85l-4.32,1.77c-.42.17-.57.93-.33,1.68l.92,2.95c.24.76.12,1.6-.25,1.92-.57.49-1.1,1.03-1.59,1.61-.33.39-.97.63-1.45.49l-3.97-1.18c-.48-.14-1.05.2-1.27.77Zm21.6,1.74c4.57,1.91,6.84,7.12,5.07,11.63-1.77,4.51-6.91,6.63-11.48,4.72-4.57-1.91-6.84-7.12-5.07-11.63,1.77-4.51,6.91-6.63,11.48-4.72Z"/></g></g><g id="Puzzle_Pieces"><path class="cls-27" d="m283.54,357.99c-19.94,12.65-36.57,22.76-45.19,23.06-6.83.22-9.71-3.86-10.15-7.4-.41-3.56-2.72-5.61-4.6-6.67-6.58-3.81-19.97-2.31-29.79,3.37-9.82,5.66-12.43,13.39-5.85,17.2,1.88,1.06,5.39,2.42,11.56,2.64,6.15.24,13.17,1.93,12.84,5.85-.6,6.56-15.43,14.8-41,27.94-5.03-2.91-9.63-5.66-13.69-8.14-15.1-9.14-25.06-15.16-34.69-14.64-8.27.44-12.92,5.41-14.42,9.55-1.2,3.27-3.7,5.25-5.58,6.34-6.67,3.86-18.34,3.4-26.04-1.06-7.7-4.44-8.49-11.18-1.82-15.02,1.88-1.09,5.31-2.53,10.97-3.21,7.16-.87,15.78-3.56,16.54-8.33.95-5.66-11.56-12.6-28.9-22.2-4.3-2.37-8.76-4.82-13.31-7.46,2.26-1.33,4.71-2.8,6.72-4,22.91-13.55,31.35-19.4,41.47-19.67,6.78-.22,9.69,3.86,10.12,7.4.41,3.56,2.69,5.58,4.57,6.67,6.61,3.81,20,2.31,29.82-3.37,9.82-5.66,12.43-13.39,5.82-17.2-1.88-1.09-5.36-2.42-11.54-2.67-6.15-.22-13.17-1.93-12.82-5.85.57-6.86,14.99-15.17,38.23-27.2l5.03,2.91c21.06,12.22,33.82,19.59,45.22,18.97,8.24-.44,12.92-5.41,14.42-9.55,1.17-3.27,3.67-5.25,5.55-6.34,6.67-3.86,18.37-3.37,26.04,1.06,7.7,4.44,8.52,11.18,1.85,15.05-1.88,1.09-5.31,2.53-11.02,3.18-7.13.87-15.73,3.59-16.54,8.33-1.03,6.29,12.54,14.5,31.89,25.69l8.27,4.76Z"/><path class="cls-27" d="m365,313.32c-.38,4.76,7.65,6.78,14.64,7.02,5.55.24,8.65,1.41,10.29,2.34,5.8,3.35,3.26,10.23-5.63,15.35-8.87,5.14-20.76,6.58-26.56,3.24-1.63-.93-3.65-2.72-4.03-5.93-.46-4.05-3.92-8.68-12.19-8.46-9.5.27-21.39,8.76-39.32,19.73-5.12,3.16-10.91,6.69-17.09,10.34l-4.27-2.48c-20.22-11.65-36.16-20.84-35.18-26.96.65-3.95,8.19-6.2,14.42-6.97,6.31-.76,10.18-2.39,12.33-3.65,7.62-4.38,6.91-11.97-1.61-16.87-8.49-4.92-21.63-5.33-29.25-.95-2.15,1.25-4.98,3.48-6.31,7.13-1.28,3.62-5.22,7.95-12.05,8.33-10.42.57-22.94-6.67-43.62-18.64l-4.43-2.59c6.45-3.29,12.65-6.34,18.18-9.03,18.91-9.25,31.4-15.37,31.86-20.82.38-4.76-7.65-6.78-14.64-7.05-5.55-.22-8.65-1.39-10.29-2.31-5.8-3.35-3.27-10.23,5.61-15.35,8.9-5.14,20.79-6.58,26.58-3.24,1.63.93,3.65,2.72,4.03,5.93.46,4.03,3.95,8.68,12.19,8.46,9.25-.27,15.05-4.43,31.54-15.75,5.39-3.7,10.99-7.51,17.03-11.48,4.54,2.64,9.01,5.09,13.31,7.46,16.3,9.03,29.17,16.16,28.32,21.25-.63,3.92-8.16,6.2-14.39,6.97-6.31.76-10.23,2.39-12.35,3.62-7.65,4.41-6.91,12,1.61,16.92,8.52,4.92,21.66,5.33,29.3.93,2.12-1.22,4.95-3.48,6.29-7.13,1.31-3.59,5.25-7.95,12.08-8.33,8.6-.46,18.34,5.41,33.03,14.31,4.11,2.5,8.76,5.31,13.85,8.24-4.76,2.45-9.39,4.76-13.69,6.94-21.2,10.64-29.09,13.63-29.58,19.48Z"/><path class="cls-14" d="m225.17,235.53c.38-4.76-7.65-6.77-14.64-7.05-5.55-.21-8.65-1.38-10.29-2.31-2.11-1.22-3.11-2.89-3.11-4.79v24.84h.01c.01,1.9,1,3.59,3.1,4.8.52.3,1.19.61,2.03.92,13.81-6.88,22.51-11.88,22.9-16.41Z"/><path class="cls-14" d="m223.18,286.6v24.86c6.83-.38,10.78-4.71,12.05-8.33v-24.85c-1.27,3.62-5.22,7.94-12.05,8.32Z"/><path class="cls-14" d="m179.56,267.97l-4.43-2.59v24.85l4.43,2.59c20.68,11.97,33.2,19.21,43.62,18.64v-24.86c-10.42.58-22.94-6.66-43.62-18.63Z"/><path class="cls-14" d="m270.8,272.1c-8.49-4.92-21.63-5.33-29.25-.95-2.15,1.25-4.98,3.48-6.32,7.13v24.85c1.34-3.65,4.17-5.88,6.32-7.13,4.13-2.37,9.89-3.33,15.65-2.93.97-.19,1.94-.34,2.88-.45,6.31-.76,10.17-2.4,12.32-3.65,7.62-4.38,6.91-11.97-1.6-16.87Z"/><path class="cls-14" d="m312.1,234.04c2.12-1.23,6.04-2.86,12.35-3.62,6.24-.77,13.77-3.05,14.4-6.97.03-.16.04-.32.04-.48v24.89h-.03c0,.15.01.3-.01.44-.54,3.34-6.1,5.49-11.58,6.53-4.84-.33-9.68-1.63-13.56-3.87-8.52-4.93-9.25-12.52-1.61-16.92Z"/><path class="cls-14" d="m280.84,326.55c-19.64-11.31-35.24-20.32-35.22-26.43h-.01v24.86h.01c0,6.12,15.6,15.12,35.22,26.42l4.27,2.48v-24.86l-4.27-2.47Z"/><path class="cls-14" d="m384.29,310.11c-8.87,5.15-20.76,6.59-26.56,3.24l-.39,24.61c.13.08.26.16.39.24,5.8,3.35,17.69,1.91,26.56-3.23,5.68-3.27,8.75-7.26,8.73-10.59h.01s0-24.65,0-24.65c-.09,3.29-3.17,7.18-8.74,10.38Z"/><path class="cls-14" d="m353.7,307.42c-.46-4.06-3.91-8.68-12.19-8.46v24.85c8.28-.22,11.73,4.41,12.19,8.46.36,2.96,2.09,4.72,3.64,5.69l.39-24.61c-1.63-.92-3.64-2.72-4.03-5.93Z"/><path class="cls-14" d="m302.2,318.68c-5.12,3.16-10.91,6.7-17.09,10.34v24.86c6.18-3.65,11.97-7.19,17.09-10.34,17.93-10.97,29.82-19.46,39.31-19.73v-24.85c-9.49.27-21.38,8.76-39.31,19.72Z"/><path class="cls-14" d="m408.26,258.99v24.85c-4.76,2.45-9.39,4.76-13.69,6.94-2.28,1.14-4.4,2.2-6.39,3.18-1.82-.7-4.54-1.36-8.54-1.53-7-.25-15.02-2.26-14.64-7.02.49-5.85,8.38-8.85,29.57-19.49,4.3-2.17,8.93-4.49,13.69-6.93Z"/><path class="cls-14" d="m365,285.41c-.38,4.76,7.65,6.78,14.64,7.02,5.55.24,8.65,1.41,10.29,2.34,5.8,3.35,3.26,10.23-5.63,15.35-8.87,5.14-20.76,6.58-26.56,3.24-1.63-.93-3.65-2.72-4.03-5.93-.46-4.05-3.92-8.68-12.19-8.46-9.5.27-21.39,8.76-39.32,19.73-5.12,3.16-10.91,6.69-17.09,10.34l-4.27-2.48c-20.22-11.65-36.16-20.84-35.18-26.96.65-3.95,8.19-6.2,14.42-6.97,6.31-.76,10.18-2.39,12.33-3.65,7.62-4.38,6.91-11.97-1.61-16.87-8.49-4.92-21.63-5.33-29.25-.95-2.15,1.25-4.98,3.48-6.31,7.13-1.28,3.62-5.22,7.95-12.05,8.33-10.42.57-22.94-6.67-43.62-18.64l-4.43-2.58c6.45-3.29,12.65-6.34,18.18-9.03,18.91-9.25,31.4-15.37,31.86-20.82.38-4.76-7.65-6.78-14.64-7.05-5.55-.22-8.65-1.39-10.29-2.31-5.8-3.35-3.27-10.23,5.61-15.35,8.9-5.14,20.79-6.58,26.58-3.24,1.63.93,3.65,2.72,4.03,5.93.46,4.03,3.95,8.68,12.19,8.46,9.25-.27,15.05-4.43,31.54-15.75,5.39-3.7,10.99-7.51,17.03-11.48,4.54,2.64,9.01,5.09,13.31,7.46,16.3,9.03,29.17,16.16,28.32,21.25-.63,3.92-8.16,6.2-14.39,6.97-6.31.76-10.23,2.39-12.35,3.62-7.65,4.41-6.91,12,1.61,16.92,8.52,4.92,21.66,5.33,29.3.93,2.12-1.22,4.95-3.48,6.29-7.13,1.31-3.59,5.25-7.95,12.08-8.33,8.6-.46,18.34,5.41,33.03,14.31,4.11,2.5,8.76,5.31,13.85,8.24-4.76,2.45-9.39,4.76-13.69,6.94-21.2,10.64-29.09,13.63-29.58,19.48Z"/><path class="cls-20" d="m283.54,330.08c-19.94,12.65-36.57,22.76-45.19,23.06-6.83.22-9.71-3.86-10.15-7.4-.41-3.56-2.72-5.61-4.6-6.67-6.58-3.81-19.97-2.31-29.79,3.37-9.82,5.66-12.43,13.39-5.85,17.2,1.88,1.06,5.39,2.42,11.56,2.64,6.15.24,13.17,1.93,12.84,5.85-.6,6.56-15.43,14.8-41,27.94-5.03-2.91-9.63-5.66-13.69-8.14-15.1-9.14-25.06-15.16-34.69-14.64-8.27.44-12.92,5.41-14.42,9.55-1.2,3.27-3.7,5.25-5.58,6.34-6.67,3.86-18.34,3.4-26.04-1.06-7.7-4.44-8.49-11.18-1.82-15.02,1.88-1.09,5.31-2.53,10.97-3.21,7.16-.87,15.78-3.56,16.54-8.33.95-5.66-11.56-12.6-28.9-22.2-4.3-2.37-8.76-4.82-13.31-7.46,2.26-1.33,4.71-2.8,6.72-4,22.91-13.55,31.35-19.4,41.47-19.67,6.78-.22,9.69,3.86,10.12,7.4.41,3.56,2.69,5.58,4.57,6.67,6.61,3.81,20,2.31,29.82-3.37,9.82-5.66,12.43-13.39,5.82-17.2-1.88-1.09-5.36-2.42-11.54-2.67-6.15-.22-13.17-1.93-12.82-5.85.57-6.86,14.99-15.17,38.23-27.2l5.03,2.91c21.06,12.22,33.82,19.59,45.22,18.97,8.24-.44,12.92-5.41,14.42-9.55,1.17-3.27,3.67-5.25,5.55-6.34,6.67-3.86,18.37-3.37,26.04,1.06,7.7,4.44,8.52,11.18,1.85,15.05-1.88,1.09-5.31,2.53-11.02,3.18-7.13.87-15.73,3.59-16.54,8.33-1.03,6.29,12.54,14.5,31.89,25.69l8.27,4.76Z"/><path class="cls-20" d="m172.77,268.31l4.08,2.36c20.72,12.02,33.22,19.27,44.87,19.27.49,0,.98-.01,1.46-.04,9.23-.49,14.49-6.16,16.2-10.87.96-2.69,3.07-4.36,4.67-5.28,2.6-1.51,6.27-2.34,10.32-2.34,4.97,0,9.97,1.24,13.71,3.4,3.4,1.96,5.35,4.42,5.36,6.75,0,2.31-1.91,3.9-3.51,4.83-1.72,1-4.9,2.32-10.26,2.93-3.97.48-17.01,2.64-18.27,9.99-1.25,7.6,11.67,15.49,32.86,27.74l5.4,3.11c-18.16,11.48-33.65,20.71-41.39,20.98-.15,0-.31,0-.46,0-5.12,0-7.31-2.92-7.64-5.64-.4-3.46-2.38-6.36-5.58-8.17-2.69-1.55-6.38-2.37-10.69-2.37-7,0-14.89,2.15-21.1,5.75-6.66,3.84-10.48,8.7-10.48,13.33,0,3,1.64,5.6,4.65,7.34,3.08,1.74,7.28,2.71,12.47,2.9,5.02.2,9.28,1.34,10.6,2.83.33.37.35.64.33.84-.51,5.59-17.13,14.62-38.96,25.85-4.26-2.47-8.52-5.01-12.71-7.57-14.88-9.01-24.71-14.96-34.57-14.96-.42,0-.85.01-1.26.03-9.23.49-14.49,6.16-16.19,10.86-.99,2.7-3.1,4.37-4.7,5.3-2.61,1.51-6.29,2.35-10.34,2.35-4.96,0-9.95-1.24-13.7-3.41-3.4-1.96-5.34-4.41-5.34-6.74,0-2.3,1.91-3.89,3.52-4.82,1.72-1,4.88-2.32,10.2-2.96,3.99-.49,17.1-2.64,18.27-9.98,1.19-7.06-10.51-13.54-29.9-24.29l-.69-.38c-3.14-1.73-6.35-3.5-9.62-5.35.5-.3.99-.59,1.48-.88l2.3-1.37c2.85-1.69,5.48-3.25,7.91-4.7,16.65-9.93,24.25-14.47,32.6-14.69.15,0,.3,0,.45,0,5.11,0,7.29,2.92,7.62,5.64.4,3.47,2.32,6.29,5.56,8.17,2.69,1.55,6.4,2.37,10.71,2.37,7,0,14.9-2.15,21.11-5.75,6.66-3.84,10.48-8.7,10.48-13.33,0-3-1.65-5.6-4.65-7.33-3-1.74-7.19-2.73-12.47-2.93-4.99-.18-9.24-1.31-10.56-2.82-.33-.37-.35-.64-.33-.87.5-6.03,17.29-15.29,36.18-25.08m.05-2.28c-23.24,12.03-37.66,20.34-38.23,27.2-.35,3.92,6.67,5.63,12.82,5.85,6.18.24,9.66,1.58,11.54,2.67,6.61,3.81,4,11.54-5.82,17.2-6.15,3.56-13.7,5.48-20.11,5.48-3.82,0-7.24-.68-9.71-2.11-1.88-1.09-4.16-3.1-4.57-6.67-.42-3.45-3.2-7.41-9.61-7.41-.17,0-.34,0-.51,0-10.12.27-18.56,6.12-41.47,19.67-2.01,1.2-4.46,2.67-6.72,4,4.54,2.64,9.01,5.09,13.31,7.46,17.33,9.6,29.85,16.54,28.9,22.2-.76,4.76-9.39,7.46-16.54,8.33-5.66.68-9.09,2.12-10.97,3.21-6.67,3.84-5.88,10.58,1.82,15.02,4.2,2.44,9.59,3.68,14.69,3.68,4.25,0,8.32-.86,11.34-2.62,1.88-1.09,4.38-3.07,5.58-6.34,1.5-4.14,6.15-9.12,14.42-9.55.39-.02.77-.03,1.16-.03,9.28,0,19.04,5.89,33.53,14.67,4.05,2.48,8.65,5.22,13.69,8.14,25.58-13.14,40.41-21.39,41-27.94.33-3.92-6.69-5.61-12.84-5.85-6.18-.22-9.69-1.58-11.56-2.64-6.58-3.81-3.97-11.54,5.85-17.2,6.15-3.56,13.7-5.48,20.1-5.48,3.82,0,7.23.68,9.69,2.11,1.88,1.06,4.19,3.1,4.6,6.67.42,3.45,3.17,7.41,9.63,7.41.17,0,.34,0,.52,0,8.63-.3,25.25-10.41,45.19-23.06l-8.27-4.76c-19.35-11.18-32.92-19.4-31.89-25.69.82-4.73,9.41-7.46,16.54-8.33,5.71-.65,9.14-2.1,11.02-3.18,6.67-3.86,5.85-10.61-1.85-15.05-4.19-2.42-9.59-3.67-14.71-3.67-4.25,0-8.3.86-11.33,2.61-1.88,1.09-4.38,3.07-5.55,6.34-1.5,4.14-6.18,9.12-14.42,9.55-.45.02-.9.04-1.35.04-11.06,0-23.64-7.27-43.87-19l-5.03-2.91h0Z"/><path class="cls-20" d="m73.73,364.23c-4.3-2.36-8.77-4.81-13.31-7.45v-24.85c4.54,2.64,9.01,5.08,13.31,7.45,17.33,9.61,29.84,16.54,28.89,22.2-.76,4.77-9.39,7.46-16.54,8.33-.62.07-1.21.16-1.77.25-3.24-1.86-6.8-3.83-10.58-5.93Z"/><path class="cls-5" d="m73.73,364.23c-4.3-2.36-8.77-4.81-13.31-7.45v-24.85c4.54,2.64,9.01,5.08,13.31,7.45,17.33,9.61,29.84,16.54,28.89,22.2-.76,4.77-9.39,7.46-16.54,8.33-.62.07-1.21.16-1.77.25-3.24-1.86-6.8-3.83-10.58-5.93Z"/><path class="cls-20" d="m141.91,323.32c-4.17-.82-7.57-2.48-7.32-5.23h-.01v-24.58c0,3.72,6.83,5.37,12.83,5.57,6.18.25,9.66,1.58,11.54,2.67,6.61,3.81,4,11.54-5.83,17.2-3.43,1.98-7.3,3.46-11.16,4.38-.02,0-.05,0-.05,0Z"/><path class="cls-6" d="m141.91,323.32c-4.17-.82-7.57-2.48-7.32-5.23h-.01v-24.58c0,3.72,6.83,5.37,12.83,5.57,6.18.25,9.66,1.58,11.54,2.67,6.61,3.81,4,11.54-5.83,17.2-3.43,1.98-7.3,3.46-11.16,4.38-.02,0-.05,0-.05,0Z"/><path class="cls-20" d="m76.94,388.14c-4.21-2.42-6.35-5.53-6.34-8.48h0v24.82h.02c-.02,2.96,2.1,6.08,6.33,8.51,7.7,4.47,19.37,4.93,26.04,1.07v-24.86c-6.67,3.87-18.34,3.4-26.04-1.06Z"/><path class="cls-6" d="m76.94,388.14c-4.21-2.42-6.35-5.53-6.34-8.48h0v24.82h.02c-.02,2.96,2.1,6.08,6.33,8.51,7.7,4.47,19.37,4.93,26.04,1.07v-24.86c-6.67,3.87-18.34,3.4-26.04-1.06Z"/><path class="cls-20" d="m102.98,389.2v24.86c1.87-1.09,4.38-3.08,5.57-6.34v-24.86c-1.19,3.27-3.7,5.25-5.57,6.34Z"/><path class="cls-20" d="m102.98,389.2v24.86c1.87-1.09,4.38-3.08,5.57-6.34v-24.86c-1.19,3.27-3.7,5.25-5.57,6.34Z"/><path class="cls-20" d="m157.67,387.95c-15.1-9.14-25.06-15.16-34.7-14.64-8.27.44-12.92,5.42-14.42,9.55v24.86c1.5-4.14,6.15-9.12,14.42-9.56,9.64-.51,19.6,5.5,34.7,14.64,4.05,2.48,8.65,5.23,13.68,8.14v-24.85c-5.03-2.92-9.63-5.66-13.68-8.14Z"/><path class="cls-5" d="m157.67,387.95c-15.1-9.14-25.06-15.16-34.7-14.64-8.27.44-12.92,5.42-14.42,9.55v24.86c1.5-4.14,6.15-9.12,14.42-9.56,9.64-.51,19.6,5.5,34.7,14.64,4.05,2.48,8.65,5.23,13.68,8.14v-24.85c-5.03-2.92-9.63-5.66-13.68-8.14Z"/><path class="cls-20" d="m171.35,396.09v24.85c25.58-13.14,40.41-21.39,41.01-27.95v-24.85c-.6,6.56-15.43,14.8-41.01,27.95Z"/><path class="cls-20" d="m243.37,299.64c.82-4.74,9.42-7.46,16.54-8.33,5.72-.65,9.15-2.09,11.02-3.18,3.03-1.76,4.51-4.1,4.51-6.56v24.77h-.02c.04,2.48-1.43,4.87-4.49,6.64-1.87,1.09-5.3,2.53-11.02,3.18-.01.01-.03.01-.04.01-10.7-6.71-17.23-12.1-16.5-16.53Z"/><path class="cls-5" d="m243.37,299.64c.82-4.74,9.42-7.46,16.54-8.33,5.72-.65,9.15-2.09,11.02-3.18,3.03-1.76,4.51-4.1,4.51-6.56v24.77h-.02c.04,2.48-1.43,4.87-4.49,6.64-1.87,1.09-5.3,2.53-11.02,3.18-.01.01-.03.01-.04.01-10.7-6.71-17.23-12.1-16.5-16.53Z"/><path class="cls-20" d="m223.6,339.08c-6.59-3.81-19.98-2.31-29.8,3.38-9.82,5.66-12.43,13.38-5.85,17.19,1.88,1.06,5.39,2.42,11.56,2.64,1.84.07,3.75.28,5.53.63,7.16-1.68,14.29-1.45,18.56,1.02,1.87,1.06,4.19,3.1,4.59,6.66v-24.85c-.4-3.57-2.72-5.61-4.59-6.67Z"/><path class="cls-5" d="m223.6,339.08c-6.59-3.81-19.98-2.31-29.8,3.38-9.82,5.66-12.43,13.38-5.85,17.19,1.88,1.06,5.39,2.42,11.56,2.64,1.84.07,3.75.28,5.53.63,7.16-1.68,14.29-1.45,18.56,1.02,1.87,1.06,4.19,3.1,4.59,6.66v-24.85c-.4-3.57-2.72-5.61-4.59-6.67Z"/><path class="cls-20" d="m238.34,353.15v24.85c8.63-.3,25.26-10.41,45.2-23.06v-24.86c-19.94,12.66-36.57,22.77-45.2,23.07Z"/><path class="cls-20" d="m228.19,345.75v24.85c.44,3.54,3.32,7.62,10.15,7.4v-24.85c-6.83.22-9.71-3.86-10.15-7.4Z"/><path class="cls-6" d="m228.19,345.75v24.85c.44,3.54,3.32,7.62,10.15,7.4v-24.85c-6.83.22-9.71-3.86-10.15-7.4Z"/><path class="cls-11" d="m285.11,329.02v24.86l-1.58-.92v-22.88l-8.27-4.76c-14.08-8.14-25.1-14.71-29.65-20.1v-5.1h.01c-.02,6.11,15.58,15.12,35.22,26.43l4.27,2.47Z"/><path class="cls-22" d="m394.58,265.92c4.3-2.18,8.92-4.49,13.69-6.94-5.09-2.94-9.74-5.74-13.85-8.24-14.69-8.9-24.43-14.77-33.03-14.31-6.83.38-10.77,4.73-12.08,8.33-1.33,3.65-4.16,5.9-6.29,7.13-7.65,4.41-20.79,4-29.3-.93s-9.25-12.52-1.61-16.92c2.12-1.22,6.04-2.86,12.35-3.62,6.23-.76,13.77-3.05,14.39-6.97.84-5.09-12.03-12.22-28.32-21.25-4.3-2.37-8.76-4.82-13.31-7.46-6.04,3.97-11.65,7.78-17.03,11.48-16.49,11.32-22.28,15.48-31.54,15.75-8.24.22-11.73-4.43-12.19-8.46-.38-3.21-2.39-5.01-4.03-5.93-5.8-3.35-17.69-1.9-26.58,3.24-8.87,5.12-11.4,12-5.61,15.35,1.63.93,4.73,2.1,10.29,2.31,6.99.27,15.02,2.29,14.64,7.05-.46,5.44-12.95,11.56-31.86,20.82-5.52,2.69-11.73,5.74-18.18,9.03l4.43,2.59c20.68,11.97,33.2,19.21,43.62,18.64,6.83-.38,10.77-4.71,12.05-8.33,1.33-3.65,4.16-5.88,6.31-7.13,7.62-4.38,20.76-3.97,29.25.95,8.52,4.9,9.22,12.49,1.61,16.87-2.15,1.25-6.01,2.88-12.33,3.65-6.23.76-13.77,3.02-14.42,6.97-.98,6.12,14.97,15.32,35.18,26.96l4.27,2.48c6.18-3.65,11.97-7.18,17.09-10.34,17.93-10.97,29.82-19.45,39.32-19.73,8.27-.22,11.73,4.41,12.19,8.46.38,3.21,2.39,5.01,4.03,5.93,5.8,3.35,17.69,1.9,26.56-3.24,8.9-5.12,11.43-12,5.63-15.35-1.63-.93-4.73-2.1-10.29-2.34-6.99-.24-15.02-2.26-14.64-7.02.49-5.85,8.38-8.84,29.58-19.48Z"/><path class="cls-12" d="m297.29,197.09c3.96,2.28,7.84,4.42,11.6,6.49l.7.39c8.23,4.56,15.34,8.5,20.4,11.99,6.54,4.51,6.99,6.51,6.88,7.18-.34,2.14-5.9,4.47-12.66,5.3-6.69.81-10.82,2.55-13.11,3.87-4.05,2.34-6.29,5.65-6.29,9.33,0,4.12,2.87,8.15,7.89,11.06,4.67,2.7,10.91,4.25,17.11,4.25,5.43,0,10.47-1.18,14.19-3.32,2.41-1.39,5.62-3.94,7.17-8.18,1.1-3.03,4.46-6.69,10.31-7.01.28-.02.56-.02.85-.02,7.84,0,17.57,5.89,31.04,14.05,2.89,1.76,6.58,3.99,10.72,6.42-2.21,1.12-4.38,2.22-6.5,3.29-1.33.67-2.64,1.33-3.91,1.97-2.96,1.49-5.66,2.82-8.12,4.04-16.04,7.94-22.04,10.91-22.55,17.07-.13,1.63.41,3.18,1.55,4.46,3.48,3.9,11.66,4.6,14.99,4.72,5.12.23,7.93,1.26,9.37,2.07,1.42.82,2.12,1.83,2.11,3.07,0,2.65-3.04,6.11-7.75,8.81-5.15,2.99-11.59,4.77-17.23,4.77-3.05,0-5.59-.53-7.34-1.54-1.78-1.01-2.8-2.5-3.03-4.42-.54-4.73-4.43-10.24-13.62-10.24-.2,0-.4,0-.61,0-8.51.24-18.42,6.42-32.13,14.96-2.61,1.62-5.3,3.3-8.18,5.07-6.03,3.72-11.16,6.83-16.05,9.72l-3.26-1.89c-9.79-5.64-19.05-10.97-25.38-15.45-8.08-5.71-9-8.38-8.82-9.45.36-2.19,5.82-4.47,12.69-5.31,6.66-.8,10.8-2.57,13.08-3.9,4.05-2.33,6.28-5.64,6.28-9.32,0-4.12-2.87-8.14-7.88-11.01-4.66-2.7-10.9-4.25-17.11-4.25-5.42,0-10.44,1.17-14.15,3.3-2.43,1.42-5.65,3.98-7.19,8.19-1.07,3.02-4.4,6.67-10.28,7-.35.02-.7.03-1.05.03-9.67,0-21.63-6.93-41.45-18.4l-1.26-.74c5.34-2.69,10.45-5.2,14.87-7.36,20.21-9.89,32.42-15.86,32.98-22.45.13-1.63-.4-3.17-1.54-4.45-3.46-3.9-11.65-4.62-15.01-4.75-5.11-.2-7.92-1.23-9.36-2.05-1.42-.82-2.12-1.83-2.12-3.07,0-2.65,3.03-6.11,7.72-8.81,5.17-2.99,11.62-4.77,17.25-4.77,3.05,0,5.59.53,7.34,1.54,1.78,1.01,2.8,2.5,3.03,4.42.54,4.72,4.44,10.24,13.62,10.24.2,0,.4,0,.61,0,9.57-.28,15.46-4.33,31.19-15.13l1.41-.97c4.23-2.91,9.81-6.72,15.97-10.78m-.07-2.35c-6.04,3.97-11.65,7.78-17.03,11.48-16.49,11.32-22.28,15.48-31.54,15.75-.19,0-.37,0-.55,0-7.85,0-11.19-4.53-11.64-8.47-.38-3.21-2.39-5.01-4.03-5.93-2.11-1.22-5.04-1.8-8.33-1.8-5.74,0-12.6,1.77-18.26,5.04-8.87,5.12-11.4,12-5.61,15.35,1.63.93,4.73,2.1,10.29,2.31,6.99.27,15.02,2.29,14.64,7.05-.46,5.44-12.95,11.56-31.86,20.82-5.52,2.69-11.73,5.74-18.18,9.03l4.43,2.59c19.92,11.53,32.26,18.67,42.46,18.67.39,0,.78-.01,1.16-.03,6.83-.38,10.77-4.71,12.05-8.33,1.33-3.65,4.16-5.88,6.31-7.13,3.53-2.03,8.25-3.03,13.14-3.03,5.66,0,11.56,1.34,16.11,3.98,8.52,4.9,9.22,12.49,1.61,16.87-2.15,1.25-6.01,2.88-12.33,3.65-6.23.76-13.77,3.02-14.42,6.97-.98,6.12,14.97,15.32,35.18,26.96l4.27,2.48c6.18-3.65,11.97-7.18,17.09-10.34,17.93-10.97,29.82-19.45,39.32-19.73.19,0,.37,0,.56,0,7.87,0,11.18,4.51,11.63,8.47.38,3.21,2.39,5.01,4.03,5.93,2.11,1.22,5.04,1.8,8.33,1.8,5.74,0,12.59-1.77,18.23-5.04,8.9-5.12,11.43-12,5.63-15.35-1.63-.93-4.73-2.1-10.29-2.34-6.99-.24-15.02-2.26-14.64-7.02.49-5.85,8.38-8.84,29.58-19.48,4.3-2.18,8.92-4.49,13.69-6.94-5.09-2.94-9.74-5.74-13.85-8.24-14.15-8.57-23.71-14.34-32.08-14.34-.32,0-.64,0-.95.03-6.83.38-10.77,4.73-12.08,8.33-1.33,3.65-4.16,5.9-6.29,7.13-3.55,2.05-8.29,3.06-13.19,3.06-5.66,0-11.55-1.34-16.11-3.98-8.52-4.92-9.25-12.52-1.61-16.92,2.12-1.22,6.04-2.86,12.35-3.62,6.23-.76,13.77-3.05,14.39-6.97.84-5.09-12.03-12.22-28.32-21.25-4.3-2.37-8.76-4.82-13.31-7.46h0Z"/></g><g id="Shadows"><path id="Shadow" class="cls-4" d="m162.23,340.98c8.99-4.25,17.84-8.98,27.13-12.43,7.6-2.83,15.58-4.84,22.62-8.87,2.58-1.48,5.06-3.27,6.77-5.71,1.71-2.44,2.55-5.62,1.66-8.46-1.13-3.63-4.4-4.82-7.86-4.97-8.54-.35-17.03,1.86-24.88,5.24-7.85,3.37-15.15,7.89-22.42,12.38-7.04,4.35-13.74,7.67-21.72,10.05-8.09,2.42-16.44,4.41-23.86,8.55-1.88,1.05-3.75,2.3-4.79,4.18-2.34,4.23,1.58,8.61,5.62,9.49,4.84,1.05,9.89.78,14.77-.06,9.45-1.63,18.26-5.29,26.95-9.4Z"/><path id="Shadow-2" class="cls-4" d="m315.18,248c-2.1-2.54-5.71-3.65-9.47-3.1-3.79.55-7.23,2.48-10.56,4.37-5.53,3.14-11.06,6.27-16.31,9.88-2.71,1.86-6.03,3.65-8.22,6.11-1.48,1.66-2.98,3.5-3.24,5.71-.45,3.84,2.83,5.96,6.07,6.81,2.61.68,5.37.58,8.04.18,6.72-1.02,12.96-3.94,18.86-7.21,5.52-3.06,11.2-6.08,14.73-11.53,1.12-1.73,2-3.71,1.98-5.77-.02-2.22-.72-4.05-1.88-5.45Z"/></g><g id="Characters"><path class="cls-11" d="m316.12,221.6s3.84.46,6,3.2c2.15,2.73,6.92,10.93,7.86,11.84,0,0-.84,1.49-2.13,2.24l-2.55-2.89c-.63-.52-.9-1.09-.87.6.03,1.7.28,3.45.23,5.98-.03,2,.38,5.8-3.05,9.64-3.21,3.59-6.67,5.32-9.06,5.65-1.43.2-3.94-.13-3.78-2.98.08-1.51.77-6.48,1.01-9.24.25-2.86,6.35-24.05,6.35-24.05Z"/><path class="cls-17" d="m316.79,222.24c-.48-.61-1.49-1.11-2.72-3.6-.62-1.25-3.77-8.23-7.56-17.89-4.88-12.44-12.99-21.61-15.5-26.29-2.64-4.91-5.37-10.59-7.07-15.9l-10.1,6.73-13.29-.25c-.13,1.97.67,4.6,2.16,7.67h0s.03.06.04.08c.13.28.28.56.43.85,2.96,5.82,8.01,12.86,13.65,19.98.05.06.09.11.14.17.07.08.13.17.2.25,5.43,6.88,11.41,13.88,16.62,19.94v-.15c5.61,6.49,9.93,12.55,11.54,15.2,4.72,7.73,4.4,14.51,4.43,18.63.02,2.58,2.03,3.07,4.73.82,5.5-4.58,5.15-9.63,5.27-11.34.59-8.83-.18-11.36-2.96-14.89Z"/><path class="cls-19" d="m283.65,165.46l-23.1-.43c-.02.25-.02.52,0,.79,0,.1.02.21.03.31.02.18.03.36.06.55.02.13.05.28.08.42.03.16.06.32.09.49.04.16.08.33.13.5.04.15.08.3.12.46.01.04.03.09.04.14.09.06,5.84,4,16.65,5.84,0,0,.34,17.24,3.19,24.2,0,0,.01.02.02.03,0,0,0,0,.01.02,1.07,1.31,2.14,2.6,3.21,3.89.45-10.36-.53-37.19-.53-37.19Z"/><path class="cls-11" d="m299.83,239.91s2.82,2.75,3.15,6.48-.12,13.93.17,15.31c0,0-1.52.86-3.01.78l-.58-4.1c-.25-.84-.16-1.52-1.06.04-.9,1.55-1.64,3.28-3.05,5.54-1.12,1.79-2.83,5.47-7.8,6.93-4.65,1.37-8.48.91-10.68-.19-1.31-.65-3.24-2.43-1.56-4.91.89-1.32,4.16-5.41,5.87-7.76,1.77-2.44,18.55-18.11,18.55-18.11Z"/><path class="cls-17" d="m287.2,239.78c.23-9.75-8.95-54.36-6.47-75.31l26.19-.31c-1.46,5.79-2.26,12.52-2.7,18.51-.43,5.7,1.4,18.74-1.26,32.84-2.07,10.95-2.92,18.41-2.96,19.91s-.16,4.7-.09,5.54c.42,4.82-.32,7.56-5.61,15.2-1.02,1.48-3.48,6.24-10.58,7.17-3.49.45-4.91-1.16-3.52-3.51,2.22-3.75,6.78-10.28,7.01-20.03Z"/><path class="cls-19" d="m304.21,182.67c-.06,2.21.08,4.42.2,6.63.11,2.21.21,4.42.27,6.64.1,4.43-.02,8.88-.48,13.3-.23,2.21-.59,4.4-.99,6.58l-1.2,6.51c-.39,2.17-.76,4.35-1.1,6.53-.35,2.18-.7,4.36-.91,6.56.19-4.43.85-8.82,1.5-13.19.64-4.38,1.64-8.69,2.04-13.07.26-2.19.4-4.39.51-6.59.1-2.2.11-4.41.12-6.62,0-2.21-.04-4.42-.08-6.63,0-2.21-.08-4.44.13-6.64Z"/><path class="cls-19" d="m280.35,176.14c-.12-4.33-.02-8.3.38-11.67l26.19-.31c-.7,2.78-1.25,5.78-1.68,8.8h0s-10.06,5.07-24.88,3.17Z"/><path class="cls-15" d="m261.02,121.87s.84-9.25,2.84-17.9c1.04-4.52,2.02-8.44,2.71-11.9,7.62,5.07,26.53,5.53,35.24-.18,1.46,2.28,5.78,7.98,9.21,16.07,2.99,7.07,4.22,11.5,4.08,20.29-.13,8.04-3.72,31.68-6.99,41.78-8.85,4.91-39.88,3.77-48.66-5.01,0,0,.52-34.82,1.56-43.15Z"/><g id="Head"><path class="cls-11" d="m269.22,12.74c-.16-1,.02-2.06.5-2.95,1.1-2.02,3.52-2.94,5.81-3.17,1.24-.12,2.54-.11,3.65-.68,1.02-.53,1.74-1.51,2.71-2.13,1.12-.71,2.52-.89,3.83-.71,1.62.23,3.05.85,4.23,1.95.94.88,1.87,1.57,3.13,1.93,2.85.82,4.89-.21,7.56,2.11,1.6,1.39,2.42,3.88,2.19,6.01,1.97,1.09,4.87,8.03,1.3,15.95-1.83,4.07-4.18,6.05-7.05,9.49l-2.93.14c-1.08-2.44-3.55-1.86-5.86-2.32-1.41-.56-2.24-1.98-3.58-2.64-1.21-.59-2.67-.57-3.98-.67-1.5-.12-3.14-.25-4.36-1.23-.98-.79-1.34-1.89-1.8-3-.3-.71-.84-3.08-.04-3.67-1.31.96-3.91,1.52-5.31.49-.87-.64-1.31-1.8-1.08-2.85.04-.21.11-.42.11-.64-.02-.44-.35-.81-.72-1.05-.37-.24-.8-.39-1.16-.63-1.09-.74-1.43-2.29-1.04-3.55.39-1.26,1.36-2.27,2.43-3.05.68-.49,1.48-1.01,1.61-1.84.07-.43-.06-.86-.13-1.29Z"/><path class="cls-17" d="m280.39,50.01s.49-.08,1.52-.26c1.3-.22,1.12-1.7,1.18-2.99l.03-2c-2.58.22-4.76-.28-6.62-1.76-2.81-2.23-4.46-6.85-4.43-11.89.02-3.35.81-4.95.73-5.7-.49-4.47-.18-5.28.76-7.64,1.71-3.77,6.37-5.33,8.59-1.46,5.63-4.81,12.36.88,12.42,7.8-.53,5.74,1.24,5.94,2.35,5.93,1.48-3.63,5.17-3.74,6.82-1.51,1.5,2.02,1.6,5.22-.97,8.26-2.51,2.96-5.52,1.26-5.58.69,0,0-.08,7.7-.07,9.24,0,1.54.22,2.43,2.15,2.97,0,0,.01,0,.02,0,1.97.55,2.78.78,2.78.78,0,0-.14.2-.42.54-.65.83-2.08,2.67-4.49,5.79-6.38,2.73-13.97,6.46-18.43,9.4-1.71-3.74-3.4-9.89-3.4-9.89,2.26-3.61,5.08-6.3,5.08-6.3Z"/><path class="cls-19" d="m286.29,34.93l-4.3,1.36c.35,1.23,1.6,1.93,2.79,1.55,1.19-.38,1.87-1.68,1.51-2.91Z"/><path class="cls-23" d="m286.01,35.92c-1.2-.03-2.23.8-2.49,1.93.4.11.83.12,1.25-.01.85-.27,1.43-1.02,1.57-1.87-.11-.02-.22-.04-.33-.04Z"/><path class="cls-11" d="m274.13,23.04l3.3-1.06c-.26-.93-1.21-1.45-2.12-1.16-.91.29-1.44,1.28-1.18,2.21Z"/><path class="cls-11" d="m289.97,23.88l-3.28-1.27c.32-.93,1.31-1.39,2.21-1.04.9.35,1.38,1.38,1.06,2.31Z"/><path class="cls-11" d="m278.09,26.32c.06.77-.53,1.46-1.31,1.54-.78.08-1.46-.48-1.52-1.26-.06-.77.53-1.46,1.31-1.54.78-.08,1.46.48,1.52,1.26Z"/><path class="cls-11" d="m288.38,26.94c.06.79-.54,1.49-1.34,1.57-.8.08-1.49-.49-1.55-1.28-.06-.79.54-1.49,1.34-1.57.8-.08,1.49.49,1.55,1.28Z"/><path class="cls-19" d="m283.12,44.77c5.5-.54,10.78-2.04,12.13-5.4,0,0,.02,2.98-3.14,4.68-4.56,2.45-9.01,2.33-9.01,2.33l.02-1.61Z"/><polygon class="cls-19" points="277.39 31.04 282.46 32.9 283.12 23.4 277.39 31.04"/></g><path class="cls-17" d="m259.27,68.42c-5.95,16.73-8.69,23.73-8.69,23.73,0,0-19.06,17.07-22.2,19.33-3.14,2.26-9.04,5.81-9.04,5.81-3.57,2.47-4.84,4.03-5.75,6.3-.91,2.27.48,6.44,1.99,8.25,1.51,1.81,2.81,3.1,4.76,3.33h0c.67.07,3.16.24,3.76-.06.45-.22.86-.54,1.33-.72.57-.22,1.22-.23,1.77-.5.89-.43,1.35-1.44,2.16-1.99.39-.27.85-.42,1.25-.68.32-.22.6-.5.84-.81.42-.52.77-1.15.67-1.81-.04-.27-.16-.53-.28-.78-.17-.36-.34-.71-.51-1.07-.01-.44.01-1.48.48-2.08.6-.78,2.68-3.35,2.68-3.35,0,0,0,0,0,0,.06-.04.12-.08.17-.13,1.24-.98,2.12-1.98,3.07-2.79,1.4-1.19,3.02-2.25,5.06-3.48,9.42-5.71,15.24-10.07,18.8-12.27,3.56-2.21,4.07-4.37,6.7-8.87,4.48-7.67,9.42-19,9.42-19l.39-25.67c-10.84.7-14.94,8.42-18.83,19.35Zm-38.93,66.75s.06,0,.15.02c-.05,0-.09-.01-.15-.02Zm.15.02c.19.02.34.04.45.05-.15-.02-.33-.04-.45-.05Z"/><path class="cls-14" d="m238.2,102.75l-4.37,3.64s2.87,1.51,4.77,4.47c1.9,2.96,2.24,5.87,2.24,5.87l4.86-3.02s0-2.63-2.46-6.32c-2.07-3.11-5.04-4.65-5.04-4.65Z"/><path class="cls-8" d="m238.2,102.75l-4.37,3.64s2.87,1.51,4.77,4.47c1.9,2.96,2.24,5.87,2.24,5.87l4.86-3.02s0-2.63-2.46-6.32c-2.07-3.11-5.04-4.65-5.04-4.65Z"/><path class="cls-11" d="m278.1,48.76c-6.23.84-10.82,2.14-14.54,9.32-3.72,7.18-13.06,33.22-13.06,33.22l-12.89,11.68s2.86,1.43,4.94,4.55,2.5,6.7,2.5,6.7c0,0,12.54-8.13,16.7-10.73s5.41-5.28,9.62-12.89c4.22-7.61,7.45-13.76,7.45-13.76l-.72-28.09Z"/><path class="cls-14" d="m280.73,51.32s-2.44,5.1-.78,8.18c8.24-.94,15.19-4.77,18.01-7.35l6.93,1.09s4.53,8.65,3.12,16.01c-1.41,7.36-7.3,24.18-7.3,24.18-7.84,11.39-34.53,5.38-35.24.18,0,0-.79-6.46-1.45-11.78,0,0-3.73-3.59-3.92-8.4-.19-5.04,1.88-8.57,6.97-13.76,5.22-5.33,9.64-8.18,9.64-8.18l4.02-.17Z"/><path class="cls-3" d="m280.73,51.32s-2.44,5.1-.78,8.18c8.24-.94,15.19-4.77,18.01-7.35l6.93,1.09s4.53,8.65,3.12,16.01c-1.41,7.36-7.3,24.18-7.3,24.18-7.84,11.39-34.53,5.38-35.24.18,0,0-.79-6.46-1.45-11.78,0,0-3.73-3.59-3.92-8.4-.19-5.04,1.88-8.57,6.97-13.76,5.22-5.33,9.64-8.18,9.64-8.18l4.02-.17Z"/><path class="cls-10" d="m295.64,80.77s-1.75,6.15-9.13,7.03c-6.75.81-10.29-4.48-10.29-4.48,0,0,1.44,7.68,10.57,6.33,9.11-1.35,8.86-8.88,8.86-8.88Z"/><path class="cls-13" d="m297.18,47.67s-6.8,15.83-9.09,23.47c-2.29,7.64-1.1,13.75-.24,27.57.66,10.64,1.83,26.7,1.83,26.7,0,0,20.19-.29,26.39-9.29-1.65-5.29-6.83-17.63-8.16-21-1.34-3.37-.68-6.36,1.48-14.16s5.63-12.08,5.53-17.85c-.1-5.78-4.13-10.44-5.6-11.43l-12.13-4Z"/><path class="cls-13" d="m282.87,48.96c-.17.44-.47.71-.85.8,0,0-13.69,13.17-14.65,26.81-.96,13.64-1.81,43.52-1.81,43.52,0,0-1.49-.69-4.38-3.85.61-6.19,2.75-30.66,2.17-33.47-.58-2.81-7.26-9.19-1.14-18.29,6.12-9.11,15.88-15.72,15.88-15.72l4.97-1.09c-.02.64-.02.85-.19,1.29Z"/><path class="cls-11" d="m276.14,52.3c-.87.78-1.73,1.58-2.57,2.39-1.68,1.63-3.35,3.27-4.96,4.98-.8.86-1.6,1.71-2.37,2.6-.39.44-.77.89-1.14,1.35-.36.46-.78.95-.96,1.62-.18.64-.16,1.27-.11,1.88.05.61.19,1.2.33,1.78.29,1.09.67,2.13,1.12,3.15-.9,1.16-1.77,2.33-2.31,3.78-.07.19-.12.4-.14.62,0,.22-.01.45.02.63.03.4.1.77.16,1.15.13.75.28,1.5.44,2.24.64,2.97,1.4,5.91,2.23,8.83-.59-2.98-1.18-5.95-1.72-8.93-.13-.74-.25-1.49-.35-2.23-.04-.37-.09-.74-.11-1.11-.03-.37,0-.65.12-.99.51-1.32,1.45-2.56,2.37-3.71l.14-.18-.09-.21c-.45-1.04-.84-2.14-1.12-3.25-.14-.55-.25-1.11-.3-1.67-.06-.55-.07-1.11.07-1.6.11-.47.45-.91.81-1.37.35-.45.72-.9,1.1-1.34.75-.89,1.54-1.75,2.33-2.61,1.57-1.73,3.15-3.45,4.77-5.13,1.62-1.68,3.22-3.39,4.95-4.97-.94.7-1.81,1.49-2.68,2.27Z"/><path class="cls-11" d="m300.19,70.4v-1.86s0-3.71,0-3.71c-.05-4.95-.1-9.9-.28-14.86-.21,4.96-.31,9.92-.4,14.88l-.04,3.72-.02,1.86v.46c0,.12-.02.23-.05.35-.07.23-.21.46-.38.67-.73.84-1.86,1.4-2.95,1.9-1.11.49-2.28.89-3.45,1.21l-.4.11.15.38c.59,1.5,1.14,3.04,1.55,4.59.1.39.19.78.26,1.16.07.38.11.79.05,1.08l-.02.1-.07.14-.95,1.92c-.72,1.46-1.46,2.92-2.16,4.39l-2.11,4.42,2.4-4.27c.8-1.42,1.57-2.87,2.35-4.3l.58-1.08.29-.54.22-.4.06-.19c.13-.51.07-.93.02-1.35-.05-.42-.14-.83-.24-1.23-.37-1.48-.86-2.9-1.39-4.32,1.09-.3,2.15-.65,3.19-1.09,1.15-.51,2.32-1.08,3.23-2.13.22-.27.41-.58.51-.95.05-.19.07-.38.07-.57v-.47Z"/><path class="cls-17" d="m326,89.45c.88,6.54,1.05,7.65.63,12.02-.31,3.26-.65,3.82-1.87,9.75-1.22,5.93-4.33,16.78-4.28,18.36.05,1.51.19,3.01-.02,4.53-.34,2.48-.58,3.53-1.25,5.23-.45,1.16-.74,2.42-1.27,3.54-.37.78-1.11,1.45-1.63,2.13-.6.79-.81,1.78-1.54,2.48-1.29,1.22-2.63,1.4-3.85,1.97-.53.78-1.42,2.42-2.01,3.14-1.51,1.86-1.86-1.18-1.8-2.21.06-1.07.33-2.23.62-3.26.76-2.69,1.4-5.36,1.86-8.12.08-.48.66-2.5-.14-2.49-.26,0-.48.19-.66.39-.55.62-.91,1.39-1.4,2.06-.38.53-.84.99-1.3,1.46-.39.4-.79.8-1.3,1.02-.52.22-2.41.37-2.5-.52-.01-.14.04-.28.1-.42.39-.92.86-1.8,1.26-2.72.34-.8.88-1.96,1.11-2.79.83-3,1.61-5.46,3.4-7.93,3.22-4.44,3.9-30.65,3.9-30.65l-4.32-18.07s-2.78-6.61-2.49-15.2c.28-8.58,3.49-10.87,3.49-10.87,6.65,2.67,10.27,4.75,12.01,10.88,1.74,6.12,4.67,21.86,5.26,26.26Z"/><path class="cls-18" d="m310.87,113.12l-.5,5.13s2.24-.62,6.91.7c3.7,1.04,5.01,2.87,5.01,2.87l1.21-5.05s-3.89-4.14-12.64-3.65Z"/><path class="cls-14" d="m310.87,113.12l-.5,5.13s2.24-.62,6.91.7c3.7,1.04,5.01,2.87,5.01,2.87l1.21-5.05s-3.89-4.14-12.64-3.65Z"/><path class="cls-11" d="m326.85,94.12c-.19-1.56-1.17-9.69-3.57-21.58-2.29-11.3-2.83-12.56-4.79-15.16-1.65-2.18-3.36-3.8-9.18-5.72,0,0-4.74,2.83-4.85,10.28-.11,7.1,2.93,16.96,2.93,16.96l4.11,18.31-.99,18.23c3.18-1.11,10.92.67,12.56,3.8,0,0,1.99-7.47,3.23-13.26,1.23-5.79.74-10.3.55-11.86Z"/><g id="Arm"><path id="Arm-2" class="cls-21" d="m124.15,160.68s6.07-22.51,6.07-22.51c2.79-11.56-.85-26.17-.85-26.17-5.18.61-9.78,3.03-12.3,9.55-2.52,6.52-6.19,29.04-7.07,33.89-.84,5.46-.92,7.57-.5,12.8.44,5.45,3.18,15.23,4.28,20.57.5,2.47.81,4.86,1.15,7.38.35,2.63,1.37,5.06,2.07,7.62.33,1.18,1.09,2.31,1.98,3.15.59.55,1.4.64,1.96,1.16.57.54.66,1.37,1.44,1.81.87.49,1.91.26,2.67.75.79.52,1.45,1.25,2.34,1.69.8.39,1.4.56,1.98,1.28.48.58.92,1.86,1.84,1.81,1.04-.05,1.25-1.04,1.34-1.9.17-1.51-.57-3.47-1.42-4.71-.98-1.44-1.62-3.09-2.77-4.41-1.04-1.2-1.6-2.92-1.99-4.46-.27-1.08-.11-2.44,1.23-1.75,1.58.81,3.22,2.43,5.18,2.19,1.35-.17,1.48-1.22.74-2.14-1.24-1.54-2.3-3.09-3.31-4.81-1.01-1.71-1.82-3.51-2.87-5.19-.55-.87-1.21-1.71-1.88-2.51-1.86-2.23-1.64-5.15-1.74-7.88-.13-3.81.27-12.34.44-17.21Z"/><path class="cls-24" d="m110.95,178.04l1.2,5.49s2.1,1.3,6.44.7c4.34-.6,5.69-2,5.69-2l-.25-5.79-13.07,1.6Z"/><path class="cls-12" d="m127.78,109.03c-7.53.92-10.18,5.61-12.48,13.27-2.35,7.85-4.89,25.71-5.54,29.43-.65,3.72-1.52,8.08-1.11,13.68.4,5.44,2.45,14.45,2.45,14.45,0,0,2.02,1.12,6.23.91,5.88-.3,6.98-2.12,6.98-2.12l.38-17.9,8.39-28.06-5.31-23.67Z"/></g><g id="Bottom"><path class="cls-11" d="m216.52,301.16c.55-.25,1.01,1.2.87,2.02-.39,2.35-2.54,5.46-6.36,7.82-3.82,2.35-12.22,3.95-14.7,4.68-2.47.73-6.28,3.46-8.59,4.7-4.2,2.25-7.63,1.99-9.54.99-.75-.39-1.07-1.24-1.28-1.99-.5-1.78-.46-2.19-.27-2.24l39.86-15.97Z"/><path class="cls-13" d="m175.55,311.81c.17,1.85.79,4.83,1.57,6.51.92,1.14,2.52,1.43,3.73,1.42,3.19-.03,5.97-1.18,8.94-2.97,1.78-1.08,3.72-2.24,6.05-2.89,2.56-.71,8.3-2,10.84-2.83,2.16-.7,4.77-2.09,6.45-3.73,1.42-1.38,3.39-4.05,3.54-5.6-.43-3.37-1.32-5.15-3.4-5.64-2.19-.51-4.89.16-8.62,1.1-1.12.28-2.51.68-3.11.81-2.28.49-4.39,1.02-6.1,1.47-1.46.39-2.9.76-4.41.45-.72-.14-1.29-.35-1.78-.92-.6-.7-.95-1.89-1.65-1.72,0,0-11.78,6.46-12.75,6.91-1.13.52.17,2.01.7,7.62Z"/><path class="cls-22" d="m202.47,297.56c.44.13.97.54,1.27.83.41.41.74.82,1.04,1.33.37.61-.37,1.01-.91.35-.37-.45-.77-.98-1.45-1.51-.33-.26-.96-.53-1.33-.44-.28.06-.65.15-.65.15.02-.55,1.45-.87,2.04-.69Z"/><path class="cls-22" d="m196.63,298.78c.43-.2.83-.2,1.29-.02.54.21.96.62,1.31,1.08.28.37.92,1.37,1.11,1.81.18.41-.79.73-1.04.29-.25-.43-.72-1.21-1.04-1.63-.2-.26-1.05-1.22-1.74-1.11l-.31.08c-.05-.15.11-.32.23-.39.06-.04.13-.08.19-.11Z"/><path class="cls-22" d="m193.3,299.8c.36,0,.57-.02.87.2.28.2.64.56.83.86.53.83.68,1.24.94,2.02.18.55-.82.73-.97.37-.46-1.13-.7-1.89-1.48-2.57-.65-.55-1.11-.63-1.11-.63,0-.11.13-.17.23-.18.15-.02.53-.07.68-.06Z"/><path class="cls-21" d="m170.19,290.46s3.7,11.79,4.82,14.48c.36.86,2.07.67,3.01.77.94.1,2.42.25,3.36.75,2.77,1.48,4.5,1.45,4.59-2.81.02-.87.39-1.37,1.41-1.51.76-.1,1.59-.02,2.26-.41.09-.11-.03-.27-.14-.36-.85-.68-1.32-1.13-1.69-2.77-1.15-5.05-1.75-9.4-3.01-15.59l-14.6,7.46Z"/><path class="cls-11" d="m161.29,173.83s5.65,7.11,9.06,20.41c4.14,16.14,5.75,28.56,7.04,37.57.81,5.66,1.41,9.7,2.88,20.01,1.22,8.59,6.59,40.53,6.59,40.53,0,0-3.94,3.58-7.25,4.9-3.08,1.22-5.94,1.71-7.07,1.22,0,0-3.8-10.25-8.5-23.67-2.96-8.44-4.59-14.54-5.41-18.95-.61-3.32-.47-9.23-.41-12.21l-25.25-40.99s-2.52-2.76-4.72-8.55c-3.32-8.76.92-21.39.92-21.39l32.11,1.12Z"/><path class="cls-9" d="m136.43,185.34h31.02c1.02,2.56,2.03,5.53,2.9,8.9,3.71,14.44,5.38,25.88,6.62,34.59-.75,5.34-1.61,10.81-2.4,14.58-2.08,9.94-3.39,16.97-5.03,21.07-1.65,4.1-5.61,9.91-5.62,9.93-2.87-8.23-4.47-14.22-5.28-18.56-.61-3.32-.47-9.23-.41-12.21l-18.34-29.77-1.43-9.22c-4.69-8.03-4.17-14.05-2.02-19.31Z"/><path class="cls-21" d="m121.91,307.08c1.78-2.98,3.37-7.62,7.28-19.29l14.56,11.99-9.01,15.05c-.47.85-.49,2.13-.65,2.38-1.93,2.92-12.18-10.13-12.18-10.13Z"/><path class="cls-13" d="m116.54,313.45c.02-.17-.06-1.58-.02-1.75.38-1.51,1.27-1.93,2.41-2.78,1.42-1.05,2.79-2.31,3.16-2.84.38-.56.46-.85,1.05-1.1,1.01-.43,2.64-.47,4.65.64,3.29,1.81,4.29,4,4.1,6.37-.14,1.81-.29,4.21,1.23,5.28.63.45,1.63-2.44,1.63-2.44.93,1.64-.38,3.92-1.06,7.25-.47,2.29-.35,3.28-.09,5.6.33,2.92.72,2.91,2.19,3.12,1.27.18,4.88-.08,7.08,1.53,3.03,2.22,2.22,5.18,2.22,5.18-.39,1.12-3.68,6.58-15.71,4.54-3.49-.59-10.82-6.35-10.7-6.89.1-.5-.01-1.15-.03-1.66-.04-1.29-.1-2.58-.15-3.88-.05-1.18.06-2.55-.2-3.69-.24-1.02-.35-1.99-.45-3.05-.23-2.59-.46-5.19-.69-7.78-.07-.75-.69-.92-.6-1.66Z"/><path class="cls-9" d="m115.03,312.93c-1.19,1.21-.46,4.71,1.13,8.91.71,1.86,2.02,5.07,1.63,8.48-.39,3.41-.45,5.02.38,6.62,1.31,2.5,8.3,5.7,12.42,6.7,0,0-3.78-4.98-4.19-12.51-.41-7.53-.96-12.38-4.24-15.71-4.14-4.22-7.14-2.48-7.14-2.48Z"/><path class="cls-11" d="m145.07,337.51s-2.41,4.75-11.72,4.59c-3.66-.06-5.62-1.94-5.71-7.79-.11-7.05-.65-14.17-2.82-17.67-2.17-3.5-5.63-5.2-8.31-4.95-.47.08-1.05.55-1.49,1.23,0,0,2.68-.93,6.86,2.71,3.08,2.69,3.92,8.3,3.87,15.27-.02,3-.19,6.4.64,8.68.77,2.1,2.48,3.54,4.44,4.11,5.06,1.49,11.98-.97,13.73-3.21,1-1.5.5-2.99.5-2.99Z"/><path class="cls-22" d="m133.9,329.52s.68.5.75,1.17c.07.66-.14,2.19-1.47,3.06-.56.37-1.05.24-.16-1,.89-1.24.87-3.23.87-3.23Z"/><path class="cls-22" d="m133.4,325.87s.3.2.37,1.18c.04.53-.74,2.64-1.72,3.15-.98.5-.45-.68-.02-1.26.47-.64,1.29-2.09,1.37-3.06Z"/><path class="cls-22" d="m133.73,321.84s.32.09-.02,1.44c-.11.45-1.4,1.79-2.03,1.87-.63.08-.94-.25-.16-.84.61-.46,2.09-1.82,2.21-2.47Z"/><path class="cls-11" d="m141.7,173.83c-1.47,1.59-5.14,6.91-5.74,15.09-.25,3.47.69,10,4.54,14.92,1.18,18.16,1.15,52.44,1.15,52.44-4.01,5.95-6.38,10.43-9.02,19.29-1.6,5.38-7.63,23.87-7.63,23.87,9.86-1.39,13.29,10.09,13.29,10.09,0,0,10.29-16.28,18.64-29.04,6.11-9.34,10.23-16.31,12.07-21.81,1.69-5.06,2.91-11.19,4.56-23,1.65-11.82,3.26-27.38,4.07-39.01.81-11.63.34-28.43.34-28.43l-36.26,5.59Z"/><path class="cls-9" d="m127.05,188.06c1.12-.34,2.72-1.46,3.32-2.48.36-.61.58-1.47.86-2.57.3-1.2.68-2.69,1.39-4.36l.85.4c-.68,1.61-1.03,2.99-1.34,4.22-.3,1.18-.53,2.1-.97,2.84-.72,1.2-2.57,2.57-4.03,2.93-.03-.33-.06-.65-.08-.98Z"/><path class="cls-9" d="m149.24,198.47c-.24,0-.44-.03-.6-.06-1.36-.31-2.41-1.27-4.51-4.1-1.6-2.15-1.44-3.69-1.17-6.25.1-.94,1.04-5.96,1.1-7.28l.9.52c-.06,1.35-.97,5.91-1.07,6.87-.27,2.54-.39,3.7.97,5.54,1.94,2.61,2.87,3.48,3.98,3.74,1.07.25,5.81-.57,7.08-1.49.73-.53,1.95-7.1,2.67-12.87l.93.13c-.36,2.92-1.65,12.52-3.06,13.55-1.26.91-5.33,1.76-7.21,1.71Z"/></g><polygon class="cls-21" points="155.38 102.97 153.68 115.48 136.69 114.61 138.53 101.07 155.38 102.97"/><path class="cls-23" d="m162.15,79.6c1.3,1.66,5.3,6.17,6.01,7.35l-3.8,2.31-2.21-9.66Z"/><path class="cls-21" d="m152.7,67.03c5.25-.56,8.65,3.16,10.18,14.32.06.44.71,1.12,1.2,2.8,2.1,7.17.93,13.99-.29,15.81-3.04,2.44-6.42,3.36-11.32,2.94-3.73-.32-13.25-1.45-18.07-6.49-5.68-5.93-8.54-14.86-4.51-19.49,5.67-6.52,19.92-9.57,22.81-9.88Z"/><path class="cls-23" d="m163.79,99.95c-.67,1-5.48,3.47-8.5,3.66l.28-2.35s4.08-.02,8.21-1.31Z"/><path class="cls-11" d="m153.74,86.6c-.36.85-1.23.93-1.75.29-.63-.77-1.12-1.6-1.91-2.22-.92-.72-2.08-1.19-3.24-1.1-4.4.34-3.33,6.14-1.17,8.16,3.54,3.3,5.42.45,5.42.45,0,0,2.54,5.61-1.16,8.89,0,0-6.39,2.76-11.41,1.21-4.19-3.29-6.81-6.29-9.33-9.77-5.98-8.25-5.46-16.71-1.62-19.05-.22-2.93,1.37-7.33,7.38-9.87,5.73-2.42,9.56-2.18,13.7-1.95,4.14.23,9.23,2.12,13.08-1.09.96,2.3.72,5.08-.64,7.17,1.22-.55,2.83.04,3.41,1.25s.03,2.83-1.16,3.44c.85.42,1.24,1.53.94,2.42-.3.9-1.21,1.52-2.15,1.59-1,.07-1.62-.02-2.6-.17-1.21,3.38-5.03,4.57-7.29,4.42.06-.01.36.46.4.53.13.19.25.38.36.59.22.4.4.83.54,1.26.28.87.39,1.8.32,2.71-.02.29.02.56-.09.83Z"/><path class="cls-26" d="m127.78,109.03c-4.41,2.47-7.13,9.36-6.18,19.33,1.14,11.89,3.04,14.45,4.34,24.38.41,3.13,1.1,7.44,1.1,15.53,0,4.72-.64,14.29-.64,14.29,0,0,5.9,7.31,22.11,8.26,20.69,1.22,29.85-3.79,29.85-3.79,0,0,.13-21.38-.37-34.73-.74-19.79-.78-25.59-3.88-32.32-1.02-1.99-2.09-6.43-5.46-7.3-2.67-.69-11.75-2.76-14.19-3.14-4,1.03-14.37,1.12-16.94-1.07l.04-.58c-3.99.21-9.79,1.14-9.79,1.14Z"/><path class="cls-26" d="m134.19,108.18c2.64-2.36,2.96-2.68,3.79-3.02l-.16,1.19s.53,1.42,5.54,1.92c8.71.87,11.45-1.11,11.45-1.11l.1-.75s.88-.2,2.3.79,4.6,3.87,4.6,3.87l-2.28-.5s-5.08,4.44-17.5,2.67c-8.66-1.23-7.86-5.05-7.86-5.05Z"/><path class="cls-21" d="m235.53,120.43s-.38.22-1.27.44c-3.59.93-7.33,1.32-10.9.36-.51-.14-1.08-.36-1.28-.86-.12-.31-.07-.66-.01-.99.14-.83.28-1.65.42-2.48.17-1.03.34-2.07.23-3.1-.07-.65-.27-1.32-.74-1.77-.47-.45-.81-.58-1.39-.26-.2.11-.45.64-.71,1.49-.68,2.27-1.77,3.22-3.03,5.86-1.23,2.57-2.11,4.32-6.47,8-1.54,1.3-16.4,11.23-16.4,11.23,0,0-1.77-2.06-10.67-13.62-6.07-7.9-7.91-9.76-13.74-11.03,0,0-6.9,8.13-1.89,21.08,1.83,3.49,12.34,14.2,16.3,17.63,6.53,5.65,10.13,7.69,14.82,3.44,5.07-4.6,8.95-9.41,13.28-14.12,3.69-4.01,5.29-5.47,8.25-6.55,2.93-1.06,6.28-3.24,8.91-5.49.54-.47,1.08-.95,1.47-1.55.37-.57.61-1.22.99-1.78.63-.94,1.62-1.57,2.36-2.43.71-.83,1.33-1.84,1.46-2.92.02-.16.09-.42.01-.56Z"/><path class="cls-24" d="m206.83,129.54l3.93-2.92s3.11.69,5.09,3.69,2.32,6.07,2.32,6.07l-3.01,2.65-8.32-9.49Z"/><path class="cls-12" d="m168.93,112.76c5.93,1.26,7.99,1.92,11.04,5.55s14.1,19.3,14.1,19.3l14.02-9.32s2.89.91,5.28,3.79,2.47,6.76,2.47,6.76c0,0-8.99,9.98-14.27,15.18-5.28,5.2-7.67,6.19-13.36,2.39s-18.14-16.33-18.14-16.33c0,0-10.79-14.98-1.15-27.32Z"/><path class="cls-17" d="m220.34,135.17c.93-.32,1.34-.67,1.82-1.27.57-1.08,1.36-1.74,1.61-2.94.09-.45.16-.9.34-1.33.28-.69.8-1.23,1.34-1.73.51-.48.92-1.04,1.46-1.51.26-.23.74-.44,1.05-.14.14-.45.3-.9.58-1.29.29-.4,1.1-1.1,1.6-.64.14.12.22.29.3.46.48,1.01.96,2.01,1.43,3.02.12.25.24.51.28.78.1.65-.25,1.29-.67,1.81-.24.3-.52.59-.84.81-.4.26-.86.42-1.25.68-.81.56-1.28,1.56-2.16,1.99-.55.27-1.2.28-1.77.5-.47.18-.88.5-1.33.72-.61.3-3.09.13-3.76.06Z"/><path class="cls-17" d="m220.34,135.17c.93-.32,1.34-.67,1.82-1.27.57-1.08,1.36-1.74,1.61-2.94.09-.45.16-.9.34-1.33.28-.69.8-1.23,1.34-1.73.51-.48.92-1.04,1.46-1.51.26-.23.74-.44,1.05-.14.14-.45.3-.9.58-1.29.29-.4,1.1-1.1,1.6-.64.14.12.22.29.3.46.48,1.01.96,2.01,1.43,3.02.12.25.24.51.28.78.1.65-.25,1.29-.67,1.81-.24.3-.52.59-.84.81-.4.26-.86.42-1.25.68-.81.56-1.28,1.56-2.16,1.99-.55.27-1.2.28-1.77.5-.47.18-.88.5-1.33.72-.61.3-3.09.13-3.76.06Z"/><g id="Thumb"><path class="cls-17" d="m235.31,113.95c-1.99,1.38-3.94,1.27-6.67,1.31-.87.01-1.76,0-2.62.16-.31.06-.63.13-.93.25-.38.16-.67.48-1.01.72-1.44,1.01-3.31,1.57-4.31,3.1-.58.88-.77,1.98-1.35,2.86-.24.37-.55.69-.73,1.09-.19.4-.23.91.05,1.25.13.16.32.27.52.35.69.29,1.49.31,2.19.07,1.46-.5,2.33-1.97,3.55-2.91.93-.71,2.06-1.1,3.18-1.37.5-.12,1.06-.31,1.57-.36.41-.04.87.07,1.28.11,1.83.16,5.28-6.63,5.28-6.63Z"/></g></g><g id="Light_Bulb"><g id="Light_Bulb-2"><g id="Bulb"><g id="Socket"><path class="cls-14" d="m209.5,78.64c-1.36-.76-1.38-2.02-.04-2.82,1.34-.8,3.53-.83,4.89-.06,1.36.76,1.38,2.02.04,2.82-1.34.8-3.53.83-4.89.06Z"/><path class="cls-14" d="m215.2,77.8h-.56c-.13-.25-.37-.49-.73-.7-1.11-.62-2.88-.6-3.97.05-.35.21-.59.46-.71.72h-.56s.66,1.02.66,1.02h0c.14.2.35.39.64.56,1.11.62,2.88.6,3.97-.05.28-.17.49-.36.63-.57h0l.63-1.03Z"/><path class="cls-14" d="m208.32,77.74c-2.01-1.13-2.03-3-.04-4.17,1.98-1.17,5.22-1.21,7.22-.08s2.03,3,.04,4.17-5.22,1.21-7.22.08Z"/><path class="cls-14" d="m208.18,77.07c-2.08-1.17-2.1-3.11-.05-4.33,2.06-1.22,5.41-1.25,7.49-.08,2.08,1.17,2.1,3.11.05,4.33s-5.41,1.25-7.49.08Z"/><path class="cls-14" d="m208.07,76.32c-2.13-1.2-2.16-3.19-.05-4.44,2.11-1.25,5.55-1.28,7.68-.08s2.16,3.19.05,4.44c-2.11,1.25-5.55,1.28-7.68.08Z"/><path class="cls-14" d="m207.97,75.56c-2.19-1.23-2.21-3.27-.05-4.55,2.16-1.28,5.69-1.31,7.87-.08,2.19,1.23,2.21,3.27.05,4.55-2.16,1.28-5.69,1.31-7.87.08Z"/><path class="cls-14" d="m207.87,74.81c-2.24-1.26-2.26-3.35-.05-4.65,2.21-1.31,5.82-1.35,8.06-.08,2.24,1.26,2.26,3.35.05,4.65-2.21,1.31-5.82,1.35-8.06.08Z"/><path class="cls-14" d="m207.77,74.06c-2.29-1.29-2.31-3.42-.05-4.76,2.26-1.34,5.96-1.38,8.25-.09,2.29,1.29,2.31,3.42.05,4.76-2.26,1.34-5.96,1.38-8.25.09Z"/></g><path class="cls-14" d="m217.94,68.55c-.01-.9-.62-1.8-1.82-2.47-2.4-1.35-6.27-1.31-8.64.09-1.19.7-1.77,1.61-1.76,2.51,0,.35.02,1.73.02,2.08.01.9.62,1.8,1.82,2.47,2.4,1.35,6.27,1.31,8.64-.09,1.19-.7,1.77-1.61,1.76-2.51,0-.35-.02-1.72-.02-2.08Z"/><path class="cls-14" d="m211.4,26.93c-10.14.11-18.28,8.41-18.17,18.56.15,14.58,12.21,16.87,12.27,22.75,0,.94.64,1.87,1.88,2.57,2.49,1.4,6.5,1.36,8.96-.09,1.23-.73,1.84-1.67,1.83-2.61h0c-.06-5.88,11.94-8.42,11.79-23-.11-10.14-8.41-18.28-18.56-18.17Z"/><path class="cls-2" d="m211.4,26.93c-10.14.11-18.28,8.41-18.17,18.56.15,14.58,12.21,16.87,12.27,22.75,0,.94.64,1.87,1.88,2.57,2.49,1.4,6.5,1.36,8.96-.09,1.23-.73,1.84-1.67,1.83-2.61h0c-.06-5.88,11.94-8.42,11.79-23-.11-10.14-8.41-18.28-18.56-18.17Z"/><path class="cls-14" d="m208.11,70.41c-2.08-1.17-2.1-3.11-.05-4.33,2.06-1.22,5.41-1.25,7.49-.08,2.08,1.17,2.1,3.11.05,4.33-2.06,1.22-5.41,1.25-7.49.08Z"/><path class="cls-8" d="m208.11,70.41c-2.08-1.17-2.1-3.11-.05-4.33,2.06-1.22,5.41-1.25,7.49-.08,2.08,1.17,2.1,3.11.05,4.33-2.06,1.22-5.41,1.25-7.49.08Z"/><path class="cls-7" d="m216.49,69.63c-.23.25-.53.48-.89.69-2.06,1.22-5.41,1.25-7.49.08-.36-.2-.66-.43-.9-.68.23-.25.53-.48.89-.69,2.06-1.22,5.41-1.25,7.49-.08.36.2.67.43.9.68Z"/><path class="cls-14" d="m216.49,69.63c-.23.25-.53.48-.89.69-2.06,1.22-5.41,1.25-7.49.08-.36-.2-.66-.43-.9-.68.23-.25.53-.48.89-.69,2.06-1.22,5.41-1.25,7.49-.08.36.2.67.43.9.68Z"/><path class="cls-1" d="m216.49,69.63c-.23.25-.53.48-.89.69-2.06,1.22-5.41,1.25-7.49.08-.36-.2-.66-.43-.9-.68.23-.25.53-.48.89-.69,2.06-1.22,5.41-1.25,7.49-.08.36.2.67.43.9.68Z"/><path class="cls-1" d="m225.93,36.44c-1.16-1.73-2.97-3.14-5.12-2.19-.22.1-.43.23-.64.39-.72.58-1.01,1.6-.87,2.51.28,1.77,2,2.86,3.01,4.23,1.1,1.5,1.94,3.19,2.45,4.98.15.53.35,1.42.63,1.9.44.75,1.35.86,1.83.6.71-.39,1.07-1.28,1.16-1.98.55-4.16-.33-7.26-2.46-10.44Zm.49,13.62c-.7-.06-1.29.49-1.47,1.06-.18.56-.08,1.14.21,1.64.32.55,1.1.68,1.62.35.53-.34.87-.97.86-1.6-.02-.67-.46-1.39-1.21-1.45Z"/><path class="cls-14" d="m213.99,70.01h-.21c-.07-6.53.27-10.63,1.13-13.71.25-.89.55-1.66.87-2.3-1.5-.44-3.1-1.43-4.13-2.38-1,.97-2.59,1.99-4.08,2.46.34.64.65,1.39.92,2.28.92,3.05,1.35,7.15,1.42,13.68h-.21c-.07-6.51-.49-10.59-1.41-13.62-.27-.89-.59-1.65-.93-2.28-.21.06-.41.11-.61.14-2.13.38-3.38-.22-3.84-.91-.32-.48-.31-1.06.02-1.58.3-.46.83-.68,1.45-.59.93.13,2.1.92,3.08,2.69,1.47-.46,3.04-1.46,4.03-2.42-.25-.25-.46-.49-.62-.72-1.02-1.51-.97-2.82-.59-3.55.27-.52.75-.81,1.3-.82.56,0,1.04.28,1.32.79.4.72.47,2.03-.51,3.56-.15.23-.35.48-.6.73,1.01.94,2.6,1.9,4.08,2.33.95-1.78,2.1-2.6,3.03-2.75.62-.1,1.16.1,1.47.56.35.51.37,1.09.06,1.58-.45.7-1.68,1.33-3.82,1-.2-.03-.4-.07-.61-.13-.33.64-.63,1.4-.88,2.3-.85,3.05-1.19,7.13-1.12,13.65Zm2.1-16.14c.18.05.37.08.54.11,2.04.32,3.2-.26,3.61-.9.27-.42.25-.9-.05-1.34-.26-.38-.72-.55-1.26-.47-.83.13-1.93.91-2.85,2.6Zm-11.99-2.46c-.43,0-.78.18-.99.51-.29.45-.3.93-.02,1.35.42.63,1.6,1.18,3.63.82.18-.03.36-.07.54-.12-.95-1.67-2.07-2.42-2.9-2.54-.09-.01-.17-.02-.25-.02Zm7.49-4.8c-.48,0-.88.26-1.12.71-.44.85-.22,2.15.58,3.33.15.22.35.45.59.69.24-.24.43-.48.57-.7.77-1.2.97-2.51.51-3.34-.25-.45-.65-.69-1.13-.68Z"/></g><path class="cls-14" d="m211.91,23.68c-.38,0-.69-.31-.69-.69v-6.87c0-.38.3-.69.68-.69.38,0,.69.31.69.69v6.87c0,.38-.3.69-.68.69Z"/><path class="cls-14" d="m223.19,26.74c-.12,0-.24-.03-.35-.09-.33-.19-.44-.61-.25-.94l3.43-5.95c.19-.33.61-.44.94-.25.33.19.44.61.25.94l-3.43,5.95c-.13.22-.36.35-.6.35Z"/><path class="cls-14" d="m231.43,35.02c-.24,0-.47-.12-.6-.35-.19-.33-.08-.75.25-.94l5.95-3.44c.33-.19.75-.08.94.25.19.33.08.75-.25.94l-5.95,3.44c-.11.06-.23.09-.35.09Z"/><path class="cls-14" d="m241.3,46.31h-6.87c-.38,0-.69-.3-.69-.68,0-.38.31-.69.69-.69h6.87c.38,0,.69.3.69.68,0,.38-.31.69-.69.69Z"/><path class="cls-14" d="m237.33,61.02c-.12,0-.24-.03-.35-.09l-5.95-3.43c-.33-.19-.44-.61-.25-.94.19-.33.61-.44.94-.25l5.95,3.43c.33.19.44.61.25.94-.13.22-.36.35-.6.35Z"/><path class="cls-14" d="m186.33,60.94c-.24,0-.47-.12-.6-.35-.19-.33-.08-.75.25-.94l5.95-3.44c.33-.19.75-.08.94.25.19.33.08.75-.25.94l-5.95,3.44c-.11.06-.23.09-.35.09Z"/><path class="cls-14" d="m189.28,46.21h-6.87c-.38,0-.69-.3-.69-.68,0-.38.31-.69.69-.69h6.87c.38,0,.69.3.69.68,0,.38-.31.69-.69.69Z"/><path class="cls-14" d="m192.33,34.93c-.12,0-.24-.03-.35-.09l-5.95-3.43c-.33-.19-.44-.61-.25-.94.19-.33.61-.44.94-.25l5.95,3.43c.33.19.44.61.25.94-.13.22-.36.35-.6.35Z"/><path class="cls-14" d="m200.61,26.68c-.24,0-.47-.12-.6-.34l-3.44-5.95c-.19-.33-.08-.75.25-.94.33-.19.75-.08.94.25l3.44,5.95c.19.33.08.75-.25.94-.11.06-.23.09-.34.09Z"/></g></g><g id="Speech_Bubbles"><g id="Speech_Bubble"><path class="cls-14" d="m85.47,49.23c6.55,3.78,11.04,9.78,13.08,16.5l.77,3.19c1.19,6.46.18,13.36-3.35,19.48-7.9,13.7-25.48,18.41-39.17,10.51-6.13-3.53-10.45-9-12.65-15.19l-.93-3.15c-1.59-6.85-.71-14.28,3.07-20.84,7.91-13.7,25.48-18.42,39.18-10.51Z"/><path class="cls-14" d="m44.16,58.58c-8.55,14.87-3.4,33.93,11.48,42.48,13.35,7.67,30.05,4.3,39.52-7.21l9.55,1.46c1.63.25,2.72-1.64,1.68-2.92l-6.07-7.52c5.18-13.98-.33-30.1-13.67-37.77-14.88-8.55-33.93-3.4-42.48,11.48Zm41.27-9.37c6.56,3.77,11.05,9.76,13.11,16.48l.78,3.19c1.2,6.46.21,13.36-3.32,19.49-7.88,13.71-25.44,18.46-39.15,10.58-6.13-3.52-10.46-8.99-12.68-15.17l-.93-3.15c-1.61-6.84-.74-14.28,3.03-20.84,7.88-13.72,25.45-18.46,39.16-10.58Z"/></g><g id="Check"><path class="cls-20" d="m66.78,90.55c-1.24,0-2.43-.51-3.28-1.42l-10.2-10.89c-1.7-1.81-1.6-4.66.21-6.36,1.81-1.7,4.66-1.6,6.36.21l6.62,7.07,15.67-19.84c1.54-1.95,4.36-2.28,6.32-.74,1.95,1.54,2.28,4.37.74,6.32l-18.91,23.95c-.81,1.03-2.03,1.65-3.34,1.71-.06,0-.13,0-.19,0Z"/></g><g id="Speech_Bubble-2"><path class="cls-20" d="m375.52,27.31c-7.06-2.72-14.54-2.43-21.06.2l-2.97,1.4c-5.77,3.14-10.5,8.26-13.04,14.86-5.68,14.76,1.7,31.39,16.46,37.07,6.6,2.54,13.57,2.46,19.77.29l3.03-1.26c6.33-3.07,11.55-8.43,14.27-15.49,5.68-14.76-1.7-31.39-16.46-37.08Z"/><path class="cls-20" d="m376.45,25.06c-14.35-5.56-30.35.3-37.96,13.12h-9.67c-1.65,0-2.44,2.04-1.22,3.15l7.14,6.51c-3,14.6,4.89,29.71,19.24,35.26,16,6.19,34.06-1.79,40.25-17.79,6.19-16-1.79-34.06-17.79-40.25Zm15.52,39.37c-2.73,7.05-7.97,12.41-14.3,15.46l-3.03,1.25c-6.2,2.16-13.17,2.23-19.77-.32-14.75-5.71-22.1-22.35-16.39-37.1,2.55-6.6,7.3-11.7,13.07-14.84l2.97-1.4c6.52-2.62,14-2.89,21.06-.16,14.75,5.71,22.11,22.35,16.4,37.1Z"/></g><g id="Check-2"><path class="cls-14" d="m360.9,70.56c-1.24,0-2.43-.51-3.29-1.42l-10.22-10.86c-1.7-1.81-1.61-4.66.19-6.36,1.81-1.7,4.66-1.61,6.36.19l6.64,7.06,15.62-19.88c1.53-1.95,4.36-2.29,6.32-.76,1.95,1.53,2.29,4.36.76,6.32l-18.85,23.99c-.81,1.03-2.03,1.66-3.34,1.71-.06,0-.13,0-.19,0Z"/></g></g></g></svg>