<?xml version="1.0" encoding="UTF-8"?><svg id="_Слой_1" xmlns="http://www.w3.org/2000/svg" viewBox="0 0 377.79 272.19"><defs><style>.cls-1{opacity:.58;}.cls-2{opacity:.86;}.cls-3,.cls-4,.cls-5,.cls-6,.cls-7,.cls-8,.cls-9,.cls-10,.cls-11,.cls-12,.cls-13,.cls-14,.cls-15,.cls-16,.cls-17,.cls-18,.cls-19,.cls-20,.cls-21,.cls-22,.cls-23,.cls-24,.cls-25,.cls-26,.cls-27,.cls-28,.cls-29,.cls-30,.cls-31,.cls-32,.cls-33,.cls-34,.cls-35,.cls-36,.cls-37{stroke-width:0px;}.cls-4{fill:#73c0ff;}.cls-5{fill:#5e5e5e;}.cls-6{fill:#78c2ff;}.cls-7{fill:#4da8f2;}.cls-8{fill:#285173;}.cls-9{fill:#a1d4ff;}.cls-10{fill:#9b9b9b;}.cls-11{fill:#25688f;}.cls-12{fill:#1a598c;}.cls-13{fill:#358cb7;}.cls-14{fill:#1c1d1e;}.cls-15{fill:#1d3b54;}.cls-16{fill:#0c0c0c;}.cls-17{fill:#2273b5;}.cls-18{fill:#16202e;}.cls-19{fill:#e0f1ff;}.cls-20{fill:#d6c5be;}.cls-21{fill:#d6d6d6;}.cls-22{fill:#d4d8e8;}.cls-23{fill:#a77860;}.cls-24{fill:#bcbcbc;}.cls-25{fill:#a9adba;}.cls-26{fill:#c2c2c2;}.cls-27{fill:#c2bebc;}.cls-28{fill:#32a3d3;}.cls-29{fill:#eea886;}.cls-30{fill:#eea987;}.cls-31{fill:#e8e8e8;}.cls-32{fill:#e3f2ff;}.cls-33{fill:#fae6de;}.cls-34{fill:#eddad3;}.cls-35{fill:#fafafa;}.cls-36{fill:#050505;}.cls-37{fill:#020202;}</style></defs><polygon class="cls-11" points="51.2 122.35 32.27 122.35 32.27 136.07 32.27 138.96 35.16 136.07 51.2 136.07 51.2 122.35"/><path class="cls-3" d="m22.99,127.75s4.63,2.27,3.49,8.43c-1.15,6.16-1.65,7-.37,9.4,1.28,2.41,2.79,12.68,1.64,14.63-1.15,1.95-14.27-8.56-16.09-17.37-1.82-8.81,1.15-12.74,2.2-14.2,1.05-1.46,5.04-2.97,9.13-.9Z"/><path class="cls-8" d="m24.27,150.01s2.36.48,3.68,2.43c.92,1.36,1,4.37,1.13,4.94.13.57,1.89,6.99,1.89,6.99l-4.91,3.29-1.79-17.64Z"/><path class="cls-15" d="m42.42,259.79s3.21,4.32,2.77,5c-.44.68-3.81.78-5.86,0-2.05-.78-2.1-5.84-3.03-8.01-.39-.91.44-3.6,1.61-3.79,1.17-.2,2.44.38,2.44.38,0,0-1.21,3.06,2.07,6.43Z"/><path class="cls-29" d="m40.37,253.33s.67,1.84.92,3.59c.2,1.46,2.28,4.55,2.19,4.94-.1.39-2.74.75-3.81-.26-1.07-1.01-1.77-3.94-2-5.69-.22-1.63-.5-2.44-.5-2.44,0,0,2.18-1.21,3.21-.14Z"/><path class="cls-15" d="m14.52,259.86s3.09,4.24,2.65,4.93c-.44.68-3.81.78-5.86,0-2.05-.78-2.1-5.84-3.03-8.01-.39-.91.44-3.6,1.61-3.79,1.17-.2,2.54.42,2.54.42,0,0-1.2,3.09,2.09,6.46Z"/><path class="cls-29" d="m12.43,253.4s.24,2,.64,3.42c.39,1.42,2.49,4.64,2.39,5.03-.1.39-2.74.75-3.81-.26-1.07-1.01-1.91-3.93-2-5.69-.1-1.77.24-2.92.24-2.92,0,0,1.51-.66,2.54.42Z"/><path class="cls-29" d="m27.87,183.15s2.75,12.8,3.38,16.02c.63,3.22,2.4,18.83,2.59,21.48.19,2.65,2.87,12.65,2.74,13.6-.13.95,3.97,19.98,3.97,19.98,0,0-1.4,1.13-2.88.1-.76-.53-9-17.82-9-22.56,0-6.55-4.84-15.1-5.47-16.56-5.81-13.61-4.66-17.77-5.42-18.66-.76-.88-.82.55-1.27,2.5-.44,1.96-1.39,18.89-1.96,21.04-.57,2.15-.13,9.41-.44,13.08s-1.7,20.24-1.7,20.24c0,0-1.07,1.68-2.58.04-.32-.35-2.6-18.46-2.66-22.82-.06-4.36-.13-10.37-.25-12.26-1.17-18.06-4.05-20.64.48-33.43,8.48-23.94,20.46-1.8,20.46-1.8Z"/><path class="cls-36" d="m9.4,179.57s-7.84,10.97-4.46,34.3c0,0,18.59,2.53,28.55-2.92,0,0-4.12-24.05-5.61-27.8-1.49-3.74-18.47-3.58-18.47-3.58Z"/><polygon class="cls-15" points="36.21 256.4 36.21 260.91 36.8 260.91 36.8 257.42 36.21 256.4"/><polygon class="cls-15" points="8.19 256.4 8.19 260.91 8.78 260.91 8.78 257.42 8.19 256.4"/><path class="cls-34" d="m19.92,148.41s2.89,1.36,3.89,1.56c1,.2,4.89,5.25,5.57,7.1s0,4.61-1.4,7.86c-1.4,3.25-.08,4.33-.72,7.58s-1.2,10.12-1.08,11.93-16.22,2.15-19.95-1.14c0,0,3.75-5.61,4.23-6.41.48-.8.08-5.17-.36-6.29-.44-1.12-3.38-10.67-3.38-10.67,0,0-2.4-7.33-.23-9.02,1.88-1.46,7.02-1.99,7.94-2.31.92-.32,3.61-.46,5.49-.18Z"/><path class="cls-20" d="m20.84,154.84l1.75-2.05-1.52-5.41s-.51,3.01-.23,7.46Z"/><path class="cls-29" d="m21.29,145.07s-.08.72-.17,1.72c-.04.44-.09.94-.13,1.46-.12,1.46-.21,3.04-.16,3.84,0,0-3,3.01-6.41-3.51,0,0,1.44-2.69.36-6.35-1.08-3.66,6.51,2.83,6.51,2.83Z"/><polygon class="cls-29" points="20.84 152.09 20.84 154.84 17.39 152.26 20.84 152.09"/><polygon class="cls-20" points="20.84 154.84 19.41 153.07 14.58 148.25 13.01 149.76 20.84 154.84"/><path class="cls-8" d="m13.91,148.71s4.05,6.15,4.25,8.86c.19,2.71-1.51,22.95-2.87,29.46-1.36,6.51-11.2-.73-11.2-.73,0,0,6.61-10.7,4.07-19.26-2.54-8.56-3.46-11.99-3.46-11.99,0,0,.87-4.77,3.97-5.44,2.71-.59,5.24-.89,5.24-.89Z"/><path class="cls-8" d="m29.65,157.89s.73,2.59-2.12,8.3c0,0,.04,7.32.13,9.6.08,2.29,1.7,10.5,1.7,10.5l-3.89,2.07c-.57.33-1.27-.13-1.19-.78.8-6.58,3.39-31.53-2.21-38.23l2.25.66s4,3.27,5.34,7.87Z"/><polygon class="cls-33" points="22.59 152.79 24.8 153.4 21.07 147.38 22.59 152.79"/><polygon class="cls-33" points="19.41 153.07 17.39 155.71 13.24 148.8 14.58 148.25 19.41 153.07"/><rect class="cls-3" x="24.93" y="162.61" width=".73" height="8.65" transform="translate(-98.06 51.65) rotate(-38.32)"/><path class="cls-29" d="m22,169.78s.51,0,.85-.25c.58-.44.79-1.52,1.82-1.44,1.03.08,1.5,3.3,1.25,3.91-.26.61-1.68.91-3.79.49-2.11-.42-.12-2.72-.12-2.72Z"/><path class="cls-29" d="m24.31,168.12s1.48-.5,3.18-.87c1.49-.32,3.28-.43,3.45-.17.19.29-1.46.54-2.92.95-1.35.38-1.03.52-1.03.52,0,0-.09-.04,1.45-.19,1.66-.15,3.36-.15,3.53.18.08.16.02.27-.57.42.36-.02.41.08.42.22.07.75-2.34,1.34-3.3,1.57.74-.18,1.29-.23,1.03.27-.3.57-3.75,1.26-4.96,1.62-1.33.39-.28-4.54-.28-4.54Z"/><path class="cls-8" d="m9.24,149.72c-1.02-.33-4,.73-4.5,3.78-.5,3.06-.71,6.45-1.18,8.09-.47,1.65-1.67,8.94-.66,9.54,1.01.6,2.92,1.16,5.59,1.16s13.48.48,13.48.48l.67-3.81s-4.07-.21-6.18-.53c-1.88-.29-4.48-1.08-7.54-1.42,0,0,.65-4.52,1.12-5.79.47-1.28,3.76-10.03-.81-11.51Z"/><polygon class="cls-29" points="28.84 169.26 29.34 170.49 28.27 169.72 28.84 169.26"/><polygon class="cls-10" points="22.94 175.65 33.73 173.51 41.74 156.38 30.21 157.59 22.94 175.65"/><path class="cls-29" d="m35.08,170.6s.59-.55,1.12-1.32c.53-.77,2.25-3.71,2.09-3.89-.16-.18-2.72-.25-3.18.17-.46.42.46.58.46.58,0,0-1.4.14-1.3.54.1.4.94.29.94.29,0,0-1.13.22-.96.56.17.35.71.34.71.34,0,0-1,.13-.88.5s1.7.74,1.49,1.05c-.21.31-.5,1.17-.5,1.17Z"/><path class="cls-30" d="m22.32,128.43s6.73,2.11,3.08,13.72c-3.65,11.61-12.84-1.35-11.88-8.42.96-7.07,8.8-5.3,8.8-5.3Z"/><path class="cls-3" d="m26.08,135.21s-3.34,3.28-8.94,3.69c0,0-2.15,2.52-2.31,3.51,0,0-4.99-8.51,1.14-13.61,6.13-5.1,12.36,4.31,10.11,6.41Z"/><path class="cls-30" d="m17.21,139.13c-.04-.84-.56-2.77-1.82-2.23-1.26.54.08,4.45.91,4.21,0,0,1.01.02.91-1.98Z"/><path class="cls-23" d="m21.12,146.8c-.04.44-.09.94-.13,1.46h0c-3.89-1.92-4.48-4.69-4.5-4.77,2.77,3.58,4.63,3.32,4.63,3.32Z"/><path class="cls-5" d="m133.23,165.93s-.87,6.72,3.99,11.88c4.86,5.16,15.81,3.32,15.81,3.32,0,0-1.81-6.1-5.78-8.61-3.97-2.51-11.77-3.38-14.01-6.59Z"/><path class="cls-11" d="m138.88,153.18s-4,7.54-.56,15.77c3.44,8.23,17.16,10.91,17.16,10.91,0,0,.57-7.99-3-12.71-3.57-4.72-12.38-9.19-13.6-13.97Z"/><path class="cls-28" d="m318.49,56.3s6.8,10.32,1.06,15.81c-5.74,5.48-6.42-.64-6.42-.64,0,0-3.07.2,3.03-6.78,2.88-3.29,2.32-8.38,2.32-8.38Z"/><path class="cls-13" d="m336.71,51.03s4.85,9.38-6.57,18.16c-11.42,8.79-11.37,14.84-11.37,14.84,0,0-8.04-21.73,17.94-33Z"/><path class="cls-11" d="m317.31,80.04c-4.34-.12,2.02-11.15,9.09-13.38,7.07-2.24,12.72-1.31,17.02-4.04,0,0-4.73,18.02-26.11,17.43Z"/><rect class="cls-11" x="143.89" y="44.91" width=".91" height="109.28"/><rect class="cls-6" x="76.92" y="123.54" width="75.44" height=".91"/><path class="cls-11" d="m332.09,209.88h-148.11c-6.88,0-12.47-5.84-12.47-13.03v-104.28c0-7.18,5.59-13.03,12.47-13.03h148.11c6.88,0,12.47,5.84,12.47,13.03v104.28c0,7.18-5.59,13.03-12.47,13.03ZM183.98,80.64c-6.27,0-11.37,5.35-11.37,11.93v104.28c0,6.58,5.1,11.93,11.37,11.93h148.11c6.27,0,11.37-5.35,11.37-11.93v-104.28c0-6.58-5.1-11.93-11.37-11.93h-148.11Z"/><path class="cls-27" d="m281.68,163.46c-.37,0-.74,0-1.11,0v-1.1c1.62,0,3.3,0,4.93-.03l.02,1.1c-1.27.02-2.56.04-3.84.04Zm-6.06-.09c-1.65-.05-3.32-.12-4.94-.21l.06-1.09c1.62.09,3.27.16,4.92.21l-.03,1.09Zm14.85-.1l-.05-1.09c1.65-.07,3.3-.17,4.92-.29l.08,1.09c-1.62.12-3.29.21-4.95.29Zm-24.73-.44c-3.1-.25-4.92-.49-4.94-.5l.14-1.09s1.82.24,4.89.49l-.09,1.09Zm34.62-.27l-.11-1.09c1.64-.16,3.29-.35,4.89-.56l.14,1.09c-1.61.21-3.27.4-4.92.57Zm9.83-1.29l-.18-1.08c1.63-.27,3.26-.57,4.84-.88l.22,1.07c-1.59.32-3.23.62-4.88.89Zm9.71-1.96l-.26-1.07c1.61-.39,3.21-.81,4.75-1.26l.3,1.05c-1.55.45-3.17.87-4.79,1.27Zm9.53-2.75l-.35-1.04c1.57-.54,3.12-1.11,4.61-1.7l.41,1.02c-1.5.6-3.07,1.18-4.66,1.72Zm9.22-3.7l-.47-.99c1.5-.7,2.97-1.45,4.37-2.23l.53.96c-1.42.79-2.91,1.54-4.43,2.26Zm8.7-4.82l-.6-.92c1.38-.9,2.72-1.85,3.99-2.82l.67.87c-1.29.99-2.65,1.96-4.06,2.87Zm7.87-6.07l-.74-.81c1.2-1.11,2.36-2.27,3.44-3.46l.81.74c-1.1,1.21-2.28,2.4-3.51,3.53Zm6.67-7.37l-.88-.65c.97-1.3,1.88-2.66,2.7-4.05l.94.56c-.85,1.42-1.78,2.81-2.76,4.14Zm5.1-8.53l-.99-.47c.68-1.45,1.31-2.96,1.86-4.5l1.03.37c-.56,1.57-1.2,3.11-1.9,4.59Zm3.37-9.34l-1.06-.28c.4-1.54.75-3.15,1.03-4.76l1.08.19c-.29,1.65-.64,3.28-1.05,4.85Zm1.71-9.77l-1.09-.1c.15-1.59.25-3.23.29-4.88l1.1.03c-.04,1.68-.15,3.34-.3,4.96Zm-.82-9.88c-.06-1.6-.16-3.24-.31-4.89l1.09-.1c.15,1.67.26,3.34.31,4.95l-1.09.04Zm-.88-9.77c-.22-1.58-.49-3.21-.79-4.84l1.08-.2c.31,1.65.58,3.29.8,4.89l-1.09.15Zm-1.79-9.65c-.13-.59-.28-1.19-.42-1.78-.24-1-.51-2-.79-2.96l1.05-.31c.29.98.56,1.99.8,3.01.14.6.29,1.2.42,1.8l-1.07.24Zm-2.77-9.35c-.59-1.53-1.24-3.02-1.95-4.46l.98-.48c.72,1.46,1.39,2.99,1.99,4.55l-1.02.39ZM28.96,61.55l-1-.46c.69-1.51,1.41-3.02,2.12-4.47l.98.49c-.71,1.44-1.42,2.93-2.11,4.44Zm332.54-1.96c-.85-1.38-1.78-2.72-2.75-4l.87-.67c1,1.31,1.95,2.68,2.82,4.09l-.93.58Zm-328.18-6.84l-.96-.52c.79-1.47,1.61-2.92,2.43-4.31l.94.56c-.82,1.38-1.63,2.82-2.41,4.28Zm322.28-.86c-1.09-1.17-2.27-2.3-3.49-3.38l.72-.82c1.25,1.1,2.45,2.26,3.57,3.45l-.8.75Zm-7.29-6.42c-1.29-.94-2.65-1.85-4.06-2.71l.57-.94c1.43.87,2.82,1.8,4.13,2.76l-.65.89Zm-310.01-1.18l-.92-.59c.9-1.4,1.83-2.78,2.77-4.1l.89.63c-.93,1.31-1.85,2.68-2.75,4.06Zm301.69-3.91c-1.41-.72-2.9-1.42-4.43-2.08l.43-1.01c1.55.67,3.06,1.38,4.49,2.11l-.5.98Zm-8.98-3.89c-1.49-.54-3.06-1.07-4.65-1.56l.32-1.05c1.61.5,3.19,1.03,4.7,1.58l-.38,1.03Zm-287.04-.2l-.86-.67c1.02-1.31,2.08-2.6,3.15-3.83l.83.72c-1.05,1.22-2.1,2.49-3.11,3.79Zm277.67-2.71c-1.54-.4-3.14-.79-4.78-1.16l.24-1.07c1.65.37,3.26.76,4.82,1.17l-.28,1.06Zm-9.59-2.15c-1.56-.3-3.2-.58-4.85-.85l.18-1.08c1.66.27,3.3.56,4.88.86l-.2,1.08Zm-9.72-1.58c-1.57-.22-3.22-.43-4.89-.62l.13-1.09c1.67.2,3.33.41,4.91.63l-.15,1.09Zm-251.94-.95l-.79-.76c1.15-1.19,2.35-2.36,3.54-3.47l.74.81c-1.18,1.09-2.36,2.25-3.5,3.43Zm242.16-.21c-1.58-.16-3.23-.31-4.91-.46l.1-1.09c1.68.15,3.34.3,4.92.46l-.11,1.09Zm-9.82-.86c-1.56-.12-3.22-.23-4.92-.35l.07-1.09c1.7.11,3.36.23,4.93.35l-.08,1.09Zm-9.84-.65c-1.63-.1-3.27-.19-4.91-.28l.06-1.09c1.64.09,3.28.18,4.92.28l-.06,1.09Zm-9.84-.54c-1.56-.08-3.13-.16-4.7-.24h-.23s.05-1.11.05-1.11h.23c1.57.09,3.13.17,4.7.25l-.06,1.1Zm-9.87-.5c-1.65-.08-3.3-.17-4.95-.26l.06-1.09c1.65.09,3.29.18,4.94.26l-.06,1.09Zm-9.88-.54c-1.74-.1-3.35-.2-4.93-.31l.07-1.09c1.58.1,3.19.2,4.92.31l-.06,1.09Zm-9.86-.65c-1.69-.13-3.35-.26-4.93-.4l.09-1.09c1.57.14,3.23.27,4.92.4l-.08,1.09Zm-9.85-.86c-1.68-.17-3.33-.35-4.92-.53l.13-1.09c1.58.19,3.23.36,4.9.53l-.11,1.09Zm-9.83-1.15c-1.67-.23-3.32-.47-4.89-.73l.17-1.08c1.57.25,3.21.49,4.87.72l-.15,1.09Zm-156.18-.69l-.69-.85c1.28-1.05,2.6-2.07,3.94-3.02l.64.89c-1.31.94-2.62,1.95-3.88,2.98Zm146.41-.88c-1.65-.31-3.29-.64-4.85-.99l.24-1.07c1.56.34,3.18.67,4.82.98l-.2,1.08Zm-9.67-2.13c-.72-.18-1.44-.38-2.14-.57l-2.63-.72.29-1.06,2.63.73c.7.19,1.41.38,2.12.56l-.27,1.06Zm-9.52-2.6c-1.58-.43-3.17-.86-4.76-1.29l.28-1.06c1.59.43,3.18.86,4.76,1.29l-.29,1.06Zm-119.27-.1l-.58-.93c1.4-.88,2.84-1.72,4.29-2.5l.52.96c-1.43.77-2.85,1.6-4.23,2.47Zm109.75-2.46c-1.64-.43-3.25-.85-4.77-1.24l.27-1.06c1.53.39,3.14.81,4.78,1.24l-.28,1.06Zm-101.14-2.19l-.46-1c1.49-.69,3.03-1.34,4.57-1.93l.39,1.02c-1.52.59-3.04,1.23-4.51,1.91Zm91.59-.24c-1.63-.4-3.24-.79-4.79-1.15l.25-1.07c1.55.36,3.17.75,4.8,1.15l-.26,1.06Zm-9.6-2.23c-1.63-.36-3.25-.7-4.82-1.02l.22-1.07c1.57.32,3.2.66,4.83,1.02l-.24,1.07Zm-72.87-1.05l-.33-1.05c1.56-.49,3.16-.95,4.77-1.36l.27,1.06c-1.59.4-3.17.86-4.71,1.34Zm63.22-.91c-1.64-.3-3.27-.59-4.85-.85l.18-1.08c1.59.26,3.23.55,4.87.86l-.2,1.08Zm-53.72-1.51l-.21-1.08c1.6-.31,3.24-.59,4.89-.83l.16,1.08c-1.63.23-3.26.51-4.84.82Zm44.01-.1c-1.65-.24-3.29-.45-4.88-.64l.13-1.09c1.6.19,3.25.41,4.9.64l-.16,1.08Zm-9.77-1.16c-1.65-.15-3.3-.28-4.9-.37l.07-1.09c1.61.1,3.27.22,4.94.38l-.1,1.09Zm-24.53-.14l-.1-1.09c1.61-.15,3.28-.27,4.94-.36l.05,1.1c-1.65.08-3.3.2-4.89.35Zm14.72-.45c-1.24-.03-2.48-.05-3.68-.05-.41,0-.82,0-1.23,0v-1.1c.4,0,.82,0,1.23,0,1.22,0,2.47.02,3.71.05l-.03,1.1Z"/><path class="cls-11" d="m361.53,55.69c-.75-2.91-1.91-5.67-3.4-8.2l3.46-5.2-4.8-4.8-4.8-4.8-5.21,3.46c-2.53-1.49-5.28-2.65-8.2-3.4l-1.23-6.12h-13.58l-1.23,6.12c-2.91.75-5.67,1.91-8.2,3.4l-5.2-3.46-4.8,4.8-4.8,4.8,3.46,5.2c-1.49,2.53-2.65,5.28-3.4,8.2l-6.12,1.23v13.58l6.12,1.23c.75,2.91,1.91,5.67,3.4,8.2l-3.46,5.2,4.8,4.8,4.8,4.8,5.2-3.46c2.53,1.49,5.28,2.65,8.2,3.4l1.23,6.12h13.58l1.23-6.12c2.91-.75,5.66-1.91,8.2-3.4l5.21,3.46,4.8-4.8,4.8-4.8-3.46-5.2c1.49-2.53,2.65-5.28,3.4-8.2l6.12-1.23v-13.58l-6.12-1.23Zm-30.96,31.81c-13.14,0-23.79-10.65-23.79-23.79s10.65-23.79,23.79-23.79,23.79,10.65,23.79,23.79-10.65,23.79-23.79,23.79Z"/><path class="cls-24" d="m163.04,66.66h155.05c6.89,0,12.48,5.59,12.48,12.48v104.28c0,6.89-5.59,12.48-12.48,12.48h-155.05c-6.89,0-12.48-5.59-12.48-12.48v-104.28c0-6.89,5.59-12.48,12.48-12.48Z"/><path class="cls-11" d="m234.05,99.29c-5.53-15.46-20.3-24.95-35.87-24.48-3.77.11-7.59.81-11.33,2.15-11.34,4.06-19.47,13.09-22.81,23.76-2.32,7.4-2.33,15.58.48,23.44.28.78.58,1.55.91,2.3,1.48,3.4,3.42,6.48,5.72,9.19,9.66,11.36,25.7,16.16,40.57,10.84,19.2-6.87,29.2-28,22.33-47.2Zm-25.45,38.5c-11.15,3.99-23.17.39-30.42-8.13-1.73-2.03-3.18-4.34-4.29-6.89-.24-.56-.47-1.14-.68-1.73-2.11-5.89-2.1-12.03-.36-17.57,2.5-8,8.6-14.78,17.1-17.82,2.81-1,5.67-1.53,8.49-1.61,11.67-.35,22.75,6.77,26.9,18.36,5.15,14.4-2.35,30.24-16.75,35.39Z"/><path class="cls-11" d="m172.85,103.48l-8.82-2.75c3.34-10.67,11.47-19.71,22.81-23.76,3.75-1.34,7.56-2.04,11.33-2.15l.28,9.24c-2.83.09-5.69.61-8.49,1.61-8.5,3.04-14.6,9.81-17.1,17.82Z"/><path class="cls-35" d="m173.89,122.78l-8.47,3.69c-.33-.75-.63-1.52-.91-2.3-2.81-7.86-2.8-16.04-.48-23.44l8.82,2.75c-1.74,5.54-1.75,11.68.36,17.57.21.59.44,1.16.68,1.73Z"/><path class="cls-28" d="m171.14,135.66c-2.3-2.71-4.25-5.79-5.72-9.19l8.47-3.69c1.11,2.55,2.56,4.86,4.29,6.89l-7.04,5.99Z"/><path class="cls-35" d="m173.44,188.75c7.52,3.56,16.22,1.67,21.63-4.08,1.31-1.39,2.43-3.01,3.29-4.83,2.61-5.52,2.29-11.67-.34-16.69-1.82-3.48-4.75-6.42-8.57-8.23-.38-.18-.76-.35-1.15-.5-1.75-.69-3.55-1.1-5.35-1.24-7.53-.61-15,3.42-18.42,10.65-4.42,9.34-.43,20.5,8.91,24.92Zm-4.68-22.91c2.57-5.43,8.16-8.44,13.81-7.99,1.35.11,2.7.41,4.01.93.29.11.58.24.86.37,2.87,1.36,5.06,3.56,6.43,6.17,1.97,3.76,2.21,8.38.25,12.51-.65,1.37-1.48,2.58-2.47,3.62-4.06,4.31-10.58,5.73-16.22,3.06-7-3.31-10-11.68-6.68-18.68Z"/><path class="cls-11" d="m193.87,165.33l4.15-2.17c2.63,5.02,2.95,11.17.34,16.69-.86,1.82-1.98,3.44-3.29,4.83l-3.41-3.21c.98-1.04,1.82-2.26,2.47-3.62,1.96-4.14,1.72-8.75-.25-12.51Z"/><path class="cls-11" d="m186.58,158.78l1.72-4.36c.39.15.77.32,1.15.5,3.82,1.81,6.75,4.75,8.57,8.23l-4.15,2.17c-1.36-2.61-3.56-4.81-6.43-6.17-.29-.13-.57-.26-.86-.37Z"/><path class="cls-7" d="m182.95,153.18c1.8.14,3.6.55,5.35,1.24l-1.72,4.36c-1.31-.52-2.66-.82-4.01-.93l.38-4.67Z"/><path class="cls-11" d="m330.57,79.13v104.28c0,6.89-5.59,12.48-12.48,12.48h-68.65V66.66h68.65c6.89,0,12.48,5.59,12.48,12.48Z"/><path class="cls-35" d="m261.5,80.07h57.02c.9,0,1.63.73,1.63,1.63v3.31c0,.9-.73,1.63-1.63,1.63h-57.02c-.9,0-1.63-.73-1.63-1.63v-3.31c0-.9.73-1.63,1.63-1.63Z"/><path class="cls-28" d="m261.5,94.15h57.02c.9,0,1.63.73,1.63,1.63v3.31c0,.9-.73,1.63-1.63,1.63h-57.02c-.9,0-1.63-.73-1.63-1.63v-3.31c0-.9.73-1.63,1.63-1.63Z"/><rect class="cls-28" x="259.87" y="110.31" width="60.28" height="74.26" rx="5.47" ry="5.47"/><g class="cls-1"><path class="cls-19" d="m262.68,107.15h7.95c3.71,0,6.73,3.02,6.73,6.73v41.58c0,3.71-3.01,6.73-6.73,6.73h-7.95c-3.71,0-6.73-3.01-6.73-6.73v-41.58c0-3.71,3.01-6.73,6.73-6.73Z"/></g><rect class="cls-11" x="116.56" y="60.69" width="137.56" height=".91"/><path class="cls-11" d="m130.34,53.13c-4.07,0-7.37-3.31-7.37-7.37s3.31-7.37,7.37-7.37,7.37,3.31,7.37,7.37-3.31,7.37-7.37,7.37Zm0-13.65c-3.46,0-6.28,2.82-6.28,6.28s2.82,6.28,6.28,6.28,6.28-2.82,6.28-6.28-2.82-6.28-6.28-6.28Z"/><path class="cls-29" d="m110.58,137.15s6.89,1.23,6.95,7.06c.06,5.83-5.27,14.28-8.74,13.65-3.47-.62-7.41-3.7-7.28-7.25.13-3.55,1.12-8.21,2.72-10.77,1.6-2.56,4.43-2.82,6.36-2.7Z"/><path class="cls-3" d="m101.74,147.92s.01,1.19,2.38,2.13c2.37.94,6.72-.38,7.81-.16,1.09.22,1.42-.31,1.42-.31l.08,1.16.93.63s.65-3.1,2.6-3.37c1.95-.27,3.57-9.16-4.82-10.85,0,0-6.21-1.69-7.81,1.46-1.6,3.15-2.87,7.07-2.57,9.29Z"/><path class="cls-28" d="m99.1,179.25h53.97c4.45,0,8.05,3.61,8.05,8.05v53.96c0,4.45-3.61,8.05-8.05,8.05h-53.97c-4.45,0-8.05-3.61-8.05-8.05v-53.97c0-4.45,3.61-8.05,8.05-8.05Z"/><rect class="cls-28" x="85.62" y="66.66" width="70.08" height="53.22" rx="7.02" ry="7.02"/><rect class="cls-32" x="128.55" y="189.55" width="27.22" height="7.54" rx="1.65" ry="1.65"/><path class="cls-32" d="m132.34,200.92h19.64c2.09,0,3.79,1.7,3.79,3.79v32.37c0,2.09-1.7,3.79-3.79,3.79h-19.64c-2.09,0-3.79-1.7-3.79-3.79v-32.37c0-2.09,1.7-3.79,3.79-3.79Z"/><path class="cls-32" d="m106.79,210.8c1.21.41,2.51.64,3.86.66,4.08.05,7.74-1.86,10.06-4.85,1.61-2.08,2.58-4.68,2.62-7.51,0-.28,0-.56-.02-.84-.07-1.26-.32-2.47-.73-3.6-1.73-4.75-6.25-8.17-11.61-8.25-2.89-.04-5.56.9-7.69,2.52-2.99,2.25-4.94,5.81-4.99,9.84-.07,5.57,3.5,10.33,8.51,12.02Zm-5.37-11.98c.04-3,1.48-5.65,3.69-7.34,1.61-1.23,3.63-1.95,5.82-1.92,4.02.05,7.41,2.62,8.71,6.18h0c.31.85.5,1.76.55,2.7.01.21.01.42.01.63-.03,2.12-.76,4.07-1.96,5.63-1.74,2.25-4.48,3.68-7.54,3.64-1.01-.01-1.98-.18-2.89-.49-3.75-1.27-6.43-4.84-6.38-9.02Z"/><path class="cls-12" d="m118.23,204.69l2.48,1.92c-2.32,3-5.98,4.91-10.06,4.85-1.35-.02-2.64-.25-3.86-.66l1.01-2.97c.91.31,1.88.48,2.89.49,3.06.04,5.8-1.39,7.54-3.64Z"/><path class="cls-17" d="m120.18,198.43l3.13-.17c.01.28.02.56.02.84-.04,2.83-1.01,5.43-2.62,7.51l-2.48-1.92c1.21-1.56,1.94-3.51,1.96-5.63,0-.21,0-.42-.01-.63Z"/><path class="cls-17" d="m120.18,198.43c-.05-.94-.24-1.85-.55-2.69h0s2.95-1.08,2.95-1.08c.41,1.13.67,2.34.73,3.6l-3.13.17Z"/><path class="cls-7" d="m103.28,188.94c2.14-1.61,4.81-2.56,7.69-2.52,5.36.07,9.88,3.49,11.61,8.25l-2.94,1.08h0c-1.3-3.57-4.69-6.14-8.71-6.19-2.18-.03-4.2.69-5.82,1.92l-1.84-2.54Z"/><polygon class="cls-21" points="18.54 90.37 33.64 66.79 25.97 70.26 18.54 90.37"/><polygon class="cls-31" points="18.54 90.37 19.46 76.16 24.95 73.03 18.54 90.37"/><polygon class="cls-26" points="30.16 72.21 32.05 74.7 18.54 90.37 30.16 72.21"/><path class="cls-29" d="m123.41,182.85s.68-.09,1.07-.49c.68-.69.74-2.15,2.11-2.25,1.36-.1,2.62,4.04,2.41,4.89-.22.85-2.03,1.53-4.89,1.4-2.85-.14-.7-3.55-.7-3.55Z"/><path class="cls-29" d="m126.13,180.21s1.84-.95,4.01-1.77c1.9-.72,4.25-1.23,4.51-.9.57.73-1.65,1.24-3.49,2.07-1.7.77-1.41.65-1.41.65,0,0-.13-.04,1.87-.53,2.15-.53,4.39-.86,4.67-.46.14.2.39.88-.51.85.47-.09.39-.16.44.02.24.97-2.82,2.22-4.03,2.72.93-.38,1.66-.56,1.41.15-.29.81-4.68,2.4-6.21,3.11-1.66.78-1.26-5.91-1.26-5.91Z"/><path class="cls-11" d="m93.51,154.33s-4.3-.31-7.34,0c-3.04.31-7.23,2.8-9.77,3.51-2.54.72-8.67,4.84-8.5,5.4s2.54,7.27,6.93,12.71c3.76,4.66,18.69-21.63,18.69-21.63Z"/><path class="cls-25" d="m84.23,157.03s-4.64,3.43-6.25,6.58c-1.62,3.15-2.17,6.9-2.17,6.9l8.42-13.48Z"/><path class="cls-37" d="m87.74,259.32s1.33,1.41,2.09,1.78,9.92,1.95,10.54,2.69c.62.75.62,3.69-1.74,3.69s-10.23-.04-11.55,0c-1.33.04-6.92,1.16-7.5,0-.58-1.16-.52-6.57.5-7.87,1.02-1.3,7.66-.29,7.66-.29Z"/><path class="cls-28" d="m87.46,257.68l.28,1.64s-2.44,1.12-7.66.29v-1.7l7.38-.24Z"/><path class="cls-37" d="m31.88,254.76s-1.02,1.19-1.53,2.73c-.32.99-1.86,5.59-1.2,6.71.66,1.12,5.88,1.28,8.49.87,2.61-.41,8.28.45,8.86-.66.58-1.12.91-2.75-.79-3.38-1.7-.63-5.59-2.29-6.29-4.03-.7-1.74-7.54-2.24-7.54-2.24Z"/><path class="cls-28" d="m40.14,255.14l-.72,1.86s-7.48-.56-7.54-2.24l2.36-3.44,5.9,3.81Z"/><path class="cls-29" d="m101.52,151.15s-4.17,3.54-5.35,3.25c-1.19-.29,4.09,7.49,4.09,7.49,0,0,5.02-4.94,6.15-5.09,1.13-.15-4.88-5.65-4.88-5.65Z"/><path class="cls-11" d="m101.8,165.13c-1.42.86-1.66,1.13-1.49,5.19.17,4.06,1.85,7.33,1.97,8.45.12,1.12,2.38,12.21,3,12.83.62.62,8.05-.83,9.55-1.29,2.25-.7,11.76-3.92,11.76-3.92l-2.09-4.36s-12.01,2.68-12.4,1.74c-.39-.94-1.33-8.82-1.66-10.53-.33-1.71.25-4.4-1.8-8.46-1.83-3.64-6.85.36-6.85.36Z"/><path class="cls-5" d="m87.72,195.66s2.55,2.71,3.26,3.59c4.88,6.03,11.51,17.09,12.34,19.02.83,1.93-4.1,15.6-6.13,20.37-1.06,2.5-8.09,19.76-7.87,20.14.22.39-7.43.64-10.86-1.12,0,0,4.92-14.58,5.96-17.44,1.57-4.32,7-16.28,7.16-17.44.17-1.16-8.78-10.72-11.76-12.54-2.98-1.82-10.27-8.28-11.1-9.11-.83-.83-5.52-3.04-5.08-7.23.44-4.2,3.56-7.51,3.56-7.51l20.51,9.28Z"/><path class="cls-5" d="m74.33,206.05s-.47,1.23-1.12,2.94c-1.4,3.69-3.67,9.64-4.05,10.58-.55,1.38-3.31,7.34-4.64,8.5-1.33,1.16-23.14,27.33-23.19,27.55-.05.22-8.17-3.98-8.67-5.58,0,0,11.82-15.41,13.64-17.67,1.82-2.26,5.63-5.63,6.9-10.99,1.27-5.36,10.38-25.95,10.41-26.73,0,0,1.47-6.35,3.59-8.28,2.13-1.93,9.86.33,11.07,4.36,1.22,4.03-3.94,15.3-3.94,15.3Z"/><path class="cls-22" d="m95.79,154.37l1.76-.69s4.45,1.02,7.01,4.58l-.22,1.06s-6.78-1.47-8.55-4.95Z"/><path class="cls-25" d="m102.57,180.29c-.36.5-.65.85-.83,1.01-.13.11-.28.24-.45.38,0,0,0,0,0,0l-.17-6.68s.84,2.57.96,2.96c.13.38.49,2.33.49,2.33Z"/><path class="cls-14" d="m74.33,206.05s-.47,1.23-1.12,2.94c-1.48-1.71-4.87-8.17-4.87-8.17.22.16.93.82,1.09.97.16.15,4.9,4.25,4.9,4.25Z"/><path class="cls-29" d="m112.27,149.37c.16-.51-.22-2.44-1.46-1.34-1.23,1.1-1.23,3.57-.53,3.77.7.2,1.59-1.15,1.99-2.43Z"/><path class="cls-3" d="m107.65,138.51s-5.98-4.25-6.01,10.24l6.01-10.24Z"/><path class="cls-11" d="m102.57,180.29c-.36.5-.65.85-.83,1.01-.13.11-.28.24-.45.38,0,0,0,0,0,0-1.69,1.35-5.47,3.97-7.22,4.92-1.93,1.05-5.6,9.89-5.6,9.89,0,0-17.29-1.17-21.27-10.11,0,0,2.82-6.29,5.38-10.02,2.57-3.73,8.2-17.15,11.18-19.05,2.98-1.91,5.55-3.15,11.43-2.98,5.88.17,9.14,4.83,9.14,4.83,0,0,4.47,4.8,4.91,7.34.38,2.18-4.47,10.71-6.68,13.78Z"/><path class="cls-11" d="m155.69,73.68l-.12,3.9h-70.08l.12-3.9c0-3.88,3.14-7.02,7.02-7.02h56.04c3.88,0,7.02,3.14,7.02,7.02Z"/><path class="cls-11" d="m107.6,115.4h-14.1c-1.82,0-3.3-1.48-3.3-3.3v-28.11c0-1.82,1.48-3.3,3.3-3.3h14.1c1.82,0,3.3,1.48,3.3,3.3v28.11c0,1.82-1.48,3.3-3.3,3.3Zm-14.1-33.62c-1.22,0-2.21.99-2.21,2.21v28.11c0,1.22.99,2.21,2.21,2.21h14.1c1.22,0,2.21-.99,2.21-2.21v-28.11c0-1.22-.99-2.21-2.21-2.21h-14.1Z"/><rect class="cls-11" x="114.64" y="81.23" width="35.79" height="2.92" rx="1.1" ry="1.1"/><rect class="cls-11" x="114.64" y="87.17" width="35.79" height="2.92" rx="1.1" ry="1.1"/><path class="cls-11" d="m208.71,157.31h22.18c.94,0,1.7.76,1.7,1.7v3.43c0,.94-.76,1.7-1.7,1.7h-22.18c-.94,0-1.7-.76-1.7-1.7v-3.42c0-.94.76-1.7,1.7-1.7Z"/><path class="cls-35" d="m208.71,168.43h22.18c.94,0,1.7.76,1.7,1.7v3.43c0,.94-.76,1.7-1.7,1.7h-22.18c-.94,0-1.7-.76-1.7-1.7v-3.42c0-.94.76-1.7,1.7-1.7Z"/><path class="cls-28" d="m208.71,179.55h22.18c.94,0,1.7.76,1.7,1.7v3.43c0,.94-.76,1.7-1.7,1.7h-22.18c-.94,0-1.7-.76-1.7-1.7v-3.42c0-.94.76-1.7,1.7-1.7Z"/><path class="cls-32" d="m96.83,72.58c0,1.68-1.36,3.05-3.05,3.05s-3.04-1.36-3.04-3.05,1.36-3.04,3.04-3.04,3.05,1.36,3.05,3.04Z"/><path class="cls-28" d="m325.9,177.85s12.38,4,15.24,3.29c1.51-.37,3.87-2.52,6.07-4.83.36-.38.72-.77,1.07-1.15,2.42-2.66,4.4-5.2,4.4-5.2,0,0,6-7.03,1.18-10.16,0,0-2.12.2-3.73,1.92-1.6,1.72-3.11,4.46-3.53,5.38-.42.92-6.31,9.41-6.62,9.6-.3.19-2.88-.49-4.94-.66-3.37-.28-8.4-2-8.4-2l-.75,3.8Z"/><path class="cls-18" d="m342.91,254.12s-1.58,2.82-2.51,3.39c-1.17.71-3.43,2.99-4.22,3.1-.79.1-3.63.61-3.08,2.21.45,1.32,7.23,1.13,7.99.47.76-.66,3.05-3.02,3.97-2.97.92.05.58,3.41.58,3.41h1s.35-3.27.39-3.83c.12-1.66-1.06-2.89-1.11-3.83-.05-.95-.11-1.66-.11-1.66l-2.9-.29Z"/><path class="cls-29" d="m336.41,260.53s2.23.77,3.95-.22c1.72-.99,5.02-2.49,6.19-2.5,0,0-.64-1.95-.65-2.16-.01-.22-.08-1.24-.08-1.24l-2.88-.46s-1.87,2.75-2.7,3.39c-.82.65-2.94,2.26-3.83,3.19Z"/><path class="cls-29" d="m370.15,256.77s-.28,1.95-.58,2.48c-.3.53-1.14,3.24-1.52,3.75-.38.51-1.22,4.31,0,4.76,1.22.46,4.08,1.22,5.04-.3.96-1.52,1.09-3.04.94-4.2-.15-1.16-1.31-6.51-1.29-7.04.02-.53-2.58.56-2.58.56Z"/><path class="cls-18" d="m368.53,261.95s-.13,2.95,2.1,2.95,3.22-2.69,3.22-2.69c0,0,.76,1.32,0,4.13-.76,2.81-3.93,2.23-4.63,2.13-.71-.1-4.07-.99-.68-6.52Z"/><path class="cls-36" d="m366.47,189.52s2.88,3.67,3.9,6.1,2.71,7.75,2.49,11.88c-.23,4.12-1.58,11.86-1.19,13.61s.79,5.37,1.21,6.61c.42,1.24,2.12,4.86,2.29,8.59.17,3.73-1.21,20.08-1.09,21.61.11,1.52-4.94.59-4.94.59,0,0-.13-14.74-.69-17.29-.57-2.54-1.24-11.19-1.75-11.81-.51-.62-1.93-7.17-2.03-8.24-.09-1.04-6.13-18.95-6.47-22-.34-3.05-7.91-9.65-7.91-9.65,0,0,7.42-2.84,16.18,0Z"/><path class="cls-36" d="m347.7,254.93c1.07-.17,3.95-16.69,3.61-19.63-.34-2.94-.68-9.2.28-11.75.63-1.67,4.57-10.17,7.22-16.14.37-.84.72-1.63,1.03-2.35.84-1.94,1.4-3.32,1.41-3.6.06-1.13,3.74-20.59-10.81-11.93,0,0-.15,1.54-.32,2.1-.17.56-4.07,14.97-4.46,20.51-.4,5.54-1.41,10.23-1.58,11.41-.17,1.18.17,5.14.51,6.15.34,1.02-2.2,23.97-2.37,24.54-.17.57,4.41.85,5.49.68Z"/><path class="cls-34" d="m356.15,158.77s-2.75,1.3-3.71,1.49c-.96.19-4.67,5.01-5.32,6.77-.65,1.76,0,4.4,1.34,7.5,1.34,3.1.08,4.13.69,7.23.61,3.1,1.15,9.66,1.03,11.38-.12,1.72,15.47,2.05,19.02-1.08,0,0-3.57-5.35-4.03-6.12-.46-.77-.08-4.93.35-6,.42-1.07,3.4-9.92,3.4-9.92,0,0,2.11-7.25.04-8.86-1.8-1.4-6.7-1.89-7.57-2.2-.88-.31-3.44-.44-5.24-.17Z"/><path class="cls-20" d="m355.27,164.91l-1.67-1.96,1.45-5.16s.49,2.87.22,7.12Z"/><path class="cls-29" d="m354.84,155.6s.55,5.05.43,6.7c0,0,2.86,2.87,6.12-3.34,0,0-1.37-2.56-.34-6.05,1.03-3.49-6.21,2.7-6.21,2.7Z"/><polygon class="cls-29" points="355.27 162.29 355.27 164.91 358.56 162.45 355.27 162.29"/><polygon class="cls-20" points="355.27 164.91 356.64 163.22 361.24 158.63 362.73 160.07 355.27 164.91"/><path class="cls-17" d="m360.56,195.61c1.3,6.21,10.68-.7,10.68-.7,0,0-6.08-10.22-3.66-18.39.02-.06.04-.13.06-.19.15-.52.31-1.01.46-1.47.03-.08.05-.17.08-.25.53-1.61.96-2.93,1.31-4.03h0c1.08-3.36,1.39-4.47,1.39-4.47,0,0-.46-5.23-3.05-5.81-2.59-.58-5.34-1.12-5.34-1.12,0,0-4.48,5.75-4.67,8.33-.19,2.58,1.43,21.89,2.73,28.1Z"/><path class="cls-17" d="m346.74,168.22s-.29,3.56,2.15,8.23c0,0-.05,6.26-.13,8.44-.08,2.18-.6,10.42-.6,10.42l2.69,1.57c.54.32,1.21-.12,1.13-.75-.76-6.27-3.23-30.07,2.12-36.46l-2.38.82s-4.99,5.23-4.99,7.72Z"/><polygon class="cls-33" points="353.6 162.95 351.49 163.53 355.05 157.79 353.6 162.95"/><polygon class="cls-33" points="356.64 163.22 358.56 165.74 362.5 159.19 361.24 158.63 356.64 163.22"/><path class="cls-29" d="m356.83,139.29c-2.01-.19-6.54.61-7.49,5.93,0,0,.09,1.45.39,2.6.3,1.15-.88,4.44-.62,4.62.26.18,1.34.44,1.34.44,0,0,1,3.71,2.29,3.74,1.28.03,6.18-.74,8.69-5.18,2.5-4.43,3.54-11.37-4.6-12.15Z"/><path class="cls-16" d="m349.35,145.22s3.17,2.39,6.4,3c3.23.61,4.98,6.23,4.98,6.23,0,0,5.42-8.15,1.67-13.36-3.75-5.22-13.46-2.13-13.05,4.14Z"/><path class="cls-29" d="m357.11,148.13c.05-.63.79-1.54,1.79-.63.99.91-.54,3.84-1.37,3.5-.83-.33-.46-2.22-.41-2.87Z"/><path class="cls-23" d="m354.83,156.33c.07.39.15.85.21,1.34,2.71-1.55,4.13-3.52,4.13-3.52-1.57,1.29-4.34,2.18-4.34,2.18Z"/><g class="cls-2"><path class="cls-19" d="m297.16,190.46l40.2.2c2.2.01,4-1.76,4.01-3.97l.13-26.83c.01-2.2-1.77-4-3.97-4.01l-40.2-.2c-2.2-.01-4,1.76-4.01,3.97l-.13,26.83c-.01,2.2,1.76,3.99,3.97,4.01Z"/></g><path class="cls-28" d="m315.06,187.77l20.49.1c1.44,0,2.62-1.16,2.63-2.6l.11-22.79c0-1.44-1.16-2.62-2.6-2.63l-20.49-.1c-1.44,0-2.62,1.16-2.63,2.6l-.11,22.79c0,1.44,1.16,2.62,2.6,2.63Z"/><path class="cls-9" d="m298.37,183.51h11.84c.41,0,.73.33.73.73v2.81c0,.41-.33.73-.73.73h-11.84c-.41,0-.73-.33-.73-.73v-2.81c0-.41.33-.73.73-.73Z" transform="translate(607.65 372.8) rotate(-179.72)"/><path class="cls-9" d="m298.03,182.19l12.51.06c.22,0,.4-.18.4-.4v-.47c0-.22-.17-.4-.4-.4l-12.51-.06c-.22,0-.4.18-.4.4v.47c0,.22.17.4.4.4Z"/><path class="cls-29" d="m342.99,179.4s-.47.11-.84-.06c-.63-.29-1.04-1.26-1.98-.98-.94.28-.75,3.36-.39,3.88.36.52,1.75.52,3.62-.29,1.88-.81-.42-2.55-.42-2.55Z"/><path class="cls-29" d="m340.5,178.31s-1.47-.18-3.13-.18c-1.45,0-3.14.25-3.25.52-.12.31,1.46.21,2.9.31,1.33.09,1.06.29,1.06.29,0,0,.07-.06-1.39.11-1.57.18-3.15.52-3.25.86-.04.17.03.26.61.28-.34.05-.37.15-.35.29.08.71,2.44.78,3.38.81-.72-.02-1.25.04-.9.45.4.47,3.74.43,4.94.53,1.31.1-.64-4.27-.64-4.27Z"/><path class="cls-3" d="m360.14,147c-.99,2.25-.39,4.7,1.34,5.46,1.73.76,3.94-.45,4.93-2.71.99-2.26.39-4.7-1.34-5.46-1.73-.76-3.94.45-4.93,2.71Z"/><path class="cls-28" d="m368.36,160.5s-2.57.47-3.83,2.45c-1.27,1.98-2.57,4.79-2.82,5.77-.25.98-5.06,9.95-5.33,10.19-.27.24-2.92.04-4.98.24-3.36.33-8.62-.45-8.62-.45l-.05,3.87s12.9,1.71,15.58.5c3.28-1.47,11.22-12.57,11.22-12.57,0,0,4.12-7.79-1.18-10.01Z"/><path class="cls-12" d="m363.15,178.64l5.03-4.03c.53-1.61.96-2.93,1.31-4.03,0,0-5.1,6.68-6.34,8.05Z"/><path class="cls-12" d="m347.2,176.32c.36-.38.72-.77,1.07-1.15,0,0-1.36-3.62-1.45-5.15,0,0-.32,3.42.38,6.31Z"/><path class="cls-4" d="m309.05,163.05c-.88-2.46-3.23-3.97-5.71-3.9-.6.02-1.21.13-1.8.34-1.81.65-3.1,2.08-3.63,3.78-.37,1.18-.37,2.48.08,3.73.05.12.09.25.15.37.24.54.54,1.03.91,1.46,1.54,1.81,4.09,2.57,6.46,1.73,3.06-1.09,4.65-4.46,3.56-7.52Zm-4.05,6.13c-1.78.64-3.69.06-4.84-1.29-.28-.32-.51-.69-.68-1.1-.04-.09-.08-.18-.11-.28-.34-.94-.33-1.92-.06-2.8.4-1.27,1.37-2.35,2.72-2.84.45-.16.9-.24,1.35-.26,1.86-.06,3.62,1.08,4.28,2.92.82,2.29-.37,4.82-2.67,5.64Z"/><path class="cls-4" d="m299.31,163.71l-1.41-.44c.53-1.7,1.83-3.14,3.63-3.78.6-.21,1.2-.32,1.8-.34l.04,1.47c-.45.01-.91.1-1.35.26-1.35.48-2.33,1.56-2.72,2.84Z"/><path class="cls-4" d="m299.47,166.79l-1.35.59c-.05-.12-.1-.24-.15-.37-.45-1.25-.45-2.56-.08-3.73l1.41.44c-.28.88-.28,1.86.06,2.8.03.09.07.18.11.28Z"/><path class="cls-4" d="m299.04,168.84c-.37-.43-.68-.92-.91-1.46l1.35-.59c.18.41.41.77.68,1.1l-1.12.95Z"/><path class="cls-4" d="m302.43,173.37c-.36-1.01-1.33-1.63-2.35-1.6-.25,0-.5.05-.74.14-.74.27-1.27.86-1.49,1.55-.15.48-.15,1.02.03,1.53.02.05.04.1.06.15.1.22.22.42.38.6.63.74,1.68,1.06,2.65.71,1.26-.45,1.91-1.83,1.46-3.09Zm-1.67,2.52c-.73.26-1.52.03-1.99-.53-.11-.13-.21-.28-.28-.45-.02-.04-.03-.08-.04-.11-.14-.39-.14-.79-.02-1.15.16-.52.56-.97,1.12-1.17.18-.06.37-.1.56-.1.76-.02,1.49.44,1.76,1.2.34.94-.15,1.98-1.1,2.32Z"/><path class="cls-4" d="m298.43,173.64l-.58-.18c.22-.7.75-1.29,1.49-1.55.24-.09.49-.13.74-.14l.02.6c-.18,0-.37.04-.56.1-.56.2-.96.64-1.12,1.17Z"/><path class="cls-4" d="m298.5,174.91l-.55.24s-.04-.1-.06-.15c-.18-.51-.18-1.05-.03-1.53l.58.18c-.11.36-.12.76.02,1.15.01.04.03.08.04.11Z"/><path class="cls-4" d="m298.32,175.75c-.15-.18-.28-.38-.38-.6l.55-.24c.07.17.17.32.28.45l-.46.39Z"/><rect class="cls-11" x="115.48" y="99.15" width="4.27" height="15.7"/><rect class="cls-11" x="121.55" y="97.56" width="4.27" height="17.28"/><rect class="cls-11" x="127.71" y="100.85" width="4.27" height="14"/><rect class="cls-11" x="133.86" y="94.37" width="4.27" height="20.48"/><rect class="cls-11" x="140.32" y="96.41" width="4.27" height="18.44"/></svg>