<svg xmlns="http://www.w3.org/2000/svg" xmlns:xlink="http://www.w3.org/1999/xlink" width="100" zoomAndPan="magnify" viewBox="0 0 75 74.999997" height="100" preserveAspectRatio="xMidYMid meet" version="1.0"><defs><clipPath id="7de0ac8b54"><path d="M 2.359375 3.152344 L 75 3.152344 L 75 74.402344 L 2.359375 74.402344 Z M 2.359375 3.152344 " clip-rule="nonzero"/></clipPath></defs><g clip-path="url(#7de0ac8b54)"><path fill="#ffffff" d="M 31.5 38.785156 C 30.589844 38.785156 29.847656 39.527344 29.847656 40.4375 L 29.847656 42.347656 C 29.847656 43.257812 30.589844 44 31.5 44 C 32.171875 44 32.4375 44.515625 32.503906 44.671875 C 32.570312 44.828125 32.746094 45.378906 32.269531 45.851562 C 31.957031 46.164062 31.785156 46.582031 31.785156 47.023438 C 31.785156 47.464844 31.957031 47.878906 32.269531 48.191406 L 33.621094 49.542969 C 34.265625 50.1875 35.3125 50.1875 35.957031 49.542969 C 36.433594 49.066406 36.984375 49.242188 37.140625 49.308594 C 37.300781 49.371094 37.8125 49.636719 37.8125 50.308594 C 37.8125 51.222656 38.554688 51.964844 39.464844 51.964844 L 41.375 51.964844 C 42.289062 51.964844 43.027344 51.222656 43.027344 50.308594 C 43.027344 49.636719 43.542969 49.375 43.699219 49.308594 C 43.859375 49.242188 44.40625 49.066406 44.882812 49.542969 C 45.527344 50.1875 46.574219 50.1875 47.222656 49.542969 L 48.570312 48.191406 C 48.882812 47.878906 49.054688 47.464844 49.054688 47.023438 C 49.054688 46.582031 48.882812 46.164062 48.570312 45.851562 C 48.097656 45.378906 48.273438 44.828125 48.335938 44.671875 C 48.402344 44.511719 48.667969 44 49.339844 44 C 50.25 44 50.992188 43.257812 50.992188 42.347656 L 50.992188 40.4375 C 50.992188 39.523438 50.25 38.78125 49.339844 38.78125 C 48.667969 38.78125 48.402344 38.269531 48.335938 38.113281 C 48.273438 37.953125 48.097656 37.40625 48.570312 36.929688 C 48.882812 36.617188 49.054688 36.203125 49.054688 35.761719 C 49.054688 35.316406 48.882812 34.902344 48.570312 34.589844 L 47.222656 33.242188 C 46.578125 32.597656 45.527344 32.597656 44.882812 33.242188 C 44.40625 33.714844 43.855469 33.539062 43.699219 33.476562 C 43.542969 33.410156 43.027344 33.144531 43.027344 32.472656 C 43.027344 31.5625 42.289062 30.820312 41.375 30.820312 L 39.464844 30.820312 C 38.554688 30.820312 37.8125 31.5625 37.8125 32.472656 C 37.8125 33.144531 37.296875 33.410156 37.140625 33.476562 C 36.984375 33.539062 36.433594 33.714844 35.960938 33.242188 C 35.316406 32.597656 34.265625 32.597656 33.621094 33.242188 L 32.269531 34.589844 C 31.957031 34.902344 31.785156 35.320312 31.785156 35.761719 C 31.785156 36.203125 31.957031 36.617188 32.269531 36.929688 C 32.746094 37.40625 32.570312 37.957031 32.503906 38.113281 C 32.4375 38.269531 32.171875 38.785156 31.5 38.785156 Z M 34.402344 38.898438 C 34.84375 37.828125 34.683594 36.664062 33.988281 35.777344 L 34.804688 34.960938 C 35.695312 35.652344 36.855469 35.816406 37.925781 35.371094 C 38.996094 34.929688 39.703125 33.992188 39.839844 32.875 L 41 32.875 C 41.136719 33.992188 41.84375 34.929688 42.914062 35.371094 C 43.984375 35.816406 45.144531 35.652344 46.035156 34.960938 L 46.851562 35.777344 C 46.15625 36.664062 45.996094 37.828125 46.4375 38.898438 C 46.882812 39.96875 47.820312 40.675781 48.9375 40.8125 L 48.9375 41.972656 C 47.820312 42.105469 46.882812 42.816406 46.4375 43.886719 C 45.996094 44.957031 46.15625 46.117188 46.851562 47.007812 L 46.035156 47.824219 C 45.148438 47.128906 43.984375 46.96875 42.914062 47.410156 C 41.84375 47.855469 41.136719 48.792969 41 49.910156 L 39.839844 49.910156 C 39.703125 48.789062 38.996094 47.851562 37.925781 47.410156 C 36.855469 46.964844 35.695312 47.128906 34.804688 47.824219 L 33.984375 47.007812 C 34.679688 46.117188 34.84375 44.957031 34.398438 43.886719 C 33.957031 42.816406 33.019531 42.105469 31.902344 41.972656 L 31.902344 40.8125 C 33.019531 40.675781 33.957031 39.96875 34.402344 38.898438 Z M 40.421875 47.082031 C 43.558594 47.082031 46.113281 44.53125 46.113281 41.390625 C 46.113281 38.253906 43.558594 35.699219 40.421875 35.699219 C 37.28125 35.699219 34.730469 38.253906 34.730469 41.390625 C 34.730469 44.53125 37.28125 47.082031 40.421875 47.082031 Z M 40.421875 37.753906 C 42.425781 37.753906 44.058594 39.386719 44.058594 41.390625 C 44.058594 43.398438 42.425781 45.03125 40.421875 45.03125 C 38.414062 45.03125 36.78125 43.398438 36.78125 41.390625 C 36.78125 39.386719 38.414062 37.753906 40.421875 37.753906 Z M 56.308594 21.675781 C 56.308594 21.007812 55.917969 20.429688 55.359375 20.148438 L 55.359375 15.042969 C 55.359375 14.566406 55.230469 14.144531 54.972656 13.746094 L 52.136719 9.363281 C 51.6875 8.671875 50.957031 8.273438 50.132812 8.273438 L 44.5625 8.273438 L 44.5625 4.320312 C 44.5625 3.753906 44.101562 3.292969 43.535156 3.292969 L 26.238281 3.292969 C 25.671875 3.292969 25.214844 3.753906 25.214844 4.320312 L 25.214844 20.316406 C 24.800781 20.628906 24.53125 21.121094 24.53125 21.675781 L 24.53125 23.347656 C 24.53125 24.289062 25.296875 25.054688 26.238281 25.054688 L 28.988281 25.054688 C 29.71875 26.171875 30.980469 26.914062 32.410156 26.914062 C 33.84375 26.914062 35.105469 26.171875 35.835938 25.054688 L 44.738281 25.054688 C 45.46875 26.171875 46.730469 26.914062 48.160156 26.914062 C 49.59375 26.914062 50.855469 26.171875 51.585938 25.054688 L 54.601562 25.054688 C 55.542969 25.054688 56.308594 24.289062 56.308594 23.347656 Z M 50.414062 10.480469 L 52.222656 13.277344 L 48.257812 13.277344 L 48.257812 10.328125 L 50.132812 10.328125 C 50.261719 10.328125 50.34375 10.375 50.414062 10.480469 Z M 46.203125 10.328125 L 46.203125 14.304688 C 46.203125 14.871094 46.664062 15.332031 47.230469 15.332031 L 53.304688 15.332031 L 53.304688 19.96875 L 51.085938 19.96875 C 50.34375 19.207031 49.308594 18.734375 48.160156 18.734375 C 47.011719 18.734375 45.976562 19.207031 45.234375 19.96875 L 44.5625 19.96875 L 44.5625 10.328125 Z M 42.507812 5.347656 L 42.507812 19.96875 L 35.339844 19.96875 C 34.59375 19.207031 33.558594 18.734375 32.410156 18.734375 C 31.265625 18.734375 30.226562 19.207031 29.484375 19.96875 L 27.265625 19.96875 L 27.265625 5.347656 Z M 26.585938 23 L 26.585938 22.023438 L 28.398438 22.023438 C 28.347656 22.28125 28.320312 22.546875 28.320312 22.820312 C 28.320312 22.882812 28.320312 22.941406 28.324219 23 Z M 32.410156 24.859375 C 31.289062 24.859375 30.375 23.945312 30.375 22.820312 C 30.375 21.699219 31.289062 20.785156 32.410156 20.785156 C 33.535156 20.785156 34.449219 21.699219 34.449219 22.820312 C 34.449219 23.945312 33.535156 24.859375 32.410156 24.859375 Z M 36.496094 23 C 36.5 22.941406 36.5 22.882812 36.5 22.824219 C 36.5 22.546875 36.472656 22.28125 36.421875 22.023438 L 44.148438 22.023438 C 44.097656 22.28125 44.070312 22.546875 44.070312 22.824219 C 44.070312 22.882812 44.070312 22.941406 44.074219 23 Z M 48.160156 24.859375 C 47.039062 24.859375 46.121094 23.945312 46.121094 22.820312 C 46.121094 21.699219 47.035156 20.785156 48.160156 20.785156 C 49.285156 20.785156 50.195312 21.699219 50.195312 22.820312 C 50.195312 23.945312 49.28125 24.859375 48.160156 24.859375 Z M 54.253906 23 L 52.246094 23 C 52.246094 22.941406 52.25 22.882812 52.25 22.824219 C 52.25 22.546875 52.222656 22.28125 52.171875 22.023438 L 54.253906 22.023438 Z M 65.328125 57.871094 C 67.585938 57.625 69.347656 55.707031 69.347656 53.382812 C 69.347656 50.894531 67.324219 48.867188 64.832031 48.867188 C 62.34375 48.867188 60.316406 50.894531 60.316406 53.382812 C 60.316406 55.703125 62.078125 57.621094 64.335938 57.871094 C 59.839844 58.128906 56.257812 61.867188 56.257812 66.429688 C 56.257812 67.429688 56.785156 68.816406 59.289062 69.738281 C 60.769531 70.28125 62.738281 70.582031 64.832031 70.582031 C 68.789062 70.582031 73.40625 69.496094 73.40625 66.429688 C 73.40625 61.867188 69.828125 58.128906 65.328125 57.871094 Z M 62.371094 53.382812 C 62.371094 52.027344 63.476562 50.921875 64.832031 50.921875 C 66.191406 50.921875 67.292969 52.027344 67.292969 53.382812 C 67.292969 54.742188 66.191406 55.84375 64.832031 55.84375 C 63.476562 55.84375 62.371094 54.742188 62.371094 53.382812 Z M 64.832031 68.53125 C 60.988281 68.53125 58.3125 67.421875 58.3125 66.429688 C 58.3125 62.835938 61.238281 59.910156 64.832031 59.910156 C 68.429688 59.910156 71.351562 62.835938 71.351562 66.429688 C 71.355469 67.421875 68.675781 68.53125 64.832031 68.53125 Z M 23.359375 54.117188 C 23.105469 53.925781 22.777344 53.859375 22.46875 53.945312 L 16.261719 55.625 L 16.261719 54.933594 C 16.261719 54.613281 16.113281 54.3125 15.859375 54.117188 C 15.605469 53.925781 15.277344 53.859375 14.96875 53.945312 L 8.761719 55.625 L 8.761719 49.328125 C 8.761719 48.480469 8.074219 47.792969 7.230469 47.792969 L 3.859375 47.792969 C 3.011719 47.792969 2.324219 48.480469 2.324219 49.328125 L 2.324219 65.574219 C 2.324219 66.144531 2.785156 66.601562 3.351562 66.601562 L 22.738281 66.601562 C 23.304688 66.601562 23.765625 66.144531 23.765625 65.574219 L 23.765625 54.933594 C 23.765625 54.613281 23.613281 54.3125 23.359375 54.117188 Z M 6.710938 49.847656 L 6.710938 50.933594 L 4.378906 50.933594 L 4.378906 49.847656 Z M 4.378906 64.550781 L 4.378906 52.984375 L 6.710938 52.984375 L 6.710938 64.550781 Z M 8.761719 57.753906 L 14.210938 56.277344 L 14.210938 64.550781 L 8.761719 64.550781 Z M 21.710938 64.550781 L 16.261719 64.550781 L 16.261719 57.753906 L 21.710938 56.277344 Z M 54.351562 67.945312 C 54.597656 68.457031 54.382812 69.070312 53.871094 69.316406 C 46.328125 72.957031 37.394531 73.335938 29.5625 70.421875 L 30.464844 72.589844 C 30.679688 73.113281 30.433594 73.714844 29.910156 73.933594 C 29.78125 73.984375 29.648438 74.011719 29.515625 74.011719 C 29.113281 74.011719 28.730469 73.773438 28.566406 73.378906 L 26.707031 68.902344 C 26.601562 68.648438 26.601562 68.367188 26.707031 68.117188 C 26.808594 67.863281 27.011719 67.664062 27.261719 67.558594 L 31.738281 65.699219 C 32.261719 65.480469 32.859375 65.730469 33.078125 66.253906 C 33.296875 66.777344 33.050781 67.378906 32.527344 67.597656 L 30.316406 68.511719 C 37.621094 71.21875 45.945312 70.863281 52.980469 67.46875 C 53.488281 67.222656 54.105469 67.4375 54.351562 67.945312 Z M 74.382812 44.5625 L 70.542969 47.515625 C 70.359375 47.65625 70.140625 47.730469 69.914062 47.730469 C 69.871094 47.730469 69.828125 47.726562 69.78125 47.722656 C 69.511719 47.6875 69.265625 47.542969 69.101562 47.328125 L 66.148438 43.488281 C 65.800781 43.035156 65.886719 42.390625 66.335938 42.046875 C 66.785156 41.703125 67.429688 41.785156 67.773438 42.234375 L 69.230469 44.128906 C 69.953125 36.375 67.453125 28.425781 62.355469 22.511719 C 61.988281 22.082031 62.035156 21.433594 62.464844 21.0625 C 62.894531 20.691406 63.542969 20.742188 63.910156 21.171875 C 69.378906 27.515625 72.058594 36.046875 71.273438 44.363281 L 73.132812 42.933594 C 73.582031 42.589844 74.226562 42.671875 74.570312 43.121094 C 74.917969 43.570312 74.832031 44.21875 74.382812 44.5625 Z M 15.1875 23.390625 L 12.863281 23.699219 C 12.300781 23.777344 11.785156 23.378906 11.710938 22.816406 C 11.636719 22.257812 12.03125 21.738281 12.59375 21.664062 L 17.398438 21.027344 C 17.960938 20.953125 18.476562 21.347656 18.550781 21.910156 L 19.1875 26.714844 C 19.261719 27.277344 18.867188 27.792969 18.304688 27.867188 C 17.742188 27.941406 17.226562 27.546875 17.152344 26.984375 L 16.835938 24.617188 C 12.335938 30.96875 10.527344 39.105469 11.984375 46.773438 C 12.089844 47.332031 11.722656 47.871094 11.167969 47.976562 C 11.101562 47.988281 11.035156 47.992188 10.972656 47.992188 C 10.488281 47.992188 10.058594 47.648438 9.964844 47.15625 C 8.402344 38.929688 10.347656 30.199219 15.1875 23.390625 Z M 49.164062 22.824219 C 49.164062 23.378906 48.714844 23.828125 48.160156 23.828125 C 47.605469 23.828125 47.15625 23.378906 47.15625 22.824219 C 47.15625 22.269531 47.605469 21.816406 48.160156 21.816406 C 48.714844 21.816406 49.164062 22.269531 49.164062 22.824219 Z M 33.414062 22.824219 C 33.414062 23.378906 32.964844 23.828125 32.410156 23.828125 C 31.855469 23.828125 31.40625 23.378906 31.40625 22.824219 C 31.40625 22.269531 31.855469 21.816406 32.410156 21.816406 C 32.964844 21.816406 33.414062 22.269531 33.414062 22.824219 Z M 11.046875 58.691406 L 11.046875 60.023438 C 11.046875 60.089844 10.988281 60.148438 10.921875 60.148438 L 9.589844 60.148438 C 9.523438 60.148438 9.464844 60.089844 9.464844 60.023438 L 9.464844 58.691406 C 9.464844 58.625 9.523438 58.566406 9.589844 58.566406 L 10.921875 58.566406 C 10.988281 58.566406 11.046875 58.625 11.046875 58.691406 Z M 19.425781 60.023438 L 19.425781 58.691406 C 19.425781 58.625 19.484375 58.566406 19.550781 58.566406 L 20.882812 58.566406 C 20.949219 58.566406 21.007812 58.625 21.007812 58.691406 L 21.007812 60.023438 C 21.007812 60.089844 20.949219 60.148438 20.882812 60.148438 L 19.550781 60.148438 C 19.484375 60.148438 19.425781 60.09375 19.425781 60.023438 Z M 16.964844 60.023438 L 16.964844 58.691406 C 16.964844 58.625 17.023438 58.566406 17.089844 58.566406 L 18.421875 58.566406 C 18.488281 58.566406 18.546875 58.625 18.546875 58.691406 L 18.546875 60.023438 C 18.546875 60.089844 18.488281 60.148438 18.421875 60.148438 L 17.089844 60.148438 C 17.023438 60.148438 16.964844 60.09375 16.964844 60.023438 Z M 13.507812 58.691406 L 13.507812 60.023438 C 13.507812 60.089844 13.449219 60.148438 13.382812 60.148438 L 12.050781 60.148438 C 11.984375 60.148438 11.925781 60.089844 11.925781 60.023438 L 11.925781 58.691406 C 11.925781 58.625 11.984375 58.566406 12.050781 58.566406 L 13.382812 58.566406 C 13.449219 58.566406 13.507812 58.625 13.507812 58.691406 Z M 13.507812 58.691406 " fill-opacity="1" fill-rule="nonzero"/></g></svg>